<svg version="1.1" xmlns="http://www.w3.org/2000/svg" xmlns:xlink="http://www.w3.org/1999/xlink" stroke-linecap="round" stroke-linejoin="round" stroke-width="0" fill-rule="evenodd" clip-rule="evenodd" id="Qdz9wOTaXLHA_bottom" viewBox="50800 -127000 127000 63500" width="127mm" height="63.5mm"><defs><style>.Qdz9wOTaXLHA_fr4 {color: #666666;}
.Qdz9wOTaXLHA_cu {color: #cccccc;}
.Qdz9wOTaXLHA_cf {color: #cc9933;}
.Qdz9wOTaXLHA_sm {color: #ff0000; opacity: 0.75;}
.Qdz9wOTaXLHA_ss {color: #ffffff;}
.Qdz9wOTaXLHA_sp {color: #999999;}
.Qdz9wOTaXLHA_out {color: #000000;}</style><circle cx="0" cy="0" r="720" id="qBXA0Wy_DAU8_pad-11"/><circle cx="0" cy="0" r="1500" id="qBXA0Wy_DAU8_pad-12"/><rect x="-1750" y="-1750" width="3500" height="3500" id="qBXA0Wy_DAU8_pad-13"/><rect x="-1200" y="-800" width="2400" height="1600" rx="800" ry="800" id="qBXA0Wy_DAU8_pad-14"/><rect x="-1200" y="-800" width="2400" height="1600" id="qBXA0Wy_DAU8_pad-15"/><rect x="-750" y="-525" width="1500" height="1050" id="qBXA0Wy_DAU8_pad-16"/><rect x="-750" y="-525" width="1500" height="1050" rx="525" ry="525" id="qBXA0Wy_DAU8_pad-17"/><rect x="-952.5" y="-1000" width="1905" height="2000" rx="952.5" ry="952.5" id="qBXA0Wy_DAU8_pad-18"/><rect x="-952.5" y="-1000" width="1905" height="2000" id="qBXA0Wy_DAU8_pad-19"/><rect x="-1000" y="-952.5" width="2000" height="1905" rx="952.5" ry="952.5" id="qBXA0Wy_DAU8_pad-20"/><rect x="-1000" y="-952.5" width="2000" height="1905" id="qBXA0Wy_DAU8_pad-21"/><rect x="-850" y="-850" width="1700" height="1700" rx="850" ry="850" id="qBXA0Wy_DAU8_pad-22"/><rect x="-850" y="-850" width="1700" height="1700" id="qBXA0Wy_DAU8_pad-23"/><circle cx="0" cy="0" r="800" id="qBXA0Wy_DAU8_pad-24"/><rect x="-800" y="-800" width="1600" height="1600" id="qBXA0Wy_DAU8_pad-25"/><circle cx="0" cy="0" r="400" id="qBXA0Wy_DAU8_pad-26"/><circle cx="0" cy="0" r="720" id="YvXTkR1BFLW2_pad-11"/><circle cx="0" cy="0" r="1500" id="YvXTkR1BFLW2_pad-12"/><rect x="-1750" y="-1750" width="3500" height="3500" id="YvXTkR1BFLW2_pad-13"/><rect x="-1200" y="-800" width="2400" height="1600" rx="800" ry="800" id="YvXTkR1BFLW2_pad-14"/><rect x="-1200" y="-800" width="2400" height="1600" id="YvXTkR1BFLW2_pad-15"/><rect x="-750" y="-525" width="1500" height="1050" id="YvXTkR1BFLW2_pad-16"/><rect x="-750" y="-525" width="1500" height="1050" rx="525" ry="525" id="YvXTkR1BFLW2_pad-17"/><rect x="-952.5" y="-1000" width="1905" height="2000" rx="952.5" ry="952.5" id="YvXTkR1BFLW2_pad-18"/><rect x="-952.5" y="-1000" width="1905" height="2000" id="YvXTkR1BFLW2_pad-19"/><rect x="-1000" y="-952.5" width="2000" height="1905" rx="952.5" ry="952.5" id="YvXTkR1BFLW2_pad-20"/><rect x="-1000" y="-952.5" width="2000" height="1905" id="YvXTkR1BFLW2_pad-21"/><circle cx="0" cy="0" r="1600" id="YvXTkR1BFLW2_pad-22"/><rect x="-850" y="-850" width="1700" height="1700" rx="850" ry="850" id="YvXTkR1BFLW2_pad-23"/><rect x="-850" y="-850" width="1700" height="1700" id="YvXTkR1BFLW2_pad-24"/><circle cx="0" cy="0" r="800" id="YvXTkR1BFLW2_pad-25"/><rect x="-800" y="-800" width="1600" height="1600" id="YvXTkR1BFLW2_pad-26"/><g id="Qdz9wOTaXLHA_bottom_copper"><path d="M 50800 -127000 177800 -127000 M 50800 -63500 177800 -63500 M 50800 -127000 50800 -63500 M 177800 -127000 177800 -63500" fill="none" stroke-width="150"/><use xlink:href="#qBXA0Wy_DAU8_pad-11" x="139700" y="-119380"/><use xlink:href="#qBXA0Wy_DAU8_pad-11" x="139700" y="-116840"/><use xlink:href="#qBXA0Wy_DAU8_pad-11" x="139700" y="-114300"/><use xlink:href="#qBXA0Wy_DAU8_pad-12" x="151130" y="-67945"/><path d="M 83325 -67640 85075 -67640 A 875 875 0 0 0 85950 -68515 L 85950 -70265 A 875 875 0 0 0 85075 -71140 L 83325 -71140 A 875 875 0 0 0 82450 -70265 L 82450 -68515 A 875 875 0 0 0 83325 -67640"/><path d="M 87900 -64890 89900 -64890 A 750 750 0 0 0 90650 -65640 L 90650 -67140 A 750 750 0 0 0 89900 -67890 L 87900 -67890 A 750 750 0 0 0 87150 -67140 L 87150 -65640 A 750 750 0 0 0 87900 -64890"/><use xlink:href="#qBXA0Wy_DAU8_pad-13" x="88900" y="-72390"/><path d="M 70625 -67640 72375 -67640 A 875 875 0 0 0 73250 -68515 L 73250 -70265 A 875 875 0 0 0 72375 -71140 L 70625 -71140 A 875 875 0 0 0 69750 -70265 L 69750 -68515 A 875 875 0 0 0 70625 -67640"/><path d="M 75200 -64890 77200 -64890 A 750 750 0 0 0 77950 -65640 L 77950 -67140 A 750 750 0 0 0 77200 -67890 L 75200 -67890 A 750 750 0 0 0 74450 -67140 L 74450 -65640 A 750 750 0 0 0 75200 -64890"/><use xlink:href="#qBXA0Wy_DAU8_pad-13" x="76200" y="-72390"/><use xlink:href="#qBXA0Wy_DAU8_pad-11" x="76200" y="-119380"/><use xlink:href="#qBXA0Wy_DAU8_pad-11" x="76200" y="-116840"/><use xlink:href="#qBXA0Wy_DAU8_pad-11" x="76200" y="-114300"/><use xlink:href="#qBXA0Wy_DAU8_pad-14" x="111760" y="-86360"/><use xlink:href="#qBXA0Wy_DAU8_pad-14" x="104140" y="-93980"/><use xlink:href="#qBXA0Wy_DAU8_pad-14" x="111760" y="-88900"/><use xlink:href="#qBXA0Wy_DAU8_pad-14" x="104140" y="-91440"/><use xlink:href="#qBXA0Wy_DAU8_pad-14" x="111760" y="-91440"/><use xlink:href="#qBXA0Wy_DAU8_pad-14" x="104140" y="-88900"/><use xlink:href="#qBXA0Wy_DAU8_pad-14" x="111760" y="-93980"/><use xlink:href="#qBXA0Wy_DAU8_pad-15" x="104140" y="-86360"/><use xlink:href="#qBXA0Wy_DAU8_pad-14" x="99060" y="-86360"/><use xlink:href="#qBXA0Wy_DAU8_pad-14" x="91440" y="-93980"/><use xlink:href="#qBXA0Wy_DAU8_pad-14" x="99060" y="-88900"/><use xlink:href="#qBXA0Wy_DAU8_pad-14" x="91440" y="-91440"/><use xlink:href="#qBXA0Wy_DAU8_pad-14" x="99060" y="-91440"/><use xlink:href="#qBXA0Wy_DAU8_pad-14" x="91440" y="-88900"/><use xlink:href="#qBXA0Wy_DAU8_pad-14" x="99060" y="-93980"/><use xlink:href="#qBXA0Wy_DAU8_pad-15" x="91440" y="-86360"/><use xlink:href="#qBXA0Wy_DAU8_pad-14" x="124460" y="-86360"/><use xlink:href="#qBXA0Wy_DAU8_pad-14" x="116840" y="-93980"/><use xlink:href="#qBXA0Wy_DAU8_pad-14" x="124460" y="-88900"/><use xlink:href="#qBXA0Wy_DAU8_pad-14" x="116840" y="-91440"/><use xlink:href="#qBXA0Wy_DAU8_pad-14" x="124460" y="-91440"/><use xlink:href="#qBXA0Wy_DAU8_pad-14" x="116840" y="-88900"/><use xlink:href="#qBXA0Wy_DAU8_pad-14" x="124460" y="-93980"/><use xlink:href="#qBXA0Wy_DAU8_pad-15" x="116840" y="-86360"/><use xlink:href="#qBXA0Wy_DAU8_pad-14" x="162560" y="-86360"/><use xlink:href="#qBXA0Wy_DAU8_pad-14" x="154940" y="-93980"/><use xlink:href="#qBXA0Wy_DAU8_pad-14" x="162560" y="-88900"/><use xlink:href="#qBXA0Wy_DAU8_pad-14" x="154940" y="-91440"/><use xlink:href="#qBXA0Wy_DAU8_pad-14" x="162560" y="-91440"/><use xlink:href="#qBXA0Wy_DAU8_pad-14" x="154940" y="-88900"/><use xlink:href="#qBXA0Wy_DAU8_pad-14" x="162560" y="-93980"/><use xlink:href="#qBXA0Wy_DAU8_pad-15" x="154940" y="-86360"/><use xlink:href="#qBXA0Wy_DAU8_pad-14" x="149860" y="-86360"/><use xlink:href="#qBXA0Wy_DAU8_pad-14" x="142240" y="-93980"/><use xlink:href="#qBXA0Wy_DAU8_pad-14" x="149860" y="-88900"/><use xlink:href="#qBXA0Wy_DAU8_pad-14" x="142240" y="-91440"/><use xlink:href="#qBXA0Wy_DAU8_pad-14" x="149860" y="-91440"/><use xlink:href="#qBXA0Wy_DAU8_pad-14" x="142240" y="-88900"/><use xlink:href="#qBXA0Wy_DAU8_pad-14" x="149860" y="-93980"/><use xlink:href="#qBXA0Wy_DAU8_pad-15" x="142240" y="-86360"/><use xlink:href="#qBXA0Wy_DAU8_pad-14" x="137160" y="-86360"/><use xlink:href="#qBXA0Wy_DAU8_pad-14" x="129540" y="-93980"/><use xlink:href="#qBXA0Wy_DAU8_pad-14" x="137160" y="-88900"/><use xlink:href="#qBXA0Wy_DAU8_pad-14" x="129540" y="-91440"/><use xlink:href="#qBXA0Wy_DAU8_pad-14" x="137160" y="-91440"/><use xlink:href="#qBXA0Wy_DAU8_pad-14" x="129540" y="-88900"/><use xlink:href="#qBXA0Wy_DAU8_pad-14" x="137160" y="-93980"/><use xlink:href="#qBXA0Wy_DAU8_pad-15" x="129540" y="-86360"/><use xlink:href="#qBXA0Wy_DAU8_pad-14" x="86360" y="-86360"/><use xlink:href="#qBXA0Wy_DAU8_pad-14" x="78740" y="-93980"/><use xlink:href="#qBXA0Wy_DAU8_pad-14" x="86360" y="-88900"/><use xlink:href="#qBXA0Wy_DAU8_pad-14" x="78740" y="-91440"/><use xlink:href="#qBXA0Wy_DAU8_pad-14" x="86360" y="-91440"/><use xlink:href="#qBXA0Wy_DAU8_pad-14" x="78740" y="-88900"/><use xlink:href="#qBXA0Wy_DAU8_pad-14" x="86360" y="-93980"/><use xlink:href="#qBXA0Wy_DAU8_pad-15" x="78740" y="-86360"/><use xlink:href="#qBXA0Wy_DAU8_pad-14" x="73660" y="-86360"/><use xlink:href="#qBXA0Wy_DAU8_pad-14" x="66040" y="-93980"/><use xlink:href="#qBXA0Wy_DAU8_pad-14" x="73660" y="-88900"/><use xlink:href="#qBXA0Wy_DAU8_pad-14" x="66040" y="-91440"/><use xlink:href="#qBXA0Wy_DAU8_pad-14" x="73660" y="-91440"/><use xlink:href="#qBXA0Wy_DAU8_pad-14" x="66040" y="-88900"/><use xlink:href="#qBXA0Wy_DAU8_pad-14" x="73660" y="-93980"/><use xlink:href="#qBXA0Wy_DAU8_pad-15" x="66040" y="-86360"/><use xlink:href="#qBXA0Wy_DAU8_pad-11" x="101600" y="-119380"/><use xlink:href="#qBXA0Wy_DAU8_pad-11" x="101600" y="-116840"/><use xlink:href="#qBXA0Wy_DAU8_pad-11" x="101600" y="-114300"/><use xlink:href="#qBXA0Wy_DAU8_pad-11" x="88900" y="-119380"/><use xlink:href="#qBXA0Wy_DAU8_pad-11" x="88900" y="-116840"/><use xlink:href="#qBXA0Wy_DAU8_pad-11" x="88900" y="-114300"/><use xlink:href="#qBXA0Wy_DAU8_pad-11" x="114300" y="-119380"/><use xlink:href="#qBXA0Wy_DAU8_pad-11" x="114300" y="-116840"/><use xlink:href="#qBXA0Wy_DAU8_pad-11" x="114300" y="-114300"/><use xlink:href="#qBXA0Wy_DAU8_pad-11" x="152400" y="-119380"/><use xlink:href="#qBXA0Wy_DAU8_pad-11" x="152400" y="-116840"/><use xlink:href="#qBXA0Wy_DAU8_pad-11" x="152400" y="-114300"/><use xlink:href="#qBXA0Wy_DAU8_pad-11" x="127000" y="-119380"/><use xlink:href="#qBXA0Wy_DAU8_pad-11" x="127000" y="-116840"/><use xlink:href="#qBXA0Wy_DAU8_pad-11" x="127000" y="-114300"/><use xlink:href="#qBXA0Wy_DAU8_pad-11" x="63500" y="-119380"/><use xlink:href="#qBXA0Wy_DAU8_pad-11" x="63500" y="-116840"/><use xlink:href="#qBXA0Wy_DAU8_pad-11" x="63500" y="-114300"/><use xlink:href="#qBXA0Wy_DAU8_pad-16" x="111760" y="-99060"/><use xlink:href="#qBXA0Wy_DAU8_pad-17" x="111760" y="-101600"/><use xlink:href="#qBXA0Wy_DAU8_pad-17" x="111760" y="-100330"/><use xlink:href="#qBXA0Wy_DAU8_pad-16" x="99060" y="-99060"/><use xlink:href="#qBXA0Wy_DAU8_pad-17" x="99060" y="-101600"/><use xlink:href="#qBXA0Wy_DAU8_pad-17" x="99060" y="-100330"/><use xlink:href="#qBXA0Wy_DAU8_pad-16" x="124460" y="-99060"/><use xlink:href="#qBXA0Wy_DAU8_pad-17" x="124460" y="-101600"/><use xlink:href="#qBXA0Wy_DAU8_pad-17" x="124460" y="-100330"/><use xlink:href="#qBXA0Wy_DAU8_pad-16" x="162560" y="-99060"/><use xlink:href="#qBXA0Wy_DAU8_pad-17" x="162560" y="-101600"/><use xlink:href="#qBXA0Wy_DAU8_pad-17" x="162560" y="-100330"/><use xlink:href="#qBXA0Wy_DAU8_pad-16" x="149860" y="-99060"/><use xlink:href="#qBXA0Wy_DAU8_pad-17" x="149860" y="-101600"/><use xlink:href="#qBXA0Wy_DAU8_pad-17" x="149860" y="-100330"/><use xlink:href="#qBXA0Wy_DAU8_pad-16" x="137160" y="-99060"/><use xlink:href="#qBXA0Wy_DAU8_pad-17" x="137160" y="-101600"/><use xlink:href="#qBXA0Wy_DAU8_pad-17" x="137160" y="-100330"/><use xlink:href="#qBXA0Wy_DAU8_pad-16" x="86360" y="-99060"/><use xlink:href="#qBXA0Wy_DAU8_pad-17" x="86360" y="-101600"/><use xlink:href="#qBXA0Wy_DAU8_pad-17" x="86360" y="-100330"/><use xlink:href="#qBXA0Wy_DAU8_pad-16" x="73660" y="-99060"/><use xlink:href="#qBXA0Wy_DAU8_pad-17" x="73660" y="-101600"/><use xlink:href="#qBXA0Wy_DAU8_pad-17" x="73660" y="-100330"/><use xlink:href="#qBXA0Wy_DAU8_pad-18" x="110490" y="-107950"/><use xlink:href="#qBXA0Wy_DAU8_pad-18" x="107950" y="-107950"/><use xlink:href="#qBXA0Wy_DAU8_pad-19" x="105410" y="-107950"/><use xlink:href="#qBXA0Wy_DAU8_pad-18" x="97790" y="-107950"/><use xlink:href="#qBXA0Wy_DAU8_pad-18" x="95250" y="-107950"/><use xlink:href="#qBXA0Wy_DAU8_pad-19" x="92710" y="-107950"/><use xlink:href="#qBXA0Wy_DAU8_pad-18" x="123190" y="-107950"/><use xlink:href="#qBXA0Wy_DAU8_pad-18" x="120650" y="-107950"/><use xlink:href="#qBXA0Wy_DAU8_pad-19" x="118110" y="-107950"/><use xlink:href="#qBXA0Wy_DAU8_pad-18" x="161290" y="-107950"/><use xlink:href="#qBXA0Wy_DAU8_pad-18" x="158750" y="-107950"/><use xlink:href="#qBXA0Wy_DAU8_pad-19" x="156210" y="-107950"/><use xlink:href="#qBXA0Wy_DAU8_pad-18" x="148590" y="-107950"/><use xlink:href="#qBXA0Wy_DAU8_pad-18" x="146050" y="-107950"/><use xlink:href="#qBXA0Wy_DAU8_pad-19" x="143510" y="-107950"/><use xlink:href="#qBXA0Wy_DAU8_pad-18" x="135890" y="-107950"/><use xlink:href="#qBXA0Wy_DAU8_pad-18" x="133350" y="-107950"/><use xlink:href="#qBXA0Wy_DAU8_pad-19" x="130810" y="-107950"/><use xlink:href="#qBXA0Wy_DAU8_pad-18" x="85090" y="-107950"/><use xlink:href="#qBXA0Wy_DAU8_pad-18" x="82550" y="-107950"/><use xlink:href="#qBXA0Wy_DAU8_pad-19" x="80010" y="-107950"/><use xlink:href="#qBXA0Wy_DAU8_pad-18" x="72390" y="-107950"/><use xlink:href="#qBXA0Wy_DAU8_pad-18" x="69850" y="-107950"/><use xlink:href="#qBXA0Wy_DAU8_pad-19" x="67310" y="-107950"/><use xlink:href="#qBXA0Wy_DAU8_pad-20" x="119380" y="-72390"/><use xlink:href="#qBXA0Wy_DAU8_pad-20" x="119380" y="-69850"/><use xlink:href="#qBXA0Wy_DAU8_pad-21" x="119380" y="-67310"/><use xlink:href="#qBXA0Wy_DAU8_pad-11" x="162560" y="-68580"/><use xlink:href="#qBXA0Wy_DAU8_pad-11" x="162560" y="-71120"/><use xlink:href="#qBXA0Wy_DAU8_pad-11" x="162560" y="-73660"/><use xlink:href="#qBXA0Wy_DAU8_pad-22" x="163830" y="-123190"/><use xlink:href="#qBXA0Wy_DAU8_pad-22" x="161290" y="-123190"/><use xlink:href="#qBXA0Wy_DAU8_pad-22" x="158750" y="-123190"/><use xlink:href="#qBXA0Wy_DAU8_pad-22" x="156210" y="-123190"/><use xlink:href="#qBXA0Wy_DAU8_pad-22" x="153670" y="-123190"/><use xlink:href="#qBXA0Wy_DAU8_pad-22" x="151130" y="-123190"/><use xlink:href="#qBXA0Wy_DAU8_pad-22" x="148590" y="-123190"/><use xlink:href="#qBXA0Wy_DAU8_pad-22" x="146050" y="-123190"/><use xlink:href="#qBXA0Wy_DAU8_pad-22" x="143510" y="-123190"/><use xlink:href="#qBXA0Wy_DAU8_pad-22" x="140970" y="-123190"/><use xlink:href="#qBXA0Wy_DAU8_pad-22" x="138430" y="-123190"/><use xlink:href="#qBXA0Wy_DAU8_pad-22" x="135890" y="-123190"/><use xlink:href="#qBXA0Wy_DAU8_pad-22" x="133350" y="-123190"/><use xlink:href="#qBXA0Wy_DAU8_pad-22" x="130810" y="-123190"/><use xlink:href="#qBXA0Wy_DAU8_pad-22" x="128270" y="-123190"/><use xlink:href="#qBXA0Wy_DAU8_pad-22" x="125730" y="-123190"/><use xlink:href="#qBXA0Wy_DAU8_pad-22" x="123190" y="-123190"/><use xlink:href="#qBXA0Wy_DAU8_pad-22" x="120650" y="-123190"/><use xlink:href="#qBXA0Wy_DAU8_pad-22" x="118110" y="-123190"/><use xlink:href="#qBXA0Wy_DAU8_pad-22" x="115570" y="-123190"/><use xlink:href="#qBXA0Wy_DAU8_pad-22" x="113030" y="-123190"/><use xlink:href="#qBXA0Wy_DAU8_pad-22" x="110490" y="-123190"/><use xlink:href="#qBXA0Wy_DAU8_pad-22" x="107950" y="-123190"/><use xlink:href="#qBXA0Wy_DAU8_pad-22" x="105410" y="-123190"/><use xlink:href="#qBXA0Wy_DAU8_pad-22" x="102870" y="-123190"/><use xlink:href="#qBXA0Wy_DAU8_pad-22" x="100330" y="-123190"/><use xlink:href="#qBXA0Wy_DAU8_pad-22" x="97790" y="-123190"/><use xlink:href="#qBXA0Wy_DAU8_pad-22" x="95250" y="-123190"/><use xlink:href="#qBXA0Wy_DAU8_pad-22" x="92710" y="-123190"/><use xlink:href="#qBXA0Wy_DAU8_pad-22" x="90170" y="-123190"/><use xlink:href="#qBXA0Wy_DAU8_pad-22" x="87630" y="-123190"/><use xlink:href="#qBXA0Wy_DAU8_pad-22" x="85090" y="-123190"/><use xlink:href="#qBXA0Wy_DAU8_pad-22" x="82550" y="-123190"/><use xlink:href="#qBXA0Wy_DAU8_pad-22" x="80010" y="-123190"/><use xlink:href="#qBXA0Wy_DAU8_pad-22" x="77470" y="-123190"/><use xlink:href="#qBXA0Wy_DAU8_pad-22" x="74930" y="-123190"/><use xlink:href="#qBXA0Wy_DAU8_pad-22" x="72390" y="-123190"/><use xlink:href="#qBXA0Wy_DAU8_pad-22" x="69850" y="-123190"/><use xlink:href="#qBXA0Wy_DAU8_pad-22" x="67310" y="-123190"/><use xlink:href="#qBXA0Wy_DAU8_pad-23" x="64770" y="-123190"/><use xlink:href="#qBXA0Wy_DAU8_pad-12" x="144780" y="-67945"/><use xlink:href="#qBXA0Wy_DAU8_pad-12" x="138430" y="-67945"/><use xlink:href="#qBXA0Wy_DAU8_pad-24" x="129540" y="-68620"/><use xlink:href="#qBXA0Wy_DAU8_pad-25" x="129540" y="-71120"/><use xlink:href="#qBXA0Wy_DAU8_pad-24" x="110490" y="-68620"/><use xlink:href="#qBXA0Wy_DAU8_pad-25" x="110490" y="-71120"/><use xlink:href="#qBXA0Wy_DAU8_pad-24" x="100330" y="-68620"/><use xlink:href="#qBXA0Wy_DAU8_pad-25" x="100330" y="-71120"/><use xlink:href="#qBXA0Wy_DAU8_pad-26" x="157480" y="-76200"/><use xlink:href="#qBXA0Wy_DAU8_pad-26" x="69850" y="-96520"/><use xlink:href="#qBXA0Wy_DAU8_pad-26" x="71755" y="-81280"/><use xlink:href="#qBXA0Wy_DAU8_pad-26" x="82550" y="-96520"/><use xlink:href="#qBXA0Wy_DAU8_pad-26" x="84455" y="-81280"/><use xlink:href="#qBXA0Wy_DAU8_pad-26" x="161290" y="-118110"/><use xlink:href="#qBXA0Wy_DAU8_pad-26" x="154940" y="-111760"/><use xlink:href="#qBXA0Wy_DAU8_pad-26" x="148590" y="-118110"/><use xlink:href="#qBXA0Wy_DAU8_pad-26" x="142240" y="-111760"/><use xlink:href="#qBXA0Wy_DAU8_pad-26" x="135890" y="-118110"/><use xlink:href="#qBXA0Wy_DAU8_pad-26" x="129540" y="-111760"/><use xlink:href="#qBXA0Wy_DAU8_pad-26" x="123190" y="-118110"/><use xlink:href="#qBXA0Wy_DAU8_pad-26" x="116840" y="-111760"/><use xlink:href="#qBXA0Wy_DAU8_pad-26" x="110490" y="-118110"/><use xlink:href="#qBXA0Wy_DAU8_pad-26" x="104140" y="-111760"/><use xlink:href="#qBXA0Wy_DAU8_pad-26" x="97790" y="-118110"/><use xlink:href="#qBXA0Wy_DAU8_pad-26" x="91440" y="-111760"/><use xlink:href="#qBXA0Wy_DAU8_pad-26" x="85090" y="-118110"/><use xlink:href="#qBXA0Wy_DAU8_pad-26" x="78740" y="-111760"/><use xlink:href="#qBXA0Wy_DAU8_pad-26" x="72390" y="-118110"/><use xlink:href="#qBXA0Wy_DAU8_pad-26" x="66040" y="-111760"/><use xlink:href="#qBXA0Wy_DAU8_pad-26" x="95250" y="-96520"/><use xlink:href="#qBXA0Wy_DAU8_pad-26" x="97155" y="-81280"/><use xlink:href="#qBXA0Wy_DAU8_pad-26" x="107950" y="-96520"/><use xlink:href="#qBXA0Wy_DAU8_pad-26" x="109855" y="-81280"/><use xlink:href="#qBXA0Wy_DAU8_pad-26" x="120650" y="-96520"/><use xlink:href="#qBXA0Wy_DAU8_pad-26" x="122555" y="-81280"/><use xlink:href="#qBXA0Wy_DAU8_pad-26" x="133350" y="-96520"/><use xlink:href="#qBXA0Wy_DAU8_pad-26" x="135255" y="-81280"/><use xlink:href="#qBXA0Wy_DAU8_pad-26" x="146050" y="-96520"/><use xlink:href="#qBXA0Wy_DAU8_pad-26" x="147955" y="-81280"/><use xlink:href="#qBXA0Wy_DAU8_pad-26" x="158750" y="-96520"/><use xlink:href="#qBXA0Wy_DAU8_pad-26" x="160655" y="-81280"/><use xlink:href="#qBXA0Wy_DAU8_pad-26" x="77470" y="-78105"/><use xlink:href="#qBXA0Wy_DAU8_pad-26" x="87630" y="-78105"/><use xlink:href="#qBXA0Wy_DAU8_pad-26" x="90170" y="-78105"/><use xlink:href="#qBXA0Wy_DAU8_pad-26" x="100330" y="-78105"/><use xlink:href="#qBXA0Wy_DAU8_pad-26" x="102870" y="-78105"/><use xlink:href="#qBXA0Wy_DAU8_pad-26" x="113030" y="-78105"/><use xlink:href="#qBXA0Wy_DAU8_pad-26" x="115570" y="-78105"/><use xlink:href="#qBXA0Wy_DAU8_pad-26" x="125730" y="-78105"/><use xlink:href="#qBXA0Wy_DAU8_pad-26" x="128270" y="-78105"/><use xlink:href="#qBXA0Wy_DAU8_pad-26" x="138430" y="-78105"/><use xlink:href="#qBXA0Wy_DAU8_pad-26" x="140970" y="-78105"/><use xlink:href="#qBXA0Wy_DAU8_pad-26" x="151130" y="-78105"/><use xlink:href="#qBXA0Wy_DAU8_pad-26" x="153670" y="-78105"/><use xlink:href="#qBXA0Wy_DAU8_pad-26" x="74930" y="-78105"/><use xlink:href="#qBXA0Wy_DAU8_pad-26" x="65405" y="-78105"/><use xlink:href="#qBXA0Wy_DAU8_pad-26" x="163195" y="-78105"/><use xlink:href="#qBXA0Wy_DAU8_pad-26" x="69893.5" y="-85090"/><use xlink:href="#qBXA0Wy_DAU8_pad-26" x="68580" y="-96520"/><use xlink:href="#qBXA0Wy_DAU8_pad-26" x="81280" y="-96520"/><use xlink:href="#qBXA0Wy_DAU8_pad-26" x="82550" y="-85090"/><use xlink:href="#qBXA0Wy_DAU8_pad-26" x="93980" y="-96520"/><use xlink:href="#qBXA0Wy_DAU8_pad-26" x="95250" y="-85090"/><use xlink:href="#qBXA0Wy_DAU8_pad-26" x="106680" y="-96520"/><use xlink:href="#qBXA0Wy_DAU8_pad-26" x="107950" y="-85090"/><use xlink:href="#qBXA0Wy_DAU8_pad-26" x="119380" y="-96520"/><use xlink:href="#qBXA0Wy_DAU8_pad-26" x="120693.5" y="-85090"/><use xlink:href="#qBXA0Wy_DAU8_pad-26" x="132080" y="-96520"/><use xlink:href="#qBXA0Wy_DAU8_pad-26" x="133350" y="-85090"/><use xlink:href="#qBXA0Wy_DAU8_pad-26" x="144780" y="-96520"/><use xlink:href="#qBXA0Wy_DAU8_pad-26" x="146050" y="-85090"/><use xlink:href="#qBXA0Wy_DAU8_pad-26" x="157480" y="-96520"/><use xlink:href="#qBXA0Wy_DAU8_pad-26" x="158750" y="-85090"/><path d="M 75622 -86360 76200 -85782 M 73660 -86360 75622 -86360 M 76200 -85782 76200 -76200 M 88322 -86360 86360 -86360 M 88900 -85782 88322 -86360 M 76200 -76200 88900 -76200 88900 -85090 M 101022 -86360 99060 -86360 M 101600 -76200 101600 -85782 101022 -86360 M 88900 -76200 101600 -76200 M 69850 -107950 69850 -106045 71120 -104775 73660 -104775 76200 -102235 76200 -98425 76200 -97790 M 76200 -85782 76200 -97790 76200 -98032 M 95250 -107950 95250 -106045 96520 -104775 99060 -104775 101600 -102235 101600 -85782 M 112395 -104775 114300 -102870 M 101600 -76200 114300 -76200 M 107950 -107950 107950 -106045 109220 -104775 112395 -104775 M 120650 -107950 120650 -106045 121920 -104775 124460 -104775 127000 -102235 M 127000 -76200 129540 -76200 M 127000 -85782 127000 -85090 M 126422 -86360 127000 -85782 M 124460 -86360 126422 -86360 M 127000 -102235 127000 -85090 127000 -76200 M 165100 -78105 165100 -85782 M 164522 -86360 162560 -86360 M 165100 -85782 164522 -86360 M 163195 -76200 165100 -78105 M 165100 -85782 165100 -102235 M 158750 -107950 158750 -106045 160020 -104775 162560 -104775 165100 -102235 M 146050 -107950 146050 -106045 147320 -104775 149860 -104775 152400 -102235 M 133350 -107950 133350 -106045 134620 -104775 137160 -104775 139700 -102235 M 139700 -77923.118 139700 -76200 M 129540 -76200 139700 -76200 M 114300 -85782 113722 -86360 111760 -86360 M 114300 -85090 114300 -85782 M 114300 -85090 114300 -76200 M 114300 -102870 114300 -85090 M 139700 -85782 139122 -86360 M 139700 -85090 139700 -85782 M 139122 -86360 137160 -86360 M 139700 -85090 139700 -77923.118 M 139700 -102235 139700 -85090 M 152400 -85782 151822 -86360 M 152400 -85090 152400 -85782 M 151822 -86360 149860 -86360 M 152400 -85090 152400 -76200 M 152400 -102235 152400 -85090 M 88900 -102235 88900 -85725 M 86360 -104775 88900 -102235 M 83820 -104775 86360 -104775 M 82550 -106045 83820 -104775 M 88900 -85725 88900 -85782 M 88900 -85090 88900 -85725 M 82550 -107950 82550 -106045 M 128270 -72390 129540 -71120 M 119380 -72390 128270 -72390 M 119380 -72390 119380 -76200 M 114300 -76200 119380 -76200 127000 -76200 M 144780 -67310 144780 -69431.32 144780 -76200 M 139700 -76200 146050 -76200 152400 -76200 M 67310 -120650 69850 -118110 69850 -107950 M 82550 -118110 82550 -107950 M 80010 -120650 82550 -118110 M 118110 -120650 120650 -118110 120650 -107950 M 146050 -118110 146050 -107950 M 143510 -120650 146050 -118110 M 130810 -120650 133350 -118110 133350 -107950 M 156210 -120650 158750 -118110 158750 -107950 M 92710 -120650 95250 -118110 95250 -107950 M 152400 -76200 157480 -76200 163195 -76200 M 143510 -120650 143510 -123190 M 156210 -120650 156210 -123190 M 130810 -120650 130810 -123190 M 118110 -120650 118110 -123190 M 107950 -118110 107950 -107950 M 105410 -120650 107950 -118110 M 105410 -121920 105410 -123190 M 105410 -120650 105410 -121920 M 92710 -120650 92710 -123190 M 80010 -120650 80010 -123190 M 67310 -120650 67310 -123190 M 99060 -72390 100330 -71120 M 76200 -72390 99060 -72390 M 100330 -71120 110490 -71120 M 117618 -67310 113808 -71120 M 119380 -67310 117618 -67310 M 113808 -71120 110490 -71120 M 71698 -88900 73660 -88900 M 71120 -89478 71698 -88900 M 71120 -97790 71120 -89478 M 67310 -101600 71120 -97790 M 67310 -107950 67310 -101600 M 66040 -86360 66040 -84455 66675 -83820 71120 -83820 71120 -87630 69850 -88900 69850 -96520 M 71120 -83820 71120 -81915 71755 -81280 M 84398 -88900 86360 -88900 M 83820 -89478 84398 -88900 M 83820 -97790 83820 -89478 M 80010 -101600 83820 -97790 M 80010 -107950 80010 -101600 M 78740 -84798 79718 -83820 M 78740 -86360 78740 -84798 M 83820 -83820 83820 -87630 M 79718 -83820 83820 -83820 M 83820 -87630 82550 -88900 82550 -96520 M 83820 -83820 83820 -81915 84455 -81280 M 162560 -121285 163830 -122555 M 162560 -110982 162560 -121285 M 161290 -107950 161290 -109712 162560 -110982 M 161290 -123190 161290 -118110 M 152400 -116840 152400 -119380 M 153670 -120650 152400 -119380 M 153670 -120650 153670 -123190 M 154940 -114300 152400 -116840 M 154940 -111760 154940 -114300 M 149860 -121285 151130 -122555 M 149860 -110982 149860 -121285 M 148590 -107950 148590 -109712 149860 -110982 M 148590 -123190 148590 -118110 M 139700 -119380 139700 -116840 M 142240 -111760 142240 -115570 140970 -116840 139700 -116840 M 139700 -119380 140970 -120650 140970 -123190 M 137160 -121285 138430 -122555 M 135890 -107950 135890 -109712 M 137160 -110982 137160 -121285 M 135890 -109712 137160 -110982 M 135890 -123190 135890 -118110 M 128270 -120650 127000 -119380 M 127000 -116840 127000 -119380 M 129540 -111760 129540 -115570 M 128270 -116840 127000 -116840 M 129540 -115570 128270 -116840 M 128270 -120650 128270 -123190 M 124460 -110982 124460 -121285 M 123190 -107950 123190 -109712 M 124460 -121285 125730 -122555 M 123190 -109712 124460 -110982 M 123190 -123190 123190 -118110 M 115570 -120650 114300 -119380 M 114300 -116840 114300 -119380 M 116840 -111760 116840 -115570 115570 -116840 114300 -116840 M 115570 -120650 115570 -123190 M 111760 -121285 113030 -122555 M 111760 -110982 111760 -121285 M 110490 -107950 110490 -109712 111760 -110982 M 110490 -123190 110490 -118110 M 102870 -120650 101600 -119380 M 101600 -116840 101600 -119380 M 104140 -114300 101600 -116840 M 104140 -111760 104140 -114300 M 102870 -120650 102870 -123190 M 99060 -110982 99060 -121285 100330 -122555 M 97790 -107950 97790 -109712 99060 -110982 M 97790 -123190 97790 -118110 M 90170 -120650 88900 -119380 88900 -116840 M 91440 -114300 88900 -116840 M 91440 -111760 91440 -114300 M 90170 -121920 90170 -123190 M 90170 -120650 90170 -121920 M 85090 -107950 85090 -110490 86360 -111760 86360 -121285 87630 -122555 M 85090 -123190 85090 -118110 M 76200 -116840 76200 -119380 M 77470 -120650 76200 -119380 M 78740 -114300 76200 -116840 M 78740 -111760 78740 -114300 M 77470 -120650 77470 -123190 M 73660 -110982 73660 -121285 74930 -122555 M 72390 -107950 72390 -109712 73660 -110982 M 72390 -123190 72390 -118110 M 64770 -120650 63500 -119380 63500 -116840 M 66040 -114300 63500 -116840 M 66040 -111760 66040 -114300 M 64770 -120650 64770 -123190 M 96520 -97790 96520 -89478 M 97098 -88900 99060 -88900 M 96520 -89478 97098 -88900 M 92710 -101600 96520 -97790 M 92710 -107950 92710 -101600 M 109220 -89478 109798 -88900 111760 -88900 M 109220 -97790 109220 -89478 M 105410 -101600 109220 -97790 M 105410 -107950 105410 -101600 M 122498 -88900 124460 -88900 M 121920 -97790 121920 -89478 122498 -88900 M 118110 -101600 121920 -97790 M 118110 -107950 118110 -101600 M 135198 -88900 137160 -88900 M 134620 -89478 135198 -88900 M 134620 -97790 134620 -89478 M 130810 -101600 134620 -97790 M 130810 -107950 130810 -101600 M 147898 -88900 149860 -88900 M 143510 -101600 147320 -97790 M 147320 -89478 147898 -88900 M 147320 -97790 147320 -89478 M 143510 -107950 143510 -101600 M 160598 -88900 162560 -88900 M 160020 -89478 160598 -88900 M 160020 -97790 160020 -89478 M 156210 -101600 160020 -97790 M 156210 -107950 156210 -101600 M 91440 -86360 91440 -85090 91440 -84455 92075 -83820 M 96520 -83820 96520 -86360 M 92075 -83820 96520 -83820 M 96520 -86360 96520 -87630 95250 -88900 95250 -96520 M 96520 -83820 96520 -81915 97155 -81280 M 104140 -86360 104140 -85090 104140 -84455 104775 -83820 M 109220 -83820 109220 -87630 M 104775 -83820 109220 -83820 M 109220 -87630 107950 -88900 107950 -96520 M 109220 -83820 109220 -81915 109855 -81280 M 116840 -86360 116840 -85090 116840 -84455 117475 -83820 M 121920 -83820 121920 -87630 M 117475 -83820 121920 -83820 M 121920 -87630 120650 -88900 120650 -96520 M 121920 -83820 121920 -81915 122555 -81280 M 129540 -86360 129540 -84798 129540 -84455 130175 -83820 M 134620 -83820 134620 -86360 M 130175 -83820 134620 -83820 M 134620 -86360 133350 -87630 133350 -96520 M 134620 -83820 134620 -81915 135255 -81280 M 142240 -86360 142240 -84798 142240 -84455 142875 -83820 M 147320 -83820 147320 -87630 M 142875 -83820 147320 -83820 M 147320 -87630 146050 -88900 146050 -96520 M 147320 -83820 147320 -81915 147955 -81280 M 154940 -86360 154940 -84455 155575 -83820 M 160020 -83820 160020 -87630 M 155575 -83820 160020 -83820 M 160020 -87630 158750 -88900 158750 -96520 M 160020 -83820 160020 -81915 160655 -81280 M 77470 -78105 87630 -78105 M 90170 -78105 100330 -78105 M 102870 -78105 113030 -78105 M 115570 -78105 125730 -78105 M 128270 -78105 138430 -78105 M 140970 -78105 151130 -78105 M 74930 -78105 65405 -78105 M 153670 -78105 163195 -78105 M 66040 -88900 68580 -88900 M 68580 -87630 68580 -88900 M 68580 -87630 68580 -86403.5 69893.5 -85090 M 68580 -96520 68580 -88900 M 81280 -86360 82550 -85090 M 81280 -96520 81280 -88900 M 78740 -88900 81280 -88900 81280 -86360 M 93980 -96520 93980 -88900 M 91440 -88900 93980 -88900 93980 -86360 95250 -85090 M 106680 -86360 107950 -85090 M 104140 -88900 106680 -88900 M 106680 -96520 106680 -88900 106680 -86360 M 119380 -96520 119380 -88900 M 116840 -88900 119380 -88900 119380 -86403.5 120693.5 -85090 M 132080 -87630 132080 -86360 133350 -85090 M 129540 -88900 132080 -88900 M 132080 -96520 132080 -88900 132080 -87630 M 144780 -96520 144780 -88900 M 142240 -88900 144780 -88900 144780 -86360 146050 -85090 M 157480 -87630 157480 -86360 158750 -85090 M 154940 -88900 157480 -88900 M 157480 -96520 157480 -88900 157480 -87630" fill="none" stroke-width="762"/></g><g id="Qdz9wOTaXLHA_bottom_soldermask"><path d="M 50800 -127000 177800 -127000 M 50800 -63500 177800 -63500 M 50800 -127000 50800 -63500 M 177800 -127000 177800 -63500" fill="none" stroke-width="150"/><use xlink:href="#YvXTkR1BFLW2_pad-11" x="139700" y="-119380"/><use xlink:href="#YvXTkR1BFLW2_pad-11" x="139700" y="-116840"/><use xlink:href="#YvXTkR1BFLW2_pad-11" x="139700" y="-114300"/><use xlink:href="#YvXTkR1BFLW2_pad-12" x="151130" y="-67945"/><path d="M 83325 -67640 85075 -67640 A 875 875 0 0 0 85950 -68515 L 85950 -70265 A 875 875 0 0 0 85075 -71140 L 83325 -71140 A 875 875 0 0 0 82450 -70265 L 82450 -68515 A 875 875 0 0 0 83325 -67640"/><path d="M 87900 -64890 89900 -64890 A 750 750 0 0 0 90650 -65640 L 90650 -67140 A 750 750 0 0 0 89900 -67890 L 87900 -67890 A 750 750 0 0 0 87150 -67140 L 87150 -65640 A 750 750 0 0 0 87900 -64890"/><use xlink:href="#YvXTkR1BFLW2_pad-13" x="88900" y="-72390"/><path d="M 70625 -67640 72375 -67640 A 875 875 0 0 0 73250 -68515 L 73250 -70265 A 875 875 0 0 0 72375 -71140 L 70625 -71140 A 875 875 0 0 0 69750 -70265 L 69750 -68515 A 875 875 0 0 0 70625 -67640"/><path d="M 75200 -64890 77200 -64890 A 750 750 0 0 0 77950 -65640 L 77950 -67140 A 750 750 0 0 0 77200 -67890 L 75200 -67890 A 750 750 0 0 0 74450 -67140 L 74450 -65640 A 750 750 0 0 0 75200 -64890"/><use xlink:href="#YvXTkR1BFLW2_pad-13" x="76200" y="-72390"/><use xlink:href="#YvXTkR1BFLW2_pad-11" x="76200" y="-119380"/><use xlink:href="#YvXTkR1BFLW2_pad-11" x="76200" y="-116840"/><use xlink:href="#YvXTkR1BFLW2_pad-11" x="76200" y="-114300"/><use xlink:href="#YvXTkR1BFLW2_pad-14" x="111760" y="-86360"/><use xlink:href="#YvXTkR1BFLW2_pad-14" x="104140" y="-93980"/><use xlink:href="#YvXTkR1BFLW2_pad-14" x="111760" y="-88900"/><use xlink:href="#YvXTkR1BFLW2_pad-14" x="104140" y="-91440"/><use xlink:href="#YvXTkR1BFLW2_pad-14" x="111760" y="-91440"/><use xlink:href="#YvXTkR1BFLW2_pad-14" x="104140" y="-88900"/><use xlink:href="#YvXTkR1BFLW2_pad-14" x="111760" y="-93980"/><use xlink:href="#YvXTkR1BFLW2_pad-15" x="104140" y="-86360"/><use xlink:href="#YvXTkR1BFLW2_pad-14" x="99060" y="-86360"/><use xlink:href="#YvXTkR1BFLW2_pad-14" x="91440" y="-93980"/><use xlink:href="#YvXTkR1BFLW2_pad-14" x="99060" y="-88900"/><use xlink:href="#YvXTkR1BFLW2_pad-14" x="91440" y="-91440"/><use xlink:href="#YvXTkR1BFLW2_pad-14" x="99060" y="-91440"/><use xlink:href="#YvXTkR1BFLW2_pad-14" x="91440" y="-88900"/><use xlink:href="#YvXTkR1BFLW2_pad-14" x="99060" y="-93980"/><use xlink:href="#YvXTkR1BFLW2_pad-15" x="91440" y="-86360"/><use xlink:href="#YvXTkR1BFLW2_pad-14" x="124460" y="-86360"/><use xlink:href="#YvXTkR1BFLW2_pad-14" x="116840" y="-93980"/><use xlink:href="#YvXTkR1BFLW2_pad-14" x="124460" y="-88900"/><use xlink:href="#YvXTkR1BFLW2_pad-14" x="116840" y="-91440"/><use xlink:href="#YvXTkR1BFLW2_pad-14" x="124460" y="-91440"/><use xlink:href="#YvXTkR1BFLW2_pad-14" x="116840" y="-88900"/><use xlink:href="#YvXTkR1BFLW2_pad-14" x="124460" y="-93980"/><use xlink:href="#YvXTkR1BFLW2_pad-15" x="116840" y="-86360"/><use xlink:href="#YvXTkR1BFLW2_pad-14" x="162560" y="-86360"/><use xlink:href="#YvXTkR1BFLW2_pad-14" x="154940" y="-93980"/><use xlink:href="#YvXTkR1BFLW2_pad-14" x="162560" y="-88900"/><use xlink:href="#YvXTkR1BFLW2_pad-14" x="154940" y="-91440"/><use xlink:href="#YvXTkR1BFLW2_pad-14" x="162560" y="-91440"/><use xlink:href="#YvXTkR1BFLW2_pad-14" x="154940" y="-88900"/><use xlink:href="#YvXTkR1BFLW2_pad-14" x="162560" y="-93980"/><use xlink:href="#YvXTkR1BFLW2_pad-15" x="154940" y="-86360"/><use xlink:href="#YvXTkR1BFLW2_pad-14" x="149860" y="-86360"/><use xlink:href="#YvXTkR1BFLW2_pad-14" x="142240" y="-93980"/><use xlink:href="#YvXTkR1BFLW2_pad-14" x="149860" y="-88900"/><use xlink:href="#YvXTkR1BFLW2_pad-14" x="142240" y="-91440"/><use xlink:href="#YvXTkR1BFLW2_pad-14" x="149860" y="-91440"/><use xlink:href="#YvXTkR1BFLW2_pad-14" x="142240" y="-88900"/><use xlink:href="#YvXTkR1BFLW2_pad-14" x="149860" y="-93980"/><use xlink:href="#YvXTkR1BFLW2_pad-15" x="142240" y="-86360"/><use xlink:href="#YvXTkR1BFLW2_pad-14" x="137160" y="-86360"/><use xlink:href="#YvXTkR1BFLW2_pad-14" x="129540" y="-93980"/><use xlink:href="#YvXTkR1BFLW2_pad-14" x="137160" y="-88900"/><use xlink:href="#YvXTkR1BFLW2_pad-14" x="129540" y="-91440"/><use xlink:href="#YvXTkR1BFLW2_pad-14" x="137160" y="-91440"/><use xlink:href="#YvXTkR1BFLW2_pad-14" x="129540" y="-88900"/><use xlink:href="#YvXTkR1BFLW2_pad-14" x="137160" y="-93980"/><use xlink:href="#YvXTkR1BFLW2_pad-15" x="129540" y="-86360"/><use xlink:href="#YvXTkR1BFLW2_pad-14" x="86360" y="-86360"/><use xlink:href="#YvXTkR1BFLW2_pad-14" x="78740" y="-93980"/><use xlink:href="#YvXTkR1BFLW2_pad-14" x="86360" y="-88900"/><use xlink:href="#YvXTkR1BFLW2_pad-14" x="78740" y="-91440"/><use xlink:href="#YvXTkR1BFLW2_pad-14" x="86360" y="-91440"/><use xlink:href="#YvXTkR1BFLW2_pad-14" x="78740" y="-88900"/><use xlink:href="#YvXTkR1BFLW2_pad-14" x="86360" y="-93980"/><use xlink:href="#YvXTkR1BFLW2_pad-15" x="78740" y="-86360"/><use xlink:href="#YvXTkR1BFLW2_pad-14" x="73660" y="-86360"/><use xlink:href="#YvXTkR1BFLW2_pad-14" x="66040" y="-93980"/><use xlink:href="#YvXTkR1BFLW2_pad-14" x="73660" y="-88900"/><use xlink:href="#YvXTkR1BFLW2_pad-14" x="66040" y="-91440"/><use xlink:href="#YvXTkR1BFLW2_pad-14" x="73660" y="-91440"/><use xlink:href="#YvXTkR1BFLW2_pad-14" x="66040" y="-88900"/><use xlink:href="#YvXTkR1BFLW2_pad-14" x="73660" y="-93980"/><use xlink:href="#YvXTkR1BFLW2_pad-15" x="66040" y="-86360"/><use xlink:href="#YvXTkR1BFLW2_pad-11" x="101600" y="-119380"/><use xlink:href="#YvXTkR1BFLW2_pad-11" x="101600" y="-116840"/><use xlink:href="#YvXTkR1BFLW2_pad-11" x="101600" y="-114300"/><use xlink:href="#YvXTkR1BFLW2_pad-11" x="88900" y="-119380"/><use xlink:href="#YvXTkR1BFLW2_pad-11" x="88900" y="-116840"/><use xlink:href="#YvXTkR1BFLW2_pad-11" x="88900" y="-114300"/><use xlink:href="#YvXTkR1BFLW2_pad-11" x="114300" y="-119380"/><use xlink:href="#YvXTkR1BFLW2_pad-11" x="114300" y="-116840"/><use xlink:href="#YvXTkR1BFLW2_pad-11" x="114300" y="-114300"/><use xlink:href="#YvXTkR1BFLW2_pad-11" x="152400" y="-119380"/><use xlink:href="#YvXTkR1BFLW2_pad-11" x="152400" y="-116840"/><use xlink:href="#YvXTkR1BFLW2_pad-11" x="152400" y="-114300"/><use xlink:href="#YvXTkR1BFLW2_pad-11" x="127000" y="-119380"/><use xlink:href="#YvXTkR1BFLW2_pad-11" x="127000" y="-116840"/><use xlink:href="#YvXTkR1BFLW2_pad-11" x="127000" y="-114300"/><use xlink:href="#YvXTkR1BFLW2_pad-11" x="63500" y="-119380"/><use xlink:href="#YvXTkR1BFLW2_pad-11" x="63500" y="-116840"/><use xlink:href="#YvXTkR1BFLW2_pad-11" x="63500" y="-114300"/><use xlink:href="#YvXTkR1BFLW2_pad-16" x="111760" y="-99060"/><use xlink:href="#YvXTkR1BFLW2_pad-17" x="111760" y="-101600"/><use xlink:href="#YvXTkR1BFLW2_pad-17" x="111760" y="-100330"/><use xlink:href="#YvXTkR1BFLW2_pad-16" x="99060" y="-99060"/><use xlink:href="#YvXTkR1BFLW2_pad-17" x="99060" y="-101600"/><use xlink:href="#YvXTkR1BFLW2_pad-17" x="99060" y="-100330"/><use xlink:href="#YvXTkR1BFLW2_pad-16" x="124460" y="-99060"/><use xlink:href="#YvXTkR1BFLW2_pad-17" x="124460" y="-101600"/><use xlink:href="#YvXTkR1BFLW2_pad-17" x="124460" y="-100330"/><use xlink:href="#YvXTkR1BFLW2_pad-16" x="162560" y="-99060"/><use xlink:href="#YvXTkR1BFLW2_pad-17" x="162560" y="-101600"/><use xlink:href="#YvXTkR1BFLW2_pad-17" x="162560" y="-100330"/><use xlink:href="#YvXTkR1BFLW2_pad-16" x="149860" y="-99060"/><use xlink:href="#YvXTkR1BFLW2_pad-17" x="149860" y="-101600"/><use xlink:href="#YvXTkR1BFLW2_pad-17" x="149860" y="-100330"/><use xlink:href="#YvXTkR1BFLW2_pad-16" x="137160" y="-99060"/><use xlink:href="#YvXTkR1BFLW2_pad-17" x="137160" y="-101600"/><use xlink:href="#YvXTkR1BFLW2_pad-17" x="137160" y="-100330"/><use xlink:href="#YvXTkR1BFLW2_pad-16" x="86360" y="-99060"/><use xlink:href="#YvXTkR1BFLW2_pad-17" x="86360" y="-101600"/><use xlink:href="#YvXTkR1BFLW2_pad-17" x="86360" y="-100330"/><use xlink:href="#YvXTkR1BFLW2_pad-16" x="73660" y="-99060"/><use xlink:href="#YvXTkR1BFLW2_pad-17" x="73660" y="-101600"/><use xlink:href="#YvXTkR1BFLW2_pad-17" x="73660" y="-100330"/><use xlink:href="#YvXTkR1BFLW2_pad-18" x="110490" y="-107950"/><use xlink:href="#YvXTkR1BFLW2_pad-18" x="107950" y="-107950"/><use xlink:href="#YvXTkR1BFLW2_pad-19" x="105410" y="-107950"/><use xlink:href="#YvXTkR1BFLW2_pad-18" x="97790" y="-107950"/><use xlink:href="#YvXTkR1BFLW2_pad-18" x="95250" y="-107950"/><use xlink:href="#YvXTkR1BFLW2_pad-19" x="92710" y="-107950"/><use xlink:href="#YvXTkR1BFLW2_pad-18" x="123190" y="-107950"/><use xlink:href="#YvXTkR1BFLW2_pad-18" x="120650" y="-107950"/><use xlink:href="#YvXTkR1BFLW2_pad-19" x="118110" y="-107950"/><use xlink:href="#YvXTkR1BFLW2_pad-18" x="161290" y="-107950"/><use xlink:href="#YvXTkR1BFLW2_pad-18" x="158750" y="-107950"/><use xlink:href="#YvXTkR1BFLW2_pad-19" x="156210" y="-107950"/><use xlink:href="#YvXTkR1BFLW2_pad-18" x="148590" y="-107950"/><use xlink:href="#YvXTkR1BFLW2_pad-18" x="146050" y="-107950"/><use xlink:href="#YvXTkR1BFLW2_pad-19" x="143510" y="-107950"/><use xlink:href="#YvXTkR1BFLW2_pad-18" x="135890" y="-107950"/><use xlink:href="#YvXTkR1BFLW2_pad-18" x="133350" y="-107950"/><use xlink:href="#YvXTkR1BFLW2_pad-19" x="130810" y="-107950"/><use xlink:href="#YvXTkR1BFLW2_pad-18" x="85090" y="-107950"/><use xlink:href="#YvXTkR1BFLW2_pad-18" x="82550" y="-107950"/><use xlink:href="#YvXTkR1BFLW2_pad-19" x="80010" y="-107950"/><use xlink:href="#YvXTkR1BFLW2_pad-18" x="72390" y="-107950"/><use xlink:href="#YvXTkR1BFLW2_pad-18" x="69850" y="-107950"/><use xlink:href="#YvXTkR1BFLW2_pad-19" x="67310" y="-107950"/><use xlink:href="#YvXTkR1BFLW2_pad-20" x="119380" y="-72390"/><use xlink:href="#YvXTkR1BFLW2_pad-20" x="119380" y="-69850"/><use xlink:href="#YvXTkR1BFLW2_pad-21" x="119380" y="-67310"/><use xlink:href="#YvXTkR1BFLW2_pad-11" x="162560" y="-68580"/><use xlink:href="#YvXTkR1BFLW2_pad-11" x="162560" y="-71120"/><use xlink:href="#YvXTkR1BFLW2_pad-11" x="162560" y="-73660"/><use xlink:href="#YvXTkR1BFLW2_pad-22" x="55880" y="-116840"/><use xlink:href="#YvXTkR1BFLW2_pad-22" x="55880" y="-73660"/><use xlink:href="#YvXTkR1BFLW2_pad-22" x="172720" y="-73660"/><use xlink:href="#YvXTkR1BFLW2_pad-22" x="172720" y="-116840"/><use xlink:href="#YvXTkR1BFLW2_pad-23" x="163830" y="-123190"/><use xlink:href="#YvXTkR1BFLW2_pad-23" x="161290" y="-123190"/><use xlink:href="#YvXTkR1BFLW2_pad-23" x="158750" y="-123190"/><use xlink:href="#YvXTkR1BFLW2_pad-23" x="156210" y="-123190"/><use xlink:href="#YvXTkR1BFLW2_pad-23" x="153670" y="-123190"/><use xlink:href="#YvXTkR1BFLW2_pad-23" x="151130" y="-123190"/><use xlink:href="#YvXTkR1BFLW2_pad-23" x="148590" y="-123190"/><use xlink:href="#YvXTkR1BFLW2_pad-23" x="146050" y="-123190"/><use xlink:href="#YvXTkR1BFLW2_pad-23" x="143510" y="-123190"/><use xlink:href="#YvXTkR1BFLW2_pad-23" x="140970" y="-123190"/><use xlink:href="#YvXTkR1BFLW2_pad-23" x="138430" y="-123190"/><use xlink:href="#YvXTkR1BFLW2_pad-23" x="135890" y="-123190"/><use xlink:href="#YvXTkR1BFLW2_pad-23" x="133350" y="-123190"/><use xlink:href="#YvXTkR1BFLW2_pad-23" x="130810" y="-123190"/><use xlink:href="#YvXTkR1BFLW2_pad-23" x="128270" y="-123190"/><use xlink:href="#YvXTkR1BFLW2_pad-23" x="125730" y="-123190"/><use xlink:href="#YvXTkR1BFLW2_pad-23" x="123190" y="-123190"/><use xlink:href="#YvXTkR1BFLW2_pad-23" x="120650" y="-123190"/><use xlink:href="#YvXTkR1BFLW2_pad-23" x="118110" y="-123190"/><use xlink:href="#YvXTkR1BFLW2_pad-23" x="115570" y="-123190"/><use xlink:href="#YvXTkR1BFLW2_pad-23" x="113030" y="-123190"/><use xlink:href="#YvXTkR1BFLW2_pad-23" x="110490" y="-123190"/><use xlink:href="#YvXTkR1BFLW2_pad-23" x="107950" y="-123190"/><use xlink:href="#YvXTkR1BFLW2_pad-23" x="105410" y="-123190"/><use xlink:href="#YvXTkR1BFLW2_pad-23" x="102870" y="-123190"/><use xlink:href="#YvXTkR1BFLW2_pad-23" x="100330" y="-123190"/><use xlink:href="#YvXTkR1BFLW2_pad-23" x="97790" y="-123190"/><use xlink:href="#YvXTkR1BFLW2_pad-23" x="95250" y="-123190"/><use xlink:href="#YvXTkR1BFLW2_pad-23" x="92710" y="-123190"/><use xlink:href="#YvXTkR1BFLW2_pad-23" x="90170" y="-123190"/><use xlink:href="#YvXTkR1BFLW2_pad-23" x="87630" y="-123190"/><use xlink:href="#YvXTkR1BFLW2_pad-23" x="85090" y="-123190"/><use xlink:href="#YvXTkR1BFLW2_pad-23" x="82550" y="-123190"/><use xlink:href="#YvXTkR1BFLW2_pad-23" x="80010" y="-123190"/><use xlink:href="#YvXTkR1BFLW2_pad-23" x="77470" y="-123190"/><use xlink:href="#YvXTkR1BFLW2_pad-23" x="74930" y="-123190"/><use xlink:href="#YvXTkR1BFLW2_pad-23" x="72390" y="-123190"/><use xlink:href="#YvXTkR1BFLW2_pad-23" x="69850" y="-123190"/><use xlink:href="#YvXTkR1BFLW2_pad-23" x="67310" y="-123190"/><use xlink:href="#YvXTkR1BFLW2_pad-24" x="64770" y="-123190"/><use xlink:href="#YvXTkR1BFLW2_pad-12" x="144780" y="-67945"/><use xlink:href="#YvXTkR1BFLW2_pad-12" x="138430" y="-67945"/><use xlink:href="#YvXTkR1BFLW2_pad-25" x="129540" y="-68620"/><use xlink:href="#YvXTkR1BFLW2_pad-26" x="129540" y="-71120"/><use xlink:href="#YvXTkR1BFLW2_pad-25" x="110490" y="-68620"/><use xlink:href="#YvXTkR1BFLW2_pad-26" x="110490" y="-71120"/><use xlink:href="#YvXTkR1BFLW2_pad-25" x="100330" y="-68620"/><use xlink:href="#YvXTkR1BFLW2_pad-26" x="100330" y="-71120"/></g><g id="Qdz9wOTaXLHA_bottom_solderpaste"><path d="M 50800 -127000 177800 -127000 M 50800 -63500 177800 -63500 M 50800 -127000 50800 -63500 M 177800 -127000 177800 -63500" fill="none" stroke-width="150"/></g><clipPath id="Qdz9wOTaXLHA_bottom_outline"><path d="M 50800 -127000 177800 -127000 177800 -63500 50800 -63500 50800 -127000" fill="none" stroke-width="150"/></clipPath><mask id="Qdz9wOTaXLHA_bottom_mech-mask"><g fill="#000" stroke="#000"><rect x="50800" y="-127000" width="127000" height="63500" fill="#fff"/></g></mask><mask id="Qdz9wOTaXLHA_bottom_cf-mask"><g fill="#fff" stroke="#fff"><use xlink:href="#Qdz9wOTaXLHA_bottom_soldermask"/></g></mask><mask id="Qdz9wOTaXLHA_bottom_sm-mask"><g fill="#000" stroke="#000"><rect x="50800" y="-127000" width="127000" height="63500" fill="#fff"/><use xlink:href="#Qdz9wOTaXLHA_bottom_soldermask"/></g></mask></defs><g transform="translate(0,-190500) scale(1,-1)"><g mask="url(#Qdz9wOTaXLHA_bottom_mech-mask)" clip-path="url(#Qdz9wOTaXLHA_bottom_outline)" transform="translate(228600,0) scale(-1,1)"><rect x="50800" y="-127000" width="127000" height="63500" fill="currentColor" class="Qdz9wOTaXLHA_fr4"/><use xlink:href="#Qdz9wOTaXLHA_bottom_copper" fill="currentColor" stroke="currentColor" class="Qdz9wOTaXLHA_cu"/><use xlink:href="#Qdz9wOTaXLHA_bottom_copper" fill="currentColor" stroke="currentColor" class="Qdz9wOTaXLHA_cf" mask="url(#Qdz9wOTaXLHA_bottom_cf-mask)"/><g mask="url(#Qdz9wOTaXLHA_bottom_sm-mask)"><rect x="50800" y="-127000" width="127000" height="63500" fill="currentColor" class="Qdz9wOTaXLHA_sm"/></g><use xlink:href="#Qdz9wOTaXLHA_bottom_solderpaste" fill="currentColor" stroke="currentColor" class="Qdz9wOTaXLHA_sp"/></g></g></svg>