M48
; DRILL file {KiCad 5.1.5+dfsg1-2} date Thu 30 Jan 2020 03:07:53 PM CST
; FORMAT={-:-/ absolute / inch / decimal}
; #@! TF.CreationDate,2020-01-30T15:07:53-06:00
; #@! TF.GenerationSoftware,Kicad,Pcbnew,5.1.5+dfsg1-2
; #@! TF.FileFunction,Plated,1,2,PTH
FMAT,2
INCH
T1C0.0394
T2C0.2402
%
G90
G05
T1
X2.55Y-3.0
X2.65Y-3.0
X2.75Y-3.0
X2.85Y-3.0
X2.95Y-3.0
X3.05Y-3.0
X3.15Y-3.0
X3.25Y-3.0
X3.35Y-3.0
X3.45Y-3.0
X3.55Y-3.0
X3.65Y-3.0
X3.75Y-3.0
X3.85Y-3.0
X3.95Y-3.0
X4.05Y-3.0
X4.15Y-3.0
X4.25Y-3.0
X4.35Y-3.0
X4.45Y-3.0
X4.55Y-3.0
X4.65Y-3.0
X4.75Y-3.0
X4.85Y-3.0
X4.95Y-3.0
X5.05Y-3.0
X5.15Y-3.0
X5.25Y-3.0
X5.35Y-3.0
X5.45Y-3.0
X5.55Y-3.0
X5.65Y-3.0
X5.75Y-3.0
X5.85Y-3.0
X5.95Y-3.0
X6.05Y-3.0
X6.15Y-3.0
X6.25Y-3.0
X6.35Y-3.0
X6.45Y-3.0
T2
X5.75Y-3.375
X2.75Y-4.125
X3.25Y-4.125
X4.75Y-3.375
X3.75Y-3.375
X3.25Y-3.375
X5.75Y-4.125
X4.25Y-4.125
X3.75Y-4.125
X2.75Y-3.375
X4.75Y-4.125
X6.25Y-4.125
X6.25Y-3.375
X4.25Y-3.375
X5.25Y-4.125
X5.25Y-3.375
T0
M30
