G04 #@! TF.GenerationSoftware,KiCad,Pcbnew,5.1.5+dfsg1-2*
G04 #@! TF.CreationDate,2020-03-03T15:33:36-06:00*
G04 #@! TF.ProjectId,daughter,64617567-6874-4657-922e-6b696361645f,1.3.1*
G04 #@! TF.SameCoordinates,Original*
G04 #@! TF.FileFunction,Copper,L2,Bot*
G04 #@! TF.FilePolarity,Positive*
%FSLAX46Y46*%
G04 Gerber Fmt 4.6, Leading zero omitted, Abs format (unit mm)*
G04 Created by KiCad (PCBNEW 5.1.5+dfsg1-2) date 2020-03-03 15:33:36*
%MOMM*%
%LPD*%
G04 APERTURE LIST*
%ADD10C,10.160000*%
%ADD11O,1.700000X1.700000*%
%ADD12R,1.700000X1.700000*%
%ADD13C,0.762000*%
G04 APERTURE END LIST*
D10*
X133350000Y-104775000D03*
X158750000Y-85725000D03*
X133350000Y-85725000D03*
X107950000Y-85725000D03*
X82550000Y-85725000D03*
X146050000Y-85725000D03*
X120650000Y-85725000D03*
X95250000Y-85725000D03*
X69850000Y-85725000D03*
X158750000Y-104775000D03*
X107950000Y-104775000D03*
X82550000Y-104775000D03*
X146050000Y-104775000D03*
X120650000Y-104775000D03*
X95250000Y-104775000D03*
X69850000Y-104775000D03*
D11*
X163830000Y-76200000D03*
X161290000Y-76200000D03*
X158750000Y-76200000D03*
X156210000Y-76200000D03*
X153670000Y-76200000D03*
X151130000Y-76200000D03*
X148590000Y-76200000D03*
X146050000Y-76200000D03*
X143510000Y-76200000D03*
X140970000Y-76200000D03*
X138430000Y-76200000D03*
X135890000Y-76200000D03*
X133350000Y-76200000D03*
X130810000Y-76200000D03*
X128270000Y-76200000D03*
X125730000Y-76200000D03*
X123190000Y-76200000D03*
X120650000Y-76200000D03*
X118110000Y-76200000D03*
X115570000Y-76200000D03*
X113030000Y-76200000D03*
X110490000Y-76200000D03*
X107950000Y-76200000D03*
X105410000Y-76200000D03*
X102870000Y-76200000D03*
X100330000Y-76200000D03*
X97790000Y-76200000D03*
X95250000Y-76200000D03*
X92710000Y-76200000D03*
X90170000Y-76200000D03*
X87630000Y-76200000D03*
X85090000Y-76200000D03*
X82550000Y-76200000D03*
X80010000Y-76200000D03*
X77470000Y-76200000D03*
X74930000Y-76200000D03*
X72390000Y-76200000D03*
X69850000Y-76200000D03*
X67310000Y-76200000D03*
D12*
X64770000Y-76200000D03*
D13*
X163830000Y-76200000D02*
X163830000Y-81280000D01*
X163830000Y-81280000D02*
X165100000Y-82550000D01*
X165100000Y-98425000D02*
X158750000Y-104775000D01*
X165100000Y-98425000D02*
X165100000Y-82550000D01*
X153670001Y-80645001D02*
X158750000Y-85725000D01*
X153670000Y-76200000D02*
X153670001Y-80645001D01*
X152400000Y-98425000D02*
X146050000Y-104775000D01*
X151130000Y-76200000D02*
X151130000Y-81280000D01*
X151130000Y-81280000D02*
X152400000Y-82550000D01*
X152400000Y-82550000D02*
X152400000Y-98425000D01*
X140970001Y-80645001D02*
X146050000Y-85725000D01*
X140970000Y-76200000D02*
X140970001Y-80645001D01*
X128270001Y-80645001D02*
X133350000Y-85725000D01*
X128270000Y-76200000D02*
X128270001Y-80645001D01*
X127000000Y-98425000D02*
X120650000Y-104775000D01*
X125730000Y-76200000D02*
X125730000Y-81280000D01*
X125730000Y-81280000D02*
X127000000Y-82550000D01*
X127000000Y-82550000D02*
X127000000Y-98425000D01*
X115570001Y-80645001D02*
X120650000Y-85725000D01*
X115570001Y-76199999D02*
X115570001Y-80645001D01*
X115570000Y-76200000D02*
X115570001Y-76199999D01*
X114300000Y-98425000D02*
X107950000Y-104775000D01*
X113030000Y-76200000D02*
X113030000Y-81280000D01*
X113030000Y-81280000D02*
X114300000Y-82550000D01*
X114300000Y-82550000D02*
X114300000Y-98425000D01*
X102870001Y-80645001D02*
X107950000Y-85725000D01*
X102870000Y-76200000D02*
X102870001Y-80645001D01*
X101600000Y-98425000D02*
X95250000Y-104775000D01*
X100330000Y-76200000D02*
X100330000Y-81280000D01*
X100330000Y-81280000D02*
X101600000Y-82550000D01*
X101600000Y-82550000D02*
X101600000Y-98425000D01*
X90170001Y-80645001D02*
X95250000Y-85725000D01*
X90170000Y-76200000D02*
X90170001Y-80645001D01*
X88900000Y-98425000D02*
X82550000Y-104775000D01*
X87630000Y-76200000D02*
X87630000Y-81280000D01*
X87630000Y-81280000D02*
X88900000Y-82550000D01*
X88900000Y-82550000D02*
X88900000Y-98425000D01*
X77470001Y-80645001D02*
X82550000Y-85725000D01*
X77470000Y-76200000D02*
X77470001Y-80645001D01*
X76200000Y-98425000D02*
X69850000Y-104775000D01*
X74930000Y-76200000D02*
X74930000Y-81280000D01*
X74930000Y-81280000D02*
X76200000Y-82550000D01*
X76200000Y-82550000D02*
X76200000Y-98425000D01*
X64770001Y-80645001D02*
X69850000Y-85725000D01*
X64770000Y-76200000D02*
X64770001Y-80645001D01*
X133350000Y-104775000D02*
X139700000Y-98425000D01*
X138430000Y-76200000D02*
X138430000Y-81280000D01*
X138430000Y-81280000D02*
X139700000Y-82550000D01*
X139700000Y-82550000D02*
X139700000Y-98425000D01*
M02*
