G04 #@! TF.GenerationSoftware,KiCad,Pcbnew,5.1.5+dfsg1-2*
G04 #@! TF.CreationDate,2019-12-13T15:30:38-06:00*
G04 #@! TF.ProjectId,galvanosynth,67616c76-616e-46f7-9379-6e74682e6b69,4.0.0*
G04 #@! TF.SameCoordinates,Original*
G04 #@! TF.FileFunction,Copper,L2,Bot*
G04 #@! TF.FilePolarity,Positive*
%FSLAX46Y46*%
G04 Gerber Fmt 4.6, Leading zero omitted, Abs format (unit mm)*
G04 Created by KiCad (PCBNEW 5.1.5+dfsg1-2) date 2019-12-13 15:30:38*
%MOMM*%
%LPD*%
G04 APERTURE LIST*
%ADD10C,0.150000*%
%ADD11C,0.100000*%
%ADD12R,3.500000X3.500000*%
%ADD13C,1.440000*%
%ADD14O,2.400000X1.600000*%
%ADD15R,2.400000X1.600000*%
%ADD16R,1.500000X1.050000*%
%ADD17O,1.500000X1.050000*%
%ADD18O,1.905000X2.000000*%
%ADD19R,1.905000X2.000000*%
%ADD20O,1.600000X1.600000*%
%ADD21C,1.600000*%
%ADD22O,2.000000X1.905000*%
%ADD23R,2.000000X1.905000*%
%ADD24O,1.700000X1.700000*%
%ADD25R,1.700000X1.700000*%
%ADD26C,3.000000*%
%ADD27R,1.600000X1.600000*%
%ADD28C,0.800000*%
%ADD29C,0.762000*%
G04 APERTURE END LIST*
D10*
X50800000Y-127000000D02*
X177800000Y-127000000D01*
X50800000Y-63500000D02*
X177800000Y-63500000D01*
X50800000Y-127000000D02*
X50800000Y-63500000D01*
X177800000Y-127000000D02*
X177800000Y-63500000D01*
G04 #@! TA.AperFunction,ComponentPad*
D11*
G36*
X85160765Y-67644213D02*
G01*
X85245704Y-67656813D01*
X85328999Y-67677677D01*
X85409848Y-67706605D01*
X85487472Y-67743319D01*
X85561124Y-67787464D01*
X85630094Y-67838616D01*
X85693718Y-67896282D01*
X85751384Y-67959906D01*
X85802536Y-68028876D01*
X85846681Y-68102528D01*
X85883395Y-68180152D01*
X85912323Y-68261001D01*
X85933187Y-68344296D01*
X85945787Y-68429235D01*
X85950000Y-68515000D01*
X85950000Y-70265000D01*
X85945787Y-70350765D01*
X85933187Y-70435704D01*
X85912323Y-70518999D01*
X85883395Y-70599848D01*
X85846681Y-70677472D01*
X85802536Y-70751124D01*
X85751384Y-70820094D01*
X85693718Y-70883718D01*
X85630094Y-70941384D01*
X85561124Y-70992536D01*
X85487472Y-71036681D01*
X85409848Y-71073395D01*
X85328999Y-71102323D01*
X85245704Y-71123187D01*
X85160765Y-71135787D01*
X85075000Y-71140000D01*
X83325000Y-71140000D01*
X83239235Y-71135787D01*
X83154296Y-71123187D01*
X83071001Y-71102323D01*
X82990152Y-71073395D01*
X82912528Y-71036681D01*
X82838876Y-70992536D01*
X82769906Y-70941384D01*
X82706282Y-70883718D01*
X82648616Y-70820094D01*
X82597464Y-70751124D01*
X82553319Y-70677472D01*
X82516605Y-70599848D01*
X82487677Y-70518999D01*
X82466813Y-70435704D01*
X82454213Y-70350765D01*
X82450000Y-70265000D01*
X82450000Y-68515000D01*
X82454213Y-68429235D01*
X82466813Y-68344296D01*
X82487677Y-68261001D01*
X82516605Y-68180152D01*
X82553319Y-68102528D01*
X82597464Y-68028876D01*
X82648616Y-67959906D01*
X82706282Y-67896282D01*
X82769906Y-67838616D01*
X82838876Y-67787464D01*
X82912528Y-67743319D01*
X82990152Y-67706605D01*
X83071001Y-67677677D01*
X83154296Y-67656813D01*
X83239235Y-67644213D01*
X83325000Y-67640000D01*
X85075000Y-67640000D01*
X85160765Y-67644213D01*
G37*
G04 #@! TD.AperFunction*
G04 #@! TA.AperFunction,ComponentPad*
G36*
X89973513Y-64893611D02*
G01*
X90046318Y-64904411D01*
X90117714Y-64922295D01*
X90187013Y-64947090D01*
X90253548Y-64978559D01*
X90316678Y-65016398D01*
X90375795Y-65060242D01*
X90430330Y-65109670D01*
X90479758Y-65164205D01*
X90523602Y-65223322D01*
X90561441Y-65286452D01*
X90592910Y-65352987D01*
X90617705Y-65422286D01*
X90635589Y-65493682D01*
X90646389Y-65566487D01*
X90650000Y-65640000D01*
X90650000Y-67140000D01*
X90646389Y-67213513D01*
X90635589Y-67286318D01*
X90617705Y-67357714D01*
X90592910Y-67427013D01*
X90561441Y-67493548D01*
X90523602Y-67556678D01*
X90479758Y-67615795D01*
X90430330Y-67670330D01*
X90375795Y-67719758D01*
X90316678Y-67763602D01*
X90253548Y-67801441D01*
X90187013Y-67832910D01*
X90117714Y-67857705D01*
X90046318Y-67875589D01*
X89973513Y-67886389D01*
X89900000Y-67890000D01*
X87900000Y-67890000D01*
X87826487Y-67886389D01*
X87753682Y-67875589D01*
X87682286Y-67857705D01*
X87612987Y-67832910D01*
X87546452Y-67801441D01*
X87483322Y-67763602D01*
X87424205Y-67719758D01*
X87369670Y-67670330D01*
X87320242Y-67615795D01*
X87276398Y-67556678D01*
X87238559Y-67493548D01*
X87207090Y-67427013D01*
X87182295Y-67357714D01*
X87164411Y-67286318D01*
X87153611Y-67213513D01*
X87150000Y-67140000D01*
X87150000Y-65640000D01*
X87153611Y-65566487D01*
X87164411Y-65493682D01*
X87182295Y-65422286D01*
X87207090Y-65352987D01*
X87238559Y-65286452D01*
X87276398Y-65223322D01*
X87320242Y-65164205D01*
X87369670Y-65109670D01*
X87424205Y-65060242D01*
X87483322Y-65016398D01*
X87546452Y-64978559D01*
X87612987Y-64947090D01*
X87682286Y-64922295D01*
X87753682Y-64904411D01*
X87826487Y-64893611D01*
X87900000Y-64890000D01*
X89900000Y-64890000D01*
X89973513Y-64893611D01*
G37*
G04 #@! TD.AperFunction*
D12*
X88900000Y-72390000D03*
G04 #@! TA.AperFunction,ComponentPad*
D11*
G36*
X72460765Y-67644213D02*
G01*
X72545704Y-67656813D01*
X72628999Y-67677677D01*
X72709848Y-67706605D01*
X72787472Y-67743319D01*
X72861124Y-67787464D01*
X72930094Y-67838616D01*
X72993718Y-67896282D01*
X73051384Y-67959906D01*
X73102536Y-68028876D01*
X73146681Y-68102528D01*
X73183395Y-68180152D01*
X73212323Y-68261001D01*
X73233187Y-68344296D01*
X73245787Y-68429235D01*
X73250000Y-68515000D01*
X73250000Y-70265000D01*
X73245787Y-70350765D01*
X73233187Y-70435704D01*
X73212323Y-70518999D01*
X73183395Y-70599848D01*
X73146681Y-70677472D01*
X73102536Y-70751124D01*
X73051384Y-70820094D01*
X72993718Y-70883718D01*
X72930094Y-70941384D01*
X72861124Y-70992536D01*
X72787472Y-71036681D01*
X72709848Y-71073395D01*
X72628999Y-71102323D01*
X72545704Y-71123187D01*
X72460765Y-71135787D01*
X72375000Y-71140000D01*
X70625000Y-71140000D01*
X70539235Y-71135787D01*
X70454296Y-71123187D01*
X70371001Y-71102323D01*
X70290152Y-71073395D01*
X70212528Y-71036681D01*
X70138876Y-70992536D01*
X70069906Y-70941384D01*
X70006282Y-70883718D01*
X69948616Y-70820094D01*
X69897464Y-70751124D01*
X69853319Y-70677472D01*
X69816605Y-70599848D01*
X69787677Y-70518999D01*
X69766813Y-70435704D01*
X69754213Y-70350765D01*
X69750000Y-70265000D01*
X69750000Y-68515000D01*
X69754213Y-68429235D01*
X69766813Y-68344296D01*
X69787677Y-68261001D01*
X69816605Y-68180152D01*
X69853319Y-68102528D01*
X69897464Y-68028876D01*
X69948616Y-67959906D01*
X70006282Y-67896282D01*
X70069906Y-67838616D01*
X70138876Y-67787464D01*
X70212528Y-67743319D01*
X70290152Y-67706605D01*
X70371001Y-67677677D01*
X70454296Y-67656813D01*
X70539235Y-67644213D01*
X70625000Y-67640000D01*
X72375000Y-67640000D01*
X72460765Y-67644213D01*
G37*
G04 #@! TD.AperFunction*
G04 #@! TA.AperFunction,ComponentPad*
G36*
X77273513Y-64893611D02*
G01*
X77346318Y-64904411D01*
X77417714Y-64922295D01*
X77487013Y-64947090D01*
X77553548Y-64978559D01*
X77616678Y-65016398D01*
X77675795Y-65060242D01*
X77730330Y-65109670D01*
X77779758Y-65164205D01*
X77823602Y-65223322D01*
X77861441Y-65286452D01*
X77892910Y-65352987D01*
X77917705Y-65422286D01*
X77935589Y-65493682D01*
X77946389Y-65566487D01*
X77950000Y-65640000D01*
X77950000Y-67140000D01*
X77946389Y-67213513D01*
X77935589Y-67286318D01*
X77917705Y-67357714D01*
X77892910Y-67427013D01*
X77861441Y-67493548D01*
X77823602Y-67556678D01*
X77779758Y-67615795D01*
X77730330Y-67670330D01*
X77675795Y-67719758D01*
X77616678Y-67763602D01*
X77553548Y-67801441D01*
X77487013Y-67832910D01*
X77417714Y-67857705D01*
X77346318Y-67875589D01*
X77273513Y-67886389D01*
X77200000Y-67890000D01*
X75200000Y-67890000D01*
X75126487Y-67886389D01*
X75053682Y-67875589D01*
X74982286Y-67857705D01*
X74912987Y-67832910D01*
X74846452Y-67801441D01*
X74783322Y-67763602D01*
X74724205Y-67719758D01*
X74669670Y-67670330D01*
X74620242Y-67615795D01*
X74576398Y-67556678D01*
X74538559Y-67493548D01*
X74507090Y-67427013D01*
X74482295Y-67357714D01*
X74464411Y-67286318D01*
X74453611Y-67213513D01*
X74450000Y-67140000D01*
X74450000Y-65640000D01*
X74453611Y-65566487D01*
X74464411Y-65493682D01*
X74482295Y-65422286D01*
X74507090Y-65352987D01*
X74538559Y-65286452D01*
X74576398Y-65223322D01*
X74620242Y-65164205D01*
X74669670Y-65109670D01*
X74724205Y-65060242D01*
X74783322Y-65016398D01*
X74846452Y-64978559D01*
X74912987Y-64947090D01*
X74982286Y-64922295D01*
X75053682Y-64904411D01*
X75126487Y-64893611D01*
X75200000Y-64890000D01*
X77200000Y-64890000D01*
X77273513Y-64893611D01*
G37*
G04 #@! TD.AperFunction*
D12*
X76200000Y-72390000D03*
D13*
X76200000Y-119380000D03*
X76200000Y-116840000D03*
X76200000Y-114300000D03*
D14*
X111760000Y-86360000D03*
X104140000Y-93980000D03*
X111760000Y-88900000D03*
X104140000Y-91440000D03*
X111760000Y-91440000D03*
X104140000Y-88900000D03*
X111760000Y-93980000D03*
D15*
X104140000Y-86360000D03*
D14*
X99060000Y-86360000D03*
X91440000Y-93980000D03*
X99060000Y-88900000D03*
X91440000Y-91440000D03*
X99060000Y-91440000D03*
X91440000Y-88900000D03*
X99060000Y-93980000D03*
D15*
X91440000Y-86360000D03*
D14*
X124460000Y-86360000D03*
X116840000Y-93980000D03*
X124460000Y-88900000D03*
X116840000Y-91440000D03*
X124460000Y-91440000D03*
X116840000Y-88900000D03*
X124460000Y-93980000D03*
D15*
X116840000Y-86360000D03*
D14*
X162560000Y-86360000D03*
X154940000Y-93980000D03*
X162560000Y-88900000D03*
X154940000Y-91440000D03*
X162560000Y-91440000D03*
X154940000Y-88900000D03*
X162560000Y-93980000D03*
D15*
X154940000Y-86360000D03*
D14*
X149860000Y-86360000D03*
X142240000Y-93980000D03*
X149860000Y-88900000D03*
X142240000Y-91440000D03*
X149860000Y-91440000D03*
X142240000Y-88900000D03*
X149860000Y-93980000D03*
D15*
X142240000Y-86360000D03*
D14*
X137160000Y-86360000D03*
X129540000Y-93980000D03*
X137160000Y-88900000D03*
X129540000Y-91440000D03*
X137160000Y-91440000D03*
X129540000Y-88900000D03*
X137160000Y-93980000D03*
D15*
X129540000Y-86360000D03*
D14*
X86360000Y-86360000D03*
X78740000Y-93980000D03*
X86360000Y-88900000D03*
X78740000Y-91440000D03*
X86360000Y-91440000D03*
X78740000Y-88900000D03*
X86360000Y-93980000D03*
D15*
X78740000Y-86360000D03*
D14*
X73660000Y-86360000D03*
X66040000Y-93980000D03*
X73660000Y-88900000D03*
X66040000Y-91440000D03*
X73660000Y-91440000D03*
X66040000Y-88900000D03*
X73660000Y-93980000D03*
D15*
X66040000Y-86360000D03*
D13*
X101600000Y-119380000D03*
X101600000Y-116840000D03*
X101600000Y-114300000D03*
X88900000Y-119380000D03*
X88900000Y-116840000D03*
X88900000Y-114300000D03*
X114300000Y-119380000D03*
X114300000Y-116840000D03*
X114300000Y-114300000D03*
X152400000Y-119380000D03*
X152400000Y-116840000D03*
X152400000Y-114300000D03*
X139700000Y-119380000D03*
X139700000Y-116840000D03*
X139700000Y-114300000D03*
X127000000Y-119380000D03*
X127000000Y-116840000D03*
X127000000Y-114300000D03*
X63500000Y-119380000D03*
X63500000Y-116840000D03*
X63500000Y-114300000D03*
D16*
X111760000Y-99060000D03*
D17*
X111760000Y-101600000D03*
X111760000Y-100330000D03*
D16*
X99060000Y-99060000D03*
D17*
X99060000Y-101600000D03*
X99060000Y-100330000D03*
D16*
X124460000Y-99060000D03*
D17*
X124460000Y-101600000D03*
X124460000Y-100330000D03*
D16*
X162560000Y-99060000D03*
D17*
X162560000Y-101600000D03*
X162560000Y-100330000D03*
D16*
X149860000Y-99060000D03*
D17*
X149860000Y-101600000D03*
X149860000Y-100330000D03*
D16*
X137160000Y-99060000D03*
D17*
X137160000Y-101600000D03*
X137160000Y-100330000D03*
D16*
X86360000Y-99060000D03*
D17*
X86360000Y-101600000D03*
X86360000Y-100330000D03*
D16*
X73660000Y-99060000D03*
D17*
X73660000Y-101600000D03*
X73660000Y-100330000D03*
D18*
X110490000Y-107950000D03*
X107950000Y-107950000D03*
D19*
X105410000Y-107950000D03*
D18*
X97790000Y-107950000D03*
X95250000Y-107950000D03*
D19*
X92710000Y-107950000D03*
D18*
X123190000Y-107950000D03*
X120650000Y-107950000D03*
D19*
X118110000Y-107950000D03*
D18*
X161290000Y-107950000D03*
X158750000Y-107950000D03*
D19*
X156210000Y-107950000D03*
D18*
X148590000Y-107950000D03*
X146050000Y-107950000D03*
D19*
X143510000Y-107950000D03*
D18*
X135890000Y-107950000D03*
X133350000Y-107950000D03*
D19*
X130810000Y-107950000D03*
D18*
X85090000Y-107950000D03*
X82550000Y-107950000D03*
D19*
X80010000Y-107950000D03*
D18*
X72390000Y-107950000D03*
X69850000Y-107950000D03*
D19*
X67310000Y-107950000D03*
D20*
X157480000Y-66040000D03*
D21*
X157480000Y-73660000D03*
D22*
X119380000Y-72390000D03*
X119380000Y-69850000D03*
D23*
X119380000Y-67310000D03*
D13*
X162560000Y-68580000D03*
X162560000Y-71120000D03*
X162560000Y-73660000D03*
D24*
X163830000Y-124460000D03*
X161290000Y-124460000D03*
X158750000Y-124460000D03*
X156210000Y-124460000D03*
X153670000Y-124460000D03*
X151130000Y-124460000D03*
X148590000Y-124460000D03*
X146050000Y-124460000D03*
X143510000Y-124460000D03*
X140970000Y-124460000D03*
X138430000Y-124460000D03*
X135890000Y-124460000D03*
X133350000Y-124460000D03*
X130810000Y-124460000D03*
X128270000Y-124460000D03*
X125730000Y-124460000D03*
X123190000Y-124460000D03*
X120650000Y-124460000D03*
X118110000Y-124460000D03*
X115570000Y-124460000D03*
X113030000Y-124460000D03*
X110490000Y-124460000D03*
X107950000Y-124460000D03*
X105410000Y-124460000D03*
X102870000Y-124460000D03*
X100330000Y-124460000D03*
X97790000Y-124460000D03*
X95250000Y-124460000D03*
X92710000Y-124460000D03*
X90170000Y-124460000D03*
X87630000Y-124460000D03*
X85090000Y-124460000D03*
X82550000Y-124460000D03*
X80010000Y-124460000D03*
X77470000Y-124460000D03*
X74930000Y-124460000D03*
X72390000Y-124460000D03*
X69850000Y-124460000D03*
X67310000Y-124460000D03*
D25*
X64770000Y-124460000D03*
D26*
X146050000Y-67945000D03*
X139700000Y-67945000D03*
D21*
X129540000Y-68620000D03*
D27*
X129540000Y-71120000D03*
D21*
X110490000Y-68620000D03*
D27*
X110490000Y-71120000D03*
D21*
X100330000Y-68620000D03*
D27*
X100330000Y-71120000D03*
D28*
X69850000Y-96520000D03*
X71755000Y-81280000D03*
X82550000Y-96520000D03*
X84455000Y-81280000D03*
X161290000Y-113030000D03*
X156210000Y-116840000D03*
X148590000Y-113030000D03*
X143510000Y-116840000D03*
X135890000Y-113030000D03*
X130810000Y-116840000D03*
X123190000Y-113030000D03*
X118110000Y-116840000D03*
X110490000Y-113030000D03*
X105410000Y-116840000D03*
X97790000Y-113030000D03*
X92710000Y-116840000D03*
X85090000Y-113030000D03*
X80010000Y-116840000D03*
X72390000Y-113030000D03*
X67310000Y-116840000D03*
X95250000Y-96520000D03*
X97155000Y-81280000D03*
X107950000Y-96520000D03*
X109855000Y-81280000D03*
X120650000Y-96520000D03*
X122555000Y-81280000D03*
X133350000Y-96520000D03*
X135255000Y-81280000D03*
X146050000Y-96520000D03*
X147955000Y-81280000D03*
X158750000Y-96520000D03*
X160655000Y-81280000D03*
X77470000Y-78105000D03*
X87630000Y-78105000D03*
X90170000Y-78105000D03*
X100330000Y-78105000D03*
X102870000Y-78105000D03*
X113030000Y-78105000D03*
X115570000Y-78105000D03*
X125730000Y-78105000D03*
X128270000Y-78105000D03*
X138430000Y-78105000D03*
X140970000Y-78105000D03*
X151130000Y-78105000D03*
X153670000Y-78105000D03*
X74930000Y-78105000D03*
X65405000Y-78105000D03*
X163195000Y-78105000D03*
X69893500Y-85090000D03*
X68580000Y-96520000D03*
X81280000Y-96520000D03*
X82550000Y-85090000D03*
X93980000Y-96520000D03*
X95250000Y-85090000D03*
X106680000Y-96520000D03*
X107950000Y-85090000D03*
X119380000Y-96520000D03*
X120693500Y-85090000D03*
X132080000Y-96520000D03*
X133350000Y-85090000D03*
X144780000Y-96520000D03*
X146050000Y-85090000D03*
X157480000Y-96520000D03*
X158750000Y-85090000D03*
D29*
X75622000Y-86360000D02*
X76200000Y-85782000D01*
X73660000Y-86360000D02*
X75622000Y-86360000D01*
X76200000Y-85782000D02*
X76200000Y-76200000D01*
X88322000Y-86360000D02*
X86360000Y-86360000D01*
X88900000Y-85782000D02*
X88322000Y-86360000D01*
X76200000Y-76200000D02*
X88900000Y-76200000D01*
X88900000Y-76200000D02*
X88900000Y-85090000D01*
X101022000Y-86360000D02*
X99060000Y-86360000D01*
X101600000Y-76200000D02*
X101600000Y-85782000D01*
X101600000Y-85782000D02*
X101022000Y-86360000D01*
X88900000Y-76200000D02*
X101600000Y-76200000D01*
X69850000Y-107950000D02*
X69850000Y-106045000D01*
X69850000Y-106045000D02*
X71120000Y-104775000D01*
X71120000Y-104775000D02*
X73660000Y-104775000D01*
X73660000Y-104775000D02*
X76200000Y-102235000D01*
X76200000Y-102235000D02*
X76200000Y-98425000D01*
X76200000Y-98425000D02*
X76200000Y-97790000D01*
X76200000Y-85782000D02*
X76200000Y-97790000D01*
X76200000Y-97790000D02*
X76200000Y-98032000D01*
X95250000Y-107950000D02*
X95250000Y-106045000D01*
X95250000Y-106045000D02*
X96520000Y-104775000D01*
X96520000Y-104775000D02*
X99060000Y-104775000D01*
X99060000Y-104775000D02*
X101600000Y-102235000D01*
X101600000Y-102235000D02*
X101600000Y-85782000D01*
X112395000Y-104775000D02*
X114300000Y-102870000D01*
X101600000Y-76200000D02*
X114300000Y-76200000D01*
X107950000Y-107950000D02*
X107950000Y-106045000D01*
X107950000Y-106045000D02*
X109220000Y-104775000D01*
X109220000Y-104775000D02*
X112395000Y-104775000D01*
X120650000Y-107950000D02*
X120650000Y-106045000D01*
X120650000Y-106045000D02*
X121920000Y-104775000D01*
X121920000Y-104775000D02*
X124460000Y-104775000D01*
X124460000Y-104775000D02*
X127000000Y-102235000D01*
X127000000Y-76200000D02*
X129540000Y-76200000D01*
X127000000Y-85782000D02*
X127000000Y-85090000D01*
X126422000Y-86360000D02*
X127000000Y-85782000D01*
X124460000Y-86360000D02*
X126422000Y-86360000D01*
X127000000Y-102235000D02*
X127000000Y-85090000D01*
X127000000Y-85090000D02*
X127000000Y-76200000D01*
X165100000Y-78105000D02*
X165100000Y-85782000D01*
X164522000Y-86360000D02*
X162560000Y-86360000D01*
X165100000Y-85782000D02*
X164522000Y-86360000D01*
X163195000Y-76200000D02*
X165100000Y-78105000D01*
X165100000Y-85782000D02*
X165100000Y-102235000D01*
X158750000Y-107950000D02*
X158750000Y-106045000D01*
X158750000Y-106045000D02*
X160020000Y-104775000D01*
X160020000Y-104775000D02*
X162560000Y-104775000D01*
X162560000Y-104775000D02*
X165100000Y-102235000D01*
X146050000Y-107950000D02*
X146050000Y-106045000D01*
X146050000Y-106045000D02*
X147320000Y-104775000D01*
X147320000Y-104775000D02*
X149860000Y-104775000D01*
X149860000Y-104775000D02*
X152400000Y-102235000D01*
X133350000Y-107950000D02*
X133350000Y-106045000D01*
X133350000Y-106045000D02*
X134620000Y-104775000D01*
X134620000Y-104775000D02*
X137160000Y-104775000D01*
X137160000Y-104775000D02*
X139700000Y-102235000D01*
X139700000Y-77923118D02*
X139700000Y-76200000D01*
X129540000Y-76200000D02*
X139700000Y-76200000D01*
X152400000Y-76200000D02*
X163195000Y-76200000D01*
X114300000Y-85782000D02*
X113722000Y-86360000D01*
X113722000Y-86360000D02*
X111760000Y-86360000D01*
X114300000Y-85090000D02*
X114300000Y-85782000D01*
X114300000Y-85090000D02*
X114300000Y-76200000D01*
X114300000Y-102870000D02*
X114300000Y-85090000D01*
X139700000Y-85782000D02*
X139122000Y-86360000D01*
X139700000Y-85090000D02*
X139700000Y-85782000D01*
X139122000Y-86360000D02*
X137160000Y-86360000D01*
X139700000Y-85090000D02*
X139700000Y-77923118D01*
X139700000Y-102235000D02*
X139700000Y-85090000D01*
X152400000Y-85782000D02*
X151822000Y-86360000D01*
X152400000Y-85090000D02*
X152400000Y-85782000D01*
X151822000Y-86360000D02*
X149860000Y-86360000D01*
X152400000Y-85090000D02*
X152400000Y-76200000D01*
X152400000Y-102235000D02*
X152400000Y-85090000D01*
X88900000Y-102235000D02*
X88900000Y-85725000D01*
X86360000Y-104775000D02*
X88900000Y-102235000D01*
X83820000Y-104775000D02*
X86360000Y-104775000D01*
X82550000Y-106045000D02*
X83820000Y-104775000D01*
X88900000Y-85725000D02*
X88900000Y-85782000D01*
X88900000Y-85090000D02*
X88900000Y-85725000D01*
X82550000Y-107950000D02*
X82550000Y-106045000D01*
X128270000Y-72390000D02*
X129540000Y-71120000D01*
X119380000Y-72390000D02*
X128270000Y-72390000D01*
X119380000Y-72390000D02*
X119380000Y-76200000D01*
X114300000Y-76200000D02*
X119380000Y-76200000D01*
X119380000Y-76200000D02*
X127000000Y-76200000D01*
X146050000Y-67310000D02*
X146050000Y-69431320D01*
X146050000Y-69431320D02*
X146050000Y-76200000D01*
X139700000Y-76200000D02*
X146050000Y-76200000D01*
X146050000Y-76200000D02*
X152400000Y-76200000D01*
X157480000Y-76200000D02*
X157480000Y-73660000D01*
X67310000Y-124460000D02*
X67310000Y-120650000D01*
X67310000Y-120650000D02*
X69850000Y-118110000D01*
X69850000Y-118110000D02*
X69850000Y-107950000D01*
X80010000Y-124460000D02*
X80010000Y-120650000D01*
X82550000Y-118110000D02*
X82550000Y-107950000D01*
X80010000Y-120650000D02*
X82550000Y-118110000D01*
X105410000Y-124460000D02*
X105410000Y-120650000D01*
X105410000Y-120650000D02*
X107950000Y-118110000D01*
X107950000Y-118110000D02*
X107950000Y-107950000D01*
X118110000Y-124460000D02*
X118110000Y-120650000D01*
X118110000Y-120650000D02*
X120650000Y-118110000D01*
X120650000Y-118110000D02*
X120650000Y-107950000D01*
X146050000Y-118110000D02*
X146050000Y-107950000D01*
X143510000Y-124460000D02*
X143510000Y-120650000D01*
X143510000Y-120650000D02*
X146050000Y-118110000D01*
X130810000Y-124460000D02*
X130810000Y-120650000D01*
X130810000Y-120650000D02*
X133350000Y-118110000D01*
X133350000Y-118110000D02*
X133350000Y-107950000D01*
X156210000Y-124460000D02*
X156210000Y-120650000D01*
X156210000Y-120650000D02*
X158750000Y-118110000D01*
X158750000Y-118110000D02*
X158750000Y-107950000D01*
X92710000Y-124460000D02*
X92710000Y-120650000D01*
X92710000Y-120650000D02*
X95250000Y-118110000D01*
X95250000Y-118110000D02*
X95250000Y-107950000D01*
X99060000Y-72390000D02*
X100330000Y-71120000D01*
X76200000Y-72390000D02*
X99060000Y-72390000D01*
X100330000Y-71120000D02*
X110490000Y-71120000D01*
X117618000Y-67310000D02*
X113808000Y-71120000D01*
X119380000Y-67310000D02*
X117618000Y-67310000D01*
X113808000Y-71120000D02*
X110490000Y-71120000D01*
X71698000Y-88900000D02*
X73660000Y-88900000D01*
X71120000Y-89478000D02*
X71698000Y-88900000D01*
X71120000Y-97790000D02*
X71120000Y-89478000D01*
X67310000Y-101600000D02*
X71120000Y-97790000D01*
X67310000Y-107950000D02*
X67310000Y-101600000D01*
X66040000Y-86360000D02*
X66040000Y-84455000D01*
X66040000Y-84455000D02*
X66675000Y-83820000D01*
X66675000Y-83820000D02*
X71120000Y-83820000D01*
X71120000Y-83820000D02*
X71120000Y-87630000D01*
X71120000Y-87630000D02*
X69850000Y-88900000D01*
X69850000Y-88900000D02*
X69850000Y-96520000D01*
X71120000Y-83820000D02*
X71120000Y-81915000D01*
X71120000Y-81915000D02*
X71755000Y-81280000D01*
X157480000Y-69850000D02*
X157480000Y-66040000D01*
X162560000Y-73660000D02*
X161290000Y-73660000D01*
X161290000Y-73660000D02*
X157480000Y-69850000D01*
X84398000Y-88900000D02*
X86360000Y-88900000D01*
X83820000Y-89478000D02*
X84398000Y-88900000D01*
X83820000Y-97790000D02*
X83820000Y-89478000D01*
X80010000Y-101600000D02*
X83820000Y-97790000D01*
X80010000Y-107950000D02*
X80010000Y-101600000D01*
X78740000Y-84798000D02*
X79718000Y-83820000D01*
X78740000Y-86360000D02*
X78740000Y-84798000D01*
X83820000Y-83820000D02*
X83820000Y-87630000D01*
X79718000Y-83820000D02*
X83820000Y-83820000D01*
X83820000Y-87630000D02*
X82550000Y-88900000D01*
X82550000Y-88900000D02*
X82550000Y-96520000D01*
X83820000Y-83820000D02*
X83820000Y-81915000D01*
X83820000Y-81915000D02*
X84455000Y-81280000D01*
X163830000Y-122555000D02*
X163830000Y-124460000D01*
X162560000Y-121285000D02*
X163830000Y-122555000D01*
X162560000Y-110982000D02*
X162560000Y-121285000D01*
X161290000Y-107950000D02*
X161290000Y-109712000D01*
X161290000Y-109712000D02*
X162560000Y-110982000D01*
X161290000Y-124460000D02*
X161290000Y-113030000D01*
X152400000Y-116840000D02*
X152400000Y-119380000D01*
X153670000Y-120650000D02*
X152400000Y-119380000D01*
X153670000Y-124460000D02*
X153670000Y-120650000D01*
X156210000Y-116840000D02*
X152400000Y-116840000D01*
X151130000Y-122555000D02*
X151130000Y-124460000D01*
X149860000Y-121285000D02*
X151130000Y-122555000D01*
X149860000Y-110982000D02*
X149860000Y-121285000D01*
X148590000Y-107950000D02*
X148590000Y-109712000D01*
X148590000Y-109712000D02*
X149860000Y-110982000D01*
X148590000Y-113030000D02*
X148590000Y-124460000D01*
X140970000Y-120650000D02*
X139700000Y-119380000D01*
X140970000Y-124460000D02*
X140970000Y-120650000D01*
X139700000Y-119380000D02*
X139700000Y-116840000D01*
X143510000Y-116840000D02*
X139700000Y-116840000D01*
X137160000Y-121285000D02*
X138430000Y-122555000D01*
X138430000Y-122555000D02*
X138430000Y-124460000D01*
X135890000Y-107950000D02*
X135890000Y-109712000D01*
X137160000Y-110982000D02*
X137160000Y-121285000D01*
X135890000Y-109712000D02*
X137160000Y-110982000D01*
X135890000Y-113030000D02*
X135890000Y-124460000D01*
X128270000Y-120650000D02*
X127000000Y-119380000D01*
X128270000Y-124460000D02*
X128270000Y-120650000D01*
X127000000Y-116840000D02*
X127000000Y-119380000D01*
X130810000Y-116840000D02*
X127000000Y-116840000D01*
X125730000Y-122555000D02*
X125730000Y-124460000D01*
X124460000Y-110982000D02*
X124460000Y-121285000D01*
X123190000Y-107950000D02*
X123190000Y-109712000D01*
X124460000Y-121285000D02*
X125730000Y-122555000D01*
X123190000Y-109712000D02*
X124460000Y-110982000D01*
X123190000Y-113030000D02*
X123190000Y-124460000D01*
X115570000Y-120650000D02*
X114300000Y-119380000D01*
X115570000Y-124460000D02*
X115570000Y-120650000D01*
X114300000Y-116840000D02*
X114300000Y-119380000D01*
X114300000Y-116840000D02*
X118110000Y-116840000D01*
X113030000Y-122555000D02*
X113030000Y-124460000D01*
X111760000Y-121285000D02*
X113030000Y-122555000D01*
X111760000Y-110982000D02*
X111760000Y-121285000D01*
X110490000Y-107950000D02*
X110490000Y-109712000D01*
X110490000Y-109712000D02*
X111760000Y-110982000D01*
X110490000Y-113030000D02*
X110490000Y-124460000D01*
X102870000Y-120650000D02*
X101600000Y-119380000D01*
X102870000Y-124460000D02*
X102870000Y-120650000D01*
X101600000Y-116840000D02*
X101600000Y-119380000D01*
X105410000Y-116840000D02*
X101600000Y-116840000D01*
X100330000Y-122555000D02*
X100330000Y-124460000D01*
X99060000Y-110982000D02*
X99060000Y-121285000D01*
X99060000Y-121285000D02*
X100330000Y-122555000D01*
X97790000Y-107950000D02*
X97790000Y-109712000D01*
X97790000Y-109712000D02*
X99060000Y-110982000D01*
X97790000Y-113030000D02*
X97790000Y-124460000D01*
X90170000Y-120650000D02*
X88900000Y-119380000D01*
X90170000Y-124460000D02*
X90170000Y-120650000D01*
X88900000Y-119380000D02*
X88900000Y-116840000D01*
X92710000Y-116840000D02*
X88900000Y-116840000D01*
X85090000Y-107950000D02*
X85090000Y-110490000D01*
X85090000Y-110490000D02*
X86360000Y-111760000D01*
X86360000Y-111760000D02*
X86360000Y-121285000D01*
X87630000Y-122555000D02*
X87630000Y-124460000D01*
X86360000Y-121285000D02*
X87630000Y-122555000D01*
X85090000Y-113030000D02*
X85090000Y-124460000D01*
X76200000Y-116840000D02*
X76200000Y-119380000D01*
X77470000Y-120650000D02*
X76200000Y-119380000D01*
X77470000Y-124460000D02*
X77470000Y-120650000D01*
X80010000Y-116840000D02*
X76200000Y-116840000D01*
X74930000Y-122555000D02*
X74930000Y-124460000D01*
X73660000Y-110982000D02*
X73660000Y-121285000D01*
X73660000Y-121285000D02*
X74930000Y-122555000D01*
X72390000Y-107950000D02*
X72390000Y-109712000D01*
X72390000Y-109712000D02*
X73660000Y-110982000D01*
X72390000Y-113030000D02*
X72390000Y-124460000D01*
X64770000Y-120650000D02*
X63500000Y-119380000D01*
X64770000Y-124460000D02*
X64770000Y-120650000D01*
X63500000Y-119380000D02*
X63500000Y-116840000D01*
X67310000Y-116840000D02*
X63500000Y-116840000D01*
X96520000Y-97790000D02*
X96520000Y-89478000D01*
X97098000Y-88900000D02*
X99060000Y-88900000D01*
X96520000Y-89478000D02*
X97098000Y-88900000D01*
X92710000Y-101600000D02*
X96520000Y-97790000D01*
X92710000Y-107950000D02*
X92710000Y-101600000D01*
X109220000Y-89478000D02*
X109798000Y-88900000D01*
X109798000Y-88900000D02*
X111760000Y-88900000D01*
X109220000Y-97790000D02*
X109220000Y-89478000D01*
X105410000Y-101600000D02*
X109220000Y-97790000D01*
X105410000Y-107950000D02*
X105410000Y-101600000D01*
X122498000Y-88900000D02*
X124460000Y-88900000D01*
X121920000Y-97790000D02*
X121920000Y-89478000D01*
X121920000Y-89478000D02*
X122498000Y-88900000D01*
X118110000Y-101600000D02*
X121920000Y-97790000D01*
X118110000Y-107950000D02*
X118110000Y-101600000D01*
X135198000Y-88900000D02*
X137160000Y-88900000D01*
X134620000Y-89478000D02*
X135198000Y-88900000D01*
X134620000Y-97790000D02*
X134620000Y-89478000D01*
X130810000Y-101600000D02*
X134620000Y-97790000D01*
X130810000Y-107950000D02*
X130810000Y-101600000D01*
X147898000Y-88900000D02*
X149860000Y-88900000D01*
X143510000Y-101600000D02*
X147320000Y-97790000D01*
X147320000Y-89478000D02*
X147898000Y-88900000D01*
X147320000Y-97790000D02*
X147320000Y-89478000D01*
X143510000Y-107950000D02*
X143510000Y-101600000D01*
X160598000Y-88900000D02*
X162560000Y-88900000D01*
X160020000Y-89478000D02*
X160598000Y-88900000D01*
X160020000Y-97790000D02*
X160020000Y-89478000D01*
X156210000Y-101600000D02*
X160020000Y-97790000D01*
X156210000Y-107950000D02*
X156210000Y-101600000D01*
X91440000Y-86360000D02*
X91440000Y-85090000D01*
X91440000Y-85090000D02*
X91440000Y-84455000D01*
X91440000Y-84455000D02*
X92075000Y-83820000D01*
X96520000Y-83820000D02*
X96520000Y-86360000D01*
X92075000Y-83820000D02*
X96520000Y-83820000D01*
X96520000Y-86360000D02*
X96520000Y-87630000D01*
X96520000Y-87630000D02*
X95250000Y-88900000D01*
X95250000Y-88900000D02*
X95250000Y-96520000D01*
X96520000Y-83820000D02*
X96520000Y-81915000D01*
X96520000Y-81915000D02*
X97155000Y-81280000D01*
X104140000Y-86360000D02*
X104140000Y-85090000D01*
X104140000Y-85090000D02*
X104140000Y-84455000D01*
X104140000Y-84455000D02*
X104775000Y-83820000D01*
X109220000Y-83820000D02*
X109220000Y-87630000D01*
X104775000Y-83820000D02*
X109220000Y-83820000D01*
X109220000Y-87630000D02*
X107950000Y-88900000D01*
X107950000Y-88900000D02*
X107950000Y-96520000D01*
X109220000Y-83820000D02*
X109220000Y-81915000D01*
X109220000Y-81915000D02*
X109855000Y-81280000D01*
X116840000Y-86360000D02*
X116840000Y-85090000D01*
X116840000Y-85090000D02*
X116840000Y-84455000D01*
X116840000Y-84455000D02*
X117475000Y-83820000D01*
X121920000Y-83820000D02*
X121920000Y-87630000D01*
X117475000Y-83820000D02*
X121920000Y-83820000D01*
X121920000Y-87630000D02*
X120650000Y-88900000D01*
X120650000Y-88900000D02*
X120650000Y-96520000D01*
X121920000Y-83820000D02*
X121920000Y-81915000D01*
X121920000Y-81915000D02*
X122555000Y-81280000D01*
X129540000Y-86360000D02*
X129540000Y-84798000D01*
X129540000Y-84798000D02*
X129540000Y-84455000D01*
X129540000Y-84455000D02*
X130175000Y-83820000D01*
X134620000Y-83820000D02*
X134620000Y-86360000D01*
X130175000Y-83820000D02*
X134620000Y-83820000D01*
X134620000Y-86360000D02*
X133350000Y-87630000D01*
X133350000Y-87630000D02*
X133350000Y-96520000D01*
X134620000Y-83820000D02*
X134620000Y-81915000D01*
X134620000Y-81915000D02*
X135255000Y-81280000D01*
X142240000Y-86360000D02*
X142240000Y-84798000D01*
X142240000Y-84798000D02*
X142240000Y-84455000D01*
X142240000Y-84455000D02*
X142875000Y-83820000D01*
X147320000Y-83820000D02*
X147320000Y-87630000D01*
X142875000Y-83820000D02*
X147320000Y-83820000D01*
X147320000Y-87630000D02*
X146050000Y-88900000D01*
X146050000Y-88900000D02*
X146050000Y-96520000D01*
X147320000Y-83820000D02*
X147320000Y-81915000D01*
X147320000Y-81915000D02*
X147955000Y-81280000D01*
X154940000Y-86360000D02*
X154940000Y-84455000D01*
X154940000Y-84455000D02*
X155575000Y-83820000D01*
X160020000Y-83820000D02*
X160020000Y-87630000D01*
X155575000Y-83820000D02*
X160020000Y-83820000D01*
X160020000Y-87630000D02*
X158750000Y-88900000D01*
X158750000Y-88900000D02*
X158750000Y-96520000D01*
X160020000Y-83820000D02*
X160020000Y-81915000D01*
X160020000Y-81915000D02*
X160655000Y-81280000D01*
X77470000Y-78105000D02*
X87630000Y-78105000D01*
X90170000Y-78105000D02*
X100330000Y-78105000D01*
X102870000Y-78105000D02*
X113030000Y-78105000D01*
X115570000Y-78105000D02*
X125730000Y-78105000D01*
X128270000Y-78105000D02*
X138430000Y-78105000D01*
X140970000Y-78105000D02*
X151130000Y-78105000D01*
X74930000Y-78105000D02*
X65405000Y-78105000D01*
X153670000Y-78105000D02*
X163195000Y-78105000D01*
X66040000Y-88900000D02*
X68580000Y-88900000D01*
X68580000Y-87630000D02*
X68580000Y-88900000D01*
X68580000Y-87630000D02*
X68580000Y-86403500D01*
X68580000Y-86403500D02*
X69893500Y-85090000D01*
X68580000Y-96520000D02*
X68580000Y-88900000D01*
X81280000Y-86360000D02*
X82550000Y-85090000D01*
X81280000Y-96520000D02*
X81280000Y-88900000D01*
X78740000Y-88900000D02*
X81280000Y-88900000D01*
X81280000Y-88900000D02*
X81280000Y-86360000D01*
X93980000Y-96520000D02*
X93980000Y-88900000D01*
X91440000Y-88900000D02*
X93980000Y-88900000D01*
X93980000Y-88900000D02*
X93980000Y-86360000D01*
X93980000Y-86360000D02*
X95250000Y-85090000D01*
X106680000Y-86360000D02*
X107950000Y-85090000D01*
X104140000Y-88900000D02*
X106680000Y-88900000D01*
X106680000Y-96520000D02*
X106680000Y-88900000D01*
X106680000Y-88900000D02*
X106680000Y-86360000D01*
X119380000Y-96520000D02*
X119380000Y-88900000D01*
X116840000Y-88900000D02*
X119380000Y-88900000D01*
X119380000Y-88900000D02*
X119380000Y-86403500D01*
X119380000Y-86403500D02*
X120693500Y-85090000D01*
X132080000Y-87630000D02*
X132080000Y-86360000D01*
X132080000Y-86360000D02*
X133350000Y-85090000D01*
X129540000Y-88900000D02*
X132080000Y-88900000D01*
X132080000Y-96520000D02*
X132080000Y-88900000D01*
X132080000Y-88900000D02*
X132080000Y-87630000D01*
X144780000Y-96520000D02*
X144780000Y-88900000D01*
X142240000Y-88900000D02*
X144780000Y-88900000D01*
X144780000Y-88900000D02*
X144780000Y-86360000D01*
X144780000Y-86360000D02*
X146050000Y-85090000D01*
X157480000Y-87630000D02*
X157480000Y-86360000D01*
X157480000Y-86360000D02*
X158750000Y-85090000D01*
X154940000Y-88900000D02*
X157480000Y-88900000D01*
X157480000Y-96520000D02*
X157480000Y-88900000D01*
X157480000Y-88900000D02*
X157480000Y-87630000D01*
M02*
