M48
; DRILL file {KiCad 5.1.5+dfsg1-2} date Fri 13 Dec 2019 03:30:39 PM CST
; FORMAT={-:-/ absolute / inch / decimal}
; #@! TF.CreationDate,2019-12-13T15:30:39-06:00
; #@! TF.GenerationSoftware,Kicad,Pcbnew,5.1.5+dfsg1-2
; #@! TF.FileFunction,Plated,1,2,PTH
FMAT,2
INCH
T1C0.0157
T2C0.0295
T3C0.0315
T4C0.0394
T5C0.0433
T6C0.0591
%
G90
G05
T1
X2.575Y-3.075
X2.65Y-4.6
X2.7Y-3.8
X2.75Y-3.8
X2.7517Y-3.35
X2.825Y-3.2
X2.85Y-4.45
X2.95Y-3.075
X3.05Y-3.075
X3.15Y-4.6
X3.2Y-3.8
X3.25Y-3.35
X3.25Y-3.8
X3.325Y-3.2
X3.35Y-4.45
X3.45Y-3.075
X3.55Y-3.075
X3.65Y-4.6
X3.7Y-3.8
X3.75Y-3.35
X3.75Y-3.8
X3.825Y-3.2
X3.85Y-4.45
X3.95Y-3.075
X4.05Y-3.075
X4.15Y-4.6
X4.2Y-3.8
X4.25Y-3.35
X4.25Y-3.8
X4.325Y-3.2
X4.35Y-4.45
X4.45Y-3.075
X4.55Y-3.075
X4.65Y-4.6
X4.7Y-3.8
X4.75Y-3.8
X4.7517Y-3.35
X4.825Y-3.2
X4.85Y-4.45
X4.95Y-3.075
X5.05Y-3.075
X5.15Y-4.6
X5.2Y-3.8
X5.25Y-3.35
X5.25Y-3.8
X5.325Y-3.2
X5.35Y-4.45
X5.45Y-3.075
X5.55Y-3.075
X5.65Y-4.6
X5.7Y-3.8
X5.75Y-3.35
X5.75Y-3.8
X5.825Y-3.2
X5.85Y-4.45
X5.95Y-3.075
X6.05Y-3.075
X6.15Y-4.6
X6.2Y-3.8
X6.25Y-3.35
X6.25Y-3.8
X6.325Y-3.2
X6.35Y-4.45
X6.425Y-3.075
T2
X4.4Y-3.9
X4.4Y-3.95
X4.4Y-4.0
X2.9Y-3.9
X2.9Y-3.95
X2.9Y-4.0
X3.9Y-3.9
X3.9Y-3.95
X3.9Y-4.0
X3.4Y-3.9
X3.4Y-3.95
X3.4Y-4.0
X6.4Y-3.9
X6.4Y-3.95
X6.4Y-4.0
X5.4Y-3.9
X5.4Y-3.95
X5.4Y-4.0
X5.9Y-3.9
X5.9Y-3.95
X5.9Y-4.0
X4.9Y-3.9
X4.9Y-3.95
X4.9Y-4.0
T3
X4.35Y-2.7016
X4.35Y-2.8
X3.5Y-4.5
X3.5Y-4.6
X3.5Y-4.7
X6.2Y-2.6
X6.2Y-2.9
X4.0Y-4.5
X4.0Y-4.6
X4.0Y-4.7
X4.1Y-3.4
X4.1Y-3.5
X4.1Y-3.6
X4.1Y-3.7
X4.4Y-3.4
X4.4Y-3.5
X4.4Y-3.6
X4.4Y-3.7
X3.6Y-3.4
X3.6Y-3.5
X3.6Y-3.6
X3.6Y-3.7
X3.9Y-3.4
X3.9Y-3.5
X3.9Y-3.6
X3.9Y-3.7
X3.1Y-3.4
X3.1Y-3.5
X3.1Y-3.6
X3.1Y-3.7
X3.4Y-3.4
X3.4Y-3.5
X3.4Y-3.6
X3.4Y-3.7
X3.0Y-4.5
X3.0Y-4.6
X3.0Y-4.7
X5.5Y-4.5
X5.5Y-4.6
X5.5Y-4.7
X6.1Y-3.4
X6.1Y-3.5
X6.1Y-3.6
X6.1Y-3.7
X6.4Y-3.4
X6.4Y-3.5
X6.4Y-3.6
X6.4Y-3.7
X4.5Y-4.5
X4.5Y-4.6
X4.5Y-4.7
X2.6Y-3.4
X2.6Y-3.5
X2.6Y-3.6
X2.6Y-3.7
X2.9Y-3.4
X2.9Y-3.5
X2.9Y-3.6
X2.9Y-3.7
X3.95Y-2.7016
X3.95Y-2.8
X5.1Y-2.7016
X5.1Y-2.8
X2.5Y-4.5
X2.5Y-4.6
X2.5Y-4.7
X6.4Y-2.7
X6.4Y-2.8
X6.4Y-2.9
X5.6Y-3.4
X5.6Y-3.5
X5.6Y-3.6
X5.6Y-3.7
X5.9Y-3.4
X5.9Y-3.5
X5.9Y-3.6
X5.9Y-3.7
X5.1Y-3.4
X5.1Y-3.5
X5.1Y-3.6
X5.1Y-3.7
X5.4Y-3.4
X5.4Y-3.5
X5.4Y-3.6
X5.4Y-3.7
X6.0Y-4.5
X6.0Y-4.6
X6.0Y-4.7
X4.6Y-3.4
X4.6Y-3.5
X4.6Y-3.6
X4.6Y-3.7
X4.9Y-3.4
X4.9Y-3.5
X4.9Y-3.6
X4.9Y-3.7
X5.0Y-4.5
X5.0Y-4.6
X5.0Y-4.7
T4
X2.55Y-4.9
X2.65Y-4.9
X2.75Y-4.9
X2.85Y-4.9
X2.95Y-4.9
X3.05Y-4.9
X3.15Y-4.9
X3.25Y-4.9
X3.35Y-4.9
X3.45Y-4.9
X3.55Y-4.9
X3.65Y-4.9
X3.75Y-4.9
X3.85Y-4.9
X3.95Y-4.9
X4.05Y-4.9
X4.15Y-4.9
X4.25Y-4.9
X4.35Y-4.9
X4.45Y-4.9
X4.55Y-4.9
X4.65Y-4.9
X4.75Y-4.9
X4.85Y-4.9
X4.95Y-4.9
X5.05Y-4.9
X5.15Y-4.9
X5.25Y-4.9
X5.35Y-4.9
X5.45Y-4.9
X5.55Y-4.9
X5.65Y-4.9
X5.75Y-4.9
X5.85Y-4.9
X5.95Y-4.9
X6.05Y-4.9
X6.15Y-4.9
X6.25Y-4.9
X6.35Y-4.9
X6.45Y-4.9
T5
X5.15Y-4.25
X5.25Y-4.25
X5.35Y-4.25
X5.65Y-4.25
X5.75Y-4.25
X5.85Y-4.25
X6.15Y-4.25
X6.25Y-4.25
X6.35Y-4.25
X4.65Y-4.25
X4.75Y-4.25
X4.85Y-4.25
X4.7Y-2.65
X4.7Y-2.75
X4.7Y-2.85
X3.65Y-4.25
X3.75Y-4.25
X3.85Y-4.25
X2.65Y-4.25
X2.75Y-4.25
X2.85Y-4.25
X4.15Y-4.25
X4.25Y-4.25
X4.35Y-4.25
X3.15Y-4.25
X3.25Y-4.25
X3.35Y-4.25
T6
X5.5Y-2.675
X5.75Y-2.675
T4
G00X2.815Y-2.6925
M15
G01X2.815Y-2.7713
M16
G05
G00X3.0394Y-2.6138
M15
G01X2.9606Y-2.6138
M16
G05
G00X3.0394Y-2.85
M15
G01X2.9606Y-2.85
M16
G05
G00X3.315Y-2.6925
M15
G01X3.315Y-2.7713
M16
G05
G00X3.5394Y-2.6138
M15
G01X3.4606Y-2.6138
M16
G05
G00X3.5394Y-2.85
M15
G01X3.4606Y-2.85
M16
G05
T0
M30
