G04 #@! TF.GenerationSoftware,KiCad,Pcbnew,5.1.5+dfsg1-2*
G04 #@! TF.CreationDate,2020-03-03T15:33:36-06:00*
G04 #@! TF.ProjectId,daughter,64617567-6874-4657-922e-6b696361645f,1.3.1*
G04 #@! TF.SameCoordinates,Original*
G04 #@! TF.FileFunction,Soldermask,Top*
G04 #@! TF.FilePolarity,Negative*
%FSLAX46Y46*%
G04 Gerber Fmt 4.6, Leading zero omitted, Abs format (unit mm)*
G04 Created by KiCad (PCBNEW 5.1.5+dfsg1-2) date 2020-03-03 15:33:36*
%MOMM*%
%LPD*%
G04 APERTURE LIST*
%ADD10C,0.100000*%
G04 APERTURE END LIST*
D10*
G36*
X159751008Y-99742590D02*
G01*
X160246658Y-99841181D01*
X161180440Y-100227967D01*
X162020822Y-100789492D01*
X162735508Y-101504178D01*
X163297033Y-102344560D01*
X163683819Y-103278342D01*
X163683819Y-103278344D01*
X163881000Y-104269639D01*
X163881000Y-105280361D01*
X163782410Y-105776008D01*
X163683819Y-106271658D01*
X163297033Y-107205440D01*
X162735508Y-108045822D01*
X162020822Y-108760508D01*
X161180440Y-109322033D01*
X160246658Y-109708819D01*
X159751009Y-109807409D01*
X159255361Y-109906000D01*
X158244639Y-109906000D01*
X157748991Y-109807409D01*
X157253342Y-109708819D01*
X156319560Y-109322033D01*
X155479178Y-108760508D01*
X154764492Y-108045822D01*
X154202967Y-107205440D01*
X153816181Y-106271658D01*
X153717591Y-105776009D01*
X153619000Y-105280361D01*
X153619000Y-104269639D01*
X153816181Y-103278344D01*
X153816181Y-103278342D01*
X154202967Y-102344560D01*
X154764492Y-101504178D01*
X155479178Y-100789492D01*
X156319560Y-100227967D01*
X157253342Y-99841181D01*
X157748991Y-99742591D01*
X158244639Y-99644000D01*
X159255361Y-99644000D01*
X159751008Y-99742590D01*
G37*
G36*
X134351008Y-99742590D02*
G01*
X134846658Y-99841181D01*
X135780440Y-100227967D01*
X136620822Y-100789492D01*
X137335508Y-101504178D01*
X137897033Y-102344560D01*
X138283819Y-103278342D01*
X138283819Y-103278344D01*
X138481000Y-104269639D01*
X138481000Y-105280361D01*
X138382410Y-105776008D01*
X138283819Y-106271658D01*
X137897033Y-107205440D01*
X137335508Y-108045822D01*
X136620822Y-108760508D01*
X135780440Y-109322033D01*
X134846658Y-109708819D01*
X134351009Y-109807409D01*
X133855361Y-109906000D01*
X132844639Y-109906000D01*
X132348991Y-109807409D01*
X131853342Y-109708819D01*
X130919560Y-109322033D01*
X130079178Y-108760508D01*
X129364492Y-108045822D01*
X128802967Y-107205440D01*
X128416181Y-106271658D01*
X128317591Y-105776009D01*
X128219000Y-105280361D01*
X128219000Y-104269639D01*
X128416181Y-103278344D01*
X128416181Y-103278342D01*
X128802967Y-102344560D01*
X129364492Y-101504178D01*
X130079178Y-100789492D01*
X130919560Y-100227967D01*
X131853342Y-99841181D01*
X132348991Y-99742591D01*
X132844639Y-99644000D01*
X133855361Y-99644000D01*
X134351008Y-99742590D01*
G37*
G36*
X108951008Y-99742590D02*
G01*
X109446658Y-99841181D01*
X110380440Y-100227967D01*
X111220822Y-100789492D01*
X111935508Y-101504178D01*
X112497033Y-102344560D01*
X112883819Y-103278342D01*
X112883819Y-103278344D01*
X113081000Y-104269639D01*
X113081000Y-105280361D01*
X112982409Y-105776009D01*
X112883819Y-106271658D01*
X112497033Y-107205440D01*
X111935508Y-108045822D01*
X111220822Y-108760508D01*
X110380440Y-109322033D01*
X109446658Y-109708819D01*
X108951009Y-109807409D01*
X108455361Y-109906000D01*
X107444639Y-109906000D01*
X106948991Y-109807409D01*
X106453342Y-109708819D01*
X105519560Y-109322033D01*
X104679178Y-108760508D01*
X103964492Y-108045822D01*
X103402967Y-107205440D01*
X103016181Y-106271658D01*
X102917591Y-105776009D01*
X102819000Y-105280361D01*
X102819000Y-104269639D01*
X103016181Y-103278344D01*
X103016181Y-103278342D01*
X103402967Y-102344560D01*
X103964492Y-101504178D01*
X104679178Y-100789492D01*
X105519560Y-100227967D01*
X106453342Y-99841181D01*
X106948991Y-99742591D01*
X107444639Y-99644000D01*
X108455361Y-99644000D01*
X108951008Y-99742590D01*
G37*
G36*
X83551008Y-99742590D02*
G01*
X84046658Y-99841181D01*
X84980440Y-100227967D01*
X85820822Y-100789492D01*
X86535508Y-101504178D01*
X87097033Y-102344560D01*
X87483819Y-103278342D01*
X87483819Y-103278344D01*
X87681000Y-104269639D01*
X87681000Y-105280361D01*
X87582409Y-105776009D01*
X87483819Y-106271658D01*
X87097033Y-107205440D01*
X86535508Y-108045822D01*
X85820822Y-108760508D01*
X84980440Y-109322033D01*
X84046658Y-109708819D01*
X83551009Y-109807409D01*
X83055361Y-109906000D01*
X82044639Y-109906000D01*
X81548991Y-109807409D01*
X81053342Y-109708819D01*
X80119560Y-109322033D01*
X79279178Y-108760508D01*
X78564492Y-108045822D01*
X78002967Y-107205440D01*
X77616181Y-106271658D01*
X77517591Y-105776009D01*
X77419000Y-105280361D01*
X77419000Y-104269639D01*
X77616181Y-103278344D01*
X77616181Y-103278342D01*
X78002967Y-102344560D01*
X78564492Y-101504178D01*
X79279178Y-100789492D01*
X80119560Y-100227967D01*
X81053342Y-99841181D01*
X81548991Y-99742591D01*
X82044639Y-99644000D01*
X83055361Y-99644000D01*
X83551008Y-99742590D01*
G37*
G36*
X147051008Y-99742590D02*
G01*
X147546658Y-99841181D01*
X148480440Y-100227967D01*
X149320822Y-100789492D01*
X150035508Y-101504178D01*
X150597033Y-102344560D01*
X150983819Y-103278342D01*
X150983819Y-103278344D01*
X151181000Y-104269639D01*
X151181000Y-105280361D01*
X151082410Y-105776008D01*
X150983819Y-106271658D01*
X150597033Y-107205440D01*
X150035508Y-108045822D01*
X149320822Y-108760508D01*
X148480440Y-109322033D01*
X147546658Y-109708819D01*
X147051009Y-109807409D01*
X146555361Y-109906000D01*
X145544639Y-109906000D01*
X145048991Y-109807409D01*
X144553342Y-109708819D01*
X143619560Y-109322033D01*
X142779178Y-108760508D01*
X142064492Y-108045822D01*
X141502967Y-107205440D01*
X141116181Y-106271658D01*
X141017591Y-105776009D01*
X140919000Y-105280361D01*
X140919000Y-104269639D01*
X141116181Y-103278344D01*
X141116181Y-103278342D01*
X141502967Y-102344560D01*
X142064492Y-101504178D01*
X142779178Y-100789492D01*
X143619560Y-100227967D01*
X144553342Y-99841181D01*
X145048991Y-99742591D01*
X145544639Y-99644000D01*
X146555361Y-99644000D01*
X147051008Y-99742590D01*
G37*
G36*
X121651008Y-99742590D02*
G01*
X122146658Y-99841181D01*
X123080440Y-100227967D01*
X123920822Y-100789492D01*
X124635508Y-101504178D01*
X125197033Y-102344560D01*
X125583819Y-103278342D01*
X125583819Y-103278344D01*
X125781000Y-104269639D01*
X125781000Y-105280361D01*
X125682410Y-105776008D01*
X125583819Y-106271658D01*
X125197033Y-107205440D01*
X124635508Y-108045822D01*
X123920822Y-108760508D01*
X123080440Y-109322033D01*
X122146658Y-109708819D01*
X121651009Y-109807409D01*
X121155361Y-109906000D01*
X120144639Y-109906000D01*
X119648991Y-109807409D01*
X119153342Y-109708819D01*
X118219560Y-109322033D01*
X117379178Y-108760508D01*
X116664492Y-108045822D01*
X116102967Y-107205440D01*
X115716181Y-106271658D01*
X115617591Y-105776009D01*
X115519000Y-105280361D01*
X115519000Y-104269639D01*
X115716181Y-103278344D01*
X115716181Y-103278342D01*
X116102967Y-102344560D01*
X116664492Y-101504178D01*
X117379178Y-100789492D01*
X118219560Y-100227967D01*
X119153342Y-99841181D01*
X119648991Y-99742591D01*
X120144639Y-99644000D01*
X121155361Y-99644000D01*
X121651008Y-99742590D01*
G37*
G36*
X70851008Y-99742590D02*
G01*
X71346658Y-99841181D01*
X72280440Y-100227967D01*
X73120822Y-100789492D01*
X73835508Y-101504178D01*
X74397033Y-102344560D01*
X74783819Y-103278342D01*
X74783819Y-103278344D01*
X74981000Y-104269639D01*
X74981000Y-105280361D01*
X74882409Y-105776009D01*
X74783819Y-106271658D01*
X74397033Y-107205440D01*
X73835508Y-108045822D01*
X73120822Y-108760508D01*
X72280440Y-109322033D01*
X71346658Y-109708819D01*
X70851009Y-109807409D01*
X70355361Y-109906000D01*
X69344639Y-109906000D01*
X68848991Y-109807409D01*
X68353342Y-109708819D01*
X67419560Y-109322033D01*
X66579178Y-108760508D01*
X65864492Y-108045822D01*
X65302967Y-107205440D01*
X64916181Y-106271658D01*
X64817591Y-105776009D01*
X64719000Y-105280361D01*
X64719000Y-104269639D01*
X64916181Y-103278344D01*
X64916181Y-103278342D01*
X65302967Y-102344560D01*
X65864492Y-101504178D01*
X66579178Y-100789492D01*
X67419560Y-100227967D01*
X68353342Y-99841181D01*
X68848991Y-99742591D01*
X69344639Y-99644000D01*
X70355361Y-99644000D01*
X70851008Y-99742590D01*
G37*
G36*
X96251008Y-99742590D02*
G01*
X96746658Y-99841181D01*
X97680440Y-100227967D01*
X98520822Y-100789492D01*
X99235508Y-101504178D01*
X99797033Y-102344560D01*
X100183819Y-103278342D01*
X100183819Y-103278344D01*
X100381000Y-104269639D01*
X100381000Y-105280361D01*
X100282409Y-105776009D01*
X100183819Y-106271658D01*
X99797033Y-107205440D01*
X99235508Y-108045822D01*
X98520822Y-108760508D01*
X97680440Y-109322033D01*
X96746658Y-109708819D01*
X96251009Y-109807409D01*
X95755361Y-109906000D01*
X94744639Y-109906000D01*
X94248991Y-109807409D01*
X93753342Y-109708819D01*
X92819560Y-109322033D01*
X91979178Y-108760508D01*
X91264492Y-108045822D01*
X90702967Y-107205440D01*
X90316181Y-106271658D01*
X90217591Y-105776009D01*
X90119000Y-105280361D01*
X90119000Y-104269639D01*
X90316181Y-103278344D01*
X90316181Y-103278342D01*
X90702967Y-102344560D01*
X91264492Y-101504178D01*
X91979178Y-100789492D01*
X92819560Y-100227967D01*
X93753342Y-99841181D01*
X94248991Y-99742591D01*
X94744639Y-99644000D01*
X95755361Y-99644000D01*
X96251008Y-99742590D01*
G37*
G36*
X173095256Y-104436298D02*
G01*
X173201579Y-104457447D01*
X173502042Y-104581903D01*
X173772451Y-104762585D01*
X174002415Y-104992549D01*
X174002416Y-104992551D01*
X174183098Y-105262960D01*
X174307553Y-105563422D01*
X174371000Y-105882389D01*
X174371000Y-106207611D01*
X174358260Y-106271658D01*
X174307553Y-106526579D01*
X174183097Y-106827042D01*
X174002415Y-107097451D01*
X173772451Y-107327415D01*
X173502042Y-107508097D01*
X173201579Y-107632553D01*
X173095256Y-107653702D01*
X172882611Y-107696000D01*
X172557389Y-107696000D01*
X172344744Y-107653702D01*
X172238421Y-107632553D01*
X171937958Y-107508097D01*
X171667549Y-107327415D01*
X171437585Y-107097451D01*
X171256903Y-106827042D01*
X171132447Y-106526579D01*
X171081740Y-106271658D01*
X171069000Y-106207611D01*
X171069000Y-105882389D01*
X171132447Y-105563422D01*
X171256902Y-105262960D01*
X171437584Y-104992551D01*
X171437585Y-104992549D01*
X171667549Y-104762585D01*
X171937958Y-104581903D01*
X172238421Y-104457447D01*
X172344744Y-104436298D01*
X172557389Y-104394000D01*
X172882611Y-104394000D01*
X173095256Y-104436298D01*
G37*
G36*
X56255256Y-104436298D02*
G01*
X56361579Y-104457447D01*
X56662042Y-104581903D01*
X56932451Y-104762585D01*
X57162415Y-104992549D01*
X57162416Y-104992551D01*
X57343098Y-105262960D01*
X57467553Y-105563422D01*
X57531000Y-105882389D01*
X57531000Y-106207611D01*
X57518260Y-106271658D01*
X57467553Y-106526579D01*
X57343097Y-106827042D01*
X57162415Y-107097451D01*
X56932451Y-107327415D01*
X56662042Y-107508097D01*
X56361579Y-107632553D01*
X56255256Y-107653702D01*
X56042611Y-107696000D01*
X55717389Y-107696000D01*
X55504744Y-107653702D01*
X55398421Y-107632553D01*
X55097958Y-107508097D01*
X54827549Y-107327415D01*
X54597585Y-107097451D01*
X54416903Y-106827042D01*
X54292447Y-106526579D01*
X54241740Y-106271658D01*
X54229000Y-106207611D01*
X54229000Y-105882389D01*
X54292447Y-105563422D01*
X54416902Y-105262960D01*
X54597584Y-104992551D01*
X54597585Y-104992549D01*
X54827549Y-104762585D01*
X55097958Y-104581903D01*
X55398421Y-104457447D01*
X55504744Y-104436298D01*
X55717389Y-104394000D01*
X56042611Y-104394000D01*
X56255256Y-104436298D01*
G37*
G36*
X134351008Y-80692590D02*
G01*
X134846658Y-80791181D01*
X135780440Y-81177967D01*
X136620822Y-81739492D01*
X137335508Y-82454178D01*
X137897033Y-83294560D01*
X138283819Y-84228342D01*
X138481000Y-85219641D01*
X138481000Y-86230359D01*
X138283819Y-87221658D01*
X137897033Y-88155440D01*
X137335508Y-88995822D01*
X136620822Y-89710508D01*
X135780440Y-90272033D01*
X134846658Y-90658819D01*
X134351008Y-90757410D01*
X133855361Y-90856000D01*
X132844639Y-90856000D01*
X132348992Y-90757410D01*
X131853342Y-90658819D01*
X130919560Y-90272033D01*
X130079178Y-89710508D01*
X129364492Y-88995822D01*
X128802967Y-88155440D01*
X128416181Y-87221658D01*
X128219000Y-86230359D01*
X128219000Y-85219641D01*
X128416181Y-84228342D01*
X128802967Y-83294560D01*
X129364492Y-82454178D01*
X130079178Y-81739492D01*
X130919560Y-81177967D01*
X131853342Y-80791181D01*
X132348991Y-80692591D01*
X132844639Y-80594000D01*
X133855361Y-80594000D01*
X134351008Y-80692590D01*
G37*
G36*
X147051008Y-80692590D02*
G01*
X147546658Y-80791181D01*
X148480440Y-81177967D01*
X149320822Y-81739492D01*
X150035508Y-82454178D01*
X150597033Y-83294560D01*
X150983819Y-84228342D01*
X151181000Y-85219641D01*
X151181000Y-86230359D01*
X150983819Y-87221658D01*
X150597033Y-88155440D01*
X150035508Y-88995822D01*
X149320822Y-89710508D01*
X148480440Y-90272033D01*
X147546658Y-90658819D01*
X147051008Y-90757410D01*
X146555361Y-90856000D01*
X145544639Y-90856000D01*
X145048992Y-90757410D01*
X144553342Y-90658819D01*
X143619560Y-90272033D01*
X142779178Y-89710508D01*
X142064492Y-88995822D01*
X141502967Y-88155440D01*
X141116181Y-87221658D01*
X140919000Y-86230359D01*
X140919000Y-85219641D01*
X141116181Y-84228342D01*
X141502967Y-83294560D01*
X142064492Y-82454178D01*
X142779178Y-81739492D01*
X143619560Y-81177967D01*
X144553342Y-80791181D01*
X145048991Y-80692591D01*
X145544639Y-80594000D01*
X146555361Y-80594000D01*
X147051008Y-80692590D01*
G37*
G36*
X108951008Y-80692590D02*
G01*
X109446658Y-80791181D01*
X110380440Y-81177967D01*
X111220822Y-81739492D01*
X111935508Y-82454178D01*
X112497033Y-83294560D01*
X112883819Y-84228342D01*
X113081000Y-85219641D01*
X113081000Y-86230359D01*
X112883819Y-87221658D01*
X112497033Y-88155440D01*
X111935508Y-88995822D01*
X111220822Y-89710508D01*
X110380440Y-90272033D01*
X109446658Y-90658819D01*
X108951008Y-90757410D01*
X108455361Y-90856000D01*
X107444639Y-90856000D01*
X106948992Y-90757410D01*
X106453342Y-90658819D01*
X105519560Y-90272033D01*
X104679178Y-89710508D01*
X103964492Y-88995822D01*
X103402967Y-88155440D01*
X103016181Y-87221658D01*
X102819000Y-86230359D01*
X102819000Y-85219641D01*
X103016181Y-84228342D01*
X103402967Y-83294560D01*
X103964492Y-82454178D01*
X104679178Y-81739492D01*
X105519560Y-81177967D01*
X106453342Y-80791181D01*
X106948992Y-80692590D01*
X107444639Y-80594000D01*
X108455361Y-80594000D01*
X108951008Y-80692590D01*
G37*
G36*
X159751008Y-80692590D02*
G01*
X160246658Y-80791181D01*
X161180440Y-81177967D01*
X162020822Y-81739492D01*
X162735508Y-82454178D01*
X163297033Y-83294560D01*
X163683819Y-84228342D01*
X163881000Y-85219641D01*
X163881000Y-86230359D01*
X163683819Y-87221658D01*
X163297033Y-88155440D01*
X162735508Y-88995822D01*
X162020822Y-89710508D01*
X161180440Y-90272033D01*
X160246658Y-90658819D01*
X159751008Y-90757410D01*
X159255361Y-90856000D01*
X158244639Y-90856000D01*
X157748992Y-90757410D01*
X157253342Y-90658819D01*
X156319560Y-90272033D01*
X155479178Y-89710508D01*
X154764492Y-88995822D01*
X154202967Y-88155440D01*
X153816181Y-87221658D01*
X153619000Y-86230359D01*
X153619000Y-85219641D01*
X153816181Y-84228342D01*
X154202967Y-83294560D01*
X154764492Y-82454178D01*
X155479178Y-81739492D01*
X156319560Y-81177967D01*
X157253342Y-80791181D01*
X157748991Y-80692591D01*
X158244639Y-80594000D01*
X159255361Y-80594000D01*
X159751008Y-80692590D01*
G37*
G36*
X96251008Y-80692590D02*
G01*
X96746658Y-80791181D01*
X97680440Y-81177967D01*
X98520822Y-81739492D01*
X99235508Y-82454178D01*
X99797033Y-83294560D01*
X100183819Y-84228342D01*
X100381000Y-85219641D01*
X100381000Y-86230359D01*
X100183819Y-87221658D01*
X99797033Y-88155440D01*
X99235508Y-88995822D01*
X98520822Y-89710508D01*
X97680440Y-90272033D01*
X96746658Y-90658819D01*
X96251008Y-90757410D01*
X95755361Y-90856000D01*
X94744639Y-90856000D01*
X94248992Y-90757410D01*
X93753342Y-90658819D01*
X92819560Y-90272033D01*
X91979178Y-89710508D01*
X91264492Y-88995822D01*
X90702967Y-88155440D01*
X90316181Y-87221658D01*
X90119000Y-86230359D01*
X90119000Y-85219641D01*
X90316181Y-84228342D01*
X90702967Y-83294560D01*
X91264492Y-82454178D01*
X91979178Y-81739492D01*
X92819560Y-81177967D01*
X93753342Y-80791181D01*
X94248992Y-80692590D01*
X94744639Y-80594000D01*
X95755361Y-80594000D01*
X96251008Y-80692590D01*
G37*
G36*
X83551008Y-80692590D02*
G01*
X84046658Y-80791181D01*
X84980440Y-81177967D01*
X85820822Y-81739492D01*
X86535508Y-82454178D01*
X87097033Y-83294560D01*
X87483819Y-84228342D01*
X87681000Y-85219641D01*
X87681000Y-86230359D01*
X87483819Y-87221658D01*
X87097033Y-88155440D01*
X86535508Y-88995822D01*
X85820822Y-89710508D01*
X84980440Y-90272033D01*
X84046658Y-90658819D01*
X83551008Y-90757410D01*
X83055361Y-90856000D01*
X82044639Y-90856000D01*
X81548992Y-90757410D01*
X81053342Y-90658819D01*
X80119560Y-90272033D01*
X79279178Y-89710508D01*
X78564492Y-88995822D01*
X78002967Y-88155440D01*
X77616181Y-87221658D01*
X77419000Y-86230359D01*
X77419000Y-85219641D01*
X77616181Y-84228342D01*
X78002967Y-83294560D01*
X78564492Y-82454178D01*
X79279178Y-81739492D01*
X80119560Y-81177967D01*
X81053342Y-80791181D01*
X81548992Y-80692590D01*
X82044639Y-80594000D01*
X83055361Y-80594000D01*
X83551008Y-80692590D01*
G37*
G36*
X70851008Y-80692590D02*
G01*
X71346658Y-80791181D01*
X72280440Y-81177967D01*
X73120822Y-81739492D01*
X73835508Y-82454178D01*
X74397033Y-83294560D01*
X74783819Y-84228342D01*
X74981000Y-85219641D01*
X74981000Y-86230359D01*
X74783819Y-87221658D01*
X74397033Y-88155440D01*
X73835508Y-88995822D01*
X73120822Y-89710508D01*
X72280440Y-90272033D01*
X71346658Y-90658819D01*
X70851008Y-90757410D01*
X70355361Y-90856000D01*
X69344639Y-90856000D01*
X68848992Y-90757410D01*
X68353342Y-90658819D01*
X67419560Y-90272033D01*
X66579178Y-89710508D01*
X65864492Y-88995822D01*
X65302967Y-88155440D01*
X64916181Y-87221658D01*
X64719000Y-86230359D01*
X64719000Y-85219641D01*
X64916181Y-84228342D01*
X65302967Y-83294560D01*
X65864492Y-82454178D01*
X66579178Y-81739492D01*
X67419560Y-81177967D01*
X68353342Y-80791181D01*
X68848992Y-80692590D01*
X69344639Y-80594000D01*
X70355361Y-80594000D01*
X70851008Y-80692590D01*
G37*
G36*
X121651008Y-80692590D02*
G01*
X122146658Y-80791181D01*
X123080440Y-81177967D01*
X123920822Y-81739492D01*
X124635508Y-82454178D01*
X125197033Y-83294560D01*
X125583819Y-84228342D01*
X125781000Y-85219641D01*
X125781000Y-86230359D01*
X125583819Y-87221658D01*
X125197033Y-88155440D01*
X124635508Y-88995822D01*
X123920822Y-89710508D01*
X123080440Y-90272033D01*
X122146658Y-90658819D01*
X121651008Y-90757410D01*
X121155361Y-90856000D01*
X120144639Y-90856000D01*
X119648992Y-90757410D01*
X119153342Y-90658819D01*
X118219560Y-90272033D01*
X117379178Y-89710508D01*
X116664492Y-88995822D01*
X116102967Y-88155440D01*
X115716181Y-87221658D01*
X115519000Y-86230359D01*
X115519000Y-85219641D01*
X115716181Y-84228342D01*
X116102967Y-83294560D01*
X116664492Y-82454178D01*
X117379178Y-81739492D01*
X118219560Y-81177967D01*
X119153342Y-80791181D01*
X119648992Y-80692590D01*
X120144639Y-80594000D01*
X121155361Y-80594000D01*
X121651008Y-80692590D01*
G37*
G36*
X172218604Y-81373347D02*
G01*
X172255144Y-81384432D01*
X172288821Y-81402433D01*
X172318341Y-81426659D01*
X172342567Y-81456179D01*
X172360568Y-81489856D01*
X172371653Y-81526396D01*
X172376000Y-81570538D01*
X172376000Y-82519462D01*
X172371653Y-82563604D01*
X172360568Y-82600144D01*
X172342567Y-82633821D01*
X172318341Y-82663341D01*
X172288821Y-82687567D01*
X172255144Y-82705568D01*
X172218604Y-82716653D01*
X172174462Y-82721000D01*
X170725538Y-82721000D01*
X170681396Y-82716653D01*
X170644856Y-82705568D01*
X170611179Y-82687567D01*
X170581659Y-82663341D01*
X170557433Y-82633821D01*
X170539432Y-82600144D01*
X170528347Y-82563604D01*
X170524000Y-82519462D01*
X170524000Y-81570538D01*
X170528347Y-81526396D01*
X170539432Y-81489856D01*
X170557433Y-81456179D01*
X170581659Y-81426659D01*
X170611179Y-81402433D01*
X170644856Y-81384432D01*
X170681396Y-81373347D01*
X170725538Y-81369000D01*
X172174462Y-81369000D01*
X172218604Y-81373347D01*
G37*
G36*
X172218604Y-78573347D02*
G01*
X172255144Y-78584432D01*
X172288821Y-78602433D01*
X172318341Y-78626659D01*
X172342567Y-78656179D01*
X172360568Y-78689856D01*
X172371653Y-78726396D01*
X172376000Y-78770538D01*
X172376000Y-79719462D01*
X172371653Y-79763604D01*
X172360568Y-79800144D01*
X172342567Y-79833821D01*
X172318341Y-79863341D01*
X172288821Y-79887567D01*
X172255144Y-79905568D01*
X172218604Y-79916653D01*
X172174462Y-79921000D01*
X170725538Y-79921000D01*
X170681396Y-79916653D01*
X170644856Y-79905568D01*
X170611179Y-79887567D01*
X170581659Y-79863341D01*
X170557433Y-79833821D01*
X170539432Y-79800144D01*
X170528347Y-79763604D01*
X170524000Y-79719462D01*
X170524000Y-78770538D01*
X170528347Y-78726396D01*
X170539432Y-78689856D01*
X170557433Y-78656179D01*
X170581659Y-78626659D01*
X170611179Y-78602433D01*
X170644856Y-78584432D01*
X170681396Y-78573347D01*
X170725538Y-78569000D01*
X172174462Y-78569000D01*
X172218604Y-78573347D01*
G37*
G36*
X69963512Y-75303927D02*
G01*
X70112812Y-75333624D01*
X70276784Y-75401544D01*
X70424354Y-75500147D01*
X70549853Y-75625646D01*
X70648456Y-75773216D01*
X70716376Y-75937188D01*
X70751000Y-76111259D01*
X70751000Y-76288741D01*
X70716376Y-76462812D01*
X70648456Y-76626784D01*
X70549853Y-76774354D01*
X70424354Y-76899853D01*
X70276784Y-76998456D01*
X70112812Y-77066376D01*
X69963512Y-77096073D01*
X69938742Y-77101000D01*
X69761258Y-77101000D01*
X69736488Y-77096073D01*
X69587188Y-77066376D01*
X69423216Y-76998456D01*
X69275646Y-76899853D01*
X69150147Y-76774354D01*
X69051544Y-76626784D01*
X68983624Y-76462812D01*
X68949000Y-76288741D01*
X68949000Y-76111259D01*
X68983624Y-75937188D01*
X69051544Y-75773216D01*
X69150147Y-75625646D01*
X69275646Y-75500147D01*
X69423216Y-75401544D01*
X69587188Y-75333624D01*
X69736488Y-75303927D01*
X69761258Y-75299000D01*
X69938742Y-75299000D01*
X69963512Y-75303927D01*
G37*
G36*
X87743512Y-75303927D02*
G01*
X87892812Y-75333624D01*
X88056784Y-75401544D01*
X88204354Y-75500147D01*
X88329853Y-75625646D01*
X88428456Y-75773216D01*
X88496376Y-75937188D01*
X88531000Y-76111259D01*
X88531000Y-76288741D01*
X88496376Y-76462812D01*
X88428456Y-76626784D01*
X88329853Y-76774354D01*
X88204354Y-76899853D01*
X88056784Y-76998456D01*
X87892812Y-77066376D01*
X87743512Y-77096073D01*
X87718742Y-77101000D01*
X87541258Y-77101000D01*
X87516488Y-77096073D01*
X87367188Y-77066376D01*
X87203216Y-76998456D01*
X87055646Y-76899853D01*
X86930147Y-76774354D01*
X86831544Y-76626784D01*
X86763624Y-76462812D01*
X86729000Y-76288741D01*
X86729000Y-76111259D01*
X86763624Y-75937188D01*
X86831544Y-75773216D01*
X86930147Y-75625646D01*
X87055646Y-75500147D01*
X87203216Y-75401544D01*
X87367188Y-75333624D01*
X87516488Y-75303927D01*
X87541258Y-75299000D01*
X87718742Y-75299000D01*
X87743512Y-75303927D01*
G37*
G36*
X72503512Y-75303927D02*
G01*
X72652812Y-75333624D01*
X72816784Y-75401544D01*
X72964354Y-75500147D01*
X73089853Y-75625646D01*
X73188456Y-75773216D01*
X73256376Y-75937188D01*
X73291000Y-76111259D01*
X73291000Y-76288741D01*
X73256376Y-76462812D01*
X73188456Y-76626784D01*
X73089853Y-76774354D01*
X72964354Y-76899853D01*
X72816784Y-76998456D01*
X72652812Y-77066376D01*
X72503512Y-77096073D01*
X72478742Y-77101000D01*
X72301258Y-77101000D01*
X72276488Y-77096073D01*
X72127188Y-77066376D01*
X71963216Y-76998456D01*
X71815646Y-76899853D01*
X71690147Y-76774354D01*
X71591544Y-76626784D01*
X71523624Y-76462812D01*
X71489000Y-76288741D01*
X71489000Y-76111259D01*
X71523624Y-75937188D01*
X71591544Y-75773216D01*
X71690147Y-75625646D01*
X71815646Y-75500147D01*
X71963216Y-75401544D01*
X72127188Y-75333624D01*
X72276488Y-75303927D01*
X72301258Y-75299000D01*
X72478742Y-75299000D01*
X72503512Y-75303927D01*
G37*
G36*
X75043512Y-75303927D02*
G01*
X75192812Y-75333624D01*
X75356784Y-75401544D01*
X75504354Y-75500147D01*
X75629853Y-75625646D01*
X75728456Y-75773216D01*
X75796376Y-75937188D01*
X75831000Y-76111259D01*
X75831000Y-76288741D01*
X75796376Y-76462812D01*
X75728456Y-76626784D01*
X75629853Y-76774354D01*
X75504354Y-76899853D01*
X75356784Y-76998456D01*
X75192812Y-77066376D01*
X75043512Y-77096073D01*
X75018742Y-77101000D01*
X74841258Y-77101000D01*
X74816488Y-77096073D01*
X74667188Y-77066376D01*
X74503216Y-76998456D01*
X74355646Y-76899853D01*
X74230147Y-76774354D01*
X74131544Y-76626784D01*
X74063624Y-76462812D01*
X74029000Y-76288741D01*
X74029000Y-76111259D01*
X74063624Y-75937188D01*
X74131544Y-75773216D01*
X74230147Y-75625646D01*
X74355646Y-75500147D01*
X74503216Y-75401544D01*
X74667188Y-75333624D01*
X74816488Y-75303927D01*
X74841258Y-75299000D01*
X75018742Y-75299000D01*
X75043512Y-75303927D01*
G37*
G36*
X77583512Y-75303927D02*
G01*
X77732812Y-75333624D01*
X77896784Y-75401544D01*
X78044354Y-75500147D01*
X78169853Y-75625646D01*
X78268456Y-75773216D01*
X78336376Y-75937188D01*
X78371000Y-76111259D01*
X78371000Y-76288741D01*
X78336376Y-76462812D01*
X78268456Y-76626784D01*
X78169853Y-76774354D01*
X78044354Y-76899853D01*
X77896784Y-76998456D01*
X77732812Y-77066376D01*
X77583512Y-77096073D01*
X77558742Y-77101000D01*
X77381258Y-77101000D01*
X77356488Y-77096073D01*
X77207188Y-77066376D01*
X77043216Y-76998456D01*
X76895646Y-76899853D01*
X76770147Y-76774354D01*
X76671544Y-76626784D01*
X76603624Y-76462812D01*
X76569000Y-76288741D01*
X76569000Y-76111259D01*
X76603624Y-75937188D01*
X76671544Y-75773216D01*
X76770147Y-75625646D01*
X76895646Y-75500147D01*
X77043216Y-75401544D01*
X77207188Y-75333624D01*
X77356488Y-75303927D01*
X77381258Y-75299000D01*
X77558742Y-75299000D01*
X77583512Y-75303927D01*
G37*
G36*
X80123512Y-75303927D02*
G01*
X80272812Y-75333624D01*
X80436784Y-75401544D01*
X80584354Y-75500147D01*
X80709853Y-75625646D01*
X80808456Y-75773216D01*
X80876376Y-75937188D01*
X80911000Y-76111259D01*
X80911000Y-76288741D01*
X80876376Y-76462812D01*
X80808456Y-76626784D01*
X80709853Y-76774354D01*
X80584354Y-76899853D01*
X80436784Y-76998456D01*
X80272812Y-77066376D01*
X80123512Y-77096073D01*
X80098742Y-77101000D01*
X79921258Y-77101000D01*
X79896488Y-77096073D01*
X79747188Y-77066376D01*
X79583216Y-76998456D01*
X79435646Y-76899853D01*
X79310147Y-76774354D01*
X79211544Y-76626784D01*
X79143624Y-76462812D01*
X79109000Y-76288741D01*
X79109000Y-76111259D01*
X79143624Y-75937188D01*
X79211544Y-75773216D01*
X79310147Y-75625646D01*
X79435646Y-75500147D01*
X79583216Y-75401544D01*
X79747188Y-75333624D01*
X79896488Y-75303927D01*
X79921258Y-75299000D01*
X80098742Y-75299000D01*
X80123512Y-75303927D01*
G37*
G36*
X82663512Y-75303927D02*
G01*
X82812812Y-75333624D01*
X82976784Y-75401544D01*
X83124354Y-75500147D01*
X83249853Y-75625646D01*
X83348456Y-75773216D01*
X83416376Y-75937188D01*
X83451000Y-76111259D01*
X83451000Y-76288741D01*
X83416376Y-76462812D01*
X83348456Y-76626784D01*
X83249853Y-76774354D01*
X83124354Y-76899853D01*
X82976784Y-76998456D01*
X82812812Y-77066376D01*
X82663512Y-77096073D01*
X82638742Y-77101000D01*
X82461258Y-77101000D01*
X82436488Y-77096073D01*
X82287188Y-77066376D01*
X82123216Y-76998456D01*
X81975646Y-76899853D01*
X81850147Y-76774354D01*
X81751544Y-76626784D01*
X81683624Y-76462812D01*
X81649000Y-76288741D01*
X81649000Y-76111259D01*
X81683624Y-75937188D01*
X81751544Y-75773216D01*
X81850147Y-75625646D01*
X81975646Y-75500147D01*
X82123216Y-75401544D01*
X82287188Y-75333624D01*
X82436488Y-75303927D01*
X82461258Y-75299000D01*
X82638742Y-75299000D01*
X82663512Y-75303927D01*
G37*
G36*
X85203512Y-75303927D02*
G01*
X85352812Y-75333624D01*
X85516784Y-75401544D01*
X85664354Y-75500147D01*
X85789853Y-75625646D01*
X85888456Y-75773216D01*
X85956376Y-75937188D01*
X85991000Y-76111259D01*
X85991000Y-76288741D01*
X85956376Y-76462812D01*
X85888456Y-76626784D01*
X85789853Y-76774354D01*
X85664354Y-76899853D01*
X85516784Y-76998456D01*
X85352812Y-77066376D01*
X85203512Y-77096073D01*
X85178742Y-77101000D01*
X85001258Y-77101000D01*
X84976488Y-77096073D01*
X84827188Y-77066376D01*
X84663216Y-76998456D01*
X84515646Y-76899853D01*
X84390147Y-76774354D01*
X84291544Y-76626784D01*
X84223624Y-76462812D01*
X84189000Y-76288741D01*
X84189000Y-76111259D01*
X84223624Y-75937188D01*
X84291544Y-75773216D01*
X84390147Y-75625646D01*
X84515646Y-75500147D01*
X84663216Y-75401544D01*
X84827188Y-75333624D01*
X84976488Y-75303927D01*
X85001258Y-75299000D01*
X85178742Y-75299000D01*
X85203512Y-75303927D01*
G37*
G36*
X90283512Y-75303927D02*
G01*
X90432812Y-75333624D01*
X90596784Y-75401544D01*
X90744354Y-75500147D01*
X90869853Y-75625646D01*
X90968456Y-75773216D01*
X91036376Y-75937188D01*
X91071000Y-76111259D01*
X91071000Y-76288741D01*
X91036376Y-76462812D01*
X90968456Y-76626784D01*
X90869853Y-76774354D01*
X90744354Y-76899853D01*
X90596784Y-76998456D01*
X90432812Y-77066376D01*
X90283512Y-77096073D01*
X90258742Y-77101000D01*
X90081258Y-77101000D01*
X90056488Y-77096073D01*
X89907188Y-77066376D01*
X89743216Y-76998456D01*
X89595646Y-76899853D01*
X89470147Y-76774354D01*
X89371544Y-76626784D01*
X89303624Y-76462812D01*
X89269000Y-76288741D01*
X89269000Y-76111259D01*
X89303624Y-75937188D01*
X89371544Y-75773216D01*
X89470147Y-75625646D01*
X89595646Y-75500147D01*
X89743216Y-75401544D01*
X89907188Y-75333624D01*
X90056488Y-75303927D01*
X90081258Y-75299000D01*
X90258742Y-75299000D01*
X90283512Y-75303927D01*
G37*
G36*
X92823512Y-75303927D02*
G01*
X92972812Y-75333624D01*
X93136784Y-75401544D01*
X93284354Y-75500147D01*
X93409853Y-75625646D01*
X93508456Y-75773216D01*
X93576376Y-75937188D01*
X93611000Y-76111259D01*
X93611000Y-76288741D01*
X93576376Y-76462812D01*
X93508456Y-76626784D01*
X93409853Y-76774354D01*
X93284354Y-76899853D01*
X93136784Y-76998456D01*
X92972812Y-77066376D01*
X92823512Y-77096073D01*
X92798742Y-77101000D01*
X92621258Y-77101000D01*
X92596488Y-77096073D01*
X92447188Y-77066376D01*
X92283216Y-76998456D01*
X92135646Y-76899853D01*
X92010147Y-76774354D01*
X91911544Y-76626784D01*
X91843624Y-76462812D01*
X91809000Y-76288741D01*
X91809000Y-76111259D01*
X91843624Y-75937188D01*
X91911544Y-75773216D01*
X92010147Y-75625646D01*
X92135646Y-75500147D01*
X92283216Y-75401544D01*
X92447188Y-75333624D01*
X92596488Y-75303927D01*
X92621258Y-75299000D01*
X92798742Y-75299000D01*
X92823512Y-75303927D01*
G37*
G36*
X95363512Y-75303927D02*
G01*
X95512812Y-75333624D01*
X95676784Y-75401544D01*
X95824354Y-75500147D01*
X95949853Y-75625646D01*
X96048456Y-75773216D01*
X96116376Y-75937188D01*
X96151000Y-76111259D01*
X96151000Y-76288741D01*
X96116376Y-76462812D01*
X96048456Y-76626784D01*
X95949853Y-76774354D01*
X95824354Y-76899853D01*
X95676784Y-76998456D01*
X95512812Y-77066376D01*
X95363512Y-77096073D01*
X95338742Y-77101000D01*
X95161258Y-77101000D01*
X95136488Y-77096073D01*
X94987188Y-77066376D01*
X94823216Y-76998456D01*
X94675646Y-76899853D01*
X94550147Y-76774354D01*
X94451544Y-76626784D01*
X94383624Y-76462812D01*
X94349000Y-76288741D01*
X94349000Y-76111259D01*
X94383624Y-75937188D01*
X94451544Y-75773216D01*
X94550147Y-75625646D01*
X94675646Y-75500147D01*
X94823216Y-75401544D01*
X94987188Y-75333624D01*
X95136488Y-75303927D01*
X95161258Y-75299000D01*
X95338742Y-75299000D01*
X95363512Y-75303927D01*
G37*
G36*
X97903512Y-75303927D02*
G01*
X98052812Y-75333624D01*
X98216784Y-75401544D01*
X98364354Y-75500147D01*
X98489853Y-75625646D01*
X98588456Y-75773216D01*
X98656376Y-75937188D01*
X98691000Y-76111259D01*
X98691000Y-76288741D01*
X98656376Y-76462812D01*
X98588456Y-76626784D01*
X98489853Y-76774354D01*
X98364354Y-76899853D01*
X98216784Y-76998456D01*
X98052812Y-77066376D01*
X97903512Y-77096073D01*
X97878742Y-77101000D01*
X97701258Y-77101000D01*
X97676488Y-77096073D01*
X97527188Y-77066376D01*
X97363216Y-76998456D01*
X97215646Y-76899853D01*
X97090147Y-76774354D01*
X96991544Y-76626784D01*
X96923624Y-76462812D01*
X96889000Y-76288741D01*
X96889000Y-76111259D01*
X96923624Y-75937188D01*
X96991544Y-75773216D01*
X97090147Y-75625646D01*
X97215646Y-75500147D01*
X97363216Y-75401544D01*
X97527188Y-75333624D01*
X97676488Y-75303927D01*
X97701258Y-75299000D01*
X97878742Y-75299000D01*
X97903512Y-75303927D01*
G37*
G36*
X110603512Y-75303927D02*
G01*
X110752812Y-75333624D01*
X110916784Y-75401544D01*
X111064354Y-75500147D01*
X111189853Y-75625646D01*
X111288456Y-75773216D01*
X111356376Y-75937188D01*
X111391000Y-76111259D01*
X111391000Y-76288741D01*
X111356376Y-76462812D01*
X111288456Y-76626784D01*
X111189853Y-76774354D01*
X111064354Y-76899853D01*
X110916784Y-76998456D01*
X110752812Y-77066376D01*
X110603512Y-77096073D01*
X110578742Y-77101000D01*
X110401258Y-77101000D01*
X110376488Y-77096073D01*
X110227188Y-77066376D01*
X110063216Y-76998456D01*
X109915646Y-76899853D01*
X109790147Y-76774354D01*
X109691544Y-76626784D01*
X109623624Y-76462812D01*
X109589000Y-76288741D01*
X109589000Y-76111259D01*
X109623624Y-75937188D01*
X109691544Y-75773216D01*
X109790147Y-75625646D01*
X109915646Y-75500147D01*
X110063216Y-75401544D01*
X110227188Y-75333624D01*
X110376488Y-75303927D01*
X110401258Y-75299000D01*
X110578742Y-75299000D01*
X110603512Y-75303927D01*
G37*
G36*
X102983512Y-75303927D02*
G01*
X103132812Y-75333624D01*
X103296784Y-75401544D01*
X103444354Y-75500147D01*
X103569853Y-75625646D01*
X103668456Y-75773216D01*
X103736376Y-75937188D01*
X103771000Y-76111259D01*
X103771000Y-76288741D01*
X103736376Y-76462812D01*
X103668456Y-76626784D01*
X103569853Y-76774354D01*
X103444354Y-76899853D01*
X103296784Y-76998456D01*
X103132812Y-77066376D01*
X102983512Y-77096073D01*
X102958742Y-77101000D01*
X102781258Y-77101000D01*
X102756488Y-77096073D01*
X102607188Y-77066376D01*
X102443216Y-76998456D01*
X102295646Y-76899853D01*
X102170147Y-76774354D01*
X102071544Y-76626784D01*
X102003624Y-76462812D01*
X101969000Y-76288741D01*
X101969000Y-76111259D01*
X102003624Y-75937188D01*
X102071544Y-75773216D01*
X102170147Y-75625646D01*
X102295646Y-75500147D01*
X102443216Y-75401544D01*
X102607188Y-75333624D01*
X102756488Y-75303927D01*
X102781258Y-75299000D01*
X102958742Y-75299000D01*
X102983512Y-75303927D01*
G37*
G36*
X105523512Y-75303927D02*
G01*
X105672812Y-75333624D01*
X105836784Y-75401544D01*
X105984354Y-75500147D01*
X106109853Y-75625646D01*
X106208456Y-75773216D01*
X106276376Y-75937188D01*
X106311000Y-76111259D01*
X106311000Y-76288741D01*
X106276376Y-76462812D01*
X106208456Y-76626784D01*
X106109853Y-76774354D01*
X105984354Y-76899853D01*
X105836784Y-76998456D01*
X105672812Y-77066376D01*
X105523512Y-77096073D01*
X105498742Y-77101000D01*
X105321258Y-77101000D01*
X105296488Y-77096073D01*
X105147188Y-77066376D01*
X104983216Y-76998456D01*
X104835646Y-76899853D01*
X104710147Y-76774354D01*
X104611544Y-76626784D01*
X104543624Y-76462812D01*
X104509000Y-76288741D01*
X104509000Y-76111259D01*
X104543624Y-75937188D01*
X104611544Y-75773216D01*
X104710147Y-75625646D01*
X104835646Y-75500147D01*
X104983216Y-75401544D01*
X105147188Y-75333624D01*
X105296488Y-75303927D01*
X105321258Y-75299000D01*
X105498742Y-75299000D01*
X105523512Y-75303927D01*
G37*
G36*
X108063512Y-75303927D02*
G01*
X108212812Y-75333624D01*
X108376784Y-75401544D01*
X108524354Y-75500147D01*
X108649853Y-75625646D01*
X108748456Y-75773216D01*
X108816376Y-75937188D01*
X108851000Y-76111259D01*
X108851000Y-76288741D01*
X108816376Y-76462812D01*
X108748456Y-76626784D01*
X108649853Y-76774354D01*
X108524354Y-76899853D01*
X108376784Y-76998456D01*
X108212812Y-77066376D01*
X108063512Y-77096073D01*
X108038742Y-77101000D01*
X107861258Y-77101000D01*
X107836488Y-77096073D01*
X107687188Y-77066376D01*
X107523216Y-76998456D01*
X107375646Y-76899853D01*
X107250147Y-76774354D01*
X107151544Y-76626784D01*
X107083624Y-76462812D01*
X107049000Y-76288741D01*
X107049000Y-76111259D01*
X107083624Y-75937188D01*
X107151544Y-75773216D01*
X107250147Y-75625646D01*
X107375646Y-75500147D01*
X107523216Y-75401544D01*
X107687188Y-75333624D01*
X107836488Y-75303927D01*
X107861258Y-75299000D01*
X108038742Y-75299000D01*
X108063512Y-75303927D01*
G37*
G36*
X113143512Y-75303927D02*
G01*
X113292812Y-75333624D01*
X113456784Y-75401544D01*
X113604354Y-75500147D01*
X113729853Y-75625646D01*
X113828456Y-75773216D01*
X113896376Y-75937188D01*
X113931000Y-76111259D01*
X113931000Y-76288741D01*
X113896376Y-76462812D01*
X113828456Y-76626784D01*
X113729853Y-76774354D01*
X113604354Y-76899853D01*
X113456784Y-76998456D01*
X113292812Y-77066376D01*
X113143512Y-77096073D01*
X113118742Y-77101000D01*
X112941258Y-77101000D01*
X112916488Y-77096073D01*
X112767188Y-77066376D01*
X112603216Y-76998456D01*
X112455646Y-76899853D01*
X112330147Y-76774354D01*
X112231544Y-76626784D01*
X112163624Y-76462812D01*
X112129000Y-76288741D01*
X112129000Y-76111259D01*
X112163624Y-75937188D01*
X112231544Y-75773216D01*
X112330147Y-75625646D01*
X112455646Y-75500147D01*
X112603216Y-75401544D01*
X112767188Y-75333624D01*
X112916488Y-75303927D01*
X112941258Y-75299000D01*
X113118742Y-75299000D01*
X113143512Y-75303927D01*
G37*
G36*
X115683512Y-75303927D02*
G01*
X115832812Y-75333624D01*
X115996784Y-75401544D01*
X116144354Y-75500147D01*
X116269853Y-75625646D01*
X116368456Y-75773216D01*
X116436376Y-75937188D01*
X116471000Y-76111259D01*
X116471000Y-76288741D01*
X116436376Y-76462812D01*
X116368456Y-76626784D01*
X116269853Y-76774354D01*
X116144354Y-76899853D01*
X115996784Y-76998456D01*
X115832812Y-77066376D01*
X115683512Y-77096073D01*
X115658742Y-77101000D01*
X115481258Y-77101000D01*
X115456488Y-77096073D01*
X115307188Y-77066376D01*
X115143216Y-76998456D01*
X114995646Y-76899853D01*
X114870147Y-76774354D01*
X114771544Y-76626784D01*
X114703624Y-76462812D01*
X114669000Y-76288741D01*
X114669000Y-76111259D01*
X114703624Y-75937188D01*
X114771544Y-75773216D01*
X114870147Y-75625646D01*
X114995646Y-75500147D01*
X115143216Y-75401544D01*
X115307188Y-75333624D01*
X115456488Y-75303927D01*
X115481258Y-75299000D01*
X115658742Y-75299000D01*
X115683512Y-75303927D01*
G37*
G36*
X118223512Y-75303927D02*
G01*
X118372812Y-75333624D01*
X118536784Y-75401544D01*
X118684354Y-75500147D01*
X118809853Y-75625646D01*
X118908456Y-75773216D01*
X118976376Y-75937188D01*
X119011000Y-76111259D01*
X119011000Y-76288741D01*
X118976376Y-76462812D01*
X118908456Y-76626784D01*
X118809853Y-76774354D01*
X118684354Y-76899853D01*
X118536784Y-76998456D01*
X118372812Y-77066376D01*
X118223512Y-77096073D01*
X118198742Y-77101000D01*
X118021258Y-77101000D01*
X117996488Y-77096073D01*
X117847188Y-77066376D01*
X117683216Y-76998456D01*
X117535646Y-76899853D01*
X117410147Y-76774354D01*
X117311544Y-76626784D01*
X117243624Y-76462812D01*
X117209000Y-76288741D01*
X117209000Y-76111259D01*
X117243624Y-75937188D01*
X117311544Y-75773216D01*
X117410147Y-75625646D01*
X117535646Y-75500147D01*
X117683216Y-75401544D01*
X117847188Y-75333624D01*
X117996488Y-75303927D01*
X118021258Y-75299000D01*
X118198742Y-75299000D01*
X118223512Y-75303927D01*
G37*
G36*
X120763512Y-75303927D02*
G01*
X120912812Y-75333624D01*
X121076784Y-75401544D01*
X121224354Y-75500147D01*
X121349853Y-75625646D01*
X121448456Y-75773216D01*
X121516376Y-75937188D01*
X121551000Y-76111259D01*
X121551000Y-76288741D01*
X121516376Y-76462812D01*
X121448456Y-76626784D01*
X121349853Y-76774354D01*
X121224354Y-76899853D01*
X121076784Y-76998456D01*
X120912812Y-77066376D01*
X120763512Y-77096073D01*
X120738742Y-77101000D01*
X120561258Y-77101000D01*
X120536488Y-77096073D01*
X120387188Y-77066376D01*
X120223216Y-76998456D01*
X120075646Y-76899853D01*
X119950147Y-76774354D01*
X119851544Y-76626784D01*
X119783624Y-76462812D01*
X119749000Y-76288741D01*
X119749000Y-76111259D01*
X119783624Y-75937188D01*
X119851544Y-75773216D01*
X119950147Y-75625646D01*
X120075646Y-75500147D01*
X120223216Y-75401544D01*
X120387188Y-75333624D01*
X120536488Y-75303927D01*
X120561258Y-75299000D01*
X120738742Y-75299000D01*
X120763512Y-75303927D01*
G37*
G36*
X65671000Y-77101000D02*
G01*
X63869000Y-77101000D01*
X63869000Y-75299000D01*
X65671000Y-75299000D01*
X65671000Y-77101000D01*
G37*
G36*
X67423512Y-75303927D02*
G01*
X67572812Y-75333624D01*
X67736784Y-75401544D01*
X67884354Y-75500147D01*
X68009853Y-75625646D01*
X68108456Y-75773216D01*
X68176376Y-75937188D01*
X68211000Y-76111259D01*
X68211000Y-76288741D01*
X68176376Y-76462812D01*
X68108456Y-76626784D01*
X68009853Y-76774354D01*
X67884354Y-76899853D01*
X67736784Y-76998456D01*
X67572812Y-77066376D01*
X67423512Y-77096073D01*
X67398742Y-77101000D01*
X67221258Y-77101000D01*
X67196488Y-77096073D01*
X67047188Y-77066376D01*
X66883216Y-76998456D01*
X66735646Y-76899853D01*
X66610147Y-76774354D01*
X66511544Y-76626784D01*
X66443624Y-76462812D01*
X66409000Y-76288741D01*
X66409000Y-76111259D01*
X66443624Y-75937188D01*
X66511544Y-75773216D01*
X66610147Y-75625646D01*
X66735646Y-75500147D01*
X66883216Y-75401544D01*
X67047188Y-75333624D01*
X67196488Y-75303927D01*
X67221258Y-75299000D01*
X67398742Y-75299000D01*
X67423512Y-75303927D01*
G37*
G36*
X156323512Y-75303927D02*
G01*
X156472812Y-75333624D01*
X156636784Y-75401544D01*
X156784354Y-75500147D01*
X156909853Y-75625646D01*
X157008456Y-75773216D01*
X157076376Y-75937188D01*
X157111000Y-76111259D01*
X157111000Y-76288741D01*
X157076376Y-76462812D01*
X157008456Y-76626784D01*
X156909853Y-76774354D01*
X156784354Y-76899853D01*
X156636784Y-76998456D01*
X156472812Y-77066376D01*
X156323512Y-77096073D01*
X156298742Y-77101000D01*
X156121258Y-77101000D01*
X156096488Y-77096073D01*
X155947188Y-77066376D01*
X155783216Y-76998456D01*
X155635646Y-76899853D01*
X155510147Y-76774354D01*
X155411544Y-76626784D01*
X155343624Y-76462812D01*
X155309000Y-76288741D01*
X155309000Y-76111259D01*
X155343624Y-75937188D01*
X155411544Y-75773216D01*
X155510147Y-75625646D01*
X155635646Y-75500147D01*
X155783216Y-75401544D01*
X155947188Y-75333624D01*
X156096488Y-75303927D01*
X156121258Y-75299000D01*
X156298742Y-75299000D01*
X156323512Y-75303927D01*
G37*
G36*
X138543512Y-75303927D02*
G01*
X138692812Y-75333624D01*
X138856784Y-75401544D01*
X139004354Y-75500147D01*
X139129853Y-75625646D01*
X139228456Y-75773216D01*
X139296376Y-75937188D01*
X139331000Y-76111259D01*
X139331000Y-76288741D01*
X139296376Y-76462812D01*
X139228456Y-76626784D01*
X139129853Y-76774354D01*
X139004354Y-76899853D01*
X138856784Y-76998456D01*
X138692812Y-77066376D01*
X138543512Y-77096073D01*
X138518742Y-77101000D01*
X138341258Y-77101000D01*
X138316488Y-77096073D01*
X138167188Y-77066376D01*
X138003216Y-76998456D01*
X137855646Y-76899853D01*
X137730147Y-76774354D01*
X137631544Y-76626784D01*
X137563624Y-76462812D01*
X137529000Y-76288741D01*
X137529000Y-76111259D01*
X137563624Y-75937188D01*
X137631544Y-75773216D01*
X137730147Y-75625646D01*
X137855646Y-75500147D01*
X138003216Y-75401544D01*
X138167188Y-75333624D01*
X138316488Y-75303927D01*
X138341258Y-75299000D01*
X138518742Y-75299000D01*
X138543512Y-75303927D01*
G37*
G36*
X141083512Y-75303927D02*
G01*
X141232812Y-75333624D01*
X141396784Y-75401544D01*
X141544354Y-75500147D01*
X141669853Y-75625646D01*
X141768456Y-75773216D01*
X141836376Y-75937188D01*
X141871000Y-76111259D01*
X141871000Y-76288741D01*
X141836376Y-76462812D01*
X141768456Y-76626784D01*
X141669853Y-76774354D01*
X141544354Y-76899853D01*
X141396784Y-76998456D01*
X141232812Y-77066376D01*
X141083512Y-77096073D01*
X141058742Y-77101000D01*
X140881258Y-77101000D01*
X140856488Y-77096073D01*
X140707188Y-77066376D01*
X140543216Y-76998456D01*
X140395646Y-76899853D01*
X140270147Y-76774354D01*
X140171544Y-76626784D01*
X140103624Y-76462812D01*
X140069000Y-76288741D01*
X140069000Y-76111259D01*
X140103624Y-75937188D01*
X140171544Y-75773216D01*
X140270147Y-75625646D01*
X140395646Y-75500147D01*
X140543216Y-75401544D01*
X140707188Y-75333624D01*
X140856488Y-75303927D01*
X140881258Y-75299000D01*
X141058742Y-75299000D01*
X141083512Y-75303927D01*
G37*
G36*
X143623512Y-75303927D02*
G01*
X143772812Y-75333624D01*
X143936784Y-75401544D01*
X144084354Y-75500147D01*
X144209853Y-75625646D01*
X144308456Y-75773216D01*
X144376376Y-75937188D01*
X144411000Y-76111259D01*
X144411000Y-76288741D01*
X144376376Y-76462812D01*
X144308456Y-76626784D01*
X144209853Y-76774354D01*
X144084354Y-76899853D01*
X143936784Y-76998456D01*
X143772812Y-77066376D01*
X143623512Y-77096073D01*
X143598742Y-77101000D01*
X143421258Y-77101000D01*
X143396488Y-77096073D01*
X143247188Y-77066376D01*
X143083216Y-76998456D01*
X142935646Y-76899853D01*
X142810147Y-76774354D01*
X142711544Y-76626784D01*
X142643624Y-76462812D01*
X142609000Y-76288741D01*
X142609000Y-76111259D01*
X142643624Y-75937188D01*
X142711544Y-75773216D01*
X142810147Y-75625646D01*
X142935646Y-75500147D01*
X143083216Y-75401544D01*
X143247188Y-75333624D01*
X143396488Y-75303927D01*
X143421258Y-75299000D01*
X143598742Y-75299000D01*
X143623512Y-75303927D01*
G37*
G36*
X146163512Y-75303927D02*
G01*
X146312812Y-75333624D01*
X146476784Y-75401544D01*
X146624354Y-75500147D01*
X146749853Y-75625646D01*
X146848456Y-75773216D01*
X146916376Y-75937188D01*
X146951000Y-76111259D01*
X146951000Y-76288741D01*
X146916376Y-76462812D01*
X146848456Y-76626784D01*
X146749853Y-76774354D01*
X146624354Y-76899853D01*
X146476784Y-76998456D01*
X146312812Y-77066376D01*
X146163512Y-77096073D01*
X146138742Y-77101000D01*
X145961258Y-77101000D01*
X145936488Y-77096073D01*
X145787188Y-77066376D01*
X145623216Y-76998456D01*
X145475646Y-76899853D01*
X145350147Y-76774354D01*
X145251544Y-76626784D01*
X145183624Y-76462812D01*
X145149000Y-76288741D01*
X145149000Y-76111259D01*
X145183624Y-75937188D01*
X145251544Y-75773216D01*
X145350147Y-75625646D01*
X145475646Y-75500147D01*
X145623216Y-75401544D01*
X145787188Y-75333624D01*
X145936488Y-75303927D01*
X145961258Y-75299000D01*
X146138742Y-75299000D01*
X146163512Y-75303927D01*
G37*
G36*
X148703512Y-75303927D02*
G01*
X148852812Y-75333624D01*
X149016784Y-75401544D01*
X149164354Y-75500147D01*
X149289853Y-75625646D01*
X149388456Y-75773216D01*
X149456376Y-75937188D01*
X149491000Y-76111259D01*
X149491000Y-76288741D01*
X149456376Y-76462812D01*
X149388456Y-76626784D01*
X149289853Y-76774354D01*
X149164354Y-76899853D01*
X149016784Y-76998456D01*
X148852812Y-77066376D01*
X148703512Y-77096073D01*
X148678742Y-77101000D01*
X148501258Y-77101000D01*
X148476488Y-77096073D01*
X148327188Y-77066376D01*
X148163216Y-76998456D01*
X148015646Y-76899853D01*
X147890147Y-76774354D01*
X147791544Y-76626784D01*
X147723624Y-76462812D01*
X147689000Y-76288741D01*
X147689000Y-76111259D01*
X147723624Y-75937188D01*
X147791544Y-75773216D01*
X147890147Y-75625646D01*
X148015646Y-75500147D01*
X148163216Y-75401544D01*
X148327188Y-75333624D01*
X148476488Y-75303927D01*
X148501258Y-75299000D01*
X148678742Y-75299000D01*
X148703512Y-75303927D01*
G37*
G36*
X151243512Y-75303927D02*
G01*
X151392812Y-75333624D01*
X151556784Y-75401544D01*
X151704354Y-75500147D01*
X151829853Y-75625646D01*
X151928456Y-75773216D01*
X151996376Y-75937188D01*
X152031000Y-76111259D01*
X152031000Y-76288741D01*
X151996376Y-76462812D01*
X151928456Y-76626784D01*
X151829853Y-76774354D01*
X151704354Y-76899853D01*
X151556784Y-76998456D01*
X151392812Y-77066376D01*
X151243512Y-77096073D01*
X151218742Y-77101000D01*
X151041258Y-77101000D01*
X151016488Y-77096073D01*
X150867188Y-77066376D01*
X150703216Y-76998456D01*
X150555646Y-76899853D01*
X150430147Y-76774354D01*
X150331544Y-76626784D01*
X150263624Y-76462812D01*
X150229000Y-76288741D01*
X150229000Y-76111259D01*
X150263624Y-75937188D01*
X150331544Y-75773216D01*
X150430147Y-75625646D01*
X150555646Y-75500147D01*
X150703216Y-75401544D01*
X150867188Y-75333624D01*
X151016488Y-75303927D01*
X151041258Y-75299000D01*
X151218742Y-75299000D01*
X151243512Y-75303927D01*
G37*
G36*
X153783512Y-75303927D02*
G01*
X153932812Y-75333624D01*
X154096784Y-75401544D01*
X154244354Y-75500147D01*
X154369853Y-75625646D01*
X154468456Y-75773216D01*
X154536376Y-75937188D01*
X154571000Y-76111259D01*
X154571000Y-76288741D01*
X154536376Y-76462812D01*
X154468456Y-76626784D01*
X154369853Y-76774354D01*
X154244354Y-76899853D01*
X154096784Y-76998456D01*
X153932812Y-77066376D01*
X153783512Y-77096073D01*
X153758742Y-77101000D01*
X153581258Y-77101000D01*
X153556488Y-77096073D01*
X153407188Y-77066376D01*
X153243216Y-76998456D01*
X153095646Y-76899853D01*
X152970147Y-76774354D01*
X152871544Y-76626784D01*
X152803624Y-76462812D01*
X152769000Y-76288741D01*
X152769000Y-76111259D01*
X152803624Y-75937188D01*
X152871544Y-75773216D01*
X152970147Y-75625646D01*
X153095646Y-75500147D01*
X153243216Y-75401544D01*
X153407188Y-75333624D01*
X153556488Y-75303927D01*
X153581258Y-75299000D01*
X153758742Y-75299000D01*
X153783512Y-75303927D01*
G37*
G36*
X158863512Y-75303927D02*
G01*
X159012812Y-75333624D01*
X159176784Y-75401544D01*
X159324354Y-75500147D01*
X159449853Y-75625646D01*
X159548456Y-75773216D01*
X159616376Y-75937188D01*
X159651000Y-76111259D01*
X159651000Y-76288741D01*
X159616376Y-76462812D01*
X159548456Y-76626784D01*
X159449853Y-76774354D01*
X159324354Y-76899853D01*
X159176784Y-76998456D01*
X159012812Y-77066376D01*
X158863512Y-77096073D01*
X158838742Y-77101000D01*
X158661258Y-77101000D01*
X158636488Y-77096073D01*
X158487188Y-77066376D01*
X158323216Y-76998456D01*
X158175646Y-76899853D01*
X158050147Y-76774354D01*
X157951544Y-76626784D01*
X157883624Y-76462812D01*
X157849000Y-76288741D01*
X157849000Y-76111259D01*
X157883624Y-75937188D01*
X157951544Y-75773216D01*
X158050147Y-75625646D01*
X158175646Y-75500147D01*
X158323216Y-75401544D01*
X158487188Y-75333624D01*
X158636488Y-75303927D01*
X158661258Y-75299000D01*
X158838742Y-75299000D01*
X158863512Y-75303927D01*
G37*
G36*
X163943512Y-75303927D02*
G01*
X164092812Y-75333624D01*
X164256784Y-75401544D01*
X164404354Y-75500147D01*
X164529853Y-75625646D01*
X164628456Y-75773216D01*
X164696376Y-75937188D01*
X164731000Y-76111259D01*
X164731000Y-76288741D01*
X164696376Y-76462812D01*
X164628456Y-76626784D01*
X164529853Y-76774354D01*
X164404354Y-76899853D01*
X164256784Y-76998456D01*
X164092812Y-77066376D01*
X163943512Y-77096073D01*
X163918742Y-77101000D01*
X163741258Y-77101000D01*
X163716488Y-77096073D01*
X163567188Y-77066376D01*
X163403216Y-76998456D01*
X163255646Y-76899853D01*
X163130147Y-76774354D01*
X163031544Y-76626784D01*
X162963624Y-76462812D01*
X162929000Y-76288741D01*
X162929000Y-76111259D01*
X162963624Y-75937188D01*
X163031544Y-75773216D01*
X163130147Y-75625646D01*
X163255646Y-75500147D01*
X163403216Y-75401544D01*
X163567188Y-75333624D01*
X163716488Y-75303927D01*
X163741258Y-75299000D01*
X163918742Y-75299000D01*
X163943512Y-75303927D01*
G37*
G36*
X136003512Y-75303927D02*
G01*
X136152812Y-75333624D01*
X136316784Y-75401544D01*
X136464354Y-75500147D01*
X136589853Y-75625646D01*
X136688456Y-75773216D01*
X136756376Y-75937188D01*
X136791000Y-76111259D01*
X136791000Y-76288741D01*
X136756376Y-76462812D01*
X136688456Y-76626784D01*
X136589853Y-76774354D01*
X136464354Y-76899853D01*
X136316784Y-76998456D01*
X136152812Y-77066376D01*
X136003512Y-77096073D01*
X135978742Y-77101000D01*
X135801258Y-77101000D01*
X135776488Y-77096073D01*
X135627188Y-77066376D01*
X135463216Y-76998456D01*
X135315646Y-76899853D01*
X135190147Y-76774354D01*
X135091544Y-76626784D01*
X135023624Y-76462812D01*
X134989000Y-76288741D01*
X134989000Y-76111259D01*
X135023624Y-75937188D01*
X135091544Y-75773216D01*
X135190147Y-75625646D01*
X135315646Y-75500147D01*
X135463216Y-75401544D01*
X135627188Y-75333624D01*
X135776488Y-75303927D01*
X135801258Y-75299000D01*
X135978742Y-75299000D01*
X136003512Y-75303927D01*
G37*
G36*
X133463512Y-75303927D02*
G01*
X133612812Y-75333624D01*
X133776784Y-75401544D01*
X133924354Y-75500147D01*
X134049853Y-75625646D01*
X134148456Y-75773216D01*
X134216376Y-75937188D01*
X134251000Y-76111259D01*
X134251000Y-76288741D01*
X134216376Y-76462812D01*
X134148456Y-76626784D01*
X134049853Y-76774354D01*
X133924354Y-76899853D01*
X133776784Y-76998456D01*
X133612812Y-77066376D01*
X133463512Y-77096073D01*
X133438742Y-77101000D01*
X133261258Y-77101000D01*
X133236488Y-77096073D01*
X133087188Y-77066376D01*
X132923216Y-76998456D01*
X132775646Y-76899853D01*
X132650147Y-76774354D01*
X132551544Y-76626784D01*
X132483624Y-76462812D01*
X132449000Y-76288741D01*
X132449000Y-76111259D01*
X132483624Y-75937188D01*
X132551544Y-75773216D01*
X132650147Y-75625646D01*
X132775646Y-75500147D01*
X132923216Y-75401544D01*
X133087188Y-75333624D01*
X133236488Y-75303927D01*
X133261258Y-75299000D01*
X133438742Y-75299000D01*
X133463512Y-75303927D01*
G37*
G36*
X130923512Y-75303927D02*
G01*
X131072812Y-75333624D01*
X131236784Y-75401544D01*
X131384354Y-75500147D01*
X131509853Y-75625646D01*
X131608456Y-75773216D01*
X131676376Y-75937188D01*
X131711000Y-76111259D01*
X131711000Y-76288741D01*
X131676376Y-76462812D01*
X131608456Y-76626784D01*
X131509853Y-76774354D01*
X131384354Y-76899853D01*
X131236784Y-76998456D01*
X131072812Y-77066376D01*
X130923512Y-77096073D01*
X130898742Y-77101000D01*
X130721258Y-77101000D01*
X130696488Y-77096073D01*
X130547188Y-77066376D01*
X130383216Y-76998456D01*
X130235646Y-76899853D01*
X130110147Y-76774354D01*
X130011544Y-76626784D01*
X129943624Y-76462812D01*
X129909000Y-76288741D01*
X129909000Y-76111259D01*
X129943624Y-75937188D01*
X130011544Y-75773216D01*
X130110147Y-75625646D01*
X130235646Y-75500147D01*
X130383216Y-75401544D01*
X130547188Y-75333624D01*
X130696488Y-75303927D01*
X130721258Y-75299000D01*
X130898742Y-75299000D01*
X130923512Y-75303927D01*
G37*
G36*
X128383512Y-75303927D02*
G01*
X128532812Y-75333624D01*
X128696784Y-75401544D01*
X128844354Y-75500147D01*
X128969853Y-75625646D01*
X129068456Y-75773216D01*
X129136376Y-75937188D01*
X129171000Y-76111259D01*
X129171000Y-76288741D01*
X129136376Y-76462812D01*
X129068456Y-76626784D01*
X128969853Y-76774354D01*
X128844354Y-76899853D01*
X128696784Y-76998456D01*
X128532812Y-77066376D01*
X128383512Y-77096073D01*
X128358742Y-77101000D01*
X128181258Y-77101000D01*
X128156488Y-77096073D01*
X128007188Y-77066376D01*
X127843216Y-76998456D01*
X127695646Y-76899853D01*
X127570147Y-76774354D01*
X127471544Y-76626784D01*
X127403624Y-76462812D01*
X127369000Y-76288741D01*
X127369000Y-76111259D01*
X127403624Y-75937188D01*
X127471544Y-75773216D01*
X127570147Y-75625646D01*
X127695646Y-75500147D01*
X127843216Y-75401544D01*
X128007188Y-75333624D01*
X128156488Y-75303927D01*
X128181258Y-75299000D01*
X128358742Y-75299000D01*
X128383512Y-75303927D01*
G37*
G36*
X125843512Y-75303927D02*
G01*
X125992812Y-75333624D01*
X126156784Y-75401544D01*
X126304354Y-75500147D01*
X126429853Y-75625646D01*
X126528456Y-75773216D01*
X126596376Y-75937188D01*
X126631000Y-76111259D01*
X126631000Y-76288741D01*
X126596376Y-76462812D01*
X126528456Y-76626784D01*
X126429853Y-76774354D01*
X126304354Y-76899853D01*
X126156784Y-76998456D01*
X125992812Y-77066376D01*
X125843512Y-77096073D01*
X125818742Y-77101000D01*
X125641258Y-77101000D01*
X125616488Y-77096073D01*
X125467188Y-77066376D01*
X125303216Y-76998456D01*
X125155646Y-76899853D01*
X125030147Y-76774354D01*
X124931544Y-76626784D01*
X124863624Y-76462812D01*
X124829000Y-76288741D01*
X124829000Y-76111259D01*
X124863624Y-75937188D01*
X124931544Y-75773216D01*
X125030147Y-75625646D01*
X125155646Y-75500147D01*
X125303216Y-75401544D01*
X125467188Y-75333624D01*
X125616488Y-75303927D01*
X125641258Y-75299000D01*
X125818742Y-75299000D01*
X125843512Y-75303927D01*
G37*
G36*
X123303512Y-75303927D02*
G01*
X123452812Y-75333624D01*
X123616784Y-75401544D01*
X123764354Y-75500147D01*
X123889853Y-75625646D01*
X123988456Y-75773216D01*
X124056376Y-75937188D01*
X124091000Y-76111259D01*
X124091000Y-76288741D01*
X124056376Y-76462812D01*
X123988456Y-76626784D01*
X123889853Y-76774354D01*
X123764354Y-76899853D01*
X123616784Y-76998456D01*
X123452812Y-77066376D01*
X123303512Y-77096073D01*
X123278742Y-77101000D01*
X123101258Y-77101000D01*
X123076488Y-77096073D01*
X122927188Y-77066376D01*
X122763216Y-76998456D01*
X122615646Y-76899853D01*
X122490147Y-76774354D01*
X122391544Y-76626784D01*
X122323624Y-76462812D01*
X122289000Y-76288741D01*
X122289000Y-76111259D01*
X122323624Y-75937188D01*
X122391544Y-75773216D01*
X122490147Y-75625646D01*
X122615646Y-75500147D01*
X122763216Y-75401544D01*
X122927188Y-75333624D01*
X123076488Y-75303927D01*
X123101258Y-75299000D01*
X123278742Y-75299000D01*
X123303512Y-75303927D01*
G37*
G36*
X100443512Y-75303927D02*
G01*
X100592812Y-75333624D01*
X100756784Y-75401544D01*
X100904354Y-75500147D01*
X101029853Y-75625646D01*
X101128456Y-75773216D01*
X101196376Y-75937188D01*
X101231000Y-76111259D01*
X101231000Y-76288741D01*
X101196376Y-76462812D01*
X101128456Y-76626784D01*
X101029853Y-76774354D01*
X100904354Y-76899853D01*
X100756784Y-76998456D01*
X100592812Y-77066376D01*
X100443512Y-77096073D01*
X100418742Y-77101000D01*
X100241258Y-77101000D01*
X100216488Y-77096073D01*
X100067188Y-77066376D01*
X99903216Y-76998456D01*
X99755646Y-76899853D01*
X99630147Y-76774354D01*
X99531544Y-76626784D01*
X99463624Y-76462812D01*
X99429000Y-76288741D01*
X99429000Y-76111259D01*
X99463624Y-75937188D01*
X99531544Y-75773216D01*
X99630147Y-75625646D01*
X99755646Y-75500147D01*
X99903216Y-75401544D01*
X100067188Y-75333624D01*
X100216488Y-75303927D01*
X100241258Y-75299000D01*
X100418742Y-75299000D01*
X100443512Y-75303927D01*
G37*
G36*
X161403512Y-75303927D02*
G01*
X161552812Y-75333624D01*
X161716784Y-75401544D01*
X161864354Y-75500147D01*
X161989853Y-75625646D01*
X162088456Y-75773216D01*
X162156376Y-75937188D01*
X162191000Y-76111259D01*
X162191000Y-76288741D01*
X162156376Y-76462812D01*
X162088456Y-76626784D01*
X161989853Y-76774354D01*
X161864354Y-76899853D01*
X161716784Y-76998456D01*
X161552812Y-77066376D01*
X161403512Y-77096073D01*
X161378742Y-77101000D01*
X161201258Y-77101000D01*
X161176488Y-77096073D01*
X161027188Y-77066376D01*
X160863216Y-76998456D01*
X160715646Y-76899853D01*
X160590147Y-76774354D01*
X160491544Y-76626784D01*
X160423624Y-76462812D01*
X160389000Y-76288741D01*
X160389000Y-76111259D01*
X160423624Y-75937188D01*
X160491544Y-75773216D01*
X160590147Y-75625646D01*
X160715646Y-75500147D01*
X160863216Y-75401544D01*
X161027188Y-75333624D01*
X161176488Y-75303927D01*
X161201258Y-75299000D01*
X161378742Y-75299000D01*
X161403512Y-75303927D01*
G37*
G36*
X172218604Y-75023347D02*
G01*
X172255144Y-75034432D01*
X172288821Y-75052433D01*
X172318341Y-75076659D01*
X172342567Y-75106179D01*
X172360568Y-75139856D01*
X172371653Y-75176396D01*
X172376000Y-75220538D01*
X172376000Y-76169462D01*
X172371653Y-76213604D01*
X172360568Y-76250144D01*
X172342567Y-76283821D01*
X172318341Y-76313341D01*
X172288821Y-76337567D01*
X172255144Y-76355568D01*
X172218604Y-76366653D01*
X172174462Y-76371000D01*
X170725538Y-76371000D01*
X170681396Y-76366653D01*
X170644856Y-76355568D01*
X170611179Y-76337567D01*
X170581659Y-76313341D01*
X170557433Y-76283821D01*
X170539432Y-76250144D01*
X170528347Y-76213604D01*
X170524000Y-76169462D01*
X170524000Y-75220538D01*
X170528347Y-75176396D01*
X170539432Y-75139856D01*
X170557433Y-75106179D01*
X170581659Y-75076659D01*
X170611179Y-75052433D01*
X170644856Y-75034432D01*
X170681396Y-75023347D01*
X170725538Y-75019000D01*
X172174462Y-75019000D01*
X172218604Y-75023347D01*
G37*
G36*
X172218604Y-72223347D02*
G01*
X172255144Y-72234432D01*
X172288821Y-72252433D01*
X172318341Y-72276659D01*
X172342567Y-72306179D01*
X172360568Y-72339856D01*
X172371653Y-72376396D01*
X172376000Y-72420538D01*
X172376000Y-73369462D01*
X172371653Y-73413604D01*
X172360568Y-73450144D01*
X172342567Y-73483821D01*
X172318341Y-73513341D01*
X172288821Y-73537567D01*
X172255144Y-73555568D01*
X172218604Y-73566653D01*
X172174462Y-73571000D01*
X170725538Y-73571000D01*
X170681396Y-73566653D01*
X170644856Y-73555568D01*
X170611179Y-73537567D01*
X170581659Y-73513341D01*
X170557433Y-73483821D01*
X170539432Y-73450144D01*
X170528347Y-73413604D01*
X170524000Y-73369462D01*
X170524000Y-72420538D01*
X170528347Y-72376396D01*
X170539432Y-72339856D01*
X170557433Y-72306179D01*
X170581659Y-72276659D01*
X170611179Y-72252433D01*
X170644856Y-72234432D01*
X170681396Y-72223347D01*
X170725538Y-72219000D01*
X172174462Y-72219000D01*
X172218604Y-72223347D01*
G37*
G36*
X138443604Y-71468347D02*
G01*
X138480144Y-71479432D01*
X138513821Y-71497433D01*
X138543341Y-71521659D01*
X138567567Y-71551179D01*
X138585568Y-71584856D01*
X138596653Y-71621396D01*
X138601000Y-71665538D01*
X138601000Y-73114462D01*
X138596653Y-73158604D01*
X138585568Y-73195144D01*
X138567567Y-73228821D01*
X138543341Y-73258341D01*
X138513821Y-73282567D01*
X138480144Y-73300568D01*
X138443604Y-73311653D01*
X138399462Y-73316000D01*
X137450538Y-73316000D01*
X137406396Y-73311653D01*
X137369856Y-73300568D01*
X137336179Y-73282567D01*
X137306659Y-73258341D01*
X137282433Y-73228821D01*
X137264432Y-73195144D01*
X137253347Y-73158604D01*
X137249000Y-73114462D01*
X137249000Y-71665538D01*
X137253347Y-71621396D01*
X137264432Y-71584856D01*
X137282433Y-71551179D01*
X137306659Y-71521659D01*
X137336179Y-71497433D01*
X137369856Y-71479432D01*
X137406396Y-71468347D01*
X137450538Y-71464000D01*
X138399462Y-71464000D01*
X138443604Y-71468347D01*
G37*
G36*
X135643604Y-71468347D02*
G01*
X135680144Y-71479432D01*
X135713821Y-71497433D01*
X135743341Y-71521659D01*
X135767567Y-71551179D01*
X135785568Y-71584856D01*
X135796653Y-71621396D01*
X135801000Y-71665538D01*
X135801000Y-73114462D01*
X135796653Y-73158604D01*
X135785568Y-73195144D01*
X135767567Y-73228821D01*
X135743341Y-73258341D01*
X135713821Y-73282567D01*
X135680144Y-73300568D01*
X135643604Y-73311653D01*
X135599462Y-73316000D01*
X134650538Y-73316000D01*
X134606396Y-73311653D01*
X134569856Y-73300568D01*
X134536179Y-73282567D01*
X134506659Y-73258341D01*
X134482433Y-73228821D01*
X134464432Y-73195144D01*
X134453347Y-73158604D01*
X134449000Y-73114462D01*
X134449000Y-71665538D01*
X134453347Y-71621396D01*
X134464432Y-71584856D01*
X134482433Y-71551179D01*
X134506659Y-71521659D01*
X134536179Y-71497433D01*
X134569856Y-71479432D01*
X134606396Y-71468347D01*
X134650538Y-71464000D01*
X135599462Y-71464000D01*
X135643604Y-71468347D01*
G37*
G36*
X78493604Y-71468347D02*
G01*
X78530144Y-71479432D01*
X78563821Y-71497433D01*
X78593341Y-71521659D01*
X78617567Y-71551179D01*
X78635568Y-71584856D01*
X78646653Y-71621396D01*
X78651000Y-71665538D01*
X78651000Y-73114462D01*
X78646653Y-73158604D01*
X78635568Y-73195144D01*
X78617567Y-73228821D01*
X78593341Y-73258341D01*
X78563821Y-73282567D01*
X78530144Y-73300568D01*
X78493604Y-73311653D01*
X78449462Y-73316000D01*
X77500538Y-73316000D01*
X77456396Y-73311653D01*
X77419856Y-73300568D01*
X77386179Y-73282567D01*
X77356659Y-73258341D01*
X77332433Y-73228821D01*
X77314432Y-73195144D01*
X77303347Y-73158604D01*
X77299000Y-73114462D01*
X77299000Y-71665538D01*
X77303347Y-71621396D01*
X77314432Y-71584856D01*
X77332433Y-71551179D01*
X77356659Y-71521659D01*
X77386179Y-71497433D01*
X77419856Y-71479432D01*
X77456396Y-71468347D01*
X77500538Y-71464000D01*
X78449462Y-71464000D01*
X78493604Y-71468347D01*
G37*
G36*
X81293604Y-71468347D02*
G01*
X81330144Y-71479432D01*
X81363821Y-71497433D01*
X81393341Y-71521659D01*
X81417567Y-71551179D01*
X81435568Y-71584856D01*
X81446653Y-71621396D01*
X81451000Y-71665538D01*
X81451000Y-73114462D01*
X81446653Y-73158604D01*
X81435568Y-73195144D01*
X81417567Y-73228821D01*
X81393341Y-73258341D01*
X81363821Y-73282567D01*
X81330144Y-73300568D01*
X81293604Y-73311653D01*
X81249462Y-73316000D01*
X80300538Y-73316000D01*
X80256396Y-73311653D01*
X80219856Y-73300568D01*
X80186179Y-73282567D01*
X80156659Y-73258341D01*
X80132433Y-73228821D01*
X80114432Y-73195144D01*
X80103347Y-73158604D01*
X80099000Y-73114462D01*
X80099000Y-71665538D01*
X80103347Y-71621396D01*
X80114432Y-71584856D01*
X80132433Y-71551179D01*
X80156659Y-71521659D01*
X80186179Y-71497433D01*
X80219856Y-71479432D01*
X80256396Y-71468347D01*
X80300538Y-71464000D01*
X81249462Y-71464000D01*
X81293604Y-71468347D01*
G37*
G36*
X103893604Y-71468347D02*
G01*
X103930144Y-71479432D01*
X103963821Y-71497433D01*
X103993341Y-71521659D01*
X104017567Y-71551179D01*
X104035568Y-71584856D01*
X104046653Y-71621396D01*
X104051000Y-71665538D01*
X104051000Y-73114462D01*
X104046653Y-73158604D01*
X104035568Y-73195144D01*
X104017567Y-73228821D01*
X103993341Y-73258341D01*
X103963821Y-73282567D01*
X103930144Y-73300568D01*
X103893604Y-73311653D01*
X103849462Y-73316000D01*
X102900538Y-73316000D01*
X102856396Y-73311653D01*
X102819856Y-73300568D01*
X102786179Y-73282567D01*
X102756659Y-73258341D01*
X102732433Y-73228821D01*
X102714432Y-73195144D01*
X102703347Y-73158604D01*
X102699000Y-73114462D01*
X102699000Y-71665538D01*
X102703347Y-71621396D01*
X102714432Y-71584856D01*
X102732433Y-71551179D01*
X102756659Y-71521659D01*
X102786179Y-71497433D01*
X102819856Y-71479432D01*
X102856396Y-71468347D01*
X102900538Y-71464000D01*
X103849462Y-71464000D01*
X103893604Y-71468347D01*
G37*
G36*
X106693604Y-71468347D02*
G01*
X106730144Y-71479432D01*
X106763821Y-71497433D01*
X106793341Y-71521659D01*
X106817567Y-71551179D01*
X106835568Y-71584856D01*
X106846653Y-71621396D01*
X106851000Y-71665538D01*
X106851000Y-73114462D01*
X106846653Y-73158604D01*
X106835568Y-73195144D01*
X106817567Y-73228821D01*
X106793341Y-73258341D01*
X106763821Y-73282567D01*
X106730144Y-73300568D01*
X106693604Y-73311653D01*
X106649462Y-73316000D01*
X105700538Y-73316000D01*
X105656396Y-73311653D01*
X105619856Y-73300568D01*
X105586179Y-73282567D01*
X105556659Y-73258341D01*
X105532433Y-73228821D01*
X105514432Y-73195144D01*
X105503347Y-73158604D01*
X105499000Y-73114462D01*
X105499000Y-71665538D01*
X105503347Y-71621396D01*
X105514432Y-71584856D01*
X105532433Y-71551179D01*
X105556659Y-71521659D01*
X105586179Y-71497433D01*
X105619856Y-71479432D01*
X105656396Y-71468347D01*
X105700538Y-71464000D01*
X106649462Y-71464000D01*
X106693604Y-71468347D01*
G37*
G36*
X129293604Y-71468347D02*
G01*
X129330144Y-71479432D01*
X129363821Y-71497433D01*
X129393341Y-71521659D01*
X129417567Y-71551179D01*
X129435568Y-71584856D01*
X129446653Y-71621396D01*
X129451000Y-71665538D01*
X129451000Y-73114462D01*
X129446653Y-73158604D01*
X129435568Y-73195144D01*
X129417567Y-73228821D01*
X129393341Y-73258341D01*
X129363821Y-73282567D01*
X129330144Y-73300568D01*
X129293604Y-73311653D01*
X129249462Y-73316000D01*
X128300538Y-73316000D01*
X128256396Y-73311653D01*
X128219856Y-73300568D01*
X128186179Y-73282567D01*
X128156659Y-73258341D01*
X128132433Y-73228821D01*
X128114432Y-73195144D01*
X128103347Y-73158604D01*
X128099000Y-73114462D01*
X128099000Y-71665538D01*
X128103347Y-71621396D01*
X128114432Y-71584856D01*
X128132433Y-71551179D01*
X128156659Y-71521659D01*
X128186179Y-71497433D01*
X128219856Y-71479432D01*
X128256396Y-71468347D01*
X128300538Y-71464000D01*
X129249462Y-71464000D01*
X129293604Y-71468347D01*
G37*
G36*
X132093604Y-71468347D02*
G01*
X132130144Y-71479432D01*
X132163821Y-71497433D01*
X132193341Y-71521659D01*
X132217567Y-71551179D01*
X132235568Y-71584856D01*
X132246653Y-71621396D01*
X132251000Y-71665538D01*
X132251000Y-73114462D01*
X132246653Y-73158604D01*
X132235568Y-73195144D01*
X132217567Y-73228821D01*
X132193341Y-73258341D01*
X132163821Y-73282567D01*
X132130144Y-73300568D01*
X132093604Y-73311653D01*
X132049462Y-73316000D01*
X131100538Y-73316000D01*
X131056396Y-73311653D01*
X131019856Y-73300568D01*
X130986179Y-73282567D01*
X130956659Y-73258341D01*
X130932433Y-73228821D01*
X130914432Y-73195144D01*
X130903347Y-73158604D01*
X130899000Y-73114462D01*
X130899000Y-71665538D01*
X130903347Y-71621396D01*
X130914432Y-71584856D01*
X130932433Y-71551179D01*
X130956659Y-71521659D01*
X130986179Y-71497433D01*
X131019856Y-71479432D01*
X131056396Y-71468347D01*
X131100538Y-71464000D01*
X132049462Y-71464000D01*
X132093604Y-71468347D01*
G37*
G36*
X144793604Y-71468347D02*
G01*
X144830144Y-71479432D01*
X144863821Y-71497433D01*
X144893341Y-71521659D01*
X144917567Y-71551179D01*
X144935568Y-71584856D01*
X144946653Y-71621396D01*
X144951000Y-71665538D01*
X144951000Y-73114462D01*
X144946653Y-73158604D01*
X144935568Y-73195144D01*
X144917567Y-73228821D01*
X144893341Y-73258341D01*
X144863821Y-73282567D01*
X144830144Y-73300568D01*
X144793604Y-73311653D01*
X144749462Y-73316000D01*
X143800538Y-73316000D01*
X143756396Y-73311653D01*
X143719856Y-73300568D01*
X143686179Y-73282567D01*
X143656659Y-73258341D01*
X143632433Y-73228821D01*
X143614432Y-73195144D01*
X143603347Y-73158604D01*
X143599000Y-73114462D01*
X143599000Y-71665538D01*
X143603347Y-71621396D01*
X143614432Y-71584856D01*
X143632433Y-71551179D01*
X143656659Y-71521659D01*
X143686179Y-71497433D01*
X143719856Y-71479432D01*
X143756396Y-71468347D01*
X143800538Y-71464000D01*
X144749462Y-71464000D01*
X144793604Y-71468347D01*
G37*
G36*
X93993604Y-71468347D02*
G01*
X94030144Y-71479432D01*
X94063821Y-71497433D01*
X94093341Y-71521659D01*
X94117567Y-71551179D01*
X94135568Y-71584856D01*
X94146653Y-71621396D01*
X94151000Y-71665538D01*
X94151000Y-73114462D01*
X94146653Y-73158604D01*
X94135568Y-73195144D01*
X94117567Y-73228821D01*
X94093341Y-73258341D01*
X94063821Y-73282567D01*
X94030144Y-73300568D01*
X93993604Y-73311653D01*
X93949462Y-73316000D01*
X93000538Y-73316000D01*
X92956396Y-73311653D01*
X92919856Y-73300568D01*
X92886179Y-73282567D01*
X92856659Y-73258341D01*
X92832433Y-73228821D01*
X92814432Y-73195144D01*
X92803347Y-73158604D01*
X92799000Y-73114462D01*
X92799000Y-71665538D01*
X92803347Y-71621396D01*
X92814432Y-71584856D01*
X92832433Y-71551179D01*
X92856659Y-71521659D01*
X92886179Y-71497433D01*
X92919856Y-71479432D01*
X92956396Y-71468347D01*
X93000538Y-71464000D01*
X93949462Y-71464000D01*
X93993604Y-71468347D01*
G37*
G36*
X91193604Y-71468347D02*
G01*
X91230144Y-71479432D01*
X91263821Y-71497433D01*
X91293341Y-71521659D01*
X91317567Y-71551179D01*
X91335568Y-71584856D01*
X91346653Y-71621396D01*
X91351000Y-71665538D01*
X91351000Y-73114462D01*
X91346653Y-73158604D01*
X91335568Y-73195144D01*
X91317567Y-73228821D01*
X91293341Y-73258341D01*
X91263821Y-73282567D01*
X91230144Y-73300568D01*
X91193604Y-73311653D01*
X91149462Y-73316000D01*
X90200538Y-73316000D01*
X90156396Y-73311653D01*
X90119856Y-73300568D01*
X90086179Y-73282567D01*
X90056659Y-73258341D01*
X90032433Y-73228821D01*
X90014432Y-73195144D01*
X90003347Y-73158604D01*
X89999000Y-73114462D01*
X89999000Y-71665538D01*
X90003347Y-71621396D01*
X90014432Y-71584856D01*
X90032433Y-71551179D01*
X90056659Y-71521659D01*
X90086179Y-71497433D01*
X90119856Y-71479432D01*
X90156396Y-71468347D01*
X90200538Y-71464000D01*
X91149462Y-71464000D01*
X91193604Y-71468347D01*
G37*
G36*
X68723604Y-71468347D02*
G01*
X68760144Y-71479432D01*
X68793821Y-71497433D01*
X68823341Y-71521659D01*
X68847567Y-71551179D01*
X68865568Y-71584856D01*
X68876653Y-71621396D01*
X68881000Y-71665538D01*
X68881000Y-73114462D01*
X68876653Y-73158604D01*
X68865568Y-73195144D01*
X68847567Y-73228821D01*
X68823341Y-73258341D01*
X68793821Y-73282567D01*
X68760144Y-73300568D01*
X68723604Y-73311653D01*
X68679462Y-73316000D01*
X67730538Y-73316000D01*
X67686396Y-73311653D01*
X67649856Y-73300568D01*
X67616179Y-73282567D01*
X67586659Y-73258341D01*
X67562433Y-73228821D01*
X67544432Y-73195144D01*
X67533347Y-73158604D01*
X67529000Y-73114462D01*
X67529000Y-71665538D01*
X67533347Y-71621396D01*
X67544432Y-71584856D01*
X67562433Y-71551179D01*
X67586659Y-71521659D01*
X67616179Y-71497433D01*
X67649856Y-71479432D01*
X67686396Y-71468347D01*
X67730538Y-71464000D01*
X68679462Y-71464000D01*
X68723604Y-71468347D01*
G37*
G36*
X65923604Y-71468347D02*
G01*
X65960144Y-71479432D01*
X65993821Y-71497433D01*
X66023341Y-71521659D01*
X66047567Y-71551179D01*
X66065568Y-71584856D01*
X66076653Y-71621396D01*
X66081000Y-71665538D01*
X66081000Y-73114462D01*
X66076653Y-73158604D01*
X66065568Y-73195144D01*
X66047567Y-73228821D01*
X66023341Y-73258341D01*
X65993821Y-73282567D01*
X65960144Y-73300568D01*
X65923604Y-73311653D01*
X65879462Y-73316000D01*
X64930538Y-73316000D01*
X64886396Y-73311653D01*
X64849856Y-73300568D01*
X64816179Y-73282567D01*
X64786659Y-73258341D01*
X64762433Y-73228821D01*
X64744432Y-73195144D01*
X64733347Y-73158604D01*
X64729000Y-73114462D01*
X64729000Y-71665538D01*
X64733347Y-71621396D01*
X64744432Y-71584856D01*
X64762433Y-71551179D01*
X64786659Y-71521659D01*
X64816179Y-71497433D01*
X64849856Y-71479432D01*
X64886396Y-71468347D01*
X64930538Y-71464000D01*
X65879462Y-71464000D01*
X65923604Y-71468347D01*
G37*
G36*
X141993604Y-71468347D02*
G01*
X142030144Y-71479432D01*
X142063821Y-71497433D01*
X142093341Y-71521659D01*
X142117567Y-71551179D01*
X142135568Y-71584856D01*
X142146653Y-71621396D01*
X142151000Y-71665538D01*
X142151000Y-73114462D01*
X142146653Y-73158604D01*
X142135568Y-73195144D01*
X142117567Y-73228821D01*
X142093341Y-73258341D01*
X142063821Y-73282567D01*
X142030144Y-73300568D01*
X141993604Y-73311653D01*
X141949462Y-73316000D01*
X141000538Y-73316000D01*
X140956396Y-73311653D01*
X140919856Y-73300568D01*
X140886179Y-73282567D01*
X140856659Y-73258341D01*
X140832433Y-73228821D01*
X140814432Y-73195144D01*
X140803347Y-73158604D01*
X140799000Y-73114462D01*
X140799000Y-71665538D01*
X140803347Y-71621396D01*
X140814432Y-71584856D01*
X140832433Y-71551179D01*
X140856659Y-71521659D01*
X140886179Y-71497433D01*
X140919856Y-71479432D01*
X140956396Y-71468347D01*
X141000538Y-71464000D01*
X141949462Y-71464000D01*
X141993604Y-71468347D01*
G37*
G36*
X119393604Y-71468347D02*
G01*
X119430144Y-71479432D01*
X119463821Y-71497433D01*
X119493341Y-71521659D01*
X119517567Y-71551179D01*
X119535568Y-71584856D01*
X119546653Y-71621396D01*
X119551000Y-71665538D01*
X119551000Y-73114462D01*
X119546653Y-73158604D01*
X119535568Y-73195144D01*
X119517567Y-73228821D01*
X119493341Y-73258341D01*
X119463821Y-73282567D01*
X119430144Y-73300568D01*
X119393604Y-73311653D01*
X119349462Y-73316000D01*
X118400538Y-73316000D01*
X118356396Y-73311653D01*
X118319856Y-73300568D01*
X118286179Y-73282567D01*
X118256659Y-73258341D01*
X118232433Y-73228821D01*
X118214432Y-73195144D01*
X118203347Y-73158604D01*
X118199000Y-73114462D01*
X118199000Y-71665538D01*
X118203347Y-71621396D01*
X118214432Y-71584856D01*
X118232433Y-71551179D01*
X118256659Y-71521659D01*
X118286179Y-71497433D01*
X118319856Y-71479432D01*
X118356396Y-71468347D01*
X118400538Y-71464000D01*
X119349462Y-71464000D01*
X119393604Y-71468347D01*
G37*
G36*
X116593604Y-71468347D02*
G01*
X116630144Y-71479432D01*
X116663821Y-71497433D01*
X116693341Y-71521659D01*
X116717567Y-71551179D01*
X116735568Y-71584856D01*
X116746653Y-71621396D01*
X116751000Y-71665538D01*
X116751000Y-73114462D01*
X116746653Y-73158604D01*
X116735568Y-73195144D01*
X116717567Y-73228821D01*
X116693341Y-73258341D01*
X116663821Y-73282567D01*
X116630144Y-73300568D01*
X116593604Y-73311653D01*
X116549462Y-73316000D01*
X115600538Y-73316000D01*
X115556396Y-73311653D01*
X115519856Y-73300568D01*
X115486179Y-73282567D01*
X115456659Y-73258341D01*
X115432433Y-73228821D01*
X115414432Y-73195144D01*
X115403347Y-73158604D01*
X115399000Y-73114462D01*
X115399000Y-71665538D01*
X115403347Y-71621396D01*
X115414432Y-71584856D01*
X115432433Y-71551179D01*
X115456659Y-71521659D01*
X115486179Y-71497433D01*
X115519856Y-71479432D01*
X115556396Y-71468347D01*
X115600538Y-71464000D01*
X116549462Y-71464000D01*
X116593604Y-71468347D01*
G37*
G36*
X110243604Y-71468347D02*
G01*
X110280144Y-71479432D01*
X110313821Y-71497433D01*
X110343341Y-71521659D01*
X110367567Y-71551179D01*
X110385568Y-71584856D01*
X110396653Y-71621396D01*
X110401000Y-71665538D01*
X110401000Y-73114462D01*
X110396653Y-73158604D01*
X110385568Y-73195144D01*
X110367567Y-73228821D01*
X110343341Y-73258341D01*
X110313821Y-73282567D01*
X110280144Y-73300568D01*
X110243604Y-73311653D01*
X110199462Y-73316000D01*
X109250538Y-73316000D01*
X109206396Y-73311653D01*
X109169856Y-73300568D01*
X109136179Y-73282567D01*
X109106659Y-73258341D01*
X109082433Y-73228821D01*
X109064432Y-73195144D01*
X109053347Y-73158604D01*
X109049000Y-73114462D01*
X109049000Y-71665538D01*
X109053347Y-71621396D01*
X109064432Y-71584856D01*
X109082433Y-71551179D01*
X109106659Y-71521659D01*
X109136179Y-71497433D01*
X109169856Y-71479432D01*
X109206396Y-71468347D01*
X109250538Y-71464000D01*
X110199462Y-71464000D01*
X110243604Y-71468347D01*
G37*
G36*
X113043604Y-71468347D02*
G01*
X113080144Y-71479432D01*
X113113821Y-71497433D01*
X113143341Y-71521659D01*
X113167567Y-71551179D01*
X113185568Y-71584856D01*
X113196653Y-71621396D01*
X113201000Y-71665538D01*
X113201000Y-73114462D01*
X113196653Y-73158604D01*
X113185568Y-73195144D01*
X113167567Y-73228821D01*
X113143341Y-73258341D01*
X113113821Y-73282567D01*
X113080144Y-73300568D01*
X113043604Y-73311653D01*
X112999462Y-73316000D01*
X112050538Y-73316000D01*
X112006396Y-73311653D01*
X111969856Y-73300568D01*
X111936179Y-73282567D01*
X111906659Y-73258341D01*
X111882433Y-73228821D01*
X111864432Y-73195144D01*
X111853347Y-73158604D01*
X111849000Y-73114462D01*
X111849000Y-71665538D01*
X111853347Y-71621396D01*
X111864432Y-71584856D01*
X111882433Y-71551179D01*
X111906659Y-71521659D01*
X111936179Y-71497433D01*
X111969856Y-71479432D01*
X112006396Y-71468347D01*
X112050538Y-71464000D01*
X112999462Y-71464000D01*
X113043604Y-71468347D01*
G37*
G36*
X84843604Y-71468347D02*
G01*
X84880144Y-71479432D01*
X84913821Y-71497433D01*
X84943341Y-71521659D01*
X84967567Y-71551179D01*
X84985568Y-71584856D01*
X84996653Y-71621396D01*
X85001000Y-71665538D01*
X85001000Y-73114462D01*
X84996653Y-73158604D01*
X84985568Y-73195144D01*
X84967567Y-73228821D01*
X84943341Y-73258341D01*
X84913821Y-73282567D01*
X84880144Y-73300568D01*
X84843604Y-73311653D01*
X84799462Y-73316000D01*
X83850538Y-73316000D01*
X83806396Y-73311653D01*
X83769856Y-73300568D01*
X83736179Y-73282567D01*
X83706659Y-73258341D01*
X83682433Y-73228821D01*
X83664432Y-73195144D01*
X83653347Y-73158604D01*
X83649000Y-73114462D01*
X83649000Y-71665538D01*
X83653347Y-71621396D01*
X83664432Y-71584856D01*
X83682433Y-71551179D01*
X83706659Y-71521659D01*
X83736179Y-71497433D01*
X83769856Y-71479432D01*
X83806396Y-71468347D01*
X83850538Y-71464000D01*
X84799462Y-71464000D01*
X84843604Y-71468347D01*
G37*
G36*
X87643604Y-71468347D02*
G01*
X87680144Y-71479432D01*
X87713821Y-71497433D01*
X87743341Y-71521659D01*
X87767567Y-71551179D01*
X87785568Y-71584856D01*
X87796653Y-71621396D01*
X87801000Y-71665538D01*
X87801000Y-73114462D01*
X87796653Y-73158604D01*
X87785568Y-73195144D01*
X87767567Y-73228821D01*
X87743341Y-73258341D01*
X87713821Y-73282567D01*
X87680144Y-73300568D01*
X87643604Y-73311653D01*
X87599462Y-73316000D01*
X86650538Y-73316000D01*
X86606396Y-73311653D01*
X86569856Y-73300568D01*
X86536179Y-73282567D01*
X86506659Y-73258341D01*
X86482433Y-73228821D01*
X86464432Y-73195144D01*
X86453347Y-73158604D01*
X86449000Y-73114462D01*
X86449000Y-71665538D01*
X86453347Y-71621396D01*
X86464432Y-71584856D01*
X86482433Y-71551179D01*
X86506659Y-71521659D01*
X86536179Y-71497433D01*
X86569856Y-71479432D01*
X86606396Y-71468347D01*
X86650538Y-71464000D01*
X87599462Y-71464000D01*
X87643604Y-71468347D01*
G37*
G36*
X148473604Y-71468347D02*
G01*
X148510144Y-71479432D01*
X148543821Y-71497433D01*
X148573341Y-71521659D01*
X148597567Y-71551179D01*
X148615568Y-71584856D01*
X148626653Y-71621396D01*
X148631000Y-71665538D01*
X148631000Y-73114462D01*
X148626653Y-73158604D01*
X148615568Y-73195144D01*
X148597567Y-73228821D01*
X148573341Y-73258341D01*
X148543821Y-73282567D01*
X148510144Y-73300568D01*
X148473604Y-73311653D01*
X148429462Y-73316000D01*
X147480538Y-73316000D01*
X147436396Y-73311653D01*
X147399856Y-73300568D01*
X147366179Y-73282567D01*
X147336659Y-73258341D01*
X147312433Y-73228821D01*
X147294432Y-73195144D01*
X147283347Y-73158604D01*
X147279000Y-73114462D01*
X147279000Y-71665538D01*
X147283347Y-71621396D01*
X147294432Y-71584856D01*
X147312433Y-71551179D01*
X147336659Y-71521659D01*
X147366179Y-71497433D01*
X147399856Y-71479432D01*
X147436396Y-71468347D01*
X147480538Y-71464000D01*
X148429462Y-71464000D01*
X148473604Y-71468347D01*
G37*
G36*
X122943604Y-71468347D02*
G01*
X122980144Y-71479432D01*
X123013821Y-71497433D01*
X123043341Y-71521659D01*
X123067567Y-71551179D01*
X123085568Y-71584856D01*
X123096653Y-71621396D01*
X123101000Y-71665538D01*
X123101000Y-73114462D01*
X123096653Y-73158604D01*
X123085568Y-73195144D01*
X123067567Y-73228821D01*
X123043341Y-73258341D01*
X123013821Y-73282567D01*
X122980144Y-73300568D01*
X122943604Y-73311653D01*
X122899462Y-73316000D01*
X121950538Y-73316000D01*
X121906396Y-73311653D01*
X121869856Y-73300568D01*
X121836179Y-73282567D01*
X121806659Y-73258341D01*
X121782433Y-73228821D01*
X121764432Y-73195144D01*
X121753347Y-73158604D01*
X121749000Y-73114462D01*
X121749000Y-71665538D01*
X121753347Y-71621396D01*
X121764432Y-71584856D01*
X121782433Y-71551179D01*
X121806659Y-71521659D01*
X121836179Y-71497433D01*
X121869856Y-71479432D01*
X121906396Y-71468347D01*
X121950538Y-71464000D01*
X122899462Y-71464000D01*
X122943604Y-71468347D01*
G37*
G36*
X97413604Y-71468347D02*
G01*
X97450144Y-71479432D01*
X97483821Y-71497433D01*
X97513341Y-71521659D01*
X97537567Y-71551179D01*
X97555568Y-71584856D01*
X97566653Y-71621396D01*
X97571000Y-71665538D01*
X97571000Y-73114462D01*
X97566653Y-73158604D01*
X97555568Y-73195144D01*
X97537567Y-73228821D01*
X97513341Y-73258341D01*
X97483821Y-73282567D01*
X97450144Y-73300568D01*
X97413604Y-73311653D01*
X97369462Y-73316000D01*
X96420538Y-73316000D01*
X96376396Y-73311653D01*
X96339856Y-73300568D01*
X96306179Y-73282567D01*
X96276659Y-73258341D01*
X96252433Y-73228821D01*
X96234432Y-73195144D01*
X96223347Y-73158604D01*
X96219000Y-73114462D01*
X96219000Y-71665538D01*
X96223347Y-71621396D01*
X96234432Y-71584856D01*
X96252433Y-71551179D01*
X96276659Y-71521659D01*
X96306179Y-71497433D01*
X96339856Y-71479432D01*
X96376396Y-71468347D01*
X96420538Y-71464000D01*
X97369462Y-71464000D01*
X97413604Y-71468347D01*
G37*
G36*
X100213604Y-71468347D02*
G01*
X100250144Y-71479432D01*
X100283821Y-71497433D01*
X100313341Y-71521659D01*
X100337567Y-71551179D01*
X100355568Y-71584856D01*
X100366653Y-71621396D01*
X100371000Y-71665538D01*
X100371000Y-73114462D01*
X100366653Y-73158604D01*
X100355568Y-73195144D01*
X100337567Y-73228821D01*
X100313341Y-73258341D01*
X100283821Y-73282567D01*
X100250144Y-73300568D01*
X100213604Y-73311653D01*
X100169462Y-73316000D01*
X99220538Y-73316000D01*
X99176396Y-73311653D01*
X99139856Y-73300568D01*
X99106179Y-73282567D01*
X99076659Y-73258341D01*
X99052433Y-73228821D01*
X99034432Y-73195144D01*
X99023347Y-73158604D01*
X99019000Y-73114462D01*
X99019000Y-71665538D01*
X99023347Y-71621396D01*
X99034432Y-71584856D01*
X99052433Y-71551179D01*
X99076659Y-71521659D01*
X99106179Y-71497433D01*
X99139856Y-71479432D01*
X99176396Y-71468347D01*
X99220538Y-71464000D01*
X100169462Y-71464000D01*
X100213604Y-71468347D01*
G37*
G36*
X72013604Y-71468347D02*
G01*
X72050144Y-71479432D01*
X72083821Y-71497433D01*
X72113341Y-71521659D01*
X72137567Y-71551179D01*
X72155568Y-71584856D01*
X72166653Y-71621396D01*
X72171000Y-71665538D01*
X72171000Y-73114462D01*
X72166653Y-73158604D01*
X72155568Y-73195144D01*
X72137567Y-73228821D01*
X72113341Y-73258341D01*
X72083821Y-73282567D01*
X72050144Y-73300568D01*
X72013604Y-73311653D01*
X71969462Y-73316000D01*
X71020538Y-73316000D01*
X70976396Y-73311653D01*
X70939856Y-73300568D01*
X70906179Y-73282567D01*
X70876659Y-73258341D01*
X70852433Y-73228821D01*
X70834432Y-73195144D01*
X70823347Y-73158604D01*
X70819000Y-73114462D01*
X70819000Y-71665538D01*
X70823347Y-71621396D01*
X70834432Y-71584856D01*
X70852433Y-71551179D01*
X70876659Y-71521659D01*
X70906179Y-71497433D01*
X70939856Y-71479432D01*
X70976396Y-71468347D01*
X71020538Y-71464000D01*
X71969462Y-71464000D01*
X72013604Y-71468347D01*
G37*
G36*
X74813604Y-71468347D02*
G01*
X74850144Y-71479432D01*
X74883821Y-71497433D01*
X74913341Y-71521659D01*
X74937567Y-71551179D01*
X74955568Y-71584856D01*
X74966653Y-71621396D01*
X74971000Y-71665538D01*
X74971000Y-73114462D01*
X74966653Y-73158604D01*
X74955568Y-73195144D01*
X74937567Y-73228821D01*
X74913341Y-73258341D01*
X74883821Y-73282567D01*
X74850144Y-73300568D01*
X74813604Y-73311653D01*
X74769462Y-73316000D01*
X73820538Y-73316000D01*
X73776396Y-73311653D01*
X73739856Y-73300568D01*
X73706179Y-73282567D01*
X73676659Y-73258341D01*
X73652433Y-73228821D01*
X73634432Y-73195144D01*
X73623347Y-73158604D01*
X73619000Y-73114462D01*
X73619000Y-71665538D01*
X73623347Y-71621396D01*
X73634432Y-71584856D01*
X73652433Y-71551179D01*
X73676659Y-71521659D01*
X73706179Y-71497433D01*
X73739856Y-71479432D01*
X73776396Y-71468347D01*
X73820538Y-71464000D01*
X74769462Y-71464000D01*
X74813604Y-71468347D01*
G37*
G36*
X163843604Y-71468347D02*
G01*
X163880144Y-71479432D01*
X163913821Y-71497433D01*
X163943341Y-71521659D01*
X163967567Y-71551179D01*
X163985568Y-71584856D01*
X163996653Y-71621396D01*
X164001000Y-71665538D01*
X164001000Y-73114462D01*
X163996653Y-73158604D01*
X163985568Y-73195144D01*
X163967567Y-73228821D01*
X163943341Y-73258341D01*
X163913821Y-73282567D01*
X163880144Y-73300568D01*
X163843604Y-73311653D01*
X163799462Y-73316000D01*
X162850538Y-73316000D01*
X162806396Y-73311653D01*
X162769856Y-73300568D01*
X162736179Y-73282567D01*
X162706659Y-73258341D01*
X162682433Y-73228821D01*
X162664432Y-73195144D01*
X162653347Y-73158604D01*
X162649000Y-73114462D01*
X162649000Y-71665538D01*
X162653347Y-71621396D01*
X162664432Y-71584856D01*
X162682433Y-71551179D01*
X162706659Y-71521659D01*
X162736179Y-71497433D01*
X162769856Y-71479432D01*
X162806396Y-71468347D01*
X162850538Y-71464000D01*
X163799462Y-71464000D01*
X163843604Y-71468347D01*
G37*
G36*
X161043604Y-71468347D02*
G01*
X161080144Y-71479432D01*
X161113821Y-71497433D01*
X161143341Y-71521659D01*
X161167567Y-71551179D01*
X161185568Y-71584856D01*
X161196653Y-71621396D01*
X161201000Y-71665538D01*
X161201000Y-73114462D01*
X161196653Y-73158604D01*
X161185568Y-73195144D01*
X161167567Y-73228821D01*
X161143341Y-73258341D01*
X161113821Y-73282567D01*
X161080144Y-73300568D01*
X161043604Y-73311653D01*
X160999462Y-73316000D01*
X160050538Y-73316000D01*
X160006396Y-73311653D01*
X159969856Y-73300568D01*
X159936179Y-73282567D01*
X159906659Y-73258341D01*
X159882433Y-73228821D01*
X159864432Y-73195144D01*
X159853347Y-73158604D01*
X159849000Y-73114462D01*
X159849000Y-71665538D01*
X159853347Y-71621396D01*
X159864432Y-71584856D01*
X159882433Y-71551179D01*
X159906659Y-71521659D01*
X159936179Y-71497433D01*
X159969856Y-71479432D01*
X160006396Y-71468347D01*
X160050538Y-71464000D01*
X160999462Y-71464000D01*
X161043604Y-71468347D01*
G37*
G36*
X157493604Y-71468347D02*
G01*
X157530144Y-71479432D01*
X157563821Y-71497433D01*
X157593341Y-71521659D01*
X157617567Y-71551179D01*
X157635568Y-71584856D01*
X157646653Y-71621396D01*
X157651000Y-71665538D01*
X157651000Y-73114462D01*
X157646653Y-73158604D01*
X157635568Y-73195144D01*
X157617567Y-73228821D01*
X157593341Y-73258341D01*
X157563821Y-73282567D01*
X157530144Y-73300568D01*
X157493604Y-73311653D01*
X157449462Y-73316000D01*
X156500538Y-73316000D01*
X156456396Y-73311653D01*
X156419856Y-73300568D01*
X156386179Y-73282567D01*
X156356659Y-73258341D01*
X156332433Y-73228821D01*
X156314432Y-73195144D01*
X156303347Y-73158604D01*
X156299000Y-73114462D01*
X156299000Y-71665538D01*
X156303347Y-71621396D01*
X156314432Y-71584856D01*
X156332433Y-71551179D01*
X156356659Y-71521659D01*
X156386179Y-71497433D01*
X156419856Y-71479432D01*
X156456396Y-71468347D01*
X156500538Y-71464000D01*
X157449462Y-71464000D01*
X157493604Y-71468347D01*
G37*
G36*
X154693604Y-71468347D02*
G01*
X154730144Y-71479432D01*
X154763821Y-71497433D01*
X154793341Y-71521659D01*
X154817567Y-71551179D01*
X154835568Y-71584856D01*
X154846653Y-71621396D01*
X154851000Y-71665538D01*
X154851000Y-73114462D01*
X154846653Y-73158604D01*
X154835568Y-73195144D01*
X154817567Y-73228821D01*
X154793341Y-73258341D01*
X154763821Y-73282567D01*
X154730144Y-73300568D01*
X154693604Y-73311653D01*
X154649462Y-73316000D01*
X153700538Y-73316000D01*
X153656396Y-73311653D01*
X153619856Y-73300568D01*
X153586179Y-73282567D01*
X153556659Y-73258341D01*
X153532433Y-73228821D01*
X153514432Y-73195144D01*
X153503347Y-73158604D01*
X153499000Y-73114462D01*
X153499000Y-71665538D01*
X153503347Y-71621396D01*
X153514432Y-71584856D01*
X153532433Y-71551179D01*
X153556659Y-71521659D01*
X153586179Y-71497433D01*
X153619856Y-71479432D01*
X153656396Y-71468347D01*
X153700538Y-71464000D01*
X154649462Y-71464000D01*
X154693604Y-71468347D01*
G37*
G36*
X151273604Y-71468347D02*
G01*
X151310144Y-71479432D01*
X151343821Y-71497433D01*
X151373341Y-71521659D01*
X151397567Y-71551179D01*
X151415568Y-71584856D01*
X151426653Y-71621396D01*
X151431000Y-71665538D01*
X151431000Y-73114462D01*
X151426653Y-73158604D01*
X151415568Y-73195144D01*
X151397567Y-73228821D01*
X151373341Y-73258341D01*
X151343821Y-73282567D01*
X151310144Y-73300568D01*
X151273604Y-73311653D01*
X151229462Y-73316000D01*
X150280538Y-73316000D01*
X150236396Y-73311653D01*
X150199856Y-73300568D01*
X150166179Y-73282567D01*
X150136659Y-73258341D01*
X150112433Y-73228821D01*
X150094432Y-73195144D01*
X150083347Y-73158604D01*
X150079000Y-73114462D01*
X150079000Y-71665538D01*
X150083347Y-71621396D01*
X150094432Y-71584856D01*
X150112433Y-71551179D01*
X150136659Y-71521659D01*
X150166179Y-71497433D01*
X150199856Y-71479432D01*
X150236396Y-71468347D01*
X150280538Y-71464000D01*
X151229462Y-71464000D01*
X151273604Y-71468347D01*
G37*
G36*
X125743604Y-71468347D02*
G01*
X125780144Y-71479432D01*
X125813821Y-71497433D01*
X125843341Y-71521659D01*
X125867567Y-71551179D01*
X125885568Y-71584856D01*
X125896653Y-71621396D01*
X125901000Y-71665538D01*
X125901000Y-73114462D01*
X125896653Y-73158604D01*
X125885568Y-73195144D01*
X125867567Y-73228821D01*
X125843341Y-73258341D01*
X125813821Y-73282567D01*
X125780144Y-73300568D01*
X125743604Y-73311653D01*
X125699462Y-73316000D01*
X124750538Y-73316000D01*
X124706396Y-73311653D01*
X124669856Y-73300568D01*
X124636179Y-73282567D01*
X124606659Y-73258341D01*
X124582433Y-73228821D01*
X124564432Y-73195144D01*
X124553347Y-73158604D01*
X124549000Y-73114462D01*
X124549000Y-71665538D01*
X124553347Y-71621396D01*
X124564432Y-71584856D01*
X124582433Y-71551179D01*
X124606659Y-71521659D01*
X124636179Y-71497433D01*
X124669856Y-71479432D01*
X124706396Y-71468347D01*
X124750538Y-71464000D01*
X125699462Y-71464000D01*
X125743604Y-71468347D01*
G37*
M02*
