G04 #@! TF.GenerationSoftware,KiCad,Pcbnew,5.1.8+dfsg1-1+b1*
G04 #@! TF.CreationDate,2021-07-07T17:05:11-05:00*
G04 #@! TF.ProjectId,front-panel,66726f6e-742d-4706-916e-656c2e6b6963,B*
G04 #@! TF.SameCoordinates,Original*
G04 #@! TF.FileFunction,Soldermask,Bot*
G04 #@! TF.FilePolarity,Negative*
%FSLAX46Y46*%
G04 Gerber Fmt 4.6, Leading zero omitted, Abs format (unit mm)*
G04 Created by KiCad (PCBNEW 5.1.8+dfsg1-1+b1) date 2021-07-07 17:05:11*
%MOMM*%
%LPD*%
G01*
G04 APERTURE LIST*
G04 #@! TA.AperFunction,Profile*
%ADD10C,0.050000*%
G04 #@! TD*
%ADD11O,1.700000X1.700000*%
%ADD12R,1.700000X1.700000*%
%ADD13C,10.160000*%
%ADD14C,3.200000*%
G04 APERTURE END LIST*
D10*
X177800000Y-60325000D02*
X177800000Y-130810000D01*
X50800000Y-60325000D02*
X50800000Y-130810000D01*
X50800000Y-130810000D02*
X177800000Y-130810000D01*
X92710000Y-64770000D02*
G75*
G03*
X92710000Y-64770000I-2540000J0D01*
G01*
X156210000Y-64770000D02*
G75*
G03*
X156210000Y-64770000I-2540000J0D01*
G01*
X143510000Y-64770000D02*
G75*
G03*
X143510000Y-64770000I-2540000J0D01*
G01*
X130810000Y-64960500D02*
G75*
G03*
X130810000Y-64960500I-2540000J0D01*
G01*
X118110000Y-64770000D02*
G75*
G03*
X118110000Y-64770000I-2540000J0D01*
G01*
X105410000Y-64770000D02*
G75*
G03*
X105410000Y-64770000I-2540000J0D01*
G01*
X80010000Y-64770000D02*
G75*
G03*
X80010000Y-64770000I-2540000J0D01*
G01*
X67310000Y-64770000D02*
G75*
G03*
X67310000Y-64770000I-2540000J0D01*
G01*
X177800000Y-60325000D02*
X50800000Y-60325000D01*
D11*
X60960000Y-118110000D03*
X60960000Y-120650000D03*
D12*
X60960000Y-123190000D03*
G36*
G01*
X54980000Y-127644997D02*
X54980000Y-128895003D01*
G75*
G02*
X54730003Y-129145000I-249997J0D01*
G01*
X54104997Y-129145000D01*
G75*
G02*
X53855000Y-128895003I0J249997D01*
G01*
X53855000Y-127644997D01*
G75*
G02*
X54104997Y-127395000I249997J0D01*
G01*
X54730003Y-127395000D01*
G75*
G02*
X54980000Y-127644997I0J-249997D01*
G01*
G37*
G36*
G01*
X57905000Y-127644997D02*
X57905000Y-128895003D01*
G75*
G02*
X57655003Y-129145000I-249997J0D01*
G01*
X57029997Y-129145000D01*
G75*
G02*
X56780000Y-128895003I0J249997D01*
G01*
X56780000Y-127644997D01*
G75*
G02*
X57029997Y-127395000I249997J0D01*
G01*
X57655003Y-127395000D01*
G75*
G02*
X57905000Y-127644997I0J-249997D01*
G01*
G37*
G36*
G01*
X54980000Y-112404997D02*
X54980000Y-113655003D01*
G75*
G02*
X54730003Y-113905000I-249997J0D01*
G01*
X54104997Y-113905000D01*
G75*
G02*
X53855000Y-113655003I0J249997D01*
G01*
X53855000Y-112404997D01*
G75*
G02*
X54104997Y-112155000I249997J0D01*
G01*
X54730003Y-112155000D01*
G75*
G02*
X54980000Y-112404997I0J-249997D01*
G01*
G37*
G36*
G01*
X57905000Y-112404997D02*
X57905000Y-113655003D01*
G75*
G02*
X57655003Y-113905000I-249997J0D01*
G01*
X57029997Y-113905000D01*
G75*
G02*
X56780000Y-113655003I0J249997D01*
G01*
X56780000Y-112404997D01*
G75*
G02*
X57029997Y-112155000I249997J0D01*
G01*
X57655003Y-112155000D01*
G75*
G02*
X57905000Y-112404997I0J-249997D01*
G01*
G37*
D13*
X158750000Y-123825000D03*
X146050000Y-123825000D03*
X133350000Y-123825000D03*
X120650000Y-123825000D03*
X107950000Y-123825000D03*
X95250000Y-123825000D03*
X82550000Y-123825000D03*
X69850000Y-123825000D03*
D14*
X172720000Y-106045000D03*
X55880000Y-106045000D03*
D13*
X133350000Y-104775000D03*
X158750000Y-85725000D03*
X133350000Y-85725000D03*
X107950000Y-85725000D03*
X82550000Y-85725000D03*
X146050000Y-85725000D03*
X120650000Y-85725000D03*
X95250000Y-85725000D03*
X69850000Y-85725000D03*
X158750000Y-104775000D03*
X107950000Y-104775000D03*
X82550000Y-104775000D03*
X146050000Y-104775000D03*
X120650000Y-104775000D03*
X95250000Y-104775000D03*
X69850000Y-104775000D03*
D11*
X163830000Y-76200000D03*
X161290000Y-76200000D03*
X158750000Y-76200000D03*
X156210000Y-76200000D03*
X153670000Y-76200000D03*
X151130000Y-76200000D03*
X148590000Y-76200000D03*
X146050000Y-76200000D03*
X143510000Y-76200000D03*
X140970000Y-76200000D03*
X138430000Y-76200000D03*
X135890000Y-76200000D03*
X133350000Y-76200000D03*
X130810000Y-76200000D03*
X128270000Y-76200000D03*
X125730000Y-76200000D03*
X123190000Y-76200000D03*
X120650000Y-76200000D03*
X118110000Y-76200000D03*
X115570000Y-76200000D03*
X113030000Y-76200000D03*
X110490000Y-76200000D03*
X107950000Y-76200000D03*
X105410000Y-76200000D03*
X102870000Y-76200000D03*
X100330000Y-76200000D03*
X97790000Y-76200000D03*
X95250000Y-76200000D03*
X92710000Y-76200000D03*
X90170000Y-76200000D03*
X87630000Y-76200000D03*
X85090000Y-76200000D03*
X82550000Y-76200000D03*
X80010000Y-76200000D03*
X77470000Y-76200000D03*
X74930000Y-76200000D03*
X72390000Y-76200000D03*
X69850000Y-76200000D03*
X67310000Y-76200000D03*
D12*
X64770000Y-76200000D03*
M02*
