G04 #@! TF.GenerationSoftware,KiCad,Pcbnew,5.1.8+dfsg1-1+b1*
G04 #@! TF.CreationDate,2021-07-07T17:05:11-05:00*
G04 #@! TF.ProjectId,front-panel,66726f6e-742d-4706-916e-656c2e6b6963,B*
G04 #@! TF.SameCoordinates,Original*
G04 #@! TF.FileFunction,Copper,L2,Bot*
G04 #@! TF.FilePolarity,Positive*
%FSLAX46Y46*%
G04 Gerber Fmt 4.6, Leading zero omitted, Abs format (unit mm)*
G04 Created by KiCad (PCBNEW 5.1.8+dfsg1-1+b1) date 2021-07-07 17:05:11*
%MOMM*%
%LPD*%
G01*
G04 APERTURE LIST*
G04 #@! TA.AperFunction,Profile*
%ADD10C,0.050000*%
G04 #@! TD*
G04 #@! TA.AperFunction,ComponentPad*
%ADD11O,1.700000X1.700000*%
G04 #@! TD*
G04 #@! TA.AperFunction,ComponentPad*
%ADD12R,1.700000X1.700000*%
G04 #@! TD*
G04 #@! TA.AperFunction,ComponentPad*
%ADD13C,10.160000*%
G04 #@! TD*
G04 #@! TA.AperFunction,ViaPad*
%ADD14C,0.800000*%
G04 #@! TD*
G04 #@! TA.AperFunction,Conductor*
%ADD15C,0.762000*%
G04 #@! TD*
G04 #@! TA.AperFunction,Conductor*
%ADD16C,0.254000*%
G04 #@! TD*
G04 #@! TA.AperFunction,Conductor*
%ADD17C,0.100000*%
G04 #@! TD*
G04 APERTURE END LIST*
D10*
X177800000Y-60325000D02*
X177800000Y-130810000D01*
X50800000Y-60325000D02*
X50800000Y-130810000D01*
X50800000Y-130810000D02*
X177800000Y-130810000D01*
X92710000Y-64770000D02*
G75*
G03*
X92710000Y-64770000I-2540000J0D01*
G01*
X156210000Y-64770000D02*
G75*
G03*
X156210000Y-64770000I-2540000J0D01*
G01*
X143510000Y-64770000D02*
G75*
G03*
X143510000Y-64770000I-2540000J0D01*
G01*
X130810000Y-64960500D02*
G75*
G03*
X130810000Y-64960500I-2540000J0D01*
G01*
X118110000Y-64770000D02*
G75*
G03*
X118110000Y-64770000I-2540000J0D01*
G01*
X105410000Y-64770000D02*
G75*
G03*
X105410000Y-64770000I-2540000J0D01*
G01*
X80010000Y-64770000D02*
G75*
G03*
X80010000Y-64770000I-2540000J0D01*
G01*
X67310000Y-64770000D02*
G75*
G03*
X67310000Y-64770000I-2540000J0D01*
G01*
X177800000Y-60325000D02*
X50800000Y-60325000D01*
D11*
X60960000Y-118110000D03*
X60960000Y-120650000D03*
D12*
X60960000Y-123190000D03*
G04 #@! TA.AperFunction,SMDPad,CuDef*
G36*
G01*
X54980000Y-127644997D02*
X54980000Y-128895003D01*
G75*
G02*
X54730003Y-129145000I-249997J0D01*
G01*
X54104997Y-129145000D01*
G75*
G02*
X53855000Y-128895003I0J249997D01*
G01*
X53855000Y-127644997D01*
G75*
G02*
X54104997Y-127395000I249997J0D01*
G01*
X54730003Y-127395000D01*
G75*
G02*
X54980000Y-127644997I0J-249997D01*
G01*
G37*
G04 #@! TD.AperFunction*
G04 #@! TA.AperFunction,SMDPad,CuDef*
G36*
G01*
X57905000Y-127644997D02*
X57905000Y-128895003D01*
G75*
G02*
X57655003Y-129145000I-249997J0D01*
G01*
X57029997Y-129145000D01*
G75*
G02*
X56780000Y-128895003I0J249997D01*
G01*
X56780000Y-127644997D01*
G75*
G02*
X57029997Y-127395000I249997J0D01*
G01*
X57655003Y-127395000D01*
G75*
G02*
X57905000Y-127644997I0J-249997D01*
G01*
G37*
G04 #@! TD.AperFunction*
G04 #@! TA.AperFunction,SMDPad,CuDef*
G36*
G01*
X54980000Y-112404997D02*
X54980000Y-113655003D01*
G75*
G02*
X54730003Y-113905000I-249997J0D01*
G01*
X54104997Y-113905000D01*
G75*
G02*
X53855000Y-113655003I0J249997D01*
G01*
X53855000Y-112404997D01*
G75*
G02*
X54104997Y-112155000I249997J0D01*
G01*
X54730003Y-112155000D01*
G75*
G02*
X54980000Y-112404997I0J-249997D01*
G01*
G37*
G04 #@! TD.AperFunction*
G04 #@! TA.AperFunction,SMDPad,CuDef*
G36*
G01*
X57905000Y-112404997D02*
X57905000Y-113655003D01*
G75*
G02*
X57655003Y-113905000I-249997J0D01*
G01*
X57029997Y-113905000D01*
G75*
G02*
X56780000Y-113655003I0J249997D01*
G01*
X56780000Y-112404997D01*
G75*
G02*
X57029997Y-112155000I249997J0D01*
G01*
X57655003Y-112155000D01*
G75*
G02*
X57905000Y-112404997I0J-249997D01*
G01*
G37*
G04 #@! TD.AperFunction*
D13*
X158750000Y-123825000D03*
X146050000Y-123825000D03*
X133350000Y-123825000D03*
X120650000Y-123825000D03*
X107950000Y-123825000D03*
X95250000Y-123825000D03*
X82550000Y-123825000D03*
X69850000Y-123825000D03*
X133350000Y-104775000D03*
X158750000Y-85725000D03*
X133350000Y-85725000D03*
X107950000Y-85725000D03*
X82550000Y-85725000D03*
X146050000Y-85725000D03*
X120650000Y-85725000D03*
X95250000Y-85725000D03*
X69850000Y-85725000D03*
X158750000Y-104775000D03*
X107950000Y-104775000D03*
X82550000Y-104775000D03*
X146050000Y-104775000D03*
X120650000Y-104775000D03*
X95250000Y-104775000D03*
X69850000Y-104775000D03*
D11*
X163830000Y-76200000D03*
X161290000Y-76200000D03*
X158750000Y-76200000D03*
X156210000Y-76200000D03*
X153670000Y-76200000D03*
X151130000Y-76200000D03*
X148590000Y-76200000D03*
X146050000Y-76200000D03*
X143510000Y-76200000D03*
X140970000Y-76200000D03*
X138430000Y-76200000D03*
X135890000Y-76200000D03*
X133350000Y-76200000D03*
X130810000Y-76200000D03*
X128270000Y-76200000D03*
X125730000Y-76200000D03*
X123190000Y-76200000D03*
X120650000Y-76200000D03*
X118110000Y-76200000D03*
X115570000Y-76200000D03*
X113030000Y-76200000D03*
X110490000Y-76200000D03*
X107950000Y-76200000D03*
X105410000Y-76200000D03*
X102870000Y-76200000D03*
X100330000Y-76200000D03*
X97790000Y-76200000D03*
X95250000Y-76200000D03*
X92710000Y-76200000D03*
X90170000Y-76200000D03*
X87630000Y-76200000D03*
X85090000Y-76200000D03*
X82550000Y-76200000D03*
X80010000Y-76200000D03*
X77470000Y-76200000D03*
X74930000Y-76200000D03*
X72390000Y-76200000D03*
X69850000Y-76200000D03*
X67310000Y-76200000D03*
D12*
X64770000Y-76200000D03*
D14*
X52070000Y-113030000D03*
X52070000Y-128270000D03*
D15*
X163830000Y-76200000D02*
X163830000Y-81280000D01*
X163830000Y-81280000D02*
X165100000Y-82550000D01*
X165100000Y-98425000D02*
X158750000Y-104775000D01*
X165100000Y-98425000D02*
X165100000Y-82550000D01*
X57342500Y-114492500D02*
X60960000Y-118110000D01*
X57342500Y-113030000D02*
X57342500Y-114492500D01*
X57342500Y-113030000D02*
X61595000Y-108777500D01*
X61595000Y-76303398D02*
X63603398Y-74295000D01*
X61595000Y-108777500D02*
X61595000Y-76303398D01*
X67310000Y-74997919D02*
X67310000Y-76200000D01*
X66607081Y-74295000D02*
X67310000Y-74997919D01*
X63603398Y-74295000D02*
X66607081Y-74295000D01*
X153670001Y-80645001D02*
X158750000Y-85725000D01*
X153670000Y-76200000D02*
X153670001Y-80645001D01*
X152400000Y-98425000D02*
X146050000Y-104775000D01*
X151130000Y-76200000D02*
X151130000Y-81280000D01*
X151130000Y-81280000D02*
X152400000Y-82550000D01*
X152400000Y-82550000D02*
X152400000Y-98425000D01*
X140970001Y-80645001D02*
X146050000Y-85725000D01*
X140970000Y-76200000D02*
X140970001Y-80645001D01*
X128270001Y-80645001D02*
X133350000Y-85725000D01*
X128270000Y-76200000D02*
X128270001Y-80645001D01*
X127000000Y-98425000D02*
X120650000Y-104775000D01*
X125730000Y-76200000D02*
X125730000Y-81280000D01*
X125730000Y-81280000D02*
X127000000Y-82550000D01*
X127000000Y-82550000D02*
X127000000Y-98425000D01*
X115570001Y-80645001D02*
X120650000Y-85725000D01*
X115570001Y-76199999D02*
X115570001Y-80645001D01*
X115570000Y-76200000D02*
X115570001Y-76199999D01*
X114300000Y-98425000D02*
X107950000Y-104775000D01*
X113030000Y-76200000D02*
X113030000Y-81280000D01*
X113030000Y-81280000D02*
X114300000Y-82550000D01*
X114300000Y-82550000D02*
X114300000Y-98425000D01*
X102870001Y-80645001D02*
X107950000Y-85725000D01*
X102870000Y-76200000D02*
X102870001Y-80645001D01*
X101600000Y-98425000D02*
X95250000Y-104775000D01*
X100330000Y-76200000D02*
X100330000Y-81280000D01*
X100330000Y-81280000D02*
X101600000Y-82550000D01*
X101600000Y-82550000D02*
X101600000Y-98425000D01*
X90170001Y-80645001D02*
X95250000Y-85725000D01*
X90170000Y-76200000D02*
X90170001Y-80645001D01*
X88900000Y-98425000D02*
X82550000Y-104775000D01*
X87630000Y-76200000D02*
X87630000Y-81280000D01*
X87630000Y-81280000D02*
X88900000Y-82550000D01*
X88900000Y-82550000D02*
X88900000Y-98425000D01*
X77470001Y-80645001D02*
X82550000Y-85725000D01*
X77470000Y-76200000D02*
X77470001Y-80645001D01*
X76200000Y-98425000D02*
X69850000Y-104775000D01*
X74930000Y-76200000D02*
X74930000Y-81280000D01*
X74930000Y-81280000D02*
X76200000Y-82550000D01*
X76200000Y-82550000D02*
X76200000Y-98425000D01*
X64770001Y-80645001D02*
X69850000Y-85725000D01*
X64770000Y-76200000D02*
X64770001Y-80645001D01*
X133350000Y-104775000D02*
X139700000Y-98425000D01*
X138430000Y-76200000D02*
X138430000Y-81280000D01*
X138430000Y-81280000D02*
X139700000Y-82550000D01*
X139700000Y-82550000D02*
X139700000Y-98425000D01*
X54417500Y-113030000D02*
X52070000Y-113030000D01*
X52070000Y-128270000D02*
X54417500Y-128270000D01*
D16*
X59475000Y-118061841D02*
X59475000Y-118256260D01*
X59532068Y-118543158D01*
X59644010Y-118813411D01*
X59806525Y-119056632D01*
X60013368Y-119263475D01*
X60195534Y-119385195D01*
X60078645Y-119454822D01*
X59862412Y-119649731D01*
X59688359Y-119883080D01*
X59563175Y-120145901D01*
X59518524Y-120293110D01*
X59639845Y-120523000D01*
X60833000Y-120523000D01*
X60833000Y-120503000D01*
X61087000Y-120503000D01*
X61087000Y-120523000D01*
X62280155Y-120523000D01*
X62401476Y-120293110D01*
X62356825Y-120145901D01*
X62231641Y-119883080D01*
X62160576Y-119787804D01*
X65992409Y-119787804D01*
X69850000Y-123645395D01*
X73707591Y-119787804D01*
X78692409Y-119787804D01*
X82550000Y-123645395D01*
X86407591Y-119787804D01*
X91392409Y-119787804D01*
X95250000Y-123645395D01*
X99107591Y-119787804D01*
X104092409Y-119787804D01*
X107950000Y-123645395D01*
X111807591Y-119787804D01*
X116792409Y-119787804D01*
X120650000Y-123645395D01*
X124507591Y-119787804D01*
X129492409Y-119787804D01*
X133350000Y-123645395D01*
X137207591Y-119787804D01*
X142192409Y-119787804D01*
X146050000Y-123645395D01*
X149907591Y-119787804D01*
X154892409Y-119787804D01*
X158750000Y-123645395D01*
X162607591Y-119787804D01*
X162021876Y-119105584D01*
X161038296Y-118557955D01*
X159966777Y-118212735D01*
X158848499Y-118083192D01*
X157726435Y-118174303D01*
X156643706Y-118482567D01*
X155641921Y-118996137D01*
X155478124Y-119105584D01*
X154892409Y-119787804D01*
X149907591Y-119787804D01*
X149321876Y-119105584D01*
X148338296Y-118557955D01*
X147266777Y-118212735D01*
X146148499Y-118083192D01*
X145026435Y-118174303D01*
X143943706Y-118482567D01*
X142941921Y-118996137D01*
X142778124Y-119105584D01*
X142192409Y-119787804D01*
X137207591Y-119787804D01*
X136621876Y-119105584D01*
X135638296Y-118557955D01*
X134566777Y-118212735D01*
X133448499Y-118083192D01*
X132326435Y-118174303D01*
X131243706Y-118482567D01*
X130241921Y-118996137D01*
X130078124Y-119105584D01*
X129492409Y-119787804D01*
X124507591Y-119787804D01*
X123921876Y-119105584D01*
X122938296Y-118557955D01*
X121866777Y-118212735D01*
X120748499Y-118083192D01*
X119626435Y-118174303D01*
X118543706Y-118482567D01*
X117541921Y-118996137D01*
X117378124Y-119105584D01*
X116792409Y-119787804D01*
X111807591Y-119787804D01*
X111221876Y-119105584D01*
X110238296Y-118557955D01*
X109166777Y-118212735D01*
X108048499Y-118083192D01*
X106926435Y-118174303D01*
X105843706Y-118482567D01*
X104841921Y-118996137D01*
X104678124Y-119105584D01*
X104092409Y-119787804D01*
X99107591Y-119787804D01*
X98521876Y-119105584D01*
X97538296Y-118557955D01*
X96466777Y-118212735D01*
X95348499Y-118083192D01*
X94226435Y-118174303D01*
X93143706Y-118482567D01*
X92141921Y-118996137D01*
X91978124Y-119105584D01*
X91392409Y-119787804D01*
X86407591Y-119787804D01*
X85821876Y-119105584D01*
X84838296Y-118557955D01*
X83766777Y-118212735D01*
X82648499Y-118083192D01*
X81526435Y-118174303D01*
X80443706Y-118482567D01*
X79441921Y-118996137D01*
X79278124Y-119105584D01*
X78692409Y-119787804D01*
X73707591Y-119787804D01*
X73121876Y-119105584D01*
X72138296Y-118557955D01*
X71066777Y-118212735D01*
X69948499Y-118083192D01*
X68826435Y-118174303D01*
X67743706Y-118482567D01*
X66741921Y-118996137D01*
X66578124Y-119105584D01*
X65992409Y-119787804D01*
X62160576Y-119787804D01*
X62057588Y-119649731D01*
X61841355Y-119454822D01*
X61724466Y-119385195D01*
X61906632Y-119263475D01*
X62113475Y-119056632D01*
X62275990Y-118813411D01*
X62387932Y-118543158D01*
X62445000Y-118256260D01*
X62445000Y-117963740D01*
X62387932Y-117676842D01*
X62275990Y-117406589D01*
X62113475Y-117163368D01*
X61906632Y-116956525D01*
X61663411Y-116794010D01*
X61393158Y-116682068D01*
X61106260Y-116625000D01*
X60911841Y-116625000D01*
X59983841Y-115697000D01*
X177140001Y-115697000D01*
X177140001Y-130150000D01*
X51460000Y-130150000D01*
X51460000Y-129107195D01*
X51579744Y-129187205D01*
X51768102Y-129265226D01*
X51968061Y-129305000D01*
X52171939Y-129305000D01*
X52267459Y-129286000D01*
X53311867Y-129286000D01*
X53366595Y-129388388D01*
X53477037Y-129522963D01*
X53611612Y-129633405D01*
X53765148Y-129715472D01*
X53931743Y-129766008D01*
X54104997Y-129783072D01*
X54730003Y-129783072D01*
X54903257Y-129766008D01*
X55069852Y-129715472D01*
X55223388Y-129633405D01*
X55357963Y-129522963D01*
X55468405Y-129388388D01*
X55550472Y-129234852D01*
X55577728Y-129145000D01*
X56141928Y-129145000D01*
X56154188Y-129269482D01*
X56190498Y-129389180D01*
X56249463Y-129499494D01*
X56328815Y-129596185D01*
X56425506Y-129675537D01*
X56535820Y-129734502D01*
X56655518Y-129770812D01*
X56780000Y-129783072D01*
X57056750Y-129780000D01*
X57215500Y-129621250D01*
X57215500Y-128397000D01*
X57469500Y-128397000D01*
X57469500Y-129621250D01*
X57628250Y-129780000D01*
X57905000Y-129783072D01*
X58029482Y-129770812D01*
X58149180Y-129734502D01*
X58259494Y-129675537D01*
X58356185Y-129596185D01*
X58435537Y-129499494D01*
X58494502Y-129389180D01*
X58530812Y-129269482D01*
X58543072Y-129145000D01*
X58540000Y-128555750D01*
X58381250Y-128397000D01*
X57469500Y-128397000D01*
X57215500Y-128397000D01*
X56303750Y-128397000D01*
X56145000Y-128555750D01*
X56141928Y-129145000D01*
X55577728Y-129145000D01*
X55601008Y-129068257D01*
X55618072Y-128895003D01*
X55618072Y-127644997D01*
X55601008Y-127471743D01*
X55577729Y-127395000D01*
X56141928Y-127395000D01*
X56145000Y-127984250D01*
X56303750Y-128143000D01*
X57215500Y-128143000D01*
X57215500Y-126918750D01*
X57469500Y-126918750D01*
X57469500Y-128143000D01*
X58381250Y-128143000D01*
X58540000Y-127984250D01*
X58540636Y-127862196D01*
X65992409Y-127862196D01*
X66578124Y-128544416D01*
X67561704Y-129092045D01*
X68633223Y-129437265D01*
X69751501Y-129566808D01*
X70873565Y-129475697D01*
X71956294Y-129167433D01*
X72958079Y-128653863D01*
X73121876Y-128544416D01*
X73707591Y-127862196D01*
X78692409Y-127862196D01*
X79278124Y-128544416D01*
X80261704Y-129092045D01*
X81333223Y-129437265D01*
X82451501Y-129566808D01*
X83573565Y-129475697D01*
X84656294Y-129167433D01*
X85658079Y-128653863D01*
X85821876Y-128544416D01*
X86407591Y-127862196D01*
X91392409Y-127862196D01*
X91978124Y-128544416D01*
X92961704Y-129092045D01*
X94033223Y-129437265D01*
X95151501Y-129566808D01*
X96273565Y-129475697D01*
X97356294Y-129167433D01*
X98358079Y-128653863D01*
X98521876Y-128544416D01*
X99107591Y-127862196D01*
X104092409Y-127862196D01*
X104678124Y-128544416D01*
X105661704Y-129092045D01*
X106733223Y-129437265D01*
X107851501Y-129566808D01*
X108973565Y-129475697D01*
X110056294Y-129167433D01*
X111058079Y-128653863D01*
X111221876Y-128544416D01*
X111807591Y-127862196D01*
X116792409Y-127862196D01*
X117378124Y-128544416D01*
X118361704Y-129092045D01*
X119433223Y-129437265D01*
X120551501Y-129566808D01*
X121673565Y-129475697D01*
X122756294Y-129167433D01*
X123758079Y-128653863D01*
X123921876Y-128544416D01*
X124507591Y-127862196D01*
X129492409Y-127862196D01*
X130078124Y-128544416D01*
X131061704Y-129092045D01*
X132133223Y-129437265D01*
X133251501Y-129566808D01*
X134373565Y-129475697D01*
X135456294Y-129167433D01*
X136458079Y-128653863D01*
X136621876Y-128544416D01*
X137207591Y-127862196D01*
X142192409Y-127862196D01*
X142778124Y-128544416D01*
X143761704Y-129092045D01*
X144833223Y-129437265D01*
X145951501Y-129566808D01*
X147073565Y-129475697D01*
X148156294Y-129167433D01*
X149158079Y-128653863D01*
X149321876Y-128544416D01*
X149907591Y-127862196D01*
X154892409Y-127862196D01*
X155478124Y-128544416D01*
X156461704Y-129092045D01*
X157533223Y-129437265D01*
X158651501Y-129566808D01*
X159773565Y-129475697D01*
X160856294Y-129167433D01*
X161858079Y-128653863D01*
X162021876Y-128544416D01*
X162607591Y-127862196D01*
X158750000Y-124004605D01*
X154892409Y-127862196D01*
X149907591Y-127862196D01*
X146050000Y-124004605D01*
X142192409Y-127862196D01*
X137207591Y-127862196D01*
X133350000Y-124004605D01*
X129492409Y-127862196D01*
X124507591Y-127862196D01*
X120650000Y-124004605D01*
X116792409Y-127862196D01*
X111807591Y-127862196D01*
X107950000Y-124004605D01*
X104092409Y-127862196D01*
X99107591Y-127862196D01*
X95250000Y-124004605D01*
X91392409Y-127862196D01*
X86407591Y-127862196D01*
X82550000Y-124004605D01*
X78692409Y-127862196D01*
X73707591Y-127862196D01*
X69850000Y-124004605D01*
X65992409Y-127862196D01*
X58540636Y-127862196D01*
X58543072Y-127395000D01*
X58530812Y-127270518D01*
X58494502Y-127150820D01*
X58435537Y-127040506D01*
X58356185Y-126943815D01*
X58259494Y-126864463D01*
X58149180Y-126805498D01*
X58029482Y-126769188D01*
X57905000Y-126756928D01*
X57628250Y-126760000D01*
X57469500Y-126918750D01*
X57215500Y-126918750D01*
X57056750Y-126760000D01*
X56780000Y-126756928D01*
X56655518Y-126769188D01*
X56535820Y-126805498D01*
X56425506Y-126864463D01*
X56328815Y-126943815D01*
X56249463Y-127040506D01*
X56190498Y-127150820D01*
X56154188Y-127270518D01*
X56141928Y-127395000D01*
X55577729Y-127395000D01*
X55550472Y-127305148D01*
X55468405Y-127151612D01*
X55357963Y-127017037D01*
X55223388Y-126906595D01*
X55069852Y-126824528D01*
X54903257Y-126773992D01*
X54730003Y-126756928D01*
X54104997Y-126756928D01*
X53931743Y-126773992D01*
X53765148Y-126824528D01*
X53611612Y-126906595D01*
X53477037Y-127017037D01*
X53366595Y-127151612D01*
X53311867Y-127254000D01*
X52267459Y-127254000D01*
X52171939Y-127235000D01*
X51968061Y-127235000D01*
X51768102Y-127274774D01*
X51579744Y-127352795D01*
X51460000Y-127432805D01*
X51460000Y-122340000D01*
X59471928Y-122340000D01*
X59471928Y-124040000D01*
X59484188Y-124164482D01*
X59520498Y-124284180D01*
X59579463Y-124394494D01*
X59658815Y-124491185D01*
X59755506Y-124570537D01*
X59865820Y-124629502D01*
X59985518Y-124665812D01*
X60110000Y-124678072D01*
X61810000Y-124678072D01*
X61934482Y-124665812D01*
X62054180Y-124629502D01*
X62164494Y-124570537D01*
X62261185Y-124491185D01*
X62340537Y-124394494D01*
X62399502Y-124284180D01*
X62435812Y-124164482D01*
X62448072Y-124040000D01*
X62448072Y-123726501D01*
X64108192Y-123726501D01*
X64199303Y-124848565D01*
X64507567Y-125931294D01*
X65021137Y-126933079D01*
X65130584Y-127096876D01*
X65812804Y-127682591D01*
X69670395Y-123825000D01*
X70029605Y-123825000D01*
X73887196Y-127682591D01*
X74569416Y-127096876D01*
X75117045Y-126113296D01*
X75462265Y-125041777D01*
X75591808Y-123923499D01*
X75575812Y-123726501D01*
X76808192Y-123726501D01*
X76899303Y-124848565D01*
X77207567Y-125931294D01*
X77721137Y-126933079D01*
X77830584Y-127096876D01*
X78512804Y-127682591D01*
X82370395Y-123825000D01*
X82729605Y-123825000D01*
X86587196Y-127682591D01*
X87269416Y-127096876D01*
X87817045Y-126113296D01*
X88162265Y-125041777D01*
X88291808Y-123923499D01*
X88275812Y-123726501D01*
X89508192Y-123726501D01*
X89599303Y-124848565D01*
X89907567Y-125931294D01*
X90421137Y-126933079D01*
X90530584Y-127096876D01*
X91212804Y-127682591D01*
X95070395Y-123825000D01*
X95429605Y-123825000D01*
X99287196Y-127682591D01*
X99969416Y-127096876D01*
X100517045Y-126113296D01*
X100862265Y-125041777D01*
X100991808Y-123923499D01*
X100975812Y-123726501D01*
X102208192Y-123726501D01*
X102299303Y-124848565D01*
X102607567Y-125931294D01*
X103121137Y-126933079D01*
X103230584Y-127096876D01*
X103912804Y-127682591D01*
X107770395Y-123825000D01*
X108129605Y-123825000D01*
X111987196Y-127682591D01*
X112669416Y-127096876D01*
X113217045Y-126113296D01*
X113562265Y-125041777D01*
X113691808Y-123923499D01*
X113675812Y-123726501D01*
X114908192Y-123726501D01*
X114999303Y-124848565D01*
X115307567Y-125931294D01*
X115821137Y-126933079D01*
X115930584Y-127096876D01*
X116612804Y-127682591D01*
X120470395Y-123825000D01*
X120829605Y-123825000D01*
X124687196Y-127682591D01*
X125369416Y-127096876D01*
X125917045Y-126113296D01*
X126262265Y-125041777D01*
X126391808Y-123923499D01*
X126375812Y-123726501D01*
X127608192Y-123726501D01*
X127699303Y-124848565D01*
X128007567Y-125931294D01*
X128521137Y-126933079D01*
X128630584Y-127096876D01*
X129312804Y-127682591D01*
X133170395Y-123825000D01*
X133529605Y-123825000D01*
X137387196Y-127682591D01*
X138069416Y-127096876D01*
X138617045Y-126113296D01*
X138962265Y-125041777D01*
X139091808Y-123923499D01*
X139075812Y-123726501D01*
X140308192Y-123726501D01*
X140399303Y-124848565D01*
X140707567Y-125931294D01*
X141221137Y-126933079D01*
X141330584Y-127096876D01*
X142012804Y-127682591D01*
X145870395Y-123825000D01*
X146229605Y-123825000D01*
X150087196Y-127682591D01*
X150769416Y-127096876D01*
X151317045Y-126113296D01*
X151662265Y-125041777D01*
X151791808Y-123923499D01*
X151775812Y-123726501D01*
X153008192Y-123726501D01*
X153099303Y-124848565D01*
X153407567Y-125931294D01*
X153921137Y-126933079D01*
X154030584Y-127096876D01*
X154712804Y-127682591D01*
X158570395Y-123825000D01*
X158929605Y-123825000D01*
X162787196Y-127682591D01*
X163469416Y-127096876D01*
X164017045Y-126113296D01*
X164362265Y-125041777D01*
X164491808Y-123923499D01*
X164400697Y-122801435D01*
X164092433Y-121718706D01*
X163578863Y-120716921D01*
X163469416Y-120553124D01*
X162787196Y-119967409D01*
X158929605Y-123825000D01*
X158570395Y-123825000D01*
X154712804Y-119967409D01*
X154030584Y-120553124D01*
X153482955Y-121536704D01*
X153137735Y-122608223D01*
X153008192Y-123726501D01*
X151775812Y-123726501D01*
X151700697Y-122801435D01*
X151392433Y-121718706D01*
X150878863Y-120716921D01*
X150769416Y-120553124D01*
X150087196Y-119967409D01*
X146229605Y-123825000D01*
X145870395Y-123825000D01*
X142012804Y-119967409D01*
X141330584Y-120553124D01*
X140782955Y-121536704D01*
X140437735Y-122608223D01*
X140308192Y-123726501D01*
X139075812Y-123726501D01*
X139000697Y-122801435D01*
X138692433Y-121718706D01*
X138178863Y-120716921D01*
X138069416Y-120553124D01*
X137387196Y-119967409D01*
X133529605Y-123825000D01*
X133170395Y-123825000D01*
X129312804Y-119967409D01*
X128630584Y-120553124D01*
X128082955Y-121536704D01*
X127737735Y-122608223D01*
X127608192Y-123726501D01*
X126375812Y-123726501D01*
X126300697Y-122801435D01*
X125992433Y-121718706D01*
X125478863Y-120716921D01*
X125369416Y-120553124D01*
X124687196Y-119967409D01*
X120829605Y-123825000D01*
X120470395Y-123825000D01*
X116612804Y-119967409D01*
X115930584Y-120553124D01*
X115382955Y-121536704D01*
X115037735Y-122608223D01*
X114908192Y-123726501D01*
X113675812Y-123726501D01*
X113600697Y-122801435D01*
X113292433Y-121718706D01*
X112778863Y-120716921D01*
X112669416Y-120553124D01*
X111987196Y-119967409D01*
X108129605Y-123825000D01*
X107770395Y-123825000D01*
X103912804Y-119967409D01*
X103230584Y-120553124D01*
X102682955Y-121536704D01*
X102337735Y-122608223D01*
X102208192Y-123726501D01*
X100975812Y-123726501D01*
X100900697Y-122801435D01*
X100592433Y-121718706D01*
X100078863Y-120716921D01*
X99969416Y-120553124D01*
X99287196Y-119967409D01*
X95429605Y-123825000D01*
X95070395Y-123825000D01*
X91212804Y-119967409D01*
X90530584Y-120553124D01*
X89982955Y-121536704D01*
X89637735Y-122608223D01*
X89508192Y-123726501D01*
X88275812Y-123726501D01*
X88200697Y-122801435D01*
X87892433Y-121718706D01*
X87378863Y-120716921D01*
X87269416Y-120553124D01*
X86587196Y-119967409D01*
X82729605Y-123825000D01*
X82370395Y-123825000D01*
X78512804Y-119967409D01*
X77830584Y-120553124D01*
X77282955Y-121536704D01*
X76937735Y-122608223D01*
X76808192Y-123726501D01*
X75575812Y-123726501D01*
X75500697Y-122801435D01*
X75192433Y-121718706D01*
X74678863Y-120716921D01*
X74569416Y-120553124D01*
X73887196Y-119967409D01*
X70029605Y-123825000D01*
X69670395Y-123825000D01*
X65812804Y-119967409D01*
X65130584Y-120553124D01*
X64582955Y-121536704D01*
X64237735Y-122608223D01*
X64108192Y-123726501D01*
X62448072Y-123726501D01*
X62448072Y-122340000D01*
X62435812Y-122215518D01*
X62399502Y-122095820D01*
X62340537Y-121985506D01*
X62261185Y-121888815D01*
X62164494Y-121809463D01*
X62054180Y-121750498D01*
X61973534Y-121726034D01*
X62057588Y-121650269D01*
X62231641Y-121416920D01*
X62356825Y-121154099D01*
X62401476Y-121006890D01*
X62280155Y-120777000D01*
X61087000Y-120777000D01*
X61087000Y-120797000D01*
X60833000Y-120797000D01*
X60833000Y-120777000D01*
X59639845Y-120777000D01*
X59518524Y-121006890D01*
X59563175Y-121154099D01*
X59688359Y-121416920D01*
X59862412Y-121650269D01*
X59946466Y-121726034D01*
X59865820Y-121750498D01*
X59755506Y-121809463D01*
X59658815Y-121888815D01*
X59579463Y-121985506D01*
X59520498Y-122095820D01*
X59484188Y-122215518D01*
X59471928Y-122340000D01*
X51460000Y-122340000D01*
X51460000Y-115697000D01*
X57110160Y-115697000D01*
X59475000Y-118061841D01*
G04 #@! TA.AperFunction,Conductor*
D17*
G36*
X59475000Y-118061841D02*
G01*
X59475000Y-118256260D01*
X59532068Y-118543158D01*
X59644010Y-118813411D01*
X59806525Y-119056632D01*
X60013368Y-119263475D01*
X60195534Y-119385195D01*
X60078645Y-119454822D01*
X59862412Y-119649731D01*
X59688359Y-119883080D01*
X59563175Y-120145901D01*
X59518524Y-120293110D01*
X59639845Y-120523000D01*
X60833000Y-120523000D01*
X60833000Y-120503000D01*
X61087000Y-120503000D01*
X61087000Y-120523000D01*
X62280155Y-120523000D01*
X62401476Y-120293110D01*
X62356825Y-120145901D01*
X62231641Y-119883080D01*
X62160576Y-119787804D01*
X65992409Y-119787804D01*
X69850000Y-123645395D01*
X73707591Y-119787804D01*
X78692409Y-119787804D01*
X82550000Y-123645395D01*
X86407591Y-119787804D01*
X91392409Y-119787804D01*
X95250000Y-123645395D01*
X99107591Y-119787804D01*
X104092409Y-119787804D01*
X107950000Y-123645395D01*
X111807591Y-119787804D01*
X116792409Y-119787804D01*
X120650000Y-123645395D01*
X124507591Y-119787804D01*
X129492409Y-119787804D01*
X133350000Y-123645395D01*
X137207591Y-119787804D01*
X142192409Y-119787804D01*
X146050000Y-123645395D01*
X149907591Y-119787804D01*
X154892409Y-119787804D01*
X158750000Y-123645395D01*
X162607591Y-119787804D01*
X162021876Y-119105584D01*
X161038296Y-118557955D01*
X159966777Y-118212735D01*
X158848499Y-118083192D01*
X157726435Y-118174303D01*
X156643706Y-118482567D01*
X155641921Y-118996137D01*
X155478124Y-119105584D01*
X154892409Y-119787804D01*
X149907591Y-119787804D01*
X149321876Y-119105584D01*
X148338296Y-118557955D01*
X147266777Y-118212735D01*
X146148499Y-118083192D01*
X145026435Y-118174303D01*
X143943706Y-118482567D01*
X142941921Y-118996137D01*
X142778124Y-119105584D01*
X142192409Y-119787804D01*
X137207591Y-119787804D01*
X136621876Y-119105584D01*
X135638296Y-118557955D01*
X134566777Y-118212735D01*
X133448499Y-118083192D01*
X132326435Y-118174303D01*
X131243706Y-118482567D01*
X130241921Y-118996137D01*
X130078124Y-119105584D01*
X129492409Y-119787804D01*
X124507591Y-119787804D01*
X123921876Y-119105584D01*
X122938296Y-118557955D01*
X121866777Y-118212735D01*
X120748499Y-118083192D01*
X119626435Y-118174303D01*
X118543706Y-118482567D01*
X117541921Y-118996137D01*
X117378124Y-119105584D01*
X116792409Y-119787804D01*
X111807591Y-119787804D01*
X111221876Y-119105584D01*
X110238296Y-118557955D01*
X109166777Y-118212735D01*
X108048499Y-118083192D01*
X106926435Y-118174303D01*
X105843706Y-118482567D01*
X104841921Y-118996137D01*
X104678124Y-119105584D01*
X104092409Y-119787804D01*
X99107591Y-119787804D01*
X98521876Y-119105584D01*
X97538296Y-118557955D01*
X96466777Y-118212735D01*
X95348499Y-118083192D01*
X94226435Y-118174303D01*
X93143706Y-118482567D01*
X92141921Y-118996137D01*
X91978124Y-119105584D01*
X91392409Y-119787804D01*
X86407591Y-119787804D01*
X85821876Y-119105584D01*
X84838296Y-118557955D01*
X83766777Y-118212735D01*
X82648499Y-118083192D01*
X81526435Y-118174303D01*
X80443706Y-118482567D01*
X79441921Y-118996137D01*
X79278124Y-119105584D01*
X78692409Y-119787804D01*
X73707591Y-119787804D01*
X73121876Y-119105584D01*
X72138296Y-118557955D01*
X71066777Y-118212735D01*
X69948499Y-118083192D01*
X68826435Y-118174303D01*
X67743706Y-118482567D01*
X66741921Y-118996137D01*
X66578124Y-119105584D01*
X65992409Y-119787804D01*
X62160576Y-119787804D01*
X62057588Y-119649731D01*
X61841355Y-119454822D01*
X61724466Y-119385195D01*
X61906632Y-119263475D01*
X62113475Y-119056632D01*
X62275990Y-118813411D01*
X62387932Y-118543158D01*
X62445000Y-118256260D01*
X62445000Y-117963740D01*
X62387932Y-117676842D01*
X62275990Y-117406589D01*
X62113475Y-117163368D01*
X61906632Y-116956525D01*
X61663411Y-116794010D01*
X61393158Y-116682068D01*
X61106260Y-116625000D01*
X60911841Y-116625000D01*
X59983841Y-115697000D01*
X177140001Y-115697000D01*
X177140001Y-130150000D01*
X51460000Y-130150000D01*
X51460000Y-129107195D01*
X51579744Y-129187205D01*
X51768102Y-129265226D01*
X51968061Y-129305000D01*
X52171939Y-129305000D01*
X52267459Y-129286000D01*
X53311867Y-129286000D01*
X53366595Y-129388388D01*
X53477037Y-129522963D01*
X53611612Y-129633405D01*
X53765148Y-129715472D01*
X53931743Y-129766008D01*
X54104997Y-129783072D01*
X54730003Y-129783072D01*
X54903257Y-129766008D01*
X55069852Y-129715472D01*
X55223388Y-129633405D01*
X55357963Y-129522963D01*
X55468405Y-129388388D01*
X55550472Y-129234852D01*
X55577728Y-129145000D01*
X56141928Y-129145000D01*
X56154188Y-129269482D01*
X56190498Y-129389180D01*
X56249463Y-129499494D01*
X56328815Y-129596185D01*
X56425506Y-129675537D01*
X56535820Y-129734502D01*
X56655518Y-129770812D01*
X56780000Y-129783072D01*
X57056750Y-129780000D01*
X57215500Y-129621250D01*
X57215500Y-128397000D01*
X57469500Y-128397000D01*
X57469500Y-129621250D01*
X57628250Y-129780000D01*
X57905000Y-129783072D01*
X58029482Y-129770812D01*
X58149180Y-129734502D01*
X58259494Y-129675537D01*
X58356185Y-129596185D01*
X58435537Y-129499494D01*
X58494502Y-129389180D01*
X58530812Y-129269482D01*
X58543072Y-129145000D01*
X58540000Y-128555750D01*
X58381250Y-128397000D01*
X57469500Y-128397000D01*
X57215500Y-128397000D01*
X56303750Y-128397000D01*
X56145000Y-128555750D01*
X56141928Y-129145000D01*
X55577728Y-129145000D01*
X55601008Y-129068257D01*
X55618072Y-128895003D01*
X55618072Y-127644997D01*
X55601008Y-127471743D01*
X55577729Y-127395000D01*
X56141928Y-127395000D01*
X56145000Y-127984250D01*
X56303750Y-128143000D01*
X57215500Y-128143000D01*
X57215500Y-126918750D01*
X57469500Y-126918750D01*
X57469500Y-128143000D01*
X58381250Y-128143000D01*
X58540000Y-127984250D01*
X58540636Y-127862196D01*
X65992409Y-127862196D01*
X66578124Y-128544416D01*
X67561704Y-129092045D01*
X68633223Y-129437265D01*
X69751501Y-129566808D01*
X70873565Y-129475697D01*
X71956294Y-129167433D01*
X72958079Y-128653863D01*
X73121876Y-128544416D01*
X73707591Y-127862196D01*
X78692409Y-127862196D01*
X79278124Y-128544416D01*
X80261704Y-129092045D01*
X81333223Y-129437265D01*
X82451501Y-129566808D01*
X83573565Y-129475697D01*
X84656294Y-129167433D01*
X85658079Y-128653863D01*
X85821876Y-128544416D01*
X86407591Y-127862196D01*
X91392409Y-127862196D01*
X91978124Y-128544416D01*
X92961704Y-129092045D01*
X94033223Y-129437265D01*
X95151501Y-129566808D01*
X96273565Y-129475697D01*
X97356294Y-129167433D01*
X98358079Y-128653863D01*
X98521876Y-128544416D01*
X99107591Y-127862196D01*
X104092409Y-127862196D01*
X104678124Y-128544416D01*
X105661704Y-129092045D01*
X106733223Y-129437265D01*
X107851501Y-129566808D01*
X108973565Y-129475697D01*
X110056294Y-129167433D01*
X111058079Y-128653863D01*
X111221876Y-128544416D01*
X111807591Y-127862196D01*
X116792409Y-127862196D01*
X117378124Y-128544416D01*
X118361704Y-129092045D01*
X119433223Y-129437265D01*
X120551501Y-129566808D01*
X121673565Y-129475697D01*
X122756294Y-129167433D01*
X123758079Y-128653863D01*
X123921876Y-128544416D01*
X124507591Y-127862196D01*
X129492409Y-127862196D01*
X130078124Y-128544416D01*
X131061704Y-129092045D01*
X132133223Y-129437265D01*
X133251501Y-129566808D01*
X134373565Y-129475697D01*
X135456294Y-129167433D01*
X136458079Y-128653863D01*
X136621876Y-128544416D01*
X137207591Y-127862196D01*
X142192409Y-127862196D01*
X142778124Y-128544416D01*
X143761704Y-129092045D01*
X144833223Y-129437265D01*
X145951501Y-129566808D01*
X147073565Y-129475697D01*
X148156294Y-129167433D01*
X149158079Y-128653863D01*
X149321876Y-128544416D01*
X149907591Y-127862196D01*
X154892409Y-127862196D01*
X155478124Y-128544416D01*
X156461704Y-129092045D01*
X157533223Y-129437265D01*
X158651501Y-129566808D01*
X159773565Y-129475697D01*
X160856294Y-129167433D01*
X161858079Y-128653863D01*
X162021876Y-128544416D01*
X162607591Y-127862196D01*
X158750000Y-124004605D01*
X154892409Y-127862196D01*
X149907591Y-127862196D01*
X146050000Y-124004605D01*
X142192409Y-127862196D01*
X137207591Y-127862196D01*
X133350000Y-124004605D01*
X129492409Y-127862196D01*
X124507591Y-127862196D01*
X120650000Y-124004605D01*
X116792409Y-127862196D01*
X111807591Y-127862196D01*
X107950000Y-124004605D01*
X104092409Y-127862196D01*
X99107591Y-127862196D01*
X95250000Y-124004605D01*
X91392409Y-127862196D01*
X86407591Y-127862196D01*
X82550000Y-124004605D01*
X78692409Y-127862196D01*
X73707591Y-127862196D01*
X69850000Y-124004605D01*
X65992409Y-127862196D01*
X58540636Y-127862196D01*
X58543072Y-127395000D01*
X58530812Y-127270518D01*
X58494502Y-127150820D01*
X58435537Y-127040506D01*
X58356185Y-126943815D01*
X58259494Y-126864463D01*
X58149180Y-126805498D01*
X58029482Y-126769188D01*
X57905000Y-126756928D01*
X57628250Y-126760000D01*
X57469500Y-126918750D01*
X57215500Y-126918750D01*
X57056750Y-126760000D01*
X56780000Y-126756928D01*
X56655518Y-126769188D01*
X56535820Y-126805498D01*
X56425506Y-126864463D01*
X56328815Y-126943815D01*
X56249463Y-127040506D01*
X56190498Y-127150820D01*
X56154188Y-127270518D01*
X56141928Y-127395000D01*
X55577729Y-127395000D01*
X55550472Y-127305148D01*
X55468405Y-127151612D01*
X55357963Y-127017037D01*
X55223388Y-126906595D01*
X55069852Y-126824528D01*
X54903257Y-126773992D01*
X54730003Y-126756928D01*
X54104997Y-126756928D01*
X53931743Y-126773992D01*
X53765148Y-126824528D01*
X53611612Y-126906595D01*
X53477037Y-127017037D01*
X53366595Y-127151612D01*
X53311867Y-127254000D01*
X52267459Y-127254000D01*
X52171939Y-127235000D01*
X51968061Y-127235000D01*
X51768102Y-127274774D01*
X51579744Y-127352795D01*
X51460000Y-127432805D01*
X51460000Y-122340000D01*
X59471928Y-122340000D01*
X59471928Y-124040000D01*
X59484188Y-124164482D01*
X59520498Y-124284180D01*
X59579463Y-124394494D01*
X59658815Y-124491185D01*
X59755506Y-124570537D01*
X59865820Y-124629502D01*
X59985518Y-124665812D01*
X60110000Y-124678072D01*
X61810000Y-124678072D01*
X61934482Y-124665812D01*
X62054180Y-124629502D01*
X62164494Y-124570537D01*
X62261185Y-124491185D01*
X62340537Y-124394494D01*
X62399502Y-124284180D01*
X62435812Y-124164482D01*
X62448072Y-124040000D01*
X62448072Y-123726501D01*
X64108192Y-123726501D01*
X64199303Y-124848565D01*
X64507567Y-125931294D01*
X65021137Y-126933079D01*
X65130584Y-127096876D01*
X65812804Y-127682591D01*
X69670395Y-123825000D01*
X70029605Y-123825000D01*
X73887196Y-127682591D01*
X74569416Y-127096876D01*
X75117045Y-126113296D01*
X75462265Y-125041777D01*
X75591808Y-123923499D01*
X75575812Y-123726501D01*
X76808192Y-123726501D01*
X76899303Y-124848565D01*
X77207567Y-125931294D01*
X77721137Y-126933079D01*
X77830584Y-127096876D01*
X78512804Y-127682591D01*
X82370395Y-123825000D01*
X82729605Y-123825000D01*
X86587196Y-127682591D01*
X87269416Y-127096876D01*
X87817045Y-126113296D01*
X88162265Y-125041777D01*
X88291808Y-123923499D01*
X88275812Y-123726501D01*
X89508192Y-123726501D01*
X89599303Y-124848565D01*
X89907567Y-125931294D01*
X90421137Y-126933079D01*
X90530584Y-127096876D01*
X91212804Y-127682591D01*
X95070395Y-123825000D01*
X95429605Y-123825000D01*
X99287196Y-127682591D01*
X99969416Y-127096876D01*
X100517045Y-126113296D01*
X100862265Y-125041777D01*
X100991808Y-123923499D01*
X100975812Y-123726501D01*
X102208192Y-123726501D01*
X102299303Y-124848565D01*
X102607567Y-125931294D01*
X103121137Y-126933079D01*
X103230584Y-127096876D01*
X103912804Y-127682591D01*
X107770395Y-123825000D01*
X108129605Y-123825000D01*
X111987196Y-127682591D01*
X112669416Y-127096876D01*
X113217045Y-126113296D01*
X113562265Y-125041777D01*
X113691808Y-123923499D01*
X113675812Y-123726501D01*
X114908192Y-123726501D01*
X114999303Y-124848565D01*
X115307567Y-125931294D01*
X115821137Y-126933079D01*
X115930584Y-127096876D01*
X116612804Y-127682591D01*
X120470395Y-123825000D01*
X120829605Y-123825000D01*
X124687196Y-127682591D01*
X125369416Y-127096876D01*
X125917045Y-126113296D01*
X126262265Y-125041777D01*
X126391808Y-123923499D01*
X126375812Y-123726501D01*
X127608192Y-123726501D01*
X127699303Y-124848565D01*
X128007567Y-125931294D01*
X128521137Y-126933079D01*
X128630584Y-127096876D01*
X129312804Y-127682591D01*
X133170395Y-123825000D01*
X133529605Y-123825000D01*
X137387196Y-127682591D01*
X138069416Y-127096876D01*
X138617045Y-126113296D01*
X138962265Y-125041777D01*
X139091808Y-123923499D01*
X139075812Y-123726501D01*
X140308192Y-123726501D01*
X140399303Y-124848565D01*
X140707567Y-125931294D01*
X141221137Y-126933079D01*
X141330584Y-127096876D01*
X142012804Y-127682591D01*
X145870395Y-123825000D01*
X146229605Y-123825000D01*
X150087196Y-127682591D01*
X150769416Y-127096876D01*
X151317045Y-126113296D01*
X151662265Y-125041777D01*
X151791808Y-123923499D01*
X151775812Y-123726501D01*
X153008192Y-123726501D01*
X153099303Y-124848565D01*
X153407567Y-125931294D01*
X153921137Y-126933079D01*
X154030584Y-127096876D01*
X154712804Y-127682591D01*
X158570395Y-123825000D01*
X158929605Y-123825000D01*
X162787196Y-127682591D01*
X163469416Y-127096876D01*
X164017045Y-126113296D01*
X164362265Y-125041777D01*
X164491808Y-123923499D01*
X164400697Y-122801435D01*
X164092433Y-121718706D01*
X163578863Y-120716921D01*
X163469416Y-120553124D01*
X162787196Y-119967409D01*
X158929605Y-123825000D01*
X158570395Y-123825000D01*
X154712804Y-119967409D01*
X154030584Y-120553124D01*
X153482955Y-121536704D01*
X153137735Y-122608223D01*
X153008192Y-123726501D01*
X151775812Y-123726501D01*
X151700697Y-122801435D01*
X151392433Y-121718706D01*
X150878863Y-120716921D01*
X150769416Y-120553124D01*
X150087196Y-119967409D01*
X146229605Y-123825000D01*
X145870395Y-123825000D01*
X142012804Y-119967409D01*
X141330584Y-120553124D01*
X140782955Y-121536704D01*
X140437735Y-122608223D01*
X140308192Y-123726501D01*
X139075812Y-123726501D01*
X139000697Y-122801435D01*
X138692433Y-121718706D01*
X138178863Y-120716921D01*
X138069416Y-120553124D01*
X137387196Y-119967409D01*
X133529605Y-123825000D01*
X133170395Y-123825000D01*
X129312804Y-119967409D01*
X128630584Y-120553124D01*
X128082955Y-121536704D01*
X127737735Y-122608223D01*
X127608192Y-123726501D01*
X126375812Y-123726501D01*
X126300697Y-122801435D01*
X125992433Y-121718706D01*
X125478863Y-120716921D01*
X125369416Y-120553124D01*
X124687196Y-119967409D01*
X120829605Y-123825000D01*
X120470395Y-123825000D01*
X116612804Y-119967409D01*
X115930584Y-120553124D01*
X115382955Y-121536704D01*
X115037735Y-122608223D01*
X114908192Y-123726501D01*
X113675812Y-123726501D01*
X113600697Y-122801435D01*
X113292433Y-121718706D01*
X112778863Y-120716921D01*
X112669416Y-120553124D01*
X111987196Y-119967409D01*
X108129605Y-123825000D01*
X107770395Y-123825000D01*
X103912804Y-119967409D01*
X103230584Y-120553124D01*
X102682955Y-121536704D01*
X102337735Y-122608223D01*
X102208192Y-123726501D01*
X100975812Y-123726501D01*
X100900697Y-122801435D01*
X100592433Y-121718706D01*
X100078863Y-120716921D01*
X99969416Y-120553124D01*
X99287196Y-119967409D01*
X95429605Y-123825000D01*
X95070395Y-123825000D01*
X91212804Y-119967409D01*
X90530584Y-120553124D01*
X89982955Y-121536704D01*
X89637735Y-122608223D01*
X89508192Y-123726501D01*
X88275812Y-123726501D01*
X88200697Y-122801435D01*
X87892433Y-121718706D01*
X87378863Y-120716921D01*
X87269416Y-120553124D01*
X86587196Y-119967409D01*
X82729605Y-123825000D01*
X82370395Y-123825000D01*
X78512804Y-119967409D01*
X77830584Y-120553124D01*
X77282955Y-121536704D01*
X76937735Y-122608223D01*
X76808192Y-123726501D01*
X75575812Y-123726501D01*
X75500697Y-122801435D01*
X75192433Y-121718706D01*
X74678863Y-120716921D01*
X74569416Y-120553124D01*
X73887196Y-119967409D01*
X70029605Y-123825000D01*
X69670395Y-123825000D01*
X65812804Y-119967409D01*
X65130584Y-120553124D01*
X64582955Y-121536704D01*
X64237735Y-122608223D01*
X64108192Y-123726501D01*
X62448072Y-123726501D01*
X62448072Y-122340000D01*
X62435812Y-122215518D01*
X62399502Y-122095820D01*
X62340537Y-121985506D01*
X62261185Y-121888815D01*
X62164494Y-121809463D01*
X62054180Y-121750498D01*
X61973534Y-121726034D01*
X62057588Y-121650269D01*
X62231641Y-121416920D01*
X62356825Y-121154099D01*
X62401476Y-121006890D01*
X62280155Y-120777000D01*
X61087000Y-120777000D01*
X61087000Y-120797000D01*
X60833000Y-120797000D01*
X60833000Y-120777000D01*
X59639845Y-120777000D01*
X59518524Y-121006890D01*
X59563175Y-121154099D01*
X59688359Y-121416920D01*
X59862412Y-121650269D01*
X59946466Y-121726034D01*
X59865820Y-121750498D01*
X59755506Y-121809463D01*
X59658815Y-121888815D01*
X59579463Y-121985506D01*
X59520498Y-122095820D01*
X59484188Y-122215518D01*
X59471928Y-122340000D01*
X51460000Y-122340000D01*
X51460000Y-115697000D01*
X57110160Y-115697000D01*
X59475000Y-118061841D01*
G37*
G04 #@! TD.AperFunction*
D16*
X177140001Y-112903000D02*
X58540000Y-112903000D01*
X58540000Y-112902998D01*
X58381252Y-112902998D01*
X58540000Y-112744250D01*
X58543072Y-112155000D01*
X58530812Y-112030518D01*
X58494502Y-111910820D01*
X58435537Y-111800506D01*
X58356185Y-111703815D01*
X58259494Y-111624463D01*
X58149180Y-111565498D01*
X58029482Y-111529188D01*
X57905000Y-111516928D01*
X57628250Y-111520000D01*
X57469500Y-111678750D01*
X57469500Y-112903000D01*
X57215500Y-112903000D01*
X57215500Y-111678750D01*
X57056750Y-111520000D01*
X56780000Y-111516928D01*
X56655518Y-111529188D01*
X56535820Y-111565498D01*
X56425506Y-111624463D01*
X56328815Y-111703815D01*
X56249463Y-111800506D01*
X56190498Y-111910820D01*
X56154188Y-112030518D01*
X56141928Y-112155000D01*
X56145000Y-112744250D01*
X56303748Y-112902998D01*
X56145000Y-112902998D01*
X56145000Y-112903000D01*
X55618072Y-112903000D01*
X55618072Y-112404997D01*
X55601008Y-112231743D01*
X55550472Y-112065148D01*
X55468405Y-111911612D01*
X55357963Y-111777037D01*
X55223388Y-111666595D01*
X55069852Y-111584528D01*
X54903257Y-111533992D01*
X54730003Y-111516928D01*
X54104997Y-111516928D01*
X53931743Y-111533992D01*
X53765148Y-111584528D01*
X53611612Y-111666595D01*
X53477037Y-111777037D01*
X53366595Y-111911612D01*
X53311867Y-112014000D01*
X52267459Y-112014000D01*
X52171939Y-111995000D01*
X51968061Y-111995000D01*
X51768102Y-112034774D01*
X51579744Y-112112795D01*
X51460000Y-112192805D01*
X51460000Y-105824872D01*
X53645000Y-105824872D01*
X53645000Y-106265128D01*
X53730890Y-106696925D01*
X53899369Y-107103669D01*
X54143962Y-107469729D01*
X54455271Y-107781038D01*
X54821331Y-108025631D01*
X55228075Y-108194110D01*
X55659872Y-108280000D01*
X56100128Y-108280000D01*
X56531925Y-108194110D01*
X56938669Y-108025631D01*
X57304729Y-107781038D01*
X57616038Y-107469729D01*
X57860631Y-107103669D01*
X58029110Y-106696925D01*
X58115000Y-106265128D01*
X58115000Y-105824872D01*
X58029110Y-105393075D01*
X57860631Y-104986331D01*
X57616038Y-104620271D01*
X57304729Y-104308962D01*
X56938669Y-104064369D01*
X56531925Y-103895890D01*
X56100128Y-103810000D01*
X55659872Y-103810000D01*
X55228075Y-103895890D01*
X54821331Y-104064369D01*
X54455271Y-104308962D01*
X54143962Y-104620271D01*
X53899369Y-104986331D01*
X53730890Y-105393075D01*
X53645000Y-105824872D01*
X51460000Y-105824872D01*
X51460000Y-75350000D01*
X63281928Y-75350000D01*
X63281928Y-77050000D01*
X63294188Y-77174482D01*
X63330498Y-77294180D01*
X63389463Y-77404494D01*
X63468815Y-77501185D01*
X63565506Y-77580537D01*
X63675820Y-77639502D01*
X63754001Y-77663218D01*
X63754002Y-80595090D01*
X63749086Y-80645001D01*
X63768703Y-80844171D01*
X63782397Y-80889313D01*
X63826800Y-81035688D01*
X63921142Y-81212191D01*
X64048106Y-81366897D01*
X64086869Y-81398709D01*
X65154197Y-82466038D01*
X64785433Y-83017933D01*
X64354625Y-84057996D01*
X64135000Y-85162122D01*
X64135000Y-86287878D01*
X64354625Y-87392004D01*
X64785433Y-88432067D01*
X65410870Y-89368100D01*
X66206900Y-90164130D01*
X67142933Y-90789567D01*
X68182996Y-91220375D01*
X69287122Y-91440000D01*
X70412878Y-91440000D01*
X71517004Y-91220375D01*
X72557067Y-90789567D01*
X73493100Y-90164130D01*
X74289130Y-89368100D01*
X74914567Y-88432067D01*
X75184000Y-87781598D01*
X75184001Y-98004158D01*
X73108962Y-100079197D01*
X72557067Y-99710433D01*
X71517004Y-99279625D01*
X70412878Y-99060000D01*
X69287122Y-99060000D01*
X68182996Y-99279625D01*
X67142933Y-99710433D01*
X66206900Y-100335870D01*
X65410870Y-101131900D01*
X64785433Y-102067933D01*
X64354625Y-103107996D01*
X64135000Y-104212122D01*
X64135000Y-105337878D01*
X64354625Y-106442004D01*
X64785433Y-107482067D01*
X65410870Y-108418100D01*
X66206900Y-109214130D01*
X67142933Y-109839567D01*
X68182996Y-110270375D01*
X69287122Y-110490000D01*
X70412878Y-110490000D01*
X71517004Y-110270375D01*
X72557067Y-109839567D01*
X73493100Y-109214130D01*
X74289130Y-108418100D01*
X74914567Y-107482067D01*
X75345375Y-106442004D01*
X75565000Y-105337878D01*
X75565000Y-104212122D01*
X75345375Y-103107996D01*
X74914567Y-102067933D01*
X74545803Y-101516038D01*
X76883133Y-99178708D01*
X76921896Y-99146896D01*
X77048860Y-98992190D01*
X77143202Y-98815687D01*
X77201298Y-98624171D01*
X77216000Y-98474902D01*
X77216000Y-98474901D01*
X77220915Y-98425001D01*
X77216000Y-98375099D01*
X77216000Y-87781598D01*
X77485433Y-88432067D01*
X78110870Y-89368100D01*
X78906900Y-90164130D01*
X79842933Y-90789567D01*
X80882996Y-91220375D01*
X81987122Y-91440000D01*
X83112878Y-91440000D01*
X84217004Y-91220375D01*
X85257067Y-90789567D01*
X86193100Y-90164130D01*
X86989130Y-89368100D01*
X87614567Y-88432067D01*
X87884000Y-87781598D01*
X87884001Y-98004158D01*
X85808962Y-100079197D01*
X85257067Y-99710433D01*
X84217004Y-99279625D01*
X83112878Y-99060000D01*
X81987122Y-99060000D01*
X80882996Y-99279625D01*
X79842933Y-99710433D01*
X78906900Y-100335870D01*
X78110870Y-101131900D01*
X77485433Y-102067933D01*
X77054625Y-103107996D01*
X76835000Y-104212122D01*
X76835000Y-105337878D01*
X77054625Y-106442004D01*
X77485433Y-107482067D01*
X78110870Y-108418100D01*
X78906900Y-109214130D01*
X79842933Y-109839567D01*
X80882996Y-110270375D01*
X81987122Y-110490000D01*
X83112878Y-110490000D01*
X84217004Y-110270375D01*
X85257067Y-109839567D01*
X86193100Y-109214130D01*
X86989130Y-108418100D01*
X87614567Y-107482067D01*
X88045375Y-106442004D01*
X88265000Y-105337878D01*
X88265000Y-104212122D01*
X88045375Y-103107996D01*
X87614567Y-102067933D01*
X87245803Y-101516038D01*
X89583133Y-99178708D01*
X89621896Y-99146896D01*
X89748860Y-98992190D01*
X89843202Y-98815687D01*
X89901298Y-98624171D01*
X89916000Y-98474902D01*
X89916000Y-98474901D01*
X89920915Y-98425001D01*
X89916000Y-98375099D01*
X89916000Y-87781598D01*
X90185433Y-88432067D01*
X90810870Y-89368100D01*
X91606900Y-90164130D01*
X92542933Y-90789567D01*
X93582996Y-91220375D01*
X94687122Y-91440000D01*
X95812878Y-91440000D01*
X96917004Y-91220375D01*
X97957067Y-90789567D01*
X98893100Y-90164130D01*
X99689130Y-89368100D01*
X100314567Y-88432067D01*
X100584000Y-87781598D01*
X100584001Y-98004158D01*
X98508962Y-100079197D01*
X97957067Y-99710433D01*
X96917004Y-99279625D01*
X95812878Y-99060000D01*
X94687122Y-99060000D01*
X93582996Y-99279625D01*
X92542933Y-99710433D01*
X91606900Y-100335870D01*
X90810870Y-101131900D01*
X90185433Y-102067933D01*
X89754625Y-103107996D01*
X89535000Y-104212122D01*
X89535000Y-105337878D01*
X89754625Y-106442004D01*
X90185433Y-107482067D01*
X90810870Y-108418100D01*
X91606900Y-109214130D01*
X92542933Y-109839567D01*
X93582996Y-110270375D01*
X94687122Y-110490000D01*
X95812878Y-110490000D01*
X96917004Y-110270375D01*
X97957067Y-109839567D01*
X98893100Y-109214130D01*
X99689130Y-108418100D01*
X100314567Y-107482067D01*
X100745375Y-106442004D01*
X100965000Y-105337878D01*
X100965000Y-104212122D01*
X100745375Y-103107996D01*
X100314567Y-102067933D01*
X99945803Y-101516038D01*
X102283133Y-99178708D01*
X102321896Y-99146896D01*
X102448860Y-98992190D01*
X102543202Y-98815687D01*
X102601298Y-98624171D01*
X102616000Y-98474902D01*
X102616000Y-98474901D01*
X102620915Y-98425001D01*
X102616000Y-98375099D01*
X102616000Y-87781598D01*
X102885433Y-88432067D01*
X103510870Y-89368100D01*
X104306900Y-90164130D01*
X105242933Y-90789567D01*
X106282996Y-91220375D01*
X107387122Y-91440000D01*
X108512878Y-91440000D01*
X109617004Y-91220375D01*
X110657067Y-90789567D01*
X111593100Y-90164130D01*
X112389130Y-89368100D01*
X113014567Y-88432067D01*
X113284000Y-87781598D01*
X113284001Y-98004158D01*
X111208962Y-100079197D01*
X110657067Y-99710433D01*
X109617004Y-99279625D01*
X108512878Y-99060000D01*
X107387122Y-99060000D01*
X106282996Y-99279625D01*
X105242933Y-99710433D01*
X104306900Y-100335870D01*
X103510870Y-101131900D01*
X102885433Y-102067933D01*
X102454625Y-103107996D01*
X102235000Y-104212122D01*
X102235000Y-105337878D01*
X102454625Y-106442004D01*
X102885433Y-107482067D01*
X103510870Y-108418100D01*
X104306900Y-109214130D01*
X105242933Y-109839567D01*
X106282996Y-110270375D01*
X107387122Y-110490000D01*
X108512878Y-110490000D01*
X109617004Y-110270375D01*
X110657067Y-109839567D01*
X111593100Y-109214130D01*
X112389130Y-108418100D01*
X113014567Y-107482067D01*
X113445375Y-106442004D01*
X113665000Y-105337878D01*
X113665000Y-104212122D01*
X113445375Y-103107996D01*
X113014567Y-102067933D01*
X112645803Y-101516038D01*
X114983133Y-99178708D01*
X115021896Y-99146896D01*
X115148860Y-98992190D01*
X115243202Y-98815687D01*
X115301298Y-98624171D01*
X115316000Y-98474902D01*
X115316000Y-98474901D01*
X115320915Y-98425001D01*
X115316000Y-98375099D01*
X115316000Y-87781598D01*
X115585433Y-88432067D01*
X116210870Y-89368100D01*
X117006900Y-90164130D01*
X117942933Y-90789567D01*
X118982996Y-91220375D01*
X120087122Y-91440000D01*
X121212878Y-91440000D01*
X122317004Y-91220375D01*
X123357067Y-90789567D01*
X124293100Y-90164130D01*
X125089130Y-89368100D01*
X125714567Y-88432067D01*
X125984000Y-87781598D01*
X125984001Y-98004158D01*
X123908962Y-100079197D01*
X123357067Y-99710433D01*
X122317004Y-99279625D01*
X121212878Y-99060000D01*
X120087122Y-99060000D01*
X118982996Y-99279625D01*
X117942933Y-99710433D01*
X117006900Y-100335870D01*
X116210870Y-101131900D01*
X115585433Y-102067933D01*
X115154625Y-103107996D01*
X114935000Y-104212122D01*
X114935000Y-105337878D01*
X115154625Y-106442004D01*
X115585433Y-107482067D01*
X116210870Y-108418100D01*
X117006900Y-109214130D01*
X117942933Y-109839567D01*
X118982996Y-110270375D01*
X120087122Y-110490000D01*
X121212878Y-110490000D01*
X122317004Y-110270375D01*
X123357067Y-109839567D01*
X124293100Y-109214130D01*
X125089130Y-108418100D01*
X125714567Y-107482067D01*
X126145375Y-106442004D01*
X126365000Y-105337878D01*
X126365000Y-104212122D01*
X126145375Y-103107996D01*
X125714567Y-102067933D01*
X125345803Y-101516038D01*
X127683133Y-99178708D01*
X127721896Y-99146896D01*
X127848860Y-98992190D01*
X127943202Y-98815687D01*
X128001298Y-98624171D01*
X128016000Y-98474902D01*
X128016000Y-98474901D01*
X128020915Y-98425001D01*
X128016000Y-98375099D01*
X128016000Y-87781598D01*
X128285433Y-88432067D01*
X128910870Y-89368100D01*
X129706900Y-90164130D01*
X130642933Y-90789567D01*
X131682996Y-91220375D01*
X132787122Y-91440000D01*
X133912878Y-91440000D01*
X135017004Y-91220375D01*
X136057067Y-90789567D01*
X136993100Y-90164130D01*
X137789130Y-89368100D01*
X138414567Y-88432067D01*
X138684000Y-87781598D01*
X138684001Y-98004158D01*
X136608962Y-100079197D01*
X136057067Y-99710433D01*
X135017004Y-99279625D01*
X133912878Y-99060000D01*
X132787122Y-99060000D01*
X131682996Y-99279625D01*
X130642933Y-99710433D01*
X129706900Y-100335870D01*
X128910870Y-101131900D01*
X128285433Y-102067933D01*
X127854625Y-103107996D01*
X127635000Y-104212122D01*
X127635000Y-105337878D01*
X127854625Y-106442004D01*
X128285433Y-107482067D01*
X128910870Y-108418100D01*
X129706900Y-109214130D01*
X130642933Y-109839567D01*
X131682996Y-110270375D01*
X132787122Y-110490000D01*
X133912878Y-110490000D01*
X135017004Y-110270375D01*
X136057067Y-109839567D01*
X136993100Y-109214130D01*
X137789130Y-108418100D01*
X138414567Y-107482067D01*
X138845375Y-106442004D01*
X139065000Y-105337878D01*
X139065000Y-104212122D01*
X138845375Y-103107996D01*
X138414567Y-102067933D01*
X138045803Y-101516038D01*
X140383133Y-99178708D01*
X140421896Y-99146896D01*
X140548860Y-98992190D01*
X140643202Y-98815687D01*
X140701298Y-98624171D01*
X140716000Y-98474902D01*
X140716000Y-98474901D01*
X140720915Y-98425001D01*
X140716000Y-98375099D01*
X140716000Y-87781598D01*
X140985433Y-88432067D01*
X141610870Y-89368100D01*
X142406900Y-90164130D01*
X143342933Y-90789567D01*
X144382996Y-91220375D01*
X145487122Y-91440000D01*
X146612878Y-91440000D01*
X147717004Y-91220375D01*
X148757067Y-90789567D01*
X149693100Y-90164130D01*
X150489130Y-89368100D01*
X151114567Y-88432067D01*
X151384000Y-87781598D01*
X151384001Y-98004158D01*
X149308962Y-100079197D01*
X148757067Y-99710433D01*
X147717004Y-99279625D01*
X146612878Y-99060000D01*
X145487122Y-99060000D01*
X144382996Y-99279625D01*
X143342933Y-99710433D01*
X142406900Y-100335870D01*
X141610870Y-101131900D01*
X140985433Y-102067933D01*
X140554625Y-103107996D01*
X140335000Y-104212122D01*
X140335000Y-105337878D01*
X140554625Y-106442004D01*
X140985433Y-107482067D01*
X141610870Y-108418100D01*
X142406900Y-109214130D01*
X143342933Y-109839567D01*
X144382996Y-110270375D01*
X145487122Y-110490000D01*
X146612878Y-110490000D01*
X147717004Y-110270375D01*
X148757067Y-109839567D01*
X149693100Y-109214130D01*
X150489130Y-108418100D01*
X151114567Y-107482067D01*
X151545375Y-106442004D01*
X151765000Y-105337878D01*
X151765000Y-104212122D01*
X151545375Y-103107996D01*
X151114567Y-102067933D01*
X150745803Y-101516038D01*
X153083133Y-99178708D01*
X153121896Y-99146896D01*
X153248860Y-98992190D01*
X153343202Y-98815687D01*
X153401298Y-98624171D01*
X153416000Y-98474902D01*
X153416000Y-98474901D01*
X153420915Y-98425001D01*
X153416000Y-98375099D01*
X153416000Y-87781598D01*
X153685433Y-88432067D01*
X154310870Y-89368100D01*
X155106900Y-90164130D01*
X156042933Y-90789567D01*
X157082996Y-91220375D01*
X158187122Y-91440000D01*
X159312878Y-91440000D01*
X160417004Y-91220375D01*
X161457067Y-90789567D01*
X162393100Y-90164130D01*
X163189130Y-89368100D01*
X163814567Y-88432067D01*
X164084001Y-87781598D01*
X164084000Y-98004159D01*
X162008962Y-100079197D01*
X161457067Y-99710433D01*
X160417004Y-99279625D01*
X159312878Y-99060000D01*
X158187122Y-99060000D01*
X157082996Y-99279625D01*
X156042933Y-99710433D01*
X155106900Y-100335870D01*
X154310870Y-101131900D01*
X153685433Y-102067933D01*
X153254625Y-103107996D01*
X153035000Y-104212122D01*
X153035000Y-105337878D01*
X153254625Y-106442004D01*
X153685433Y-107482067D01*
X154310870Y-108418100D01*
X155106900Y-109214130D01*
X156042933Y-109839567D01*
X157082996Y-110270375D01*
X158187122Y-110490000D01*
X159312878Y-110490000D01*
X160417004Y-110270375D01*
X161457067Y-109839567D01*
X162393100Y-109214130D01*
X163189130Y-108418100D01*
X163814567Y-107482067D01*
X164245375Y-106442004D01*
X164368130Y-105824872D01*
X170485000Y-105824872D01*
X170485000Y-106265128D01*
X170570890Y-106696925D01*
X170739369Y-107103669D01*
X170983962Y-107469729D01*
X171295271Y-107781038D01*
X171661331Y-108025631D01*
X172068075Y-108194110D01*
X172499872Y-108280000D01*
X172940128Y-108280000D01*
X173371925Y-108194110D01*
X173778669Y-108025631D01*
X174144729Y-107781038D01*
X174456038Y-107469729D01*
X174700631Y-107103669D01*
X174869110Y-106696925D01*
X174955000Y-106265128D01*
X174955000Y-105824872D01*
X174869110Y-105393075D01*
X174700631Y-104986331D01*
X174456038Y-104620271D01*
X174144729Y-104308962D01*
X173778669Y-104064369D01*
X173371925Y-103895890D01*
X172940128Y-103810000D01*
X172499872Y-103810000D01*
X172068075Y-103895890D01*
X171661331Y-104064369D01*
X171295271Y-104308962D01*
X170983962Y-104620271D01*
X170739369Y-104986331D01*
X170570890Y-105393075D01*
X170485000Y-105824872D01*
X164368130Y-105824872D01*
X164465000Y-105337878D01*
X164465000Y-104212122D01*
X164245375Y-103107996D01*
X163814567Y-102067933D01*
X163445803Y-101516038D01*
X165783133Y-99178708D01*
X165821896Y-99146896D01*
X165948860Y-98992190D01*
X166043202Y-98815687D01*
X166101298Y-98624171D01*
X166116000Y-98474902D01*
X166116000Y-98474901D01*
X166120915Y-98425001D01*
X166116000Y-98375099D01*
X166116000Y-82599893D01*
X166120914Y-82549999D01*
X166116000Y-82500105D01*
X166116000Y-82500098D01*
X166101298Y-82350829D01*
X166043202Y-82159313D01*
X165948860Y-81982810D01*
X165821896Y-81828104D01*
X165783133Y-81796292D01*
X164846000Y-80859160D01*
X164846000Y-77284107D01*
X164983475Y-77146632D01*
X165145990Y-76903411D01*
X165257932Y-76633158D01*
X165315000Y-76346260D01*
X165315000Y-76053740D01*
X165257932Y-75766842D01*
X165145990Y-75496589D01*
X164983475Y-75253368D01*
X164776632Y-75046525D01*
X164533411Y-74884010D01*
X164263158Y-74772068D01*
X163976260Y-74715000D01*
X163683740Y-74715000D01*
X163396842Y-74772068D01*
X163126589Y-74884010D01*
X162883368Y-75046525D01*
X162676525Y-75253368D01*
X162560000Y-75427760D01*
X162443475Y-75253368D01*
X162236632Y-75046525D01*
X161993411Y-74884010D01*
X161723158Y-74772068D01*
X161436260Y-74715000D01*
X161143740Y-74715000D01*
X160856842Y-74772068D01*
X160586589Y-74884010D01*
X160343368Y-75046525D01*
X160136525Y-75253368D01*
X160020000Y-75427760D01*
X159903475Y-75253368D01*
X159696632Y-75046525D01*
X159453411Y-74884010D01*
X159183158Y-74772068D01*
X158896260Y-74715000D01*
X158603740Y-74715000D01*
X158316842Y-74772068D01*
X158046589Y-74884010D01*
X157803368Y-75046525D01*
X157596525Y-75253368D01*
X157474805Y-75435534D01*
X157405178Y-75318645D01*
X157210269Y-75102412D01*
X156976920Y-74928359D01*
X156714099Y-74803175D01*
X156566890Y-74758524D01*
X156337000Y-74879845D01*
X156337000Y-76073000D01*
X156357000Y-76073000D01*
X156357000Y-76327000D01*
X156337000Y-76327000D01*
X156337000Y-77520155D01*
X156566890Y-77641476D01*
X156714099Y-77596825D01*
X156976920Y-77471641D01*
X157210269Y-77297588D01*
X157405178Y-77081355D01*
X157474805Y-76964466D01*
X157596525Y-77146632D01*
X157803368Y-77353475D01*
X158046589Y-77515990D01*
X158316842Y-77627932D01*
X158603740Y-77685000D01*
X158896260Y-77685000D01*
X159183158Y-77627932D01*
X159453411Y-77515990D01*
X159696632Y-77353475D01*
X159903475Y-77146632D01*
X160020000Y-76972240D01*
X160136525Y-77146632D01*
X160343368Y-77353475D01*
X160586589Y-77515990D01*
X160856842Y-77627932D01*
X161143740Y-77685000D01*
X161436260Y-77685000D01*
X161723158Y-77627932D01*
X161993411Y-77515990D01*
X162236632Y-77353475D01*
X162443475Y-77146632D01*
X162560000Y-76972240D01*
X162676525Y-77146632D01*
X162814000Y-77284107D01*
X162814001Y-81230088D01*
X162809085Y-81280000D01*
X162828702Y-81479170D01*
X162867418Y-81606798D01*
X162886799Y-81670687D01*
X162981141Y-81847190D01*
X163103432Y-81996202D01*
X162393100Y-81285870D01*
X161457067Y-80660433D01*
X160417004Y-80229625D01*
X159312878Y-80010000D01*
X158187122Y-80010000D01*
X157082996Y-80229625D01*
X156042933Y-80660433D01*
X155491038Y-81029197D01*
X154686001Y-80224161D01*
X154685999Y-77284108D01*
X154823475Y-77146632D01*
X154945195Y-76964466D01*
X155014822Y-77081355D01*
X155209731Y-77297588D01*
X155443080Y-77471641D01*
X155705901Y-77596825D01*
X155853110Y-77641476D01*
X156083000Y-77520155D01*
X156083000Y-76327000D01*
X156063000Y-76327000D01*
X156063000Y-76073000D01*
X156083000Y-76073000D01*
X156083000Y-74879845D01*
X155853110Y-74758524D01*
X155705901Y-74803175D01*
X155443080Y-74928359D01*
X155209731Y-75102412D01*
X155014822Y-75318645D01*
X154945195Y-75435534D01*
X154823475Y-75253368D01*
X154616632Y-75046525D01*
X154373411Y-74884010D01*
X154103158Y-74772068D01*
X153816260Y-74715000D01*
X153523740Y-74715000D01*
X153236842Y-74772068D01*
X152966589Y-74884010D01*
X152723368Y-75046525D01*
X152516525Y-75253368D01*
X152400000Y-75427760D01*
X152283475Y-75253368D01*
X152076632Y-75046525D01*
X151833411Y-74884010D01*
X151563158Y-74772068D01*
X151276260Y-74715000D01*
X150983740Y-74715000D01*
X150696842Y-74772068D01*
X150426589Y-74884010D01*
X150183368Y-75046525D01*
X149976525Y-75253368D01*
X149860000Y-75427760D01*
X149743475Y-75253368D01*
X149536632Y-75046525D01*
X149293411Y-74884010D01*
X149023158Y-74772068D01*
X148736260Y-74715000D01*
X148443740Y-74715000D01*
X148156842Y-74772068D01*
X147886589Y-74884010D01*
X147643368Y-75046525D01*
X147436525Y-75253368D01*
X147320000Y-75427760D01*
X147203475Y-75253368D01*
X146996632Y-75046525D01*
X146753411Y-74884010D01*
X146483158Y-74772068D01*
X146196260Y-74715000D01*
X145903740Y-74715000D01*
X145616842Y-74772068D01*
X145346589Y-74884010D01*
X145103368Y-75046525D01*
X144896525Y-75253368D01*
X144774805Y-75435534D01*
X144705178Y-75318645D01*
X144510269Y-75102412D01*
X144276920Y-74928359D01*
X144014099Y-74803175D01*
X143866890Y-74758524D01*
X143637000Y-74879845D01*
X143637000Y-76073000D01*
X143657000Y-76073000D01*
X143657000Y-76327000D01*
X143637000Y-76327000D01*
X143637000Y-77520155D01*
X143866890Y-77641476D01*
X144014099Y-77596825D01*
X144276920Y-77471641D01*
X144510269Y-77297588D01*
X144705178Y-77081355D01*
X144774805Y-76964466D01*
X144896525Y-77146632D01*
X145103368Y-77353475D01*
X145346589Y-77515990D01*
X145616842Y-77627932D01*
X145903740Y-77685000D01*
X146196260Y-77685000D01*
X146483158Y-77627932D01*
X146753411Y-77515990D01*
X146996632Y-77353475D01*
X147203475Y-77146632D01*
X147320000Y-76972240D01*
X147436525Y-77146632D01*
X147643368Y-77353475D01*
X147886589Y-77515990D01*
X148156842Y-77627932D01*
X148443740Y-77685000D01*
X148736260Y-77685000D01*
X149023158Y-77627932D01*
X149293411Y-77515990D01*
X149536632Y-77353475D01*
X149743475Y-77146632D01*
X149860000Y-76972240D01*
X149976525Y-77146632D01*
X150114000Y-77284107D01*
X150114001Y-81230088D01*
X150109085Y-81280000D01*
X150128702Y-81479170D01*
X150167418Y-81606798D01*
X150186799Y-81670687D01*
X150281141Y-81847190D01*
X150403432Y-81996202D01*
X149693100Y-81285870D01*
X148757067Y-80660433D01*
X147717004Y-80229625D01*
X146612878Y-80010000D01*
X145487122Y-80010000D01*
X144382996Y-80229625D01*
X143342933Y-80660433D01*
X142791038Y-81029197D01*
X141986001Y-80224161D01*
X141985999Y-77284108D01*
X142123475Y-77146632D01*
X142245195Y-76964466D01*
X142314822Y-77081355D01*
X142509731Y-77297588D01*
X142743080Y-77471641D01*
X143005901Y-77596825D01*
X143153110Y-77641476D01*
X143383000Y-77520155D01*
X143383000Y-76327000D01*
X143363000Y-76327000D01*
X143363000Y-76073000D01*
X143383000Y-76073000D01*
X143383000Y-74879845D01*
X143153110Y-74758524D01*
X143005901Y-74803175D01*
X142743080Y-74928359D01*
X142509731Y-75102412D01*
X142314822Y-75318645D01*
X142245195Y-75435534D01*
X142123475Y-75253368D01*
X141916632Y-75046525D01*
X141673411Y-74884010D01*
X141403158Y-74772068D01*
X141116260Y-74715000D01*
X140823740Y-74715000D01*
X140536842Y-74772068D01*
X140266589Y-74884010D01*
X140023368Y-75046525D01*
X139816525Y-75253368D01*
X139700000Y-75427760D01*
X139583475Y-75253368D01*
X139376632Y-75046525D01*
X139133411Y-74884010D01*
X138863158Y-74772068D01*
X138576260Y-74715000D01*
X138283740Y-74715000D01*
X137996842Y-74772068D01*
X137726589Y-74884010D01*
X137483368Y-75046525D01*
X137276525Y-75253368D01*
X137160000Y-75427760D01*
X137043475Y-75253368D01*
X136836632Y-75046525D01*
X136593411Y-74884010D01*
X136323158Y-74772068D01*
X136036260Y-74715000D01*
X135743740Y-74715000D01*
X135456842Y-74772068D01*
X135186589Y-74884010D01*
X134943368Y-75046525D01*
X134736525Y-75253368D01*
X134620000Y-75427760D01*
X134503475Y-75253368D01*
X134296632Y-75046525D01*
X134053411Y-74884010D01*
X133783158Y-74772068D01*
X133496260Y-74715000D01*
X133203740Y-74715000D01*
X132916842Y-74772068D01*
X132646589Y-74884010D01*
X132403368Y-75046525D01*
X132196525Y-75253368D01*
X132074805Y-75435534D01*
X132005178Y-75318645D01*
X131810269Y-75102412D01*
X131576920Y-74928359D01*
X131314099Y-74803175D01*
X131166890Y-74758524D01*
X130937000Y-74879845D01*
X130937000Y-76073000D01*
X130957000Y-76073000D01*
X130957000Y-76327000D01*
X130937000Y-76327000D01*
X130937000Y-77520155D01*
X131166890Y-77641476D01*
X131314099Y-77596825D01*
X131576920Y-77471641D01*
X131810269Y-77297588D01*
X132005178Y-77081355D01*
X132074805Y-76964466D01*
X132196525Y-77146632D01*
X132403368Y-77353475D01*
X132646589Y-77515990D01*
X132916842Y-77627932D01*
X133203740Y-77685000D01*
X133496260Y-77685000D01*
X133783158Y-77627932D01*
X134053411Y-77515990D01*
X134296632Y-77353475D01*
X134503475Y-77146632D01*
X134620000Y-76972240D01*
X134736525Y-77146632D01*
X134943368Y-77353475D01*
X135186589Y-77515990D01*
X135456842Y-77627932D01*
X135743740Y-77685000D01*
X136036260Y-77685000D01*
X136323158Y-77627932D01*
X136593411Y-77515990D01*
X136836632Y-77353475D01*
X137043475Y-77146632D01*
X137160000Y-76972240D01*
X137276525Y-77146632D01*
X137414000Y-77284107D01*
X137414001Y-81230088D01*
X137409085Y-81280000D01*
X137428702Y-81479170D01*
X137467418Y-81606798D01*
X137486799Y-81670687D01*
X137581141Y-81847190D01*
X137703432Y-81996202D01*
X136993100Y-81285870D01*
X136057067Y-80660433D01*
X135017004Y-80229625D01*
X133912878Y-80010000D01*
X132787122Y-80010000D01*
X131682996Y-80229625D01*
X130642933Y-80660433D01*
X130091038Y-81029197D01*
X129286001Y-80224161D01*
X129285999Y-77284108D01*
X129423475Y-77146632D01*
X129545195Y-76964466D01*
X129614822Y-77081355D01*
X129809731Y-77297588D01*
X130043080Y-77471641D01*
X130305901Y-77596825D01*
X130453110Y-77641476D01*
X130683000Y-77520155D01*
X130683000Y-76327000D01*
X130663000Y-76327000D01*
X130663000Y-76073000D01*
X130683000Y-76073000D01*
X130683000Y-74879845D01*
X130453110Y-74758524D01*
X130305901Y-74803175D01*
X130043080Y-74928359D01*
X129809731Y-75102412D01*
X129614822Y-75318645D01*
X129545195Y-75435534D01*
X129423475Y-75253368D01*
X129216632Y-75046525D01*
X128973411Y-74884010D01*
X128703158Y-74772068D01*
X128416260Y-74715000D01*
X128123740Y-74715000D01*
X127836842Y-74772068D01*
X127566589Y-74884010D01*
X127323368Y-75046525D01*
X127116525Y-75253368D01*
X127000000Y-75427760D01*
X126883475Y-75253368D01*
X126676632Y-75046525D01*
X126433411Y-74884010D01*
X126163158Y-74772068D01*
X125876260Y-74715000D01*
X125583740Y-74715000D01*
X125296842Y-74772068D01*
X125026589Y-74884010D01*
X124783368Y-75046525D01*
X124576525Y-75253368D01*
X124460000Y-75427760D01*
X124343475Y-75253368D01*
X124136632Y-75046525D01*
X123893411Y-74884010D01*
X123623158Y-74772068D01*
X123336260Y-74715000D01*
X123043740Y-74715000D01*
X122756842Y-74772068D01*
X122486589Y-74884010D01*
X122243368Y-75046525D01*
X122036525Y-75253368D01*
X121920000Y-75427760D01*
X121803475Y-75253368D01*
X121596632Y-75046525D01*
X121353411Y-74884010D01*
X121083158Y-74772068D01*
X120796260Y-74715000D01*
X120503740Y-74715000D01*
X120216842Y-74772068D01*
X119946589Y-74884010D01*
X119703368Y-75046525D01*
X119496525Y-75253368D01*
X119374805Y-75435534D01*
X119305178Y-75318645D01*
X119110269Y-75102412D01*
X118876920Y-74928359D01*
X118614099Y-74803175D01*
X118466890Y-74758524D01*
X118237000Y-74879845D01*
X118237000Y-76073000D01*
X118257000Y-76073000D01*
X118257000Y-76327000D01*
X118237000Y-76327000D01*
X118237000Y-77520155D01*
X118466890Y-77641476D01*
X118614099Y-77596825D01*
X118876920Y-77471641D01*
X119110269Y-77297588D01*
X119305178Y-77081355D01*
X119374805Y-76964466D01*
X119496525Y-77146632D01*
X119703368Y-77353475D01*
X119946589Y-77515990D01*
X120216842Y-77627932D01*
X120503740Y-77685000D01*
X120796260Y-77685000D01*
X121083158Y-77627932D01*
X121353411Y-77515990D01*
X121596632Y-77353475D01*
X121803475Y-77146632D01*
X121920000Y-76972240D01*
X122036525Y-77146632D01*
X122243368Y-77353475D01*
X122486589Y-77515990D01*
X122756842Y-77627932D01*
X123043740Y-77685000D01*
X123336260Y-77685000D01*
X123623158Y-77627932D01*
X123893411Y-77515990D01*
X124136632Y-77353475D01*
X124343475Y-77146632D01*
X124460000Y-76972240D01*
X124576525Y-77146632D01*
X124714000Y-77284107D01*
X124714001Y-81230088D01*
X124709085Y-81280000D01*
X124728702Y-81479170D01*
X124767418Y-81606798D01*
X124786799Y-81670687D01*
X124881141Y-81847190D01*
X125003432Y-81996202D01*
X124293100Y-81285870D01*
X123357067Y-80660433D01*
X122317004Y-80229625D01*
X121212878Y-80010000D01*
X120087122Y-80010000D01*
X118982996Y-80229625D01*
X117942933Y-80660433D01*
X117391038Y-81029197D01*
X116586001Y-80224161D01*
X116586001Y-77284106D01*
X116723475Y-77146632D01*
X116845195Y-76964466D01*
X116914822Y-77081355D01*
X117109731Y-77297588D01*
X117343080Y-77471641D01*
X117605901Y-77596825D01*
X117753110Y-77641476D01*
X117983000Y-77520155D01*
X117983000Y-76327000D01*
X117963000Y-76327000D01*
X117963000Y-76073000D01*
X117983000Y-76073000D01*
X117983000Y-74879845D01*
X117753110Y-74758524D01*
X117605901Y-74803175D01*
X117343080Y-74928359D01*
X117109731Y-75102412D01*
X116914822Y-75318645D01*
X116845195Y-75435534D01*
X116723475Y-75253368D01*
X116516632Y-75046525D01*
X116273411Y-74884010D01*
X116003158Y-74772068D01*
X115716260Y-74715000D01*
X115423740Y-74715000D01*
X115136842Y-74772068D01*
X114866589Y-74884010D01*
X114623368Y-75046525D01*
X114416525Y-75253368D01*
X114300000Y-75427760D01*
X114183475Y-75253368D01*
X113976632Y-75046525D01*
X113733411Y-74884010D01*
X113463158Y-74772068D01*
X113176260Y-74715000D01*
X112883740Y-74715000D01*
X112596842Y-74772068D01*
X112326589Y-74884010D01*
X112083368Y-75046525D01*
X111876525Y-75253368D01*
X111760000Y-75427760D01*
X111643475Y-75253368D01*
X111436632Y-75046525D01*
X111193411Y-74884010D01*
X110923158Y-74772068D01*
X110636260Y-74715000D01*
X110343740Y-74715000D01*
X110056842Y-74772068D01*
X109786589Y-74884010D01*
X109543368Y-75046525D01*
X109336525Y-75253368D01*
X109220000Y-75427760D01*
X109103475Y-75253368D01*
X108896632Y-75046525D01*
X108653411Y-74884010D01*
X108383158Y-74772068D01*
X108096260Y-74715000D01*
X107803740Y-74715000D01*
X107516842Y-74772068D01*
X107246589Y-74884010D01*
X107003368Y-75046525D01*
X106796525Y-75253368D01*
X106674805Y-75435534D01*
X106605178Y-75318645D01*
X106410269Y-75102412D01*
X106176920Y-74928359D01*
X105914099Y-74803175D01*
X105766890Y-74758524D01*
X105537000Y-74879845D01*
X105537000Y-76073000D01*
X105557000Y-76073000D01*
X105557000Y-76327000D01*
X105537000Y-76327000D01*
X105537000Y-77520155D01*
X105766890Y-77641476D01*
X105914099Y-77596825D01*
X106176920Y-77471641D01*
X106410269Y-77297588D01*
X106605178Y-77081355D01*
X106674805Y-76964466D01*
X106796525Y-77146632D01*
X107003368Y-77353475D01*
X107246589Y-77515990D01*
X107516842Y-77627932D01*
X107803740Y-77685000D01*
X108096260Y-77685000D01*
X108383158Y-77627932D01*
X108653411Y-77515990D01*
X108896632Y-77353475D01*
X109103475Y-77146632D01*
X109220000Y-76972240D01*
X109336525Y-77146632D01*
X109543368Y-77353475D01*
X109786589Y-77515990D01*
X110056842Y-77627932D01*
X110343740Y-77685000D01*
X110636260Y-77685000D01*
X110923158Y-77627932D01*
X111193411Y-77515990D01*
X111436632Y-77353475D01*
X111643475Y-77146632D01*
X111760000Y-76972240D01*
X111876525Y-77146632D01*
X112014000Y-77284107D01*
X112014001Y-81230088D01*
X112009085Y-81280000D01*
X112028702Y-81479170D01*
X112067418Y-81606798D01*
X112086799Y-81670687D01*
X112181141Y-81847190D01*
X112303432Y-81996202D01*
X111593100Y-81285870D01*
X110657067Y-80660433D01*
X109617004Y-80229625D01*
X108512878Y-80010000D01*
X107387122Y-80010000D01*
X106282996Y-80229625D01*
X105242933Y-80660433D01*
X104691038Y-81029197D01*
X103886001Y-80224161D01*
X103885999Y-77284108D01*
X104023475Y-77146632D01*
X104145195Y-76964466D01*
X104214822Y-77081355D01*
X104409731Y-77297588D01*
X104643080Y-77471641D01*
X104905901Y-77596825D01*
X105053110Y-77641476D01*
X105283000Y-77520155D01*
X105283000Y-76327000D01*
X105263000Y-76327000D01*
X105263000Y-76073000D01*
X105283000Y-76073000D01*
X105283000Y-74879845D01*
X105053110Y-74758524D01*
X104905901Y-74803175D01*
X104643080Y-74928359D01*
X104409731Y-75102412D01*
X104214822Y-75318645D01*
X104145195Y-75435534D01*
X104023475Y-75253368D01*
X103816632Y-75046525D01*
X103573411Y-74884010D01*
X103303158Y-74772068D01*
X103016260Y-74715000D01*
X102723740Y-74715000D01*
X102436842Y-74772068D01*
X102166589Y-74884010D01*
X101923368Y-75046525D01*
X101716525Y-75253368D01*
X101600000Y-75427760D01*
X101483475Y-75253368D01*
X101276632Y-75046525D01*
X101033411Y-74884010D01*
X100763158Y-74772068D01*
X100476260Y-74715000D01*
X100183740Y-74715000D01*
X99896842Y-74772068D01*
X99626589Y-74884010D01*
X99383368Y-75046525D01*
X99176525Y-75253368D01*
X99060000Y-75427760D01*
X98943475Y-75253368D01*
X98736632Y-75046525D01*
X98493411Y-74884010D01*
X98223158Y-74772068D01*
X97936260Y-74715000D01*
X97643740Y-74715000D01*
X97356842Y-74772068D01*
X97086589Y-74884010D01*
X96843368Y-75046525D01*
X96636525Y-75253368D01*
X96520000Y-75427760D01*
X96403475Y-75253368D01*
X96196632Y-75046525D01*
X95953411Y-74884010D01*
X95683158Y-74772068D01*
X95396260Y-74715000D01*
X95103740Y-74715000D01*
X94816842Y-74772068D01*
X94546589Y-74884010D01*
X94303368Y-75046525D01*
X94096525Y-75253368D01*
X93974805Y-75435534D01*
X93905178Y-75318645D01*
X93710269Y-75102412D01*
X93476920Y-74928359D01*
X93214099Y-74803175D01*
X93066890Y-74758524D01*
X92837000Y-74879845D01*
X92837000Y-76073000D01*
X92857000Y-76073000D01*
X92857000Y-76327000D01*
X92837000Y-76327000D01*
X92837000Y-77520155D01*
X93066890Y-77641476D01*
X93214099Y-77596825D01*
X93476920Y-77471641D01*
X93710269Y-77297588D01*
X93905178Y-77081355D01*
X93974805Y-76964466D01*
X94096525Y-77146632D01*
X94303368Y-77353475D01*
X94546589Y-77515990D01*
X94816842Y-77627932D01*
X95103740Y-77685000D01*
X95396260Y-77685000D01*
X95683158Y-77627932D01*
X95953411Y-77515990D01*
X96196632Y-77353475D01*
X96403475Y-77146632D01*
X96520000Y-76972240D01*
X96636525Y-77146632D01*
X96843368Y-77353475D01*
X97086589Y-77515990D01*
X97356842Y-77627932D01*
X97643740Y-77685000D01*
X97936260Y-77685000D01*
X98223158Y-77627932D01*
X98493411Y-77515990D01*
X98736632Y-77353475D01*
X98943475Y-77146632D01*
X99060000Y-76972240D01*
X99176525Y-77146632D01*
X99314000Y-77284107D01*
X99314001Y-81230088D01*
X99309085Y-81280000D01*
X99328702Y-81479170D01*
X99367418Y-81606798D01*
X99386799Y-81670687D01*
X99481141Y-81847190D01*
X99603432Y-81996202D01*
X98893100Y-81285870D01*
X97957067Y-80660433D01*
X96917004Y-80229625D01*
X95812878Y-80010000D01*
X94687122Y-80010000D01*
X93582996Y-80229625D01*
X92542933Y-80660433D01*
X91991038Y-81029197D01*
X91186001Y-80224161D01*
X91185999Y-77284108D01*
X91323475Y-77146632D01*
X91445195Y-76964466D01*
X91514822Y-77081355D01*
X91709731Y-77297588D01*
X91943080Y-77471641D01*
X92205901Y-77596825D01*
X92353110Y-77641476D01*
X92583000Y-77520155D01*
X92583000Y-76327000D01*
X92563000Y-76327000D01*
X92563000Y-76073000D01*
X92583000Y-76073000D01*
X92583000Y-74879845D01*
X92353110Y-74758524D01*
X92205901Y-74803175D01*
X91943080Y-74928359D01*
X91709731Y-75102412D01*
X91514822Y-75318645D01*
X91445195Y-75435534D01*
X91323475Y-75253368D01*
X91116632Y-75046525D01*
X90873411Y-74884010D01*
X90603158Y-74772068D01*
X90316260Y-74715000D01*
X90023740Y-74715000D01*
X89736842Y-74772068D01*
X89466589Y-74884010D01*
X89223368Y-75046525D01*
X89016525Y-75253368D01*
X88900000Y-75427760D01*
X88783475Y-75253368D01*
X88576632Y-75046525D01*
X88333411Y-74884010D01*
X88063158Y-74772068D01*
X87776260Y-74715000D01*
X87483740Y-74715000D01*
X87196842Y-74772068D01*
X86926589Y-74884010D01*
X86683368Y-75046525D01*
X86476525Y-75253368D01*
X86360000Y-75427760D01*
X86243475Y-75253368D01*
X86036632Y-75046525D01*
X85793411Y-74884010D01*
X85523158Y-74772068D01*
X85236260Y-74715000D01*
X84943740Y-74715000D01*
X84656842Y-74772068D01*
X84386589Y-74884010D01*
X84143368Y-75046525D01*
X83936525Y-75253368D01*
X83820000Y-75427760D01*
X83703475Y-75253368D01*
X83496632Y-75046525D01*
X83253411Y-74884010D01*
X82983158Y-74772068D01*
X82696260Y-74715000D01*
X82403740Y-74715000D01*
X82116842Y-74772068D01*
X81846589Y-74884010D01*
X81603368Y-75046525D01*
X81396525Y-75253368D01*
X81274805Y-75435534D01*
X81205178Y-75318645D01*
X81010269Y-75102412D01*
X80776920Y-74928359D01*
X80514099Y-74803175D01*
X80366890Y-74758524D01*
X80137000Y-74879845D01*
X80137000Y-76073000D01*
X80157000Y-76073000D01*
X80157000Y-76327000D01*
X80137000Y-76327000D01*
X80137000Y-77520155D01*
X80366890Y-77641476D01*
X80514099Y-77596825D01*
X80776920Y-77471641D01*
X81010269Y-77297588D01*
X81205178Y-77081355D01*
X81274805Y-76964466D01*
X81396525Y-77146632D01*
X81603368Y-77353475D01*
X81846589Y-77515990D01*
X82116842Y-77627932D01*
X82403740Y-77685000D01*
X82696260Y-77685000D01*
X82983158Y-77627932D01*
X83253411Y-77515990D01*
X83496632Y-77353475D01*
X83703475Y-77146632D01*
X83820000Y-76972240D01*
X83936525Y-77146632D01*
X84143368Y-77353475D01*
X84386589Y-77515990D01*
X84656842Y-77627932D01*
X84943740Y-77685000D01*
X85236260Y-77685000D01*
X85523158Y-77627932D01*
X85793411Y-77515990D01*
X86036632Y-77353475D01*
X86243475Y-77146632D01*
X86360000Y-76972240D01*
X86476525Y-77146632D01*
X86614000Y-77284107D01*
X86614001Y-81230088D01*
X86609085Y-81280000D01*
X86628702Y-81479170D01*
X86667418Y-81606798D01*
X86686799Y-81670687D01*
X86781141Y-81847190D01*
X86903432Y-81996202D01*
X86193100Y-81285870D01*
X85257067Y-80660433D01*
X84217004Y-80229625D01*
X83112878Y-80010000D01*
X81987122Y-80010000D01*
X80882996Y-80229625D01*
X79842933Y-80660433D01*
X79291038Y-81029197D01*
X78486001Y-80224161D01*
X78485999Y-77284108D01*
X78623475Y-77146632D01*
X78745195Y-76964466D01*
X78814822Y-77081355D01*
X79009731Y-77297588D01*
X79243080Y-77471641D01*
X79505901Y-77596825D01*
X79653110Y-77641476D01*
X79883000Y-77520155D01*
X79883000Y-76327000D01*
X79863000Y-76327000D01*
X79863000Y-76073000D01*
X79883000Y-76073000D01*
X79883000Y-74879845D01*
X79653110Y-74758524D01*
X79505901Y-74803175D01*
X79243080Y-74928359D01*
X79009731Y-75102412D01*
X78814822Y-75318645D01*
X78745195Y-75435534D01*
X78623475Y-75253368D01*
X78416632Y-75046525D01*
X78173411Y-74884010D01*
X77903158Y-74772068D01*
X77616260Y-74715000D01*
X77323740Y-74715000D01*
X77036842Y-74772068D01*
X76766589Y-74884010D01*
X76523368Y-75046525D01*
X76316525Y-75253368D01*
X76200000Y-75427760D01*
X76083475Y-75253368D01*
X75876632Y-75046525D01*
X75633411Y-74884010D01*
X75363158Y-74772068D01*
X75076260Y-74715000D01*
X74783740Y-74715000D01*
X74496842Y-74772068D01*
X74226589Y-74884010D01*
X73983368Y-75046525D01*
X73776525Y-75253368D01*
X73660000Y-75427760D01*
X73543475Y-75253368D01*
X73336632Y-75046525D01*
X73093411Y-74884010D01*
X72823158Y-74772068D01*
X72536260Y-74715000D01*
X72243740Y-74715000D01*
X71956842Y-74772068D01*
X71686589Y-74884010D01*
X71443368Y-75046525D01*
X71236525Y-75253368D01*
X71120000Y-75427760D01*
X71003475Y-75253368D01*
X70796632Y-75046525D01*
X70553411Y-74884010D01*
X70283158Y-74772068D01*
X69996260Y-74715000D01*
X69703740Y-74715000D01*
X69416842Y-74772068D01*
X69146589Y-74884010D01*
X68903368Y-75046525D01*
X68696525Y-75253368D01*
X68574805Y-75435534D01*
X68505178Y-75318645D01*
X68310269Y-75102412D01*
X68076920Y-74928359D01*
X67814099Y-74803175D01*
X67666890Y-74758524D01*
X67437000Y-74879845D01*
X67437000Y-76073000D01*
X67457000Y-76073000D01*
X67457000Y-76327000D01*
X67437000Y-76327000D01*
X67437000Y-77520155D01*
X67666890Y-77641476D01*
X67814099Y-77596825D01*
X68076920Y-77471641D01*
X68310269Y-77297588D01*
X68505178Y-77081355D01*
X68574805Y-76964466D01*
X68696525Y-77146632D01*
X68903368Y-77353475D01*
X69146589Y-77515990D01*
X69416842Y-77627932D01*
X69703740Y-77685000D01*
X69996260Y-77685000D01*
X70283158Y-77627932D01*
X70553411Y-77515990D01*
X70796632Y-77353475D01*
X71003475Y-77146632D01*
X71120000Y-76972240D01*
X71236525Y-77146632D01*
X71443368Y-77353475D01*
X71686589Y-77515990D01*
X71956842Y-77627932D01*
X72243740Y-77685000D01*
X72536260Y-77685000D01*
X72823158Y-77627932D01*
X73093411Y-77515990D01*
X73336632Y-77353475D01*
X73543475Y-77146632D01*
X73660000Y-76972240D01*
X73776525Y-77146632D01*
X73914000Y-77284107D01*
X73914001Y-81230088D01*
X73909085Y-81280000D01*
X73928702Y-81479170D01*
X73967418Y-81606798D01*
X73986799Y-81670687D01*
X74081141Y-81847190D01*
X74203432Y-81996202D01*
X73493100Y-81285870D01*
X72557067Y-80660433D01*
X71517004Y-80229625D01*
X70412878Y-80010000D01*
X69287122Y-80010000D01*
X68182996Y-80229625D01*
X67142933Y-80660433D01*
X66591038Y-81029197D01*
X65786001Y-80224161D01*
X65786000Y-77663218D01*
X65864180Y-77639502D01*
X65974494Y-77580537D01*
X66071185Y-77501185D01*
X66150537Y-77404494D01*
X66209502Y-77294180D01*
X66233966Y-77213534D01*
X66309731Y-77297588D01*
X66543080Y-77471641D01*
X66805901Y-77596825D01*
X66953110Y-77641476D01*
X67183000Y-77520155D01*
X67183000Y-76327000D01*
X67163000Y-76327000D01*
X67163000Y-76073000D01*
X67183000Y-76073000D01*
X67183000Y-74879845D01*
X66953110Y-74758524D01*
X66805901Y-74803175D01*
X66543080Y-74928359D01*
X66309731Y-75102412D01*
X66233966Y-75186466D01*
X66209502Y-75105820D01*
X66150537Y-74995506D01*
X66071185Y-74898815D01*
X65974494Y-74819463D01*
X65864180Y-74760498D01*
X65744482Y-74724188D01*
X65620000Y-74711928D01*
X63920000Y-74711928D01*
X63795518Y-74724188D01*
X63675820Y-74760498D01*
X63565506Y-74819463D01*
X63468815Y-74898815D01*
X63389463Y-74995506D01*
X63330498Y-75105820D01*
X63294188Y-75225518D01*
X63281928Y-75350000D01*
X51460000Y-75350000D01*
X51460000Y-64454385D01*
X61565505Y-64454385D01*
X61565505Y-65085615D01*
X61688652Y-65704717D01*
X61930214Y-66287897D01*
X62280906Y-66812746D01*
X62727254Y-67259094D01*
X63252103Y-67609786D01*
X63835283Y-67851348D01*
X64454385Y-67974495D01*
X65085615Y-67974495D01*
X65704717Y-67851348D01*
X66287897Y-67609786D01*
X66812746Y-67259094D01*
X67259094Y-66812746D01*
X67609786Y-66287897D01*
X67851348Y-65704717D01*
X67974495Y-65085615D01*
X67974495Y-64454385D01*
X74265505Y-64454385D01*
X74265505Y-65085615D01*
X74388652Y-65704717D01*
X74630214Y-66287897D01*
X74980906Y-66812746D01*
X75427254Y-67259094D01*
X75952103Y-67609786D01*
X76535283Y-67851348D01*
X77154385Y-67974495D01*
X77785615Y-67974495D01*
X78404717Y-67851348D01*
X78987897Y-67609786D01*
X79512746Y-67259094D01*
X79959094Y-66812746D01*
X80309786Y-66287897D01*
X80551348Y-65704717D01*
X80674495Y-65085615D01*
X80674495Y-64454385D01*
X86965505Y-64454385D01*
X86965505Y-65085615D01*
X87088652Y-65704717D01*
X87330214Y-66287897D01*
X87680906Y-66812746D01*
X88127254Y-67259094D01*
X88652103Y-67609786D01*
X89235283Y-67851348D01*
X89854385Y-67974495D01*
X90485615Y-67974495D01*
X91104717Y-67851348D01*
X91687897Y-67609786D01*
X92212746Y-67259094D01*
X92659094Y-66812746D01*
X93009786Y-66287897D01*
X93251348Y-65704717D01*
X93374495Y-65085615D01*
X93374495Y-64454385D01*
X99665505Y-64454385D01*
X99665505Y-65085615D01*
X99788652Y-65704717D01*
X100030214Y-66287897D01*
X100380906Y-66812746D01*
X100827254Y-67259094D01*
X101352103Y-67609786D01*
X101935283Y-67851348D01*
X102554385Y-67974495D01*
X103185615Y-67974495D01*
X103804717Y-67851348D01*
X104387897Y-67609786D01*
X104912746Y-67259094D01*
X105359094Y-66812746D01*
X105709786Y-66287897D01*
X105951348Y-65704717D01*
X106074495Y-65085615D01*
X106074495Y-64454385D01*
X112365505Y-64454385D01*
X112365505Y-65085615D01*
X112488652Y-65704717D01*
X112730214Y-66287897D01*
X113080906Y-66812746D01*
X113527254Y-67259094D01*
X114052103Y-67609786D01*
X114635283Y-67851348D01*
X115254385Y-67974495D01*
X115885615Y-67974495D01*
X116504717Y-67851348D01*
X117087897Y-67609786D01*
X117612746Y-67259094D01*
X118059094Y-66812746D01*
X118409786Y-66287897D01*
X118651348Y-65704717D01*
X118774495Y-65085615D01*
X118774495Y-64644885D01*
X125065505Y-64644885D01*
X125065505Y-65276115D01*
X125188652Y-65895217D01*
X125430214Y-66478397D01*
X125780906Y-67003246D01*
X126227254Y-67449594D01*
X126752103Y-67800286D01*
X127335283Y-68041848D01*
X127954385Y-68164995D01*
X128585615Y-68164995D01*
X129204717Y-68041848D01*
X129787897Y-67800286D01*
X130312746Y-67449594D01*
X130759094Y-67003246D01*
X131109786Y-66478397D01*
X131351348Y-65895217D01*
X131474495Y-65276115D01*
X131474495Y-64644885D01*
X131436603Y-64454385D01*
X137765505Y-64454385D01*
X137765505Y-65085615D01*
X137888652Y-65704717D01*
X138130214Y-66287897D01*
X138480906Y-66812746D01*
X138927254Y-67259094D01*
X139452103Y-67609786D01*
X140035283Y-67851348D01*
X140654385Y-67974495D01*
X141285615Y-67974495D01*
X141904717Y-67851348D01*
X142487897Y-67609786D01*
X143012746Y-67259094D01*
X143459094Y-66812746D01*
X143809786Y-66287897D01*
X144051348Y-65704717D01*
X144174495Y-65085615D01*
X144174495Y-64454385D01*
X150465505Y-64454385D01*
X150465505Y-65085615D01*
X150588652Y-65704717D01*
X150830214Y-66287897D01*
X151180906Y-66812746D01*
X151627254Y-67259094D01*
X152152103Y-67609786D01*
X152735283Y-67851348D01*
X153354385Y-67974495D01*
X153985615Y-67974495D01*
X154604717Y-67851348D01*
X155187897Y-67609786D01*
X155712746Y-67259094D01*
X156159094Y-66812746D01*
X156509786Y-66287897D01*
X156751348Y-65704717D01*
X156874495Y-65085615D01*
X156874495Y-64454385D01*
X156751348Y-63835283D01*
X156509786Y-63252103D01*
X156159094Y-62727254D01*
X155712746Y-62280906D01*
X155187897Y-61930214D01*
X154604717Y-61688652D01*
X153985615Y-61565505D01*
X153354385Y-61565505D01*
X152735283Y-61688652D01*
X152152103Y-61930214D01*
X151627254Y-62280906D01*
X151180906Y-62727254D01*
X150830214Y-63252103D01*
X150588652Y-63835283D01*
X150465505Y-64454385D01*
X144174495Y-64454385D01*
X144051348Y-63835283D01*
X143809786Y-63252103D01*
X143459094Y-62727254D01*
X143012746Y-62280906D01*
X142487897Y-61930214D01*
X141904717Y-61688652D01*
X141285615Y-61565505D01*
X140654385Y-61565505D01*
X140035283Y-61688652D01*
X139452103Y-61930214D01*
X138927254Y-62280906D01*
X138480906Y-62727254D01*
X138130214Y-63252103D01*
X137888652Y-63835283D01*
X137765505Y-64454385D01*
X131436603Y-64454385D01*
X131351348Y-64025783D01*
X131109786Y-63442603D01*
X130759094Y-62917754D01*
X130312746Y-62471406D01*
X129787897Y-62120714D01*
X129204717Y-61879152D01*
X128585615Y-61756005D01*
X127954385Y-61756005D01*
X127335283Y-61879152D01*
X126752103Y-62120714D01*
X126227254Y-62471406D01*
X125780906Y-62917754D01*
X125430214Y-63442603D01*
X125188652Y-64025783D01*
X125065505Y-64644885D01*
X118774495Y-64644885D01*
X118774495Y-64454385D01*
X118651348Y-63835283D01*
X118409786Y-63252103D01*
X118059094Y-62727254D01*
X117612746Y-62280906D01*
X117087897Y-61930214D01*
X116504717Y-61688652D01*
X115885615Y-61565505D01*
X115254385Y-61565505D01*
X114635283Y-61688652D01*
X114052103Y-61930214D01*
X113527254Y-62280906D01*
X113080906Y-62727254D01*
X112730214Y-63252103D01*
X112488652Y-63835283D01*
X112365505Y-64454385D01*
X106074495Y-64454385D01*
X105951348Y-63835283D01*
X105709786Y-63252103D01*
X105359094Y-62727254D01*
X104912746Y-62280906D01*
X104387897Y-61930214D01*
X103804717Y-61688652D01*
X103185615Y-61565505D01*
X102554385Y-61565505D01*
X101935283Y-61688652D01*
X101352103Y-61930214D01*
X100827254Y-62280906D01*
X100380906Y-62727254D01*
X100030214Y-63252103D01*
X99788652Y-63835283D01*
X99665505Y-64454385D01*
X93374495Y-64454385D01*
X93251348Y-63835283D01*
X93009786Y-63252103D01*
X92659094Y-62727254D01*
X92212746Y-62280906D01*
X91687897Y-61930214D01*
X91104717Y-61688652D01*
X90485615Y-61565505D01*
X89854385Y-61565505D01*
X89235283Y-61688652D01*
X88652103Y-61930214D01*
X88127254Y-62280906D01*
X87680906Y-62727254D01*
X87330214Y-63252103D01*
X87088652Y-63835283D01*
X86965505Y-64454385D01*
X80674495Y-64454385D01*
X80551348Y-63835283D01*
X80309786Y-63252103D01*
X79959094Y-62727254D01*
X79512746Y-62280906D01*
X78987897Y-61930214D01*
X78404717Y-61688652D01*
X77785615Y-61565505D01*
X77154385Y-61565505D01*
X76535283Y-61688652D01*
X75952103Y-61930214D01*
X75427254Y-62280906D01*
X74980906Y-62727254D01*
X74630214Y-63252103D01*
X74388652Y-63835283D01*
X74265505Y-64454385D01*
X67974495Y-64454385D01*
X67851348Y-63835283D01*
X67609786Y-63252103D01*
X67259094Y-62727254D01*
X66812746Y-62280906D01*
X66287897Y-61930214D01*
X65704717Y-61688652D01*
X65085615Y-61565505D01*
X64454385Y-61565505D01*
X63835283Y-61688652D01*
X63252103Y-61930214D01*
X62727254Y-62280906D01*
X62280906Y-62727254D01*
X61930214Y-63252103D01*
X61688652Y-63835283D01*
X61565505Y-64454385D01*
X51460000Y-64454385D01*
X51460000Y-60985000D01*
X177140000Y-60985000D01*
X177140001Y-112903000D01*
G04 #@! TA.AperFunction,Conductor*
D17*
G36*
X177140001Y-112903000D02*
G01*
X58540000Y-112903000D01*
X58540000Y-112902998D01*
X58381252Y-112902998D01*
X58540000Y-112744250D01*
X58543072Y-112155000D01*
X58530812Y-112030518D01*
X58494502Y-111910820D01*
X58435537Y-111800506D01*
X58356185Y-111703815D01*
X58259494Y-111624463D01*
X58149180Y-111565498D01*
X58029482Y-111529188D01*
X57905000Y-111516928D01*
X57628250Y-111520000D01*
X57469500Y-111678750D01*
X57469500Y-112903000D01*
X57215500Y-112903000D01*
X57215500Y-111678750D01*
X57056750Y-111520000D01*
X56780000Y-111516928D01*
X56655518Y-111529188D01*
X56535820Y-111565498D01*
X56425506Y-111624463D01*
X56328815Y-111703815D01*
X56249463Y-111800506D01*
X56190498Y-111910820D01*
X56154188Y-112030518D01*
X56141928Y-112155000D01*
X56145000Y-112744250D01*
X56303748Y-112902998D01*
X56145000Y-112902998D01*
X56145000Y-112903000D01*
X55618072Y-112903000D01*
X55618072Y-112404997D01*
X55601008Y-112231743D01*
X55550472Y-112065148D01*
X55468405Y-111911612D01*
X55357963Y-111777037D01*
X55223388Y-111666595D01*
X55069852Y-111584528D01*
X54903257Y-111533992D01*
X54730003Y-111516928D01*
X54104997Y-111516928D01*
X53931743Y-111533992D01*
X53765148Y-111584528D01*
X53611612Y-111666595D01*
X53477037Y-111777037D01*
X53366595Y-111911612D01*
X53311867Y-112014000D01*
X52267459Y-112014000D01*
X52171939Y-111995000D01*
X51968061Y-111995000D01*
X51768102Y-112034774D01*
X51579744Y-112112795D01*
X51460000Y-112192805D01*
X51460000Y-105824872D01*
X53645000Y-105824872D01*
X53645000Y-106265128D01*
X53730890Y-106696925D01*
X53899369Y-107103669D01*
X54143962Y-107469729D01*
X54455271Y-107781038D01*
X54821331Y-108025631D01*
X55228075Y-108194110D01*
X55659872Y-108280000D01*
X56100128Y-108280000D01*
X56531925Y-108194110D01*
X56938669Y-108025631D01*
X57304729Y-107781038D01*
X57616038Y-107469729D01*
X57860631Y-107103669D01*
X58029110Y-106696925D01*
X58115000Y-106265128D01*
X58115000Y-105824872D01*
X58029110Y-105393075D01*
X57860631Y-104986331D01*
X57616038Y-104620271D01*
X57304729Y-104308962D01*
X56938669Y-104064369D01*
X56531925Y-103895890D01*
X56100128Y-103810000D01*
X55659872Y-103810000D01*
X55228075Y-103895890D01*
X54821331Y-104064369D01*
X54455271Y-104308962D01*
X54143962Y-104620271D01*
X53899369Y-104986331D01*
X53730890Y-105393075D01*
X53645000Y-105824872D01*
X51460000Y-105824872D01*
X51460000Y-75350000D01*
X63281928Y-75350000D01*
X63281928Y-77050000D01*
X63294188Y-77174482D01*
X63330498Y-77294180D01*
X63389463Y-77404494D01*
X63468815Y-77501185D01*
X63565506Y-77580537D01*
X63675820Y-77639502D01*
X63754001Y-77663218D01*
X63754002Y-80595090D01*
X63749086Y-80645001D01*
X63768703Y-80844171D01*
X63782397Y-80889313D01*
X63826800Y-81035688D01*
X63921142Y-81212191D01*
X64048106Y-81366897D01*
X64086869Y-81398709D01*
X65154197Y-82466038D01*
X64785433Y-83017933D01*
X64354625Y-84057996D01*
X64135000Y-85162122D01*
X64135000Y-86287878D01*
X64354625Y-87392004D01*
X64785433Y-88432067D01*
X65410870Y-89368100D01*
X66206900Y-90164130D01*
X67142933Y-90789567D01*
X68182996Y-91220375D01*
X69287122Y-91440000D01*
X70412878Y-91440000D01*
X71517004Y-91220375D01*
X72557067Y-90789567D01*
X73493100Y-90164130D01*
X74289130Y-89368100D01*
X74914567Y-88432067D01*
X75184000Y-87781598D01*
X75184001Y-98004158D01*
X73108962Y-100079197D01*
X72557067Y-99710433D01*
X71517004Y-99279625D01*
X70412878Y-99060000D01*
X69287122Y-99060000D01*
X68182996Y-99279625D01*
X67142933Y-99710433D01*
X66206900Y-100335870D01*
X65410870Y-101131900D01*
X64785433Y-102067933D01*
X64354625Y-103107996D01*
X64135000Y-104212122D01*
X64135000Y-105337878D01*
X64354625Y-106442004D01*
X64785433Y-107482067D01*
X65410870Y-108418100D01*
X66206900Y-109214130D01*
X67142933Y-109839567D01*
X68182996Y-110270375D01*
X69287122Y-110490000D01*
X70412878Y-110490000D01*
X71517004Y-110270375D01*
X72557067Y-109839567D01*
X73493100Y-109214130D01*
X74289130Y-108418100D01*
X74914567Y-107482067D01*
X75345375Y-106442004D01*
X75565000Y-105337878D01*
X75565000Y-104212122D01*
X75345375Y-103107996D01*
X74914567Y-102067933D01*
X74545803Y-101516038D01*
X76883133Y-99178708D01*
X76921896Y-99146896D01*
X77048860Y-98992190D01*
X77143202Y-98815687D01*
X77201298Y-98624171D01*
X77216000Y-98474902D01*
X77216000Y-98474901D01*
X77220915Y-98425001D01*
X77216000Y-98375099D01*
X77216000Y-87781598D01*
X77485433Y-88432067D01*
X78110870Y-89368100D01*
X78906900Y-90164130D01*
X79842933Y-90789567D01*
X80882996Y-91220375D01*
X81987122Y-91440000D01*
X83112878Y-91440000D01*
X84217004Y-91220375D01*
X85257067Y-90789567D01*
X86193100Y-90164130D01*
X86989130Y-89368100D01*
X87614567Y-88432067D01*
X87884000Y-87781598D01*
X87884001Y-98004158D01*
X85808962Y-100079197D01*
X85257067Y-99710433D01*
X84217004Y-99279625D01*
X83112878Y-99060000D01*
X81987122Y-99060000D01*
X80882996Y-99279625D01*
X79842933Y-99710433D01*
X78906900Y-100335870D01*
X78110870Y-101131900D01*
X77485433Y-102067933D01*
X77054625Y-103107996D01*
X76835000Y-104212122D01*
X76835000Y-105337878D01*
X77054625Y-106442004D01*
X77485433Y-107482067D01*
X78110870Y-108418100D01*
X78906900Y-109214130D01*
X79842933Y-109839567D01*
X80882996Y-110270375D01*
X81987122Y-110490000D01*
X83112878Y-110490000D01*
X84217004Y-110270375D01*
X85257067Y-109839567D01*
X86193100Y-109214130D01*
X86989130Y-108418100D01*
X87614567Y-107482067D01*
X88045375Y-106442004D01*
X88265000Y-105337878D01*
X88265000Y-104212122D01*
X88045375Y-103107996D01*
X87614567Y-102067933D01*
X87245803Y-101516038D01*
X89583133Y-99178708D01*
X89621896Y-99146896D01*
X89748860Y-98992190D01*
X89843202Y-98815687D01*
X89901298Y-98624171D01*
X89916000Y-98474902D01*
X89916000Y-98474901D01*
X89920915Y-98425001D01*
X89916000Y-98375099D01*
X89916000Y-87781598D01*
X90185433Y-88432067D01*
X90810870Y-89368100D01*
X91606900Y-90164130D01*
X92542933Y-90789567D01*
X93582996Y-91220375D01*
X94687122Y-91440000D01*
X95812878Y-91440000D01*
X96917004Y-91220375D01*
X97957067Y-90789567D01*
X98893100Y-90164130D01*
X99689130Y-89368100D01*
X100314567Y-88432067D01*
X100584000Y-87781598D01*
X100584001Y-98004158D01*
X98508962Y-100079197D01*
X97957067Y-99710433D01*
X96917004Y-99279625D01*
X95812878Y-99060000D01*
X94687122Y-99060000D01*
X93582996Y-99279625D01*
X92542933Y-99710433D01*
X91606900Y-100335870D01*
X90810870Y-101131900D01*
X90185433Y-102067933D01*
X89754625Y-103107996D01*
X89535000Y-104212122D01*
X89535000Y-105337878D01*
X89754625Y-106442004D01*
X90185433Y-107482067D01*
X90810870Y-108418100D01*
X91606900Y-109214130D01*
X92542933Y-109839567D01*
X93582996Y-110270375D01*
X94687122Y-110490000D01*
X95812878Y-110490000D01*
X96917004Y-110270375D01*
X97957067Y-109839567D01*
X98893100Y-109214130D01*
X99689130Y-108418100D01*
X100314567Y-107482067D01*
X100745375Y-106442004D01*
X100965000Y-105337878D01*
X100965000Y-104212122D01*
X100745375Y-103107996D01*
X100314567Y-102067933D01*
X99945803Y-101516038D01*
X102283133Y-99178708D01*
X102321896Y-99146896D01*
X102448860Y-98992190D01*
X102543202Y-98815687D01*
X102601298Y-98624171D01*
X102616000Y-98474902D01*
X102616000Y-98474901D01*
X102620915Y-98425001D01*
X102616000Y-98375099D01*
X102616000Y-87781598D01*
X102885433Y-88432067D01*
X103510870Y-89368100D01*
X104306900Y-90164130D01*
X105242933Y-90789567D01*
X106282996Y-91220375D01*
X107387122Y-91440000D01*
X108512878Y-91440000D01*
X109617004Y-91220375D01*
X110657067Y-90789567D01*
X111593100Y-90164130D01*
X112389130Y-89368100D01*
X113014567Y-88432067D01*
X113284000Y-87781598D01*
X113284001Y-98004158D01*
X111208962Y-100079197D01*
X110657067Y-99710433D01*
X109617004Y-99279625D01*
X108512878Y-99060000D01*
X107387122Y-99060000D01*
X106282996Y-99279625D01*
X105242933Y-99710433D01*
X104306900Y-100335870D01*
X103510870Y-101131900D01*
X102885433Y-102067933D01*
X102454625Y-103107996D01*
X102235000Y-104212122D01*
X102235000Y-105337878D01*
X102454625Y-106442004D01*
X102885433Y-107482067D01*
X103510870Y-108418100D01*
X104306900Y-109214130D01*
X105242933Y-109839567D01*
X106282996Y-110270375D01*
X107387122Y-110490000D01*
X108512878Y-110490000D01*
X109617004Y-110270375D01*
X110657067Y-109839567D01*
X111593100Y-109214130D01*
X112389130Y-108418100D01*
X113014567Y-107482067D01*
X113445375Y-106442004D01*
X113665000Y-105337878D01*
X113665000Y-104212122D01*
X113445375Y-103107996D01*
X113014567Y-102067933D01*
X112645803Y-101516038D01*
X114983133Y-99178708D01*
X115021896Y-99146896D01*
X115148860Y-98992190D01*
X115243202Y-98815687D01*
X115301298Y-98624171D01*
X115316000Y-98474902D01*
X115316000Y-98474901D01*
X115320915Y-98425001D01*
X115316000Y-98375099D01*
X115316000Y-87781598D01*
X115585433Y-88432067D01*
X116210870Y-89368100D01*
X117006900Y-90164130D01*
X117942933Y-90789567D01*
X118982996Y-91220375D01*
X120087122Y-91440000D01*
X121212878Y-91440000D01*
X122317004Y-91220375D01*
X123357067Y-90789567D01*
X124293100Y-90164130D01*
X125089130Y-89368100D01*
X125714567Y-88432067D01*
X125984000Y-87781598D01*
X125984001Y-98004158D01*
X123908962Y-100079197D01*
X123357067Y-99710433D01*
X122317004Y-99279625D01*
X121212878Y-99060000D01*
X120087122Y-99060000D01*
X118982996Y-99279625D01*
X117942933Y-99710433D01*
X117006900Y-100335870D01*
X116210870Y-101131900D01*
X115585433Y-102067933D01*
X115154625Y-103107996D01*
X114935000Y-104212122D01*
X114935000Y-105337878D01*
X115154625Y-106442004D01*
X115585433Y-107482067D01*
X116210870Y-108418100D01*
X117006900Y-109214130D01*
X117942933Y-109839567D01*
X118982996Y-110270375D01*
X120087122Y-110490000D01*
X121212878Y-110490000D01*
X122317004Y-110270375D01*
X123357067Y-109839567D01*
X124293100Y-109214130D01*
X125089130Y-108418100D01*
X125714567Y-107482067D01*
X126145375Y-106442004D01*
X126365000Y-105337878D01*
X126365000Y-104212122D01*
X126145375Y-103107996D01*
X125714567Y-102067933D01*
X125345803Y-101516038D01*
X127683133Y-99178708D01*
X127721896Y-99146896D01*
X127848860Y-98992190D01*
X127943202Y-98815687D01*
X128001298Y-98624171D01*
X128016000Y-98474902D01*
X128016000Y-98474901D01*
X128020915Y-98425001D01*
X128016000Y-98375099D01*
X128016000Y-87781598D01*
X128285433Y-88432067D01*
X128910870Y-89368100D01*
X129706900Y-90164130D01*
X130642933Y-90789567D01*
X131682996Y-91220375D01*
X132787122Y-91440000D01*
X133912878Y-91440000D01*
X135017004Y-91220375D01*
X136057067Y-90789567D01*
X136993100Y-90164130D01*
X137789130Y-89368100D01*
X138414567Y-88432067D01*
X138684000Y-87781598D01*
X138684001Y-98004158D01*
X136608962Y-100079197D01*
X136057067Y-99710433D01*
X135017004Y-99279625D01*
X133912878Y-99060000D01*
X132787122Y-99060000D01*
X131682996Y-99279625D01*
X130642933Y-99710433D01*
X129706900Y-100335870D01*
X128910870Y-101131900D01*
X128285433Y-102067933D01*
X127854625Y-103107996D01*
X127635000Y-104212122D01*
X127635000Y-105337878D01*
X127854625Y-106442004D01*
X128285433Y-107482067D01*
X128910870Y-108418100D01*
X129706900Y-109214130D01*
X130642933Y-109839567D01*
X131682996Y-110270375D01*
X132787122Y-110490000D01*
X133912878Y-110490000D01*
X135017004Y-110270375D01*
X136057067Y-109839567D01*
X136993100Y-109214130D01*
X137789130Y-108418100D01*
X138414567Y-107482067D01*
X138845375Y-106442004D01*
X139065000Y-105337878D01*
X139065000Y-104212122D01*
X138845375Y-103107996D01*
X138414567Y-102067933D01*
X138045803Y-101516038D01*
X140383133Y-99178708D01*
X140421896Y-99146896D01*
X140548860Y-98992190D01*
X140643202Y-98815687D01*
X140701298Y-98624171D01*
X140716000Y-98474902D01*
X140716000Y-98474901D01*
X140720915Y-98425001D01*
X140716000Y-98375099D01*
X140716000Y-87781598D01*
X140985433Y-88432067D01*
X141610870Y-89368100D01*
X142406900Y-90164130D01*
X143342933Y-90789567D01*
X144382996Y-91220375D01*
X145487122Y-91440000D01*
X146612878Y-91440000D01*
X147717004Y-91220375D01*
X148757067Y-90789567D01*
X149693100Y-90164130D01*
X150489130Y-89368100D01*
X151114567Y-88432067D01*
X151384000Y-87781598D01*
X151384001Y-98004158D01*
X149308962Y-100079197D01*
X148757067Y-99710433D01*
X147717004Y-99279625D01*
X146612878Y-99060000D01*
X145487122Y-99060000D01*
X144382996Y-99279625D01*
X143342933Y-99710433D01*
X142406900Y-100335870D01*
X141610870Y-101131900D01*
X140985433Y-102067933D01*
X140554625Y-103107996D01*
X140335000Y-104212122D01*
X140335000Y-105337878D01*
X140554625Y-106442004D01*
X140985433Y-107482067D01*
X141610870Y-108418100D01*
X142406900Y-109214130D01*
X143342933Y-109839567D01*
X144382996Y-110270375D01*
X145487122Y-110490000D01*
X146612878Y-110490000D01*
X147717004Y-110270375D01*
X148757067Y-109839567D01*
X149693100Y-109214130D01*
X150489130Y-108418100D01*
X151114567Y-107482067D01*
X151545375Y-106442004D01*
X151765000Y-105337878D01*
X151765000Y-104212122D01*
X151545375Y-103107996D01*
X151114567Y-102067933D01*
X150745803Y-101516038D01*
X153083133Y-99178708D01*
X153121896Y-99146896D01*
X153248860Y-98992190D01*
X153343202Y-98815687D01*
X153401298Y-98624171D01*
X153416000Y-98474902D01*
X153416000Y-98474901D01*
X153420915Y-98425001D01*
X153416000Y-98375099D01*
X153416000Y-87781598D01*
X153685433Y-88432067D01*
X154310870Y-89368100D01*
X155106900Y-90164130D01*
X156042933Y-90789567D01*
X157082996Y-91220375D01*
X158187122Y-91440000D01*
X159312878Y-91440000D01*
X160417004Y-91220375D01*
X161457067Y-90789567D01*
X162393100Y-90164130D01*
X163189130Y-89368100D01*
X163814567Y-88432067D01*
X164084001Y-87781598D01*
X164084000Y-98004159D01*
X162008962Y-100079197D01*
X161457067Y-99710433D01*
X160417004Y-99279625D01*
X159312878Y-99060000D01*
X158187122Y-99060000D01*
X157082996Y-99279625D01*
X156042933Y-99710433D01*
X155106900Y-100335870D01*
X154310870Y-101131900D01*
X153685433Y-102067933D01*
X153254625Y-103107996D01*
X153035000Y-104212122D01*
X153035000Y-105337878D01*
X153254625Y-106442004D01*
X153685433Y-107482067D01*
X154310870Y-108418100D01*
X155106900Y-109214130D01*
X156042933Y-109839567D01*
X157082996Y-110270375D01*
X158187122Y-110490000D01*
X159312878Y-110490000D01*
X160417004Y-110270375D01*
X161457067Y-109839567D01*
X162393100Y-109214130D01*
X163189130Y-108418100D01*
X163814567Y-107482067D01*
X164245375Y-106442004D01*
X164368130Y-105824872D01*
X170485000Y-105824872D01*
X170485000Y-106265128D01*
X170570890Y-106696925D01*
X170739369Y-107103669D01*
X170983962Y-107469729D01*
X171295271Y-107781038D01*
X171661331Y-108025631D01*
X172068075Y-108194110D01*
X172499872Y-108280000D01*
X172940128Y-108280000D01*
X173371925Y-108194110D01*
X173778669Y-108025631D01*
X174144729Y-107781038D01*
X174456038Y-107469729D01*
X174700631Y-107103669D01*
X174869110Y-106696925D01*
X174955000Y-106265128D01*
X174955000Y-105824872D01*
X174869110Y-105393075D01*
X174700631Y-104986331D01*
X174456038Y-104620271D01*
X174144729Y-104308962D01*
X173778669Y-104064369D01*
X173371925Y-103895890D01*
X172940128Y-103810000D01*
X172499872Y-103810000D01*
X172068075Y-103895890D01*
X171661331Y-104064369D01*
X171295271Y-104308962D01*
X170983962Y-104620271D01*
X170739369Y-104986331D01*
X170570890Y-105393075D01*
X170485000Y-105824872D01*
X164368130Y-105824872D01*
X164465000Y-105337878D01*
X164465000Y-104212122D01*
X164245375Y-103107996D01*
X163814567Y-102067933D01*
X163445803Y-101516038D01*
X165783133Y-99178708D01*
X165821896Y-99146896D01*
X165948860Y-98992190D01*
X166043202Y-98815687D01*
X166101298Y-98624171D01*
X166116000Y-98474902D01*
X166116000Y-98474901D01*
X166120915Y-98425001D01*
X166116000Y-98375099D01*
X166116000Y-82599893D01*
X166120914Y-82549999D01*
X166116000Y-82500105D01*
X166116000Y-82500098D01*
X166101298Y-82350829D01*
X166043202Y-82159313D01*
X165948860Y-81982810D01*
X165821896Y-81828104D01*
X165783133Y-81796292D01*
X164846000Y-80859160D01*
X164846000Y-77284107D01*
X164983475Y-77146632D01*
X165145990Y-76903411D01*
X165257932Y-76633158D01*
X165315000Y-76346260D01*
X165315000Y-76053740D01*
X165257932Y-75766842D01*
X165145990Y-75496589D01*
X164983475Y-75253368D01*
X164776632Y-75046525D01*
X164533411Y-74884010D01*
X164263158Y-74772068D01*
X163976260Y-74715000D01*
X163683740Y-74715000D01*
X163396842Y-74772068D01*
X163126589Y-74884010D01*
X162883368Y-75046525D01*
X162676525Y-75253368D01*
X162560000Y-75427760D01*
X162443475Y-75253368D01*
X162236632Y-75046525D01*
X161993411Y-74884010D01*
X161723158Y-74772068D01*
X161436260Y-74715000D01*
X161143740Y-74715000D01*
X160856842Y-74772068D01*
X160586589Y-74884010D01*
X160343368Y-75046525D01*
X160136525Y-75253368D01*
X160020000Y-75427760D01*
X159903475Y-75253368D01*
X159696632Y-75046525D01*
X159453411Y-74884010D01*
X159183158Y-74772068D01*
X158896260Y-74715000D01*
X158603740Y-74715000D01*
X158316842Y-74772068D01*
X158046589Y-74884010D01*
X157803368Y-75046525D01*
X157596525Y-75253368D01*
X157474805Y-75435534D01*
X157405178Y-75318645D01*
X157210269Y-75102412D01*
X156976920Y-74928359D01*
X156714099Y-74803175D01*
X156566890Y-74758524D01*
X156337000Y-74879845D01*
X156337000Y-76073000D01*
X156357000Y-76073000D01*
X156357000Y-76327000D01*
X156337000Y-76327000D01*
X156337000Y-77520155D01*
X156566890Y-77641476D01*
X156714099Y-77596825D01*
X156976920Y-77471641D01*
X157210269Y-77297588D01*
X157405178Y-77081355D01*
X157474805Y-76964466D01*
X157596525Y-77146632D01*
X157803368Y-77353475D01*
X158046589Y-77515990D01*
X158316842Y-77627932D01*
X158603740Y-77685000D01*
X158896260Y-77685000D01*
X159183158Y-77627932D01*
X159453411Y-77515990D01*
X159696632Y-77353475D01*
X159903475Y-77146632D01*
X160020000Y-76972240D01*
X160136525Y-77146632D01*
X160343368Y-77353475D01*
X160586589Y-77515990D01*
X160856842Y-77627932D01*
X161143740Y-77685000D01*
X161436260Y-77685000D01*
X161723158Y-77627932D01*
X161993411Y-77515990D01*
X162236632Y-77353475D01*
X162443475Y-77146632D01*
X162560000Y-76972240D01*
X162676525Y-77146632D01*
X162814000Y-77284107D01*
X162814001Y-81230088D01*
X162809085Y-81280000D01*
X162828702Y-81479170D01*
X162867418Y-81606798D01*
X162886799Y-81670687D01*
X162981141Y-81847190D01*
X163103432Y-81996202D01*
X162393100Y-81285870D01*
X161457067Y-80660433D01*
X160417004Y-80229625D01*
X159312878Y-80010000D01*
X158187122Y-80010000D01*
X157082996Y-80229625D01*
X156042933Y-80660433D01*
X155491038Y-81029197D01*
X154686001Y-80224161D01*
X154685999Y-77284108D01*
X154823475Y-77146632D01*
X154945195Y-76964466D01*
X155014822Y-77081355D01*
X155209731Y-77297588D01*
X155443080Y-77471641D01*
X155705901Y-77596825D01*
X155853110Y-77641476D01*
X156083000Y-77520155D01*
X156083000Y-76327000D01*
X156063000Y-76327000D01*
X156063000Y-76073000D01*
X156083000Y-76073000D01*
X156083000Y-74879845D01*
X155853110Y-74758524D01*
X155705901Y-74803175D01*
X155443080Y-74928359D01*
X155209731Y-75102412D01*
X155014822Y-75318645D01*
X154945195Y-75435534D01*
X154823475Y-75253368D01*
X154616632Y-75046525D01*
X154373411Y-74884010D01*
X154103158Y-74772068D01*
X153816260Y-74715000D01*
X153523740Y-74715000D01*
X153236842Y-74772068D01*
X152966589Y-74884010D01*
X152723368Y-75046525D01*
X152516525Y-75253368D01*
X152400000Y-75427760D01*
X152283475Y-75253368D01*
X152076632Y-75046525D01*
X151833411Y-74884010D01*
X151563158Y-74772068D01*
X151276260Y-74715000D01*
X150983740Y-74715000D01*
X150696842Y-74772068D01*
X150426589Y-74884010D01*
X150183368Y-75046525D01*
X149976525Y-75253368D01*
X149860000Y-75427760D01*
X149743475Y-75253368D01*
X149536632Y-75046525D01*
X149293411Y-74884010D01*
X149023158Y-74772068D01*
X148736260Y-74715000D01*
X148443740Y-74715000D01*
X148156842Y-74772068D01*
X147886589Y-74884010D01*
X147643368Y-75046525D01*
X147436525Y-75253368D01*
X147320000Y-75427760D01*
X147203475Y-75253368D01*
X146996632Y-75046525D01*
X146753411Y-74884010D01*
X146483158Y-74772068D01*
X146196260Y-74715000D01*
X145903740Y-74715000D01*
X145616842Y-74772068D01*
X145346589Y-74884010D01*
X145103368Y-75046525D01*
X144896525Y-75253368D01*
X144774805Y-75435534D01*
X144705178Y-75318645D01*
X144510269Y-75102412D01*
X144276920Y-74928359D01*
X144014099Y-74803175D01*
X143866890Y-74758524D01*
X143637000Y-74879845D01*
X143637000Y-76073000D01*
X143657000Y-76073000D01*
X143657000Y-76327000D01*
X143637000Y-76327000D01*
X143637000Y-77520155D01*
X143866890Y-77641476D01*
X144014099Y-77596825D01*
X144276920Y-77471641D01*
X144510269Y-77297588D01*
X144705178Y-77081355D01*
X144774805Y-76964466D01*
X144896525Y-77146632D01*
X145103368Y-77353475D01*
X145346589Y-77515990D01*
X145616842Y-77627932D01*
X145903740Y-77685000D01*
X146196260Y-77685000D01*
X146483158Y-77627932D01*
X146753411Y-77515990D01*
X146996632Y-77353475D01*
X147203475Y-77146632D01*
X147320000Y-76972240D01*
X147436525Y-77146632D01*
X147643368Y-77353475D01*
X147886589Y-77515990D01*
X148156842Y-77627932D01*
X148443740Y-77685000D01*
X148736260Y-77685000D01*
X149023158Y-77627932D01*
X149293411Y-77515990D01*
X149536632Y-77353475D01*
X149743475Y-77146632D01*
X149860000Y-76972240D01*
X149976525Y-77146632D01*
X150114000Y-77284107D01*
X150114001Y-81230088D01*
X150109085Y-81280000D01*
X150128702Y-81479170D01*
X150167418Y-81606798D01*
X150186799Y-81670687D01*
X150281141Y-81847190D01*
X150403432Y-81996202D01*
X149693100Y-81285870D01*
X148757067Y-80660433D01*
X147717004Y-80229625D01*
X146612878Y-80010000D01*
X145487122Y-80010000D01*
X144382996Y-80229625D01*
X143342933Y-80660433D01*
X142791038Y-81029197D01*
X141986001Y-80224161D01*
X141985999Y-77284108D01*
X142123475Y-77146632D01*
X142245195Y-76964466D01*
X142314822Y-77081355D01*
X142509731Y-77297588D01*
X142743080Y-77471641D01*
X143005901Y-77596825D01*
X143153110Y-77641476D01*
X143383000Y-77520155D01*
X143383000Y-76327000D01*
X143363000Y-76327000D01*
X143363000Y-76073000D01*
X143383000Y-76073000D01*
X143383000Y-74879845D01*
X143153110Y-74758524D01*
X143005901Y-74803175D01*
X142743080Y-74928359D01*
X142509731Y-75102412D01*
X142314822Y-75318645D01*
X142245195Y-75435534D01*
X142123475Y-75253368D01*
X141916632Y-75046525D01*
X141673411Y-74884010D01*
X141403158Y-74772068D01*
X141116260Y-74715000D01*
X140823740Y-74715000D01*
X140536842Y-74772068D01*
X140266589Y-74884010D01*
X140023368Y-75046525D01*
X139816525Y-75253368D01*
X139700000Y-75427760D01*
X139583475Y-75253368D01*
X139376632Y-75046525D01*
X139133411Y-74884010D01*
X138863158Y-74772068D01*
X138576260Y-74715000D01*
X138283740Y-74715000D01*
X137996842Y-74772068D01*
X137726589Y-74884010D01*
X137483368Y-75046525D01*
X137276525Y-75253368D01*
X137160000Y-75427760D01*
X137043475Y-75253368D01*
X136836632Y-75046525D01*
X136593411Y-74884010D01*
X136323158Y-74772068D01*
X136036260Y-74715000D01*
X135743740Y-74715000D01*
X135456842Y-74772068D01*
X135186589Y-74884010D01*
X134943368Y-75046525D01*
X134736525Y-75253368D01*
X134620000Y-75427760D01*
X134503475Y-75253368D01*
X134296632Y-75046525D01*
X134053411Y-74884010D01*
X133783158Y-74772068D01*
X133496260Y-74715000D01*
X133203740Y-74715000D01*
X132916842Y-74772068D01*
X132646589Y-74884010D01*
X132403368Y-75046525D01*
X132196525Y-75253368D01*
X132074805Y-75435534D01*
X132005178Y-75318645D01*
X131810269Y-75102412D01*
X131576920Y-74928359D01*
X131314099Y-74803175D01*
X131166890Y-74758524D01*
X130937000Y-74879845D01*
X130937000Y-76073000D01*
X130957000Y-76073000D01*
X130957000Y-76327000D01*
X130937000Y-76327000D01*
X130937000Y-77520155D01*
X131166890Y-77641476D01*
X131314099Y-77596825D01*
X131576920Y-77471641D01*
X131810269Y-77297588D01*
X132005178Y-77081355D01*
X132074805Y-76964466D01*
X132196525Y-77146632D01*
X132403368Y-77353475D01*
X132646589Y-77515990D01*
X132916842Y-77627932D01*
X133203740Y-77685000D01*
X133496260Y-77685000D01*
X133783158Y-77627932D01*
X134053411Y-77515990D01*
X134296632Y-77353475D01*
X134503475Y-77146632D01*
X134620000Y-76972240D01*
X134736525Y-77146632D01*
X134943368Y-77353475D01*
X135186589Y-77515990D01*
X135456842Y-77627932D01*
X135743740Y-77685000D01*
X136036260Y-77685000D01*
X136323158Y-77627932D01*
X136593411Y-77515990D01*
X136836632Y-77353475D01*
X137043475Y-77146632D01*
X137160000Y-76972240D01*
X137276525Y-77146632D01*
X137414000Y-77284107D01*
X137414001Y-81230088D01*
X137409085Y-81280000D01*
X137428702Y-81479170D01*
X137467418Y-81606798D01*
X137486799Y-81670687D01*
X137581141Y-81847190D01*
X137703432Y-81996202D01*
X136993100Y-81285870D01*
X136057067Y-80660433D01*
X135017004Y-80229625D01*
X133912878Y-80010000D01*
X132787122Y-80010000D01*
X131682996Y-80229625D01*
X130642933Y-80660433D01*
X130091038Y-81029197D01*
X129286001Y-80224161D01*
X129285999Y-77284108D01*
X129423475Y-77146632D01*
X129545195Y-76964466D01*
X129614822Y-77081355D01*
X129809731Y-77297588D01*
X130043080Y-77471641D01*
X130305901Y-77596825D01*
X130453110Y-77641476D01*
X130683000Y-77520155D01*
X130683000Y-76327000D01*
X130663000Y-76327000D01*
X130663000Y-76073000D01*
X130683000Y-76073000D01*
X130683000Y-74879845D01*
X130453110Y-74758524D01*
X130305901Y-74803175D01*
X130043080Y-74928359D01*
X129809731Y-75102412D01*
X129614822Y-75318645D01*
X129545195Y-75435534D01*
X129423475Y-75253368D01*
X129216632Y-75046525D01*
X128973411Y-74884010D01*
X128703158Y-74772068D01*
X128416260Y-74715000D01*
X128123740Y-74715000D01*
X127836842Y-74772068D01*
X127566589Y-74884010D01*
X127323368Y-75046525D01*
X127116525Y-75253368D01*
X127000000Y-75427760D01*
X126883475Y-75253368D01*
X126676632Y-75046525D01*
X126433411Y-74884010D01*
X126163158Y-74772068D01*
X125876260Y-74715000D01*
X125583740Y-74715000D01*
X125296842Y-74772068D01*
X125026589Y-74884010D01*
X124783368Y-75046525D01*
X124576525Y-75253368D01*
X124460000Y-75427760D01*
X124343475Y-75253368D01*
X124136632Y-75046525D01*
X123893411Y-74884010D01*
X123623158Y-74772068D01*
X123336260Y-74715000D01*
X123043740Y-74715000D01*
X122756842Y-74772068D01*
X122486589Y-74884010D01*
X122243368Y-75046525D01*
X122036525Y-75253368D01*
X121920000Y-75427760D01*
X121803475Y-75253368D01*
X121596632Y-75046525D01*
X121353411Y-74884010D01*
X121083158Y-74772068D01*
X120796260Y-74715000D01*
X120503740Y-74715000D01*
X120216842Y-74772068D01*
X119946589Y-74884010D01*
X119703368Y-75046525D01*
X119496525Y-75253368D01*
X119374805Y-75435534D01*
X119305178Y-75318645D01*
X119110269Y-75102412D01*
X118876920Y-74928359D01*
X118614099Y-74803175D01*
X118466890Y-74758524D01*
X118237000Y-74879845D01*
X118237000Y-76073000D01*
X118257000Y-76073000D01*
X118257000Y-76327000D01*
X118237000Y-76327000D01*
X118237000Y-77520155D01*
X118466890Y-77641476D01*
X118614099Y-77596825D01*
X118876920Y-77471641D01*
X119110269Y-77297588D01*
X119305178Y-77081355D01*
X119374805Y-76964466D01*
X119496525Y-77146632D01*
X119703368Y-77353475D01*
X119946589Y-77515990D01*
X120216842Y-77627932D01*
X120503740Y-77685000D01*
X120796260Y-77685000D01*
X121083158Y-77627932D01*
X121353411Y-77515990D01*
X121596632Y-77353475D01*
X121803475Y-77146632D01*
X121920000Y-76972240D01*
X122036525Y-77146632D01*
X122243368Y-77353475D01*
X122486589Y-77515990D01*
X122756842Y-77627932D01*
X123043740Y-77685000D01*
X123336260Y-77685000D01*
X123623158Y-77627932D01*
X123893411Y-77515990D01*
X124136632Y-77353475D01*
X124343475Y-77146632D01*
X124460000Y-76972240D01*
X124576525Y-77146632D01*
X124714000Y-77284107D01*
X124714001Y-81230088D01*
X124709085Y-81280000D01*
X124728702Y-81479170D01*
X124767418Y-81606798D01*
X124786799Y-81670687D01*
X124881141Y-81847190D01*
X125003432Y-81996202D01*
X124293100Y-81285870D01*
X123357067Y-80660433D01*
X122317004Y-80229625D01*
X121212878Y-80010000D01*
X120087122Y-80010000D01*
X118982996Y-80229625D01*
X117942933Y-80660433D01*
X117391038Y-81029197D01*
X116586001Y-80224161D01*
X116586001Y-77284106D01*
X116723475Y-77146632D01*
X116845195Y-76964466D01*
X116914822Y-77081355D01*
X117109731Y-77297588D01*
X117343080Y-77471641D01*
X117605901Y-77596825D01*
X117753110Y-77641476D01*
X117983000Y-77520155D01*
X117983000Y-76327000D01*
X117963000Y-76327000D01*
X117963000Y-76073000D01*
X117983000Y-76073000D01*
X117983000Y-74879845D01*
X117753110Y-74758524D01*
X117605901Y-74803175D01*
X117343080Y-74928359D01*
X117109731Y-75102412D01*
X116914822Y-75318645D01*
X116845195Y-75435534D01*
X116723475Y-75253368D01*
X116516632Y-75046525D01*
X116273411Y-74884010D01*
X116003158Y-74772068D01*
X115716260Y-74715000D01*
X115423740Y-74715000D01*
X115136842Y-74772068D01*
X114866589Y-74884010D01*
X114623368Y-75046525D01*
X114416525Y-75253368D01*
X114300000Y-75427760D01*
X114183475Y-75253368D01*
X113976632Y-75046525D01*
X113733411Y-74884010D01*
X113463158Y-74772068D01*
X113176260Y-74715000D01*
X112883740Y-74715000D01*
X112596842Y-74772068D01*
X112326589Y-74884010D01*
X112083368Y-75046525D01*
X111876525Y-75253368D01*
X111760000Y-75427760D01*
X111643475Y-75253368D01*
X111436632Y-75046525D01*
X111193411Y-74884010D01*
X110923158Y-74772068D01*
X110636260Y-74715000D01*
X110343740Y-74715000D01*
X110056842Y-74772068D01*
X109786589Y-74884010D01*
X109543368Y-75046525D01*
X109336525Y-75253368D01*
X109220000Y-75427760D01*
X109103475Y-75253368D01*
X108896632Y-75046525D01*
X108653411Y-74884010D01*
X108383158Y-74772068D01*
X108096260Y-74715000D01*
X107803740Y-74715000D01*
X107516842Y-74772068D01*
X107246589Y-74884010D01*
X107003368Y-75046525D01*
X106796525Y-75253368D01*
X106674805Y-75435534D01*
X106605178Y-75318645D01*
X106410269Y-75102412D01*
X106176920Y-74928359D01*
X105914099Y-74803175D01*
X105766890Y-74758524D01*
X105537000Y-74879845D01*
X105537000Y-76073000D01*
X105557000Y-76073000D01*
X105557000Y-76327000D01*
X105537000Y-76327000D01*
X105537000Y-77520155D01*
X105766890Y-77641476D01*
X105914099Y-77596825D01*
X106176920Y-77471641D01*
X106410269Y-77297588D01*
X106605178Y-77081355D01*
X106674805Y-76964466D01*
X106796525Y-77146632D01*
X107003368Y-77353475D01*
X107246589Y-77515990D01*
X107516842Y-77627932D01*
X107803740Y-77685000D01*
X108096260Y-77685000D01*
X108383158Y-77627932D01*
X108653411Y-77515990D01*
X108896632Y-77353475D01*
X109103475Y-77146632D01*
X109220000Y-76972240D01*
X109336525Y-77146632D01*
X109543368Y-77353475D01*
X109786589Y-77515990D01*
X110056842Y-77627932D01*
X110343740Y-77685000D01*
X110636260Y-77685000D01*
X110923158Y-77627932D01*
X111193411Y-77515990D01*
X111436632Y-77353475D01*
X111643475Y-77146632D01*
X111760000Y-76972240D01*
X111876525Y-77146632D01*
X112014000Y-77284107D01*
X112014001Y-81230088D01*
X112009085Y-81280000D01*
X112028702Y-81479170D01*
X112067418Y-81606798D01*
X112086799Y-81670687D01*
X112181141Y-81847190D01*
X112303432Y-81996202D01*
X111593100Y-81285870D01*
X110657067Y-80660433D01*
X109617004Y-80229625D01*
X108512878Y-80010000D01*
X107387122Y-80010000D01*
X106282996Y-80229625D01*
X105242933Y-80660433D01*
X104691038Y-81029197D01*
X103886001Y-80224161D01*
X103885999Y-77284108D01*
X104023475Y-77146632D01*
X104145195Y-76964466D01*
X104214822Y-77081355D01*
X104409731Y-77297588D01*
X104643080Y-77471641D01*
X104905901Y-77596825D01*
X105053110Y-77641476D01*
X105283000Y-77520155D01*
X105283000Y-76327000D01*
X105263000Y-76327000D01*
X105263000Y-76073000D01*
X105283000Y-76073000D01*
X105283000Y-74879845D01*
X105053110Y-74758524D01*
X104905901Y-74803175D01*
X104643080Y-74928359D01*
X104409731Y-75102412D01*
X104214822Y-75318645D01*
X104145195Y-75435534D01*
X104023475Y-75253368D01*
X103816632Y-75046525D01*
X103573411Y-74884010D01*
X103303158Y-74772068D01*
X103016260Y-74715000D01*
X102723740Y-74715000D01*
X102436842Y-74772068D01*
X102166589Y-74884010D01*
X101923368Y-75046525D01*
X101716525Y-75253368D01*
X101600000Y-75427760D01*
X101483475Y-75253368D01*
X101276632Y-75046525D01*
X101033411Y-74884010D01*
X100763158Y-74772068D01*
X100476260Y-74715000D01*
X100183740Y-74715000D01*
X99896842Y-74772068D01*
X99626589Y-74884010D01*
X99383368Y-75046525D01*
X99176525Y-75253368D01*
X99060000Y-75427760D01*
X98943475Y-75253368D01*
X98736632Y-75046525D01*
X98493411Y-74884010D01*
X98223158Y-74772068D01*
X97936260Y-74715000D01*
X97643740Y-74715000D01*
X97356842Y-74772068D01*
X97086589Y-74884010D01*
X96843368Y-75046525D01*
X96636525Y-75253368D01*
X96520000Y-75427760D01*
X96403475Y-75253368D01*
X96196632Y-75046525D01*
X95953411Y-74884010D01*
X95683158Y-74772068D01*
X95396260Y-74715000D01*
X95103740Y-74715000D01*
X94816842Y-74772068D01*
X94546589Y-74884010D01*
X94303368Y-75046525D01*
X94096525Y-75253368D01*
X93974805Y-75435534D01*
X93905178Y-75318645D01*
X93710269Y-75102412D01*
X93476920Y-74928359D01*
X93214099Y-74803175D01*
X93066890Y-74758524D01*
X92837000Y-74879845D01*
X92837000Y-76073000D01*
X92857000Y-76073000D01*
X92857000Y-76327000D01*
X92837000Y-76327000D01*
X92837000Y-77520155D01*
X93066890Y-77641476D01*
X93214099Y-77596825D01*
X93476920Y-77471641D01*
X93710269Y-77297588D01*
X93905178Y-77081355D01*
X93974805Y-76964466D01*
X94096525Y-77146632D01*
X94303368Y-77353475D01*
X94546589Y-77515990D01*
X94816842Y-77627932D01*
X95103740Y-77685000D01*
X95396260Y-77685000D01*
X95683158Y-77627932D01*
X95953411Y-77515990D01*
X96196632Y-77353475D01*
X96403475Y-77146632D01*
X96520000Y-76972240D01*
X96636525Y-77146632D01*
X96843368Y-77353475D01*
X97086589Y-77515990D01*
X97356842Y-77627932D01*
X97643740Y-77685000D01*
X97936260Y-77685000D01*
X98223158Y-77627932D01*
X98493411Y-77515990D01*
X98736632Y-77353475D01*
X98943475Y-77146632D01*
X99060000Y-76972240D01*
X99176525Y-77146632D01*
X99314000Y-77284107D01*
X99314001Y-81230088D01*
X99309085Y-81280000D01*
X99328702Y-81479170D01*
X99367418Y-81606798D01*
X99386799Y-81670687D01*
X99481141Y-81847190D01*
X99603432Y-81996202D01*
X98893100Y-81285870D01*
X97957067Y-80660433D01*
X96917004Y-80229625D01*
X95812878Y-80010000D01*
X94687122Y-80010000D01*
X93582996Y-80229625D01*
X92542933Y-80660433D01*
X91991038Y-81029197D01*
X91186001Y-80224161D01*
X91185999Y-77284108D01*
X91323475Y-77146632D01*
X91445195Y-76964466D01*
X91514822Y-77081355D01*
X91709731Y-77297588D01*
X91943080Y-77471641D01*
X92205901Y-77596825D01*
X92353110Y-77641476D01*
X92583000Y-77520155D01*
X92583000Y-76327000D01*
X92563000Y-76327000D01*
X92563000Y-76073000D01*
X92583000Y-76073000D01*
X92583000Y-74879845D01*
X92353110Y-74758524D01*
X92205901Y-74803175D01*
X91943080Y-74928359D01*
X91709731Y-75102412D01*
X91514822Y-75318645D01*
X91445195Y-75435534D01*
X91323475Y-75253368D01*
X91116632Y-75046525D01*
X90873411Y-74884010D01*
X90603158Y-74772068D01*
X90316260Y-74715000D01*
X90023740Y-74715000D01*
X89736842Y-74772068D01*
X89466589Y-74884010D01*
X89223368Y-75046525D01*
X89016525Y-75253368D01*
X88900000Y-75427760D01*
X88783475Y-75253368D01*
X88576632Y-75046525D01*
X88333411Y-74884010D01*
X88063158Y-74772068D01*
X87776260Y-74715000D01*
X87483740Y-74715000D01*
X87196842Y-74772068D01*
X86926589Y-74884010D01*
X86683368Y-75046525D01*
X86476525Y-75253368D01*
X86360000Y-75427760D01*
X86243475Y-75253368D01*
X86036632Y-75046525D01*
X85793411Y-74884010D01*
X85523158Y-74772068D01*
X85236260Y-74715000D01*
X84943740Y-74715000D01*
X84656842Y-74772068D01*
X84386589Y-74884010D01*
X84143368Y-75046525D01*
X83936525Y-75253368D01*
X83820000Y-75427760D01*
X83703475Y-75253368D01*
X83496632Y-75046525D01*
X83253411Y-74884010D01*
X82983158Y-74772068D01*
X82696260Y-74715000D01*
X82403740Y-74715000D01*
X82116842Y-74772068D01*
X81846589Y-74884010D01*
X81603368Y-75046525D01*
X81396525Y-75253368D01*
X81274805Y-75435534D01*
X81205178Y-75318645D01*
X81010269Y-75102412D01*
X80776920Y-74928359D01*
X80514099Y-74803175D01*
X80366890Y-74758524D01*
X80137000Y-74879845D01*
X80137000Y-76073000D01*
X80157000Y-76073000D01*
X80157000Y-76327000D01*
X80137000Y-76327000D01*
X80137000Y-77520155D01*
X80366890Y-77641476D01*
X80514099Y-77596825D01*
X80776920Y-77471641D01*
X81010269Y-77297588D01*
X81205178Y-77081355D01*
X81274805Y-76964466D01*
X81396525Y-77146632D01*
X81603368Y-77353475D01*
X81846589Y-77515990D01*
X82116842Y-77627932D01*
X82403740Y-77685000D01*
X82696260Y-77685000D01*
X82983158Y-77627932D01*
X83253411Y-77515990D01*
X83496632Y-77353475D01*
X83703475Y-77146632D01*
X83820000Y-76972240D01*
X83936525Y-77146632D01*
X84143368Y-77353475D01*
X84386589Y-77515990D01*
X84656842Y-77627932D01*
X84943740Y-77685000D01*
X85236260Y-77685000D01*
X85523158Y-77627932D01*
X85793411Y-77515990D01*
X86036632Y-77353475D01*
X86243475Y-77146632D01*
X86360000Y-76972240D01*
X86476525Y-77146632D01*
X86614000Y-77284107D01*
X86614001Y-81230088D01*
X86609085Y-81280000D01*
X86628702Y-81479170D01*
X86667418Y-81606798D01*
X86686799Y-81670687D01*
X86781141Y-81847190D01*
X86903432Y-81996202D01*
X86193100Y-81285870D01*
X85257067Y-80660433D01*
X84217004Y-80229625D01*
X83112878Y-80010000D01*
X81987122Y-80010000D01*
X80882996Y-80229625D01*
X79842933Y-80660433D01*
X79291038Y-81029197D01*
X78486001Y-80224161D01*
X78485999Y-77284108D01*
X78623475Y-77146632D01*
X78745195Y-76964466D01*
X78814822Y-77081355D01*
X79009731Y-77297588D01*
X79243080Y-77471641D01*
X79505901Y-77596825D01*
X79653110Y-77641476D01*
X79883000Y-77520155D01*
X79883000Y-76327000D01*
X79863000Y-76327000D01*
X79863000Y-76073000D01*
X79883000Y-76073000D01*
X79883000Y-74879845D01*
X79653110Y-74758524D01*
X79505901Y-74803175D01*
X79243080Y-74928359D01*
X79009731Y-75102412D01*
X78814822Y-75318645D01*
X78745195Y-75435534D01*
X78623475Y-75253368D01*
X78416632Y-75046525D01*
X78173411Y-74884010D01*
X77903158Y-74772068D01*
X77616260Y-74715000D01*
X77323740Y-74715000D01*
X77036842Y-74772068D01*
X76766589Y-74884010D01*
X76523368Y-75046525D01*
X76316525Y-75253368D01*
X76200000Y-75427760D01*
X76083475Y-75253368D01*
X75876632Y-75046525D01*
X75633411Y-74884010D01*
X75363158Y-74772068D01*
X75076260Y-74715000D01*
X74783740Y-74715000D01*
X74496842Y-74772068D01*
X74226589Y-74884010D01*
X73983368Y-75046525D01*
X73776525Y-75253368D01*
X73660000Y-75427760D01*
X73543475Y-75253368D01*
X73336632Y-75046525D01*
X73093411Y-74884010D01*
X72823158Y-74772068D01*
X72536260Y-74715000D01*
X72243740Y-74715000D01*
X71956842Y-74772068D01*
X71686589Y-74884010D01*
X71443368Y-75046525D01*
X71236525Y-75253368D01*
X71120000Y-75427760D01*
X71003475Y-75253368D01*
X70796632Y-75046525D01*
X70553411Y-74884010D01*
X70283158Y-74772068D01*
X69996260Y-74715000D01*
X69703740Y-74715000D01*
X69416842Y-74772068D01*
X69146589Y-74884010D01*
X68903368Y-75046525D01*
X68696525Y-75253368D01*
X68574805Y-75435534D01*
X68505178Y-75318645D01*
X68310269Y-75102412D01*
X68076920Y-74928359D01*
X67814099Y-74803175D01*
X67666890Y-74758524D01*
X67437000Y-74879845D01*
X67437000Y-76073000D01*
X67457000Y-76073000D01*
X67457000Y-76327000D01*
X67437000Y-76327000D01*
X67437000Y-77520155D01*
X67666890Y-77641476D01*
X67814099Y-77596825D01*
X68076920Y-77471641D01*
X68310269Y-77297588D01*
X68505178Y-77081355D01*
X68574805Y-76964466D01*
X68696525Y-77146632D01*
X68903368Y-77353475D01*
X69146589Y-77515990D01*
X69416842Y-77627932D01*
X69703740Y-77685000D01*
X69996260Y-77685000D01*
X70283158Y-77627932D01*
X70553411Y-77515990D01*
X70796632Y-77353475D01*
X71003475Y-77146632D01*
X71120000Y-76972240D01*
X71236525Y-77146632D01*
X71443368Y-77353475D01*
X71686589Y-77515990D01*
X71956842Y-77627932D01*
X72243740Y-77685000D01*
X72536260Y-77685000D01*
X72823158Y-77627932D01*
X73093411Y-77515990D01*
X73336632Y-77353475D01*
X73543475Y-77146632D01*
X73660000Y-76972240D01*
X73776525Y-77146632D01*
X73914000Y-77284107D01*
X73914001Y-81230088D01*
X73909085Y-81280000D01*
X73928702Y-81479170D01*
X73967418Y-81606798D01*
X73986799Y-81670687D01*
X74081141Y-81847190D01*
X74203432Y-81996202D01*
X73493100Y-81285870D01*
X72557067Y-80660433D01*
X71517004Y-80229625D01*
X70412878Y-80010000D01*
X69287122Y-80010000D01*
X68182996Y-80229625D01*
X67142933Y-80660433D01*
X66591038Y-81029197D01*
X65786001Y-80224161D01*
X65786000Y-77663218D01*
X65864180Y-77639502D01*
X65974494Y-77580537D01*
X66071185Y-77501185D01*
X66150537Y-77404494D01*
X66209502Y-77294180D01*
X66233966Y-77213534D01*
X66309731Y-77297588D01*
X66543080Y-77471641D01*
X66805901Y-77596825D01*
X66953110Y-77641476D01*
X67183000Y-77520155D01*
X67183000Y-76327000D01*
X67163000Y-76327000D01*
X67163000Y-76073000D01*
X67183000Y-76073000D01*
X67183000Y-74879845D01*
X66953110Y-74758524D01*
X66805901Y-74803175D01*
X66543080Y-74928359D01*
X66309731Y-75102412D01*
X66233966Y-75186466D01*
X66209502Y-75105820D01*
X66150537Y-74995506D01*
X66071185Y-74898815D01*
X65974494Y-74819463D01*
X65864180Y-74760498D01*
X65744482Y-74724188D01*
X65620000Y-74711928D01*
X63920000Y-74711928D01*
X63795518Y-74724188D01*
X63675820Y-74760498D01*
X63565506Y-74819463D01*
X63468815Y-74898815D01*
X63389463Y-74995506D01*
X63330498Y-75105820D01*
X63294188Y-75225518D01*
X63281928Y-75350000D01*
X51460000Y-75350000D01*
X51460000Y-64454385D01*
X61565505Y-64454385D01*
X61565505Y-65085615D01*
X61688652Y-65704717D01*
X61930214Y-66287897D01*
X62280906Y-66812746D01*
X62727254Y-67259094D01*
X63252103Y-67609786D01*
X63835283Y-67851348D01*
X64454385Y-67974495D01*
X65085615Y-67974495D01*
X65704717Y-67851348D01*
X66287897Y-67609786D01*
X66812746Y-67259094D01*
X67259094Y-66812746D01*
X67609786Y-66287897D01*
X67851348Y-65704717D01*
X67974495Y-65085615D01*
X67974495Y-64454385D01*
X74265505Y-64454385D01*
X74265505Y-65085615D01*
X74388652Y-65704717D01*
X74630214Y-66287897D01*
X74980906Y-66812746D01*
X75427254Y-67259094D01*
X75952103Y-67609786D01*
X76535283Y-67851348D01*
X77154385Y-67974495D01*
X77785615Y-67974495D01*
X78404717Y-67851348D01*
X78987897Y-67609786D01*
X79512746Y-67259094D01*
X79959094Y-66812746D01*
X80309786Y-66287897D01*
X80551348Y-65704717D01*
X80674495Y-65085615D01*
X80674495Y-64454385D01*
X86965505Y-64454385D01*
X86965505Y-65085615D01*
X87088652Y-65704717D01*
X87330214Y-66287897D01*
X87680906Y-66812746D01*
X88127254Y-67259094D01*
X88652103Y-67609786D01*
X89235283Y-67851348D01*
X89854385Y-67974495D01*
X90485615Y-67974495D01*
X91104717Y-67851348D01*
X91687897Y-67609786D01*
X92212746Y-67259094D01*
X92659094Y-66812746D01*
X93009786Y-66287897D01*
X93251348Y-65704717D01*
X93374495Y-65085615D01*
X93374495Y-64454385D01*
X99665505Y-64454385D01*
X99665505Y-65085615D01*
X99788652Y-65704717D01*
X100030214Y-66287897D01*
X100380906Y-66812746D01*
X100827254Y-67259094D01*
X101352103Y-67609786D01*
X101935283Y-67851348D01*
X102554385Y-67974495D01*
X103185615Y-67974495D01*
X103804717Y-67851348D01*
X104387897Y-67609786D01*
X104912746Y-67259094D01*
X105359094Y-66812746D01*
X105709786Y-66287897D01*
X105951348Y-65704717D01*
X106074495Y-65085615D01*
X106074495Y-64454385D01*
X112365505Y-64454385D01*
X112365505Y-65085615D01*
X112488652Y-65704717D01*
X112730214Y-66287897D01*
X113080906Y-66812746D01*
X113527254Y-67259094D01*
X114052103Y-67609786D01*
X114635283Y-67851348D01*
X115254385Y-67974495D01*
X115885615Y-67974495D01*
X116504717Y-67851348D01*
X117087897Y-67609786D01*
X117612746Y-67259094D01*
X118059094Y-66812746D01*
X118409786Y-66287897D01*
X118651348Y-65704717D01*
X118774495Y-65085615D01*
X118774495Y-64644885D01*
X125065505Y-64644885D01*
X125065505Y-65276115D01*
X125188652Y-65895217D01*
X125430214Y-66478397D01*
X125780906Y-67003246D01*
X126227254Y-67449594D01*
X126752103Y-67800286D01*
X127335283Y-68041848D01*
X127954385Y-68164995D01*
X128585615Y-68164995D01*
X129204717Y-68041848D01*
X129787897Y-67800286D01*
X130312746Y-67449594D01*
X130759094Y-67003246D01*
X131109786Y-66478397D01*
X131351348Y-65895217D01*
X131474495Y-65276115D01*
X131474495Y-64644885D01*
X131436603Y-64454385D01*
X137765505Y-64454385D01*
X137765505Y-65085615D01*
X137888652Y-65704717D01*
X138130214Y-66287897D01*
X138480906Y-66812746D01*
X138927254Y-67259094D01*
X139452103Y-67609786D01*
X140035283Y-67851348D01*
X140654385Y-67974495D01*
X141285615Y-67974495D01*
X141904717Y-67851348D01*
X142487897Y-67609786D01*
X143012746Y-67259094D01*
X143459094Y-66812746D01*
X143809786Y-66287897D01*
X144051348Y-65704717D01*
X144174495Y-65085615D01*
X144174495Y-64454385D01*
X150465505Y-64454385D01*
X150465505Y-65085615D01*
X150588652Y-65704717D01*
X150830214Y-66287897D01*
X151180906Y-66812746D01*
X151627254Y-67259094D01*
X152152103Y-67609786D01*
X152735283Y-67851348D01*
X153354385Y-67974495D01*
X153985615Y-67974495D01*
X154604717Y-67851348D01*
X155187897Y-67609786D01*
X155712746Y-67259094D01*
X156159094Y-66812746D01*
X156509786Y-66287897D01*
X156751348Y-65704717D01*
X156874495Y-65085615D01*
X156874495Y-64454385D01*
X156751348Y-63835283D01*
X156509786Y-63252103D01*
X156159094Y-62727254D01*
X155712746Y-62280906D01*
X155187897Y-61930214D01*
X154604717Y-61688652D01*
X153985615Y-61565505D01*
X153354385Y-61565505D01*
X152735283Y-61688652D01*
X152152103Y-61930214D01*
X151627254Y-62280906D01*
X151180906Y-62727254D01*
X150830214Y-63252103D01*
X150588652Y-63835283D01*
X150465505Y-64454385D01*
X144174495Y-64454385D01*
X144051348Y-63835283D01*
X143809786Y-63252103D01*
X143459094Y-62727254D01*
X143012746Y-62280906D01*
X142487897Y-61930214D01*
X141904717Y-61688652D01*
X141285615Y-61565505D01*
X140654385Y-61565505D01*
X140035283Y-61688652D01*
X139452103Y-61930214D01*
X138927254Y-62280906D01*
X138480906Y-62727254D01*
X138130214Y-63252103D01*
X137888652Y-63835283D01*
X137765505Y-64454385D01*
X131436603Y-64454385D01*
X131351348Y-64025783D01*
X131109786Y-63442603D01*
X130759094Y-62917754D01*
X130312746Y-62471406D01*
X129787897Y-62120714D01*
X129204717Y-61879152D01*
X128585615Y-61756005D01*
X127954385Y-61756005D01*
X127335283Y-61879152D01*
X126752103Y-62120714D01*
X126227254Y-62471406D01*
X125780906Y-62917754D01*
X125430214Y-63442603D01*
X125188652Y-64025783D01*
X125065505Y-64644885D01*
X118774495Y-64644885D01*
X118774495Y-64454385D01*
X118651348Y-63835283D01*
X118409786Y-63252103D01*
X118059094Y-62727254D01*
X117612746Y-62280906D01*
X117087897Y-61930214D01*
X116504717Y-61688652D01*
X115885615Y-61565505D01*
X115254385Y-61565505D01*
X114635283Y-61688652D01*
X114052103Y-61930214D01*
X113527254Y-62280906D01*
X113080906Y-62727254D01*
X112730214Y-63252103D01*
X112488652Y-63835283D01*
X112365505Y-64454385D01*
X106074495Y-64454385D01*
X105951348Y-63835283D01*
X105709786Y-63252103D01*
X105359094Y-62727254D01*
X104912746Y-62280906D01*
X104387897Y-61930214D01*
X103804717Y-61688652D01*
X103185615Y-61565505D01*
X102554385Y-61565505D01*
X101935283Y-61688652D01*
X101352103Y-61930214D01*
X100827254Y-62280906D01*
X100380906Y-62727254D01*
X100030214Y-63252103D01*
X99788652Y-63835283D01*
X99665505Y-64454385D01*
X93374495Y-64454385D01*
X93251348Y-63835283D01*
X93009786Y-63252103D01*
X92659094Y-62727254D01*
X92212746Y-62280906D01*
X91687897Y-61930214D01*
X91104717Y-61688652D01*
X90485615Y-61565505D01*
X89854385Y-61565505D01*
X89235283Y-61688652D01*
X88652103Y-61930214D01*
X88127254Y-62280906D01*
X87680906Y-62727254D01*
X87330214Y-63252103D01*
X87088652Y-63835283D01*
X86965505Y-64454385D01*
X80674495Y-64454385D01*
X80551348Y-63835283D01*
X80309786Y-63252103D01*
X79959094Y-62727254D01*
X79512746Y-62280906D01*
X78987897Y-61930214D01*
X78404717Y-61688652D01*
X77785615Y-61565505D01*
X77154385Y-61565505D01*
X76535283Y-61688652D01*
X75952103Y-61930214D01*
X75427254Y-62280906D01*
X74980906Y-62727254D01*
X74630214Y-63252103D01*
X74388652Y-63835283D01*
X74265505Y-64454385D01*
X67974495Y-64454385D01*
X67851348Y-63835283D01*
X67609786Y-63252103D01*
X67259094Y-62727254D01*
X66812746Y-62280906D01*
X66287897Y-61930214D01*
X65704717Y-61688652D01*
X65085615Y-61565505D01*
X64454385Y-61565505D01*
X63835283Y-61688652D01*
X63252103Y-61930214D01*
X62727254Y-62280906D01*
X62280906Y-62727254D01*
X61930214Y-63252103D01*
X61688652Y-63835283D01*
X61565505Y-64454385D01*
X51460000Y-64454385D01*
X51460000Y-60985000D01*
X177140000Y-60985000D01*
X177140001Y-112903000D01*
G37*
G04 #@! TD.AperFunction*
M02*
