G04 #@! TF.GenerationSoftware,KiCad,Pcbnew,5.1.8+dfsg1-1+b1*
G04 #@! TF.CreationDate,2021-07-07T17:05:11-05:00*
G04 #@! TF.ProjectId,front-panel,66726f6e-742d-4706-916e-656c2e6b6963,B*
G04 #@! TF.SameCoordinates,Original*
G04 #@! TF.FileFunction,Copper,L1,Top*
G04 #@! TF.FilePolarity,Positive*
%FSLAX46Y46*%
G04 Gerber Fmt 4.6, Leading zero omitted, Abs format (unit mm)*
G04 Created by KiCad (PCBNEW 5.1.8+dfsg1-1+b1) date 2021-07-07 17:05:11*
%MOMM*%
%LPD*%
G01*
G04 APERTURE LIST*
G04 #@! TA.AperFunction,Profile*
%ADD10C,0.050000*%
G04 #@! TD*
G04 #@! TA.AperFunction,ComponentPad*
%ADD11O,1.700000X1.700000*%
G04 #@! TD*
G04 #@! TA.AperFunction,ComponentPad*
%ADD12R,1.700000X1.700000*%
G04 #@! TD*
G04 #@! TA.AperFunction,ComponentPad*
%ADD13C,10.160000*%
G04 #@! TD*
G04 #@! TA.AperFunction,ViaPad*
%ADD14C,0.800000*%
G04 #@! TD*
G04 #@! TA.AperFunction,Conductor*
%ADD15C,0.762000*%
G04 #@! TD*
G04 #@! TA.AperFunction,Conductor*
%ADD16C,0.254000*%
G04 #@! TD*
G04 #@! TA.AperFunction,Conductor*
%ADD17C,0.100000*%
G04 #@! TD*
G04 APERTURE END LIST*
D10*
X177800000Y-60325000D02*
X177800000Y-130810000D01*
X50800000Y-60325000D02*
X50800000Y-130810000D01*
X50800000Y-130810000D02*
X177800000Y-130810000D01*
X92710000Y-64770000D02*
G75*
G03*
X92710000Y-64770000I-2540000J0D01*
G01*
X156210000Y-64770000D02*
G75*
G03*
X156210000Y-64770000I-2540000J0D01*
G01*
X143510000Y-64770000D02*
G75*
G03*
X143510000Y-64770000I-2540000J0D01*
G01*
X130810000Y-64960500D02*
G75*
G03*
X130810000Y-64960500I-2540000J0D01*
G01*
X118110000Y-64770000D02*
G75*
G03*
X118110000Y-64770000I-2540000J0D01*
G01*
X105410000Y-64770000D02*
G75*
G03*
X105410000Y-64770000I-2540000J0D01*
G01*
X80010000Y-64770000D02*
G75*
G03*
X80010000Y-64770000I-2540000J0D01*
G01*
X67310000Y-64770000D02*
G75*
G03*
X67310000Y-64770000I-2540000J0D01*
G01*
X177800000Y-60325000D02*
X50800000Y-60325000D01*
D11*
X60960000Y-118110000D03*
X60960000Y-120650000D03*
D12*
X60960000Y-123190000D03*
D13*
X158750000Y-123825000D03*
X146050000Y-123825000D03*
X133350000Y-123825000D03*
X120650000Y-123825000D03*
X107950000Y-123825000D03*
X95250000Y-123825000D03*
X82550000Y-123825000D03*
X69850000Y-123825000D03*
G04 #@! TA.AperFunction,SMDPad,CuDef*
G36*
G01*
X55105000Y-127645000D02*
X55105000Y-128895000D01*
G75*
G02*
X54855000Y-129145000I-250000J0D01*
G01*
X54105000Y-129145000D01*
G75*
G02*
X53855000Y-128895000I0J250000D01*
G01*
X53855000Y-127645000D01*
G75*
G02*
X54105000Y-127395000I250000J0D01*
G01*
X54855000Y-127395000D01*
G75*
G02*
X55105000Y-127645000I0J-250000D01*
G01*
G37*
G04 #@! TD.AperFunction*
G04 #@! TA.AperFunction,SMDPad,CuDef*
G36*
G01*
X57905000Y-127645000D02*
X57905000Y-128895000D01*
G75*
G02*
X57655000Y-129145000I-250000J0D01*
G01*
X56905000Y-129145000D01*
G75*
G02*
X56655000Y-128895000I0J250000D01*
G01*
X56655000Y-127645000D01*
G75*
G02*
X56905000Y-127395000I250000J0D01*
G01*
X57655000Y-127395000D01*
G75*
G02*
X57905000Y-127645000I0J-250000D01*
G01*
G37*
G04 #@! TD.AperFunction*
G04 #@! TA.AperFunction,SMDPad,CuDef*
G36*
G01*
X55105000Y-112405000D02*
X55105000Y-113655000D01*
G75*
G02*
X54855000Y-113905000I-250000J0D01*
G01*
X54105000Y-113905000D01*
G75*
G02*
X53855000Y-113655000I0J250000D01*
G01*
X53855000Y-112405000D01*
G75*
G02*
X54105000Y-112155000I250000J0D01*
G01*
X54855000Y-112155000D01*
G75*
G02*
X55105000Y-112405000I0J-250000D01*
G01*
G37*
G04 #@! TD.AperFunction*
G04 #@! TA.AperFunction,SMDPad,CuDef*
G36*
G01*
X57905000Y-112405000D02*
X57905000Y-113655000D01*
G75*
G02*
X57655000Y-113905000I-250000J0D01*
G01*
X56905000Y-113905000D01*
G75*
G02*
X56655000Y-113655000I0J250000D01*
G01*
X56655000Y-112405000D01*
G75*
G02*
X56905000Y-112155000I250000J0D01*
G01*
X57655000Y-112155000D01*
G75*
G02*
X57905000Y-112405000I0J-250000D01*
G01*
G37*
G04 #@! TD.AperFunction*
X133350000Y-104775000D03*
G04 #@! TA.AperFunction,SMDPad,CuDef*
G36*
G01*
X170825000Y-75070000D02*
X172075000Y-75070000D01*
G75*
G02*
X172325000Y-75320000I0J-250000D01*
G01*
X172325000Y-76070000D01*
G75*
G02*
X172075000Y-76320000I-250000J0D01*
G01*
X170825000Y-76320000D01*
G75*
G02*
X170575000Y-76070000I0J250000D01*
G01*
X170575000Y-75320000D01*
G75*
G02*
X170825000Y-75070000I250000J0D01*
G01*
G37*
G04 #@! TD.AperFunction*
G04 #@! TA.AperFunction,SMDPad,CuDef*
G36*
G01*
X170825000Y-72270000D02*
X172075000Y-72270000D01*
G75*
G02*
X172325000Y-72520000I0J-250000D01*
G01*
X172325000Y-73270000D01*
G75*
G02*
X172075000Y-73520000I-250000J0D01*
G01*
X170825000Y-73520000D01*
G75*
G02*
X170575000Y-73270000I0J250000D01*
G01*
X170575000Y-72520000D01*
G75*
G02*
X170825000Y-72270000I250000J0D01*
G01*
G37*
G04 #@! TD.AperFunction*
G04 #@! TA.AperFunction,SMDPad,CuDef*
G36*
G01*
X172075000Y-79870000D02*
X170825000Y-79870000D01*
G75*
G02*
X170575000Y-79620000I0J250000D01*
G01*
X170575000Y-78870000D01*
G75*
G02*
X170825000Y-78620000I250000J0D01*
G01*
X172075000Y-78620000D01*
G75*
G02*
X172325000Y-78870000I0J-250000D01*
G01*
X172325000Y-79620000D01*
G75*
G02*
X172075000Y-79870000I-250000J0D01*
G01*
G37*
G04 #@! TD.AperFunction*
G04 #@! TA.AperFunction,SMDPad,CuDef*
G36*
G01*
X172075000Y-82670000D02*
X170825000Y-82670000D01*
G75*
G02*
X170575000Y-82420000I0J250000D01*
G01*
X170575000Y-81670000D01*
G75*
G02*
X170825000Y-81420000I250000J0D01*
G01*
X172075000Y-81420000D01*
G75*
G02*
X172325000Y-81670000I0J-250000D01*
G01*
X172325000Y-82420000D01*
G75*
G02*
X172075000Y-82670000I-250000J0D01*
G01*
G37*
G04 #@! TD.AperFunction*
X158750000Y-85725000D03*
X133350000Y-85725000D03*
X107950000Y-85725000D03*
X82550000Y-85725000D03*
X146050000Y-85725000D03*
X120650000Y-85725000D03*
X95250000Y-85725000D03*
X69850000Y-85725000D03*
X158750000Y-104775000D03*
X107950000Y-104775000D03*
X82550000Y-104775000D03*
X146050000Y-104775000D03*
X120650000Y-104775000D03*
X95250000Y-104775000D03*
X69850000Y-104775000D03*
G04 #@! TA.AperFunction,SMDPad,CuDef*
G36*
G01*
X156350000Y-73015000D02*
X156350000Y-71765000D01*
G75*
G02*
X156600000Y-71515000I250000J0D01*
G01*
X157350000Y-71515000D01*
G75*
G02*
X157600000Y-71765000I0J-250000D01*
G01*
X157600000Y-73015000D01*
G75*
G02*
X157350000Y-73265000I-250000J0D01*
G01*
X156600000Y-73265000D01*
G75*
G02*
X156350000Y-73015000I0J250000D01*
G01*
G37*
G04 #@! TD.AperFunction*
G04 #@! TA.AperFunction,SMDPad,CuDef*
G36*
G01*
X153550000Y-73015000D02*
X153550000Y-71765000D01*
G75*
G02*
X153800000Y-71515000I250000J0D01*
G01*
X154550000Y-71515000D01*
G75*
G02*
X154800000Y-71765000I0J-250000D01*
G01*
X154800000Y-73015000D01*
G75*
G02*
X154550000Y-73265000I-250000J0D01*
G01*
X153800000Y-73265000D01*
G75*
G02*
X153550000Y-73015000I0J250000D01*
G01*
G37*
G04 #@! TD.AperFunction*
G04 #@! TA.AperFunction,SMDPad,CuDef*
G36*
G01*
X130950000Y-73015000D02*
X130950000Y-71765000D01*
G75*
G02*
X131200000Y-71515000I250000J0D01*
G01*
X131950000Y-71515000D01*
G75*
G02*
X132200000Y-71765000I0J-250000D01*
G01*
X132200000Y-73015000D01*
G75*
G02*
X131950000Y-73265000I-250000J0D01*
G01*
X131200000Y-73265000D01*
G75*
G02*
X130950000Y-73015000I0J250000D01*
G01*
G37*
G04 #@! TD.AperFunction*
G04 #@! TA.AperFunction,SMDPad,CuDef*
G36*
G01*
X128150000Y-73015000D02*
X128150000Y-71765000D01*
G75*
G02*
X128400000Y-71515000I250000J0D01*
G01*
X129150000Y-71515000D01*
G75*
G02*
X129400000Y-71765000I0J-250000D01*
G01*
X129400000Y-73015000D01*
G75*
G02*
X129150000Y-73265000I-250000J0D01*
G01*
X128400000Y-73265000D01*
G75*
G02*
X128150000Y-73015000I0J250000D01*
G01*
G37*
G04 #@! TD.AperFunction*
G04 #@! TA.AperFunction,SMDPad,CuDef*
G36*
G01*
X105550000Y-73015000D02*
X105550000Y-71765000D01*
G75*
G02*
X105800000Y-71515000I250000J0D01*
G01*
X106550000Y-71515000D01*
G75*
G02*
X106800000Y-71765000I0J-250000D01*
G01*
X106800000Y-73015000D01*
G75*
G02*
X106550000Y-73265000I-250000J0D01*
G01*
X105800000Y-73265000D01*
G75*
G02*
X105550000Y-73015000I0J250000D01*
G01*
G37*
G04 #@! TD.AperFunction*
G04 #@! TA.AperFunction,SMDPad,CuDef*
G36*
G01*
X102750000Y-73015000D02*
X102750000Y-71765000D01*
G75*
G02*
X103000000Y-71515000I250000J0D01*
G01*
X103750000Y-71515000D01*
G75*
G02*
X104000000Y-71765000I0J-250000D01*
G01*
X104000000Y-73015000D01*
G75*
G02*
X103750000Y-73265000I-250000J0D01*
G01*
X103000000Y-73265000D01*
G75*
G02*
X102750000Y-73015000I0J250000D01*
G01*
G37*
G04 #@! TD.AperFunction*
G04 #@! TA.AperFunction,SMDPad,CuDef*
G36*
G01*
X80150000Y-73015000D02*
X80150000Y-71765000D01*
G75*
G02*
X80400000Y-71515000I250000J0D01*
G01*
X81150000Y-71515000D01*
G75*
G02*
X81400000Y-71765000I0J-250000D01*
G01*
X81400000Y-73015000D01*
G75*
G02*
X81150000Y-73265000I-250000J0D01*
G01*
X80400000Y-73265000D01*
G75*
G02*
X80150000Y-73015000I0J250000D01*
G01*
G37*
G04 #@! TD.AperFunction*
G04 #@! TA.AperFunction,SMDPad,CuDef*
G36*
G01*
X77350000Y-73015000D02*
X77350000Y-71765000D01*
G75*
G02*
X77600000Y-71515000I250000J0D01*
G01*
X78350000Y-71515000D01*
G75*
G02*
X78600000Y-71765000I0J-250000D01*
G01*
X78600000Y-73015000D01*
G75*
G02*
X78350000Y-73265000I-250000J0D01*
G01*
X77600000Y-73265000D01*
G75*
G02*
X77350000Y-73015000I0J250000D01*
G01*
G37*
G04 #@! TD.AperFunction*
G04 #@! TA.AperFunction,SMDPad,CuDef*
G36*
G01*
X143650000Y-73015000D02*
X143650000Y-71765000D01*
G75*
G02*
X143900000Y-71515000I250000J0D01*
G01*
X144650000Y-71515000D01*
G75*
G02*
X144900000Y-71765000I0J-250000D01*
G01*
X144900000Y-73015000D01*
G75*
G02*
X144650000Y-73265000I-250000J0D01*
G01*
X143900000Y-73265000D01*
G75*
G02*
X143650000Y-73015000I0J250000D01*
G01*
G37*
G04 #@! TD.AperFunction*
G04 #@! TA.AperFunction,SMDPad,CuDef*
G36*
G01*
X140850000Y-73015000D02*
X140850000Y-71765000D01*
G75*
G02*
X141100000Y-71515000I250000J0D01*
G01*
X141850000Y-71515000D01*
G75*
G02*
X142100000Y-71765000I0J-250000D01*
G01*
X142100000Y-73015000D01*
G75*
G02*
X141850000Y-73265000I-250000J0D01*
G01*
X141100000Y-73265000D01*
G75*
G02*
X140850000Y-73015000I0J250000D01*
G01*
G37*
G04 #@! TD.AperFunction*
G04 #@! TA.AperFunction,SMDPad,CuDef*
G36*
G01*
X118250000Y-73015000D02*
X118250000Y-71765000D01*
G75*
G02*
X118500000Y-71515000I250000J0D01*
G01*
X119250000Y-71515000D01*
G75*
G02*
X119500000Y-71765000I0J-250000D01*
G01*
X119500000Y-73015000D01*
G75*
G02*
X119250000Y-73265000I-250000J0D01*
G01*
X118500000Y-73265000D01*
G75*
G02*
X118250000Y-73015000I0J250000D01*
G01*
G37*
G04 #@! TD.AperFunction*
G04 #@! TA.AperFunction,SMDPad,CuDef*
G36*
G01*
X115450000Y-73015000D02*
X115450000Y-71765000D01*
G75*
G02*
X115700000Y-71515000I250000J0D01*
G01*
X116450000Y-71515000D01*
G75*
G02*
X116700000Y-71765000I0J-250000D01*
G01*
X116700000Y-73015000D01*
G75*
G02*
X116450000Y-73265000I-250000J0D01*
G01*
X115700000Y-73265000D01*
G75*
G02*
X115450000Y-73015000I0J250000D01*
G01*
G37*
G04 #@! TD.AperFunction*
G04 #@! TA.AperFunction,SMDPad,CuDef*
G36*
G01*
X92850000Y-73015000D02*
X92850000Y-71765000D01*
G75*
G02*
X93100000Y-71515000I250000J0D01*
G01*
X93850000Y-71515000D01*
G75*
G02*
X94100000Y-71765000I0J-250000D01*
G01*
X94100000Y-73015000D01*
G75*
G02*
X93850000Y-73265000I-250000J0D01*
G01*
X93100000Y-73265000D01*
G75*
G02*
X92850000Y-73015000I0J250000D01*
G01*
G37*
G04 #@! TD.AperFunction*
G04 #@! TA.AperFunction,SMDPad,CuDef*
G36*
G01*
X90050000Y-73015000D02*
X90050000Y-71765000D01*
G75*
G02*
X90300000Y-71515000I250000J0D01*
G01*
X91050000Y-71515000D01*
G75*
G02*
X91300000Y-71765000I0J-250000D01*
G01*
X91300000Y-73015000D01*
G75*
G02*
X91050000Y-73265000I-250000J0D01*
G01*
X90300000Y-73265000D01*
G75*
G02*
X90050000Y-73015000I0J250000D01*
G01*
G37*
G04 #@! TD.AperFunction*
G04 #@! TA.AperFunction,SMDPad,CuDef*
G36*
G01*
X67580000Y-73015000D02*
X67580000Y-71765000D01*
G75*
G02*
X67830000Y-71515000I250000J0D01*
G01*
X68580000Y-71515000D01*
G75*
G02*
X68830000Y-71765000I0J-250000D01*
G01*
X68830000Y-73015000D01*
G75*
G02*
X68580000Y-73265000I-250000J0D01*
G01*
X67830000Y-73265000D01*
G75*
G02*
X67580000Y-73015000I0J250000D01*
G01*
G37*
G04 #@! TD.AperFunction*
G04 #@! TA.AperFunction,SMDPad,CuDef*
G36*
G01*
X64780000Y-73015000D02*
X64780000Y-71765000D01*
G75*
G02*
X65030000Y-71515000I250000J0D01*
G01*
X65780000Y-71515000D01*
G75*
G02*
X66030000Y-71765000I0J-250000D01*
G01*
X66030000Y-73015000D01*
G75*
G02*
X65780000Y-73265000I-250000J0D01*
G01*
X65030000Y-73265000D01*
G75*
G02*
X64780000Y-73015000I0J250000D01*
G01*
G37*
G04 #@! TD.AperFunction*
D11*
X163830000Y-76200000D03*
X161290000Y-76200000D03*
X158750000Y-76200000D03*
X156210000Y-76200000D03*
X153670000Y-76200000D03*
X151130000Y-76200000D03*
X148590000Y-76200000D03*
X146050000Y-76200000D03*
X143510000Y-76200000D03*
X140970000Y-76200000D03*
X138430000Y-76200000D03*
X135890000Y-76200000D03*
X133350000Y-76200000D03*
X130810000Y-76200000D03*
X128270000Y-76200000D03*
X125730000Y-76200000D03*
X123190000Y-76200000D03*
X120650000Y-76200000D03*
X118110000Y-76200000D03*
X115570000Y-76200000D03*
X113030000Y-76200000D03*
X110490000Y-76200000D03*
X107950000Y-76200000D03*
X105410000Y-76200000D03*
X102870000Y-76200000D03*
X100330000Y-76200000D03*
X97790000Y-76200000D03*
X95250000Y-76200000D03*
X92710000Y-76200000D03*
X90170000Y-76200000D03*
X87630000Y-76200000D03*
X85090000Y-76200000D03*
X82550000Y-76200000D03*
X80010000Y-76200000D03*
X77470000Y-76200000D03*
X74930000Y-76200000D03*
X72390000Y-76200000D03*
X69850000Y-76200000D03*
X67310000Y-76200000D03*
D12*
X64770000Y-76200000D03*
G04 #@! TA.AperFunction,SMDPad,CuDef*
G36*
G01*
X161150000Y-71765000D02*
X161150000Y-73015000D01*
G75*
G02*
X160900000Y-73265000I-250000J0D01*
G01*
X160150000Y-73265000D01*
G75*
G02*
X159900000Y-73015000I0J250000D01*
G01*
X159900000Y-71765000D01*
G75*
G02*
X160150000Y-71515000I250000J0D01*
G01*
X160900000Y-71515000D01*
G75*
G02*
X161150000Y-71765000I0J-250000D01*
G01*
G37*
G04 #@! TD.AperFunction*
G04 #@! TA.AperFunction,SMDPad,CuDef*
G36*
G01*
X163950000Y-71765000D02*
X163950000Y-73015000D01*
G75*
G02*
X163700000Y-73265000I-250000J0D01*
G01*
X162950000Y-73265000D01*
G75*
G02*
X162700000Y-73015000I0J250000D01*
G01*
X162700000Y-71765000D01*
G75*
G02*
X162950000Y-71515000I250000J0D01*
G01*
X163700000Y-71515000D01*
G75*
G02*
X163950000Y-71765000I0J-250000D01*
G01*
G37*
G04 #@! TD.AperFunction*
G04 #@! TA.AperFunction,SMDPad,CuDef*
G36*
G01*
X135750000Y-71765000D02*
X135750000Y-73015000D01*
G75*
G02*
X135500000Y-73265000I-250000J0D01*
G01*
X134750000Y-73265000D01*
G75*
G02*
X134500000Y-73015000I0J250000D01*
G01*
X134500000Y-71765000D01*
G75*
G02*
X134750000Y-71515000I250000J0D01*
G01*
X135500000Y-71515000D01*
G75*
G02*
X135750000Y-71765000I0J-250000D01*
G01*
G37*
G04 #@! TD.AperFunction*
G04 #@! TA.AperFunction,SMDPad,CuDef*
G36*
G01*
X138550000Y-71765000D02*
X138550000Y-73015000D01*
G75*
G02*
X138300000Y-73265000I-250000J0D01*
G01*
X137550000Y-73265000D01*
G75*
G02*
X137300000Y-73015000I0J250000D01*
G01*
X137300000Y-71765000D01*
G75*
G02*
X137550000Y-71515000I250000J0D01*
G01*
X138300000Y-71515000D01*
G75*
G02*
X138550000Y-71765000I0J-250000D01*
G01*
G37*
G04 #@! TD.AperFunction*
G04 #@! TA.AperFunction,SMDPad,CuDef*
G36*
G01*
X110350000Y-71765000D02*
X110350000Y-73015000D01*
G75*
G02*
X110100000Y-73265000I-250000J0D01*
G01*
X109350000Y-73265000D01*
G75*
G02*
X109100000Y-73015000I0J250000D01*
G01*
X109100000Y-71765000D01*
G75*
G02*
X109350000Y-71515000I250000J0D01*
G01*
X110100000Y-71515000D01*
G75*
G02*
X110350000Y-71765000I0J-250000D01*
G01*
G37*
G04 #@! TD.AperFunction*
G04 #@! TA.AperFunction,SMDPad,CuDef*
G36*
G01*
X113150000Y-71765000D02*
X113150000Y-73015000D01*
G75*
G02*
X112900000Y-73265000I-250000J0D01*
G01*
X112150000Y-73265000D01*
G75*
G02*
X111900000Y-73015000I0J250000D01*
G01*
X111900000Y-71765000D01*
G75*
G02*
X112150000Y-71515000I250000J0D01*
G01*
X112900000Y-71515000D01*
G75*
G02*
X113150000Y-71765000I0J-250000D01*
G01*
G37*
G04 #@! TD.AperFunction*
G04 #@! TA.AperFunction,SMDPad,CuDef*
G36*
G01*
X84950000Y-71765000D02*
X84950000Y-73015000D01*
G75*
G02*
X84700000Y-73265000I-250000J0D01*
G01*
X83950000Y-73265000D01*
G75*
G02*
X83700000Y-73015000I0J250000D01*
G01*
X83700000Y-71765000D01*
G75*
G02*
X83950000Y-71515000I250000J0D01*
G01*
X84700000Y-71515000D01*
G75*
G02*
X84950000Y-71765000I0J-250000D01*
G01*
G37*
G04 #@! TD.AperFunction*
G04 #@! TA.AperFunction,SMDPad,CuDef*
G36*
G01*
X87750000Y-71765000D02*
X87750000Y-73015000D01*
G75*
G02*
X87500000Y-73265000I-250000J0D01*
G01*
X86750000Y-73265000D01*
G75*
G02*
X86500000Y-73015000I0J250000D01*
G01*
X86500000Y-71765000D01*
G75*
G02*
X86750000Y-71515000I250000J0D01*
G01*
X87500000Y-71515000D01*
G75*
G02*
X87750000Y-71765000I0J-250000D01*
G01*
G37*
G04 #@! TD.AperFunction*
G04 #@! TA.AperFunction,SMDPad,CuDef*
G36*
G01*
X148580000Y-71765000D02*
X148580000Y-73015000D01*
G75*
G02*
X148330000Y-73265000I-250000J0D01*
G01*
X147580000Y-73265000D01*
G75*
G02*
X147330000Y-73015000I0J250000D01*
G01*
X147330000Y-71765000D01*
G75*
G02*
X147580000Y-71515000I250000J0D01*
G01*
X148330000Y-71515000D01*
G75*
G02*
X148580000Y-71765000I0J-250000D01*
G01*
G37*
G04 #@! TD.AperFunction*
G04 #@! TA.AperFunction,SMDPad,CuDef*
G36*
G01*
X151380000Y-71765000D02*
X151380000Y-73015000D01*
G75*
G02*
X151130000Y-73265000I-250000J0D01*
G01*
X150380000Y-73265000D01*
G75*
G02*
X150130000Y-73015000I0J250000D01*
G01*
X150130000Y-71765000D01*
G75*
G02*
X150380000Y-71515000I250000J0D01*
G01*
X151130000Y-71515000D01*
G75*
G02*
X151380000Y-71765000I0J-250000D01*
G01*
G37*
G04 #@! TD.AperFunction*
G04 #@! TA.AperFunction,SMDPad,CuDef*
G36*
G01*
X123050000Y-71765000D02*
X123050000Y-73015000D01*
G75*
G02*
X122800000Y-73265000I-250000J0D01*
G01*
X122050000Y-73265000D01*
G75*
G02*
X121800000Y-73015000I0J250000D01*
G01*
X121800000Y-71765000D01*
G75*
G02*
X122050000Y-71515000I250000J0D01*
G01*
X122800000Y-71515000D01*
G75*
G02*
X123050000Y-71765000I0J-250000D01*
G01*
G37*
G04 #@! TD.AperFunction*
G04 #@! TA.AperFunction,SMDPad,CuDef*
G36*
G01*
X125850000Y-71765000D02*
X125850000Y-73015000D01*
G75*
G02*
X125600000Y-73265000I-250000J0D01*
G01*
X124850000Y-73265000D01*
G75*
G02*
X124600000Y-73015000I0J250000D01*
G01*
X124600000Y-71765000D01*
G75*
G02*
X124850000Y-71515000I250000J0D01*
G01*
X125600000Y-71515000D01*
G75*
G02*
X125850000Y-71765000I0J-250000D01*
G01*
G37*
G04 #@! TD.AperFunction*
G04 #@! TA.AperFunction,SMDPad,CuDef*
G36*
G01*
X97520000Y-71765000D02*
X97520000Y-73015000D01*
G75*
G02*
X97270000Y-73265000I-250000J0D01*
G01*
X96520000Y-73265000D01*
G75*
G02*
X96270000Y-73015000I0J250000D01*
G01*
X96270000Y-71765000D01*
G75*
G02*
X96520000Y-71515000I250000J0D01*
G01*
X97270000Y-71515000D01*
G75*
G02*
X97520000Y-71765000I0J-250000D01*
G01*
G37*
G04 #@! TD.AperFunction*
G04 #@! TA.AperFunction,SMDPad,CuDef*
G36*
G01*
X100320000Y-71765000D02*
X100320000Y-73015000D01*
G75*
G02*
X100070000Y-73265000I-250000J0D01*
G01*
X99320000Y-73265000D01*
G75*
G02*
X99070000Y-73015000I0J250000D01*
G01*
X99070000Y-71765000D01*
G75*
G02*
X99320000Y-71515000I250000J0D01*
G01*
X100070000Y-71515000D01*
G75*
G02*
X100320000Y-71765000I0J-250000D01*
G01*
G37*
G04 #@! TD.AperFunction*
G04 #@! TA.AperFunction,SMDPad,CuDef*
G36*
G01*
X72120000Y-71765000D02*
X72120000Y-73015000D01*
G75*
G02*
X71870000Y-73265000I-250000J0D01*
G01*
X71120000Y-73265000D01*
G75*
G02*
X70870000Y-73015000I0J250000D01*
G01*
X70870000Y-71765000D01*
G75*
G02*
X71120000Y-71515000I250000J0D01*
G01*
X71870000Y-71515000D01*
G75*
G02*
X72120000Y-71765000I0J-250000D01*
G01*
G37*
G04 #@! TD.AperFunction*
G04 #@! TA.AperFunction,SMDPad,CuDef*
G36*
G01*
X74920000Y-71765000D02*
X74920000Y-73015000D01*
G75*
G02*
X74670000Y-73265000I-250000J0D01*
G01*
X73920000Y-73265000D01*
G75*
G02*
X73670000Y-73015000I0J250000D01*
G01*
X73670000Y-71765000D01*
G75*
G02*
X73920000Y-71515000I250000J0D01*
G01*
X74670000Y-71515000D01*
G75*
G02*
X74920000Y-71765000I0J-250000D01*
G01*
G37*
G04 #@! TD.AperFunction*
D14*
X52070000Y-113030000D03*
X52070000Y-128270000D03*
D15*
X68205000Y-72390000D02*
X71495000Y-72390000D01*
X72390000Y-74295000D02*
X74295000Y-72390000D01*
X72390000Y-76200000D02*
X72390000Y-74295000D01*
X80775000Y-72390000D02*
X84325000Y-72390000D01*
X85090000Y-74425000D02*
X87125000Y-72390000D01*
X85090000Y-76200000D02*
X85090000Y-74425000D01*
X93475000Y-72390000D02*
X96895000Y-72390000D01*
X97790000Y-74295000D02*
X99695000Y-72390000D01*
X97790000Y-76200000D02*
X97790000Y-74295000D01*
X106175000Y-72390000D02*
X109725000Y-72390000D01*
X110490000Y-74425000D02*
X112525000Y-72390000D01*
X110490000Y-76200000D02*
X110490000Y-74425000D01*
X118875000Y-72390000D02*
X122425000Y-72390000D01*
X123190000Y-74425000D02*
X125225000Y-72390000D01*
X123190000Y-76200000D02*
X123190000Y-74425000D01*
X131575000Y-72390000D02*
X135125000Y-72390000D01*
X135890000Y-74425000D02*
X137925000Y-72390000D01*
X135890000Y-76200000D02*
X135890000Y-74425000D01*
X144275000Y-72390000D02*
X147955000Y-72390000D01*
X148590000Y-74555000D02*
X150755000Y-72390000D01*
X148590000Y-76200000D02*
X148590000Y-74555000D01*
X156975000Y-72390000D02*
X160525000Y-72390000D01*
X161290000Y-74425000D02*
X163325000Y-72390000D01*
X161290000Y-76200000D02*
X161290000Y-74425000D01*
X67310000Y-74295000D02*
X65405000Y-72390000D01*
X67310000Y-76200000D02*
X67310000Y-74295000D01*
X80010000Y-74425000D02*
X77975000Y-72390000D01*
X80010000Y-76200000D02*
X80010000Y-74425000D01*
X92710000Y-74425000D02*
X90675000Y-72390000D01*
X92710000Y-76200000D02*
X92710000Y-74425000D01*
X105410000Y-74425000D02*
X103375000Y-72390000D01*
X105410000Y-76200000D02*
X105410000Y-74425000D01*
X118110000Y-74425000D02*
X116075000Y-72390000D01*
X118110000Y-76200000D02*
X118110000Y-74425000D01*
X130810000Y-74425000D02*
X128775000Y-72390000D01*
X130810000Y-76200000D02*
X130810000Y-74425000D01*
X143510000Y-74425000D02*
X141475000Y-72390000D01*
X143510000Y-76200000D02*
X143510000Y-74425000D01*
X156210000Y-74425000D02*
X154175000Y-72390000D01*
X156210000Y-76200000D02*
X156210000Y-74425000D01*
X65405000Y-72390000D02*
X65405000Y-70485000D01*
X154175000Y-70615000D02*
X154305000Y-70485000D01*
X154175000Y-72390000D02*
X154175000Y-70615000D01*
X141475000Y-72390000D02*
X141475000Y-70615000D01*
X141475000Y-70615000D02*
X141605000Y-70485000D01*
X141605000Y-70485000D02*
X154305000Y-70485000D01*
X128775000Y-70615000D02*
X128905000Y-70485000D01*
X128775000Y-72390000D02*
X128775000Y-70615000D01*
X128905000Y-70485000D02*
X141605000Y-70485000D01*
X116075000Y-70615000D02*
X116205000Y-70485000D01*
X116075000Y-72390000D02*
X116075000Y-70615000D01*
X116205000Y-70485000D02*
X128905000Y-70485000D01*
X103375000Y-70615000D02*
X103505000Y-70485000D01*
X103375000Y-72390000D02*
X103375000Y-70615000D01*
X103505000Y-70485000D02*
X116205000Y-70485000D01*
X77975000Y-70615000D02*
X78105000Y-70485000D01*
X77975000Y-72390000D02*
X77975000Y-70615000D01*
X65405000Y-70485000D02*
X78105000Y-70485000D01*
X154305000Y-70485000D02*
X170180000Y-70485000D01*
X171450000Y-71755000D02*
X171450000Y-72895000D01*
X170180000Y-70485000D02*
X171450000Y-71755000D01*
X90675000Y-70615000D02*
X90675000Y-72390000D01*
X90805000Y-70485000D02*
X90675000Y-70615000D01*
X90805000Y-70485000D02*
X103505000Y-70485000D01*
X78105000Y-70485000D02*
X90805000Y-70485000D01*
X171450000Y-75695000D02*
X171450000Y-79245000D01*
X52070000Y-113030000D02*
X54480000Y-113030000D01*
X54480000Y-128270000D02*
X52070000Y-128270000D01*
X60960000Y-120650000D02*
X59690000Y-120650000D01*
X57280000Y-118240000D02*
X57280000Y-113030000D01*
X59690000Y-120650000D02*
X57280000Y-118240000D01*
D16*
X177140001Y-130150000D02*
X51460000Y-130150000D01*
X51460000Y-129107195D01*
X51579744Y-129187205D01*
X51768102Y-129265226D01*
X51968061Y-129305000D01*
X52171939Y-129305000D01*
X52267459Y-129286000D01*
X53311868Y-129286000D01*
X53366595Y-129388386D01*
X53477038Y-129522962D01*
X53611614Y-129633405D01*
X53765150Y-129715472D01*
X53931746Y-129766008D01*
X54105000Y-129783072D01*
X54855000Y-129783072D01*
X55028254Y-129766008D01*
X55194850Y-129715472D01*
X55348386Y-129633405D01*
X55482962Y-129522962D01*
X55593405Y-129388386D01*
X55675472Y-129234850D01*
X55702727Y-129145000D01*
X56016928Y-129145000D01*
X56029188Y-129269482D01*
X56065498Y-129389180D01*
X56124463Y-129499494D01*
X56203815Y-129596185D01*
X56300506Y-129675537D01*
X56410820Y-129734502D01*
X56530518Y-129770812D01*
X56655000Y-129783072D01*
X56994250Y-129780000D01*
X57153000Y-129621250D01*
X57153000Y-128397000D01*
X57407000Y-128397000D01*
X57407000Y-129621250D01*
X57565750Y-129780000D01*
X57905000Y-129783072D01*
X58029482Y-129770812D01*
X58149180Y-129734502D01*
X58259494Y-129675537D01*
X58356185Y-129596185D01*
X58435537Y-129499494D01*
X58494502Y-129389180D01*
X58530812Y-129269482D01*
X58543072Y-129145000D01*
X58540000Y-128555750D01*
X58381250Y-128397000D01*
X57407000Y-128397000D01*
X57153000Y-128397000D01*
X56178750Y-128397000D01*
X56020000Y-128555750D01*
X56016928Y-129145000D01*
X55702727Y-129145000D01*
X55726008Y-129068254D01*
X55743072Y-128895000D01*
X55743072Y-127645000D01*
X55726008Y-127471746D01*
X55702728Y-127395000D01*
X56016928Y-127395000D01*
X56020000Y-127984250D01*
X56178750Y-128143000D01*
X57153000Y-128143000D01*
X57153000Y-126918750D01*
X57407000Y-126918750D01*
X57407000Y-128143000D01*
X58381250Y-128143000D01*
X58540000Y-127984250D01*
X58543072Y-127395000D01*
X58530812Y-127270518D01*
X58494502Y-127150820D01*
X58435537Y-127040506D01*
X58356185Y-126943815D01*
X58259494Y-126864463D01*
X58149180Y-126805498D01*
X58029482Y-126769188D01*
X57905000Y-126756928D01*
X57565750Y-126760000D01*
X57407000Y-126918750D01*
X57153000Y-126918750D01*
X56994250Y-126760000D01*
X56655000Y-126756928D01*
X56530518Y-126769188D01*
X56410820Y-126805498D01*
X56300506Y-126864463D01*
X56203815Y-126943815D01*
X56124463Y-127040506D01*
X56065498Y-127150820D01*
X56029188Y-127270518D01*
X56016928Y-127395000D01*
X55702728Y-127395000D01*
X55675472Y-127305150D01*
X55593405Y-127151614D01*
X55482962Y-127017038D01*
X55348386Y-126906595D01*
X55194850Y-126824528D01*
X55028254Y-126773992D01*
X54855000Y-126756928D01*
X54105000Y-126756928D01*
X53931746Y-126773992D01*
X53765150Y-126824528D01*
X53611614Y-126906595D01*
X53477038Y-127017038D01*
X53366595Y-127151614D01*
X53311868Y-127254000D01*
X52267459Y-127254000D01*
X52171939Y-127235000D01*
X51968061Y-127235000D01*
X51768102Y-127274774D01*
X51579744Y-127352795D01*
X51460000Y-127432805D01*
X51460000Y-124040000D01*
X59471928Y-124040000D01*
X59484188Y-124164482D01*
X59520498Y-124284180D01*
X59579463Y-124394494D01*
X59658815Y-124491185D01*
X59755506Y-124570537D01*
X59865820Y-124629502D01*
X59985518Y-124665812D01*
X60110000Y-124678072D01*
X60674250Y-124675000D01*
X60833000Y-124516250D01*
X60833000Y-123317000D01*
X61087000Y-123317000D01*
X61087000Y-124516250D01*
X61245750Y-124675000D01*
X61810000Y-124678072D01*
X61934482Y-124665812D01*
X62054180Y-124629502D01*
X62164494Y-124570537D01*
X62261185Y-124491185D01*
X62340537Y-124394494D01*
X62399502Y-124284180D01*
X62435812Y-124164482D01*
X62448072Y-124040000D01*
X62445000Y-123475750D01*
X62286250Y-123317000D01*
X61087000Y-123317000D01*
X60833000Y-123317000D01*
X59633750Y-123317000D01*
X59475000Y-123475750D01*
X59471928Y-124040000D01*
X51460000Y-124040000D01*
X51460000Y-123262122D01*
X64135000Y-123262122D01*
X64135000Y-124387878D01*
X64354625Y-125492004D01*
X64785433Y-126532067D01*
X65410870Y-127468100D01*
X66206900Y-128264130D01*
X67142933Y-128889567D01*
X68182996Y-129320375D01*
X69287122Y-129540000D01*
X70412878Y-129540000D01*
X71517004Y-129320375D01*
X72557067Y-128889567D01*
X73493100Y-128264130D01*
X74289130Y-127468100D01*
X74914567Y-126532067D01*
X75345375Y-125492004D01*
X75565000Y-124387878D01*
X75565000Y-123262122D01*
X76835000Y-123262122D01*
X76835000Y-124387878D01*
X77054625Y-125492004D01*
X77485433Y-126532067D01*
X78110870Y-127468100D01*
X78906900Y-128264130D01*
X79842933Y-128889567D01*
X80882996Y-129320375D01*
X81987122Y-129540000D01*
X83112878Y-129540000D01*
X84217004Y-129320375D01*
X85257067Y-128889567D01*
X86193100Y-128264130D01*
X86989130Y-127468100D01*
X87614567Y-126532067D01*
X88045375Y-125492004D01*
X88265000Y-124387878D01*
X88265000Y-123262122D01*
X89535000Y-123262122D01*
X89535000Y-124387878D01*
X89754625Y-125492004D01*
X90185433Y-126532067D01*
X90810870Y-127468100D01*
X91606900Y-128264130D01*
X92542933Y-128889567D01*
X93582996Y-129320375D01*
X94687122Y-129540000D01*
X95812878Y-129540000D01*
X96917004Y-129320375D01*
X97957067Y-128889567D01*
X98893100Y-128264130D01*
X99689130Y-127468100D01*
X100314567Y-126532067D01*
X100745375Y-125492004D01*
X100965000Y-124387878D01*
X100965000Y-123262122D01*
X102235000Y-123262122D01*
X102235000Y-124387878D01*
X102454625Y-125492004D01*
X102885433Y-126532067D01*
X103510870Y-127468100D01*
X104306900Y-128264130D01*
X105242933Y-128889567D01*
X106282996Y-129320375D01*
X107387122Y-129540000D01*
X108512878Y-129540000D01*
X109617004Y-129320375D01*
X110657067Y-128889567D01*
X111593100Y-128264130D01*
X112389130Y-127468100D01*
X113014567Y-126532067D01*
X113445375Y-125492004D01*
X113665000Y-124387878D01*
X113665000Y-123262122D01*
X114935000Y-123262122D01*
X114935000Y-124387878D01*
X115154625Y-125492004D01*
X115585433Y-126532067D01*
X116210870Y-127468100D01*
X117006900Y-128264130D01*
X117942933Y-128889567D01*
X118982996Y-129320375D01*
X120087122Y-129540000D01*
X121212878Y-129540000D01*
X122317004Y-129320375D01*
X123357067Y-128889567D01*
X124293100Y-128264130D01*
X125089130Y-127468100D01*
X125714567Y-126532067D01*
X126145375Y-125492004D01*
X126365000Y-124387878D01*
X126365000Y-123262122D01*
X127635000Y-123262122D01*
X127635000Y-124387878D01*
X127854625Y-125492004D01*
X128285433Y-126532067D01*
X128910870Y-127468100D01*
X129706900Y-128264130D01*
X130642933Y-128889567D01*
X131682996Y-129320375D01*
X132787122Y-129540000D01*
X133912878Y-129540000D01*
X135017004Y-129320375D01*
X136057067Y-128889567D01*
X136993100Y-128264130D01*
X137789130Y-127468100D01*
X138414567Y-126532067D01*
X138845375Y-125492004D01*
X139065000Y-124387878D01*
X139065000Y-123262122D01*
X140335000Y-123262122D01*
X140335000Y-124387878D01*
X140554625Y-125492004D01*
X140985433Y-126532067D01*
X141610870Y-127468100D01*
X142406900Y-128264130D01*
X143342933Y-128889567D01*
X144382996Y-129320375D01*
X145487122Y-129540000D01*
X146612878Y-129540000D01*
X147717004Y-129320375D01*
X148757067Y-128889567D01*
X149693100Y-128264130D01*
X150489130Y-127468100D01*
X151114567Y-126532067D01*
X151545375Y-125492004D01*
X151765000Y-124387878D01*
X151765000Y-123262122D01*
X153035000Y-123262122D01*
X153035000Y-124387878D01*
X153254625Y-125492004D01*
X153685433Y-126532067D01*
X154310870Y-127468100D01*
X155106900Y-128264130D01*
X156042933Y-128889567D01*
X157082996Y-129320375D01*
X158187122Y-129540000D01*
X159312878Y-129540000D01*
X160417004Y-129320375D01*
X161457067Y-128889567D01*
X162393100Y-128264130D01*
X163189130Y-127468100D01*
X163814567Y-126532067D01*
X164245375Y-125492004D01*
X164465000Y-124387878D01*
X164465000Y-123262122D01*
X164245375Y-122157996D01*
X163814567Y-121117933D01*
X163189130Y-120181900D01*
X162393100Y-119385870D01*
X161457067Y-118760433D01*
X160417004Y-118329625D01*
X159312878Y-118110000D01*
X158187122Y-118110000D01*
X157082996Y-118329625D01*
X156042933Y-118760433D01*
X155106900Y-119385870D01*
X154310870Y-120181900D01*
X153685433Y-121117933D01*
X153254625Y-122157996D01*
X153035000Y-123262122D01*
X151765000Y-123262122D01*
X151545375Y-122157996D01*
X151114567Y-121117933D01*
X150489130Y-120181900D01*
X149693100Y-119385870D01*
X148757067Y-118760433D01*
X147717004Y-118329625D01*
X146612878Y-118110000D01*
X145487122Y-118110000D01*
X144382996Y-118329625D01*
X143342933Y-118760433D01*
X142406900Y-119385870D01*
X141610870Y-120181900D01*
X140985433Y-121117933D01*
X140554625Y-122157996D01*
X140335000Y-123262122D01*
X139065000Y-123262122D01*
X138845375Y-122157996D01*
X138414567Y-121117933D01*
X137789130Y-120181900D01*
X136993100Y-119385870D01*
X136057067Y-118760433D01*
X135017004Y-118329625D01*
X133912878Y-118110000D01*
X132787122Y-118110000D01*
X131682996Y-118329625D01*
X130642933Y-118760433D01*
X129706900Y-119385870D01*
X128910870Y-120181900D01*
X128285433Y-121117933D01*
X127854625Y-122157996D01*
X127635000Y-123262122D01*
X126365000Y-123262122D01*
X126145375Y-122157996D01*
X125714567Y-121117933D01*
X125089130Y-120181900D01*
X124293100Y-119385870D01*
X123357067Y-118760433D01*
X122317004Y-118329625D01*
X121212878Y-118110000D01*
X120087122Y-118110000D01*
X118982996Y-118329625D01*
X117942933Y-118760433D01*
X117006900Y-119385870D01*
X116210870Y-120181900D01*
X115585433Y-121117933D01*
X115154625Y-122157996D01*
X114935000Y-123262122D01*
X113665000Y-123262122D01*
X113445375Y-122157996D01*
X113014567Y-121117933D01*
X112389130Y-120181900D01*
X111593100Y-119385870D01*
X110657067Y-118760433D01*
X109617004Y-118329625D01*
X108512878Y-118110000D01*
X107387122Y-118110000D01*
X106282996Y-118329625D01*
X105242933Y-118760433D01*
X104306900Y-119385870D01*
X103510870Y-120181900D01*
X102885433Y-121117933D01*
X102454625Y-122157996D01*
X102235000Y-123262122D01*
X100965000Y-123262122D01*
X100745375Y-122157996D01*
X100314567Y-121117933D01*
X99689130Y-120181900D01*
X98893100Y-119385870D01*
X97957067Y-118760433D01*
X96917004Y-118329625D01*
X95812878Y-118110000D01*
X94687122Y-118110000D01*
X93582996Y-118329625D01*
X92542933Y-118760433D01*
X91606900Y-119385870D01*
X90810870Y-120181900D01*
X90185433Y-121117933D01*
X89754625Y-122157996D01*
X89535000Y-123262122D01*
X88265000Y-123262122D01*
X88045375Y-122157996D01*
X87614567Y-121117933D01*
X86989130Y-120181900D01*
X86193100Y-119385870D01*
X85257067Y-118760433D01*
X84217004Y-118329625D01*
X83112878Y-118110000D01*
X81987122Y-118110000D01*
X80882996Y-118329625D01*
X79842933Y-118760433D01*
X78906900Y-119385870D01*
X78110870Y-120181900D01*
X77485433Y-121117933D01*
X77054625Y-122157996D01*
X76835000Y-123262122D01*
X75565000Y-123262122D01*
X75345375Y-122157996D01*
X74914567Y-121117933D01*
X74289130Y-120181900D01*
X73493100Y-119385870D01*
X72557067Y-118760433D01*
X71517004Y-118329625D01*
X70412878Y-118110000D01*
X69287122Y-118110000D01*
X68182996Y-118329625D01*
X67142933Y-118760433D01*
X66206900Y-119385870D01*
X65410870Y-120181900D01*
X64785433Y-121117933D01*
X64354625Y-122157996D01*
X64135000Y-123262122D01*
X51460000Y-123262122D01*
X51460000Y-113867195D01*
X51579744Y-113947205D01*
X51768102Y-114025226D01*
X51968061Y-114065000D01*
X52171939Y-114065000D01*
X52267459Y-114046000D01*
X53311868Y-114046000D01*
X53366595Y-114148386D01*
X53477038Y-114282962D01*
X53611614Y-114393405D01*
X53765150Y-114475472D01*
X53931746Y-114526008D01*
X54105000Y-114543072D01*
X54855000Y-114543072D01*
X55028254Y-114526008D01*
X55194850Y-114475472D01*
X55348386Y-114393405D01*
X55482962Y-114282962D01*
X55593405Y-114148386D01*
X55675472Y-113994850D01*
X55726008Y-113828254D01*
X55743072Y-113655000D01*
X55743072Y-112405000D01*
X56016928Y-112405000D01*
X56016928Y-113655000D01*
X56033992Y-113828254D01*
X56084528Y-113994850D01*
X56166595Y-114148386D01*
X56264001Y-114267076D01*
X56264000Y-118190098D01*
X56259085Y-118240000D01*
X56264000Y-118289901D01*
X56278702Y-118439170D01*
X56336798Y-118630686D01*
X56431140Y-118807190D01*
X56558104Y-118961896D01*
X56596872Y-118993712D01*
X58936292Y-121333133D01*
X58968104Y-121371896D01*
X59122810Y-121498860D01*
X59299313Y-121593202D01*
X59490829Y-121651298D01*
X59690000Y-121670915D01*
X59739902Y-121666000D01*
X59875893Y-121666000D01*
X59938380Y-121728487D01*
X59865820Y-121750498D01*
X59755506Y-121809463D01*
X59658815Y-121888815D01*
X59579463Y-121985506D01*
X59520498Y-122095820D01*
X59484188Y-122215518D01*
X59471928Y-122340000D01*
X59475000Y-122904250D01*
X59633750Y-123063000D01*
X60833000Y-123063000D01*
X60833000Y-123043000D01*
X61087000Y-123043000D01*
X61087000Y-123063000D01*
X62286250Y-123063000D01*
X62445000Y-122904250D01*
X62448072Y-122340000D01*
X62435812Y-122215518D01*
X62399502Y-122095820D01*
X62340537Y-121985506D01*
X62261185Y-121888815D01*
X62164494Y-121809463D01*
X62054180Y-121750498D01*
X61981620Y-121728487D01*
X62113475Y-121596632D01*
X62275990Y-121353411D01*
X62387932Y-121083158D01*
X62445000Y-120796260D01*
X62445000Y-120503740D01*
X62387932Y-120216842D01*
X62275990Y-119946589D01*
X62113475Y-119703368D01*
X61906632Y-119496525D01*
X61732240Y-119380000D01*
X61906632Y-119263475D01*
X62113475Y-119056632D01*
X62275990Y-118813411D01*
X62387932Y-118543158D01*
X62445000Y-118256260D01*
X62445000Y-117963740D01*
X62387932Y-117676842D01*
X62275990Y-117406589D01*
X62113475Y-117163368D01*
X61906632Y-116956525D01*
X61663411Y-116794010D01*
X61393158Y-116682068D01*
X61106260Y-116625000D01*
X60813740Y-116625000D01*
X60526842Y-116682068D01*
X60256589Y-116794010D01*
X60013368Y-116956525D01*
X59806525Y-117163368D01*
X59644010Y-117406589D01*
X59532068Y-117676842D01*
X59475000Y-117963740D01*
X59475000Y-118256260D01*
X59532068Y-118543158D01*
X59644010Y-118813411D01*
X59806525Y-119056632D01*
X60013368Y-119263475D01*
X60187760Y-119380000D01*
X60013368Y-119496525D01*
X59993367Y-119516526D01*
X58296000Y-117819160D01*
X58296000Y-114267075D01*
X58393405Y-114148386D01*
X58475472Y-113994850D01*
X58526008Y-113828254D01*
X58543072Y-113655000D01*
X58543072Y-112405000D01*
X58526008Y-112231746D01*
X58475472Y-112065150D01*
X58393405Y-111911614D01*
X58282962Y-111777038D01*
X58148386Y-111666595D01*
X57994850Y-111584528D01*
X57828254Y-111533992D01*
X57655000Y-111516928D01*
X56905000Y-111516928D01*
X56731746Y-111533992D01*
X56565150Y-111584528D01*
X56411614Y-111666595D01*
X56277038Y-111777038D01*
X56166595Y-111911614D01*
X56084528Y-112065150D01*
X56033992Y-112231746D01*
X56016928Y-112405000D01*
X55743072Y-112405000D01*
X55726008Y-112231746D01*
X55675472Y-112065150D01*
X55593405Y-111911614D01*
X55482962Y-111777038D01*
X55348386Y-111666595D01*
X55194850Y-111584528D01*
X55028254Y-111533992D01*
X54855000Y-111516928D01*
X54105000Y-111516928D01*
X53931746Y-111533992D01*
X53765150Y-111584528D01*
X53611614Y-111666595D01*
X53477038Y-111777038D01*
X53366595Y-111911614D01*
X53311868Y-112014000D01*
X52267459Y-112014000D01*
X52171939Y-111995000D01*
X51968061Y-111995000D01*
X51768102Y-112034774D01*
X51579744Y-112112795D01*
X51460000Y-112192805D01*
X51460000Y-105824872D01*
X53645000Y-105824872D01*
X53645000Y-106265128D01*
X53730890Y-106696925D01*
X53899369Y-107103669D01*
X54143962Y-107469729D01*
X54455271Y-107781038D01*
X54821331Y-108025631D01*
X55228075Y-108194110D01*
X55659872Y-108280000D01*
X56100128Y-108280000D01*
X56531925Y-108194110D01*
X56938669Y-108025631D01*
X57304729Y-107781038D01*
X57616038Y-107469729D01*
X57860631Y-107103669D01*
X58029110Y-106696925D01*
X58115000Y-106265128D01*
X58115000Y-105824872D01*
X58029110Y-105393075D01*
X57860631Y-104986331D01*
X57616038Y-104620271D01*
X57304729Y-104308962D01*
X57159798Y-104212122D01*
X64135000Y-104212122D01*
X64135000Y-105337878D01*
X64354625Y-106442004D01*
X64785433Y-107482067D01*
X65410870Y-108418100D01*
X66206900Y-109214130D01*
X67142933Y-109839567D01*
X68182996Y-110270375D01*
X69287122Y-110490000D01*
X70412878Y-110490000D01*
X71517004Y-110270375D01*
X72557067Y-109839567D01*
X73493100Y-109214130D01*
X74289130Y-108418100D01*
X74914567Y-107482067D01*
X75345375Y-106442004D01*
X75565000Y-105337878D01*
X75565000Y-104212122D01*
X76835000Y-104212122D01*
X76835000Y-105337878D01*
X77054625Y-106442004D01*
X77485433Y-107482067D01*
X78110870Y-108418100D01*
X78906900Y-109214130D01*
X79842933Y-109839567D01*
X80882996Y-110270375D01*
X81987122Y-110490000D01*
X83112878Y-110490000D01*
X84217004Y-110270375D01*
X85257067Y-109839567D01*
X86193100Y-109214130D01*
X86989130Y-108418100D01*
X87614567Y-107482067D01*
X88045375Y-106442004D01*
X88265000Y-105337878D01*
X88265000Y-104212122D01*
X89535000Y-104212122D01*
X89535000Y-105337878D01*
X89754625Y-106442004D01*
X90185433Y-107482067D01*
X90810870Y-108418100D01*
X91606900Y-109214130D01*
X92542933Y-109839567D01*
X93582996Y-110270375D01*
X94687122Y-110490000D01*
X95812878Y-110490000D01*
X96917004Y-110270375D01*
X97957067Y-109839567D01*
X98893100Y-109214130D01*
X99689130Y-108418100D01*
X100314567Y-107482067D01*
X100745375Y-106442004D01*
X100965000Y-105337878D01*
X100965000Y-104212122D01*
X102235000Y-104212122D01*
X102235000Y-105337878D01*
X102454625Y-106442004D01*
X102885433Y-107482067D01*
X103510870Y-108418100D01*
X104306900Y-109214130D01*
X105242933Y-109839567D01*
X106282996Y-110270375D01*
X107387122Y-110490000D01*
X108512878Y-110490000D01*
X109617004Y-110270375D01*
X110657067Y-109839567D01*
X111593100Y-109214130D01*
X112389130Y-108418100D01*
X113014567Y-107482067D01*
X113445375Y-106442004D01*
X113665000Y-105337878D01*
X113665000Y-104212122D01*
X114935000Y-104212122D01*
X114935000Y-105337878D01*
X115154625Y-106442004D01*
X115585433Y-107482067D01*
X116210870Y-108418100D01*
X117006900Y-109214130D01*
X117942933Y-109839567D01*
X118982996Y-110270375D01*
X120087122Y-110490000D01*
X121212878Y-110490000D01*
X122317004Y-110270375D01*
X123357067Y-109839567D01*
X124293100Y-109214130D01*
X125089130Y-108418100D01*
X125714567Y-107482067D01*
X126145375Y-106442004D01*
X126365000Y-105337878D01*
X126365000Y-104212122D01*
X127635000Y-104212122D01*
X127635000Y-105337878D01*
X127854625Y-106442004D01*
X128285433Y-107482067D01*
X128910870Y-108418100D01*
X129706900Y-109214130D01*
X130642933Y-109839567D01*
X131682996Y-110270375D01*
X132787122Y-110490000D01*
X133912878Y-110490000D01*
X135017004Y-110270375D01*
X136057067Y-109839567D01*
X136993100Y-109214130D01*
X137789130Y-108418100D01*
X138414567Y-107482067D01*
X138845375Y-106442004D01*
X139065000Y-105337878D01*
X139065000Y-104212122D01*
X140335000Y-104212122D01*
X140335000Y-105337878D01*
X140554625Y-106442004D01*
X140985433Y-107482067D01*
X141610870Y-108418100D01*
X142406900Y-109214130D01*
X143342933Y-109839567D01*
X144382996Y-110270375D01*
X145487122Y-110490000D01*
X146612878Y-110490000D01*
X147717004Y-110270375D01*
X148757067Y-109839567D01*
X149693100Y-109214130D01*
X150489130Y-108418100D01*
X151114567Y-107482067D01*
X151545375Y-106442004D01*
X151765000Y-105337878D01*
X151765000Y-104212122D01*
X153035000Y-104212122D01*
X153035000Y-105337878D01*
X153254625Y-106442004D01*
X153685433Y-107482067D01*
X154310870Y-108418100D01*
X155106900Y-109214130D01*
X156042933Y-109839567D01*
X157082996Y-110270375D01*
X158187122Y-110490000D01*
X159312878Y-110490000D01*
X160417004Y-110270375D01*
X161457067Y-109839567D01*
X162393100Y-109214130D01*
X163189130Y-108418100D01*
X163814567Y-107482067D01*
X164245375Y-106442004D01*
X164368130Y-105824872D01*
X170485000Y-105824872D01*
X170485000Y-106265128D01*
X170570890Y-106696925D01*
X170739369Y-107103669D01*
X170983962Y-107469729D01*
X171295271Y-107781038D01*
X171661331Y-108025631D01*
X172068075Y-108194110D01*
X172499872Y-108280000D01*
X172940128Y-108280000D01*
X173371925Y-108194110D01*
X173778669Y-108025631D01*
X174144729Y-107781038D01*
X174456038Y-107469729D01*
X174700631Y-107103669D01*
X174869110Y-106696925D01*
X174955000Y-106265128D01*
X174955000Y-105824872D01*
X174869110Y-105393075D01*
X174700631Y-104986331D01*
X174456038Y-104620271D01*
X174144729Y-104308962D01*
X173778669Y-104064369D01*
X173371925Y-103895890D01*
X172940128Y-103810000D01*
X172499872Y-103810000D01*
X172068075Y-103895890D01*
X171661331Y-104064369D01*
X171295271Y-104308962D01*
X170983962Y-104620271D01*
X170739369Y-104986331D01*
X170570890Y-105393075D01*
X170485000Y-105824872D01*
X164368130Y-105824872D01*
X164465000Y-105337878D01*
X164465000Y-104212122D01*
X164245375Y-103107996D01*
X163814567Y-102067933D01*
X163189130Y-101131900D01*
X162393100Y-100335870D01*
X161457067Y-99710433D01*
X160417004Y-99279625D01*
X159312878Y-99060000D01*
X158187122Y-99060000D01*
X157082996Y-99279625D01*
X156042933Y-99710433D01*
X155106900Y-100335870D01*
X154310870Y-101131900D01*
X153685433Y-102067933D01*
X153254625Y-103107996D01*
X153035000Y-104212122D01*
X151765000Y-104212122D01*
X151545375Y-103107996D01*
X151114567Y-102067933D01*
X150489130Y-101131900D01*
X149693100Y-100335870D01*
X148757067Y-99710433D01*
X147717004Y-99279625D01*
X146612878Y-99060000D01*
X145487122Y-99060000D01*
X144382996Y-99279625D01*
X143342933Y-99710433D01*
X142406900Y-100335870D01*
X141610870Y-101131900D01*
X140985433Y-102067933D01*
X140554625Y-103107996D01*
X140335000Y-104212122D01*
X139065000Y-104212122D01*
X138845375Y-103107996D01*
X138414567Y-102067933D01*
X137789130Y-101131900D01*
X136993100Y-100335870D01*
X136057067Y-99710433D01*
X135017004Y-99279625D01*
X133912878Y-99060000D01*
X132787122Y-99060000D01*
X131682996Y-99279625D01*
X130642933Y-99710433D01*
X129706900Y-100335870D01*
X128910870Y-101131900D01*
X128285433Y-102067933D01*
X127854625Y-103107996D01*
X127635000Y-104212122D01*
X126365000Y-104212122D01*
X126145375Y-103107996D01*
X125714567Y-102067933D01*
X125089130Y-101131900D01*
X124293100Y-100335870D01*
X123357067Y-99710433D01*
X122317004Y-99279625D01*
X121212878Y-99060000D01*
X120087122Y-99060000D01*
X118982996Y-99279625D01*
X117942933Y-99710433D01*
X117006900Y-100335870D01*
X116210870Y-101131900D01*
X115585433Y-102067933D01*
X115154625Y-103107996D01*
X114935000Y-104212122D01*
X113665000Y-104212122D01*
X113445375Y-103107996D01*
X113014567Y-102067933D01*
X112389130Y-101131900D01*
X111593100Y-100335870D01*
X110657067Y-99710433D01*
X109617004Y-99279625D01*
X108512878Y-99060000D01*
X107387122Y-99060000D01*
X106282996Y-99279625D01*
X105242933Y-99710433D01*
X104306900Y-100335870D01*
X103510870Y-101131900D01*
X102885433Y-102067933D01*
X102454625Y-103107996D01*
X102235000Y-104212122D01*
X100965000Y-104212122D01*
X100745375Y-103107996D01*
X100314567Y-102067933D01*
X99689130Y-101131900D01*
X98893100Y-100335870D01*
X97957067Y-99710433D01*
X96917004Y-99279625D01*
X95812878Y-99060000D01*
X94687122Y-99060000D01*
X93582996Y-99279625D01*
X92542933Y-99710433D01*
X91606900Y-100335870D01*
X90810870Y-101131900D01*
X90185433Y-102067933D01*
X89754625Y-103107996D01*
X89535000Y-104212122D01*
X88265000Y-104212122D01*
X88045375Y-103107996D01*
X87614567Y-102067933D01*
X86989130Y-101131900D01*
X86193100Y-100335870D01*
X85257067Y-99710433D01*
X84217004Y-99279625D01*
X83112878Y-99060000D01*
X81987122Y-99060000D01*
X80882996Y-99279625D01*
X79842933Y-99710433D01*
X78906900Y-100335870D01*
X78110870Y-101131900D01*
X77485433Y-102067933D01*
X77054625Y-103107996D01*
X76835000Y-104212122D01*
X75565000Y-104212122D01*
X75345375Y-103107996D01*
X74914567Y-102067933D01*
X74289130Y-101131900D01*
X73493100Y-100335870D01*
X72557067Y-99710433D01*
X71517004Y-99279625D01*
X70412878Y-99060000D01*
X69287122Y-99060000D01*
X68182996Y-99279625D01*
X67142933Y-99710433D01*
X66206900Y-100335870D01*
X65410870Y-101131900D01*
X64785433Y-102067933D01*
X64354625Y-103107996D01*
X64135000Y-104212122D01*
X57159798Y-104212122D01*
X56938669Y-104064369D01*
X56531925Y-103895890D01*
X56100128Y-103810000D01*
X55659872Y-103810000D01*
X55228075Y-103895890D01*
X54821331Y-104064369D01*
X54455271Y-104308962D01*
X54143962Y-104620271D01*
X53899369Y-104986331D01*
X53730890Y-105393075D01*
X53645000Y-105824872D01*
X51460000Y-105824872D01*
X51460000Y-85162122D01*
X64135000Y-85162122D01*
X64135000Y-86287878D01*
X64354625Y-87392004D01*
X64785433Y-88432067D01*
X65410870Y-89368100D01*
X66206900Y-90164130D01*
X67142933Y-90789567D01*
X68182996Y-91220375D01*
X69287122Y-91440000D01*
X70412878Y-91440000D01*
X71517004Y-91220375D01*
X72557067Y-90789567D01*
X73493100Y-90164130D01*
X74289130Y-89368100D01*
X74914567Y-88432067D01*
X75345375Y-87392004D01*
X75565000Y-86287878D01*
X75565000Y-85162122D01*
X76835000Y-85162122D01*
X76835000Y-86287878D01*
X77054625Y-87392004D01*
X77485433Y-88432067D01*
X78110870Y-89368100D01*
X78906900Y-90164130D01*
X79842933Y-90789567D01*
X80882996Y-91220375D01*
X81987122Y-91440000D01*
X83112878Y-91440000D01*
X84217004Y-91220375D01*
X85257067Y-90789567D01*
X86193100Y-90164130D01*
X86989130Y-89368100D01*
X87614567Y-88432067D01*
X88045375Y-87392004D01*
X88265000Y-86287878D01*
X88265000Y-85162122D01*
X89535000Y-85162122D01*
X89535000Y-86287878D01*
X89754625Y-87392004D01*
X90185433Y-88432067D01*
X90810870Y-89368100D01*
X91606900Y-90164130D01*
X92542933Y-90789567D01*
X93582996Y-91220375D01*
X94687122Y-91440000D01*
X95812878Y-91440000D01*
X96917004Y-91220375D01*
X97957067Y-90789567D01*
X98893100Y-90164130D01*
X99689130Y-89368100D01*
X100314567Y-88432067D01*
X100745375Y-87392004D01*
X100965000Y-86287878D01*
X100965000Y-85162122D01*
X102235000Y-85162122D01*
X102235000Y-86287878D01*
X102454625Y-87392004D01*
X102885433Y-88432067D01*
X103510870Y-89368100D01*
X104306900Y-90164130D01*
X105242933Y-90789567D01*
X106282996Y-91220375D01*
X107387122Y-91440000D01*
X108512878Y-91440000D01*
X109617004Y-91220375D01*
X110657067Y-90789567D01*
X111593100Y-90164130D01*
X112389130Y-89368100D01*
X113014567Y-88432067D01*
X113445375Y-87392004D01*
X113665000Y-86287878D01*
X113665000Y-85162122D01*
X114935000Y-85162122D01*
X114935000Y-86287878D01*
X115154625Y-87392004D01*
X115585433Y-88432067D01*
X116210870Y-89368100D01*
X117006900Y-90164130D01*
X117942933Y-90789567D01*
X118982996Y-91220375D01*
X120087122Y-91440000D01*
X121212878Y-91440000D01*
X122317004Y-91220375D01*
X123357067Y-90789567D01*
X124293100Y-90164130D01*
X125089130Y-89368100D01*
X125714567Y-88432067D01*
X126145375Y-87392004D01*
X126365000Y-86287878D01*
X126365000Y-85162122D01*
X127635000Y-85162122D01*
X127635000Y-86287878D01*
X127854625Y-87392004D01*
X128285433Y-88432067D01*
X128910870Y-89368100D01*
X129706900Y-90164130D01*
X130642933Y-90789567D01*
X131682996Y-91220375D01*
X132787122Y-91440000D01*
X133912878Y-91440000D01*
X135017004Y-91220375D01*
X136057067Y-90789567D01*
X136993100Y-90164130D01*
X137789130Y-89368100D01*
X138414567Y-88432067D01*
X138845375Y-87392004D01*
X139065000Y-86287878D01*
X139065000Y-85162122D01*
X140335000Y-85162122D01*
X140335000Y-86287878D01*
X140554625Y-87392004D01*
X140985433Y-88432067D01*
X141610870Y-89368100D01*
X142406900Y-90164130D01*
X143342933Y-90789567D01*
X144382996Y-91220375D01*
X145487122Y-91440000D01*
X146612878Y-91440000D01*
X147717004Y-91220375D01*
X148757067Y-90789567D01*
X149693100Y-90164130D01*
X150489130Y-89368100D01*
X151114567Y-88432067D01*
X151545375Y-87392004D01*
X151765000Y-86287878D01*
X151765000Y-85162122D01*
X153035000Y-85162122D01*
X153035000Y-86287878D01*
X153254625Y-87392004D01*
X153685433Y-88432067D01*
X154310870Y-89368100D01*
X155106900Y-90164130D01*
X156042933Y-90789567D01*
X157082996Y-91220375D01*
X158187122Y-91440000D01*
X159312878Y-91440000D01*
X160417004Y-91220375D01*
X161457067Y-90789567D01*
X162393100Y-90164130D01*
X163189130Y-89368100D01*
X163814567Y-88432067D01*
X164245375Y-87392004D01*
X164465000Y-86287878D01*
X164465000Y-85162122D01*
X164245375Y-84057996D01*
X163814567Y-83017933D01*
X163582086Y-82670000D01*
X169936928Y-82670000D01*
X169949188Y-82794482D01*
X169985498Y-82914180D01*
X170044463Y-83024494D01*
X170123815Y-83121185D01*
X170220506Y-83200537D01*
X170330820Y-83259502D01*
X170450518Y-83295812D01*
X170575000Y-83308072D01*
X171164250Y-83305000D01*
X171323000Y-83146250D01*
X171323000Y-82172000D01*
X171577000Y-82172000D01*
X171577000Y-83146250D01*
X171735750Y-83305000D01*
X172325000Y-83308072D01*
X172449482Y-83295812D01*
X172569180Y-83259502D01*
X172679494Y-83200537D01*
X172776185Y-83121185D01*
X172855537Y-83024494D01*
X172914502Y-82914180D01*
X172950812Y-82794482D01*
X172963072Y-82670000D01*
X172960000Y-82330750D01*
X172801250Y-82172000D01*
X171577000Y-82172000D01*
X171323000Y-82172000D01*
X170098750Y-82172000D01*
X169940000Y-82330750D01*
X169936928Y-82670000D01*
X163582086Y-82670000D01*
X163189130Y-82081900D01*
X162527230Y-81420000D01*
X169936928Y-81420000D01*
X169940000Y-81759250D01*
X170098750Y-81918000D01*
X171323000Y-81918000D01*
X171323000Y-80943750D01*
X171577000Y-80943750D01*
X171577000Y-81918000D01*
X172801250Y-81918000D01*
X172960000Y-81759250D01*
X172963072Y-81420000D01*
X172950812Y-81295518D01*
X172914502Y-81175820D01*
X172855537Y-81065506D01*
X172776185Y-80968815D01*
X172679494Y-80889463D01*
X172569180Y-80830498D01*
X172449482Y-80794188D01*
X172325000Y-80781928D01*
X171735750Y-80785000D01*
X171577000Y-80943750D01*
X171323000Y-80943750D01*
X171164250Y-80785000D01*
X170575000Y-80781928D01*
X170450518Y-80794188D01*
X170330820Y-80830498D01*
X170220506Y-80889463D01*
X170123815Y-80968815D01*
X170044463Y-81065506D01*
X169985498Y-81175820D01*
X169949188Y-81295518D01*
X169936928Y-81420000D01*
X162527230Y-81420000D01*
X162393100Y-81285870D01*
X161457067Y-80660433D01*
X160417004Y-80229625D01*
X159312878Y-80010000D01*
X158187122Y-80010000D01*
X157082996Y-80229625D01*
X156042933Y-80660433D01*
X155106900Y-81285870D01*
X154310870Y-82081900D01*
X153685433Y-83017933D01*
X153254625Y-84057996D01*
X153035000Y-85162122D01*
X151765000Y-85162122D01*
X151545375Y-84057996D01*
X151114567Y-83017933D01*
X150489130Y-82081900D01*
X149693100Y-81285870D01*
X148757067Y-80660433D01*
X147717004Y-80229625D01*
X146612878Y-80010000D01*
X145487122Y-80010000D01*
X144382996Y-80229625D01*
X143342933Y-80660433D01*
X142406900Y-81285870D01*
X141610870Y-82081900D01*
X140985433Y-83017933D01*
X140554625Y-84057996D01*
X140335000Y-85162122D01*
X139065000Y-85162122D01*
X138845375Y-84057996D01*
X138414567Y-83017933D01*
X137789130Y-82081900D01*
X136993100Y-81285870D01*
X136057067Y-80660433D01*
X135017004Y-80229625D01*
X133912878Y-80010000D01*
X132787122Y-80010000D01*
X131682996Y-80229625D01*
X130642933Y-80660433D01*
X129706900Y-81285870D01*
X128910870Y-82081900D01*
X128285433Y-83017933D01*
X127854625Y-84057996D01*
X127635000Y-85162122D01*
X126365000Y-85162122D01*
X126145375Y-84057996D01*
X125714567Y-83017933D01*
X125089130Y-82081900D01*
X124293100Y-81285870D01*
X123357067Y-80660433D01*
X122317004Y-80229625D01*
X121212878Y-80010000D01*
X120087122Y-80010000D01*
X118982996Y-80229625D01*
X117942933Y-80660433D01*
X117006900Y-81285870D01*
X116210870Y-82081900D01*
X115585433Y-83017933D01*
X115154625Y-84057996D01*
X114935000Y-85162122D01*
X113665000Y-85162122D01*
X113445375Y-84057996D01*
X113014567Y-83017933D01*
X112389130Y-82081900D01*
X111593100Y-81285870D01*
X110657067Y-80660433D01*
X109617004Y-80229625D01*
X108512878Y-80010000D01*
X107387122Y-80010000D01*
X106282996Y-80229625D01*
X105242933Y-80660433D01*
X104306900Y-81285870D01*
X103510870Y-82081900D01*
X102885433Y-83017933D01*
X102454625Y-84057996D01*
X102235000Y-85162122D01*
X100965000Y-85162122D01*
X100745375Y-84057996D01*
X100314567Y-83017933D01*
X99689130Y-82081900D01*
X98893100Y-81285870D01*
X97957067Y-80660433D01*
X96917004Y-80229625D01*
X95812878Y-80010000D01*
X94687122Y-80010000D01*
X93582996Y-80229625D01*
X92542933Y-80660433D01*
X91606900Y-81285870D01*
X90810870Y-82081900D01*
X90185433Y-83017933D01*
X89754625Y-84057996D01*
X89535000Y-85162122D01*
X88265000Y-85162122D01*
X88045375Y-84057996D01*
X87614567Y-83017933D01*
X86989130Y-82081900D01*
X86193100Y-81285870D01*
X85257067Y-80660433D01*
X84217004Y-80229625D01*
X83112878Y-80010000D01*
X81987122Y-80010000D01*
X80882996Y-80229625D01*
X79842933Y-80660433D01*
X78906900Y-81285870D01*
X78110870Y-82081900D01*
X77485433Y-83017933D01*
X77054625Y-84057996D01*
X76835000Y-85162122D01*
X75565000Y-85162122D01*
X75345375Y-84057996D01*
X74914567Y-83017933D01*
X74289130Y-82081900D01*
X73493100Y-81285870D01*
X72557067Y-80660433D01*
X71517004Y-80229625D01*
X70412878Y-80010000D01*
X69287122Y-80010000D01*
X68182996Y-80229625D01*
X67142933Y-80660433D01*
X66206900Y-81285870D01*
X65410870Y-82081900D01*
X64785433Y-83017933D01*
X64354625Y-84057996D01*
X64135000Y-85162122D01*
X51460000Y-85162122D01*
X51460000Y-75350000D01*
X63281928Y-75350000D01*
X63281928Y-77050000D01*
X63294188Y-77174482D01*
X63330498Y-77294180D01*
X63389463Y-77404494D01*
X63468815Y-77501185D01*
X63565506Y-77580537D01*
X63675820Y-77639502D01*
X63795518Y-77675812D01*
X63920000Y-77688072D01*
X65620000Y-77688072D01*
X65744482Y-77675812D01*
X65864180Y-77639502D01*
X65974494Y-77580537D01*
X66071185Y-77501185D01*
X66150537Y-77404494D01*
X66209502Y-77294180D01*
X66231513Y-77221620D01*
X66363368Y-77353475D01*
X66606589Y-77515990D01*
X66876842Y-77627932D01*
X67163740Y-77685000D01*
X67456260Y-77685000D01*
X67743158Y-77627932D01*
X68013411Y-77515990D01*
X68256632Y-77353475D01*
X68463475Y-77146632D01*
X68585195Y-76964466D01*
X68654822Y-77081355D01*
X68849731Y-77297588D01*
X69083080Y-77471641D01*
X69345901Y-77596825D01*
X69493110Y-77641476D01*
X69723000Y-77520155D01*
X69723000Y-76327000D01*
X69703000Y-76327000D01*
X69703000Y-76073000D01*
X69723000Y-76073000D01*
X69723000Y-74879845D01*
X69493110Y-74758524D01*
X69345901Y-74803175D01*
X69083080Y-74928359D01*
X68849731Y-75102412D01*
X68654822Y-75318645D01*
X68585195Y-75435534D01*
X68463475Y-75253368D01*
X68326000Y-75115893D01*
X68326000Y-74344902D01*
X68330915Y-74295000D01*
X68311298Y-74095829D01*
X68253202Y-73904313D01*
X68252539Y-73903072D01*
X68580000Y-73903072D01*
X68753254Y-73886008D01*
X68919850Y-73835472D01*
X69073386Y-73753405D01*
X69207962Y-73642962D01*
X69318405Y-73508386D01*
X69373132Y-73406000D01*
X70326868Y-73406000D01*
X70381595Y-73508386D01*
X70492038Y-73642962D01*
X70626614Y-73753405D01*
X70780150Y-73835472D01*
X70946746Y-73886008D01*
X71120000Y-73903072D01*
X71447462Y-73903072D01*
X71446799Y-73904313D01*
X71388702Y-74095830D01*
X71369085Y-74295000D01*
X71374001Y-74344911D01*
X71374001Y-75115892D01*
X71236525Y-75253368D01*
X71114805Y-75435534D01*
X71045178Y-75318645D01*
X70850269Y-75102412D01*
X70616920Y-74928359D01*
X70354099Y-74803175D01*
X70206890Y-74758524D01*
X69977000Y-74879845D01*
X69977000Y-76073000D01*
X69997000Y-76073000D01*
X69997000Y-76327000D01*
X69977000Y-76327000D01*
X69977000Y-77520155D01*
X70206890Y-77641476D01*
X70354099Y-77596825D01*
X70616920Y-77471641D01*
X70850269Y-77297588D01*
X71045178Y-77081355D01*
X71114805Y-76964466D01*
X71236525Y-77146632D01*
X71443368Y-77353475D01*
X71686589Y-77515990D01*
X71956842Y-77627932D01*
X72243740Y-77685000D01*
X72536260Y-77685000D01*
X72823158Y-77627932D01*
X73093411Y-77515990D01*
X73336632Y-77353475D01*
X73543475Y-77146632D01*
X73660000Y-76972240D01*
X73776525Y-77146632D01*
X73983368Y-77353475D01*
X74226589Y-77515990D01*
X74496842Y-77627932D01*
X74783740Y-77685000D01*
X75076260Y-77685000D01*
X75363158Y-77627932D01*
X75633411Y-77515990D01*
X75876632Y-77353475D01*
X76083475Y-77146632D01*
X76200000Y-76972240D01*
X76316525Y-77146632D01*
X76523368Y-77353475D01*
X76766589Y-77515990D01*
X77036842Y-77627932D01*
X77323740Y-77685000D01*
X77616260Y-77685000D01*
X77903158Y-77627932D01*
X78173411Y-77515990D01*
X78416632Y-77353475D01*
X78623475Y-77146632D01*
X78740000Y-76972240D01*
X78856525Y-77146632D01*
X79063368Y-77353475D01*
X79306589Y-77515990D01*
X79576842Y-77627932D01*
X79863740Y-77685000D01*
X80156260Y-77685000D01*
X80443158Y-77627932D01*
X80713411Y-77515990D01*
X80956632Y-77353475D01*
X81163475Y-77146632D01*
X81285195Y-76964466D01*
X81354822Y-77081355D01*
X81549731Y-77297588D01*
X81783080Y-77471641D01*
X82045901Y-77596825D01*
X82193110Y-77641476D01*
X82423000Y-77520155D01*
X82423000Y-76327000D01*
X82403000Y-76327000D01*
X82403000Y-76073000D01*
X82423000Y-76073000D01*
X82423000Y-74879845D01*
X82193110Y-74758524D01*
X82045901Y-74803175D01*
X81783080Y-74928359D01*
X81549731Y-75102412D01*
X81354822Y-75318645D01*
X81285195Y-75435534D01*
X81163475Y-75253368D01*
X81026000Y-75115893D01*
X81026000Y-74474902D01*
X81030915Y-74425000D01*
X81011298Y-74225829D01*
X80953202Y-74034313D01*
X80883053Y-73903072D01*
X81150000Y-73903072D01*
X81323254Y-73886008D01*
X81489850Y-73835472D01*
X81643386Y-73753405D01*
X81777962Y-73642962D01*
X81888405Y-73508386D01*
X81943132Y-73406000D01*
X83156868Y-73406000D01*
X83211595Y-73508386D01*
X83322038Y-73642962D01*
X83456614Y-73753405D01*
X83610150Y-73835472D01*
X83776746Y-73886008D01*
X83950000Y-73903072D01*
X84216948Y-73903072D01*
X84216285Y-73904313D01*
X84146799Y-74034313D01*
X84088702Y-74225830D01*
X84069085Y-74425000D01*
X84074001Y-74474911D01*
X84074001Y-75115892D01*
X83936525Y-75253368D01*
X83814805Y-75435534D01*
X83745178Y-75318645D01*
X83550269Y-75102412D01*
X83316920Y-74928359D01*
X83054099Y-74803175D01*
X82906890Y-74758524D01*
X82677000Y-74879845D01*
X82677000Y-76073000D01*
X82697000Y-76073000D01*
X82697000Y-76327000D01*
X82677000Y-76327000D01*
X82677000Y-77520155D01*
X82906890Y-77641476D01*
X83054099Y-77596825D01*
X83316920Y-77471641D01*
X83550269Y-77297588D01*
X83745178Y-77081355D01*
X83814805Y-76964466D01*
X83936525Y-77146632D01*
X84143368Y-77353475D01*
X84386589Y-77515990D01*
X84656842Y-77627932D01*
X84943740Y-77685000D01*
X85236260Y-77685000D01*
X85523158Y-77627932D01*
X85793411Y-77515990D01*
X86036632Y-77353475D01*
X86243475Y-77146632D01*
X86360000Y-76972240D01*
X86476525Y-77146632D01*
X86683368Y-77353475D01*
X86926589Y-77515990D01*
X87196842Y-77627932D01*
X87483740Y-77685000D01*
X87776260Y-77685000D01*
X88063158Y-77627932D01*
X88333411Y-77515990D01*
X88576632Y-77353475D01*
X88783475Y-77146632D01*
X88900000Y-76972240D01*
X89016525Y-77146632D01*
X89223368Y-77353475D01*
X89466589Y-77515990D01*
X89736842Y-77627932D01*
X90023740Y-77685000D01*
X90316260Y-77685000D01*
X90603158Y-77627932D01*
X90873411Y-77515990D01*
X91116632Y-77353475D01*
X91323475Y-77146632D01*
X91440000Y-76972240D01*
X91556525Y-77146632D01*
X91763368Y-77353475D01*
X92006589Y-77515990D01*
X92276842Y-77627932D01*
X92563740Y-77685000D01*
X92856260Y-77685000D01*
X93143158Y-77627932D01*
X93413411Y-77515990D01*
X93656632Y-77353475D01*
X93863475Y-77146632D01*
X93985195Y-76964466D01*
X94054822Y-77081355D01*
X94249731Y-77297588D01*
X94483080Y-77471641D01*
X94745901Y-77596825D01*
X94893110Y-77641476D01*
X95123000Y-77520155D01*
X95123000Y-76327000D01*
X95103000Y-76327000D01*
X95103000Y-76073000D01*
X95123000Y-76073000D01*
X95123000Y-74879845D01*
X94893110Y-74758524D01*
X94745901Y-74803175D01*
X94483080Y-74928359D01*
X94249731Y-75102412D01*
X94054822Y-75318645D01*
X93985195Y-75435534D01*
X93863475Y-75253368D01*
X93726000Y-75115893D01*
X93726000Y-74474902D01*
X93730915Y-74425000D01*
X93711298Y-74225829D01*
X93653202Y-74034313D01*
X93583053Y-73903072D01*
X93850000Y-73903072D01*
X94023254Y-73886008D01*
X94189850Y-73835472D01*
X94343386Y-73753405D01*
X94477962Y-73642962D01*
X94588405Y-73508386D01*
X94643132Y-73406000D01*
X95726868Y-73406000D01*
X95781595Y-73508386D01*
X95892038Y-73642962D01*
X96026614Y-73753405D01*
X96180150Y-73835472D01*
X96346746Y-73886008D01*
X96520000Y-73903072D01*
X96847462Y-73903072D01*
X96846799Y-73904313D01*
X96788702Y-74095830D01*
X96769085Y-74295000D01*
X96774001Y-74344911D01*
X96774001Y-75115892D01*
X96636525Y-75253368D01*
X96514805Y-75435534D01*
X96445178Y-75318645D01*
X96250269Y-75102412D01*
X96016920Y-74928359D01*
X95754099Y-74803175D01*
X95606890Y-74758524D01*
X95377000Y-74879845D01*
X95377000Y-76073000D01*
X95397000Y-76073000D01*
X95397000Y-76327000D01*
X95377000Y-76327000D01*
X95377000Y-77520155D01*
X95606890Y-77641476D01*
X95754099Y-77596825D01*
X96016920Y-77471641D01*
X96250269Y-77297588D01*
X96445178Y-77081355D01*
X96514805Y-76964466D01*
X96636525Y-77146632D01*
X96843368Y-77353475D01*
X97086589Y-77515990D01*
X97356842Y-77627932D01*
X97643740Y-77685000D01*
X97936260Y-77685000D01*
X98223158Y-77627932D01*
X98493411Y-77515990D01*
X98736632Y-77353475D01*
X98943475Y-77146632D01*
X99060000Y-76972240D01*
X99176525Y-77146632D01*
X99383368Y-77353475D01*
X99626589Y-77515990D01*
X99896842Y-77627932D01*
X100183740Y-77685000D01*
X100476260Y-77685000D01*
X100763158Y-77627932D01*
X101033411Y-77515990D01*
X101276632Y-77353475D01*
X101483475Y-77146632D01*
X101600000Y-76972240D01*
X101716525Y-77146632D01*
X101923368Y-77353475D01*
X102166589Y-77515990D01*
X102436842Y-77627932D01*
X102723740Y-77685000D01*
X103016260Y-77685000D01*
X103303158Y-77627932D01*
X103573411Y-77515990D01*
X103816632Y-77353475D01*
X104023475Y-77146632D01*
X104140000Y-76972240D01*
X104256525Y-77146632D01*
X104463368Y-77353475D01*
X104706589Y-77515990D01*
X104976842Y-77627932D01*
X105263740Y-77685000D01*
X105556260Y-77685000D01*
X105843158Y-77627932D01*
X106113411Y-77515990D01*
X106356632Y-77353475D01*
X106563475Y-77146632D01*
X106685195Y-76964466D01*
X106754822Y-77081355D01*
X106949731Y-77297588D01*
X107183080Y-77471641D01*
X107445901Y-77596825D01*
X107593110Y-77641476D01*
X107823000Y-77520155D01*
X107823000Y-76327000D01*
X107803000Y-76327000D01*
X107803000Y-76073000D01*
X107823000Y-76073000D01*
X107823000Y-74879845D01*
X107593110Y-74758524D01*
X107445901Y-74803175D01*
X107183080Y-74928359D01*
X106949731Y-75102412D01*
X106754822Y-75318645D01*
X106685195Y-75435534D01*
X106563475Y-75253368D01*
X106426000Y-75115893D01*
X106426000Y-74474902D01*
X106430915Y-74425000D01*
X106411298Y-74225829D01*
X106353202Y-74034313D01*
X106283053Y-73903072D01*
X106550000Y-73903072D01*
X106723254Y-73886008D01*
X106889850Y-73835472D01*
X107043386Y-73753405D01*
X107177962Y-73642962D01*
X107288405Y-73508386D01*
X107343132Y-73406000D01*
X108556868Y-73406000D01*
X108611595Y-73508386D01*
X108722038Y-73642962D01*
X108856614Y-73753405D01*
X109010150Y-73835472D01*
X109176746Y-73886008D01*
X109350000Y-73903072D01*
X109616948Y-73903072D01*
X109616285Y-73904313D01*
X109546799Y-74034313D01*
X109488702Y-74225830D01*
X109469085Y-74425000D01*
X109474001Y-74474911D01*
X109474001Y-75115892D01*
X109336525Y-75253368D01*
X109214805Y-75435534D01*
X109145178Y-75318645D01*
X108950269Y-75102412D01*
X108716920Y-74928359D01*
X108454099Y-74803175D01*
X108306890Y-74758524D01*
X108077000Y-74879845D01*
X108077000Y-76073000D01*
X108097000Y-76073000D01*
X108097000Y-76327000D01*
X108077000Y-76327000D01*
X108077000Y-77520155D01*
X108306890Y-77641476D01*
X108454099Y-77596825D01*
X108716920Y-77471641D01*
X108950269Y-77297588D01*
X109145178Y-77081355D01*
X109214805Y-76964466D01*
X109336525Y-77146632D01*
X109543368Y-77353475D01*
X109786589Y-77515990D01*
X110056842Y-77627932D01*
X110343740Y-77685000D01*
X110636260Y-77685000D01*
X110923158Y-77627932D01*
X111193411Y-77515990D01*
X111436632Y-77353475D01*
X111643475Y-77146632D01*
X111760000Y-76972240D01*
X111876525Y-77146632D01*
X112083368Y-77353475D01*
X112326589Y-77515990D01*
X112596842Y-77627932D01*
X112883740Y-77685000D01*
X113176260Y-77685000D01*
X113463158Y-77627932D01*
X113733411Y-77515990D01*
X113976632Y-77353475D01*
X114183475Y-77146632D01*
X114300000Y-76972240D01*
X114416525Y-77146632D01*
X114623368Y-77353475D01*
X114866589Y-77515990D01*
X115136842Y-77627932D01*
X115423740Y-77685000D01*
X115716260Y-77685000D01*
X116003158Y-77627932D01*
X116273411Y-77515990D01*
X116516632Y-77353475D01*
X116723475Y-77146632D01*
X116840000Y-76972240D01*
X116956525Y-77146632D01*
X117163368Y-77353475D01*
X117406589Y-77515990D01*
X117676842Y-77627932D01*
X117963740Y-77685000D01*
X118256260Y-77685000D01*
X118543158Y-77627932D01*
X118813411Y-77515990D01*
X119056632Y-77353475D01*
X119263475Y-77146632D01*
X119385195Y-76964466D01*
X119454822Y-77081355D01*
X119649731Y-77297588D01*
X119883080Y-77471641D01*
X120145901Y-77596825D01*
X120293110Y-77641476D01*
X120523000Y-77520155D01*
X120523000Y-76327000D01*
X120503000Y-76327000D01*
X120503000Y-76073000D01*
X120523000Y-76073000D01*
X120523000Y-74879845D01*
X120293110Y-74758524D01*
X120145901Y-74803175D01*
X119883080Y-74928359D01*
X119649731Y-75102412D01*
X119454822Y-75318645D01*
X119385195Y-75435534D01*
X119263475Y-75253368D01*
X119126000Y-75115893D01*
X119126000Y-74474902D01*
X119130915Y-74425000D01*
X119111298Y-74225829D01*
X119053202Y-74034313D01*
X118983053Y-73903072D01*
X119250000Y-73903072D01*
X119423254Y-73886008D01*
X119589850Y-73835472D01*
X119743386Y-73753405D01*
X119877962Y-73642962D01*
X119988405Y-73508386D01*
X120043132Y-73406000D01*
X121256868Y-73406000D01*
X121311595Y-73508386D01*
X121422038Y-73642962D01*
X121556614Y-73753405D01*
X121710150Y-73835472D01*
X121876746Y-73886008D01*
X122050000Y-73903072D01*
X122316948Y-73903072D01*
X122316285Y-73904313D01*
X122246799Y-74034313D01*
X122188702Y-74225830D01*
X122169085Y-74425000D01*
X122174001Y-74474911D01*
X122174001Y-75115892D01*
X122036525Y-75253368D01*
X121914805Y-75435534D01*
X121845178Y-75318645D01*
X121650269Y-75102412D01*
X121416920Y-74928359D01*
X121154099Y-74803175D01*
X121006890Y-74758524D01*
X120777000Y-74879845D01*
X120777000Y-76073000D01*
X120797000Y-76073000D01*
X120797000Y-76327000D01*
X120777000Y-76327000D01*
X120777000Y-77520155D01*
X121006890Y-77641476D01*
X121154099Y-77596825D01*
X121416920Y-77471641D01*
X121650269Y-77297588D01*
X121845178Y-77081355D01*
X121914805Y-76964466D01*
X122036525Y-77146632D01*
X122243368Y-77353475D01*
X122486589Y-77515990D01*
X122756842Y-77627932D01*
X123043740Y-77685000D01*
X123336260Y-77685000D01*
X123623158Y-77627932D01*
X123893411Y-77515990D01*
X124136632Y-77353475D01*
X124343475Y-77146632D01*
X124460000Y-76972240D01*
X124576525Y-77146632D01*
X124783368Y-77353475D01*
X125026589Y-77515990D01*
X125296842Y-77627932D01*
X125583740Y-77685000D01*
X125876260Y-77685000D01*
X126163158Y-77627932D01*
X126433411Y-77515990D01*
X126676632Y-77353475D01*
X126883475Y-77146632D01*
X127000000Y-76972240D01*
X127116525Y-77146632D01*
X127323368Y-77353475D01*
X127566589Y-77515990D01*
X127836842Y-77627932D01*
X128123740Y-77685000D01*
X128416260Y-77685000D01*
X128703158Y-77627932D01*
X128973411Y-77515990D01*
X129216632Y-77353475D01*
X129423475Y-77146632D01*
X129540000Y-76972240D01*
X129656525Y-77146632D01*
X129863368Y-77353475D01*
X130106589Y-77515990D01*
X130376842Y-77627932D01*
X130663740Y-77685000D01*
X130956260Y-77685000D01*
X131243158Y-77627932D01*
X131513411Y-77515990D01*
X131756632Y-77353475D01*
X131963475Y-77146632D01*
X132085195Y-76964466D01*
X132154822Y-77081355D01*
X132349731Y-77297588D01*
X132583080Y-77471641D01*
X132845901Y-77596825D01*
X132993110Y-77641476D01*
X133223000Y-77520155D01*
X133223000Y-76327000D01*
X133203000Y-76327000D01*
X133203000Y-76073000D01*
X133223000Y-76073000D01*
X133223000Y-74879845D01*
X132993110Y-74758524D01*
X132845901Y-74803175D01*
X132583080Y-74928359D01*
X132349731Y-75102412D01*
X132154822Y-75318645D01*
X132085195Y-75435534D01*
X131963475Y-75253368D01*
X131826000Y-75115893D01*
X131826000Y-74474902D01*
X131830915Y-74425000D01*
X131811298Y-74225829D01*
X131753202Y-74034313D01*
X131683053Y-73903072D01*
X131950000Y-73903072D01*
X132123254Y-73886008D01*
X132289850Y-73835472D01*
X132443386Y-73753405D01*
X132577962Y-73642962D01*
X132688405Y-73508386D01*
X132743132Y-73406000D01*
X133956868Y-73406000D01*
X134011595Y-73508386D01*
X134122038Y-73642962D01*
X134256614Y-73753405D01*
X134410150Y-73835472D01*
X134576746Y-73886008D01*
X134750000Y-73903072D01*
X135016948Y-73903072D01*
X135016285Y-73904313D01*
X134946799Y-74034313D01*
X134888702Y-74225830D01*
X134869085Y-74425000D01*
X134874001Y-74474911D01*
X134874001Y-75115892D01*
X134736525Y-75253368D01*
X134614805Y-75435534D01*
X134545178Y-75318645D01*
X134350269Y-75102412D01*
X134116920Y-74928359D01*
X133854099Y-74803175D01*
X133706890Y-74758524D01*
X133477000Y-74879845D01*
X133477000Y-76073000D01*
X133497000Y-76073000D01*
X133497000Y-76327000D01*
X133477000Y-76327000D01*
X133477000Y-77520155D01*
X133706890Y-77641476D01*
X133854099Y-77596825D01*
X134116920Y-77471641D01*
X134350269Y-77297588D01*
X134545178Y-77081355D01*
X134614805Y-76964466D01*
X134736525Y-77146632D01*
X134943368Y-77353475D01*
X135186589Y-77515990D01*
X135456842Y-77627932D01*
X135743740Y-77685000D01*
X136036260Y-77685000D01*
X136323158Y-77627932D01*
X136593411Y-77515990D01*
X136836632Y-77353475D01*
X137043475Y-77146632D01*
X137160000Y-76972240D01*
X137276525Y-77146632D01*
X137483368Y-77353475D01*
X137726589Y-77515990D01*
X137996842Y-77627932D01*
X138283740Y-77685000D01*
X138576260Y-77685000D01*
X138863158Y-77627932D01*
X139133411Y-77515990D01*
X139376632Y-77353475D01*
X139583475Y-77146632D01*
X139700000Y-76972240D01*
X139816525Y-77146632D01*
X140023368Y-77353475D01*
X140266589Y-77515990D01*
X140536842Y-77627932D01*
X140823740Y-77685000D01*
X141116260Y-77685000D01*
X141403158Y-77627932D01*
X141673411Y-77515990D01*
X141916632Y-77353475D01*
X142123475Y-77146632D01*
X142240000Y-76972240D01*
X142356525Y-77146632D01*
X142563368Y-77353475D01*
X142806589Y-77515990D01*
X143076842Y-77627932D01*
X143363740Y-77685000D01*
X143656260Y-77685000D01*
X143943158Y-77627932D01*
X144213411Y-77515990D01*
X144456632Y-77353475D01*
X144663475Y-77146632D01*
X144785195Y-76964466D01*
X144854822Y-77081355D01*
X145049731Y-77297588D01*
X145283080Y-77471641D01*
X145545901Y-77596825D01*
X145693110Y-77641476D01*
X145923000Y-77520155D01*
X145923000Y-76327000D01*
X145903000Y-76327000D01*
X145903000Y-76073000D01*
X145923000Y-76073000D01*
X145923000Y-74879845D01*
X145693110Y-74758524D01*
X145545901Y-74803175D01*
X145283080Y-74928359D01*
X145049731Y-75102412D01*
X144854822Y-75318645D01*
X144785195Y-75435534D01*
X144663475Y-75253368D01*
X144526000Y-75115893D01*
X144526000Y-74474902D01*
X144530915Y-74425000D01*
X144511298Y-74225829D01*
X144453202Y-74034313D01*
X144383053Y-73903072D01*
X144650000Y-73903072D01*
X144823254Y-73886008D01*
X144989850Y-73835472D01*
X145143386Y-73753405D01*
X145277962Y-73642962D01*
X145388405Y-73508386D01*
X145443132Y-73406000D01*
X146786868Y-73406000D01*
X146841595Y-73508386D01*
X146952038Y-73642962D01*
X147086614Y-73753405D01*
X147240150Y-73835472D01*
X147406746Y-73886008D01*
X147580000Y-73903072D01*
X147810684Y-73903072D01*
X147741141Y-73987810D01*
X147683404Y-74095829D01*
X147646799Y-74164313D01*
X147588702Y-74355830D01*
X147569085Y-74555000D01*
X147574001Y-74604911D01*
X147574001Y-75115892D01*
X147436525Y-75253368D01*
X147314805Y-75435534D01*
X147245178Y-75318645D01*
X147050269Y-75102412D01*
X146816920Y-74928359D01*
X146554099Y-74803175D01*
X146406890Y-74758524D01*
X146177000Y-74879845D01*
X146177000Y-76073000D01*
X146197000Y-76073000D01*
X146197000Y-76327000D01*
X146177000Y-76327000D01*
X146177000Y-77520155D01*
X146406890Y-77641476D01*
X146554099Y-77596825D01*
X146816920Y-77471641D01*
X147050269Y-77297588D01*
X147245178Y-77081355D01*
X147314805Y-76964466D01*
X147436525Y-77146632D01*
X147643368Y-77353475D01*
X147886589Y-77515990D01*
X148156842Y-77627932D01*
X148443740Y-77685000D01*
X148736260Y-77685000D01*
X149023158Y-77627932D01*
X149293411Y-77515990D01*
X149536632Y-77353475D01*
X149743475Y-77146632D01*
X149860000Y-76972240D01*
X149976525Y-77146632D01*
X150183368Y-77353475D01*
X150426589Y-77515990D01*
X150696842Y-77627932D01*
X150983740Y-77685000D01*
X151276260Y-77685000D01*
X151563158Y-77627932D01*
X151833411Y-77515990D01*
X152076632Y-77353475D01*
X152283475Y-77146632D01*
X152400000Y-76972240D01*
X152516525Y-77146632D01*
X152723368Y-77353475D01*
X152966589Y-77515990D01*
X153236842Y-77627932D01*
X153523740Y-77685000D01*
X153816260Y-77685000D01*
X154103158Y-77627932D01*
X154373411Y-77515990D01*
X154616632Y-77353475D01*
X154823475Y-77146632D01*
X154940000Y-76972240D01*
X155056525Y-77146632D01*
X155263368Y-77353475D01*
X155506589Y-77515990D01*
X155776842Y-77627932D01*
X156063740Y-77685000D01*
X156356260Y-77685000D01*
X156643158Y-77627932D01*
X156913411Y-77515990D01*
X157156632Y-77353475D01*
X157363475Y-77146632D01*
X157485195Y-76964466D01*
X157554822Y-77081355D01*
X157749731Y-77297588D01*
X157983080Y-77471641D01*
X158245901Y-77596825D01*
X158393110Y-77641476D01*
X158623000Y-77520155D01*
X158623000Y-76327000D01*
X158603000Y-76327000D01*
X158603000Y-76073000D01*
X158623000Y-76073000D01*
X158623000Y-74879845D01*
X158393110Y-74758524D01*
X158245901Y-74803175D01*
X157983080Y-74928359D01*
X157749731Y-75102412D01*
X157554822Y-75318645D01*
X157485195Y-75435534D01*
X157363475Y-75253368D01*
X157226000Y-75115893D01*
X157226000Y-74474902D01*
X157230915Y-74425000D01*
X157211298Y-74225829D01*
X157153202Y-74034313D01*
X157083053Y-73903072D01*
X157350000Y-73903072D01*
X157523254Y-73886008D01*
X157689850Y-73835472D01*
X157843386Y-73753405D01*
X157977962Y-73642962D01*
X158088405Y-73508386D01*
X158143132Y-73406000D01*
X159356868Y-73406000D01*
X159411595Y-73508386D01*
X159522038Y-73642962D01*
X159656614Y-73753405D01*
X159810150Y-73835472D01*
X159976746Y-73886008D01*
X160150000Y-73903072D01*
X160416948Y-73903072D01*
X160416285Y-73904313D01*
X160346799Y-74034313D01*
X160288702Y-74225830D01*
X160269085Y-74425000D01*
X160274001Y-74474911D01*
X160274001Y-75115892D01*
X160136525Y-75253368D01*
X160014805Y-75435534D01*
X159945178Y-75318645D01*
X159750269Y-75102412D01*
X159516920Y-74928359D01*
X159254099Y-74803175D01*
X159106890Y-74758524D01*
X158877000Y-74879845D01*
X158877000Y-76073000D01*
X158897000Y-76073000D01*
X158897000Y-76327000D01*
X158877000Y-76327000D01*
X158877000Y-77520155D01*
X159106890Y-77641476D01*
X159254099Y-77596825D01*
X159516920Y-77471641D01*
X159750269Y-77297588D01*
X159945178Y-77081355D01*
X160014805Y-76964466D01*
X160136525Y-77146632D01*
X160343368Y-77353475D01*
X160586589Y-77515990D01*
X160856842Y-77627932D01*
X161143740Y-77685000D01*
X161436260Y-77685000D01*
X161723158Y-77627932D01*
X161993411Y-77515990D01*
X162236632Y-77353475D01*
X162443475Y-77146632D01*
X162560000Y-76972240D01*
X162676525Y-77146632D01*
X162883368Y-77353475D01*
X163126589Y-77515990D01*
X163396842Y-77627932D01*
X163683740Y-77685000D01*
X163976260Y-77685000D01*
X164263158Y-77627932D01*
X164533411Y-77515990D01*
X164776632Y-77353475D01*
X164983475Y-77146632D01*
X165145990Y-76903411D01*
X165257932Y-76633158D01*
X165315000Y-76346260D01*
X165315000Y-76053740D01*
X165257932Y-75766842D01*
X165145990Y-75496589D01*
X165027998Y-75320000D01*
X169936928Y-75320000D01*
X169936928Y-76070000D01*
X169953992Y-76243254D01*
X170004528Y-76409850D01*
X170086595Y-76563386D01*
X170197038Y-76697962D01*
X170331614Y-76808405D01*
X170434000Y-76863132D01*
X170434001Y-78076868D01*
X170331614Y-78131595D01*
X170197038Y-78242038D01*
X170086595Y-78376614D01*
X170004528Y-78530150D01*
X169953992Y-78696746D01*
X169936928Y-78870000D01*
X169936928Y-79620000D01*
X169953992Y-79793254D01*
X170004528Y-79959850D01*
X170086595Y-80113386D01*
X170197038Y-80247962D01*
X170331614Y-80358405D01*
X170485150Y-80440472D01*
X170651746Y-80491008D01*
X170825000Y-80508072D01*
X172075000Y-80508072D01*
X172248254Y-80491008D01*
X172414850Y-80440472D01*
X172568386Y-80358405D01*
X172702962Y-80247962D01*
X172813405Y-80113386D01*
X172895472Y-79959850D01*
X172946008Y-79793254D01*
X172963072Y-79620000D01*
X172963072Y-78870000D01*
X172946008Y-78696746D01*
X172895472Y-78530150D01*
X172813405Y-78376614D01*
X172702962Y-78242038D01*
X172568386Y-78131595D01*
X172466000Y-78076868D01*
X172466000Y-76863132D01*
X172568386Y-76808405D01*
X172702962Y-76697962D01*
X172813405Y-76563386D01*
X172895472Y-76409850D01*
X172946008Y-76243254D01*
X172963072Y-76070000D01*
X172963072Y-75320000D01*
X172946008Y-75146746D01*
X172895472Y-74980150D01*
X172813405Y-74826614D01*
X172702962Y-74692038D01*
X172568386Y-74581595D01*
X172414850Y-74499528D01*
X172248254Y-74448992D01*
X172075000Y-74431928D01*
X170825000Y-74431928D01*
X170651746Y-74448992D01*
X170485150Y-74499528D01*
X170331614Y-74581595D01*
X170197038Y-74692038D01*
X170086595Y-74826614D01*
X170004528Y-74980150D01*
X169953992Y-75146746D01*
X169936928Y-75320000D01*
X165027998Y-75320000D01*
X164983475Y-75253368D01*
X164776632Y-75046525D01*
X164533411Y-74884010D01*
X164263158Y-74772068D01*
X163976260Y-74715000D01*
X163683740Y-74715000D01*
X163396842Y-74772068D01*
X163126589Y-74884010D01*
X162883368Y-75046525D01*
X162676525Y-75253368D01*
X162560000Y-75427760D01*
X162443475Y-75253368D01*
X162306000Y-75115893D01*
X162306000Y-74845840D01*
X163248769Y-73903072D01*
X163700000Y-73903072D01*
X163873254Y-73886008D01*
X164039850Y-73835472D01*
X164193386Y-73753405D01*
X164327962Y-73642962D01*
X164438405Y-73508386D01*
X164520472Y-73354850D01*
X164571008Y-73188254D01*
X164588072Y-73015000D01*
X164588072Y-71765000D01*
X164571008Y-71591746D01*
X164543481Y-71501000D01*
X169759160Y-71501000D01*
X170175924Y-71917765D01*
X170086595Y-72026614D01*
X170004528Y-72180150D01*
X169953992Y-72346746D01*
X169936928Y-72520000D01*
X169936928Y-73270000D01*
X169953992Y-73443254D01*
X170004528Y-73609850D01*
X170086595Y-73763386D01*
X170197038Y-73897962D01*
X170331614Y-74008405D01*
X170485150Y-74090472D01*
X170651746Y-74141008D01*
X170825000Y-74158072D01*
X172075000Y-74158072D01*
X172248254Y-74141008D01*
X172414850Y-74090472D01*
X172568386Y-74008405D01*
X172702962Y-73897962D01*
X172813405Y-73763386D01*
X172895472Y-73609850D01*
X172946008Y-73443254D01*
X172963072Y-73270000D01*
X172963072Y-72520000D01*
X172946008Y-72346746D01*
X172895472Y-72180150D01*
X172813405Y-72026614D01*
X172702962Y-71892038D01*
X172568386Y-71781595D01*
X172468263Y-71728078D01*
X172466000Y-71705105D01*
X172466000Y-71705098D01*
X172451298Y-71555829D01*
X172393202Y-71364313D01*
X172298860Y-71187810D01*
X172171896Y-71033104D01*
X172133133Y-71001292D01*
X170933712Y-69801872D01*
X170901896Y-69763104D01*
X170747190Y-69636140D01*
X170570687Y-69541798D01*
X170379171Y-69483702D01*
X170229902Y-69469000D01*
X170180000Y-69464085D01*
X170130098Y-69469000D01*
X154354902Y-69469000D01*
X154305000Y-69464085D01*
X154255098Y-69469000D01*
X141654902Y-69469000D01*
X141605000Y-69464085D01*
X141555098Y-69469000D01*
X128954902Y-69469000D01*
X128905000Y-69464085D01*
X128855098Y-69469000D01*
X116254902Y-69469000D01*
X116205000Y-69464085D01*
X116155098Y-69469000D01*
X103554902Y-69469000D01*
X103505000Y-69464085D01*
X103455098Y-69469000D01*
X90854902Y-69469000D01*
X90805000Y-69464085D01*
X90755098Y-69469000D01*
X78154902Y-69469000D01*
X78105000Y-69464085D01*
X78055098Y-69469000D01*
X65454902Y-69469000D01*
X65405000Y-69464085D01*
X65355098Y-69469000D01*
X65205829Y-69483702D01*
X65014313Y-69541798D01*
X64837810Y-69636140D01*
X64683104Y-69763104D01*
X64556140Y-69917810D01*
X64461798Y-70094313D01*
X64403702Y-70285829D01*
X64384085Y-70485000D01*
X64389001Y-70534912D01*
X64389001Y-71152924D01*
X64291595Y-71271614D01*
X64209528Y-71425150D01*
X64158992Y-71591746D01*
X64141928Y-71765000D01*
X64141928Y-73015000D01*
X64158992Y-73188254D01*
X64209528Y-73354850D01*
X64291595Y-73508386D01*
X64402038Y-73642962D01*
X64536614Y-73753405D01*
X64690150Y-73835472D01*
X64856746Y-73886008D01*
X65030000Y-73903072D01*
X65481232Y-73903072D01*
X66294001Y-74715842D01*
X66294001Y-75115892D01*
X66231513Y-75178380D01*
X66209502Y-75105820D01*
X66150537Y-74995506D01*
X66071185Y-74898815D01*
X65974494Y-74819463D01*
X65864180Y-74760498D01*
X65744482Y-74724188D01*
X65620000Y-74711928D01*
X63920000Y-74711928D01*
X63795518Y-74724188D01*
X63675820Y-74760498D01*
X63565506Y-74819463D01*
X63468815Y-74898815D01*
X63389463Y-74995506D01*
X63330498Y-75105820D01*
X63294188Y-75225518D01*
X63281928Y-75350000D01*
X51460000Y-75350000D01*
X51460000Y-64454385D01*
X61565505Y-64454385D01*
X61565505Y-65085615D01*
X61688652Y-65704717D01*
X61930214Y-66287897D01*
X62280906Y-66812746D01*
X62727254Y-67259094D01*
X63252103Y-67609786D01*
X63835283Y-67851348D01*
X64454385Y-67974495D01*
X65085615Y-67974495D01*
X65704717Y-67851348D01*
X66287897Y-67609786D01*
X66812746Y-67259094D01*
X67259094Y-66812746D01*
X67609786Y-66287897D01*
X67851348Y-65704717D01*
X67974495Y-65085615D01*
X67974495Y-64454385D01*
X74265505Y-64454385D01*
X74265505Y-65085615D01*
X74388652Y-65704717D01*
X74630214Y-66287897D01*
X74980906Y-66812746D01*
X75427254Y-67259094D01*
X75952103Y-67609786D01*
X76535283Y-67851348D01*
X77154385Y-67974495D01*
X77785615Y-67974495D01*
X78404717Y-67851348D01*
X78987897Y-67609786D01*
X79512746Y-67259094D01*
X79959094Y-66812746D01*
X80309786Y-66287897D01*
X80551348Y-65704717D01*
X80674495Y-65085615D01*
X80674495Y-64454385D01*
X86965505Y-64454385D01*
X86965505Y-65085615D01*
X87088652Y-65704717D01*
X87330214Y-66287897D01*
X87680906Y-66812746D01*
X88127254Y-67259094D01*
X88652103Y-67609786D01*
X89235283Y-67851348D01*
X89854385Y-67974495D01*
X90485615Y-67974495D01*
X91104717Y-67851348D01*
X91687897Y-67609786D01*
X92212746Y-67259094D01*
X92659094Y-66812746D01*
X93009786Y-66287897D01*
X93251348Y-65704717D01*
X93374495Y-65085615D01*
X93374495Y-64454385D01*
X99665505Y-64454385D01*
X99665505Y-65085615D01*
X99788652Y-65704717D01*
X100030214Y-66287897D01*
X100380906Y-66812746D01*
X100827254Y-67259094D01*
X101352103Y-67609786D01*
X101935283Y-67851348D01*
X102554385Y-67974495D01*
X103185615Y-67974495D01*
X103804717Y-67851348D01*
X104387897Y-67609786D01*
X104912746Y-67259094D01*
X105359094Y-66812746D01*
X105709786Y-66287897D01*
X105951348Y-65704717D01*
X106074495Y-65085615D01*
X106074495Y-64454385D01*
X112365505Y-64454385D01*
X112365505Y-65085615D01*
X112488652Y-65704717D01*
X112730214Y-66287897D01*
X113080906Y-66812746D01*
X113527254Y-67259094D01*
X114052103Y-67609786D01*
X114635283Y-67851348D01*
X115254385Y-67974495D01*
X115885615Y-67974495D01*
X116504717Y-67851348D01*
X117087897Y-67609786D01*
X117612746Y-67259094D01*
X118059094Y-66812746D01*
X118409786Y-66287897D01*
X118651348Y-65704717D01*
X118774495Y-65085615D01*
X118774495Y-64644885D01*
X125065505Y-64644885D01*
X125065505Y-65276115D01*
X125188652Y-65895217D01*
X125430214Y-66478397D01*
X125780906Y-67003246D01*
X126227254Y-67449594D01*
X126752103Y-67800286D01*
X127335283Y-68041848D01*
X127954385Y-68164995D01*
X128585615Y-68164995D01*
X129204717Y-68041848D01*
X129787897Y-67800286D01*
X130312746Y-67449594D01*
X130759094Y-67003246D01*
X131109786Y-66478397D01*
X131351348Y-65895217D01*
X131474495Y-65276115D01*
X131474495Y-64644885D01*
X131436603Y-64454385D01*
X137765505Y-64454385D01*
X137765505Y-65085615D01*
X137888652Y-65704717D01*
X138130214Y-66287897D01*
X138480906Y-66812746D01*
X138927254Y-67259094D01*
X139452103Y-67609786D01*
X140035283Y-67851348D01*
X140654385Y-67974495D01*
X141285615Y-67974495D01*
X141904717Y-67851348D01*
X142487897Y-67609786D01*
X143012746Y-67259094D01*
X143459094Y-66812746D01*
X143809786Y-66287897D01*
X144051348Y-65704717D01*
X144174495Y-65085615D01*
X144174495Y-64454385D01*
X150465505Y-64454385D01*
X150465505Y-65085615D01*
X150588652Y-65704717D01*
X150830214Y-66287897D01*
X151180906Y-66812746D01*
X151627254Y-67259094D01*
X152152103Y-67609786D01*
X152735283Y-67851348D01*
X153354385Y-67974495D01*
X153985615Y-67974495D01*
X154604717Y-67851348D01*
X155187897Y-67609786D01*
X155712746Y-67259094D01*
X156159094Y-66812746D01*
X156509786Y-66287897D01*
X156751348Y-65704717D01*
X156874495Y-65085615D01*
X156874495Y-64454385D01*
X156751348Y-63835283D01*
X156509786Y-63252103D01*
X156159094Y-62727254D01*
X155712746Y-62280906D01*
X155187897Y-61930214D01*
X154604717Y-61688652D01*
X153985615Y-61565505D01*
X153354385Y-61565505D01*
X152735283Y-61688652D01*
X152152103Y-61930214D01*
X151627254Y-62280906D01*
X151180906Y-62727254D01*
X150830214Y-63252103D01*
X150588652Y-63835283D01*
X150465505Y-64454385D01*
X144174495Y-64454385D01*
X144051348Y-63835283D01*
X143809786Y-63252103D01*
X143459094Y-62727254D01*
X143012746Y-62280906D01*
X142487897Y-61930214D01*
X141904717Y-61688652D01*
X141285615Y-61565505D01*
X140654385Y-61565505D01*
X140035283Y-61688652D01*
X139452103Y-61930214D01*
X138927254Y-62280906D01*
X138480906Y-62727254D01*
X138130214Y-63252103D01*
X137888652Y-63835283D01*
X137765505Y-64454385D01*
X131436603Y-64454385D01*
X131351348Y-64025783D01*
X131109786Y-63442603D01*
X130759094Y-62917754D01*
X130312746Y-62471406D01*
X129787897Y-62120714D01*
X129204717Y-61879152D01*
X128585615Y-61756005D01*
X127954385Y-61756005D01*
X127335283Y-61879152D01*
X126752103Y-62120714D01*
X126227254Y-62471406D01*
X125780906Y-62917754D01*
X125430214Y-63442603D01*
X125188652Y-64025783D01*
X125065505Y-64644885D01*
X118774495Y-64644885D01*
X118774495Y-64454385D01*
X118651348Y-63835283D01*
X118409786Y-63252103D01*
X118059094Y-62727254D01*
X117612746Y-62280906D01*
X117087897Y-61930214D01*
X116504717Y-61688652D01*
X115885615Y-61565505D01*
X115254385Y-61565505D01*
X114635283Y-61688652D01*
X114052103Y-61930214D01*
X113527254Y-62280906D01*
X113080906Y-62727254D01*
X112730214Y-63252103D01*
X112488652Y-63835283D01*
X112365505Y-64454385D01*
X106074495Y-64454385D01*
X105951348Y-63835283D01*
X105709786Y-63252103D01*
X105359094Y-62727254D01*
X104912746Y-62280906D01*
X104387897Y-61930214D01*
X103804717Y-61688652D01*
X103185615Y-61565505D01*
X102554385Y-61565505D01*
X101935283Y-61688652D01*
X101352103Y-61930214D01*
X100827254Y-62280906D01*
X100380906Y-62727254D01*
X100030214Y-63252103D01*
X99788652Y-63835283D01*
X99665505Y-64454385D01*
X93374495Y-64454385D01*
X93251348Y-63835283D01*
X93009786Y-63252103D01*
X92659094Y-62727254D01*
X92212746Y-62280906D01*
X91687897Y-61930214D01*
X91104717Y-61688652D01*
X90485615Y-61565505D01*
X89854385Y-61565505D01*
X89235283Y-61688652D01*
X88652103Y-61930214D01*
X88127254Y-62280906D01*
X87680906Y-62727254D01*
X87330214Y-63252103D01*
X87088652Y-63835283D01*
X86965505Y-64454385D01*
X80674495Y-64454385D01*
X80551348Y-63835283D01*
X80309786Y-63252103D01*
X79959094Y-62727254D01*
X79512746Y-62280906D01*
X78987897Y-61930214D01*
X78404717Y-61688652D01*
X77785615Y-61565505D01*
X77154385Y-61565505D01*
X76535283Y-61688652D01*
X75952103Y-61930214D01*
X75427254Y-62280906D01*
X74980906Y-62727254D01*
X74630214Y-63252103D01*
X74388652Y-63835283D01*
X74265505Y-64454385D01*
X67974495Y-64454385D01*
X67851348Y-63835283D01*
X67609786Y-63252103D01*
X67259094Y-62727254D01*
X66812746Y-62280906D01*
X66287897Y-61930214D01*
X65704717Y-61688652D01*
X65085615Y-61565505D01*
X64454385Y-61565505D01*
X63835283Y-61688652D01*
X63252103Y-61930214D01*
X62727254Y-62280906D01*
X62280906Y-62727254D01*
X61930214Y-63252103D01*
X61688652Y-63835283D01*
X61565505Y-64454385D01*
X51460000Y-64454385D01*
X51460000Y-60985000D01*
X177140000Y-60985000D01*
X177140001Y-130150000D01*
G04 #@! TA.AperFunction,Conductor*
D17*
G36*
X177140001Y-130150000D02*
G01*
X51460000Y-130150000D01*
X51460000Y-129107195D01*
X51579744Y-129187205D01*
X51768102Y-129265226D01*
X51968061Y-129305000D01*
X52171939Y-129305000D01*
X52267459Y-129286000D01*
X53311868Y-129286000D01*
X53366595Y-129388386D01*
X53477038Y-129522962D01*
X53611614Y-129633405D01*
X53765150Y-129715472D01*
X53931746Y-129766008D01*
X54105000Y-129783072D01*
X54855000Y-129783072D01*
X55028254Y-129766008D01*
X55194850Y-129715472D01*
X55348386Y-129633405D01*
X55482962Y-129522962D01*
X55593405Y-129388386D01*
X55675472Y-129234850D01*
X55702727Y-129145000D01*
X56016928Y-129145000D01*
X56029188Y-129269482D01*
X56065498Y-129389180D01*
X56124463Y-129499494D01*
X56203815Y-129596185D01*
X56300506Y-129675537D01*
X56410820Y-129734502D01*
X56530518Y-129770812D01*
X56655000Y-129783072D01*
X56994250Y-129780000D01*
X57153000Y-129621250D01*
X57153000Y-128397000D01*
X57407000Y-128397000D01*
X57407000Y-129621250D01*
X57565750Y-129780000D01*
X57905000Y-129783072D01*
X58029482Y-129770812D01*
X58149180Y-129734502D01*
X58259494Y-129675537D01*
X58356185Y-129596185D01*
X58435537Y-129499494D01*
X58494502Y-129389180D01*
X58530812Y-129269482D01*
X58543072Y-129145000D01*
X58540000Y-128555750D01*
X58381250Y-128397000D01*
X57407000Y-128397000D01*
X57153000Y-128397000D01*
X56178750Y-128397000D01*
X56020000Y-128555750D01*
X56016928Y-129145000D01*
X55702727Y-129145000D01*
X55726008Y-129068254D01*
X55743072Y-128895000D01*
X55743072Y-127645000D01*
X55726008Y-127471746D01*
X55702728Y-127395000D01*
X56016928Y-127395000D01*
X56020000Y-127984250D01*
X56178750Y-128143000D01*
X57153000Y-128143000D01*
X57153000Y-126918750D01*
X57407000Y-126918750D01*
X57407000Y-128143000D01*
X58381250Y-128143000D01*
X58540000Y-127984250D01*
X58543072Y-127395000D01*
X58530812Y-127270518D01*
X58494502Y-127150820D01*
X58435537Y-127040506D01*
X58356185Y-126943815D01*
X58259494Y-126864463D01*
X58149180Y-126805498D01*
X58029482Y-126769188D01*
X57905000Y-126756928D01*
X57565750Y-126760000D01*
X57407000Y-126918750D01*
X57153000Y-126918750D01*
X56994250Y-126760000D01*
X56655000Y-126756928D01*
X56530518Y-126769188D01*
X56410820Y-126805498D01*
X56300506Y-126864463D01*
X56203815Y-126943815D01*
X56124463Y-127040506D01*
X56065498Y-127150820D01*
X56029188Y-127270518D01*
X56016928Y-127395000D01*
X55702728Y-127395000D01*
X55675472Y-127305150D01*
X55593405Y-127151614D01*
X55482962Y-127017038D01*
X55348386Y-126906595D01*
X55194850Y-126824528D01*
X55028254Y-126773992D01*
X54855000Y-126756928D01*
X54105000Y-126756928D01*
X53931746Y-126773992D01*
X53765150Y-126824528D01*
X53611614Y-126906595D01*
X53477038Y-127017038D01*
X53366595Y-127151614D01*
X53311868Y-127254000D01*
X52267459Y-127254000D01*
X52171939Y-127235000D01*
X51968061Y-127235000D01*
X51768102Y-127274774D01*
X51579744Y-127352795D01*
X51460000Y-127432805D01*
X51460000Y-124040000D01*
X59471928Y-124040000D01*
X59484188Y-124164482D01*
X59520498Y-124284180D01*
X59579463Y-124394494D01*
X59658815Y-124491185D01*
X59755506Y-124570537D01*
X59865820Y-124629502D01*
X59985518Y-124665812D01*
X60110000Y-124678072D01*
X60674250Y-124675000D01*
X60833000Y-124516250D01*
X60833000Y-123317000D01*
X61087000Y-123317000D01*
X61087000Y-124516250D01*
X61245750Y-124675000D01*
X61810000Y-124678072D01*
X61934482Y-124665812D01*
X62054180Y-124629502D01*
X62164494Y-124570537D01*
X62261185Y-124491185D01*
X62340537Y-124394494D01*
X62399502Y-124284180D01*
X62435812Y-124164482D01*
X62448072Y-124040000D01*
X62445000Y-123475750D01*
X62286250Y-123317000D01*
X61087000Y-123317000D01*
X60833000Y-123317000D01*
X59633750Y-123317000D01*
X59475000Y-123475750D01*
X59471928Y-124040000D01*
X51460000Y-124040000D01*
X51460000Y-123262122D01*
X64135000Y-123262122D01*
X64135000Y-124387878D01*
X64354625Y-125492004D01*
X64785433Y-126532067D01*
X65410870Y-127468100D01*
X66206900Y-128264130D01*
X67142933Y-128889567D01*
X68182996Y-129320375D01*
X69287122Y-129540000D01*
X70412878Y-129540000D01*
X71517004Y-129320375D01*
X72557067Y-128889567D01*
X73493100Y-128264130D01*
X74289130Y-127468100D01*
X74914567Y-126532067D01*
X75345375Y-125492004D01*
X75565000Y-124387878D01*
X75565000Y-123262122D01*
X76835000Y-123262122D01*
X76835000Y-124387878D01*
X77054625Y-125492004D01*
X77485433Y-126532067D01*
X78110870Y-127468100D01*
X78906900Y-128264130D01*
X79842933Y-128889567D01*
X80882996Y-129320375D01*
X81987122Y-129540000D01*
X83112878Y-129540000D01*
X84217004Y-129320375D01*
X85257067Y-128889567D01*
X86193100Y-128264130D01*
X86989130Y-127468100D01*
X87614567Y-126532067D01*
X88045375Y-125492004D01*
X88265000Y-124387878D01*
X88265000Y-123262122D01*
X89535000Y-123262122D01*
X89535000Y-124387878D01*
X89754625Y-125492004D01*
X90185433Y-126532067D01*
X90810870Y-127468100D01*
X91606900Y-128264130D01*
X92542933Y-128889567D01*
X93582996Y-129320375D01*
X94687122Y-129540000D01*
X95812878Y-129540000D01*
X96917004Y-129320375D01*
X97957067Y-128889567D01*
X98893100Y-128264130D01*
X99689130Y-127468100D01*
X100314567Y-126532067D01*
X100745375Y-125492004D01*
X100965000Y-124387878D01*
X100965000Y-123262122D01*
X102235000Y-123262122D01*
X102235000Y-124387878D01*
X102454625Y-125492004D01*
X102885433Y-126532067D01*
X103510870Y-127468100D01*
X104306900Y-128264130D01*
X105242933Y-128889567D01*
X106282996Y-129320375D01*
X107387122Y-129540000D01*
X108512878Y-129540000D01*
X109617004Y-129320375D01*
X110657067Y-128889567D01*
X111593100Y-128264130D01*
X112389130Y-127468100D01*
X113014567Y-126532067D01*
X113445375Y-125492004D01*
X113665000Y-124387878D01*
X113665000Y-123262122D01*
X114935000Y-123262122D01*
X114935000Y-124387878D01*
X115154625Y-125492004D01*
X115585433Y-126532067D01*
X116210870Y-127468100D01*
X117006900Y-128264130D01*
X117942933Y-128889567D01*
X118982996Y-129320375D01*
X120087122Y-129540000D01*
X121212878Y-129540000D01*
X122317004Y-129320375D01*
X123357067Y-128889567D01*
X124293100Y-128264130D01*
X125089130Y-127468100D01*
X125714567Y-126532067D01*
X126145375Y-125492004D01*
X126365000Y-124387878D01*
X126365000Y-123262122D01*
X127635000Y-123262122D01*
X127635000Y-124387878D01*
X127854625Y-125492004D01*
X128285433Y-126532067D01*
X128910870Y-127468100D01*
X129706900Y-128264130D01*
X130642933Y-128889567D01*
X131682996Y-129320375D01*
X132787122Y-129540000D01*
X133912878Y-129540000D01*
X135017004Y-129320375D01*
X136057067Y-128889567D01*
X136993100Y-128264130D01*
X137789130Y-127468100D01*
X138414567Y-126532067D01*
X138845375Y-125492004D01*
X139065000Y-124387878D01*
X139065000Y-123262122D01*
X140335000Y-123262122D01*
X140335000Y-124387878D01*
X140554625Y-125492004D01*
X140985433Y-126532067D01*
X141610870Y-127468100D01*
X142406900Y-128264130D01*
X143342933Y-128889567D01*
X144382996Y-129320375D01*
X145487122Y-129540000D01*
X146612878Y-129540000D01*
X147717004Y-129320375D01*
X148757067Y-128889567D01*
X149693100Y-128264130D01*
X150489130Y-127468100D01*
X151114567Y-126532067D01*
X151545375Y-125492004D01*
X151765000Y-124387878D01*
X151765000Y-123262122D01*
X153035000Y-123262122D01*
X153035000Y-124387878D01*
X153254625Y-125492004D01*
X153685433Y-126532067D01*
X154310870Y-127468100D01*
X155106900Y-128264130D01*
X156042933Y-128889567D01*
X157082996Y-129320375D01*
X158187122Y-129540000D01*
X159312878Y-129540000D01*
X160417004Y-129320375D01*
X161457067Y-128889567D01*
X162393100Y-128264130D01*
X163189130Y-127468100D01*
X163814567Y-126532067D01*
X164245375Y-125492004D01*
X164465000Y-124387878D01*
X164465000Y-123262122D01*
X164245375Y-122157996D01*
X163814567Y-121117933D01*
X163189130Y-120181900D01*
X162393100Y-119385870D01*
X161457067Y-118760433D01*
X160417004Y-118329625D01*
X159312878Y-118110000D01*
X158187122Y-118110000D01*
X157082996Y-118329625D01*
X156042933Y-118760433D01*
X155106900Y-119385870D01*
X154310870Y-120181900D01*
X153685433Y-121117933D01*
X153254625Y-122157996D01*
X153035000Y-123262122D01*
X151765000Y-123262122D01*
X151545375Y-122157996D01*
X151114567Y-121117933D01*
X150489130Y-120181900D01*
X149693100Y-119385870D01*
X148757067Y-118760433D01*
X147717004Y-118329625D01*
X146612878Y-118110000D01*
X145487122Y-118110000D01*
X144382996Y-118329625D01*
X143342933Y-118760433D01*
X142406900Y-119385870D01*
X141610870Y-120181900D01*
X140985433Y-121117933D01*
X140554625Y-122157996D01*
X140335000Y-123262122D01*
X139065000Y-123262122D01*
X138845375Y-122157996D01*
X138414567Y-121117933D01*
X137789130Y-120181900D01*
X136993100Y-119385870D01*
X136057067Y-118760433D01*
X135017004Y-118329625D01*
X133912878Y-118110000D01*
X132787122Y-118110000D01*
X131682996Y-118329625D01*
X130642933Y-118760433D01*
X129706900Y-119385870D01*
X128910870Y-120181900D01*
X128285433Y-121117933D01*
X127854625Y-122157996D01*
X127635000Y-123262122D01*
X126365000Y-123262122D01*
X126145375Y-122157996D01*
X125714567Y-121117933D01*
X125089130Y-120181900D01*
X124293100Y-119385870D01*
X123357067Y-118760433D01*
X122317004Y-118329625D01*
X121212878Y-118110000D01*
X120087122Y-118110000D01*
X118982996Y-118329625D01*
X117942933Y-118760433D01*
X117006900Y-119385870D01*
X116210870Y-120181900D01*
X115585433Y-121117933D01*
X115154625Y-122157996D01*
X114935000Y-123262122D01*
X113665000Y-123262122D01*
X113445375Y-122157996D01*
X113014567Y-121117933D01*
X112389130Y-120181900D01*
X111593100Y-119385870D01*
X110657067Y-118760433D01*
X109617004Y-118329625D01*
X108512878Y-118110000D01*
X107387122Y-118110000D01*
X106282996Y-118329625D01*
X105242933Y-118760433D01*
X104306900Y-119385870D01*
X103510870Y-120181900D01*
X102885433Y-121117933D01*
X102454625Y-122157996D01*
X102235000Y-123262122D01*
X100965000Y-123262122D01*
X100745375Y-122157996D01*
X100314567Y-121117933D01*
X99689130Y-120181900D01*
X98893100Y-119385870D01*
X97957067Y-118760433D01*
X96917004Y-118329625D01*
X95812878Y-118110000D01*
X94687122Y-118110000D01*
X93582996Y-118329625D01*
X92542933Y-118760433D01*
X91606900Y-119385870D01*
X90810870Y-120181900D01*
X90185433Y-121117933D01*
X89754625Y-122157996D01*
X89535000Y-123262122D01*
X88265000Y-123262122D01*
X88045375Y-122157996D01*
X87614567Y-121117933D01*
X86989130Y-120181900D01*
X86193100Y-119385870D01*
X85257067Y-118760433D01*
X84217004Y-118329625D01*
X83112878Y-118110000D01*
X81987122Y-118110000D01*
X80882996Y-118329625D01*
X79842933Y-118760433D01*
X78906900Y-119385870D01*
X78110870Y-120181900D01*
X77485433Y-121117933D01*
X77054625Y-122157996D01*
X76835000Y-123262122D01*
X75565000Y-123262122D01*
X75345375Y-122157996D01*
X74914567Y-121117933D01*
X74289130Y-120181900D01*
X73493100Y-119385870D01*
X72557067Y-118760433D01*
X71517004Y-118329625D01*
X70412878Y-118110000D01*
X69287122Y-118110000D01*
X68182996Y-118329625D01*
X67142933Y-118760433D01*
X66206900Y-119385870D01*
X65410870Y-120181900D01*
X64785433Y-121117933D01*
X64354625Y-122157996D01*
X64135000Y-123262122D01*
X51460000Y-123262122D01*
X51460000Y-113867195D01*
X51579744Y-113947205D01*
X51768102Y-114025226D01*
X51968061Y-114065000D01*
X52171939Y-114065000D01*
X52267459Y-114046000D01*
X53311868Y-114046000D01*
X53366595Y-114148386D01*
X53477038Y-114282962D01*
X53611614Y-114393405D01*
X53765150Y-114475472D01*
X53931746Y-114526008D01*
X54105000Y-114543072D01*
X54855000Y-114543072D01*
X55028254Y-114526008D01*
X55194850Y-114475472D01*
X55348386Y-114393405D01*
X55482962Y-114282962D01*
X55593405Y-114148386D01*
X55675472Y-113994850D01*
X55726008Y-113828254D01*
X55743072Y-113655000D01*
X55743072Y-112405000D01*
X56016928Y-112405000D01*
X56016928Y-113655000D01*
X56033992Y-113828254D01*
X56084528Y-113994850D01*
X56166595Y-114148386D01*
X56264001Y-114267076D01*
X56264000Y-118190098D01*
X56259085Y-118240000D01*
X56264000Y-118289901D01*
X56278702Y-118439170D01*
X56336798Y-118630686D01*
X56431140Y-118807190D01*
X56558104Y-118961896D01*
X56596872Y-118993712D01*
X58936292Y-121333133D01*
X58968104Y-121371896D01*
X59122810Y-121498860D01*
X59299313Y-121593202D01*
X59490829Y-121651298D01*
X59690000Y-121670915D01*
X59739902Y-121666000D01*
X59875893Y-121666000D01*
X59938380Y-121728487D01*
X59865820Y-121750498D01*
X59755506Y-121809463D01*
X59658815Y-121888815D01*
X59579463Y-121985506D01*
X59520498Y-122095820D01*
X59484188Y-122215518D01*
X59471928Y-122340000D01*
X59475000Y-122904250D01*
X59633750Y-123063000D01*
X60833000Y-123063000D01*
X60833000Y-123043000D01*
X61087000Y-123043000D01*
X61087000Y-123063000D01*
X62286250Y-123063000D01*
X62445000Y-122904250D01*
X62448072Y-122340000D01*
X62435812Y-122215518D01*
X62399502Y-122095820D01*
X62340537Y-121985506D01*
X62261185Y-121888815D01*
X62164494Y-121809463D01*
X62054180Y-121750498D01*
X61981620Y-121728487D01*
X62113475Y-121596632D01*
X62275990Y-121353411D01*
X62387932Y-121083158D01*
X62445000Y-120796260D01*
X62445000Y-120503740D01*
X62387932Y-120216842D01*
X62275990Y-119946589D01*
X62113475Y-119703368D01*
X61906632Y-119496525D01*
X61732240Y-119380000D01*
X61906632Y-119263475D01*
X62113475Y-119056632D01*
X62275990Y-118813411D01*
X62387932Y-118543158D01*
X62445000Y-118256260D01*
X62445000Y-117963740D01*
X62387932Y-117676842D01*
X62275990Y-117406589D01*
X62113475Y-117163368D01*
X61906632Y-116956525D01*
X61663411Y-116794010D01*
X61393158Y-116682068D01*
X61106260Y-116625000D01*
X60813740Y-116625000D01*
X60526842Y-116682068D01*
X60256589Y-116794010D01*
X60013368Y-116956525D01*
X59806525Y-117163368D01*
X59644010Y-117406589D01*
X59532068Y-117676842D01*
X59475000Y-117963740D01*
X59475000Y-118256260D01*
X59532068Y-118543158D01*
X59644010Y-118813411D01*
X59806525Y-119056632D01*
X60013368Y-119263475D01*
X60187760Y-119380000D01*
X60013368Y-119496525D01*
X59993367Y-119516526D01*
X58296000Y-117819160D01*
X58296000Y-114267075D01*
X58393405Y-114148386D01*
X58475472Y-113994850D01*
X58526008Y-113828254D01*
X58543072Y-113655000D01*
X58543072Y-112405000D01*
X58526008Y-112231746D01*
X58475472Y-112065150D01*
X58393405Y-111911614D01*
X58282962Y-111777038D01*
X58148386Y-111666595D01*
X57994850Y-111584528D01*
X57828254Y-111533992D01*
X57655000Y-111516928D01*
X56905000Y-111516928D01*
X56731746Y-111533992D01*
X56565150Y-111584528D01*
X56411614Y-111666595D01*
X56277038Y-111777038D01*
X56166595Y-111911614D01*
X56084528Y-112065150D01*
X56033992Y-112231746D01*
X56016928Y-112405000D01*
X55743072Y-112405000D01*
X55726008Y-112231746D01*
X55675472Y-112065150D01*
X55593405Y-111911614D01*
X55482962Y-111777038D01*
X55348386Y-111666595D01*
X55194850Y-111584528D01*
X55028254Y-111533992D01*
X54855000Y-111516928D01*
X54105000Y-111516928D01*
X53931746Y-111533992D01*
X53765150Y-111584528D01*
X53611614Y-111666595D01*
X53477038Y-111777038D01*
X53366595Y-111911614D01*
X53311868Y-112014000D01*
X52267459Y-112014000D01*
X52171939Y-111995000D01*
X51968061Y-111995000D01*
X51768102Y-112034774D01*
X51579744Y-112112795D01*
X51460000Y-112192805D01*
X51460000Y-105824872D01*
X53645000Y-105824872D01*
X53645000Y-106265128D01*
X53730890Y-106696925D01*
X53899369Y-107103669D01*
X54143962Y-107469729D01*
X54455271Y-107781038D01*
X54821331Y-108025631D01*
X55228075Y-108194110D01*
X55659872Y-108280000D01*
X56100128Y-108280000D01*
X56531925Y-108194110D01*
X56938669Y-108025631D01*
X57304729Y-107781038D01*
X57616038Y-107469729D01*
X57860631Y-107103669D01*
X58029110Y-106696925D01*
X58115000Y-106265128D01*
X58115000Y-105824872D01*
X58029110Y-105393075D01*
X57860631Y-104986331D01*
X57616038Y-104620271D01*
X57304729Y-104308962D01*
X57159798Y-104212122D01*
X64135000Y-104212122D01*
X64135000Y-105337878D01*
X64354625Y-106442004D01*
X64785433Y-107482067D01*
X65410870Y-108418100D01*
X66206900Y-109214130D01*
X67142933Y-109839567D01*
X68182996Y-110270375D01*
X69287122Y-110490000D01*
X70412878Y-110490000D01*
X71517004Y-110270375D01*
X72557067Y-109839567D01*
X73493100Y-109214130D01*
X74289130Y-108418100D01*
X74914567Y-107482067D01*
X75345375Y-106442004D01*
X75565000Y-105337878D01*
X75565000Y-104212122D01*
X76835000Y-104212122D01*
X76835000Y-105337878D01*
X77054625Y-106442004D01*
X77485433Y-107482067D01*
X78110870Y-108418100D01*
X78906900Y-109214130D01*
X79842933Y-109839567D01*
X80882996Y-110270375D01*
X81987122Y-110490000D01*
X83112878Y-110490000D01*
X84217004Y-110270375D01*
X85257067Y-109839567D01*
X86193100Y-109214130D01*
X86989130Y-108418100D01*
X87614567Y-107482067D01*
X88045375Y-106442004D01*
X88265000Y-105337878D01*
X88265000Y-104212122D01*
X89535000Y-104212122D01*
X89535000Y-105337878D01*
X89754625Y-106442004D01*
X90185433Y-107482067D01*
X90810870Y-108418100D01*
X91606900Y-109214130D01*
X92542933Y-109839567D01*
X93582996Y-110270375D01*
X94687122Y-110490000D01*
X95812878Y-110490000D01*
X96917004Y-110270375D01*
X97957067Y-109839567D01*
X98893100Y-109214130D01*
X99689130Y-108418100D01*
X100314567Y-107482067D01*
X100745375Y-106442004D01*
X100965000Y-105337878D01*
X100965000Y-104212122D01*
X102235000Y-104212122D01*
X102235000Y-105337878D01*
X102454625Y-106442004D01*
X102885433Y-107482067D01*
X103510870Y-108418100D01*
X104306900Y-109214130D01*
X105242933Y-109839567D01*
X106282996Y-110270375D01*
X107387122Y-110490000D01*
X108512878Y-110490000D01*
X109617004Y-110270375D01*
X110657067Y-109839567D01*
X111593100Y-109214130D01*
X112389130Y-108418100D01*
X113014567Y-107482067D01*
X113445375Y-106442004D01*
X113665000Y-105337878D01*
X113665000Y-104212122D01*
X114935000Y-104212122D01*
X114935000Y-105337878D01*
X115154625Y-106442004D01*
X115585433Y-107482067D01*
X116210870Y-108418100D01*
X117006900Y-109214130D01*
X117942933Y-109839567D01*
X118982996Y-110270375D01*
X120087122Y-110490000D01*
X121212878Y-110490000D01*
X122317004Y-110270375D01*
X123357067Y-109839567D01*
X124293100Y-109214130D01*
X125089130Y-108418100D01*
X125714567Y-107482067D01*
X126145375Y-106442004D01*
X126365000Y-105337878D01*
X126365000Y-104212122D01*
X127635000Y-104212122D01*
X127635000Y-105337878D01*
X127854625Y-106442004D01*
X128285433Y-107482067D01*
X128910870Y-108418100D01*
X129706900Y-109214130D01*
X130642933Y-109839567D01*
X131682996Y-110270375D01*
X132787122Y-110490000D01*
X133912878Y-110490000D01*
X135017004Y-110270375D01*
X136057067Y-109839567D01*
X136993100Y-109214130D01*
X137789130Y-108418100D01*
X138414567Y-107482067D01*
X138845375Y-106442004D01*
X139065000Y-105337878D01*
X139065000Y-104212122D01*
X140335000Y-104212122D01*
X140335000Y-105337878D01*
X140554625Y-106442004D01*
X140985433Y-107482067D01*
X141610870Y-108418100D01*
X142406900Y-109214130D01*
X143342933Y-109839567D01*
X144382996Y-110270375D01*
X145487122Y-110490000D01*
X146612878Y-110490000D01*
X147717004Y-110270375D01*
X148757067Y-109839567D01*
X149693100Y-109214130D01*
X150489130Y-108418100D01*
X151114567Y-107482067D01*
X151545375Y-106442004D01*
X151765000Y-105337878D01*
X151765000Y-104212122D01*
X153035000Y-104212122D01*
X153035000Y-105337878D01*
X153254625Y-106442004D01*
X153685433Y-107482067D01*
X154310870Y-108418100D01*
X155106900Y-109214130D01*
X156042933Y-109839567D01*
X157082996Y-110270375D01*
X158187122Y-110490000D01*
X159312878Y-110490000D01*
X160417004Y-110270375D01*
X161457067Y-109839567D01*
X162393100Y-109214130D01*
X163189130Y-108418100D01*
X163814567Y-107482067D01*
X164245375Y-106442004D01*
X164368130Y-105824872D01*
X170485000Y-105824872D01*
X170485000Y-106265128D01*
X170570890Y-106696925D01*
X170739369Y-107103669D01*
X170983962Y-107469729D01*
X171295271Y-107781038D01*
X171661331Y-108025631D01*
X172068075Y-108194110D01*
X172499872Y-108280000D01*
X172940128Y-108280000D01*
X173371925Y-108194110D01*
X173778669Y-108025631D01*
X174144729Y-107781038D01*
X174456038Y-107469729D01*
X174700631Y-107103669D01*
X174869110Y-106696925D01*
X174955000Y-106265128D01*
X174955000Y-105824872D01*
X174869110Y-105393075D01*
X174700631Y-104986331D01*
X174456038Y-104620271D01*
X174144729Y-104308962D01*
X173778669Y-104064369D01*
X173371925Y-103895890D01*
X172940128Y-103810000D01*
X172499872Y-103810000D01*
X172068075Y-103895890D01*
X171661331Y-104064369D01*
X171295271Y-104308962D01*
X170983962Y-104620271D01*
X170739369Y-104986331D01*
X170570890Y-105393075D01*
X170485000Y-105824872D01*
X164368130Y-105824872D01*
X164465000Y-105337878D01*
X164465000Y-104212122D01*
X164245375Y-103107996D01*
X163814567Y-102067933D01*
X163189130Y-101131900D01*
X162393100Y-100335870D01*
X161457067Y-99710433D01*
X160417004Y-99279625D01*
X159312878Y-99060000D01*
X158187122Y-99060000D01*
X157082996Y-99279625D01*
X156042933Y-99710433D01*
X155106900Y-100335870D01*
X154310870Y-101131900D01*
X153685433Y-102067933D01*
X153254625Y-103107996D01*
X153035000Y-104212122D01*
X151765000Y-104212122D01*
X151545375Y-103107996D01*
X151114567Y-102067933D01*
X150489130Y-101131900D01*
X149693100Y-100335870D01*
X148757067Y-99710433D01*
X147717004Y-99279625D01*
X146612878Y-99060000D01*
X145487122Y-99060000D01*
X144382996Y-99279625D01*
X143342933Y-99710433D01*
X142406900Y-100335870D01*
X141610870Y-101131900D01*
X140985433Y-102067933D01*
X140554625Y-103107996D01*
X140335000Y-104212122D01*
X139065000Y-104212122D01*
X138845375Y-103107996D01*
X138414567Y-102067933D01*
X137789130Y-101131900D01*
X136993100Y-100335870D01*
X136057067Y-99710433D01*
X135017004Y-99279625D01*
X133912878Y-99060000D01*
X132787122Y-99060000D01*
X131682996Y-99279625D01*
X130642933Y-99710433D01*
X129706900Y-100335870D01*
X128910870Y-101131900D01*
X128285433Y-102067933D01*
X127854625Y-103107996D01*
X127635000Y-104212122D01*
X126365000Y-104212122D01*
X126145375Y-103107996D01*
X125714567Y-102067933D01*
X125089130Y-101131900D01*
X124293100Y-100335870D01*
X123357067Y-99710433D01*
X122317004Y-99279625D01*
X121212878Y-99060000D01*
X120087122Y-99060000D01*
X118982996Y-99279625D01*
X117942933Y-99710433D01*
X117006900Y-100335870D01*
X116210870Y-101131900D01*
X115585433Y-102067933D01*
X115154625Y-103107996D01*
X114935000Y-104212122D01*
X113665000Y-104212122D01*
X113445375Y-103107996D01*
X113014567Y-102067933D01*
X112389130Y-101131900D01*
X111593100Y-100335870D01*
X110657067Y-99710433D01*
X109617004Y-99279625D01*
X108512878Y-99060000D01*
X107387122Y-99060000D01*
X106282996Y-99279625D01*
X105242933Y-99710433D01*
X104306900Y-100335870D01*
X103510870Y-101131900D01*
X102885433Y-102067933D01*
X102454625Y-103107996D01*
X102235000Y-104212122D01*
X100965000Y-104212122D01*
X100745375Y-103107996D01*
X100314567Y-102067933D01*
X99689130Y-101131900D01*
X98893100Y-100335870D01*
X97957067Y-99710433D01*
X96917004Y-99279625D01*
X95812878Y-99060000D01*
X94687122Y-99060000D01*
X93582996Y-99279625D01*
X92542933Y-99710433D01*
X91606900Y-100335870D01*
X90810870Y-101131900D01*
X90185433Y-102067933D01*
X89754625Y-103107996D01*
X89535000Y-104212122D01*
X88265000Y-104212122D01*
X88045375Y-103107996D01*
X87614567Y-102067933D01*
X86989130Y-101131900D01*
X86193100Y-100335870D01*
X85257067Y-99710433D01*
X84217004Y-99279625D01*
X83112878Y-99060000D01*
X81987122Y-99060000D01*
X80882996Y-99279625D01*
X79842933Y-99710433D01*
X78906900Y-100335870D01*
X78110870Y-101131900D01*
X77485433Y-102067933D01*
X77054625Y-103107996D01*
X76835000Y-104212122D01*
X75565000Y-104212122D01*
X75345375Y-103107996D01*
X74914567Y-102067933D01*
X74289130Y-101131900D01*
X73493100Y-100335870D01*
X72557067Y-99710433D01*
X71517004Y-99279625D01*
X70412878Y-99060000D01*
X69287122Y-99060000D01*
X68182996Y-99279625D01*
X67142933Y-99710433D01*
X66206900Y-100335870D01*
X65410870Y-101131900D01*
X64785433Y-102067933D01*
X64354625Y-103107996D01*
X64135000Y-104212122D01*
X57159798Y-104212122D01*
X56938669Y-104064369D01*
X56531925Y-103895890D01*
X56100128Y-103810000D01*
X55659872Y-103810000D01*
X55228075Y-103895890D01*
X54821331Y-104064369D01*
X54455271Y-104308962D01*
X54143962Y-104620271D01*
X53899369Y-104986331D01*
X53730890Y-105393075D01*
X53645000Y-105824872D01*
X51460000Y-105824872D01*
X51460000Y-85162122D01*
X64135000Y-85162122D01*
X64135000Y-86287878D01*
X64354625Y-87392004D01*
X64785433Y-88432067D01*
X65410870Y-89368100D01*
X66206900Y-90164130D01*
X67142933Y-90789567D01*
X68182996Y-91220375D01*
X69287122Y-91440000D01*
X70412878Y-91440000D01*
X71517004Y-91220375D01*
X72557067Y-90789567D01*
X73493100Y-90164130D01*
X74289130Y-89368100D01*
X74914567Y-88432067D01*
X75345375Y-87392004D01*
X75565000Y-86287878D01*
X75565000Y-85162122D01*
X76835000Y-85162122D01*
X76835000Y-86287878D01*
X77054625Y-87392004D01*
X77485433Y-88432067D01*
X78110870Y-89368100D01*
X78906900Y-90164130D01*
X79842933Y-90789567D01*
X80882996Y-91220375D01*
X81987122Y-91440000D01*
X83112878Y-91440000D01*
X84217004Y-91220375D01*
X85257067Y-90789567D01*
X86193100Y-90164130D01*
X86989130Y-89368100D01*
X87614567Y-88432067D01*
X88045375Y-87392004D01*
X88265000Y-86287878D01*
X88265000Y-85162122D01*
X89535000Y-85162122D01*
X89535000Y-86287878D01*
X89754625Y-87392004D01*
X90185433Y-88432067D01*
X90810870Y-89368100D01*
X91606900Y-90164130D01*
X92542933Y-90789567D01*
X93582996Y-91220375D01*
X94687122Y-91440000D01*
X95812878Y-91440000D01*
X96917004Y-91220375D01*
X97957067Y-90789567D01*
X98893100Y-90164130D01*
X99689130Y-89368100D01*
X100314567Y-88432067D01*
X100745375Y-87392004D01*
X100965000Y-86287878D01*
X100965000Y-85162122D01*
X102235000Y-85162122D01*
X102235000Y-86287878D01*
X102454625Y-87392004D01*
X102885433Y-88432067D01*
X103510870Y-89368100D01*
X104306900Y-90164130D01*
X105242933Y-90789567D01*
X106282996Y-91220375D01*
X107387122Y-91440000D01*
X108512878Y-91440000D01*
X109617004Y-91220375D01*
X110657067Y-90789567D01*
X111593100Y-90164130D01*
X112389130Y-89368100D01*
X113014567Y-88432067D01*
X113445375Y-87392004D01*
X113665000Y-86287878D01*
X113665000Y-85162122D01*
X114935000Y-85162122D01*
X114935000Y-86287878D01*
X115154625Y-87392004D01*
X115585433Y-88432067D01*
X116210870Y-89368100D01*
X117006900Y-90164130D01*
X117942933Y-90789567D01*
X118982996Y-91220375D01*
X120087122Y-91440000D01*
X121212878Y-91440000D01*
X122317004Y-91220375D01*
X123357067Y-90789567D01*
X124293100Y-90164130D01*
X125089130Y-89368100D01*
X125714567Y-88432067D01*
X126145375Y-87392004D01*
X126365000Y-86287878D01*
X126365000Y-85162122D01*
X127635000Y-85162122D01*
X127635000Y-86287878D01*
X127854625Y-87392004D01*
X128285433Y-88432067D01*
X128910870Y-89368100D01*
X129706900Y-90164130D01*
X130642933Y-90789567D01*
X131682996Y-91220375D01*
X132787122Y-91440000D01*
X133912878Y-91440000D01*
X135017004Y-91220375D01*
X136057067Y-90789567D01*
X136993100Y-90164130D01*
X137789130Y-89368100D01*
X138414567Y-88432067D01*
X138845375Y-87392004D01*
X139065000Y-86287878D01*
X139065000Y-85162122D01*
X140335000Y-85162122D01*
X140335000Y-86287878D01*
X140554625Y-87392004D01*
X140985433Y-88432067D01*
X141610870Y-89368100D01*
X142406900Y-90164130D01*
X143342933Y-90789567D01*
X144382996Y-91220375D01*
X145487122Y-91440000D01*
X146612878Y-91440000D01*
X147717004Y-91220375D01*
X148757067Y-90789567D01*
X149693100Y-90164130D01*
X150489130Y-89368100D01*
X151114567Y-88432067D01*
X151545375Y-87392004D01*
X151765000Y-86287878D01*
X151765000Y-85162122D01*
X153035000Y-85162122D01*
X153035000Y-86287878D01*
X153254625Y-87392004D01*
X153685433Y-88432067D01*
X154310870Y-89368100D01*
X155106900Y-90164130D01*
X156042933Y-90789567D01*
X157082996Y-91220375D01*
X158187122Y-91440000D01*
X159312878Y-91440000D01*
X160417004Y-91220375D01*
X161457067Y-90789567D01*
X162393100Y-90164130D01*
X163189130Y-89368100D01*
X163814567Y-88432067D01*
X164245375Y-87392004D01*
X164465000Y-86287878D01*
X164465000Y-85162122D01*
X164245375Y-84057996D01*
X163814567Y-83017933D01*
X163582086Y-82670000D01*
X169936928Y-82670000D01*
X169949188Y-82794482D01*
X169985498Y-82914180D01*
X170044463Y-83024494D01*
X170123815Y-83121185D01*
X170220506Y-83200537D01*
X170330820Y-83259502D01*
X170450518Y-83295812D01*
X170575000Y-83308072D01*
X171164250Y-83305000D01*
X171323000Y-83146250D01*
X171323000Y-82172000D01*
X171577000Y-82172000D01*
X171577000Y-83146250D01*
X171735750Y-83305000D01*
X172325000Y-83308072D01*
X172449482Y-83295812D01*
X172569180Y-83259502D01*
X172679494Y-83200537D01*
X172776185Y-83121185D01*
X172855537Y-83024494D01*
X172914502Y-82914180D01*
X172950812Y-82794482D01*
X172963072Y-82670000D01*
X172960000Y-82330750D01*
X172801250Y-82172000D01*
X171577000Y-82172000D01*
X171323000Y-82172000D01*
X170098750Y-82172000D01*
X169940000Y-82330750D01*
X169936928Y-82670000D01*
X163582086Y-82670000D01*
X163189130Y-82081900D01*
X162527230Y-81420000D01*
X169936928Y-81420000D01*
X169940000Y-81759250D01*
X170098750Y-81918000D01*
X171323000Y-81918000D01*
X171323000Y-80943750D01*
X171577000Y-80943750D01*
X171577000Y-81918000D01*
X172801250Y-81918000D01*
X172960000Y-81759250D01*
X172963072Y-81420000D01*
X172950812Y-81295518D01*
X172914502Y-81175820D01*
X172855537Y-81065506D01*
X172776185Y-80968815D01*
X172679494Y-80889463D01*
X172569180Y-80830498D01*
X172449482Y-80794188D01*
X172325000Y-80781928D01*
X171735750Y-80785000D01*
X171577000Y-80943750D01*
X171323000Y-80943750D01*
X171164250Y-80785000D01*
X170575000Y-80781928D01*
X170450518Y-80794188D01*
X170330820Y-80830498D01*
X170220506Y-80889463D01*
X170123815Y-80968815D01*
X170044463Y-81065506D01*
X169985498Y-81175820D01*
X169949188Y-81295518D01*
X169936928Y-81420000D01*
X162527230Y-81420000D01*
X162393100Y-81285870D01*
X161457067Y-80660433D01*
X160417004Y-80229625D01*
X159312878Y-80010000D01*
X158187122Y-80010000D01*
X157082996Y-80229625D01*
X156042933Y-80660433D01*
X155106900Y-81285870D01*
X154310870Y-82081900D01*
X153685433Y-83017933D01*
X153254625Y-84057996D01*
X153035000Y-85162122D01*
X151765000Y-85162122D01*
X151545375Y-84057996D01*
X151114567Y-83017933D01*
X150489130Y-82081900D01*
X149693100Y-81285870D01*
X148757067Y-80660433D01*
X147717004Y-80229625D01*
X146612878Y-80010000D01*
X145487122Y-80010000D01*
X144382996Y-80229625D01*
X143342933Y-80660433D01*
X142406900Y-81285870D01*
X141610870Y-82081900D01*
X140985433Y-83017933D01*
X140554625Y-84057996D01*
X140335000Y-85162122D01*
X139065000Y-85162122D01*
X138845375Y-84057996D01*
X138414567Y-83017933D01*
X137789130Y-82081900D01*
X136993100Y-81285870D01*
X136057067Y-80660433D01*
X135017004Y-80229625D01*
X133912878Y-80010000D01*
X132787122Y-80010000D01*
X131682996Y-80229625D01*
X130642933Y-80660433D01*
X129706900Y-81285870D01*
X128910870Y-82081900D01*
X128285433Y-83017933D01*
X127854625Y-84057996D01*
X127635000Y-85162122D01*
X126365000Y-85162122D01*
X126145375Y-84057996D01*
X125714567Y-83017933D01*
X125089130Y-82081900D01*
X124293100Y-81285870D01*
X123357067Y-80660433D01*
X122317004Y-80229625D01*
X121212878Y-80010000D01*
X120087122Y-80010000D01*
X118982996Y-80229625D01*
X117942933Y-80660433D01*
X117006900Y-81285870D01*
X116210870Y-82081900D01*
X115585433Y-83017933D01*
X115154625Y-84057996D01*
X114935000Y-85162122D01*
X113665000Y-85162122D01*
X113445375Y-84057996D01*
X113014567Y-83017933D01*
X112389130Y-82081900D01*
X111593100Y-81285870D01*
X110657067Y-80660433D01*
X109617004Y-80229625D01*
X108512878Y-80010000D01*
X107387122Y-80010000D01*
X106282996Y-80229625D01*
X105242933Y-80660433D01*
X104306900Y-81285870D01*
X103510870Y-82081900D01*
X102885433Y-83017933D01*
X102454625Y-84057996D01*
X102235000Y-85162122D01*
X100965000Y-85162122D01*
X100745375Y-84057996D01*
X100314567Y-83017933D01*
X99689130Y-82081900D01*
X98893100Y-81285870D01*
X97957067Y-80660433D01*
X96917004Y-80229625D01*
X95812878Y-80010000D01*
X94687122Y-80010000D01*
X93582996Y-80229625D01*
X92542933Y-80660433D01*
X91606900Y-81285870D01*
X90810870Y-82081900D01*
X90185433Y-83017933D01*
X89754625Y-84057996D01*
X89535000Y-85162122D01*
X88265000Y-85162122D01*
X88045375Y-84057996D01*
X87614567Y-83017933D01*
X86989130Y-82081900D01*
X86193100Y-81285870D01*
X85257067Y-80660433D01*
X84217004Y-80229625D01*
X83112878Y-80010000D01*
X81987122Y-80010000D01*
X80882996Y-80229625D01*
X79842933Y-80660433D01*
X78906900Y-81285870D01*
X78110870Y-82081900D01*
X77485433Y-83017933D01*
X77054625Y-84057996D01*
X76835000Y-85162122D01*
X75565000Y-85162122D01*
X75345375Y-84057996D01*
X74914567Y-83017933D01*
X74289130Y-82081900D01*
X73493100Y-81285870D01*
X72557067Y-80660433D01*
X71517004Y-80229625D01*
X70412878Y-80010000D01*
X69287122Y-80010000D01*
X68182996Y-80229625D01*
X67142933Y-80660433D01*
X66206900Y-81285870D01*
X65410870Y-82081900D01*
X64785433Y-83017933D01*
X64354625Y-84057996D01*
X64135000Y-85162122D01*
X51460000Y-85162122D01*
X51460000Y-75350000D01*
X63281928Y-75350000D01*
X63281928Y-77050000D01*
X63294188Y-77174482D01*
X63330498Y-77294180D01*
X63389463Y-77404494D01*
X63468815Y-77501185D01*
X63565506Y-77580537D01*
X63675820Y-77639502D01*
X63795518Y-77675812D01*
X63920000Y-77688072D01*
X65620000Y-77688072D01*
X65744482Y-77675812D01*
X65864180Y-77639502D01*
X65974494Y-77580537D01*
X66071185Y-77501185D01*
X66150537Y-77404494D01*
X66209502Y-77294180D01*
X66231513Y-77221620D01*
X66363368Y-77353475D01*
X66606589Y-77515990D01*
X66876842Y-77627932D01*
X67163740Y-77685000D01*
X67456260Y-77685000D01*
X67743158Y-77627932D01*
X68013411Y-77515990D01*
X68256632Y-77353475D01*
X68463475Y-77146632D01*
X68585195Y-76964466D01*
X68654822Y-77081355D01*
X68849731Y-77297588D01*
X69083080Y-77471641D01*
X69345901Y-77596825D01*
X69493110Y-77641476D01*
X69723000Y-77520155D01*
X69723000Y-76327000D01*
X69703000Y-76327000D01*
X69703000Y-76073000D01*
X69723000Y-76073000D01*
X69723000Y-74879845D01*
X69493110Y-74758524D01*
X69345901Y-74803175D01*
X69083080Y-74928359D01*
X68849731Y-75102412D01*
X68654822Y-75318645D01*
X68585195Y-75435534D01*
X68463475Y-75253368D01*
X68326000Y-75115893D01*
X68326000Y-74344902D01*
X68330915Y-74295000D01*
X68311298Y-74095829D01*
X68253202Y-73904313D01*
X68252539Y-73903072D01*
X68580000Y-73903072D01*
X68753254Y-73886008D01*
X68919850Y-73835472D01*
X69073386Y-73753405D01*
X69207962Y-73642962D01*
X69318405Y-73508386D01*
X69373132Y-73406000D01*
X70326868Y-73406000D01*
X70381595Y-73508386D01*
X70492038Y-73642962D01*
X70626614Y-73753405D01*
X70780150Y-73835472D01*
X70946746Y-73886008D01*
X71120000Y-73903072D01*
X71447462Y-73903072D01*
X71446799Y-73904313D01*
X71388702Y-74095830D01*
X71369085Y-74295000D01*
X71374001Y-74344911D01*
X71374001Y-75115892D01*
X71236525Y-75253368D01*
X71114805Y-75435534D01*
X71045178Y-75318645D01*
X70850269Y-75102412D01*
X70616920Y-74928359D01*
X70354099Y-74803175D01*
X70206890Y-74758524D01*
X69977000Y-74879845D01*
X69977000Y-76073000D01*
X69997000Y-76073000D01*
X69997000Y-76327000D01*
X69977000Y-76327000D01*
X69977000Y-77520155D01*
X70206890Y-77641476D01*
X70354099Y-77596825D01*
X70616920Y-77471641D01*
X70850269Y-77297588D01*
X71045178Y-77081355D01*
X71114805Y-76964466D01*
X71236525Y-77146632D01*
X71443368Y-77353475D01*
X71686589Y-77515990D01*
X71956842Y-77627932D01*
X72243740Y-77685000D01*
X72536260Y-77685000D01*
X72823158Y-77627932D01*
X73093411Y-77515990D01*
X73336632Y-77353475D01*
X73543475Y-77146632D01*
X73660000Y-76972240D01*
X73776525Y-77146632D01*
X73983368Y-77353475D01*
X74226589Y-77515990D01*
X74496842Y-77627932D01*
X74783740Y-77685000D01*
X75076260Y-77685000D01*
X75363158Y-77627932D01*
X75633411Y-77515990D01*
X75876632Y-77353475D01*
X76083475Y-77146632D01*
X76200000Y-76972240D01*
X76316525Y-77146632D01*
X76523368Y-77353475D01*
X76766589Y-77515990D01*
X77036842Y-77627932D01*
X77323740Y-77685000D01*
X77616260Y-77685000D01*
X77903158Y-77627932D01*
X78173411Y-77515990D01*
X78416632Y-77353475D01*
X78623475Y-77146632D01*
X78740000Y-76972240D01*
X78856525Y-77146632D01*
X79063368Y-77353475D01*
X79306589Y-77515990D01*
X79576842Y-77627932D01*
X79863740Y-77685000D01*
X80156260Y-77685000D01*
X80443158Y-77627932D01*
X80713411Y-77515990D01*
X80956632Y-77353475D01*
X81163475Y-77146632D01*
X81285195Y-76964466D01*
X81354822Y-77081355D01*
X81549731Y-77297588D01*
X81783080Y-77471641D01*
X82045901Y-77596825D01*
X82193110Y-77641476D01*
X82423000Y-77520155D01*
X82423000Y-76327000D01*
X82403000Y-76327000D01*
X82403000Y-76073000D01*
X82423000Y-76073000D01*
X82423000Y-74879845D01*
X82193110Y-74758524D01*
X82045901Y-74803175D01*
X81783080Y-74928359D01*
X81549731Y-75102412D01*
X81354822Y-75318645D01*
X81285195Y-75435534D01*
X81163475Y-75253368D01*
X81026000Y-75115893D01*
X81026000Y-74474902D01*
X81030915Y-74425000D01*
X81011298Y-74225829D01*
X80953202Y-74034313D01*
X80883053Y-73903072D01*
X81150000Y-73903072D01*
X81323254Y-73886008D01*
X81489850Y-73835472D01*
X81643386Y-73753405D01*
X81777962Y-73642962D01*
X81888405Y-73508386D01*
X81943132Y-73406000D01*
X83156868Y-73406000D01*
X83211595Y-73508386D01*
X83322038Y-73642962D01*
X83456614Y-73753405D01*
X83610150Y-73835472D01*
X83776746Y-73886008D01*
X83950000Y-73903072D01*
X84216948Y-73903072D01*
X84216285Y-73904313D01*
X84146799Y-74034313D01*
X84088702Y-74225830D01*
X84069085Y-74425000D01*
X84074001Y-74474911D01*
X84074001Y-75115892D01*
X83936525Y-75253368D01*
X83814805Y-75435534D01*
X83745178Y-75318645D01*
X83550269Y-75102412D01*
X83316920Y-74928359D01*
X83054099Y-74803175D01*
X82906890Y-74758524D01*
X82677000Y-74879845D01*
X82677000Y-76073000D01*
X82697000Y-76073000D01*
X82697000Y-76327000D01*
X82677000Y-76327000D01*
X82677000Y-77520155D01*
X82906890Y-77641476D01*
X83054099Y-77596825D01*
X83316920Y-77471641D01*
X83550269Y-77297588D01*
X83745178Y-77081355D01*
X83814805Y-76964466D01*
X83936525Y-77146632D01*
X84143368Y-77353475D01*
X84386589Y-77515990D01*
X84656842Y-77627932D01*
X84943740Y-77685000D01*
X85236260Y-77685000D01*
X85523158Y-77627932D01*
X85793411Y-77515990D01*
X86036632Y-77353475D01*
X86243475Y-77146632D01*
X86360000Y-76972240D01*
X86476525Y-77146632D01*
X86683368Y-77353475D01*
X86926589Y-77515990D01*
X87196842Y-77627932D01*
X87483740Y-77685000D01*
X87776260Y-77685000D01*
X88063158Y-77627932D01*
X88333411Y-77515990D01*
X88576632Y-77353475D01*
X88783475Y-77146632D01*
X88900000Y-76972240D01*
X89016525Y-77146632D01*
X89223368Y-77353475D01*
X89466589Y-77515990D01*
X89736842Y-77627932D01*
X90023740Y-77685000D01*
X90316260Y-77685000D01*
X90603158Y-77627932D01*
X90873411Y-77515990D01*
X91116632Y-77353475D01*
X91323475Y-77146632D01*
X91440000Y-76972240D01*
X91556525Y-77146632D01*
X91763368Y-77353475D01*
X92006589Y-77515990D01*
X92276842Y-77627932D01*
X92563740Y-77685000D01*
X92856260Y-77685000D01*
X93143158Y-77627932D01*
X93413411Y-77515990D01*
X93656632Y-77353475D01*
X93863475Y-77146632D01*
X93985195Y-76964466D01*
X94054822Y-77081355D01*
X94249731Y-77297588D01*
X94483080Y-77471641D01*
X94745901Y-77596825D01*
X94893110Y-77641476D01*
X95123000Y-77520155D01*
X95123000Y-76327000D01*
X95103000Y-76327000D01*
X95103000Y-76073000D01*
X95123000Y-76073000D01*
X95123000Y-74879845D01*
X94893110Y-74758524D01*
X94745901Y-74803175D01*
X94483080Y-74928359D01*
X94249731Y-75102412D01*
X94054822Y-75318645D01*
X93985195Y-75435534D01*
X93863475Y-75253368D01*
X93726000Y-75115893D01*
X93726000Y-74474902D01*
X93730915Y-74425000D01*
X93711298Y-74225829D01*
X93653202Y-74034313D01*
X93583053Y-73903072D01*
X93850000Y-73903072D01*
X94023254Y-73886008D01*
X94189850Y-73835472D01*
X94343386Y-73753405D01*
X94477962Y-73642962D01*
X94588405Y-73508386D01*
X94643132Y-73406000D01*
X95726868Y-73406000D01*
X95781595Y-73508386D01*
X95892038Y-73642962D01*
X96026614Y-73753405D01*
X96180150Y-73835472D01*
X96346746Y-73886008D01*
X96520000Y-73903072D01*
X96847462Y-73903072D01*
X96846799Y-73904313D01*
X96788702Y-74095830D01*
X96769085Y-74295000D01*
X96774001Y-74344911D01*
X96774001Y-75115892D01*
X96636525Y-75253368D01*
X96514805Y-75435534D01*
X96445178Y-75318645D01*
X96250269Y-75102412D01*
X96016920Y-74928359D01*
X95754099Y-74803175D01*
X95606890Y-74758524D01*
X95377000Y-74879845D01*
X95377000Y-76073000D01*
X95397000Y-76073000D01*
X95397000Y-76327000D01*
X95377000Y-76327000D01*
X95377000Y-77520155D01*
X95606890Y-77641476D01*
X95754099Y-77596825D01*
X96016920Y-77471641D01*
X96250269Y-77297588D01*
X96445178Y-77081355D01*
X96514805Y-76964466D01*
X96636525Y-77146632D01*
X96843368Y-77353475D01*
X97086589Y-77515990D01*
X97356842Y-77627932D01*
X97643740Y-77685000D01*
X97936260Y-77685000D01*
X98223158Y-77627932D01*
X98493411Y-77515990D01*
X98736632Y-77353475D01*
X98943475Y-77146632D01*
X99060000Y-76972240D01*
X99176525Y-77146632D01*
X99383368Y-77353475D01*
X99626589Y-77515990D01*
X99896842Y-77627932D01*
X100183740Y-77685000D01*
X100476260Y-77685000D01*
X100763158Y-77627932D01*
X101033411Y-77515990D01*
X101276632Y-77353475D01*
X101483475Y-77146632D01*
X101600000Y-76972240D01*
X101716525Y-77146632D01*
X101923368Y-77353475D01*
X102166589Y-77515990D01*
X102436842Y-77627932D01*
X102723740Y-77685000D01*
X103016260Y-77685000D01*
X103303158Y-77627932D01*
X103573411Y-77515990D01*
X103816632Y-77353475D01*
X104023475Y-77146632D01*
X104140000Y-76972240D01*
X104256525Y-77146632D01*
X104463368Y-77353475D01*
X104706589Y-77515990D01*
X104976842Y-77627932D01*
X105263740Y-77685000D01*
X105556260Y-77685000D01*
X105843158Y-77627932D01*
X106113411Y-77515990D01*
X106356632Y-77353475D01*
X106563475Y-77146632D01*
X106685195Y-76964466D01*
X106754822Y-77081355D01*
X106949731Y-77297588D01*
X107183080Y-77471641D01*
X107445901Y-77596825D01*
X107593110Y-77641476D01*
X107823000Y-77520155D01*
X107823000Y-76327000D01*
X107803000Y-76327000D01*
X107803000Y-76073000D01*
X107823000Y-76073000D01*
X107823000Y-74879845D01*
X107593110Y-74758524D01*
X107445901Y-74803175D01*
X107183080Y-74928359D01*
X106949731Y-75102412D01*
X106754822Y-75318645D01*
X106685195Y-75435534D01*
X106563475Y-75253368D01*
X106426000Y-75115893D01*
X106426000Y-74474902D01*
X106430915Y-74425000D01*
X106411298Y-74225829D01*
X106353202Y-74034313D01*
X106283053Y-73903072D01*
X106550000Y-73903072D01*
X106723254Y-73886008D01*
X106889850Y-73835472D01*
X107043386Y-73753405D01*
X107177962Y-73642962D01*
X107288405Y-73508386D01*
X107343132Y-73406000D01*
X108556868Y-73406000D01*
X108611595Y-73508386D01*
X108722038Y-73642962D01*
X108856614Y-73753405D01*
X109010150Y-73835472D01*
X109176746Y-73886008D01*
X109350000Y-73903072D01*
X109616948Y-73903072D01*
X109616285Y-73904313D01*
X109546799Y-74034313D01*
X109488702Y-74225830D01*
X109469085Y-74425000D01*
X109474001Y-74474911D01*
X109474001Y-75115892D01*
X109336525Y-75253368D01*
X109214805Y-75435534D01*
X109145178Y-75318645D01*
X108950269Y-75102412D01*
X108716920Y-74928359D01*
X108454099Y-74803175D01*
X108306890Y-74758524D01*
X108077000Y-74879845D01*
X108077000Y-76073000D01*
X108097000Y-76073000D01*
X108097000Y-76327000D01*
X108077000Y-76327000D01*
X108077000Y-77520155D01*
X108306890Y-77641476D01*
X108454099Y-77596825D01*
X108716920Y-77471641D01*
X108950269Y-77297588D01*
X109145178Y-77081355D01*
X109214805Y-76964466D01*
X109336525Y-77146632D01*
X109543368Y-77353475D01*
X109786589Y-77515990D01*
X110056842Y-77627932D01*
X110343740Y-77685000D01*
X110636260Y-77685000D01*
X110923158Y-77627932D01*
X111193411Y-77515990D01*
X111436632Y-77353475D01*
X111643475Y-77146632D01*
X111760000Y-76972240D01*
X111876525Y-77146632D01*
X112083368Y-77353475D01*
X112326589Y-77515990D01*
X112596842Y-77627932D01*
X112883740Y-77685000D01*
X113176260Y-77685000D01*
X113463158Y-77627932D01*
X113733411Y-77515990D01*
X113976632Y-77353475D01*
X114183475Y-77146632D01*
X114300000Y-76972240D01*
X114416525Y-77146632D01*
X114623368Y-77353475D01*
X114866589Y-77515990D01*
X115136842Y-77627932D01*
X115423740Y-77685000D01*
X115716260Y-77685000D01*
X116003158Y-77627932D01*
X116273411Y-77515990D01*
X116516632Y-77353475D01*
X116723475Y-77146632D01*
X116840000Y-76972240D01*
X116956525Y-77146632D01*
X117163368Y-77353475D01*
X117406589Y-77515990D01*
X117676842Y-77627932D01*
X117963740Y-77685000D01*
X118256260Y-77685000D01*
X118543158Y-77627932D01*
X118813411Y-77515990D01*
X119056632Y-77353475D01*
X119263475Y-77146632D01*
X119385195Y-76964466D01*
X119454822Y-77081355D01*
X119649731Y-77297588D01*
X119883080Y-77471641D01*
X120145901Y-77596825D01*
X120293110Y-77641476D01*
X120523000Y-77520155D01*
X120523000Y-76327000D01*
X120503000Y-76327000D01*
X120503000Y-76073000D01*
X120523000Y-76073000D01*
X120523000Y-74879845D01*
X120293110Y-74758524D01*
X120145901Y-74803175D01*
X119883080Y-74928359D01*
X119649731Y-75102412D01*
X119454822Y-75318645D01*
X119385195Y-75435534D01*
X119263475Y-75253368D01*
X119126000Y-75115893D01*
X119126000Y-74474902D01*
X119130915Y-74425000D01*
X119111298Y-74225829D01*
X119053202Y-74034313D01*
X118983053Y-73903072D01*
X119250000Y-73903072D01*
X119423254Y-73886008D01*
X119589850Y-73835472D01*
X119743386Y-73753405D01*
X119877962Y-73642962D01*
X119988405Y-73508386D01*
X120043132Y-73406000D01*
X121256868Y-73406000D01*
X121311595Y-73508386D01*
X121422038Y-73642962D01*
X121556614Y-73753405D01*
X121710150Y-73835472D01*
X121876746Y-73886008D01*
X122050000Y-73903072D01*
X122316948Y-73903072D01*
X122316285Y-73904313D01*
X122246799Y-74034313D01*
X122188702Y-74225830D01*
X122169085Y-74425000D01*
X122174001Y-74474911D01*
X122174001Y-75115892D01*
X122036525Y-75253368D01*
X121914805Y-75435534D01*
X121845178Y-75318645D01*
X121650269Y-75102412D01*
X121416920Y-74928359D01*
X121154099Y-74803175D01*
X121006890Y-74758524D01*
X120777000Y-74879845D01*
X120777000Y-76073000D01*
X120797000Y-76073000D01*
X120797000Y-76327000D01*
X120777000Y-76327000D01*
X120777000Y-77520155D01*
X121006890Y-77641476D01*
X121154099Y-77596825D01*
X121416920Y-77471641D01*
X121650269Y-77297588D01*
X121845178Y-77081355D01*
X121914805Y-76964466D01*
X122036525Y-77146632D01*
X122243368Y-77353475D01*
X122486589Y-77515990D01*
X122756842Y-77627932D01*
X123043740Y-77685000D01*
X123336260Y-77685000D01*
X123623158Y-77627932D01*
X123893411Y-77515990D01*
X124136632Y-77353475D01*
X124343475Y-77146632D01*
X124460000Y-76972240D01*
X124576525Y-77146632D01*
X124783368Y-77353475D01*
X125026589Y-77515990D01*
X125296842Y-77627932D01*
X125583740Y-77685000D01*
X125876260Y-77685000D01*
X126163158Y-77627932D01*
X126433411Y-77515990D01*
X126676632Y-77353475D01*
X126883475Y-77146632D01*
X127000000Y-76972240D01*
X127116525Y-77146632D01*
X127323368Y-77353475D01*
X127566589Y-77515990D01*
X127836842Y-77627932D01*
X128123740Y-77685000D01*
X128416260Y-77685000D01*
X128703158Y-77627932D01*
X128973411Y-77515990D01*
X129216632Y-77353475D01*
X129423475Y-77146632D01*
X129540000Y-76972240D01*
X129656525Y-77146632D01*
X129863368Y-77353475D01*
X130106589Y-77515990D01*
X130376842Y-77627932D01*
X130663740Y-77685000D01*
X130956260Y-77685000D01*
X131243158Y-77627932D01*
X131513411Y-77515990D01*
X131756632Y-77353475D01*
X131963475Y-77146632D01*
X132085195Y-76964466D01*
X132154822Y-77081355D01*
X132349731Y-77297588D01*
X132583080Y-77471641D01*
X132845901Y-77596825D01*
X132993110Y-77641476D01*
X133223000Y-77520155D01*
X133223000Y-76327000D01*
X133203000Y-76327000D01*
X133203000Y-76073000D01*
X133223000Y-76073000D01*
X133223000Y-74879845D01*
X132993110Y-74758524D01*
X132845901Y-74803175D01*
X132583080Y-74928359D01*
X132349731Y-75102412D01*
X132154822Y-75318645D01*
X132085195Y-75435534D01*
X131963475Y-75253368D01*
X131826000Y-75115893D01*
X131826000Y-74474902D01*
X131830915Y-74425000D01*
X131811298Y-74225829D01*
X131753202Y-74034313D01*
X131683053Y-73903072D01*
X131950000Y-73903072D01*
X132123254Y-73886008D01*
X132289850Y-73835472D01*
X132443386Y-73753405D01*
X132577962Y-73642962D01*
X132688405Y-73508386D01*
X132743132Y-73406000D01*
X133956868Y-73406000D01*
X134011595Y-73508386D01*
X134122038Y-73642962D01*
X134256614Y-73753405D01*
X134410150Y-73835472D01*
X134576746Y-73886008D01*
X134750000Y-73903072D01*
X135016948Y-73903072D01*
X135016285Y-73904313D01*
X134946799Y-74034313D01*
X134888702Y-74225830D01*
X134869085Y-74425000D01*
X134874001Y-74474911D01*
X134874001Y-75115892D01*
X134736525Y-75253368D01*
X134614805Y-75435534D01*
X134545178Y-75318645D01*
X134350269Y-75102412D01*
X134116920Y-74928359D01*
X133854099Y-74803175D01*
X133706890Y-74758524D01*
X133477000Y-74879845D01*
X133477000Y-76073000D01*
X133497000Y-76073000D01*
X133497000Y-76327000D01*
X133477000Y-76327000D01*
X133477000Y-77520155D01*
X133706890Y-77641476D01*
X133854099Y-77596825D01*
X134116920Y-77471641D01*
X134350269Y-77297588D01*
X134545178Y-77081355D01*
X134614805Y-76964466D01*
X134736525Y-77146632D01*
X134943368Y-77353475D01*
X135186589Y-77515990D01*
X135456842Y-77627932D01*
X135743740Y-77685000D01*
X136036260Y-77685000D01*
X136323158Y-77627932D01*
X136593411Y-77515990D01*
X136836632Y-77353475D01*
X137043475Y-77146632D01*
X137160000Y-76972240D01*
X137276525Y-77146632D01*
X137483368Y-77353475D01*
X137726589Y-77515990D01*
X137996842Y-77627932D01*
X138283740Y-77685000D01*
X138576260Y-77685000D01*
X138863158Y-77627932D01*
X139133411Y-77515990D01*
X139376632Y-77353475D01*
X139583475Y-77146632D01*
X139700000Y-76972240D01*
X139816525Y-77146632D01*
X140023368Y-77353475D01*
X140266589Y-77515990D01*
X140536842Y-77627932D01*
X140823740Y-77685000D01*
X141116260Y-77685000D01*
X141403158Y-77627932D01*
X141673411Y-77515990D01*
X141916632Y-77353475D01*
X142123475Y-77146632D01*
X142240000Y-76972240D01*
X142356525Y-77146632D01*
X142563368Y-77353475D01*
X142806589Y-77515990D01*
X143076842Y-77627932D01*
X143363740Y-77685000D01*
X143656260Y-77685000D01*
X143943158Y-77627932D01*
X144213411Y-77515990D01*
X144456632Y-77353475D01*
X144663475Y-77146632D01*
X144785195Y-76964466D01*
X144854822Y-77081355D01*
X145049731Y-77297588D01*
X145283080Y-77471641D01*
X145545901Y-77596825D01*
X145693110Y-77641476D01*
X145923000Y-77520155D01*
X145923000Y-76327000D01*
X145903000Y-76327000D01*
X145903000Y-76073000D01*
X145923000Y-76073000D01*
X145923000Y-74879845D01*
X145693110Y-74758524D01*
X145545901Y-74803175D01*
X145283080Y-74928359D01*
X145049731Y-75102412D01*
X144854822Y-75318645D01*
X144785195Y-75435534D01*
X144663475Y-75253368D01*
X144526000Y-75115893D01*
X144526000Y-74474902D01*
X144530915Y-74425000D01*
X144511298Y-74225829D01*
X144453202Y-74034313D01*
X144383053Y-73903072D01*
X144650000Y-73903072D01*
X144823254Y-73886008D01*
X144989850Y-73835472D01*
X145143386Y-73753405D01*
X145277962Y-73642962D01*
X145388405Y-73508386D01*
X145443132Y-73406000D01*
X146786868Y-73406000D01*
X146841595Y-73508386D01*
X146952038Y-73642962D01*
X147086614Y-73753405D01*
X147240150Y-73835472D01*
X147406746Y-73886008D01*
X147580000Y-73903072D01*
X147810684Y-73903072D01*
X147741141Y-73987810D01*
X147683404Y-74095829D01*
X147646799Y-74164313D01*
X147588702Y-74355830D01*
X147569085Y-74555000D01*
X147574001Y-74604911D01*
X147574001Y-75115892D01*
X147436525Y-75253368D01*
X147314805Y-75435534D01*
X147245178Y-75318645D01*
X147050269Y-75102412D01*
X146816920Y-74928359D01*
X146554099Y-74803175D01*
X146406890Y-74758524D01*
X146177000Y-74879845D01*
X146177000Y-76073000D01*
X146197000Y-76073000D01*
X146197000Y-76327000D01*
X146177000Y-76327000D01*
X146177000Y-77520155D01*
X146406890Y-77641476D01*
X146554099Y-77596825D01*
X146816920Y-77471641D01*
X147050269Y-77297588D01*
X147245178Y-77081355D01*
X147314805Y-76964466D01*
X147436525Y-77146632D01*
X147643368Y-77353475D01*
X147886589Y-77515990D01*
X148156842Y-77627932D01*
X148443740Y-77685000D01*
X148736260Y-77685000D01*
X149023158Y-77627932D01*
X149293411Y-77515990D01*
X149536632Y-77353475D01*
X149743475Y-77146632D01*
X149860000Y-76972240D01*
X149976525Y-77146632D01*
X150183368Y-77353475D01*
X150426589Y-77515990D01*
X150696842Y-77627932D01*
X150983740Y-77685000D01*
X151276260Y-77685000D01*
X151563158Y-77627932D01*
X151833411Y-77515990D01*
X152076632Y-77353475D01*
X152283475Y-77146632D01*
X152400000Y-76972240D01*
X152516525Y-77146632D01*
X152723368Y-77353475D01*
X152966589Y-77515990D01*
X153236842Y-77627932D01*
X153523740Y-77685000D01*
X153816260Y-77685000D01*
X154103158Y-77627932D01*
X154373411Y-77515990D01*
X154616632Y-77353475D01*
X154823475Y-77146632D01*
X154940000Y-76972240D01*
X155056525Y-77146632D01*
X155263368Y-77353475D01*
X155506589Y-77515990D01*
X155776842Y-77627932D01*
X156063740Y-77685000D01*
X156356260Y-77685000D01*
X156643158Y-77627932D01*
X156913411Y-77515990D01*
X157156632Y-77353475D01*
X157363475Y-77146632D01*
X157485195Y-76964466D01*
X157554822Y-77081355D01*
X157749731Y-77297588D01*
X157983080Y-77471641D01*
X158245901Y-77596825D01*
X158393110Y-77641476D01*
X158623000Y-77520155D01*
X158623000Y-76327000D01*
X158603000Y-76327000D01*
X158603000Y-76073000D01*
X158623000Y-76073000D01*
X158623000Y-74879845D01*
X158393110Y-74758524D01*
X158245901Y-74803175D01*
X157983080Y-74928359D01*
X157749731Y-75102412D01*
X157554822Y-75318645D01*
X157485195Y-75435534D01*
X157363475Y-75253368D01*
X157226000Y-75115893D01*
X157226000Y-74474902D01*
X157230915Y-74425000D01*
X157211298Y-74225829D01*
X157153202Y-74034313D01*
X157083053Y-73903072D01*
X157350000Y-73903072D01*
X157523254Y-73886008D01*
X157689850Y-73835472D01*
X157843386Y-73753405D01*
X157977962Y-73642962D01*
X158088405Y-73508386D01*
X158143132Y-73406000D01*
X159356868Y-73406000D01*
X159411595Y-73508386D01*
X159522038Y-73642962D01*
X159656614Y-73753405D01*
X159810150Y-73835472D01*
X159976746Y-73886008D01*
X160150000Y-73903072D01*
X160416948Y-73903072D01*
X160416285Y-73904313D01*
X160346799Y-74034313D01*
X160288702Y-74225830D01*
X160269085Y-74425000D01*
X160274001Y-74474911D01*
X160274001Y-75115892D01*
X160136525Y-75253368D01*
X160014805Y-75435534D01*
X159945178Y-75318645D01*
X159750269Y-75102412D01*
X159516920Y-74928359D01*
X159254099Y-74803175D01*
X159106890Y-74758524D01*
X158877000Y-74879845D01*
X158877000Y-76073000D01*
X158897000Y-76073000D01*
X158897000Y-76327000D01*
X158877000Y-76327000D01*
X158877000Y-77520155D01*
X159106890Y-77641476D01*
X159254099Y-77596825D01*
X159516920Y-77471641D01*
X159750269Y-77297588D01*
X159945178Y-77081355D01*
X160014805Y-76964466D01*
X160136525Y-77146632D01*
X160343368Y-77353475D01*
X160586589Y-77515990D01*
X160856842Y-77627932D01*
X161143740Y-77685000D01*
X161436260Y-77685000D01*
X161723158Y-77627932D01*
X161993411Y-77515990D01*
X162236632Y-77353475D01*
X162443475Y-77146632D01*
X162560000Y-76972240D01*
X162676525Y-77146632D01*
X162883368Y-77353475D01*
X163126589Y-77515990D01*
X163396842Y-77627932D01*
X163683740Y-77685000D01*
X163976260Y-77685000D01*
X164263158Y-77627932D01*
X164533411Y-77515990D01*
X164776632Y-77353475D01*
X164983475Y-77146632D01*
X165145990Y-76903411D01*
X165257932Y-76633158D01*
X165315000Y-76346260D01*
X165315000Y-76053740D01*
X165257932Y-75766842D01*
X165145990Y-75496589D01*
X165027998Y-75320000D01*
X169936928Y-75320000D01*
X169936928Y-76070000D01*
X169953992Y-76243254D01*
X170004528Y-76409850D01*
X170086595Y-76563386D01*
X170197038Y-76697962D01*
X170331614Y-76808405D01*
X170434000Y-76863132D01*
X170434001Y-78076868D01*
X170331614Y-78131595D01*
X170197038Y-78242038D01*
X170086595Y-78376614D01*
X170004528Y-78530150D01*
X169953992Y-78696746D01*
X169936928Y-78870000D01*
X169936928Y-79620000D01*
X169953992Y-79793254D01*
X170004528Y-79959850D01*
X170086595Y-80113386D01*
X170197038Y-80247962D01*
X170331614Y-80358405D01*
X170485150Y-80440472D01*
X170651746Y-80491008D01*
X170825000Y-80508072D01*
X172075000Y-80508072D01*
X172248254Y-80491008D01*
X172414850Y-80440472D01*
X172568386Y-80358405D01*
X172702962Y-80247962D01*
X172813405Y-80113386D01*
X172895472Y-79959850D01*
X172946008Y-79793254D01*
X172963072Y-79620000D01*
X172963072Y-78870000D01*
X172946008Y-78696746D01*
X172895472Y-78530150D01*
X172813405Y-78376614D01*
X172702962Y-78242038D01*
X172568386Y-78131595D01*
X172466000Y-78076868D01*
X172466000Y-76863132D01*
X172568386Y-76808405D01*
X172702962Y-76697962D01*
X172813405Y-76563386D01*
X172895472Y-76409850D01*
X172946008Y-76243254D01*
X172963072Y-76070000D01*
X172963072Y-75320000D01*
X172946008Y-75146746D01*
X172895472Y-74980150D01*
X172813405Y-74826614D01*
X172702962Y-74692038D01*
X172568386Y-74581595D01*
X172414850Y-74499528D01*
X172248254Y-74448992D01*
X172075000Y-74431928D01*
X170825000Y-74431928D01*
X170651746Y-74448992D01*
X170485150Y-74499528D01*
X170331614Y-74581595D01*
X170197038Y-74692038D01*
X170086595Y-74826614D01*
X170004528Y-74980150D01*
X169953992Y-75146746D01*
X169936928Y-75320000D01*
X165027998Y-75320000D01*
X164983475Y-75253368D01*
X164776632Y-75046525D01*
X164533411Y-74884010D01*
X164263158Y-74772068D01*
X163976260Y-74715000D01*
X163683740Y-74715000D01*
X163396842Y-74772068D01*
X163126589Y-74884010D01*
X162883368Y-75046525D01*
X162676525Y-75253368D01*
X162560000Y-75427760D01*
X162443475Y-75253368D01*
X162306000Y-75115893D01*
X162306000Y-74845840D01*
X163248769Y-73903072D01*
X163700000Y-73903072D01*
X163873254Y-73886008D01*
X164039850Y-73835472D01*
X164193386Y-73753405D01*
X164327962Y-73642962D01*
X164438405Y-73508386D01*
X164520472Y-73354850D01*
X164571008Y-73188254D01*
X164588072Y-73015000D01*
X164588072Y-71765000D01*
X164571008Y-71591746D01*
X164543481Y-71501000D01*
X169759160Y-71501000D01*
X170175924Y-71917765D01*
X170086595Y-72026614D01*
X170004528Y-72180150D01*
X169953992Y-72346746D01*
X169936928Y-72520000D01*
X169936928Y-73270000D01*
X169953992Y-73443254D01*
X170004528Y-73609850D01*
X170086595Y-73763386D01*
X170197038Y-73897962D01*
X170331614Y-74008405D01*
X170485150Y-74090472D01*
X170651746Y-74141008D01*
X170825000Y-74158072D01*
X172075000Y-74158072D01*
X172248254Y-74141008D01*
X172414850Y-74090472D01*
X172568386Y-74008405D01*
X172702962Y-73897962D01*
X172813405Y-73763386D01*
X172895472Y-73609850D01*
X172946008Y-73443254D01*
X172963072Y-73270000D01*
X172963072Y-72520000D01*
X172946008Y-72346746D01*
X172895472Y-72180150D01*
X172813405Y-72026614D01*
X172702962Y-71892038D01*
X172568386Y-71781595D01*
X172468263Y-71728078D01*
X172466000Y-71705105D01*
X172466000Y-71705098D01*
X172451298Y-71555829D01*
X172393202Y-71364313D01*
X172298860Y-71187810D01*
X172171896Y-71033104D01*
X172133133Y-71001292D01*
X170933712Y-69801872D01*
X170901896Y-69763104D01*
X170747190Y-69636140D01*
X170570687Y-69541798D01*
X170379171Y-69483702D01*
X170229902Y-69469000D01*
X170180000Y-69464085D01*
X170130098Y-69469000D01*
X154354902Y-69469000D01*
X154305000Y-69464085D01*
X154255098Y-69469000D01*
X141654902Y-69469000D01*
X141605000Y-69464085D01*
X141555098Y-69469000D01*
X128954902Y-69469000D01*
X128905000Y-69464085D01*
X128855098Y-69469000D01*
X116254902Y-69469000D01*
X116205000Y-69464085D01*
X116155098Y-69469000D01*
X103554902Y-69469000D01*
X103505000Y-69464085D01*
X103455098Y-69469000D01*
X90854902Y-69469000D01*
X90805000Y-69464085D01*
X90755098Y-69469000D01*
X78154902Y-69469000D01*
X78105000Y-69464085D01*
X78055098Y-69469000D01*
X65454902Y-69469000D01*
X65405000Y-69464085D01*
X65355098Y-69469000D01*
X65205829Y-69483702D01*
X65014313Y-69541798D01*
X64837810Y-69636140D01*
X64683104Y-69763104D01*
X64556140Y-69917810D01*
X64461798Y-70094313D01*
X64403702Y-70285829D01*
X64384085Y-70485000D01*
X64389001Y-70534912D01*
X64389001Y-71152924D01*
X64291595Y-71271614D01*
X64209528Y-71425150D01*
X64158992Y-71591746D01*
X64141928Y-71765000D01*
X64141928Y-73015000D01*
X64158992Y-73188254D01*
X64209528Y-73354850D01*
X64291595Y-73508386D01*
X64402038Y-73642962D01*
X64536614Y-73753405D01*
X64690150Y-73835472D01*
X64856746Y-73886008D01*
X65030000Y-73903072D01*
X65481232Y-73903072D01*
X66294001Y-74715842D01*
X66294001Y-75115892D01*
X66231513Y-75178380D01*
X66209502Y-75105820D01*
X66150537Y-74995506D01*
X66071185Y-74898815D01*
X65974494Y-74819463D01*
X65864180Y-74760498D01*
X65744482Y-74724188D01*
X65620000Y-74711928D01*
X63920000Y-74711928D01*
X63795518Y-74724188D01*
X63675820Y-74760498D01*
X63565506Y-74819463D01*
X63468815Y-74898815D01*
X63389463Y-74995506D01*
X63330498Y-75105820D01*
X63294188Y-75225518D01*
X63281928Y-75350000D01*
X51460000Y-75350000D01*
X51460000Y-64454385D01*
X61565505Y-64454385D01*
X61565505Y-65085615D01*
X61688652Y-65704717D01*
X61930214Y-66287897D01*
X62280906Y-66812746D01*
X62727254Y-67259094D01*
X63252103Y-67609786D01*
X63835283Y-67851348D01*
X64454385Y-67974495D01*
X65085615Y-67974495D01*
X65704717Y-67851348D01*
X66287897Y-67609786D01*
X66812746Y-67259094D01*
X67259094Y-66812746D01*
X67609786Y-66287897D01*
X67851348Y-65704717D01*
X67974495Y-65085615D01*
X67974495Y-64454385D01*
X74265505Y-64454385D01*
X74265505Y-65085615D01*
X74388652Y-65704717D01*
X74630214Y-66287897D01*
X74980906Y-66812746D01*
X75427254Y-67259094D01*
X75952103Y-67609786D01*
X76535283Y-67851348D01*
X77154385Y-67974495D01*
X77785615Y-67974495D01*
X78404717Y-67851348D01*
X78987897Y-67609786D01*
X79512746Y-67259094D01*
X79959094Y-66812746D01*
X80309786Y-66287897D01*
X80551348Y-65704717D01*
X80674495Y-65085615D01*
X80674495Y-64454385D01*
X86965505Y-64454385D01*
X86965505Y-65085615D01*
X87088652Y-65704717D01*
X87330214Y-66287897D01*
X87680906Y-66812746D01*
X88127254Y-67259094D01*
X88652103Y-67609786D01*
X89235283Y-67851348D01*
X89854385Y-67974495D01*
X90485615Y-67974495D01*
X91104717Y-67851348D01*
X91687897Y-67609786D01*
X92212746Y-67259094D01*
X92659094Y-66812746D01*
X93009786Y-66287897D01*
X93251348Y-65704717D01*
X93374495Y-65085615D01*
X93374495Y-64454385D01*
X99665505Y-64454385D01*
X99665505Y-65085615D01*
X99788652Y-65704717D01*
X100030214Y-66287897D01*
X100380906Y-66812746D01*
X100827254Y-67259094D01*
X101352103Y-67609786D01*
X101935283Y-67851348D01*
X102554385Y-67974495D01*
X103185615Y-67974495D01*
X103804717Y-67851348D01*
X104387897Y-67609786D01*
X104912746Y-67259094D01*
X105359094Y-66812746D01*
X105709786Y-66287897D01*
X105951348Y-65704717D01*
X106074495Y-65085615D01*
X106074495Y-64454385D01*
X112365505Y-64454385D01*
X112365505Y-65085615D01*
X112488652Y-65704717D01*
X112730214Y-66287897D01*
X113080906Y-66812746D01*
X113527254Y-67259094D01*
X114052103Y-67609786D01*
X114635283Y-67851348D01*
X115254385Y-67974495D01*
X115885615Y-67974495D01*
X116504717Y-67851348D01*
X117087897Y-67609786D01*
X117612746Y-67259094D01*
X118059094Y-66812746D01*
X118409786Y-66287897D01*
X118651348Y-65704717D01*
X118774495Y-65085615D01*
X118774495Y-64644885D01*
X125065505Y-64644885D01*
X125065505Y-65276115D01*
X125188652Y-65895217D01*
X125430214Y-66478397D01*
X125780906Y-67003246D01*
X126227254Y-67449594D01*
X126752103Y-67800286D01*
X127335283Y-68041848D01*
X127954385Y-68164995D01*
X128585615Y-68164995D01*
X129204717Y-68041848D01*
X129787897Y-67800286D01*
X130312746Y-67449594D01*
X130759094Y-67003246D01*
X131109786Y-66478397D01*
X131351348Y-65895217D01*
X131474495Y-65276115D01*
X131474495Y-64644885D01*
X131436603Y-64454385D01*
X137765505Y-64454385D01*
X137765505Y-65085615D01*
X137888652Y-65704717D01*
X138130214Y-66287897D01*
X138480906Y-66812746D01*
X138927254Y-67259094D01*
X139452103Y-67609786D01*
X140035283Y-67851348D01*
X140654385Y-67974495D01*
X141285615Y-67974495D01*
X141904717Y-67851348D01*
X142487897Y-67609786D01*
X143012746Y-67259094D01*
X143459094Y-66812746D01*
X143809786Y-66287897D01*
X144051348Y-65704717D01*
X144174495Y-65085615D01*
X144174495Y-64454385D01*
X150465505Y-64454385D01*
X150465505Y-65085615D01*
X150588652Y-65704717D01*
X150830214Y-66287897D01*
X151180906Y-66812746D01*
X151627254Y-67259094D01*
X152152103Y-67609786D01*
X152735283Y-67851348D01*
X153354385Y-67974495D01*
X153985615Y-67974495D01*
X154604717Y-67851348D01*
X155187897Y-67609786D01*
X155712746Y-67259094D01*
X156159094Y-66812746D01*
X156509786Y-66287897D01*
X156751348Y-65704717D01*
X156874495Y-65085615D01*
X156874495Y-64454385D01*
X156751348Y-63835283D01*
X156509786Y-63252103D01*
X156159094Y-62727254D01*
X155712746Y-62280906D01*
X155187897Y-61930214D01*
X154604717Y-61688652D01*
X153985615Y-61565505D01*
X153354385Y-61565505D01*
X152735283Y-61688652D01*
X152152103Y-61930214D01*
X151627254Y-62280906D01*
X151180906Y-62727254D01*
X150830214Y-63252103D01*
X150588652Y-63835283D01*
X150465505Y-64454385D01*
X144174495Y-64454385D01*
X144051348Y-63835283D01*
X143809786Y-63252103D01*
X143459094Y-62727254D01*
X143012746Y-62280906D01*
X142487897Y-61930214D01*
X141904717Y-61688652D01*
X141285615Y-61565505D01*
X140654385Y-61565505D01*
X140035283Y-61688652D01*
X139452103Y-61930214D01*
X138927254Y-62280906D01*
X138480906Y-62727254D01*
X138130214Y-63252103D01*
X137888652Y-63835283D01*
X137765505Y-64454385D01*
X131436603Y-64454385D01*
X131351348Y-64025783D01*
X131109786Y-63442603D01*
X130759094Y-62917754D01*
X130312746Y-62471406D01*
X129787897Y-62120714D01*
X129204717Y-61879152D01*
X128585615Y-61756005D01*
X127954385Y-61756005D01*
X127335283Y-61879152D01*
X126752103Y-62120714D01*
X126227254Y-62471406D01*
X125780906Y-62917754D01*
X125430214Y-63442603D01*
X125188652Y-64025783D01*
X125065505Y-64644885D01*
X118774495Y-64644885D01*
X118774495Y-64454385D01*
X118651348Y-63835283D01*
X118409786Y-63252103D01*
X118059094Y-62727254D01*
X117612746Y-62280906D01*
X117087897Y-61930214D01*
X116504717Y-61688652D01*
X115885615Y-61565505D01*
X115254385Y-61565505D01*
X114635283Y-61688652D01*
X114052103Y-61930214D01*
X113527254Y-62280906D01*
X113080906Y-62727254D01*
X112730214Y-63252103D01*
X112488652Y-63835283D01*
X112365505Y-64454385D01*
X106074495Y-64454385D01*
X105951348Y-63835283D01*
X105709786Y-63252103D01*
X105359094Y-62727254D01*
X104912746Y-62280906D01*
X104387897Y-61930214D01*
X103804717Y-61688652D01*
X103185615Y-61565505D01*
X102554385Y-61565505D01*
X101935283Y-61688652D01*
X101352103Y-61930214D01*
X100827254Y-62280906D01*
X100380906Y-62727254D01*
X100030214Y-63252103D01*
X99788652Y-63835283D01*
X99665505Y-64454385D01*
X93374495Y-64454385D01*
X93251348Y-63835283D01*
X93009786Y-63252103D01*
X92659094Y-62727254D01*
X92212746Y-62280906D01*
X91687897Y-61930214D01*
X91104717Y-61688652D01*
X90485615Y-61565505D01*
X89854385Y-61565505D01*
X89235283Y-61688652D01*
X88652103Y-61930214D01*
X88127254Y-62280906D01*
X87680906Y-62727254D01*
X87330214Y-63252103D01*
X87088652Y-63835283D01*
X86965505Y-64454385D01*
X80674495Y-64454385D01*
X80551348Y-63835283D01*
X80309786Y-63252103D01*
X79959094Y-62727254D01*
X79512746Y-62280906D01*
X78987897Y-61930214D01*
X78404717Y-61688652D01*
X77785615Y-61565505D01*
X77154385Y-61565505D01*
X76535283Y-61688652D01*
X75952103Y-61930214D01*
X75427254Y-62280906D01*
X74980906Y-62727254D01*
X74630214Y-63252103D01*
X74388652Y-63835283D01*
X74265505Y-64454385D01*
X67974495Y-64454385D01*
X67851348Y-63835283D01*
X67609786Y-63252103D01*
X67259094Y-62727254D01*
X66812746Y-62280906D01*
X66287897Y-61930214D01*
X65704717Y-61688652D01*
X65085615Y-61565505D01*
X64454385Y-61565505D01*
X63835283Y-61688652D01*
X63252103Y-61930214D01*
X62727254Y-62280906D01*
X62280906Y-62727254D01*
X61930214Y-63252103D01*
X61688652Y-63835283D01*
X61565505Y-64454385D01*
X51460000Y-64454385D01*
X51460000Y-60985000D01*
X177140000Y-60985000D01*
X177140001Y-130150000D01*
G37*
G04 #@! TD.AperFunction*
M02*
