G04 #@! TF.GenerationSoftware,KiCad,Pcbnew,5.1.8+dfsg1-1+b1*
G04 #@! TF.CreationDate,2021-07-07T17:01:25-05:00*
G04 #@! TF.ProjectId,front-panel,66726f6e-742d-4706-916e-656c2e6b6963,B*
G04 #@! TF.SameCoordinates,Original*
G04 #@! TF.FileFunction,Legend,Bot*
G04 #@! TF.FilePolarity,Positive*
%FSLAX46Y46*%
G04 Gerber Fmt 4.6, Leading zero omitted, Abs format (unit mm)*
G04 Created by KiCad (PCBNEW 5.1.8+dfsg1-1+b1) date 2021-07-07 17:01:25*
%MOMM*%
%LPD*%
G01*
G04 APERTURE LIST*
G04 #@! TA.AperFunction,Profile*
%ADD10C,0.050000*%
G04 #@! TD*
%ADD11C,0.120000*%
%ADD12C,0.150000*%
G04 APERTURE END LIST*
D10*
X177800000Y-60325000D02*
X177800000Y-130810000D01*
X50800000Y-60325000D02*
X50800000Y-130810000D01*
X50800000Y-130810000D02*
X177800000Y-130810000D01*
X92710000Y-64770000D02*
G75*
G03*
X92710000Y-64770000I-2540000J0D01*
G01*
X156210000Y-64770000D02*
G75*
G03*
X156210000Y-64770000I-2540000J0D01*
G01*
X143510000Y-64770000D02*
G75*
G03*
X143510000Y-64770000I-2540000J0D01*
G01*
X130810000Y-64960500D02*
G75*
G03*
X130810000Y-64960500I-2540000J0D01*
G01*
X118110000Y-64770000D02*
G75*
G03*
X118110000Y-64770000I-2540000J0D01*
G01*
X105410000Y-64770000D02*
G75*
G03*
X105410000Y-64770000I-2540000J0D01*
G01*
X80010000Y-64770000D02*
G75*
G03*
X80010000Y-64770000I-2540000J0D01*
G01*
X67310000Y-64770000D02*
G75*
G03*
X67310000Y-64770000I-2540000J0D01*
G01*
X177800000Y-60325000D02*
X50800000Y-60325000D01*
D11*
X56607064Y-127360000D02*
X55152936Y-127360000D01*
X56607064Y-129180000D02*
X55152936Y-129180000D01*
X56607064Y-112120000D02*
X55152936Y-112120000D01*
X56607064Y-113940000D02*
X55152936Y-113940000D01*
X165160000Y-74870000D02*
X165160000Y-77530000D01*
X66040000Y-74870000D02*
X165160000Y-74870000D01*
X66040000Y-77530000D02*
X165160000Y-77530000D01*
X66040000Y-74870000D02*
X66040000Y-77530000D01*
X64770000Y-74870000D02*
X63440000Y-74870000D01*
X63440000Y-74870000D02*
X63440000Y-76200000D01*
D12*
X60332857Y-128722380D02*
X60666190Y-128246190D01*
X60904285Y-128722380D02*
X60904285Y-127722380D01*
X60523333Y-127722380D01*
X60428095Y-127770000D01*
X60380476Y-127817619D01*
X60332857Y-127912857D01*
X60332857Y-128055714D01*
X60380476Y-128150952D01*
X60428095Y-128198571D01*
X60523333Y-128246190D01*
X60904285Y-128246190D01*
X59380476Y-128722380D02*
X59951904Y-128722380D01*
X59666190Y-128722380D02*
X59666190Y-127722380D01*
X59761428Y-127865238D01*
X59856666Y-127960476D01*
X59951904Y-128008095D01*
X58761428Y-127722380D02*
X58666190Y-127722380D01*
X58570952Y-127770000D01*
X58523333Y-127817619D01*
X58475714Y-127912857D01*
X58428095Y-128103333D01*
X58428095Y-128341428D01*
X58475714Y-128531904D01*
X58523333Y-128627142D01*
X58570952Y-128674761D01*
X58666190Y-128722380D01*
X58761428Y-128722380D01*
X58856666Y-128674761D01*
X58904285Y-128627142D01*
X58951904Y-128531904D01*
X58999523Y-128341428D01*
X58999523Y-128103333D01*
X58951904Y-127912857D01*
X58904285Y-127817619D01*
X58856666Y-127770000D01*
X58761428Y-127722380D01*
X59856666Y-113482380D02*
X60190000Y-113006190D01*
X60428095Y-113482380D02*
X60428095Y-112482380D01*
X60047142Y-112482380D01*
X59951904Y-112530000D01*
X59904285Y-112577619D01*
X59856666Y-112672857D01*
X59856666Y-112815714D01*
X59904285Y-112910952D01*
X59951904Y-112958571D01*
X60047142Y-113006190D01*
X60428095Y-113006190D01*
X59380476Y-113482380D02*
X59190000Y-113482380D01*
X59094761Y-113434761D01*
X59047142Y-113387142D01*
X58951904Y-113244285D01*
X58904285Y-113053809D01*
X58904285Y-112672857D01*
X58951904Y-112577619D01*
X58999523Y-112530000D01*
X59094761Y-112482380D01*
X59285238Y-112482380D01*
X59380476Y-112530000D01*
X59428095Y-112577619D01*
X59475714Y-112672857D01*
X59475714Y-112910952D01*
X59428095Y-113006190D01*
X59380476Y-113053809D01*
X59285238Y-113101428D01*
X59094761Y-113101428D01*
X58999523Y-113053809D01*
X58951904Y-113006190D01*
X58904285Y-112910952D01*
X61892380Y-75866666D02*
X62606666Y-75866666D01*
X62749523Y-75819047D01*
X62844761Y-75723809D01*
X62892380Y-75580952D01*
X62892380Y-75485714D01*
X62892380Y-76866666D02*
X62892380Y-76295238D01*
X62892380Y-76580952D02*
X61892380Y-76580952D01*
X62035238Y-76485714D01*
X62130476Y-76390476D01*
X62178095Y-76295238D01*
M02*
