G04 #@! TF.GenerationSoftware,KiCad,Pcbnew,5.1.8+dfsg1-1+b1*
G04 #@! TF.CreationDate,2021-07-07T17:01:25-05:00*
G04 #@! TF.ProjectId,front-panel,66726f6e-742d-4706-916e-656c2e6b6963,B*
G04 #@! TF.SameCoordinates,Original*
G04 #@! TF.FileFunction,Paste,Bot*
G04 #@! TF.FilePolarity,Positive*
%FSLAX46Y46*%
G04 Gerber Fmt 4.6, Leading zero omitted, Abs format (unit mm)*
G04 Created by KiCad (PCBNEW 5.1.8+dfsg1-1+b1) date 2021-07-07 17:01:25*
%MOMM*%
%LPD*%
G01*
G04 APERTURE LIST*
G04 #@! TA.AperFunction,Profile*
%ADD10C,0.050000*%
G04 #@! TD*
G04 APERTURE END LIST*
D10*
X177800000Y-60325000D02*
X177800000Y-130810000D01*
X50800000Y-60325000D02*
X50800000Y-130810000D01*
X50800000Y-130810000D02*
X177800000Y-130810000D01*
X92710000Y-64770000D02*
G75*
G03*
X92710000Y-64770000I-2540000J0D01*
G01*
X156210000Y-64770000D02*
G75*
G03*
X156210000Y-64770000I-2540000J0D01*
G01*
X143510000Y-64770000D02*
G75*
G03*
X143510000Y-64770000I-2540000J0D01*
G01*
X130810000Y-64960500D02*
G75*
G03*
X130810000Y-64960500I-2540000J0D01*
G01*
X118110000Y-64770000D02*
G75*
G03*
X118110000Y-64770000I-2540000J0D01*
G01*
X105410000Y-64770000D02*
G75*
G03*
X105410000Y-64770000I-2540000J0D01*
G01*
X80010000Y-64770000D02*
G75*
G03*
X80010000Y-64770000I-2540000J0D01*
G01*
X67310000Y-64770000D02*
G75*
G03*
X67310000Y-64770000I-2540000J0D01*
G01*
X177800000Y-60325000D02*
X50800000Y-60325000D01*
G36*
G01*
X54980000Y-127644997D02*
X54980000Y-128895003D01*
G75*
G02*
X54730003Y-129145000I-249997J0D01*
G01*
X54104997Y-129145000D01*
G75*
G02*
X53855000Y-128895003I0J249997D01*
G01*
X53855000Y-127644997D01*
G75*
G02*
X54104997Y-127395000I249997J0D01*
G01*
X54730003Y-127395000D01*
G75*
G02*
X54980000Y-127644997I0J-249997D01*
G01*
G37*
G36*
G01*
X57905000Y-127644997D02*
X57905000Y-128895003D01*
G75*
G02*
X57655003Y-129145000I-249997J0D01*
G01*
X57029997Y-129145000D01*
G75*
G02*
X56780000Y-128895003I0J249997D01*
G01*
X56780000Y-127644997D01*
G75*
G02*
X57029997Y-127395000I249997J0D01*
G01*
X57655003Y-127395000D01*
G75*
G02*
X57905000Y-127644997I0J-249997D01*
G01*
G37*
G36*
G01*
X54980000Y-112404997D02*
X54980000Y-113655003D01*
G75*
G02*
X54730003Y-113905000I-249997J0D01*
G01*
X54104997Y-113905000D01*
G75*
G02*
X53855000Y-113655003I0J249997D01*
G01*
X53855000Y-112404997D01*
G75*
G02*
X54104997Y-112155000I249997J0D01*
G01*
X54730003Y-112155000D01*
G75*
G02*
X54980000Y-112404997I0J-249997D01*
G01*
G37*
G36*
G01*
X57905000Y-112404997D02*
X57905000Y-113655003D01*
G75*
G02*
X57655003Y-113905000I-249997J0D01*
G01*
X57029997Y-113905000D01*
G75*
G02*
X56780000Y-113655003I0J249997D01*
G01*
X56780000Y-112404997D01*
G75*
G02*
X57029997Y-112155000I249997J0D01*
G01*
X57655003Y-112155000D01*
G75*
G02*
X57905000Y-112404997I0J-249997D01*
G01*
G37*
M02*
