M48
; DRILL file {KiCad 5.1.2+dfsg1-1} date Tue 25 Jun 2019 02:25:16 PM CDT
; FORMAT={-:-/ absolute / inch / decimal}
; #@! TF.CreationDate,2019-06-25T14:25:16-05:00
; #@! TF.GenerationSoftware,Kicad,Pcbnew,5.1.2+dfsg1-1
; #@! TF.FileFunction,Plated,1,2,PTH
FMAT,2
INCH
T1C0.0157
T2C0.0295
T3C0.0315
T4C0.0472
%
G90
G05
T1
X3.45Y-4.3
X3.8579Y-4.1579
X4.0Y-5.1
X4.1Y-5.6
X4.15Y-4.3
X4.3Y-5.6
X4.6Y-5.1
X4.65Y-4.3
X4.9Y-4.15
X4.9Y-4.25
X5.3Y-5.1
X5.45Y-4.3
X5.5Y-4.1
X5.9Y-4.15
X5.9Y-5.1
X5.95Y-4.3
X6.0Y-3.9
X6.05Y-4.1
X6.198Y-4.998
X6.2Y-5.1
X6.55Y-4.3
X6.9Y-3.9
T2
X6.1Y-5.2
X6.15Y-5.2
X6.2Y-5.2
X3.6Y-5.2
X3.65Y-5.2
X3.7Y-5.2
X4.5Y-5.2
X4.55Y-5.2
X4.6Y-5.2
X3.3Y-5.2
X3.35Y-5.2
X3.4Y-5.2
X5.8Y-5.2
X5.85Y-5.2
X5.9Y-5.2
X4.8Y-5.2
X4.85Y-5.2
X4.9Y-5.2
T3
X5.8Y-4.4
X5.8Y-4.5
X5.8Y-4.6
X5.8Y-4.7
X6.1Y-4.4
X6.1Y-4.5
X6.1Y-4.6
X6.1Y-4.7
X3.3Y-4.85
X3.6Y-4.85
X4.4Y-3.7
X4.4Y-3.7984
X3.3Y-5.55
X3.6Y-5.55
X4.0Y-5.0
X4.3Y-5.0
X6.4Y-4.4
X6.4Y-4.5
X6.4Y-4.6
X6.4Y-4.7
X6.7Y-4.4
X6.7Y-4.5
X6.7Y-4.6
X6.7Y-4.7
X4.5Y-5.0
X4.8Y-5.0
X6.4Y-5.2
X6.4Y-5.3
X6.4Y-5.4
X6.4Y-5.5
X6.7Y-5.2
X6.7Y-5.3
X6.7Y-5.4
X6.7Y-5.5
X4.9Y-4.0
X5.2Y-4.0
X5.8Y-5.4
X6.1Y-5.4
X4.5Y-5.55
X4.8Y-5.55
X4.0Y-4.85
X4.3Y-4.85
X5.7Y-3.7
X5.7Y-4.0
X4.5Y-5.4
X4.8Y-5.4
X4.0Y-4.4
X4.0Y-4.5
X4.0Y-4.6
X4.0Y-4.7
X4.3Y-4.4
X4.3Y-4.5
X4.3Y-4.6
X4.3Y-4.7
X3.3Y-4.4
X3.3Y-4.5
X3.3Y-4.6
X3.3Y-4.7
X3.6Y-4.4
X3.6Y-4.5
X3.6Y-4.6
X3.6Y-4.7
X3.3Y-5.4
X3.6Y-5.4
X5.8Y-5.0
X6.1Y-5.0
X5.3Y-5.0
X5.6Y-5.0
X5.8Y-5.55
X6.1Y-5.55
X5.3Y-5.2
X5.3Y-5.3
X5.3Y-5.4
X5.3Y-5.5
X5.6Y-5.2
X5.6Y-5.3
X5.6Y-5.4
X5.6Y-5.5
X4.5Y-4.85
X4.8Y-4.85
X6.3Y-3.7
X6.3Y-4.0
X3.6Y-3.7016
X3.6Y-3.8
X4.5Y-4.4
X4.5Y-4.5
X4.5Y-4.6
X4.5Y-4.7
X4.8Y-4.4
X4.8Y-4.5
X4.8Y-4.6
X4.8Y-4.7
X5.8Y-4.85
X6.1Y-4.85
X6.4Y-4.85
X6.7Y-4.85
X4.7Y-3.7
X4.7Y-4.0
X6.4Y-5.0
X6.7Y-5.0
X5.3Y-4.85
X5.6Y-4.85
X5.3Y-4.4
X5.3Y-4.5
X5.3Y-4.6
X5.3Y-4.7
X5.6Y-4.4
X5.6Y-4.5
X5.6Y-4.6
X5.6Y-4.7
X5.4Y-3.7
X5.4Y-4.0
X4.0Y-5.2
X4.0Y-5.3
X4.0Y-5.4
X4.0Y-5.5
X4.3Y-5.2
X4.3Y-5.3
X4.3Y-5.4
X4.3Y-5.5
X3.3Y-5.0
X3.6Y-5.0
T4
X6.1Y-5.8
X6.2Y-5.8
X6.3Y-5.8
X3.9Y-3.7
X4.0Y-3.7
X4.1Y-3.7
X5.9Y-3.7
X6.0Y-3.7
X6.1Y-3.7
X4.8Y-5.8
X4.9Y-5.8
X4.1Y-5.8
X4.2Y-5.8
X4.3Y-5.8
X3.8Y-5.8
X3.9Y-5.8
X5.1Y-5.8
X5.2Y-5.8
X5.3Y-5.8
X5.8Y-5.8
X5.9Y-5.8
T0
M30
