G04 #@! TF.GenerationSoftware,KiCad,Pcbnew,5.1.2+dfsg1-1*
G04 #@! TF.CreationDate,2019-06-25T15:59:38-05:00*
G04 #@! TF.ProjectId,potentiostat,706f7465-6e74-4696-9f73-7461742e6b69,A*
G04 #@! TF.SameCoordinates,Original*
G04 #@! TF.FileFunction,Soldermask,Top*
G04 #@! TF.FilePolarity,Negative*
%FSLAX46Y46*%
G04 Gerber Fmt 4.6, Leading zero omitted, Abs format (unit mm)*
G04 Created by KiCad (PCBNEW 5.1.2+dfsg1-1) date 2019-06-25 15:59:38*
%MOMM*%
%LPD*%
G04 APERTURE LIST*
%ADD10C,0.100000*%
G04 APERTURE END LIST*
D10*
G36*
X173095256Y-145711298D02*
G01*
X173201579Y-145732447D01*
X173502042Y-145856903D01*
X173772451Y-146037585D01*
X174002415Y-146267549D01*
X174078904Y-146382023D01*
X174183098Y-146537960D01*
X174198790Y-146575844D01*
X174307553Y-146838421D01*
X174328702Y-146944744D01*
X174371000Y-147157389D01*
X174371000Y-147482611D01*
X174328702Y-147695256D01*
X174307553Y-147801579D01*
X174183097Y-148102042D01*
X174002415Y-148372451D01*
X173772451Y-148602415D01*
X173502042Y-148783097D01*
X173201579Y-148907553D01*
X173095256Y-148928702D01*
X172882611Y-148971000D01*
X172557389Y-148971000D01*
X172344744Y-148928702D01*
X172238421Y-148907553D01*
X171937958Y-148783097D01*
X171667549Y-148602415D01*
X171437585Y-148372451D01*
X171256903Y-148102042D01*
X171132447Y-147801579D01*
X171111298Y-147695256D01*
X171069000Y-147482611D01*
X171069000Y-147157389D01*
X171111298Y-146944744D01*
X171132447Y-146838421D01*
X171241210Y-146575844D01*
X171256902Y-146537960D01*
X171361096Y-146382023D01*
X171437585Y-146267549D01*
X171667549Y-146037585D01*
X171937958Y-145856903D01*
X172238421Y-145732447D01*
X172344744Y-145711298D01*
X172557389Y-145669000D01*
X172882611Y-145669000D01*
X173095256Y-145711298D01*
X173095256Y-145711298D01*
G37*
G36*
X81655256Y-145711298D02*
G01*
X81761579Y-145732447D01*
X82062042Y-145856903D01*
X82332451Y-146037585D01*
X82562415Y-146267549D01*
X82638904Y-146382023D01*
X82743098Y-146537960D01*
X82758790Y-146575844D01*
X82867553Y-146838421D01*
X82888702Y-146944744D01*
X82931000Y-147157389D01*
X82931000Y-147482611D01*
X82888702Y-147695256D01*
X82867553Y-147801579D01*
X82743097Y-148102042D01*
X82562415Y-148372451D01*
X82332451Y-148602415D01*
X82062042Y-148783097D01*
X81761579Y-148907553D01*
X81655256Y-148928702D01*
X81442611Y-148971000D01*
X81117389Y-148971000D01*
X80904744Y-148928702D01*
X80798421Y-148907553D01*
X80497958Y-148783097D01*
X80227549Y-148602415D01*
X79997585Y-148372451D01*
X79816903Y-148102042D01*
X79692447Y-147801579D01*
X79671298Y-147695256D01*
X79629000Y-147482611D01*
X79629000Y-147157389D01*
X79671298Y-146944744D01*
X79692447Y-146838421D01*
X79801210Y-146575844D01*
X79816902Y-146537960D01*
X79921096Y-146382023D01*
X79997585Y-146267549D01*
X80227549Y-146037585D01*
X80497958Y-145856903D01*
X80798421Y-145732447D01*
X80904744Y-145711298D01*
X81117389Y-145669000D01*
X81442611Y-145669000D01*
X81655256Y-145711298D01*
X81655256Y-145711298D01*
G37*
G36*
X106860548Y-146182326D02*
G01*
X107034157Y-146234990D01*
X107194156Y-146320511D01*
X107208612Y-146332375D01*
X107334397Y-146435603D01*
X107413729Y-146532271D01*
X107449489Y-146575844D01*
X107535010Y-146735843D01*
X107587674Y-146909452D01*
X107601000Y-147044757D01*
X107601000Y-147595244D01*
X107587674Y-147730548D01*
X107535010Y-147904157D01*
X107449489Y-148064156D01*
X107418398Y-148102040D01*
X107334397Y-148204397D01*
X107194155Y-148319489D01*
X107034156Y-148405010D01*
X106860547Y-148457674D01*
X106680000Y-148475456D01*
X106499452Y-148457674D01*
X106325843Y-148405010D01*
X106165844Y-148319489D01*
X106122271Y-148283729D01*
X106025603Y-148204397D01*
X105910511Y-148064155D01*
X105824991Y-147904158D01*
X105824990Y-147904156D01*
X105772326Y-147730547D01*
X105759000Y-147595243D01*
X105759000Y-147044756D01*
X105772326Y-146909452D01*
X105824990Y-146735843D01*
X105910512Y-146575844D01*
X105941603Y-146537960D01*
X106025604Y-146435603D01*
X106151389Y-146332375D01*
X106165845Y-146320511D01*
X106325844Y-146234990D01*
X106499453Y-146182326D01*
X106680000Y-146164544D01*
X106860548Y-146182326D01*
X106860548Y-146182326D01*
G37*
G36*
X104320548Y-146182326D02*
G01*
X104494157Y-146234990D01*
X104654156Y-146320511D01*
X104668612Y-146332375D01*
X104794397Y-146435603D01*
X104873729Y-146532271D01*
X104909489Y-146575844D01*
X104995010Y-146735843D01*
X105047674Y-146909452D01*
X105061000Y-147044757D01*
X105061000Y-147595244D01*
X105047674Y-147730548D01*
X104995010Y-147904157D01*
X104909489Y-148064156D01*
X104878398Y-148102040D01*
X104794397Y-148204397D01*
X104654155Y-148319489D01*
X104494156Y-148405010D01*
X104320547Y-148457674D01*
X104140000Y-148475456D01*
X103959452Y-148457674D01*
X103785843Y-148405010D01*
X103625844Y-148319489D01*
X103582271Y-148283729D01*
X103485603Y-148204397D01*
X103370511Y-148064155D01*
X103284991Y-147904158D01*
X103284990Y-147904156D01*
X103232326Y-147730547D01*
X103219000Y-147595243D01*
X103219000Y-147044756D01*
X103232326Y-146909452D01*
X103284990Y-146735843D01*
X103370512Y-146575844D01*
X103401603Y-146537960D01*
X103485604Y-146435603D01*
X103611389Y-146332375D01*
X103625845Y-146320511D01*
X103785844Y-146234990D01*
X103959453Y-146182326D01*
X104140000Y-146164544D01*
X104320548Y-146182326D01*
X104320548Y-146182326D01*
G37*
G36*
X96700548Y-146182326D02*
G01*
X96874157Y-146234990D01*
X97034156Y-146320511D01*
X97048612Y-146332375D01*
X97174397Y-146435603D01*
X97253729Y-146532271D01*
X97289489Y-146575844D01*
X97375010Y-146735843D01*
X97427674Y-146909452D01*
X97441000Y-147044757D01*
X97441000Y-147595244D01*
X97427674Y-147730548D01*
X97375010Y-147904157D01*
X97289489Y-148064156D01*
X97258398Y-148102040D01*
X97174397Y-148204397D01*
X97034155Y-148319489D01*
X96874156Y-148405010D01*
X96700547Y-148457674D01*
X96520000Y-148475456D01*
X96339452Y-148457674D01*
X96165843Y-148405010D01*
X96005844Y-148319489D01*
X95962271Y-148283729D01*
X95865603Y-148204397D01*
X95750511Y-148064155D01*
X95664991Y-147904158D01*
X95664990Y-147904156D01*
X95612326Y-147730547D01*
X95599000Y-147595243D01*
X95599000Y-147044756D01*
X95612326Y-146909452D01*
X95664990Y-146735843D01*
X95750512Y-146575844D01*
X95781603Y-146537960D01*
X95865604Y-146435603D01*
X95991389Y-146332375D01*
X96005845Y-146320511D01*
X96165844Y-146234990D01*
X96339453Y-146182326D01*
X96520000Y-146164544D01*
X96700548Y-146182326D01*
X96700548Y-146182326D01*
G37*
G36*
X147500548Y-146182326D02*
G01*
X147674157Y-146234990D01*
X147834156Y-146320511D01*
X147848612Y-146332375D01*
X147974397Y-146435603D01*
X148053729Y-146532271D01*
X148089489Y-146575844D01*
X148175010Y-146735843D01*
X148227674Y-146909452D01*
X148241000Y-147044757D01*
X148241000Y-147595244D01*
X148227674Y-147730548D01*
X148175010Y-147904157D01*
X148089489Y-148064156D01*
X148058398Y-148102040D01*
X147974397Y-148204397D01*
X147834155Y-148319489D01*
X147674156Y-148405010D01*
X147500547Y-148457674D01*
X147320000Y-148475456D01*
X147139452Y-148457674D01*
X146965843Y-148405010D01*
X146805844Y-148319489D01*
X146762271Y-148283729D01*
X146665603Y-148204397D01*
X146550511Y-148064155D01*
X146464991Y-147904158D01*
X146464990Y-147904156D01*
X146412326Y-147730547D01*
X146399000Y-147595243D01*
X146399000Y-147044756D01*
X146412326Y-146909452D01*
X146464990Y-146735843D01*
X146550512Y-146575844D01*
X146581603Y-146537960D01*
X146665604Y-146435603D01*
X146791389Y-146332375D01*
X146805845Y-146320511D01*
X146965844Y-146234990D01*
X147139453Y-146182326D01*
X147320000Y-146164544D01*
X147500548Y-146182326D01*
X147500548Y-146182326D01*
G37*
G36*
X155120548Y-146182326D02*
G01*
X155294157Y-146234990D01*
X155454156Y-146320511D01*
X155468612Y-146332375D01*
X155594397Y-146435603D01*
X155673729Y-146532271D01*
X155709489Y-146575844D01*
X155795010Y-146735843D01*
X155847674Y-146909452D01*
X155861000Y-147044757D01*
X155861000Y-147595244D01*
X155847674Y-147730548D01*
X155795010Y-147904157D01*
X155709489Y-148064156D01*
X155678398Y-148102040D01*
X155594397Y-148204397D01*
X155454155Y-148319489D01*
X155294156Y-148405010D01*
X155120547Y-148457674D01*
X154940000Y-148475456D01*
X154759452Y-148457674D01*
X154585843Y-148405010D01*
X154425844Y-148319489D01*
X154382271Y-148283729D01*
X154285603Y-148204397D01*
X154170511Y-148064155D01*
X154084991Y-147904158D01*
X154084990Y-147904156D01*
X154032326Y-147730547D01*
X154019000Y-147595243D01*
X154019000Y-147044756D01*
X154032326Y-146909452D01*
X154084990Y-146735843D01*
X154170512Y-146575844D01*
X154201603Y-146537960D01*
X154285604Y-146435603D01*
X154411389Y-146332375D01*
X154425845Y-146320511D01*
X154585844Y-146234990D01*
X154759453Y-146182326D01*
X154940000Y-146164544D01*
X155120548Y-146182326D01*
X155120548Y-146182326D01*
G37*
G36*
X157660548Y-146182326D02*
G01*
X157834157Y-146234990D01*
X157994156Y-146320511D01*
X158008612Y-146332375D01*
X158134397Y-146435603D01*
X158213729Y-146532271D01*
X158249489Y-146575844D01*
X158335010Y-146735843D01*
X158387674Y-146909452D01*
X158401000Y-147044757D01*
X158401000Y-147595244D01*
X158387674Y-147730548D01*
X158335010Y-147904157D01*
X158249489Y-148064156D01*
X158218398Y-148102040D01*
X158134397Y-148204397D01*
X157994155Y-148319489D01*
X157834156Y-148405010D01*
X157660547Y-148457674D01*
X157480000Y-148475456D01*
X157299452Y-148457674D01*
X157125843Y-148405010D01*
X156965844Y-148319489D01*
X156922271Y-148283729D01*
X156825603Y-148204397D01*
X156710511Y-148064155D01*
X156624991Y-147904158D01*
X156624990Y-147904156D01*
X156572326Y-147730547D01*
X156559000Y-147595243D01*
X156559000Y-147044756D01*
X156572326Y-146909452D01*
X156624990Y-146735843D01*
X156710512Y-146575844D01*
X156741603Y-146537960D01*
X156825604Y-146435603D01*
X156951389Y-146332375D01*
X156965845Y-146320511D01*
X157125844Y-146234990D01*
X157299453Y-146182326D01*
X157480000Y-146164544D01*
X157660548Y-146182326D01*
X157660548Y-146182326D01*
G37*
G36*
X129720548Y-146182326D02*
G01*
X129894157Y-146234990D01*
X130054156Y-146320511D01*
X130068612Y-146332375D01*
X130194397Y-146435603D01*
X130273729Y-146532271D01*
X130309489Y-146575844D01*
X130395010Y-146735843D01*
X130447674Y-146909452D01*
X130461000Y-147044757D01*
X130461000Y-147595244D01*
X130447674Y-147730548D01*
X130395010Y-147904157D01*
X130309489Y-148064156D01*
X130278398Y-148102040D01*
X130194397Y-148204397D01*
X130054155Y-148319489D01*
X129894156Y-148405010D01*
X129720547Y-148457674D01*
X129540000Y-148475456D01*
X129359452Y-148457674D01*
X129185843Y-148405010D01*
X129025844Y-148319489D01*
X128982271Y-148283729D01*
X128885603Y-148204397D01*
X128770511Y-148064155D01*
X128684991Y-147904158D01*
X128684990Y-147904156D01*
X128632326Y-147730547D01*
X128619000Y-147595243D01*
X128619000Y-147044756D01*
X128632326Y-146909452D01*
X128684990Y-146735843D01*
X128770512Y-146575844D01*
X128801603Y-146537960D01*
X128885604Y-146435603D01*
X129011389Y-146332375D01*
X129025845Y-146320511D01*
X129185844Y-146234990D01*
X129359453Y-146182326D01*
X129540000Y-146164544D01*
X129720548Y-146182326D01*
X129720548Y-146182326D01*
G37*
G36*
X132260548Y-146182326D02*
G01*
X132434157Y-146234990D01*
X132594156Y-146320511D01*
X132608612Y-146332375D01*
X132734397Y-146435603D01*
X132813729Y-146532271D01*
X132849489Y-146575844D01*
X132935010Y-146735843D01*
X132987674Y-146909452D01*
X133001000Y-147044757D01*
X133001000Y-147595244D01*
X132987674Y-147730548D01*
X132935010Y-147904157D01*
X132849489Y-148064156D01*
X132818398Y-148102040D01*
X132734397Y-148204397D01*
X132594155Y-148319489D01*
X132434156Y-148405010D01*
X132260547Y-148457674D01*
X132080000Y-148475456D01*
X131899452Y-148457674D01*
X131725843Y-148405010D01*
X131565844Y-148319489D01*
X131522271Y-148283729D01*
X131425603Y-148204397D01*
X131310511Y-148064155D01*
X131224991Y-147904158D01*
X131224990Y-147904156D01*
X131172326Y-147730547D01*
X131159000Y-147595243D01*
X131159000Y-147044756D01*
X131172326Y-146909452D01*
X131224990Y-146735843D01*
X131310512Y-146575844D01*
X131341603Y-146537960D01*
X131425604Y-146435603D01*
X131551389Y-146332375D01*
X131565845Y-146320511D01*
X131725844Y-146234990D01*
X131899453Y-146182326D01*
X132080000Y-146164544D01*
X132260548Y-146182326D01*
X132260548Y-146182326D01*
G37*
G36*
X122100548Y-146182326D02*
G01*
X122274157Y-146234990D01*
X122434156Y-146320511D01*
X122448612Y-146332375D01*
X122574397Y-146435603D01*
X122653729Y-146532271D01*
X122689489Y-146575844D01*
X122775010Y-146735843D01*
X122827674Y-146909452D01*
X122841000Y-147044757D01*
X122841000Y-147595244D01*
X122827674Y-147730548D01*
X122775010Y-147904157D01*
X122689489Y-148064156D01*
X122658398Y-148102040D01*
X122574397Y-148204397D01*
X122434155Y-148319489D01*
X122274156Y-148405010D01*
X122100547Y-148457674D01*
X121920000Y-148475456D01*
X121739452Y-148457674D01*
X121565843Y-148405010D01*
X121405844Y-148319489D01*
X121362271Y-148283729D01*
X121265603Y-148204397D01*
X121150511Y-148064155D01*
X121064991Y-147904158D01*
X121064990Y-147904156D01*
X121012326Y-147730547D01*
X120999000Y-147595243D01*
X120999000Y-147044756D01*
X121012326Y-146909452D01*
X121064990Y-146735843D01*
X121150512Y-146575844D01*
X121181603Y-146537960D01*
X121265604Y-146435603D01*
X121391389Y-146332375D01*
X121405845Y-146320511D01*
X121565844Y-146234990D01*
X121739453Y-146182326D01*
X121920000Y-146164544D01*
X122100548Y-146182326D01*
X122100548Y-146182326D01*
G37*
G36*
X150639561Y-146172966D02*
G01*
X150672383Y-146182923D01*
X150702632Y-146199092D01*
X150729148Y-146220852D01*
X150750908Y-146247368D01*
X150767077Y-146277617D01*
X150777034Y-146310439D01*
X150781000Y-146350713D01*
X150781000Y-148289287D01*
X150777034Y-148329561D01*
X150767077Y-148362383D01*
X150750908Y-148392632D01*
X150729148Y-148419148D01*
X150702632Y-148440908D01*
X150672383Y-148457077D01*
X150639561Y-148467034D01*
X150599287Y-148471000D01*
X149120713Y-148471000D01*
X149080439Y-148467034D01*
X149047617Y-148457077D01*
X149017368Y-148440908D01*
X148990852Y-148419148D01*
X148969092Y-148392632D01*
X148952923Y-148362383D01*
X148942966Y-148329561D01*
X148939000Y-148289287D01*
X148939000Y-146350713D01*
X148942966Y-146310439D01*
X148952923Y-146277617D01*
X148969092Y-146247368D01*
X148990852Y-146220852D01*
X149017368Y-146199092D01*
X149047617Y-146182923D01*
X149080439Y-146172966D01*
X149120713Y-146169000D01*
X150599287Y-146169000D01*
X150639561Y-146172966D01*
X150639561Y-146172966D01*
G37*
G36*
X99839561Y-146172966D02*
G01*
X99872383Y-146182923D01*
X99902632Y-146199092D01*
X99929148Y-146220852D01*
X99950908Y-146247368D01*
X99967077Y-146277617D01*
X99977034Y-146310439D01*
X99981000Y-146350713D01*
X99981000Y-148289287D01*
X99977034Y-148329561D01*
X99967077Y-148362383D01*
X99950908Y-148392632D01*
X99929148Y-148419148D01*
X99902632Y-148440908D01*
X99872383Y-148457077D01*
X99839561Y-148467034D01*
X99799287Y-148471000D01*
X98320713Y-148471000D01*
X98280439Y-148467034D01*
X98247617Y-148457077D01*
X98217368Y-148440908D01*
X98190852Y-148419148D01*
X98169092Y-148392632D01*
X98152923Y-148362383D01*
X98142966Y-148329561D01*
X98139000Y-148289287D01*
X98139000Y-146350713D01*
X98142966Y-146310439D01*
X98152923Y-146277617D01*
X98169092Y-146247368D01*
X98190852Y-146220852D01*
X98217368Y-146199092D01*
X98247617Y-146182923D01*
X98280439Y-146172966D01*
X98320713Y-146169000D01*
X99799287Y-146169000D01*
X99839561Y-146172966D01*
X99839561Y-146172966D01*
G37*
G36*
X135399561Y-146172966D02*
G01*
X135432383Y-146182923D01*
X135462632Y-146199092D01*
X135489148Y-146220852D01*
X135510908Y-146247368D01*
X135527077Y-146277617D01*
X135537034Y-146310439D01*
X135541000Y-146350713D01*
X135541000Y-148289287D01*
X135537034Y-148329561D01*
X135527077Y-148362383D01*
X135510908Y-148392632D01*
X135489148Y-148419148D01*
X135462632Y-148440908D01*
X135432383Y-148457077D01*
X135399561Y-148467034D01*
X135359287Y-148471000D01*
X133880713Y-148471000D01*
X133840439Y-148467034D01*
X133807617Y-148457077D01*
X133777368Y-148440908D01*
X133750852Y-148419148D01*
X133729092Y-148392632D01*
X133712923Y-148362383D01*
X133702966Y-148329561D01*
X133699000Y-148289287D01*
X133699000Y-146350713D01*
X133702966Y-146310439D01*
X133712923Y-146277617D01*
X133729092Y-146247368D01*
X133750852Y-146220852D01*
X133777368Y-146199092D01*
X133807617Y-146182923D01*
X133840439Y-146172966D01*
X133880713Y-146169000D01*
X135359287Y-146169000D01*
X135399561Y-146172966D01*
X135399561Y-146172966D01*
G37*
G36*
X125239561Y-146172966D02*
G01*
X125272383Y-146182923D01*
X125302632Y-146199092D01*
X125329148Y-146220852D01*
X125350908Y-146247368D01*
X125367077Y-146277617D01*
X125377034Y-146310439D01*
X125381000Y-146350713D01*
X125381000Y-148289287D01*
X125377034Y-148329561D01*
X125367077Y-148362383D01*
X125350908Y-148392632D01*
X125329148Y-148419148D01*
X125302632Y-148440908D01*
X125272383Y-148457077D01*
X125239561Y-148467034D01*
X125199287Y-148471000D01*
X123720713Y-148471000D01*
X123680439Y-148467034D01*
X123647617Y-148457077D01*
X123617368Y-148440908D01*
X123590852Y-148419148D01*
X123569092Y-148392632D01*
X123552923Y-148362383D01*
X123542966Y-148329561D01*
X123539000Y-148289287D01*
X123539000Y-146350713D01*
X123542966Y-146310439D01*
X123552923Y-146277617D01*
X123569092Y-146247368D01*
X123590852Y-146220852D01*
X123617368Y-146199092D01*
X123647617Y-146182923D01*
X123680439Y-146172966D01*
X123720713Y-146169000D01*
X125199287Y-146169000D01*
X125239561Y-146172966D01*
X125239561Y-146172966D01*
G37*
G36*
X160799561Y-146172966D02*
G01*
X160832383Y-146182923D01*
X160862632Y-146199092D01*
X160889148Y-146220852D01*
X160910908Y-146247368D01*
X160927077Y-146277617D01*
X160937034Y-146310439D01*
X160941000Y-146350713D01*
X160941000Y-148289287D01*
X160937034Y-148329561D01*
X160927077Y-148362383D01*
X160910908Y-148392632D01*
X160889148Y-148419148D01*
X160862632Y-148440908D01*
X160832383Y-148457077D01*
X160799561Y-148467034D01*
X160759287Y-148471000D01*
X159280713Y-148471000D01*
X159240439Y-148467034D01*
X159207617Y-148457077D01*
X159177368Y-148440908D01*
X159150852Y-148419148D01*
X159129092Y-148392632D01*
X159112923Y-148362383D01*
X159102966Y-148329561D01*
X159099000Y-148289287D01*
X159099000Y-146350713D01*
X159102966Y-146310439D01*
X159112923Y-146277617D01*
X159129092Y-146247368D01*
X159150852Y-146220852D01*
X159177368Y-146199092D01*
X159207617Y-146182923D01*
X159240439Y-146172966D01*
X159280713Y-146169000D01*
X160759287Y-146169000D01*
X160799561Y-146172966D01*
X160799561Y-146172966D01*
G37*
G36*
X109999561Y-146172966D02*
G01*
X110032383Y-146182923D01*
X110062632Y-146199092D01*
X110089148Y-146220852D01*
X110110908Y-146247368D01*
X110127077Y-146277617D01*
X110137034Y-146310439D01*
X110141000Y-146350713D01*
X110141000Y-148289287D01*
X110137034Y-148329561D01*
X110127077Y-148362383D01*
X110110908Y-148392632D01*
X110089148Y-148419148D01*
X110062632Y-148440908D01*
X110032383Y-148457077D01*
X109999561Y-148467034D01*
X109959287Y-148471000D01*
X108480713Y-148471000D01*
X108440439Y-148467034D01*
X108407617Y-148457077D01*
X108377368Y-148440908D01*
X108350852Y-148419148D01*
X108329092Y-148392632D01*
X108312923Y-148362383D01*
X108302966Y-148329561D01*
X108299000Y-148289287D01*
X108299000Y-146350713D01*
X108302966Y-146310439D01*
X108312923Y-146277617D01*
X108329092Y-146247368D01*
X108350852Y-146220852D01*
X108377368Y-146199092D01*
X108407617Y-146182923D01*
X108440439Y-146172966D01*
X108480713Y-146169000D01*
X109959287Y-146169000D01*
X109999561Y-146172966D01*
X109999561Y-146172966D01*
G37*
G36*
X147486823Y-140131313D02*
G01*
X147647242Y-140179976D01*
X147714361Y-140215852D01*
X147795078Y-140258996D01*
X147924659Y-140365341D01*
X148031004Y-140494922D01*
X148031005Y-140494924D01*
X148110024Y-140642758D01*
X148158687Y-140803177D01*
X148175117Y-140970000D01*
X148158687Y-141136823D01*
X148110024Y-141297242D01*
X148069477Y-141373100D01*
X148031004Y-141445078D01*
X147924659Y-141574659D01*
X147795078Y-141681004D01*
X147795076Y-141681005D01*
X147647242Y-141760024D01*
X147486823Y-141808687D01*
X147361804Y-141821000D01*
X147278196Y-141821000D01*
X147153177Y-141808687D01*
X146992758Y-141760024D01*
X146844924Y-141681005D01*
X146844922Y-141681004D01*
X146715341Y-141574659D01*
X146608996Y-141445078D01*
X146570523Y-141373100D01*
X146529976Y-141297242D01*
X146481313Y-141136823D01*
X146464883Y-140970000D01*
X146481313Y-140803177D01*
X146529976Y-140642758D01*
X146608995Y-140494924D01*
X146608996Y-140494922D01*
X146715341Y-140365341D01*
X146844922Y-140258996D01*
X146925639Y-140215852D01*
X146992758Y-140179976D01*
X147153177Y-140131313D01*
X147278196Y-140119000D01*
X147361804Y-140119000D01*
X147486823Y-140131313D01*
X147486823Y-140131313D01*
G37*
G36*
X91688228Y-140151703D02*
G01*
X91843100Y-140215853D01*
X91982481Y-140308985D01*
X92101015Y-140427519D01*
X92194147Y-140566900D01*
X92258297Y-140721772D01*
X92291000Y-140886184D01*
X92291000Y-141053816D01*
X92258297Y-141218228D01*
X92194147Y-141373100D01*
X92101015Y-141512481D01*
X91982481Y-141631015D01*
X91843100Y-141724147D01*
X91688228Y-141788297D01*
X91523816Y-141821000D01*
X91356184Y-141821000D01*
X91191772Y-141788297D01*
X91036900Y-141724147D01*
X90897519Y-141631015D01*
X90778985Y-141512481D01*
X90685853Y-141373100D01*
X90621703Y-141218228D01*
X90589000Y-141053816D01*
X90589000Y-140886184D01*
X90621703Y-140721772D01*
X90685853Y-140566900D01*
X90778985Y-140427519D01*
X90897519Y-140308985D01*
X91036900Y-140215853D01*
X91191772Y-140151703D01*
X91356184Y-140119000D01*
X91523816Y-140119000D01*
X91688228Y-140151703D01*
X91688228Y-140151703D01*
G37*
G36*
X83986823Y-140131313D02*
G01*
X84147242Y-140179976D01*
X84214361Y-140215852D01*
X84295078Y-140258996D01*
X84424659Y-140365341D01*
X84531004Y-140494922D01*
X84531005Y-140494924D01*
X84610024Y-140642758D01*
X84658687Y-140803177D01*
X84675117Y-140970000D01*
X84658687Y-141136823D01*
X84610024Y-141297242D01*
X84569477Y-141373100D01*
X84531004Y-141445078D01*
X84424659Y-141574659D01*
X84295078Y-141681004D01*
X84295076Y-141681005D01*
X84147242Y-141760024D01*
X83986823Y-141808687D01*
X83861804Y-141821000D01*
X83778196Y-141821000D01*
X83653177Y-141808687D01*
X83492758Y-141760024D01*
X83344924Y-141681005D01*
X83344922Y-141681004D01*
X83215341Y-141574659D01*
X83108996Y-141445078D01*
X83070523Y-141373100D01*
X83029976Y-141297242D01*
X82981313Y-141136823D01*
X82964883Y-140970000D01*
X82981313Y-140803177D01*
X83029976Y-140642758D01*
X83108995Y-140494924D01*
X83108996Y-140494922D01*
X83215341Y-140365341D01*
X83344922Y-140258996D01*
X83425639Y-140215852D01*
X83492758Y-140179976D01*
X83653177Y-140131313D01*
X83778196Y-140119000D01*
X83861804Y-140119000D01*
X83986823Y-140131313D01*
X83986823Y-140131313D01*
G37*
G36*
X122168228Y-140151703D02*
G01*
X122323100Y-140215853D01*
X122462481Y-140308985D01*
X122581015Y-140427519D01*
X122674147Y-140566900D01*
X122738297Y-140721772D01*
X122771000Y-140886184D01*
X122771000Y-141053816D01*
X122738297Y-141218228D01*
X122674147Y-141373100D01*
X122581015Y-141512481D01*
X122462481Y-141631015D01*
X122323100Y-141724147D01*
X122168228Y-141788297D01*
X122003816Y-141821000D01*
X121836184Y-141821000D01*
X121671772Y-141788297D01*
X121516900Y-141724147D01*
X121377519Y-141631015D01*
X121258985Y-141512481D01*
X121165853Y-141373100D01*
X121101703Y-141218228D01*
X121069000Y-141053816D01*
X121069000Y-140886184D01*
X121101703Y-140721772D01*
X121165853Y-140566900D01*
X121258985Y-140427519D01*
X121377519Y-140308985D01*
X121516900Y-140215853D01*
X121671772Y-140151703D01*
X121836184Y-140119000D01*
X122003816Y-140119000D01*
X122168228Y-140151703D01*
X122168228Y-140151703D01*
G37*
G36*
X114466823Y-140131313D02*
G01*
X114627242Y-140179976D01*
X114694361Y-140215852D01*
X114775078Y-140258996D01*
X114904659Y-140365341D01*
X115011004Y-140494922D01*
X115011005Y-140494924D01*
X115090024Y-140642758D01*
X115138687Y-140803177D01*
X115155117Y-140970000D01*
X115138687Y-141136823D01*
X115090024Y-141297242D01*
X115049477Y-141373100D01*
X115011004Y-141445078D01*
X114904659Y-141574659D01*
X114775078Y-141681004D01*
X114775076Y-141681005D01*
X114627242Y-141760024D01*
X114466823Y-141808687D01*
X114341804Y-141821000D01*
X114258196Y-141821000D01*
X114133177Y-141808687D01*
X113972758Y-141760024D01*
X113824924Y-141681005D01*
X113824922Y-141681004D01*
X113695341Y-141574659D01*
X113588996Y-141445078D01*
X113550523Y-141373100D01*
X113509976Y-141297242D01*
X113461313Y-141136823D01*
X113444883Y-140970000D01*
X113461313Y-140803177D01*
X113509976Y-140642758D01*
X113588995Y-140494924D01*
X113588996Y-140494922D01*
X113695341Y-140365341D01*
X113824922Y-140258996D01*
X113905639Y-140215852D01*
X113972758Y-140179976D01*
X114133177Y-140131313D01*
X114258196Y-140119000D01*
X114341804Y-140119000D01*
X114466823Y-140131313D01*
X114466823Y-140131313D01*
G37*
G36*
X155188228Y-140151703D02*
G01*
X155343100Y-140215853D01*
X155482481Y-140308985D01*
X155601015Y-140427519D01*
X155694147Y-140566900D01*
X155758297Y-140721772D01*
X155791000Y-140886184D01*
X155791000Y-141053816D01*
X155758297Y-141218228D01*
X155694147Y-141373100D01*
X155601015Y-141512481D01*
X155482481Y-141631015D01*
X155343100Y-141724147D01*
X155188228Y-141788297D01*
X155023816Y-141821000D01*
X154856184Y-141821000D01*
X154691772Y-141788297D01*
X154536900Y-141724147D01*
X154397519Y-141631015D01*
X154278985Y-141512481D01*
X154185853Y-141373100D01*
X154121703Y-141218228D01*
X154089000Y-141053816D01*
X154089000Y-140886184D01*
X154121703Y-140721772D01*
X154185853Y-140566900D01*
X154278985Y-140427519D01*
X154397519Y-140308985D01*
X154536900Y-140215853D01*
X154691772Y-140151703D01*
X154856184Y-140119000D01*
X155023816Y-140119000D01*
X155188228Y-140151703D01*
X155188228Y-140151703D01*
G37*
G36*
X110471000Y-140551000D02*
G01*
X107969000Y-140551000D01*
X107969000Y-138849000D01*
X110471000Y-138849000D01*
X110471000Y-140551000D01*
X110471000Y-140551000D01*
G37*
G36*
X163126823Y-138861313D02*
G01*
X163287242Y-138909976D01*
X163419906Y-138980886D01*
X163435078Y-138988996D01*
X163564659Y-139095341D01*
X163671004Y-139224922D01*
X163671005Y-139224924D01*
X163750024Y-139372758D01*
X163798687Y-139533177D01*
X163815117Y-139700000D01*
X163798687Y-139866823D01*
X163750024Y-140027242D01*
X163700978Y-140119000D01*
X163671004Y-140175078D01*
X163564659Y-140304659D01*
X163435078Y-140411004D01*
X163435076Y-140411005D01*
X163287242Y-140490024D01*
X163126823Y-140538687D01*
X163001804Y-140551000D01*
X162118196Y-140551000D01*
X161993177Y-140538687D01*
X161832758Y-140490024D01*
X161684924Y-140411005D01*
X161684922Y-140411004D01*
X161555341Y-140304659D01*
X161448996Y-140175078D01*
X161419022Y-140119000D01*
X161369976Y-140027242D01*
X161321313Y-139866823D01*
X161304883Y-139700000D01*
X161321313Y-139533177D01*
X161369976Y-139372758D01*
X161448995Y-139224924D01*
X161448996Y-139224922D01*
X161555341Y-139095341D01*
X161684922Y-138988996D01*
X161700094Y-138980886D01*
X161832758Y-138909976D01*
X161993177Y-138861313D01*
X162118196Y-138849000D01*
X163001804Y-138849000D01*
X163126823Y-138861313D01*
X163126823Y-138861313D01*
G37*
G36*
X135186823Y-138861313D02*
G01*
X135347242Y-138909976D01*
X135479906Y-138980886D01*
X135495078Y-138988996D01*
X135624659Y-139095341D01*
X135731004Y-139224922D01*
X135731005Y-139224924D01*
X135810024Y-139372758D01*
X135858687Y-139533177D01*
X135875117Y-139700000D01*
X135858687Y-139866823D01*
X135810024Y-140027242D01*
X135760978Y-140119000D01*
X135731004Y-140175078D01*
X135624659Y-140304659D01*
X135495078Y-140411004D01*
X135495076Y-140411005D01*
X135347242Y-140490024D01*
X135186823Y-140538687D01*
X135061804Y-140551000D01*
X134178196Y-140551000D01*
X134053177Y-140538687D01*
X133892758Y-140490024D01*
X133744924Y-140411005D01*
X133744922Y-140411004D01*
X133615341Y-140304659D01*
X133508996Y-140175078D01*
X133479022Y-140119000D01*
X133429976Y-140027242D01*
X133381313Y-139866823D01*
X133364883Y-139700000D01*
X133381313Y-139533177D01*
X133429976Y-139372758D01*
X133508995Y-139224924D01*
X133508996Y-139224922D01*
X133615341Y-139095341D01*
X133744922Y-138988996D01*
X133760094Y-138980886D01*
X133892758Y-138909976D01*
X134053177Y-138861313D01*
X134178196Y-138849000D01*
X135061804Y-138849000D01*
X135186823Y-138861313D01*
X135186823Y-138861313D01*
G37*
G36*
X102166823Y-138861313D02*
G01*
X102327242Y-138909976D01*
X102459906Y-138980886D01*
X102475078Y-138988996D01*
X102604659Y-139095341D01*
X102711004Y-139224922D01*
X102711005Y-139224924D01*
X102790024Y-139372758D01*
X102838687Y-139533177D01*
X102855117Y-139700000D01*
X102838687Y-139866823D01*
X102790024Y-140027242D01*
X102740978Y-140119000D01*
X102711004Y-140175078D01*
X102604659Y-140304659D01*
X102475078Y-140411004D01*
X102475076Y-140411005D01*
X102327242Y-140490024D01*
X102166823Y-140538687D01*
X102041804Y-140551000D01*
X101158196Y-140551000D01*
X101033177Y-140538687D01*
X100872758Y-140490024D01*
X100724924Y-140411005D01*
X100724922Y-140411004D01*
X100595341Y-140304659D01*
X100488996Y-140175078D01*
X100459022Y-140119000D01*
X100409976Y-140027242D01*
X100361313Y-139866823D01*
X100344883Y-139700000D01*
X100361313Y-139533177D01*
X100409976Y-139372758D01*
X100488995Y-139224924D01*
X100488996Y-139224922D01*
X100595341Y-139095341D01*
X100724922Y-138988996D01*
X100740094Y-138980886D01*
X100872758Y-138909976D01*
X101033177Y-138861313D01*
X101158196Y-138849000D01*
X102041804Y-138849000D01*
X102166823Y-138861313D01*
X102166823Y-138861313D01*
G37*
G36*
X171431000Y-140551000D02*
G01*
X168929000Y-140551000D01*
X168929000Y-138849000D01*
X171431000Y-138849000D01*
X171431000Y-140551000D01*
X171431000Y-140551000D01*
G37*
G36*
X143491000Y-140551000D02*
G01*
X140989000Y-140551000D01*
X140989000Y-138849000D01*
X143491000Y-138849000D01*
X143491000Y-140551000D01*
X143491000Y-140551000D01*
G37*
G36*
X122168228Y-136341703D02*
G01*
X122323100Y-136405853D01*
X122462481Y-136498985D01*
X122581015Y-136617519D01*
X122674147Y-136756900D01*
X122738297Y-136911772D01*
X122771000Y-137076184D01*
X122771000Y-137243816D01*
X122738297Y-137408228D01*
X122674147Y-137563100D01*
X122581015Y-137702481D01*
X122462481Y-137821015D01*
X122323100Y-137914147D01*
X122168228Y-137978297D01*
X122003816Y-138011000D01*
X121836184Y-138011000D01*
X121671772Y-137978297D01*
X121516900Y-137914147D01*
X121377519Y-137821015D01*
X121258985Y-137702481D01*
X121165853Y-137563100D01*
X121101703Y-137408228D01*
X121069000Y-137243816D01*
X121069000Y-137076184D01*
X121101703Y-136911772D01*
X121165853Y-136756900D01*
X121258985Y-136617519D01*
X121377519Y-136498985D01*
X121516900Y-136405853D01*
X121671772Y-136341703D01*
X121836184Y-136309000D01*
X122003816Y-136309000D01*
X122168228Y-136341703D01*
X122168228Y-136341703D01*
G37*
G36*
X91688228Y-136341703D02*
G01*
X91843100Y-136405853D01*
X91982481Y-136498985D01*
X92101015Y-136617519D01*
X92194147Y-136756900D01*
X92258297Y-136911772D01*
X92291000Y-137076184D01*
X92291000Y-137243816D01*
X92258297Y-137408228D01*
X92194147Y-137563100D01*
X92101015Y-137702481D01*
X91982481Y-137821015D01*
X91843100Y-137914147D01*
X91688228Y-137978297D01*
X91523816Y-138011000D01*
X91356184Y-138011000D01*
X91191772Y-137978297D01*
X91036900Y-137914147D01*
X90897519Y-137821015D01*
X90778985Y-137702481D01*
X90685853Y-137563100D01*
X90621703Y-137408228D01*
X90589000Y-137243816D01*
X90589000Y-137076184D01*
X90621703Y-136911772D01*
X90685853Y-136756900D01*
X90778985Y-136617519D01*
X90897519Y-136498985D01*
X91036900Y-136405853D01*
X91191772Y-136341703D01*
X91356184Y-136309000D01*
X91523816Y-136309000D01*
X91688228Y-136341703D01*
X91688228Y-136341703D01*
G37*
G36*
X83986823Y-136321313D02*
G01*
X84147242Y-136369976D01*
X84214361Y-136405852D01*
X84295078Y-136448996D01*
X84424659Y-136555341D01*
X84531004Y-136684922D01*
X84531005Y-136684924D01*
X84610024Y-136832758D01*
X84658687Y-136993177D01*
X84675117Y-137160000D01*
X84658687Y-137326823D01*
X84610024Y-137487242D01*
X84569477Y-137563100D01*
X84531004Y-137635078D01*
X84424659Y-137764659D01*
X84295078Y-137871004D01*
X84295076Y-137871005D01*
X84147242Y-137950024D01*
X83986823Y-137998687D01*
X83861804Y-138011000D01*
X83778196Y-138011000D01*
X83653177Y-137998687D01*
X83492758Y-137950024D01*
X83344924Y-137871005D01*
X83344922Y-137871004D01*
X83215341Y-137764659D01*
X83108996Y-137635078D01*
X83070523Y-137563100D01*
X83029976Y-137487242D01*
X82981313Y-137326823D01*
X82964883Y-137160000D01*
X82981313Y-136993177D01*
X83029976Y-136832758D01*
X83108995Y-136684924D01*
X83108996Y-136684922D01*
X83215341Y-136555341D01*
X83344922Y-136448996D01*
X83425639Y-136405852D01*
X83492758Y-136369976D01*
X83653177Y-136321313D01*
X83778196Y-136309000D01*
X83861804Y-136309000D01*
X83986823Y-136321313D01*
X83986823Y-136321313D01*
G37*
G36*
X114466823Y-136321313D02*
G01*
X114627242Y-136369976D01*
X114694361Y-136405852D01*
X114775078Y-136448996D01*
X114904659Y-136555341D01*
X115011004Y-136684922D01*
X115011005Y-136684924D01*
X115090024Y-136832758D01*
X115138687Y-136993177D01*
X115155117Y-137160000D01*
X115138687Y-137326823D01*
X115090024Y-137487242D01*
X115049477Y-137563100D01*
X115011004Y-137635078D01*
X114904659Y-137764659D01*
X114775078Y-137871004D01*
X114775076Y-137871005D01*
X114627242Y-137950024D01*
X114466823Y-137998687D01*
X114341804Y-138011000D01*
X114258196Y-138011000D01*
X114133177Y-137998687D01*
X113972758Y-137950024D01*
X113824924Y-137871005D01*
X113824922Y-137871004D01*
X113695341Y-137764659D01*
X113588996Y-137635078D01*
X113550523Y-137563100D01*
X113509976Y-137487242D01*
X113461313Y-137326823D01*
X113444883Y-137160000D01*
X113461313Y-136993177D01*
X113509976Y-136832758D01*
X113588995Y-136684924D01*
X113588996Y-136684922D01*
X113695341Y-136555341D01*
X113824922Y-136448996D01*
X113905639Y-136405852D01*
X113972758Y-136369976D01*
X114133177Y-136321313D01*
X114258196Y-136309000D01*
X114341804Y-136309000D01*
X114466823Y-136321313D01*
X114466823Y-136321313D01*
G37*
G36*
X147486823Y-136321313D02*
G01*
X147647242Y-136369976D01*
X147714361Y-136405852D01*
X147795078Y-136448996D01*
X147924659Y-136555341D01*
X148031004Y-136684922D01*
X148031005Y-136684924D01*
X148110024Y-136832758D01*
X148158687Y-136993177D01*
X148175117Y-137160000D01*
X148158687Y-137326823D01*
X148110024Y-137487242D01*
X148069477Y-137563100D01*
X148031004Y-137635078D01*
X147924659Y-137764659D01*
X147795078Y-137871004D01*
X147795076Y-137871005D01*
X147647242Y-137950024D01*
X147486823Y-137998687D01*
X147361804Y-138011000D01*
X147278196Y-138011000D01*
X147153177Y-137998687D01*
X146992758Y-137950024D01*
X146844924Y-137871005D01*
X146844922Y-137871004D01*
X146715341Y-137764659D01*
X146608996Y-137635078D01*
X146570523Y-137563100D01*
X146529976Y-137487242D01*
X146481313Y-137326823D01*
X146464883Y-137160000D01*
X146481313Y-136993177D01*
X146529976Y-136832758D01*
X146608995Y-136684924D01*
X146608996Y-136684922D01*
X146715341Y-136555341D01*
X146844922Y-136448996D01*
X146925639Y-136405852D01*
X146992758Y-136369976D01*
X147153177Y-136321313D01*
X147278196Y-136309000D01*
X147361804Y-136309000D01*
X147486823Y-136321313D01*
X147486823Y-136321313D01*
G37*
G36*
X155188228Y-136341703D02*
G01*
X155343100Y-136405853D01*
X155482481Y-136498985D01*
X155601015Y-136617519D01*
X155694147Y-136756900D01*
X155758297Y-136911772D01*
X155791000Y-137076184D01*
X155791000Y-137243816D01*
X155758297Y-137408228D01*
X155694147Y-137563100D01*
X155601015Y-137702481D01*
X155482481Y-137821015D01*
X155343100Y-137914147D01*
X155188228Y-137978297D01*
X155023816Y-138011000D01*
X154856184Y-138011000D01*
X154691772Y-137978297D01*
X154536900Y-137914147D01*
X154397519Y-137821015D01*
X154278985Y-137702481D01*
X154185853Y-137563100D01*
X154121703Y-137408228D01*
X154089000Y-137243816D01*
X154089000Y-137076184D01*
X154121703Y-136911772D01*
X154185853Y-136756900D01*
X154278985Y-136617519D01*
X154397519Y-136498985D01*
X154536900Y-136405853D01*
X154691772Y-136341703D01*
X154856184Y-136309000D01*
X155023816Y-136309000D01*
X155188228Y-136341703D01*
X155188228Y-136341703D01*
G37*
G36*
X109786823Y-136321313D02*
G01*
X109947242Y-136369976D01*
X110014361Y-136405852D01*
X110095078Y-136448996D01*
X110224659Y-136555341D01*
X110331004Y-136684922D01*
X110331005Y-136684924D01*
X110410024Y-136832758D01*
X110458687Y-136993177D01*
X110475117Y-137160000D01*
X110458687Y-137326823D01*
X110410024Y-137487242D01*
X110369477Y-137563100D01*
X110331004Y-137635078D01*
X110224659Y-137764659D01*
X110095078Y-137871004D01*
X110095076Y-137871005D01*
X109947242Y-137950024D01*
X109786823Y-137998687D01*
X109661804Y-138011000D01*
X108778196Y-138011000D01*
X108653177Y-137998687D01*
X108492758Y-137950024D01*
X108344924Y-137871005D01*
X108344922Y-137871004D01*
X108215341Y-137764659D01*
X108108996Y-137635078D01*
X108070523Y-137563100D01*
X108029976Y-137487242D01*
X107981313Y-137326823D01*
X107964883Y-137160000D01*
X107981313Y-136993177D01*
X108029976Y-136832758D01*
X108108995Y-136684924D01*
X108108996Y-136684922D01*
X108215341Y-136555341D01*
X108344922Y-136448996D01*
X108425639Y-136405852D01*
X108492758Y-136369976D01*
X108653177Y-136321313D01*
X108778196Y-136309000D01*
X109661804Y-136309000D01*
X109786823Y-136321313D01*
X109786823Y-136321313D01*
G37*
G36*
X102166823Y-136321313D02*
G01*
X102327242Y-136369976D01*
X102394361Y-136405852D01*
X102475078Y-136448996D01*
X102604659Y-136555341D01*
X102711004Y-136684922D01*
X102711005Y-136684924D01*
X102790024Y-136832758D01*
X102838687Y-136993177D01*
X102855117Y-137160000D01*
X102838687Y-137326823D01*
X102790024Y-137487242D01*
X102749477Y-137563100D01*
X102711004Y-137635078D01*
X102604659Y-137764659D01*
X102475078Y-137871004D01*
X102475076Y-137871005D01*
X102327242Y-137950024D01*
X102166823Y-137998687D01*
X102041804Y-138011000D01*
X101158196Y-138011000D01*
X101033177Y-137998687D01*
X100872758Y-137950024D01*
X100724924Y-137871005D01*
X100724922Y-137871004D01*
X100595341Y-137764659D01*
X100488996Y-137635078D01*
X100450523Y-137563100D01*
X100409976Y-137487242D01*
X100361313Y-137326823D01*
X100344883Y-137160000D01*
X100361313Y-136993177D01*
X100409976Y-136832758D01*
X100488995Y-136684924D01*
X100488996Y-136684922D01*
X100595341Y-136555341D01*
X100724922Y-136448996D01*
X100805639Y-136405852D01*
X100872758Y-136369976D01*
X101033177Y-136321313D01*
X101158196Y-136309000D01*
X102041804Y-136309000D01*
X102166823Y-136321313D01*
X102166823Y-136321313D01*
G37*
G36*
X163126823Y-136321313D02*
G01*
X163287242Y-136369976D01*
X163354361Y-136405852D01*
X163435078Y-136448996D01*
X163564659Y-136555341D01*
X163671004Y-136684922D01*
X163671005Y-136684924D01*
X163750024Y-136832758D01*
X163798687Y-136993177D01*
X163815117Y-137160000D01*
X163798687Y-137326823D01*
X163750024Y-137487242D01*
X163709477Y-137563100D01*
X163671004Y-137635078D01*
X163564659Y-137764659D01*
X163435078Y-137871004D01*
X163435076Y-137871005D01*
X163287242Y-137950024D01*
X163126823Y-137998687D01*
X163001804Y-138011000D01*
X162118196Y-138011000D01*
X161993177Y-137998687D01*
X161832758Y-137950024D01*
X161684924Y-137871005D01*
X161684922Y-137871004D01*
X161555341Y-137764659D01*
X161448996Y-137635078D01*
X161410523Y-137563100D01*
X161369976Y-137487242D01*
X161321313Y-137326823D01*
X161304883Y-137160000D01*
X161321313Y-136993177D01*
X161369976Y-136832758D01*
X161448995Y-136684924D01*
X161448996Y-136684922D01*
X161555341Y-136555341D01*
X161684922Y-136448996D01*
X161765639Y-136405852D01*
X161832758Y-136369976D01*
X161993177Y-136321313D01*
X162118196Y-136309000D01*
X163001804Y-136309000D01*
X163126823Y-136321313D01*
X163126823Y-136321313D01*
G37*
G36*
X170746823Y-136321313D02*
G01*
X170907242Y-136369976D01*
X170974361Y-136405852D01*
X171055078Y-136448996D01*
X171184659Y-136555341D01*
X171291004Y-136684922D01*
X171291005Y-136684924D01*
X171370024Y-136832758D01*
X171418687Y-136993177D01*
X171435117Y-137160000D01*
X171418687Y-137326823D01*
X171370024Y-137487242D01*
X171329477Y-137563100D01*
X171291004Y-137635078D01*
X171184659Y-137764659D01*
X171055078Y-137871004D01*
X171055076Y-137871005D01*
X170907242Y-137950024D01*
X170746823Y-137998687D01*
X170621804Y-138011000D01*
X169738196Y-138011000D01*
X169613177Y-137998687D01*
X169452758Y-137950024D01*
X169304924Y-137871005D01*
X169304922Y-137871004D01*
X169175341Y-137764659D01*
X169068996Y-137635078D01*
X169030523Y-137563100D01*
X168989976Y-137487242D01*
X168941313Y-137326823D01*
X168924883Y-137160000D01*
X168941313Y-136993177D01*
X168989976Y-136832758D01*
X169068995Y-136684924D01*
X169068996Y-136684922D01*
X169175341Y-136555341D01*
X169304922Y-136448996D01*
X169385639Y-136405852D01*
X169452758Y-136369976D01*
X169613177Y-136321313D01*
X169738196Y-136309000D01*
X170621804Y-136309000D01*
X170746823Y-136321313D01*
X170746823Y-136321313D01*
G37*
G36*
X142806823Y-136321313D02*
G01*
X142967242Y-136369976D01*
X143034361Y-136405852D01*
X143115078Y-136448996D01*
X143244659Y-136555341D01*
X143351004Y-136684922D01*
X143351005Y-136684924D01*
X143430024Y-136832758D01*
X143478687Y-136993177D01*
X143495117Y-137160000D01*
X143478687Y-137326823D01*
X143430024Y-137487242D01*
X143389477Y-137563100D01*
X143351004Y-137635078D01*
X143244659Y-137764659D01*
X143115078Y-137871004D01*
X143115076Y-137871005D01*
X142967242Y-137950024D01*
X142806823Y-137998687D01*
X142681804Y-138011000D01*
X141798196Y-138011000D01*
X141673177Y-137998687D01*
X141512758Y-137950024D01*
X141364924Y-137871005D01*
X141364922Y-137871004D01*
X141235341Y-137764659D01*
X141128996Y-137635078D01*
X141090523Y-137563100D01*
X141049976Y-137487242D01*
X141001313Y-137326823D01*
X140984883Y-137160000D01*
X141001313Y-136993177D01*
X141049976Y-136832758D01*
X141128995Y-136684924D01*
X141128996Y-136684922D01*
X141235341Y-136555341D01*
X141364922Y-136448996D01*
X141445639Y-136405852D01*
X141512758Y-136369976D01*
X141673177Y-136321313D01*
X141798196Y-136309000D01*
X142681804Y-136309000D01*
X142806823Y-136321313D01*
X142806823Y-136321313D01*
G37*
G36*
X135186823Y-136321313D02*
G01*
X135347242Y-136369976D01*
X135414361Y-136405852D01*
X135495078Y-136448996D01*
X135624659Y-136555341D01*
X135731004Y-136684922D01*
X135731005Y-136684924D01*
X135810024Y-136832758D01*
X135858687Y-136993177D01*
X135875117Y-137160000D01*
X135858687Y-137326823D01*
X135810024Y-137487242D01*
X135769477Y-137563100D01*
X135731004Y-137635078D01*
X135624659Y-137764659D01*
X135495078Y-137871004D01*
X135495076Y-137871005D01*
X135347242Y-137950024D01*
X135186823Y-137998687D01*
X135061804Y-138011000D01*
X134178196Y-138011000D01*
X134053177Y-137998687D01*
X133892758Y-137950024D01*
X133744924Y-137871005D01*
X133744922Y-137871004D01*
X133615341Y-137764659D01*
X133508996Y-137635078D01*
X133470523Y-137563100D01*
X133429976Y-137487242D01*
X133381313Y-137326823D01*
X133364883Y-137160000D01*
X133381313Y-136993177D01*
X133429976Y-136832758D01*
X133508995Y-136684924D01*
X133508996Y-136684922D01*
X133615341Y-136555341D01*
X133744922Y-136448996D01*
X133825639Y-136405852D01*
X133892758Y-136369976D01*
X134053177Y-136321313D01*
X134178196Y-136309000D01*
X135061804Y-136309000D01*
X135186823Y-136321313D01*
X135186823Y-136321313D01*
G37*
G36*
X142806823Y-133781313D02*
G01*
X142967242Y-133829976D01*
X143099906Y-133900886D01*
X143115078Y-133908996D01*
X143244659Y-134015341D01*
X143351004Y-134144922D01*
X143351005Y-134144924D01*
X143430024Y-134292758D01*
X143478687Y-134453177D01*
X143495117Y-134620000D01*
X143478687Y-134786823D01*
X143430024Y-134947242D01*
X143359114Y-135079906D01*
X143351004Y-135095078D01*
X143244659Y-135224659D01*
X143115078Y-135331004D01*
X143115076Y-135331005D01*
X142967242Y-135410024D01*
X142806823Y-135458687D01*
X142681804Y-135471000D01*
X141798196Y-135471000D01*
X141673177Y-135458687D01*
X141512758Y-135410024D01*
X141364924Y-135331005D01*
X141364922Y-135331004D01*
X141235341Y-135224659D01*
X141128996Y-135095078D01*
X141120886Y-135079906D01*
X141049976Y-134947242D01*
X141001313Y-134786823D01*
X140984883Y-134620000D01*
X141001313Y-134453177D01*
X141049976Y-134292758D01*
X141128995Y-134144924D01*
X141128996Y-134144922D01*
X141235341Y-134015341D01*
X141364922Y-133908996D01*
X141380094Y-133900886D01*
X141512758Y-133829976D01*
X141673177Y-133781313D01*
X141798196Y-133769000D01*
X142681804Y-133769000D01*
X142806823Y-133781313D01*
X142806823Y-133781313D01*
G37*
G36*
X135186823Y-133781313D02*
G01*
X135347242Y-133829976D01*
X135479906Y-133900886D01*
X135495078Y-133908996D01*
X135624659Y-134015341D01*
X135731004Y-134144922D01*
X135731005Y-134144924D01*
X135810024Y-134292758D01*
X135858687Y-134453177D01*
X135875117Y-134620000D01*
X135858687Y-134786823D01*
X135810024Y-134947242D01*
X135739114Y-135079906D01*
X135731004Y-135095078D01*
X135624659Y-135224659D01*
X135495078Y-135331004D01*
X135495076Y-135331005D01*
X135347242Y-135410024D01*
X135186823Y-135458687D01*
X135061804Y-135471000D01*
X134178196Y-135471000D01*
X134053177Y-135458687D01*
X133892758Y-135410024D01*
X133744924Y-135331005D01*
X133744922Y-135331004D01*
X133615341Y-135224659D01*
X133508996Y-135095078D01*
X133500886Y-135079906D01*
X133429976Y-134947242D01*
X133381313Y-134786823D01*
X133364883Y-134620000D01*
X133381313Y-134453177D01*
X133429976Y-134292758D01*
X133508995Y-134144924D01*
X133508996Y-134144922D01*
X133615341Y-134015341D01*
X133744922Y-133908996D01*
X133760094Y-133900886D01*
X133892758Y-133829976D01*
X134053177Y-133781313D01*
X134178196Y-133769000D01*
X135061804Y-133769000D01*
X135186823Y-133781313D01*
X135186823Y-133781313D01*
G37*
G36*
X163126823Y-133781313D02*
G01*
X163287242Y-133829976D01*
X163419906Y-133900886D01*
X163435078Y-133908996D01*
X163564659Y-134015341D01*
X163671004Y-134144922D01*
X163671005Y-134144924D01*
X163750024Y-134292758D01*
X163798687Y-134453177D01*
X163815117Y-134620000D01*
X163798687Y-134786823D01*
X163750024Y-134947242D01*
X163679114Y-135079906D01*
X163671004Y-135095078D01*
X163564659Y-135224659D01*
X163435078Y-135331004D01*
X163435076Y-135331005D01*
X163287242Y-135410024D01*
X163126823Y-135458687D01*
X163001804Y-135471000D01*
X162118196Y-135471000D01*
X161993177Y-135458687D01*
X161832758Y-135410024D01*
X161684924Y-135331005D01*
X161684922Y-135331004D01*
X161555341Y-135224659D01*
X161448996Y-135095078D01*
X161440886Y-135079906D01*
X161369976Y-134947242D01*
X161321313Y-134786823D01*
X161304883Y-134620000D01*
X161321313Y-134453177D01*
X161369976Y-134292758D01*
X161448995Y-134144924D01*
X161448996Y-134144922D01*
X161555341Y-134015341D01*
X161684922Y-133908996D01*
X161700094Y-133900886D01*
X161832758Y-133829976D01*
X161993177Y-133781313D01*
X162118196Y-133769000D01*
X163001804Y-133769000D01*
X163126823Y-133781313D01*
X163126823Y-133781313D01*
G37*
G36*
X109786823Y-133781313D02*
G01*
X109947242Y-133829976D01*
X110079906Y-133900886D01*
X110095078Y-133908996D01*
X110224659Y-134015341D01*
X110331004Y-134144922D01*
X110331005Y-134144924D01*
X110410024Y-134292758D01*
X110458687Y-134453177D01*
X110475117Y-134620000D01*
X110458687Y-134786823D01*
X110410024Y-134947242D01*
X110339114Y-135079906D01*
X110331004Y-135095078D01*
X110224659Y-135224659D01*
X110095078Y-135331004D01*
X110095076Y-135331005D01*
X109947242Y-135410024D01*
X109786823Y-135458687D01*
X109661804Y-135471000D01*
X108778196Y-135471000D01*
X108653177Y-135458687D01*
X108492758Y-135410024D01*
X108344924Y-135331005D01*
X108344922Y-135331004D01*
X108215341Y-135224659D01*
X108108996Y-135095078D01*
X108100886Y-135079906D01*
X108029976Y-134947242D01*
X107981313Y-134786823D01*
X107964883Y-134620000D01*
X107981313Y-134453177D01*
X108029976Y-134292758D01*
X108108995Y-134144924D01*
X108108996Y-134144922D01*
X108215341Y-134015341D01*
X108344922Y-133908996D01*
X108360094Y-133900886D01*
X108492758Y-133829976D01*
X108653177Y-133781313D01*
X108778196Y-133769000D01*
X109661804Y-133769000D01*
X109786823Y-133781313D01*
X109786823Y-133781313D01*
G37*
G36*
X102166823Y-133781313D02*
G01*
X102327242Y-133829976D01*
X102459906Y-133900886D01*
X102475078Y-133908996D01*
X102604659Y-134015341D01*
X102711004Y-134144922D01*
X102711005Y-134144924D01*
X102790024Y-134292758D01*
X102838687Y-134453177D01*
X102855117Y-134620000D01*
X102838687Y-134786823D01*
X102790024Y-134947242D01*
X102719114Y-135079906D01*
X102711004Y-135095078D01*
X102604659Y-135224659D01*
X102475078Y-135331004D01*
X102475076Y-135331005D01*
X102327242Y-135410024D01*
X102166823Y-135458687D01*
X102041804Y-135471000D01*
X101158196Y-135471000D01*
X101033177Y-135458687D01*
X100872758Y-135410024D01*
X100724924Y-135331005D01*
X100724922Y-135331004D01*
X100595341Y-135224659D01*
X100488996Y-135095078D01*
X100480886Y-135079906D01*
X100409976Y-134947242D01*
X100361313Y-134786823D01*
X100344883Y-134620000D01*
X100361313Y-134453177D01*
X100409976Y-134292758D01*
X100488995Y-134144924D01*
X100488996Y-134144922D01*
X100595341Y-134015341D01*
X100724922Y-133908996D01*
X100740094Y-133900886D01*
X100872758Y-133829976D01*
X101033177Y-133781313D01*
X101158196Y-133769000D01*
X102041804Y-133769000D01*
X102166823Y-133781313D01*
X102166823Y-133781313D01*
G37*
G36*
X170746823Y-133781313D02*
G01*
X170907242Y-133829976D01*
X171039906Y-133900886D01*
X171055078Y-133908996D01*
X171184659Y-134015341D01*
X171291004Y-134144922D01*
X171291005Y-134144924D01*
X171370024Y-134292758D01*
X171418687Y-134453177D01*
X171435117Y-134620000D01*
X171418687Y-134786823D01*
X171370024Y-134947242D01*
X171299114Y-135079906D01*
X171291004Y-135095078D01*
X171184659Y-135224659D01*
X171055078Y-135331004D01*
X171055076Y-135331005D01*
X170907242Y-135410024D01*
X170746823Y-135458687D01*
X170621804Y-135471000D01*
X169738196Y-135471000D01*
X169613177Y-135458687D01*
X169452758Y-135410024D01*
X169304924Y-135331005D01*
X169304922Y-135331004D01*
X169175341Y-135224659D01*
X169068996Y-135095078D01*
X169060886Y-135079906D01*
X168989976Y-134947242D01*
X168941313Y-134786823D01*
X168924883Y-134620000D01*
X168941313Y-134453177D01*
X168989976Y-134292758D01*
X169068995Y-134144924D01*
X169068996Y-134144922D01*
X169175341Y-134015341D01*
X169304922Y-133908996D01*
X169320094Y-133900886D01*
X169452758Y-133829976D01*
X169613177Y-133781313D01*
X169738196Y-133769000D01*
X170621804Y-133769000D01*
X170746823Y-133781313D01*
X170746823Y-133781313D01*
G37*
G36*
X102166823Y-131241313D02*
G01*
X102327242Y-131289976D01*
X102459906Y-131360886D01*
X102475078Y-131368996D01*
X102604659Y-131475341D01*
X102711004Y-131604922D01*
X102711005Y-131604924D01*
X102790024Y-131752758D01*
X102838687Y-131913177D01*
X102855117Y-132080000D01*
X102838687Y-132246823D01*
X102790024Y-132407242D01*
X102726283Y-132526492D01*
X102711004Y-132555078D01*
X102604659Y-132684659D01*
X102475078Y-132791004D01*
X102475076Y-132791005D01*
X102327242Y-132870024D01*
X102166823Y-132918687D01*
X102041804Y-132931000D01*
X101158196Y-132931000D01*
X101033177Y-132918687D01*
X100872758Y-132870024D01*
X100724924Y-132791005D01*
X100724922Y-132791004D01*
X100595341Y-132684659D01*
X100488996Y-132555078D01*
X100473717Y-132526492D01*
X100409976Y-132407242D01*
X100361313Y-132246823D01*
X100344883Y-132080000D01*
X100361313Y-131913177D01*
X100409976Y-131752758D01*
X100488995Y-131604924D01*
X100488996Y-131604922D01*
X100595341Y-131475341D01*
X100724922Y-131368996D01*
X100740094Y-131360886D01*
X100872758Y-131289976D01*
X101033177Y-131241313D01*
X101158196Y-131229000D01*
X102041804Y-131229000D01*
X102166823Y-131241313D01*
X102166823Y-131241313D01*
G37*
G36*
X109786823Y-131241313D02*
G01*
X109947242Y-131289976D01*
X110079906Y-131360886D01*
X110095078Y-131368996D01*
X110224659Y-131475341D01*
X110331004Y-131604922D01*
X110331005Y-131604924D01*
X110410024Y-131752758D01*
X110458687Y-131913177D01*
X110475117Y-132080000D01*
X110458687Y-132246823D01*
X110410024Y-132407242D01*
X110346283Y-132526492D01*
X110331004Y-132555078D01*
X110224659Y-132684659D01*
X110095078Y-132791004D01*
X110095076Y-132791005D01*
X109947242Y-132870024D01*
X109786823Y-132918687D01*
X109661804Y-132931000D01*
X108778196Y-132931000D01*
X108653177Y-132918687D01*
X108492758Y-132870024D01*
X108344924Y-132791005D01*
X108344922Y-132791004D01*
X108215341Y-132684659D01*
X108108996Y-132555078D01*
X108093717Y-132526492D01*
X108029976Y-132407242D01*
X107981313Y-132246823D01*
X107964883Y-132080000D01*
X107981313Y-131913177D01*
X108029976Y-131752758D01*
X108108995Y-131604924D01*
X108108996Y-131604922D01*
X108215341Y-131475341D01*
X108344922Y-131368996D01*
X108360094Y-131360886D01*
X108492758Y-131289976D01*
X108653177Y-131241313D01*
X108778196Y-131229000D01*
X109661804Y-131229000D01*
X109786823Y-131241313D01*
X109786823Y-131241313D01*
G37*
G36*
X142806823Y-131241313D02*
G01*
X142967242Y-131289976D01*
X143099906Y-131360886D01*
X143115078Y-131368996D01*
X143244659Y-131475341D01*
X143351004Y-131604922D01*
X143351005Y-131604924D01*
X143430024Y-131752758D01*
X143478687Y-131913177D01*
X143495117Y-132080000D01*
X143478687Y-132246823D01*
X143430024Y-132407242D01*
X143366283Y-132526492D01*
X143351004Y-132555078D01*
X143244659Y-132684659D01*
X143115078Y-132791004D01*
X143115076Y-132791005D01*
X142967242Y-132870024D01*
X142806823Y-132918687D01*
X142681804Y-132931000D01*
X141798196Y-132931000D01*
X141673177Y-132918687D01*
X141512758Y-132870024D01*
X141364924Y-132791005D01*
X141364922Y-132791004D01*
X141235341Y-132684659D01*
X141128996Y-132555078D01*
X141113717Y-132526492D01*
X141049976Y-132407242D01*
X141001313Y-132246823D01*
X140984883Y-132080000D01*
X141001313Y-131913177D01*
X141049976Y-131752758D01*
X141128995Y-131604924D01*
X141128996Y-131604922D01*
X141235341Y-131475341D01*
X141364922Y-131368996D01*
X141380094Y-131360886D01*
X141512758Y-131289976D01*
X141673177Y-131241313D01*
X141798196Y-131229000D01*
X142681804Y-131229000D01*
X142806823Y-131241313D01*
X142806823Y-131241313D01*
G37*
G36*
X163126823Y-131241313D02*
G01*
X163287242Y-131289976D01*
X163419906Y-131360886D01*
X163435078Y-131368996D01*
X163564659Y-131475341D01*
X163671004Y-131604922D01*
X163671005Y-131604924D01*
X163750024Y-131752758D01*
X163798687Y-131913177D01*
X163815117Y-132080000D01*
X163798687Y-132246823D01*
X163750024Y-132407242D01*
X163686283Y-132526492D01*
X163671004Y-132555078D01*
X163564659Y-132684659D01*
X163435078Y-132791004D01*
X163435076Y-132791005D01*
X163287242Y-132870024D01*
X163126823Y-132918687D01*
X163001804Y-132931000D01*
X162118196Y-132931000D01*
X161993177Y-132918687D01*
X161832758Y-132870024D01*
X161684924Y-132791005D01*
X161684922Y-132791004D01*
X161555341Y-132684659D01*
X161448996Y-132555078D01*
X161433717Y-132526492D01*
X161369976Y-132407242D01*
X161321313Y-132246823D01*
X161304883Y-132080000D01*
X161321313Y-131913177D01*
X161369976Y-131752758D01*
X161448995Y-131604924D01*
X161448996Y-131604922D01*
X161555341Y-131475341D01*
X161684922Y-131368996D01*
X161700094Y-131360886D01*
X161832758Y-131289976D01*
X161993177Y-131241313D01*
X162118196Y-131229000D01*
X163001804Y-131229000D01*
X163126823Y-131241313D01*
X163126823Y-131241313D01*
G37*
G36*
X170746823Y-131241313D02*
G01*
X170907242Y-131289976D01*
X171039906Y-131360886D01*
X171055078Y-131368996D01*
X171184659Y-131475341D01*
X171291004Y-131604922D01*
X171291005Y-131604924D01*
X171370024Y-131752758D01*
X171418687Y-131913177D01*
X171435117Y-132080000D01*
X171418687Y-132246823D01*
X171370024Y-132407242D01*
X171306283Y-132526492D01*
X171291004Y-132555078D01*
X171184659Y-132684659D01*
X171055078Y-132791004D01*
X171055076Y-132791005D01*
X170907242Y-132870024D01*
X170746823Y-132918687D01*
X170621804Y-132931000D01*
X169738196Y-132931000D01*
X169613177Y-132918687D01*
X169452758Y-132870024D01*
X169304924Y-132791005D01*
X169304922Y-132791004D01*
X169175341Y-132684659D01*
X169068996Y-132555078D01*
X169053717Y-132526492D01*
X168989976Y-132407242D01*
X168941313Y-132246823D01*
X168924883Y-132080000D01*
X168941313Y-131913177D01*
X168989976Y-131752758D01*
X169068995Y-131604924D01*
X169068996Y-131604922D01*
X169175341Y-131475341D01*
X169304922Y-131368996D01*
X169320094Y-131360886D01*
X169452758Y-131289976D01*
X169613177Y-131241313D01*
X169738196Y-131229000D01*
X170621804Y-131229000D01*
X170746823Y-131241313D01*
X170746823Y-131241313D01*
G37*
G36*
X135186823Y-131241313D02*
G01*
X135347242Y-131289976D01*
X135479906Y-131360886D01*
X135495078Y-131368996D01*
X135624659Y-131475341D01*
X135731004Y-131604922D01*
X135731005Y-131604924D01*
X135810024Y-131752758D01*
X135858687Y-131913177D01*
X135875117Y-132080000D01*
X135858687Y-132246823D01*
X135810024Y-132407242D01*
X135746283Y-132526492D01*
X135731004Y-132555078D01*
X135624659Y-132684659D01*
X135495078Y-132791004D01*
X135495076Y-132791005D01*
X135347242Y-132870024D01*
X135186823Y-132918687D01*
X135061804Y-132931000D01*
X134178196Y-132931000D01*
X134053177Y-132918687D01*
X133892758Y-132870024D01*
X133744924Y-132791005D01*
X133744922Y-132791004D01*
X133615341Y-132684659D01*
X133508996Y-132555078D01*
X133493717Y-132526492D01*
X133429976Y-132407242D01*
X133381313Y-132246823D01*
X133364883Y-132080000D01*
X133381313Y-131913177D01*
X133429976Y-131752758D01*
X133508995Y-131604924D01*
X133508996Y-131604922D01*
X133615341Y-131475341D01*
X133744922Y-131368996D01*
X133760094Y-131360886D01*
X133892758Y-131289976D01*
X134053177Y-131241313D01*
X134178196Y-131229000D01*
X135061804Y-131229000D01*
X135186823Y-131241313D01*
X135186823Y-131241313D01*
G37*
G36*
X149972915Y-131287334D02*
G01*
X150081491Y-131320271D01*
X150081494Y-131320272D01*
X150117600Y-131339571D01*
X150181556Y-131373756D01*
X150269264Y-131445736D01*
X150341244Y-131533443D01*
X150375429Y-131597399D01*
X150394728Y-131633505D01*
X150394729Y-131633508D01*
X150427666Y-131742084D01*
X150436000Y-131826702D01*
X150436000Y-132333297D01*
X150427666Y-132417916D01*
X150395252Y-132524767D01*
X150394728Y-132526495D01*
X150384761Y-132545141D01*
X150341244Y-132626557D01*
X150269264Y-132714264D01*
X150181557Y-132786244D01*
X150117601Y-132820429D01*
X150081495Y-132839728D01*
X150081492Y-132839729D01*
X149972916Y-132872666D01*
X149860000Y-132883787D01*
X149747085Y-132872666D01*
X149638509Y-132839729D01*
X149638506Y-132839728D01*
X149602400Y-132820429D01*
X149538444Y-132786244D01*
X149450737Y-132714264D01*
X149378757Y-132626557D01*
X149360426Y-132592263D01*
X149335239Y-132545141D01*
X149321625Y-132524766D01*
X149304298Y-132507439D01*
X149283924Y-132493826D01*
X149261285Y-132484448D01*
X149237252Y-132479668D01*
X149212748Y-132479668D01*
X149188715Y-132484448D01*
X149166076Y-132493826D01*
X149145701Y-132507440D01*
X149128374Y-132524767D01*
X149114761Y-132545141D01*
X149071244Y-132626557D01*
X148999264Y-132714264D01*
X148911557Y-132786244D01*
X148847601Y-132820429D01*
X148811495Y-132839728D01*
X148811492Y-132839729D01*
X148702916Y-132872666D01*
X148590000Y-132883787D01*
X148477085Y-132872666D01*
X148368509Y-132839729D01*
X148368506Y-132839728D01*
X148332400Y-132820429D01*
X148268444Y-132786244D01*
X148180737Y-132714264D01*
X148117622Y-132637359D01*
X148100297Y-132620034D01*
X148079923Y-132606420D01*
X148057284Y-132597043D01*
X148033250Y-132592263D01*
X148008746Y-132592263D01*
X147984713Y-132597044D01*
X147962074Y-132606421D01*
X147941700Y-132620035D01*
X147924373Y-132637362D01*
X147910759Y-132657736D01*
X147901382Y-132680375D01*
X147896000Y-132716660D01*
X147896000Y-132881000D01*
X146744000Y-132881000D01*
X146744000Y-131279000D01*
X147896000Y-131279000D01*
X147896000Y-131443341D01*
X147898402Y-131467727D01*
X147905515Y-131491176D01*
X147917066Y-131512787D01*
X147932611Y-131531729D01*
X147951553Y-131547274D01*
X147973164Y-131558825D01*
X147996613Y-131565938D01*
X148020999Y-131568340D01*
X148045385Y-131565938D01*
X148068834Y-131558825D01*
X148090445Y-131547274D01*
X148109387Y-131531729D01*
X148117608Y-131522657D01*
X148180736Y-131445736D01*
X148268443Y-131373756D01*
X148332399Y-131339571D01*
X148368505Y-131320272D01*
X148368508Y-131320271D01*
X148477084Y-131287334D01*
X148590000Y-131276213D01*
X148702915Y-131287334D01*
X148811491Y-131320271D01*
X148811494Y-131320272D01*
X148847600Y-131339571D01*
X148911556Y-131373756D01*
X148999264Y-131445736D01*
X149071244Y-131533443D01*
X149109450Y-131604922D01*
X149114761Y-131614859D01*
X149128375Y-131635234D01*
X149145702Y-131652561D01*
X149166076Y-131666174D01*
X149188715Y-131675552D01*
X149212748Y-131680332D01*
X149237252Y-131680332D01*
X149261285Y-131675552D01*
X149283924Y-131666174D01*
X149304299Y-131652560D01*
X149321626Y-131635233D01*
X149335239Y-131614860D01*
X149378756Y-131533444D01*
X149450736Y-131445736D01*
X149538443Y-131373756D01*
X149602399Y-131339571D01*
X149638505Y-131320272D01*
X149638508Y-131320271D01*
X149747084Y-131287334D01*
X149860000Y-131276213D01*
X149972915Y-131287334D01*
X149972915Y-131287334D01*
G37*
G36*
X157592915Y-131287334D02*
G01*
X157701491Y-131320271D01*
X157701494Y-131320272D01*
X157737600Y-131339571D01*
X157801556Y-131373756D01*
X157889264Y-131445736D01*
X157961244Y-131533443D01*
X157995429Y-131597399D01*
X158014728Y-131633505D01*
X158014729Y-131633508D01*
X158047666Y-131742084D01*
X158056000Y-131826702D01*
X158056000Y-132333297D01*
X158047666Y-132417916D01*
X158015252Y-132524767D01*
X158014728Y-132526495D01*
X158004761Y-132545141D01*
X157961244Y-132626557D01*
X157889264Y-132714264D01*
X157801557Y-132786244D01*
X157737601Y-132820429D01*
X157701495Y-132839728D01*
X157701492Y-132839729D01*
X157592916Y-132872666D01*
X157480000Y-132883787D01*
X157367085Y-132872666D01*
X157258509Y-132839729D01*
X157258506Y-132839728D01*
X157222400Y-132820429D01*
X157158444Y-132786244D01*
X157070737Y-132714264D01*
X156998757Y-132626557D01*
X156980426Y-132592263D01*
X156955239Y-132545141D01*
X156941625Y-132524766D01*
X156924298Y-132507439D01*
X156903924Y-132493826D01*
X156881285Y-132484448D01*
X156857252Y-132479668D01*
X156832748Y-132479668D01*
X156808715Y-132484448D01*
X156786076Y-132493826D01*
X156765701Y-132507440D01*
X156748374Y-132524767D01*
X156734761Y-132545141D01*
X156691244Y-132626557D01*
X156619264Y-132714264D01*
X156531557Y-132786244D01*
X156467601Y-132820429D01*
X156431495Y-132839728D01*
X156431492Y-132839729D01*
X156322916Y-132872666D01*
X156210000Y-132883787D01*
X156097085Y-132872666D01*
X155988509Y-132839729D01*
X155988506Y-132839728D01*
X155952400Y-132820429D01*
X155888444Y-132786244D01*
X155800737Y-132714264D01*
X155737622Y-132637359D01*
X155720297Y-132620034D01*
X155699923Y-132606420D01*
X155677284Y-132597043D01*
X155653250Y-132592263D01*
X155628746Y-132592263D01*
X155604713Y-132597044D01*
X155582074Y-132606421D01*
X155561700Y-132620035D01*
X155544373Y-132637362D01*
X155530759Y-132657736D01*
X155521382Y-132680375D01*
X155516000Y-132716660D01*
X155516000Y-132881000D01*
X154364000Y-132881000D01*
X154364000Y-131279000D01*
X155516000Y-131279000D01*
X155516000Y-131443341D01*
X155518402Y-131467727D01*
X155525515Y-131491176D01*
X155537066Y-131512787D01*
X155552611Y-131531729D01*
X155571553Y-131547274D01*
X155593164Y-131558825D01*
X155616613Y-131565938D01*
X155640999Y-131568340D01*
X155665385Y-131565938D01*
X155688834Y-131558825D01*
X155710445Y-131547274D01*
X155729387Y-131531729D01*
X155737608Y-131522657D01*
X155800736Y-131445736D01*
X155888443Y-131373756D01*
X155952399Y-131339571D01*
X155988505Y-131320272D01*
X155988508Y-131320271D01*
X156097084Y-131287334D01*
X156210000Y-131276213D01*
X156322915Y-131287334D01*
X156431491Y-131320271D01*
X156431494Y-131320272D01*
X156467600Y-131339571D01*
X156531556Y-131373756D01*
X156619264Y-131445736D01*
X156691244Y-131533443D01*
X156729450Y-131604922D01*
X156734761Y-131614859D01*
X156748375Y-131635234D01*
X156765702Y-131652561D01*
X156786076Y-131666174D01*
X156808715Y-131675552D01*
X156832748Y-131680332D01*
X156857252Y-131680332D01*
X156881285Y-131675552D01*
X156903924Y-131666174D01*
X156924299Y-131652560D01*
X156941626Y-131635233D01*
X156955239Y-131614860D01*
X156998756Y-131533444D01*
X157070736Y-131445736D01*
X157158443Y-131373756D01*
X157222399Y-131339571D01*
X157258505Y-131320272D01*
X157258508Y-131320271D01*
X157367084Y-131287334D01*
X157480000Y-131276213D01*
X157592915Y-131287334D01*
X157592915Y-131287334D01*
G37*
G36*
X86472915Y-131287334D02*
G01*
X86581491Y-131320271D01*
X86581494Y-131320272D01*
X86617600Y-131339571D01*
X86681556Y-131373756D01*
X86769264Y-131445736D01*
X86841244Y-131533443D01*
X86875429Y-131597399D01*
X86894728Y-131633505D01*
X86894729Y-131633508D01*
X86927666Y-131742084D01*
X86936000Y-131826702D01*
X86936000Y-132333297D01*
X86927666Y-132417916D01*
X86895252Y-132524767D01*
X86894728Y-132526495D01*
X86884761Y-132545141D01*
X86841244Y-132626557D01*
X86769264Y-132714264D01*
X86681557Y-132786244D01*
X86617601Y-132820429D01*
X86581495Y-132839728D01*
X86581492Y-132839729D01*
X86472916Y-132872666D01*
X86360000Y-132883787D01*
X86247085Y-132872666D01*
X86138509Y-132839729D01*
X86138506Y-132839728D01*
X86102400Y-132820429D01*
X86038444Y-132786244D01*
X85950737Y-132714264D01*
X85878757Y-132626557D01*
X85860426Y-132592263D01*
X85835239Y-132545141D01*
X85821625Y-132524766D01*
X85804298Y-132507439D01*
X85783924Y-132493826D01*
X85761285Y-132484448D01*
X85737252Y-132479668D01*
X85712748Y-132479668D01*
X85688715Y-132484448D01*
X85666076Y-132493826D01*
X85645701Y-132507440D01*
X85628374Y-132524767D01*
X85614761Y-132545141D01*
X85571244Y-132626557D01*
X85499264Y-132714264D01*
X85411557Y-132786244D01*
X85347601Y-132820429D01*
X85311495Y-132839728D01*
X85311492Y-132839729D01*
X85202916Y-132872666D01*
X85090000Y-132883787D01*
X84977085Y-132872666D01*
X84868509Y-132839729D01*
X84868506Y-132839728D01*
X84832400Y-132820429D01*
X84768444Y-132786244D01*
X84680737Y-132714264D01*
X84617622Y-132637359D01*
X84600297Y-132620034D01*
X84579923Y-132606420D01*
X84557284Y-132597043D01*
X84533250Y-132592263D01*
X84508746Y-132592263D01*
X84484713Y-132597044D01*
X84462074Y-132606421D01*
X84441700Y-132620035D01*
X84424373Y-132637362D01*
X84410759Y-132657736D01*
X84401382Y-132680375D01*
X84396000Y-132716660D01*
X84396000Y-132881000D01*
X83244000Y-132881000D01*
X83244000Y-131279000D01*
X84396000Y-131279000D01*
X84396000Y-131443341D01*
X84398402Y-131467727D01*
X84405515Y-131491176D01*
X84417066Y-131512787D01*
X84432611Y-131531729D01*
X84451553Y-131547274D01*
X84473164Y-131558825D01*
X84496613Y-131565938D01*
X84520999Y-131568340D01*
X84545385Y-131565938D01*
X84568834Y-131558825D01*
X84590445Y-131547274D01*
X84609387Y-131531729D01*
X84617608Y-131522657D01*
X84680736Y-131445736D01*
X84768443Y-131373756D01*
X84832399Y-131339571D01*
X84868505Y-131320272D01*
X84868508Y-131320271D01*
X84977084Y-131287334D01*
X85090000Y-131276213D01*
X85202915Y-131287334D01*
X85311491Y-131320271D01*
X85311494Y-131320272D01*
X85347600Y-131339571D01*
X85411556Y-131373756D01*
X85499264Y-131445736D01*
X85571244Y-131533443D01*
X85609450Y-131604922D01*
X85614761Y-131614859D01*
X85628375Y-131635234D01*
X85645702Y-131652561D01*
X85666076Y-131666174D01*
X85688715Y-131675552D01*
X85712748Y-131680332D01*
X85737252Y-131680332D01*
X85761285Y-131675552D01*
X85783924Y-131666174D01*
X85804299Y-131652560D01*
X85821626Y-131635233D01*
X85835239Y-131614860D01*
X85878756Y-131533444D01*
X85950736Y-131445736D01*
X86038443Y-131373756D01*
X86102399Y-131339571D01*
X86138505Y-131320272D01*
X86138508Y-131320271D01*
X86247084Y-131287334D01*
X86360000Y-131276213D01*
X86472915Y-131287334D01*
X86472915Y-131287334D01*
G37*
G36*
X94092915Y-131287334D02*
G01*
X94201491Y-131320271D01*
X94201494Y-131320272D01*
X94237600Y-131339571D01*
X94301556Y-131373756D01*
X94389264Y-131445736D01*
X94461244Y-131533443D01*
X94495429Y-131597399D01*
X94514728Y-131633505D01*
X94514729Y-131633508D01*
X94547666Y-131742084D01*
X94556000Y-131826702D01*
X94556000Y-132333297D01*
X94547666Y-132417916D01*
X94515252Y-132524767D01*
X94514728Y-132526495D01*
X94504761Y-132545141D01*
X94461244Y-132626557D01*
X94389264Y-132714264D01*
X94301557Y-132786244D01*
X94237601Y-132820429D01*
X94201495Y-132839728D01*
X94201492Y-132839729D01*
X94092916Y-132872666D01*
X93980000Y-132883787D01*
X93867085Y-132872666D01*
X93758509Y-132839729D01*
X93758506Y-132839728D01*
X93722400Y-132820429D01*
X93658444Y-132786244D01*
X93570737Y-132714264D01*
X93498757Y-132626557D01*
X93480426Y-132592263D01*
X93455239Y-132545141D01*
X93441625Y-132524766D01*
X93424298Y-132507439D01*
X93403924Y-132493826D01*
X93381285Y-132484448D01*
X93357252Y-132479668D01*
X93332748Y-132479668D01*
X93308715Y-132484448D01*
X93286076Y-132493826D01*
X93265701Y-132507440D01*
X93248374Y-132524767D01*
X93234761Y-132545141D01*
X93191244Y-132626557D01*
X93119264Y-132714264D01*
X93031557Y-132786244D01*
X92967601Y-132820429D01*
X92931495Y-132839728D01*
X92931492Y-132839729D01*
X92822916Y-132872666D01*
X92710000Y-132883787D01*
X92597085Y-132872666D01*
X92488509Y-132839729D01*
X92488506Y-132839728D01*
X92452400Y-132820429D01*
X92388444Y-132786244D01*
X92300737Y-132714264D01*
X92237622Y-132637359D01*
X92220297Y-132620034D01*
X92199923Y-132606420D01*
X92177284Y-132597043D01*
X92153250Y-132592263D01*
X92128746Y-132592263D01*
X92104713Y-132597044D01*
X92082074Y-132606421D01*
X92061700Y-132620035D01*
X92044373Y-132637362D01*
X92030759Y-132657736D01*
X92021382Y-132680375D01*
X92016000Y-132716660D01*
X92016000Y-132881000D01*
X90864000Y-132881000D01*
X90864000Y-131279000D01*
X92016000Y-131279000D01*
X92016000Y-131443341D01*
X92018402Y-131467727D01*
X92025515Y-131491176D01*
X92037066Y-131512787D01*
X92052611Y-131531729D01*
X92071553Y-131547274D01*
X92093164Y-131558825D01*
X92116613Y-131565938D01*
X92140999Y-131568340D01*
X92165385Y-131565938D01*
X92188834Y-131558825D01*
X92210445Y-131547274D01*
X92229387Y-131531729D01*
X92237608Y-131522657D01*
X92300736Y-131445736D01*
X92388443Y-131373756D01*
X92452399Y-131339571D01*
X92488505Y-131320272D01*
X92488508Y-131320271D01*
X92597084Y-131287334D01*
X92710000Y-131276213D01*
X92822915Y-131287334D01*
X92931491Y-131320271D01*
X92931494Y-131320272D01*
X92967600Y-131339571D01*
X93031556Y-131373756D01*
X93119264Y-131445736D01*
X93191244Y-131533443D01*
X93229450Y-131604922D01*
X93234761Y-131614859D01*
X93248375Y-131635234D01*
X93265702Y-131652561D01*
X93286076Y-131666174D01*
X93308715Y-131675552D01*
X93332748Y-131680332D01*
X93357252Y-131680332D01*
X93381285Y-131675552D01*
X93403924Y-131666174D01*
X93424299Y-131652560D01*
X93441626Y-131635233D01*
X93455239Y-131614860D01*
X93498756Y-131533444D01*
X93570736Y-131445736D01*
X93658443Y-131373756D01*
X93722399Y-131339571D01*
X93758505Y-131320272D01*
X93758508Y-131320271D01*
X93867084Y-131287334D01*
X93980000Y-131276213D01*
X94092915Y-131287334D01*
X94092915Y-131287334D01*
G37*
G36*
X116952915Y-131287334D02*
G01*
X117061491Y-131320271D01*
X117061494Y-131320272D01*
X117097600Y-131339571D01*
X117161556Y-131373756D01*
X117249264Y-131445736D01*
X117321244Y-131533443D01*
X117355429Y-131597399D01*
X117374728Y-131633505D01*
X117374729Y-131633508D01*
X117407666Y-131742084D01*
X117416000Y-131826702D01*
X117416000Y-132333297D01*
X117407666Y-132417916D01*
X117375252Y-132524767D01*
X117374728Y-132526495D01*
X117364761Y-132545141D01*
X117321244Y-132626557D01*
X117249264Y-132714264D01*
X117161557Y-132786244D01*
X117097601Y-132820429D01*
X117061495Y-132839728D01*
X117061492Y-132839729D01*
X116952916Y-132872666D01*
X116840000Y-132883787D01*
X116727085Y-132872666D01*
X116618509Y-132839729D01*
X116618506Y-132839728D01*
X116582400Y-132820429D01*
X116518444Y-132786244D01*
X116430737Y-132714264D01*
X116358757Y-132626557D01*
X116340426Y-132592263D01*
X116315239Y-132545141D01*
X116301625Y-132524766D01*
X116284298Y-132507439D01*
X116263924Y-132493826D01*
X116241285Y-132484448D01*
X116217252Y-132479668D01*
X116192748Y-132479668D01*
X116168715Y-132484448D01*
X116146076Y-132493826D01*
X116125701Y-132507440D01*
X116108374Y-132524767D01*
X116094761Y-132545141D01*
X116051244Y-132626557D01*
X115979264Y-132714264D01*
X115891557Y-132786244D01*
X115827601Y-132820429D01*
X115791495Y-132839728D01*
X115791492Y-132839729D01*
X115682916Y-132872666D01*
X115570000Y-132883787D01*
X115457085Y-132872666D01*
X115348509Y-132839729D01*
X115348506Y-132839728D01*
X115312400Y-132820429D01*
X115248444Y-132786244D01*
X115160737Y-132714264D01*
X115097622Y-132637359D01*
X115080297Y-132620034D01*
X115059923Y-132606420D01*
X115037284Y-132597043D01*
X115013250Y-132592263D01*
X114988746Y-132592263D01*
X114964713Y-132597044D01*
X114942074Y-132606421D01*
X114921700Y-132620035D01*
X114904373Y-132637362D01*
X114890759Y-132657736D01*
X114881382Y-132680375D01*
X114876000Y-132716660D01*
X114876000Y-132881000D01*
X113724000Y-132881000D01*
X113724000Y-131279000D01*
X114876000Y-131279000D01*
X114876000Y-131443341D01*
X114878402Y-131467727D01*
X114885515Y-131491176D01*
X114897066Y-131512787D01*
X114912611Y-131531729D01*
X114931553Y-131547274D01*
X114953164Y-131558825D01*
X114976613Y-131565938D01*
X115000999Y-131568340D01*
X115025385Y-131565938D01*
X115048834Y-131558825D01*
X115070445Y-131547274D01*
X115089387Y-131531729D01*
X115097608Y-131522657D01*
X115160736Y-131445736D01*
X115248443Y-131373756D01*
X115312399Y-131339571D01*
X115348505Y-131320272D01*
X115348508Y-131320271D01*
X115457084Y-131287334D01*
X115570000Y-131276213D01*
X115682915Y-131287334D01*
X115791491Y-131320271D01*
X115791494Y-131320272D01*
X115827600Y-131339571D01*
X115891556Y-131373756D01*
X115979264Y-131445736D01*
X116051244Y-131533443D01*
X116089450Y-131604922D01*
X116094761Y-131614859D01*
X116108375Y-131635234D01*
X116125702Y-131652561D01*
X116146076Y-131666174D01*
X116168715Y-131675552D01*
X116192748Y-131680332D01*
X116217252Y-131680332D01*
X116241285Y-131675552D01*
X116263924Y-131666174D01*
X116284299Y-131652560D01*
X116301626Y-131635233D01*
X116315239Y-131614860D01*
X116358756Y-131533444D01*
X116430736Y-131445736D01*
X116518443Y-131373756D01*
X116582399Y-131339571D01*
X116618505Y-131320272D01*
X116618508Y-131320271D01*
X116727084Y-131287334D01*
X116840000Y-131276213D01*
X116952915Y-131287334D01*
X116952915Y-131287334D01*
G37*
G36*
X124572915Y-131287334D02*
G01*
X124681491Y-131320271D01*
X124681494Y-131320272D01*
X124717600Y-131339571D01*
X124781556Y-131373756D01*
X124869264Y-131445736D01*
X124941244Y-131533443D01*
X124975429Y-131597399D01*
X124994728Y-131633505D01*
X124994729Y-131633508D01*
X125027666Y-131742084D01*
X125036000Y-131826702D01*
X125036000Y-132333297D01*
X125027666Y-132417916D01*
X124995252Y-132524767D01*
X124994728Y-132526495D01*
X124984761Y-132545141D01*
X124941244Y-132626557D01*
X124869264Y-132714264D01*
X124781557Y-132786244D01*
X124717601Y-132820429D01*
X124681495Y-132839728D01*
X124681492Y-132839729D01*
X124572916Y-132872666D01*
X124460000Y-132883787D01*
X124347085Y-132872666D01*
X124238509Y-132839729D01*
X124238506Y-132839728D01*
X124202400Y-132820429D01*
X124138444Y-132786244D01*
X124050737Y-132714264D01*
X123978757Y-132626557D01*
X123960426Y-132592263D01*
X123935239Y-132545141D01*
X123921625Y-132524766D01*
X123904298Y-132507439D01*
X123883924Y-132493826D01*
X123861285Y-132484448D01*
X123837252Y-132479668D01*
X123812748Y-132479668D01*
X123788715Y-132484448D01*
X123766076Y-132493826D01*
X123745701Y-132507440D01*
X123728374Y-132524767D01*
X123714761Y-132545141D01*
X123671244Y-132626557D01*
X123599264Y-132714264D01*
X123511557Y-132786244D01*
X123447601Y-132820429D01*
X123411495Y-132839728D01*
X123411492Y-132839729D01*
X123302916Y-132872666D01*
X123190000Y-132883787D01*
X123077085Y-132872666D01*
X122968509Y-132839729D01*
X122968506Y-132839728D01*
X122932400Y-132820429D01*
X122868444Y-132786244D01*
X122780737Y-132714264D01*
X122717622Y-132637359D01*
X122700297Y-132620034D01*
X122679923Y-132606420D01*
X122657284Y-132597043D01*
X122633250Y-132592263D01*
X122608746Y-132592263D01*
X122584713Y-132597044D01*
X122562074Y-132606421D01*
X122541700Y-132620035D01*
X122524373Y-132637362D01*
X122510759Y-132657736D01*
X122501382Y-132680375D01*
X122496000Y-132716660D01*
X122496000Y-132881000D01*
X121344000Y-132881000D01*
X121344000Y-131279000D01*
X122496000Y-131279000D01*
X122496000Y-131443341D01*
X122498402Y-131467727D01*
X122505515Y-131491176D01*
X122517066Y-131512787D01*
X122532611Y-131531729D01*
X122551553Y-131547274D01*
X122573164Y-131558825D01*
X122596613Y-131565938D01*
X122620999Y-131568340D01*
X122645385Y-131565938D01*
X122668834Y-131558825D01*
X122690445Y-131547274D01*
X122709387Y-131531729D01*
X122717608Y-131522657D01*
X122780736Y-131445736D01*
X122868443Y-131373756D01*
X122932399Y-131339571D01*
X122968505Y-131320272D01*
X122968508Y-131320271D01*
X123077084Y-131287334D01*
X123190000Y-131276213D01*
X123302915Y-131287334D01*
X123411491Y-131320271D01*
X123411494Y-131320272D01*
X123447600Y-131339571D01*
X123511556Y-131373756D01*
X123599264Y-131445736D01*
X123671244Y-131533443D01*
X123709450Y-131604922D01*
X123714761Y-131614859D01*
X123728375Y-131635234D01*
X123745702Y-131652561D01*
X123766076Y-131666174D01*
X123788715Y-131675552D01*
X123812748Y-131680332D01*
X123837252Y-131680332D01*
X123861285Y-131675552D01*
X123883924Y-131666174D01*
X123904299Y-131652560D01*
X123921626Y-131635233D01*
X123935239Y-131614860D01*
X123978756Y-131533444D01*
X124050736Y-131445736D01*
X124138443Y-131373756D01*
X124202399Y-131339571D01*
X124238505Y-131320272D01*
X124238508Y-131320271D01*
X124347084Y-131287334D01*
X124460000Y-131276213D01*
X124572915Y-131287334D01*
X124572915Y-131287334D01*
G37*
G36*
X83986823Y-126161313D02*
G01*
X84147242Y-126209976D01*
X84214361Y-126245852D01*
X84295078Y-126288996D01*
X84424659Y-126395341D01*
X84531004Y-126524922D01*
X84531005Y-126524924D01*
X84610024Y-126672758D01*
X84658687Y-126833177D01*
X84675117Y-127000000D01*
X84658687Y-127166823D01*
X84610024Y-127327242D01*
X84569477Y-127403100D01*
X84531004Y-127475078D01*
X84424659Y-127604659D01*
X84295078Y-127711004D01*
X84295076Y-127711005D01*
X84147242Y-127790024D01*
X83986823Y-127838687D01*
X83861804Y-127851000D01*
X83778196Y-127851000D01*
X83653177Y-127838687D01*
X83492758Y-127790024D01*
X83344924Y-127711005D01*
X83344922Y-127711004D01*
X83215341Y-127604659D01*
X83108996Y-127475078D01*
X83070523Y-127403100D01*
X83029976Y-127327242D01*
X82981313Y-127166823D01*
X82964883Y-127000000D01*
X82981313Y-126833177D01*
X83029976Y-126672758D01*
X83108995Y-126524924D01*
X83108996Y-126524922D01*
X83215341Y-126395341D01*
X83344922Y-126288996D01*
X83425639Y-126245852D01*
X83492758Y-126209976D01*
X83653177Y-126161313D01*
X83778196Y-126149000D01*
X83861804Y-126149000D01*
X83986823Y-126161313D01*
X83986823Y-126161313D01*
G37*
G36*
X91688228Y-126181703D02*
G01*
X91843100Y-126245853D01*
X91982481Y-126338985D01*
X92101015Y-126457519D01*
X92194147Y-126596900D01*
X92258297Y-126751772D01*
X92291000Y-126916184D01*
X92291000Y-127083816D01*
X92258297Y-127248228D01*
X92194147Y-127403100D01*
X92101015Y-127542481D01*
X91982481Y-127661015D01*
X91843100Y-127754147D01*
X91688228Y-127818297D01*
X91523816Y-127851000D01*
X91356184Y-127851000D01*
X91191772Y-127818297D01*
X91036900Y-127754147D01*
X90897519Y-127661015D01*
X90778985Y-127542481D01*
X90685853Y-127403100D01*
X90621703Y-127248228D01*
X90589000Y-127083816D01*
X90589000Y-126916184D01*
X90621703Y-126751772D01*
X90685853Y-126596900D01*
X90778985Y-126457519D01*
X90897519Y-126338985D01*
X91036900Y-126245853D01*
X91191772Y-126181703D01*
X91356184Y-126149000D01*
X91523816Y-126149000D01*
X91688228Y-126181703D01*
X91688228Y-126181703D01*
G37*
G36*
X162726823Y-126161313D02*
G01*
X162887242Y-126209976D01*
X162954361Y-126245852D01*
X163035078Y-126288996D01*
X163164659Y-126395341D01*
X163271004Y-126524922D01*
X163271005Y-126524924D01*
X163350024Y-126672758D01*
X163398687Y-126833177D01*
X163415117Y-127000000D01*
X163398687Y-127166823D01*
X163350024Y-127327242D01*
X163309477Y-127403100D01*
X163271004Y-127475078D01*
X163164659Y-127604659D01*
X163035078Y-127711004D01*
X163035076Y-127711005D01*
X162887242Y-127790024D01*
X162726823Y-127838687D01*
X162601804Y-127851000D01*
X162518196Y-127851000D01*
X162393177Y-127838687D01*
X162232758Y-127790024D01*
X162084924Y-127711005D01*
X162084922Y-127711004D01*
X161955341Y-127604659D01*
X161848996Y-127475078D01*
X161810523Y-127403100D01*
X161769976Y-127327242D01*
X161721313Y-127166823D01*
X161704883Y-127000000D01*
X161721313Y-126833177D01*
X161769976Y-126672758D01*
X161848995Y-126524924D01*
X161848996Y-126524922D01*
X161955341Y-126395341D01*
X162084922Y-126288996D01*
X162165639Y-126245852D01*
X162232758Y-126209976D01*
X162393177Y-126161313D01*
X162518196Y-126149000D01*
X162601804Y-126149000D01*
X162726823Y-126161313D01*
X162726823Y-126161313D01*
G37*
G36*
X170428228Y-126181703D02*
G01*
X170583100Y-126245853D01*
X170722481Y-126338985D01*
X170841015Y-126457519D01*
X170934147Y-126596900D01*
X170998297Y-126751772D01*
X171031000Y-126916184D01*
X171031000Y-127083816D01*
X170998297Y-127248228D01*
X170934147Y-127403100D01*
X170841015Y-127542481D01*
X170722481Y-127661015D01*
X170583100Y-127754147D01*
X170428228Y-127818297D01*
X170263816Y-127851000D01*
X170096184Y-127851000D01*
X169931772Y-127818297D01*
X169776900Y-127754147D01*
X169637519Y-127661015D01*
X169518985Y-127542481D01*
X169425853Y-127403100D01*
X169361703Y-127248228D01*
X169329000Y-127083816D01*
X169329000Y-126916184D01*
X169361703Y-126751772D01*
X169425853Y-126596900D01*
X169518985Y-126457519D01*
X169637519Y-126338985D01*
X169776900Y-126245853D01*
X169931772Y-126181703D01*
X170096184Y-126149000D01*
X170263816Y-126149000D01*
X170428228Y-126181703D01*
X170428228Y-126181703D01*
G37*
G36*
X155188228Y-126181703D02*
G01*
X155343100Y-126245853D01*
X155482481Y-126338985D01*
X155601015Y-126457519D01*
X155694147Y-126596900D01*
X155758297Y-126751772D01*
X155791000Y-126916184D01*
X155791000Y-127083816D01*
X155758297Y-127248228D01*
X155694147Y-127403100D01*
X155601015Y-127542481D01*
X155482481Y-127661015D01*
X155343100Y-127754147D01*
X155188228Y-127818297D01*
X155023816Y-127851000D01*
X154856184Y-127851000D01*
X154691772Y-127818297D01*
X154536900Y-127754147D01*
X154397519Y-127661015D01*
X154278985Y-127542481D01*
X154185853Y-127403100D01*
X154121703Y-127248228D01*
X154089000Y-127083816D01*
X154089000Y-126916184D01*
X154121703Y-126751772D01*
X154185853Y-126596900D01*
X154278985Y-126457519D01*
X154397519Y-126338985D01*
X154536900Y-126245853D01*
X154691772Y-126181703D01*
X154856184Y-126149000D01*
X155023816Y-126149000D01*
X155188228Y-126181703D01*
X155188228Y-126181703D01*
G37*
G36*
X101766823Y-126161313D02*
G01*
X101927242Y-126209976D01*
X101994361Y-126245852D01*
X102075078Y-126288996D01*
X102204659Y-126395341D01*
X102311004Y-126524922D01*
X102311005Y-126524924D01*
X102390024Y-126672758D01*
X102438687Y-126833177D01*
X102455117Y-127000000D01*
X102438687Y-127166823D01*
X102390024Y-127327242D01*
X102349477Y-127403100D01*
X102311004Y-127475078D01*
X102204659Y-127604659D01*
X102075078Y-127711004D01*
X102075076Y-127711005D01*
X101927242Y-127790024D01*
X101766823Y-127838687D01*
X101641804Y-127851000D01*
X101558196Y-127851000D01*
X101433177Y-127838687D01*
X101272758Y-127790024D01*
X101124924Y-127711005D01*
X101124922Y-127711004D01*
X100995341Y-127604659D01*
X100888996Y-127475078D01*
X100850523Y-127403100D01*
X100809976Y-127327242D01*
X100761313Y-127166823D01*
X100744883Y-127000000D01*
X100761313Y-126833177D01*
X100809976Y-126672758D01*
X100888995Y-126524924D01*
X100888996Y-126524922D01*
X100995341Y-126395341D01*
X101124922Y-126288996D01*
X101205639Y-126245852D01*
X101272758Y-126209976D01*
X101433177Y-126161313D01*
X101558196Y-126149000D01*
X101641804Y-126149000D01*
X101766823Y-126161313D01*
X101766823Y-126161313D01*
G37*
G36*
X142488228Y-126181703D02*
G01*
X142643100Y-126245853D01*
X142782481Y-126338985D01*
X142901015Y-126457519D01*
X142994147Y-126596900D01*
X143058297Y-126751772D01*
X143091000Y-126916184D01*
X143091000Y-127083816D01*
X143058297Y-127248228D01*
X142994147Y-127403100D01*
X142901015Y-127542481D01*
X142782481Y-127661015D01*
X142643100Y-127754147D01*
X142488228Y-127818297D01*
X142323816Y-127851000D01*
X142156184Y-127851000D01*
X141991772Y-127818297D01*
X141836900Y-127754147D01*
X141697519Y-127661015D01*
X141578985Y-127542481D01*
X141485853Y-127403100D01*
X141421703Y-127248228D01*
X141389000Y-127083816D01*
X141389000Y-126916184D01*
X141421703Y-126751772D01*
X141485853Y-126596900D01*
X141578985Y-126457519D01*
X141697519Y-126338985D01*
X141836900Y-126245853D01*
X141991772Y-126181703D01*
X142156184Y-126149000D01*
X142323816Y-126149000D01*
X142488228Y-126181703D01*
X142488228Y-126181703D01*
G37*
G36*
X134786823Y-126161313D02*
G01*
X134947242Y-126209976D01*
X135014361Y-126245852D01*
X135095078Y-126288996D01*
X135224659Y-126395341D01*
X135331004Y-126524922D01*
X135331005Y-126524924D01*
X135410024Y-126672758D01*
X135458687Y-126833177D01*
X135475117Y-127000000D01*
X135458687Y-127166823D01*
X135410024Y-127327242D01*
X135369477Y-127403100D01*
X135331004Y-127475078D01*
X135224659Y-127604659D01*
X135095078Y-127711004D01*
X135095076Y-127711005D01*
X134947242Y-127790024D01*
X134786823Y-127838687D01*
X134661804Y-127851000D01*
X134578196Y-127851000D01*
X134453177Y-127838687D01*
X134292758Y-127790024D01*
X134144924Y-127711005D01*
X134144922Y-127711004D01*
X134015341Y-127604659D01*
X133908996Y-127475078D01*
X133870523Y-127403100D01*
X133829976Y-127327242D01*
X133781313Y-127166823D01*
X133764883Y-127000000D01*
X133781313Y-126833177D01*
X133829976Y-126672758D01*
X133908995Y-126524924D01*
X133908996Y-126524922D01*
X134015341Y-126395341D01*
X134144922Y-126288996D01*
X134225639Y-126245852D01*
X134292758Y-126209976D01*
X134453177Y-126161313D01*
X134578196Y-126149000D01*
X134661804Y-126149000D01*
X134786823Y-126161313D01*
X134786823Y-126161313D01*
G37*
G36*
X122168228Y-126181703D02*
G01*
X122323100Y-126245853D01*
X122462481Y-126338985D01*
X122581015Y-126457519D01*
X122674147Y-126596900D01*
X122738297Y-126751772D01*
X122771000Y-126916184D01*
X122771000Y-127083816D01*
X122738297Y-127248228D01*
X122674147Y-127403100D01*
X122581015Y-127542481D01*
X122462481Y-127661015D01*
X122323100Y-127754147D01*
X122168228Y-127818297D01*
X122003816Y-127851000D01*
X121836184Y-127851000D01*
X121671772Y-127818297D01*
X121516900Y-127754147D01*
X121377519Y-127661015D01*
X121258985Y-127542481D01*
X121165853Y-127403100D01*
X121101703Y-127248228D01*
X121069000Y-127083816D01*
X121069000Y-126916184D01*
X121101703Y-126751772D01*
X121165853Y-126596900D01*
X121258985Y-126457519D01*
X121377519Y-126338985D01*
X121516900Y-126245853D01*
X121671772Y-126181703D01*
X121836184Y-126149000D01*
X122003816Y-126149000D01*
X122168228Y-126181703D01*
X122168228Y-126181703D01*
G37*
G36*
X114466823Y-126161313D02*
G01*
X114627242Y-126209976D01*
X114694361Y-126245852D01*
X114775078Y-126288996D01*
X114904659Y-126395341D01*
X115011004Y-126524922D01*
X115011005Y-126524924D01*
X115090024Y-126672758D01*
X115138687Y-126833177D01*
X115155117Y-127000000D01*
X115138687Y-127166823D01*
X115090024Y-127327242D01*
X115049477Y-127403100D01*
X115011004Y-127475078D01*
X114904659Y-127604659D01*
X114775078Y-127711004D01*
X114775076Y-127711005D01*
X114627242Y-127790024D01*
X114466823Y-127838687D01*
X114341804Y-127851000D01*
X114258196Y-127851000D01*
X114133177Y-127838687D01*
X113972758Y-127790024D01*
X113824924Y-127711005D01*
X113824922Y-127711004D01*
X113695341Y-127604659D01*
X113588996Y-127475078D01*
X113550523Y-127403100D01*
X113509976Y-127327242D01*
X113461313Y-127166823D01*
X113444883Y-127000000D01*
X113461313Y-126833177D01*
X113509976Y-126672758D01*
X113588995Y-126524924D01*
X113588996Y-126524922D01*
X113695341Y-126395341D01*
X113824922Y-126288996D01*
X113905639Y-126245852D01*
X113972758Y-126209976D01*
X114133177Y-126161313D01*
X114258196Y-126149000D01*
X114341804Y-126149000D01*
X114466823Y-126161313D01*
X114466823Y-126161313D01*
G37*
G36*
X109468228Y-126181703D02*
G01*
X109623100Y-126245853D01*
X109762481Y-126338985D01*
X109881015Y-126457519D01*
X109974147Y-126596900D01*
X110038297Y-126751772D01*
X110071000Y-126916184D01*
X110071000Y-127083816D01*
X110038297Y-127248228D01*
X109974147Y-127403100D01*
X109881015Y-127542481D01*
X109762481Y-127661015D01*
X109623100Y-127754147D01*
X109468228Y-127818297D01*
X109303816Y-127851000D01*
X109136184Y-127851000D01*
X108971772Y-127818297D01*
X108816900Y-127754147D01*
X108677519Y-127661015D01*
X108558985Y-127542481D01*
X108465853Y-127403100D01*
X108401703Y-127248228D01*
X108369000Y-127083816D01*
X108369000Y-126916184D01*
X108401703Y-126751772D01*
X108465853Y-126596900D01*
X108558985Y-126457519D01*
X108677519Y-126338985D01*
X108816900Y-126245853D01*
X108971772Y-126181703D01*
X109136184Y-126149000D01*
X109303816Y-126149000D01*
X109468228Y-126181703D01*
X109468228Y-126181703D01*
G37*
G36*
X147486823Y-126161313D02*
G01*
X147647242Y-126209976D01*
X147714361Y-126245852D01*
X147795078Y-126288996D01*
X147924659Y-126395341D01*
X148031004Y-126524922D01*
X148031005Y-126524924D01*
X148110024Y-126672758D01*
X148158687Y-126833177D01*
X148175117Y-127000000D01*
X148158687Y-127166823D01*
X148110024Y-127327242D01*
X148069477Y-127403100D01*
X148031004Y-127475078D01*
X147924659Y-127604659D01*
X147795078Y-127711004D01*
X147795076Y-127711005D01*
X147647242Y-127790024D01*
X147486823Y-127838687D01*
X147361804Y-127851000D01*
X147278196Y-127851000D01*
X147153177Y-127838687D01*
X146992758Y-127790024D01*
X146844924Y-127711005D01*
X146844922Y-127711004D01*
X146715341Y-127604659D01*
X146608996Y-127475078D01*
X146570523Y-127403100D01*
X146529976Y-127327242D01*
X146481313Y-127166823D01*
X146464883Y-127000000D01*
X146481313Y-126833177D01*
X146529976Y-126672758D01*
X146608995Y-126524924D01*
X146608996Y-126524922D01*
X146715341Y-126395341D01*
X146844922Y-126288996D01*
X146925639Y-126245852D01*
X146992758Y-126209976D01*
X147153177Y-126161313D01*
X147278196Y-126149000D01*
X147361804Y-126149000D01*
X147486823Y-126161313D01*
X147486823Y-126161313D01*
G37*
G36*
X155106823Y-122351313D02*
G01*
X155267242Y-122399976D01*
X155334361Y-122435852D01*
X155415078Y-122478996D01*
X155544659Y-122585341D01*
X155651004Y-122714922D01*
X155651005Y-122714924D01*
X155730024Y-122862758D01*
X155778687Y-123023177D01*
X155795117Y-123190000D01*
X155778687Y-123356823D01*
X155730024Y-123517242D01*
X155689477Y-123593100D01*
X155651004Y-123665078D01*
X155544659Y-123794659D01*
X155415078Y-123901004D01*
X155415076Y-123901005D01*
X155267242Y-123980024D01*
X155106823Y-124028687D01*
X154981804Y-124041000D01*
X154898196Y-124041000D01*
X154773177Y-124028687D01*
X154612758Y-123980024D01*
X154464924Y-123901005D01*
X154464922Y-123901004D01*
X154335341Y-123794659D01*
X154228996Y-123665078D01*
X154190523Y-123593100D01*
X154149976Y-123517242D01*
X154101313Y-123356823D01*
X154084883Y-123190000D01*
X154101313Y-123023177D01*
X154149976Y-122862758D01*
X154228995Y-122714924D01*
X154228996Y-122714922D01*
X154335341Y-122585341D01*
X154464922Y-122478996D01*
X154545639Y-122435852D01*
X154612758Y-122399976D01*
X154773177Y-122351313D01*
X154898196Y-122339000D01*
X154981804Y-122339000D01*
X155106823Y-122351313D01*
X155106823Y-122351313D01*
G37*
G36*
X101766823Y-122351313D02*
G01*
X101927242Y-122399976D01*
X101994361Y-122435852D01*
X102075078Y-122478996D01*
X102204659Y-122585341D01*
X102311004Y-122714922D01*
X102311005Y-122714924D01*
X102390024Y-122862758D01*
X102438687Y-123023177D01*
X102455117Y-123190000D01*
X102438687Y-123356823D01*
X102390024Y-123517242D01*
X102349477Y-123593100D01*
X102311004Y-123665078D01*
X102204659Y-123794659D01*
X102075078Y-123901004D01*
X102075076Y-123901005D01*
X101927242Y-123980024D01*
X101766823Y-124028687D01*
X101641804Y-124041000D01*
X101558196Y-124041000D01*
X101433177Y-124028687D01*
X101272758Y-123980024D01*
X101124924Y-123901005D01*
X101124922Y-123901004D01*
X100995341Y-123794659D01*
X100888996Y-123665078D01*
X100850523Y-123593100D01*
X100809976Y-123517242D01*
X100761313Y-123356823D01*
X100744883Y-123190000D01*
X100761313Y-123023177D01*
X100809976Y-122862758D01*
X100888995Y-122714924D01*
X100888996Y-122714922D01*
X100995341Y-122585341D01*
X101124922Y-122478996D01*
X101205639Y-122435852D01*
X101272758Y-122399976D01*
X101433177Y-122351313D01*
X101558196Y-122339000D01*
X101641804Y-122339000D01*
X101766823Y-122351313D01*
X101766823Y-122351313D01*
G37*
G36*
X91606823Y-122351313D02*
G01*
X91767242Y-122399976D01*
X91834361Y-122435852D01*
X91915078Y-122478996D01*
X92044659Y-122585341D01*
X92151004Y-122714922D01*
X92151005Y-122714924D01*
X92230024Y-122862758D01*
X92278687Y-123023177D01*
X92295117Y-123190000D01*
X92278687Y-123356823D01*
X92230024Y-123517242D01*
X92189477Y-123593100D01*
X92151004Y-123665078D01*
X92044659Y-123794659D01*
X91915078Y-123901004D01*
X91915076Y-123901005D01*
X91767242Y-123980024D01*
X91606823Y-124028687D01*
X91481804Y-124041000D01*
X91398196Y-124041000D01*
X91273177Y-124028687D01*
X91112758Y-123980024D01*
X90964924Y-123901005D01*
X90964922Y-123901004D01*
X90835341Y-123794659D01*
X90728996Y-123665078D01*
X90690523Y-123593100D01*
X90649976Y-123517242D01*
X90601313Y-123356823D01*
X90584883Y-123190000D01*
X90601313Y-123023177D01*
X90649976Y-122862758D01*
X90728995Y-122714924D01*
X90728996Y-122714922D01*
X90835341Y-122585341D01*
X90964922Y-122478996D01*
X91045639Y-122435852D01*
X91112758Y-122399976D01*
X91273177Y-122351313D01*
X91398196Y-122339000D01*
X91481804Y-122339000D01*
X91606823Y-122351313D01*
X91606823Y-122351313D01*
G37*
G36*
X114548228Y-122371703D02*
G01*
X114703100Y-122435853D01*
X114842481Y-122528985D01*
X114961015Y-122647519D01*
X115054147Y-122786900D01*
X115118297Y-122941772D01*
X115151000Y-123106184D01*
X115151000Y-123273816D01*
X115118297Y-123438228D01*
X115054147Y-123593100D01*
X114961015Y-123732481D01*
X114842481Y-123851015D01*
X114703100Y-123944147D01*
X114548228Y-124008297D01*
X114383816Y-124041000D01*
X114216184Y-124041000D01*
X114051772Y-124008297D01*
X113896900Y-123944147D01*
X113757519Y-123851015D01*
X113638985Y-123732481D01*
X113545853Y-123593100D01*
X113481703Y-123438228D01*
X113449000Y-123273816D01*
X113449000Y-123106184D01*
X113481703Y-122941772D01*
X113545853Y-122786900D01*
X113638985Y-122647519D01*
X113757519Y-122528985D01*
X113896900Y-122435853D01*
X114051772Y-122371703D01*
X114216184Y-122339000D01*
X114383816Y-122339000D01*
X114548228Y-122371703D01*
X114548228Y-122371703D01*
G37*
G36*
X109468228Y-122371703D02*
G01*
X109623100Y-122435853D01*
X109762481Y-122528985D01*
X109881015Y-122647519D01*
X109974147Y-122786900D01*
X110038297Y-122941772D01*
X110071000Y-123106184D01*
X110071000Y-123273816D01*
X110038297Y-123438228D01*
X109974147Y-123593100D01*
X109881015Y-123732481D01*
X109762481Y-123851015D01*
X109623100Y-123944147D01*
X109468228Y-124008297D01*
X109303816Y-124041000D01*
X109136184Y-124041000D01*
X108971772Y-124008297D01*
X108816900Y-123944147D01*
X108677519Y-123851015D01*
X108558985Y-123732481D01*
X108465853Y-123593100D01*
X108401703Y-123438228D01*
X108369000Y-123273816D01*
X108369000Y-123106184D01*
X108401703Y-122941772D01*
X108465853Y-122786900D01*
X108558985Y-122647519D01*
X108677519Y-122528985D01*
X108816900Y-122435853D01*
X108971772Y-122371703D01*
X109136184Y-122339000D01*
X109303816Y-122339000D01*
X109468228Y-122371703D01*
X109468228Y-122371703D01*
G37*
G36*
X84068228Y-122371703D02*
G01*
X84223100Y-122435853D01*
X84362481Y-122528985D01*
X84481015Y-122647519D01*
X84574147Y-122786900D01*
X84638297Y-122941772D01*
X84671000Y-123106184D01*
X84671000Y-123273816D01*
X84638297Y-123438228D01*
X84574147Y-123593100D01*
X84481015Y-123732481D01*
X84362481Y-123851015D01*
X84223100Y-123944147D01*
X84068228Y-124008297D01*
X83903816Y-124041000D01*
X83736184Y-124041000D01*
X83571772Y-124008297D01*
X83416900Y-123944147D01*
X83277519Y-123851015D01*
X83158985Y-123732481D01*
X83065853Y-123593100D01*
X83001703Y-123438228D01*
X82969000Y-123273816D01*
X82969000Y-123106184D01*
X83001703Y-122941772D01*
X83065853Y-122786900D01*
X83158985Y-122647519D01*
X83277519Y-122528985D01*
X83416900Y-122435853D01*
X83571772Y-122371703D01*
X83736184Y-122339000D01*
X83903816Y-122339000D01*
X84068228Y-122371703D01*
X84068228Y-122371703D01*
G37*
G36*
X122086823Y-122351313D02*
G01*
X122247242Y-122399976D01*
X122314361Y-122435852D01*
X122395078Y-122478996D01*
X122524659Y-122585341D01*
X122631004Y-122714922D01*
X122631005Y-122714924D01*
X122710024Y-122862758D01*
X122758687Y-123023177D01*
X122775117Y-123190000D01*
X122758687Y-123356823D01*
X122710024Y-123517242D01*
X122669477Y-123593100D01*
X122631004Y-123665078D01*
X122524659Y-123794659D01*
X122395078Y-123901004D01*
X122395076Y-123901005D01*
X122247242Y-123980024D01*
X122086823Y-124028687D01*
X121961804Y-124041000D01*
X121878196Y-124041000D01*
X121753177Y-124028687D01*
X121592758Y-123980024D01*
X121444924Y-123901005D01*
X121444922Y-123901004D01*
X121315341Y-123794659D01*
X121208996Y-123665078D01*
X121170523Y-123593100D01*
X121129976Y-123517242D01*
X121081313Y-123356823D01*
X121064883Y-123190000D01*
X121081313Y-123023177D01*
X121129976Y-122862758D01*
X121208995Y-122714924D01*
X121208996Y-122714922D01*
X121315341Y-122585341D01*
X121444922Y-122478996D01*
X121525639Y-122435852D01*
X121592758Y-122399976D01*
X121753177Y-122351313D01*
X121878196Y-122339000D01*
X121961804Y-122339000D01*
X122086823Y-122351313D01*
X122086823Y-122351313D01*
G37*
G36*
X134786823Y-122351313D02*
G01*
X134947242Y-122399976D01*
X135014361Y-122435852D01*
X135095078Y-122478996D01*
X135224659Y-122585341D01*
X135331004Y-122714922D01*
X135331005Y-122714924D01*
X135410024Y-122862758D01*
X135458687Y-123023177D01*
X135475117Y-123190000D01*
X135458687Y-123356823D01*
X135410024Y-123517242D01*
X135369477Y-123593100D01*
X135331004Y-123665078D01*
X135224659Y-123794659D01*
X135095078Y-123901004D01*
X135095076Y-123901005D01*
X134947242Y-123980024D01*
X134786823Y-124028687D01*
X134661804Y-124041000D01*
X134578196Y-124041000D01*
X134453177Y-124028687D01*
X134292758Y-123980024D01*
X134144924Y-123901005D01*
X134144922Y-123901004D01*
X134015341Y-123794659D01*
X133908996Y-123665078D01*
X133870523Y-123593100D01*
X133829976Y-123517242D01*
X133781313Y-123356823D01*
X133764883Y-123190000D01*
X133781313Y-123023177D01*
X133829976Y-122862758D01*
X133908995Y-122714924D01*
X133908996Y-122714922D01*
X134015341Y-122585341D01*
X134144922Y-122478996D01*
X134225639Y-122435852D01*
X134292758Y-122399976D01*
X134453177Y-122351313D01*
X134578196Y-122339000D01*
X134661804Y-122339000D01*
X134786823Y-122351313D01*
X134786823Y-122351313D01*
G37*
G36*
X142488228Y-122371703D02*
G01*
X142643100Y-122435853D01*
X142782481Y-122528985D01*
X142901015Y-122647519D01*
X142994147Y-122786900D01*
X143058297Y-122941772D01*
X143091000Y-123106184D01*
X143091000Y-123273816D01*
X143058297Y-123438228D01*
X142994147Y-123593100D01*
X142901015Y-123732481D01*
X142782481Y-123851015D01*
X142643100Y-123944147D01*
X142488228Y-124008297D01*
X142323816Y-124041000D01*
X142156184Y-124041000D01*
X141991772Y-124008297D01*
X141836900Y-123944147D01*
X141697519Y-123851015D01*
X141578985Y-123732481D01*
X141485853Y-123593100D01*
X141421703Y-123438228D01*
X141389000Y-123273816D01*
X141389000Y-123106184D01*
X141421703Y-122941772D01*
X141485853Y-122786900D01*
X141578985Y-122647519D01*
X141697519Y-122528985D01*
X141836900Y-122435853D01*
X141991772Y-122371703D01*
X142156184Y-122339000D01*
X142323816Y-122339000D01*
X142488228Y-122371703D01*
X142488228Y-122371703D01*
G37*
G36*
X147568228Y-122371703D02*
G01*
X147723100Y-122435853D01*
X147862481Y-122528985D01*
X147981015Y-122647519D01*
X148074147Y-122786900D01*
X148138297Y-122941772D01*
X148171000Y-123106184D01*
X148171000Y-123273816D01*
X148138297Y-123438228D01*
X148074147Y-123593100D01*
X147981015Y-123732481D01*
X147862481Y-123851015D01*
X147723100Y-123944147D01*
X147568228Y-124008297D01*
X147403816Y-124041000D01*
X147236184Y-124041000D01*
X147071772Y-124008297D01*
X146916900Y-123944147D01*
X146777519Y-123851015D01*
X146658985Y-123732481D01*
X146565853Y-123593100D01*
X146501703Y-123438228D01*
X146469000Y-123273816D01*
X146469000Y-123106184D01*
X146501703Y-122941772D01*
X146565853Y-122786900D01*
X146658985Y-122647519D01*
X146777519Y-122528985D01*
X146916900Y-122435853D01*
X147071772Y-122371703D01*
X147236184Y-122339000D01*
X147403816Y-122339000D01*
X147568228Y-122371703D01*
X147568228Y-122371703D01*
G37*
G36*
X170428228Y-122371703D02*
G01*
X170583100Y-122435853D01*
X170722481Y-122528985D01*
X170841015Y-122647519D01*
X170934147Y-122786900D01*
X170998297Y-122941772D01*
X171031000Y-123106184D01*
X171031000Y-123273816D01*
X170998297Y-123438228D01*
X170934147Y-123593100D01*
X170841015Y-123732481D01*
X170722481Y-123851015D01*
X170583100Y-123944147D01*
X170428228Y-124008297D01*
X170263816Y-124041000D01*
X170096184Y-124041000D01*
X169931772Y-124008297D01*
X169776900Y-123944147D01*
X169637519Y-123851015D01*
X169518985Y-123732481D01*
X169425853Y-123593100D01*
X169361703Y-123438228D01*
X169329000Y-123273816D01*
X169329000Y-123106184D01*
X169361703Y-122941772D01*
X169425853Y-122786900D01*
X169518985Y-122647519D01*
X169637519Y-122528985D01*
X169776900Y-122435853D01*
X169931772Y-122371703D01*
X170096184Y-122339000D01*
X170263816Y-122339000D01*
X170428228Y-122371703D01*
X170428228Y-122371703D01*
G37*
G36*
X162726823Y-122351313D02*
G01*
X162887242Y-122399976D01*
X162954361Y-122435852D01*
X163035078Y-122478996D01*
X163164659Y-122585341D01*
X163271004Y-122714922D01*
X163271005Y-122714924D01*
X163350024Y-122862758D01*
X163398687Y-123023177D01*
X163415117Y-123190000D01*
X163398687Y-123356823D01*
X163350024Y-123517242D01*
X163309477Y-123593100D01*
X163271004Y-123665078D01*
X163164659Y-123794659D01*
X163035078Y-123901004D01*
X163035076Y-123901005D01*
X162887242Y-123980024D01*
X162726823Y-124028687D01*
X162601804Y-124041000D01*
X162518196Y-124041000D01*
X162393177Y-124028687D01*
X162232758Y-123980024D01*
X162084924Y-123901005D01*
X162084922Y-123901004D01*
X161955341Y-123794659D01*
X161848996Y-123665078D01*
X161810523Y-123593100D01*
X161769976Y-123517242D01*
X161721313Y-123356823D01*
X161704883Y-123190000D01*
X161721313Y-123023177D01*
X161769976Y-122862758D01*
X161848995Y-122714924D01*
X161848996Y-122714922D01*
X161955341Y-122585341D01*
X162084922Y-122478996D01*
X162165639Y-122435852D01*
X162232758Y-122399976D01*
X162393177Y-122351313D01*
X162518196Y-122339000D01*
X162601804Y-122339000D01*
X162726823Y-122351313D01*
X162726823Y-122351313D01*
G37*
G36*
X143491000Y-120231000D02*
G01*
X140989000Y-120231000D01*
X140989000Y-118529000D01*
X143491000Y-118529000D01*
X143491000Y-120231000D01*
X143491000Y-120231000D01*
G37*
G36*
X163126823Y-118541313D02*
G01*
X163287242Y-118589976D01*
X163419906Y-118660886D01*
X163435078Y-118668996D01*
X163564659Y-118775341D01*
X163671004Y-118904922D01*
X163671005Y-118904924D01*
X163750024Y-119052758D01*
X163798687Y-119213177D01*
X163815117Y-119380000D01*
X163798687Y-119546823D01*
X163750024Y-119707242D01*
X163679114Y-119839906D01*
X163671004Y-119855078D01*
X163564659Y-119984659D01*
X163435078Y-120091004D01*
X163435076Y-120091005D01*
X163287242Y-120170024D01*
X163126823Y-120218687D01*
X163001804Y-120231000D01*
X162118196Y-120231000D01*
X161993177Y-120218687D01*
X161832758Y-120170024D01*
X161684924Y-120091005D01*
X161684922Y-120091004D01*
X161555341Y-119984659D01*
X161448996Y-119855078D01*
X161440886Y-119839906D01*
X161369976Y-119707242D01*
X161321313Y-119546823D01*
X161304883Y-119380000D01*
X161321313Y-119213177D01*
X161369976Y-119052758D01*
X161448995Y-118904924D01*
X161448996Y-118904922D01*
X161555341Y-118775341D01*
X161684922Y-118668996D01*
X161700094Y-118660886D01*
X161832758Y-118589976D01*
X161993177Y-118541313D01*
X162118196Y-118529000D01*
X163001804Y-118529000D01*
X163126823Y-118541313D01*
X163126823Y-118541313D01*
G37*
G36*
X110471000Y-120231000D02*
G01*
X107969000Y-120231000D01*
X107969000Y-118529000D01*
X110471000Y-118529000D01*
X110471000Y-120231000D01*
X110471000Y-120231000D01*
G37*
G36*
X102166823Y-118541313D02*
G01*
X102327242Y-118589976D01*
X102459906Y-118660886D01*
X102475078Y-118668996D01*
X102604659Y-118775341D01*
X102711004Y-118904922D01*
X102711005Y-118904924D01*
X102790024Y-119052758D01*
X102838687Y-119213177D01*
X102855117Y-119380000D01*
X102838687Y-119546823D01*
X102790024Y-119707242D01*
X102719114Y-119839906D01*
X102711004Y-119855078D01*
X102604659Y-119984659D01*
X102475078Y-120091004D01*
X102475076Y-120091005D01*
X102327242Y-120170024D01*
X102166823Y-120218687D01*
X102041804Y-120231000D01*
X101158196Y-120231000D01*
X101033177Y-120218687D01*
X100872758Y-120170024D01*
X100724924Y-120091005D01*
X100724922Y-120091004D01*
X100595341Y-119984659D01*
X100488996Y-119855078D01*
X100480886Y-119839906D01*
X100409976Y-119707242D01*
X100361313Y-119546823D01*
X100344883Y-119380000D01*
X100361313Y-119213177D01*
X100409976Y-119052758D01*
X100488995Y-118904924D01*
X100488996Y-118904922D01*
X100595341Y-118775341D01*
X100724922Y-118668996D01*
X100740094Y-118660886D01*
X100872758Y-118589976D01*
X101033177Y-118541313D01*
X101158196Y-118529000D01*
X102041804Y-118529000D01*
X102166823Y-118541313D01*
X102166823Y-118541313D01*
G37*
G36*
X171431000Y-120231000D02*
G01*
X168929000Y-120231000D01*
X168929000Y-118529000D01*
X171431000Y-118529000D01*
X171431000Y-120231000D01*
X171431000Y-120231000D01*
G37*
G36*
X156191000Y-120231000D02*
G01*
X153689000Y-120231000D01*
X153689000Y-118529000D01*
X156191000Y-118529000D01*
X156191000Y-120231000D01*
X156191000Y-120231000D01*
G37*
G36*
X114866823Y-118541313D02*
G01*
X115027242Y-118589976D01*
X115159906Y-118660886D01*
X115175078Y-118668996D01*
X115304659Y-118775341D01*
X115411004Y-118904922D01*
X115411005Y-118904924D01*
X115490024Y-119052758D01*
X115538687Y-119213177D01*
X115555117Y-119380000D01*
X115538687Y-119546823D01*
X115490024Y-119707242D01*
X115419114Y-119839906D01*
X115411004Y-119855078D01*
X115304659Y-119984659D01*
X115175078Y-120091004D01*
X115175076Y-120091005D01*
X115027242Y-120170024D01*
X114866823Y-120218687D01*
X114741804Y-120231000D01*
X113858196Y-120231000D01*
X113733177Y-120218687D01*
X113572758Y-120170024D01*
X113424924Y-120091005D01*
X113424922Y-120091004D01*
X113295341Y-119984659D01*
X113188996Y-119855078D01*
X113180886Y-119839906D01*
X113109976Y-119707242D01*
X113061313Y-119546823D01*
X113044883Y-119380000D01*
X113061313Y-119213177D01*
X113109976Y-119052758D01*
X113188995Y-118904924D01*
X113188996Y-118904922D01*
X113295341Y-118775341D01*
X113424922Y-118668996D01*
X113440094Y-118660886D01*
X113572758Y-118589976D01*
X113733177Y-118541313D01*
X113858196Y-118529000D01*
X114741804Y-118529000D01*
X114866823Y-118541313D01*
X114866823Y-118541313D01*
G37*
G36*
X135186823Y-118541313D02*
G01*
X135347242Y-118589976D01*
X135479906Y-118660886D01*
X135495078Y-118668996D01*
X135624659Y-118775341D01*
X135731004Y-118904922D01*
X135731005Y-118904924D01*
X135810024Y-119052758D01*
X135858687Y-119213177D01*
X135875117Y-119380000D01*
X135858687Y-119546823D01*
X135810024Y-119707242D01*
X135739114Y-119839906D01*
X135731004Y-119855078D01*
X135624659Y-119984659D01*
X135495078Y-120091004D01*
X135495076Y-120091005D01*
X135347242Y-120170024D01*
X135186823Y-120218687D01*
X135061804Y-120231000D01*
X134178196Y-120231000D01*
X134053177Y-120218687D01*
X133892758Y-120170024D01*
X133744924Y-120091005D01*
X133744922Y-120091004D01*
X133615341Y-119984659D01*
X133508996Y-119855078D01*
X133500886Y-119839906D01*
X133429976Y-119707242D01*
X133381313Y-119546823D01*
X133364883Y-119380000D01*
X133381313Y-119213177D01*
X133429976Y-119052758D01*
X133508995Y-118904924D01*
X133508996Y-118904922D01*
X133615341Y-118775341D01*
X133744922Y-118668996D01*
X133760094Y-118660886D01*
X133892758Y-118589976D01*
X134053177Y-118541313D01*
X134178196Y-118529000D01*
X135061804Y-118529000D01*
X135186823Y-118541313D01*
X135186823Y-118541313D01*
G37*
G36*
X147886823Y-118541313D02*
G01*
X148047242Y-118589976D01*
X148179906Y-118660886D01*
X148195078Y-118668996D01*
X148324659Y-118775341D01*
X148431004Y-118904922D01*
X148431005Y-118904924D01*
X148510024Y-119052758D01*
X148558687Y-119213177D01*
X148575117Y-119380000D01*
X148558687Y-119546823D01*
X148510024Y-119707242D01*
X148439114Y-119839906D01*
X148431004Y-119855078D01*
X148324659Y-119984659D01*
X148195078Y-120091004D01*
X148195076Y-120091005D01*
X148047242Y-120170024D01*
X147886823Y-120218687D01*
X147761804Y-120231000D01*
X146878196Y-120231000D01*
X146753177Y-120218687D01*
X146592758Y-120170024D01*
X146444924Y-120091005D01*
X146444922Y-120091004D01*
X146315341Y-119984659D01*
X146208996Y-119855078D01*
X146200886Y-119839906D01*
X146129976Y-119707242D01*
X146081313Y-119546823D01*
X146064883Y-119380000D01*
X146081313Y-119213177D01*
X146129976Y-119052758D01*
X146208995Y-118904924D01*
X146208996Y-118904922D01*
X146315341Y-118775341D01*
X146444922Y-118668996D01*
X146460094Y-118660886D01*
X146592758Y-118589976D01*
X146753177Y-118541313D01*
X146878196Y-118529000D01*
X147761804Y-118529000D01*
X147886823Y-118541313D01*
X147886823Y-118541313D01*
G37*
G36*
X84386823Y-118541313D02*
G01*
X84547242Y-118589976D01*
X84679906Y-118660886D01*
X84695078Y-118668996D01*
X84824659Y-118775341D01*
X84931004Y-118904922D01*
X84931005Y-118904924D01*
X85010024Y-119052758D01*
X85058687Y-119213177D01*
X85075117Y-119380000D01*
X85058687Y-119546823D01*
X85010024Y-119707242D01*
X84939114Y-119839906D01*
X84931004Y-119855078D01*
X84824659Y-119984659D01*
X84695078Y-120091004D01*
X84695076Y-120091005D01*
X84547242Y-120170024D01*
X84386823Y-120218687D01*
X84261804Y-120231000D01*
X83378196Y-120231000D01*
X83253177Y-120218687D01*
X83092758Y-120170024D01*
X82944924Y-120091005D01*
X82944922Y-120091004D01*
X82815341Y-119984659D01*
X82708996Y-119855078D01*
X82700886Y-119839906D01*
X82629976Y-119707242D01*
X82581313Y-119546823D01*
X82564883Y-119380000D01*
X82581313Y-119213177D01*
X82629976Y-119052758D01*
X82708995Y-118904924D01*
X82708996Y-118904922D01*
X82815341Y-118775341D01*
X82944922Y-118668996D01*
X82960094Y-118660886D01*
X83092758Y-118589976D01*
X83253177Y-118541313D01*
X83378196Y-118529000D01*
X84261804Y-118529000D01*
X84386823Y-118541313D01*
X84386823Y-118541313D01*
G37*
G36*
X92691000Y-120231000D02*
G01*
X90189000Y-120231000D01*
X90189000Y-118529000D01*
X92691000Y-118529000D01*
X92691000Y-120231000D01*
X92691000Y-120231000D01*
G37*
G36*
X123171000Y-120231000D02*
G01*
X120669000Y-120231000D01*
X120669000Y-118529000D01*
X123171000Y-118529000D01*
X123171000Y-120231000D01*
X123171000Y-120231000D01*
G37*
G36*
X122486823Y-116001313D02*
G01*
X122647242Y-116049976D01*
X122779906Y-116120886D01*
X122795078Y-116128996D01*
X122924659Y-116235341D01*
X123031004Y-116364922D01*
X123031005Y-116364924D01*
X123110024Y-116512758D01*
X123158687Y-116673177D01*
X123175117Y-116840000D01*
X123158687Y-117006823D01*
X123110024Y-117167242D01*
X123039114Y-117299906D01*
X123031004Y-117315078D01*
X122924659Y-117444659D01*
X122795078Y-117551004D01*
X122795076Y-117551005D01*
X122647242Y-117630024D01*
X122486823Y-117678687D01*
X122361804Y-117691000D01*
X121478196Y-117691000D01*
X121353177Y-117678687D01*
X121192758Y-117630024D01*
X121044924Y-117551005D01*
X121044922Y-117551004D01*
X120915341Y-117444659D01*
X120808996Y-117315078D01*
X120800886Y-117299906D01*
X120729976Y-117167242D01*
X120681313Y-117006823D01*
X120664883Y-116840000D01*
X120681313Y-116673177D01*
X120729976Y-116512758D01*
X120808995Y-116364924D01*
X120808996Y-116364922D01*
X120915341Y-116235341D01*
X121044922Y-116128996D01*
X121060094Y-116120886D01*
X121192758Y-116049976D01*
X121353177Y-116001313D01*
X121478196Y-115989000D01*
X122361804Y-115989000D01*
X122486823Y-116001313D01*
X122486823Y-116001313D01*
G37*
G36*
X102166823Y-116001313D02*
G01*
X102327242Y-116049976D01*
X102459906Y-116120886D01*
X102475078Y-116128996D01*
X102604659Y-116235341D01*
X102711004Y-116364922D01*
X102711005Y-116364924D01*
X102790024Y-116512758D01*
X102838687Y-116673177D01*
X102855117Y-116840000D01*
X102838687Y-117006823D01*
X102790024Y-117167242D01*
X102719114Y-117299906D01*
X102711004Y-117315078D01*
X102604659Y-117444659D01*
X102475078Y-117551004D01*
X102475076Y-117551005D01*
X102327242Y-117630024D01*
X102166823Y-117678687D01*
X102041804Y-117691000D01*
X101158196Y-117691000D01*
X101033177Y-117678687D01*
X100872758Y-117630024D01*
X100724924Y-117551005D01*
X100724922Y-117551004D01*
X100595341Y-117444659D01*
X100488996Y-117315078D01*
X100480886Y-117299906D01*
X100409976Y-117167242D01*
X100361313Y-117006823D01*
X100344883Y-116840000D01*
X100361313Y-116673177D01*
X100409976Y-116512758D01*
X100488995Y-116364924D01*
X100488996Y-116364922D01*
X100595341Y-116235341D01*
X100724922Y-116128996D01*
X100740094Y-116120886D01*
X100872758Y-116049976D01*
X101033177Y-116001313D01*
X101158196Y-115989000D01*
X102041804Y-115989000D01*
X102166823Y-116001313D01*
X102166823Y-116001313D01*
G37*
G36*
X92006823Y-116001313D02*
G01*
X92167242Y-116049976D01*
X92299906Y-116120886D01*
X92315078Y-116128996D01*
X92444659Y-116235341D01*
X92551004Y-116364922D01*
X92551005Y-116364924D01*
X92630024Y-116512758D01*
X92678687Y-116673177D01*
X92695117Y-116840000D01*
X92678687Y-117006823D01*
X92630024Y-117167242D01*
X92559114Y-117299906D01*
X92551004Y-117315078D01*
X92444659Y-117444659D01*
X92315078Y-117551004D01*
X92315076Y-117551005D01*
X92167242Y-117630024D01*
X92006823Y-117678687D01*
X91881804Y-117691000D01*
X90998196Y-117691000D01*
X90873177Y-117678687D01*
X90712758Y-117630024D01*
X90564924Y-117551005D01*
X90564922Y-117551004D01*
X90435341Y-117444659D01*
X90328996Y-117315078D01*
X90320886Y-117299906D01*
X90249976Y-117167242D01*
X90201313Y-117006823D01*
X90184883Y-116840000D01*
X90201313Y-116673177D01*
X90249976Y-116512758D01*
X90328995Y-116364924D01*
X90328996Y-116364922D01*
X90435341Y-116235341D01*
X90564922Y-116128996D01*
X90580094Y-116120886D01*
X90712758Y-116049976D01*
X90873177Y-116001313D01*
X90998196Y-115989000D01*
X91881804Y-115989000D01*
X92006823Y-116001313D01*
X92006823Y-116001313D01*
G37*
G36*
X84386823Y-116001313D02*
G01*
X84547242Y-116049976D01*
X84679906Y-116120886D01*
X84695078Y-116128996D01*
X84824659Y-116235341D01*
X84931004Y-116364922D01*
X84931005Y-116364924D01*
X85010024Y-116512758D01*
X85058687Y-116673177D01*
X85075117Y-116840000D01*
X85058687Y-117006823D01*
X85010024Y-117167242D01*
X84939114Y-117299906D01*
X84931004Y-117315078D01*
X84824659Y-117444659D01*
X84695078Y-117551004D01*
X84695076Y-117551005D01*
X84547242Y-117630024D01*
X84386823Y-117678687D01*
X84261804Y-117691000D01*
X83378196Y-117691000D01*
X83253177Y-117678687D01*
X83092758Y-117630024D01*
X82944924Y-117551005D01*
X82944922Y-117551004D01*
X82815341Y-117444659D01*
X82708996Y-117315078D01*
X82700886Y-117299906D01*
X82629976Y-117167242D01*
X82581313Y-117006823D01*
X82564883Y-116840000D01*
X82581313Y-116673177D01*
X82629976Y-116512758D01*
X82708995Y-116364924D01*
X82708996Y-116364922D01*
X82815341Y-116235341D01*
X82944922Y-116128996D01*
X82960094Y-116120886D01*
X83092758Y-116049976D01*
X83253177Y-116001313D01*
X83378196Y-115989000D01*
X84261804Y-115989000D01*
X84386823Y-116001313D01*
X84386823Y-116001313D01*
G37*
G36*
X109786823Y-116001313D02*
G01*
X109947242Y-116049976D01*
X110079906Y-116120886D01*
X110095078Y-116128996D01*
X110224659Y-116235341D01*
X110331004Y-116364922D01*
X110331005Y-116364924D01*
X110410024Y-116512758D01*
X110458687Y-116673177D01*
X110475117Y-116840000D01*
X110458687Y-117006823D01*
X110410024Y-117167242D01*
X110339114Y-117299906D01*
X110331004Y-117315078D01*
X110224659Y-117444659D01*
X110095078Y-117551004D01*
X110095076Y-117551005D01*
X109947242Y-117630024D01*
X109786823Y-117678687D01*
X109661804Y-117691000D01*
X108778196Y-117691000D01*
X108653177Y-117678687D01*
X108492758Y-117630024D01*
X108344924Y-117551005D01*
X108344922Y-117551004D01*
X108215341Y-117444659D01*
X108108996Y-117315078D01*
X108100886Y-117299906D01*
X108029976Y-117167242D01*
X107981313Y-117006823D01*
X107964883Y-116840000D01*
X107981313Y-116673177D01*
X108029976Y-116512758D01*
X108108995Y-116364924D01*
X108108996Y-116364922D01*
X108215341Y-116235341D01*
X108344922Y-116128996D01*
X108360094Y-116120886D01*
X108492758Y-116049976D01*
X108653177Y-116001313D01*
X108778196Y-115989000D01*
X109661804Y-115989000D01*
X109786823Y-116001313D01*
X109786823Y-116001313D01*
G37*
G36*
X114866823Y-116001313D02*
G01*
X115027242Y-116049976D01*
X115159906Y-116120886D01*
X115175078Y-116128996D01*
X115304659Y-116235341D01*
X115411004Y-116364922D01*
X115411005Y-116364924D01*
X115490024Y-116512758D01*
X115538687Y-116673177D01*
X115555117Y-116840000D01*
X115538687Y-117006823D01*
X115490024Y-117167242D01*
X115419114Y-117299906D01*
X115411004Y-117315078D01*
X115304659Y-117444659D01*
X115175078Y-117551004D01*
X115175076Y-117551005D01*
X115027242Y-117630024D01*
X114866823Y-117678687D01*
X114741804Y-117691000D01*
X113858196Y-117691000D01*
X113733177Y-117678687D01*
X113572758Y-117630024D01*
X113424924Y-117551005D01*
X113424922Y-117551004D01*
X113295341Y-117444659D01*
X113188996Y-117315078D01*
X113180886Y-117299906D01*
X113109976Y-117167242D01*
X113061313Y-117006823D01*
X113044883Y-116840000D01*
X113061313Y-116673177D01*
X113109976Y-116512758D01*
X113188995Y-116364924D01*
X113188996Y-116364922D01*
X113295341Y-116235341D01*
X113424922Y-116128996D01*
X113440094Y-116120886D01*
X113572758Y-116049976D01*
X113733177Y-116001313D01*
X113858196Y-115989000D01*
X114741804Y-115989000D01*
X114866823Y-116001313D01*
X114866823Y-116001313D01*
G37*
G36*
X170746823Y-116001313D02*
G01*
X170907242Y-116049976D01*
X171039906Y-116120886D01*
X171055078Y-116128996D01*
X171184659Y-116235341D01*
X171291004Y-116364922D01*
X171291005Y-116364924D01*
X171370024Y-116512758D01*
X171418687Y-116673177D01*
X171435117Y-116840000D01*
X171418687Y-117006823D01*
X171370024Y-117167242D01*
X171299114Y-117299906D01*
X171291004Y-117315078D01*
X171184659Y-117444659D01*
X171055078Y-117551004D01*
X171055076Y-117551005D01*
X170907242Y-117630024D01*
X170746823Y-117678687D01*
X170621804Y-117691000D01*
X169738196Y-117691000D01*
X169613177Y-117678687D01*
X169452758Y-117630024D01*
X169304924Y-117551005D01*
X169304922Y-117551004D01*
X169175341Y-117444659D01*
X169068996Y-117315078D01*
X169060886Y-117299906D01*
X168989976Y-117167242D01*
X168941313Y-117006823D01*
X168924883Y-116840000D01*
X168941313Y-116673177D01*
X168989976Y-116512758D01*
X169068995Y-116364924D01*
X169068996Y-116364922D01*
X169175341Y-116235341D01*
X169304922Y-116128996D01*
X169320094Y-116120886D01*
X169452758Y-116049976D01*
X169613177Y-116001313D01*
X169738196Y-115989000D01*
X170621804Y-115989000D01*
X170746823Y-116001313D01*
X170746823Y-116001313D01*
G37*
G36*
X135186823Y-116001313D02*
G01*
X135347242Y-116049976D01*
X135479906Y-116120886D01*
X135495078Y-116128996D01*
X135624659Y-116235341D01*
X135731004Y-116364922D01*
X135731005Y-116364924D01*
X135810024Y-116512758D01*
X135858687Y-116673177D01*
X135875117Y-116840000D01*
X135858687Y-117006823D01*
X135810024Y-117167242D01*
X135739114Y-117299906D01*
X135731004Y-117315078D01*
X135624659Y-117444659D01*
X135495078Y-117551004D01*
X135495076Y-117551005D01*
X135347242Y-117630024D01*
X135186823Y-117678687D01*
X135061804Y-117691000D01*
X134178196Y-117691000D01*
X134053177Y-117678687D01*
X133892758Y-117630024D01*
X133744924Y-117551005D01*
X133744922Y-117551004D01*
X133615341Y-117444659D01*
X133508996Y-117315078D01*
X133500886Y-117299906D01*
X133429976Y-117167242D01*
X133381313Y-117006823D01*
X133364883Y-116840000D01*
X133381313Y-116673177D01*
X133429976Y-116512758D01*
X133508995Y-116364924D01*
X133508996Y-116364922D01*
X133615341Y-116235341D01*
X133744922Y-116128996D01*
X133760094Y-116120886D01*
X133892758Y-116049976D01*
X134053177Y-116001313D01*
X134178196Y-115989000D01*
X135061804Y-115989000D01*
X135186823Y-116001313D01*
X135186823Y-116001313D01*
G37*
G36*
X163126823Y-116001313D02*
G01*
X163287242Y-116049976D01*
X163419906Y-116120886D01*
X163435078Y-116128996D01*
X163564659Y-116235341D01*
X163671004Y-116364922D01*
X163671005Y-116364924D01*
X163750024Y-116512758D01*
X163798687Y-116673177D01*
X163815117Y-116840000D01*
X163798687Y-117006823D01*
X163750024Y-117167242D01*
X163679114Y-117299906D01*
X163671004Y-117315078D01*
X163564659Y-117444659D01*
X163435078Y-117551004D01*
X163435076Y-117551005D01*
X163287242Y-117630024D01*
X163126823Y-117678687D01*
X163001804Y-117691000D01*
X162118196Y-117691000D01*
X161993177Y-117678687D01*
X161832758Y-117630024D01*
X161684924Y-117551005D01*
X161684922Y-117551004D01*
X161555341Y-117444659D01*
X161448996Y-117315078D01*
X161440886Y-117299906D01*
X161369976Y-117167242D01*
X161321313Y-117006823D01*
X161304883Y-116840000D01*
X161321313Y-116673177D01*
X161369976Y-116512758D01*
X161448995Y-116364924D01*
X161448996Y-116364922D01*
X161555341Y-116235341D01*
X161684922Y-116128996D01*
X161700094Y-116120886D01*
X161832758Y-116049976D01*
X161993177Y-116001313D01*
X162118196Y-115989000D01*
X163001804Y-115989000D01*
X163126823Y-116001313D01*
X163126823Y-116001313D01*
G37*
G36*
X155506823Y-116001313D02*
G01*
X155667242Y-116049976D01*
X155799906Y-116120886D01*
X155815078Y-116128996D01*
X155944659Y-116235341D01*
X156051004Y-116364922D01*
X156051005Y-116364924D01*
X156130024Y-116512758D01*
X156178687Y-116673177D01*
X156195117Y-116840000D01*
X156178687Y-117006823D01*
X156130024Y-117167242D01*
X156059114Y-117299906D01*
X156051004Y-117315078D01*
X155944659Y-117444659D01*
X155815078Y-117551004D01*
X155815076Y-117551005D01*
X155667242Y-117630024D01*
X155506823Y-117678687D01*
X155381804Y-117691000D01*
X154498196Y-117691000D01*
X154373177Y-117678687D01*
X154212758Y-117630024D01*
X154064924Y-117551005D01*
X154064922Y-117551004D01*
X153935341Y-117444659D01*
X153828996Y-117315078D01*
X153820886Y-117299906D01*
X153749976Y-117167242D01*
X153701313Y-117006823D01*
X153684883Y-116840000D01*
X153701313Y-116673177D01*
X153749976Y-116512758D01*
X153828995Y-116364924D01*
X153828996Y-116364922D01*
X153935341Y-116235341D01*
X154064922Y-116128996D01*
X154080094Y-116120886D01*
X154212758Y-116049976D01*
X154373177Y-116001313D01*
X154498196Y-115989000D01*
X155381804Y-115989000D01*
X155506823Y-116001313D01*
X155506823Y-116001313D01*
G37*
G36*
X147886823Y-116001313D02*
G01*
X148047242Y-116049976D01*
X148179906Y-116120886D01*
X148195078Y-116128996D01*
X148324659Y-116235341D01*
X148431004Y-116364922D01*
X148431005Y-116364924D01*
X148510024Y-116512758D01*
X148558687Y-116673177D01*
X148575117Y-116840000D01*
X148558687Y-117006823D01*
X148510024Y-117167242D01*
X148439114Y-117299906D01*
X148431004Y-117315078D01*
X148324659Y-117444659D01*
X148195078Y-117551004D01*
X148195076Y-117551005D01*
X148047242Y-117630024D01*
X147886823Y-117678687D01*
X147761804Y-117691000D01*
X146878196Y-117691000D01*
X146753177Y-117678687D01*
X146592758Y-117630024D01*
X146444924Y-117551005D01*
X146444922Y-117551004D01*
X146315341Y-117444659D01*
X146208996Y-117315078D01*
X146200886Y-117299906D01*
X146129976Y-117167242D01*
X146081313Y-117006823D01*
X146064883Y-116840000D01*
X146081313Y-116673177D01*
X146129976Y-116512758D01*
X146208995Y-116364924D01*
X146208996Y-116364922D01*
X146315341Y-116235341D01*
X146444922Y-116128996D01*
X146460094Y-116120886D01*
X146592758Y-116049976D01*
X146753177Y-116001313D01*
X146878196Y-115989000D01*
X147761804Y-115989000D01*
X147886823Y-116001313D01*
X147886823Y-116001313D01*
G37*
G36*
X142806823Y-116001313D02*
G01*
X142967242Y-116049976D01*
X143099906Y-116120886D01*
X143115078Y-116128996D01*
X143244659Y-116235341D01*
X143351004Y-116364922D01*
X143351005Y-116364924D01*
X143430024Y-116512758D01*
X143478687Y-116673177D01*
X143495117Y-116840000D01*
X143478687Y-117006823D01*
X143430024Y-117167242D01*
X143359114Y-117299906D01*
X143351004Y-117315078D01*
X143244659Y-117444659D01*
X143115078Y-117551004D01*
X143115076Y-117551005D01*
X142967242Y-117630024D01*
X142806823Y-117678687D01*
X142681804Y-117691000D01*
X141798196Y-117691000D01*
X141673177Y-117678687D01*
X141512758Y-117630024D01*
X141364924Y-117551005D01*
X141364922Y-117551004D01*
X141235341Y-117444659D01*
X141128996Y-117315078D01*
X141120886Y-117299906D01*
X141049976Y-117167242D01*
X141001313Y-117006823D01*
X140984883Y-116840000D01*
X141001313Y-116673177D01*
X141049976Y-116512758D01*
X141128995Y-116364924D01*
X141128996Y-116364922D01*
X141235341Y-116235341D01*
X141364922Y-116128996D01*
X141380094Y-116120886D01*
X141512758Y-116049976D01*
X141673177Y-116001313D01*
X141798196Y-115989000D01*
X142681804Y-115989000D01*
X142806823Y-116001313D01*
X142806823Y-116001313D01*
G37*
G36*
X170746823Y-113461313D02*
G01*
X170907242Y-113509976D01*
X171039906Y-113580886D01*
X171055078Y-113588996D01*
X171184659Y-113695341D01*
X171291004Y-113824922D01*
X171291005Y-113824924D01*
X171370024Y-113972758D01*
X171418687Y-114133177D01*
X171435117Y-114300000D01*
X171418687Y-114466823D01*
X171370024Y-114627242D01*
X171299114Y-114759906D01*
X171291004Y-114775078D01*
X171184659Y-114904659D01*
X171055078Y-115011004D01*
X171055076Y-115011005D01*
X170907242Y-115090024D01*
X170746823Y-115138687D01*
X170621804Y-115151000D01*
X169738196Y-115151000D01*
X169613177Y-115138687D01*
X169452758Y-115090024D01*
X169304924Y-115011005D01*
X169304922Y-115011004D01*
X169175341Y-114904659D01*
X169068996Y-114775078D01*
X169060886Y-114759906D01*
X168989976Y-114627242D01*
X168941313Y-114466823D01*
X168924883Y-114300000D01*
X168941313Y-114133177D01*
X168989976Y-113972758D01*
X169068995Y-113824924D01*
X169068996Y-113824922D01*
X169175341Y-113695341D01*
X169304922Y-113588996D01*
X169320094Y-113580886D01*
X169452758Y-113509976D01*
X169613177Y-113461313D01*
X169738196Y-113449000D01*
X170621804Y-113449000D01*
X170746823Y-113461313D01*
X170746823Y-113461313D01*
G37*
G36*
X114866823Y-113461313D02*
G01*
X115027242Y-113509976D01*
X115159906Y-113580886D01*
X115175078Y-113588996D01*
X115304659Y-113695341D01*
X115411004Y-113824922D01*
X115411005Y-113824924D01*
X115490024Y-113972758D01*
X115538687Y-114133177D01*
X115555117Y-114300000D01*
X115538687Y-114466823D01*
X115490024Y-114627242D01*
X115419114Y-114759906D01*
X115411004Y-114775078D01*
X115304659Y-114904659D01*
X115175078Y-115011004D01*
X115175076Y-115011005D01*
X115027242Y-115090024D01*
X114866823Y-115138687D01*
X114741804Y-115151000D01*
X113858196Y-115151000D01*
X113733177Y-115138687D01*
X113572758Y-115090024D01*
X113424924Y-115011005D01*
X113424922Y-115011004D01*
X113295341Y-114904659D01*
X113188996Y-114775078D01*
X113180886Y-114759906D01*
X113109976Y-114627242D01*
X113061313Y-114466823D01*
X113044883Y-114300000D01*
X113061313Y-114133177D01*
X113109976Y-113972758D01*
X113188995Y-113824924D01*
X113188996Y-113824922D01*
X113295341Y-113695341D01*
X113424922Y-113588996D01*
X113440094Y-113580886D01*
X113572758Y-113509976D01*
X113733177Y-113461313D01*
X113858196Y-113449000D01*
X114741804Y-113449000D01*
X114866823Y-113461313D01*
X114866823Y-113461313D01*
G37*
G36*
X122486823Y-113461313D02*
G01*
X122647242Y-113509976D01*
X122779906Y-113580886D01*
X122795078Y-113588996D01*
X122924659Y-113695341D01*
X123031004Y-113824922D01*
X123031005Y-113824924D01*
X123110024Y-113972758D01*
X123158687Y-114133177D01*
X123175117Y-114300000D01*
X123158687Y-114466823D01*
X123110024Y-114627242D01*
X123039114Y-114759906D01*
X123031004Y-114775078D01*
X122924659Y-114904659D01*
X122795078Y-115011004D01*
X122795076Y-115011005D01*
X122647242Y-115090024D01*
X122486823Y-115138687D01*
X122361804Y-115151000D01*
X121478196Y-115151000D01*
X121353177Y-115138687D01*
X121192758Y-115090024D01*
X121044924Y-115011005D01*
X121044922Y-115011004D01*
X120915341Y-114904659D01*
X120808996Y-114775078D01*
X120800886Y-114759906D01*
X120729976Y-114627242D01*
X120681313Y-114466823D01*
X120664883Y-114300000D01*
X120681313Y-114133177D01*
X120729976Y-113972758D01*
X120808995Y-113824924D01*
X120808996Y-113824922D01*
X120915341Y-113695341D01*
X121044922Y-113588996D01*
X121060094Y-113580886D01*
X121192758Y-113509976D01*
X121353177Y-113461313D01*
X121478196Y-113449000D01*
X122361804Y-113449000D01*
X122486823Y-113461313D01*
X122486823Y-113461313D01*
G37*
G36*
X155506823Y-113461313D02*
G01*
X155667242Y-113509976D01*
X155799906Y-113580886D01*
X155815078Y-113588996D01*
X155944659Y-113695341D01*
X156051004Y-113824922D01*
X156051005Y-113824924D01*
X156130024Y-113972758D01*
X156178687Y-114133177D01*
X156195117Y-114300000D01*
X156178687Y-114466823D01*
X156130024Y-114627242D01*
X156059114Y-114759906D01*
X156051004Y-114775078D01*
X155944659Y-114904659D01*
X155815078Y-115011004D01*
X155815076Y-115011005D01*
X155667242Y-115090024D01*
X155506823Y-115138687D01*
X155381804Y-115151000D01*
X154498196Y-115151000D01*
X154373177Y-115138687D01*
X154212758Y-115090024D01*
X154064924Y-115011005D01*
X154064922Y-115011004D01*
X153935341Y-114904659D01*
X153828996Y-114775078D01*
X153820886Y-114759906D01*
X153749976Y-114627242D01*
X153701313Y-114466823D01*
X153684883Y-114300000D01*
X153701313Y-114133177D01*
X153749976Y-113972758D01*
X153828995Y-113824924D01*
X153828996Y-113824922D01*
X153935341Y-113695341D01*
X154064922Y-113588996D01*
X154080094Y-113580886D01*
X154212758Y-113509976D01*
X154373177Y-113461313D01*
X154498196Y-113449000D01*
X155381804Y-113449000D01*
X155506823Y-113461313D01*
X155506823Y-113461313D01*
G37*
G36*
X163126823Y-113461313D02*
G01*
X163287242Y-113509976D01*
X163419906Y-113580886D01*
X163435078Y-113588996D01*
X163564659Y-113695341D01*
X163671004Y-113824922D01*
X163671005Y-113824924D01*
X163750024Y-113972758D01*
X163798687Y-114133177D01*
X163815117Y-114300000D01*
X163798687Y-114466823D01*
X163750024Y-114627242D01*
X163679114Y-114759906D01*
X163671004Y-114775078D01*
X163564659Y-114904659D01*
X163435078Y-115011004D01*
X163435076Y-115011005D01*
X163287242Y-115090024D01*
X163126823Y-115138687D01*
X163001804Y-115151000D01*
X162118196Y-115151000D01*
X161993177Y-115138687D01*
X161832758Y-115090024D01*
X161684924Y-115011005D01*
X161684922Y-115011004D01*
X161555341Y-114904659D01*
X161448996Y-114775078D01*
X161440886Y-114759906D01*
X161369976Y-114627242D01*
X161321313Y-114466823D01*
X161304883Y-114300000D01*
X161321313Y-114133177D01*
X161369976Y-113972758D01*
X161448995Y-113824924D01*
X161448996Y-113824922D01*
X161555341Y-113695341D01*
X161684922Y-113588996D01*
X161700094Y-113580886D01*
X161832758Y-113509976D01*
X161993177Y-113461313D01*
X162118196Y-113449000D01*
X163001804Y-113449000D01*
X163126823Y-113461313D01*
X163126823Y-113461313D01*
G37*
G36*
X102166823Y-113461313D02*
G01*
X102327242Y-113509976D01*
X102459906Y-113580886D01*
X102475078Y-113588996D01*
X102604659Y-113695341D01*
X102711004Y-113824922D01*
X102711005Y-113824924D01*
X102790024Y-113972758D01*
X102838687Y-114133177D01*
X102855117Y-114300000D01*
X102838687Y-114466823D01*
X102790024Y-114627242D01*
X102719114Y-114759906D01*
X102711004Y-114775078D01*
X102604659Y-114904659D01*
X102475078Y-115011004D01*
X102475076Y-115011005D01*
X102327242Y-115090024D01*
X102166823Y-115138687D01*
X102041804Y-115151000D01*
X101158196Y-115151000D01*
X101033177Y-115138687D01*
X100872758Y-115090024D01*
X100724924Y-115011005D01*
X100724922Y-115011004D01*
X100595341Y-114904659D01*
X100488996Y-114775078D01*
X100480886Y-114759906D01*
X100409976Y-114627242D01*
X100361313Y-114466823D01*
X100344883Y-114300000D01*
X100361313Y-114133177D01*
X100409976Y-113972758D01*
X100488995Y-113824924D01*
X100488996Y-113824922D01*
X100595341Y-113695341D01*
X100724922Y-113588996D01*
X100740094Y-113580886D01*
X100872758Y-113509976D01*
X101033177Y-113461313D01*
X101158196Y-113449000D01*
X102041804Y-113449000D01*
X102166823Y-113461313D01*
X102166823Y-113461313D01*
G37*
G36*
X135186823Y-113461313D02*
G01*
X135347242Y-113509976D01*
X135479906Y-113580886D01*
X135495078Y-113588996D01*
X135624659Y-113695341D01*
X135731004Y-113824922D01*
X135731005Y-113824924D01*
X135810024Y-113972758D01*
X135858687Y-114133177D01*
X135875117Y-114300000D01*
X135858687Y-114466823D01*
X135810024Y-114627242D01*
X135739114Y-114759906D01*
X135731004Y-114775078D01*
X135624659Y-114904659D01*
X135495078Y-115011004D01*
X135495076Y-115011005D01*
X135347242Y-115090024D01*
X135186823Y-115138687D01*
X135061804Y-115151000D01*
X134178196Y-115151000D01*
X134053177Y-115138687D01*
X133892758Y-115090024D01*
X133744924Y-115011005D01*
X133744922Y-115011004D01*
X133615341Y-114904659D01*
X133508996Y-114775078D01*
X133500886Y-114759906D01*
X133429976Y-114627242D01*
X133381313Y-114466823D01*
X133364883Y-114300000D01*
X133381313Y-114133177D01*
X133429976Y-113972758D01*
X133508995Y-113824924D01*
X133508996Y-113824922D01*
X133615341Y-113695341D01*
X133744922Y-113588996D01*
X133760094Y-113580886D01*
X133892758Y-113509976D01*
X134053177Y-113461313D01*
X134178196Y-113449000D01*
X135061804Y-113449000D01*
X135186823Y-113461313D01*
X135186823Y-113461313D01*
G37*
G36*
X142806823Y-113461313D02*
G01*
X142967242Y-113509976D01*
X143099906Y-113580886D01*
X143115078Y-113588996D01*
X143244659Y-113695341D01*
X143351004Y-113824922D01*
X143351005Y-113824924D01*
X143430024Y-113972758D01*
X143478687Y-114133177D01*
X143495117Y-114300000D01*
X143478687Y-114466823D01*
X143430024Y-114627242D01*
X143359114Y-114759906D01*
X143351004Y-114775078D01*
X143244659Y-114904659D01*
X143115078Y-115011004D01*
X143115076Y-115011005D01*
X142967242Y-115090024D01*
X142806823Y-115138687D01*
X142681804Y-115151000D01*
X141798196Y-115151000D01*
X141673177Y-115138687D01*
X141512758Y-115090024D01*
X141364924Y-115011005D01*
X141364922Y-115011004D01*
X141235341Y-114904659D01*
X141128996Y-114775078D01*
X141120886Y-114759906D01*
X141049976Y-114627242D01*
X141001313Y-114466823D01*
X140984883Y-114300000D01*
X141001313Y-114133177D01*
X141049976Y-113972758D01*
X141128995Y-113824924D01*
X141128996Y-113824922D01*
X141235341Y-113695341D01*
X141364922Y-113588996D01*
X141380094Y-113580886D01*
X141512758Y-113509976D01*
X141673177Y-113461313D01*
X141798196Y-113449000D01*
X142681804Y-113449000D01*
X142806823Y-113461313D01*
X142806823Y-113461313D01*
G37*
G36*
X147886823Y-113461313D02*
G01*
X148047242Y-113509976D01*
X148179906Y-113580886D01*
X148195078Y-113588996D01*
X148324659Y-113695341D01*
X148431004Y-113824922D01*
X148431005Y-113824924D01*
X148510024Y-113972758D01*
X148558687Y-114133177D01*
X148575117Y-114300000D01*
X148558687Y-114466823D01*
X148510024Y-114627242D01*
X148439114Y-114759906D01*
X148431004Y-114775078D01*
X148324659Y-114904659D01*
X148195078Y-115011004D01*
X148195076Y-115011005D01*
X148047242Y-115090024D01*
X147886823Y-115138687D01*
X147761804Y-115151000D01*
X146878196Y-115151000D01*
X146753177Y-115138687D01*
X146592758Y-115090024D01*
X146444924Y-115011005D01*
X146444922Y-115011004D01*
X146315341Y-114904659D01*
X146208996Y-114775078D01*
X146200886Y-114759906D01*
X146129976Y-114627242D01*
X146081313Y-114466823D01*
X146064883Y-114300000D01*
X146081313Y-114133177D01*
X146129976Y-113972758D01*
X146208995Y-113824924D01*
X146208996Y-113824922D01*
X146315341Y-113695341D01*
X146444922Y-113588996D01*
X146460094Y-113580886D01*
X146592758Y-113509976D01*
X146753177Y-113461313D01*
X146878196Y-113449000D01*
X147761804Y-113449000D01*
X147886823Y-113461313D01*
X147886823Y-113461313D01*
G37*
G36*
X92006823Y-113461313D02*
G01*
X92167242Y-113509976D01*
X92299906Y-113580886D01*
X92315078Y-113588996D01*
X92444659Y-113695341D01*
X92551004Y-113824922D01*
X92551005Y-113824924D01*
X92630024Y-113972758D01*
X92678687Y-114133177D01*
X92695117Y-114300000D01*
X92678687Y-114466823D01*
X92630024Y-114627242D01*
X92559114Y-114759906D01*
X92551004Y-114775078D01*
X92444659Y-114904659D01*
X92315078Y-115011004D01*
X92315076Y-115011005D01*
X92167242Y-115090024D01*
X92006823Y-115138687D01*
X91881804Y-115151000D01*
X90998196Y-115151000D01*
X90873177Y-115138687D01*
X90712758Y-115090024D01*
X90564924Y-115011005D01*
X90564922Y-115011004D01*
X90435341Y-114904659D01*
X90328996Y-114775078D01*
X90320886Y-114759906D01*
X90249976Y-114627242D01*
X90201313Y-114466823D01*
X90184883Y-114300000D01*
X90201313Y-114133177D01*
X90249976Y-113972758D01*
X90328995Y-113824924D01*
X90328996Y-113824922D01*
X90435341Y-113695341D01*
X90564922Y-113588996D01*
X90580094Y-113580886D01*
X90712758Y-113509976D01*
X90873177Y-113461313D01*
X90998196Y-113449000D01*
X91881804Y-113449000D01*
X92006823Y-113461313D01*
X92006823Y-113461313D01*
G37*
G36*
X84386823Y-113461313D02*
G01*
X84547242Y-113509976D01*
X84679906Y-113580886D01*
X84695078Y-113588996D01*
X84824659Y-113695341D01*
X84931004Y-113824922D01*
X84931005Y-113824924D01*
X85010024Y-113972758D01*
X85058687Y-114133177D01*
X85075117Y-114300000D01*
X85058687Y-114466823D01*
X85010024Y-114627242D01*
X84939114Y-114759906D01*
X84931004Y-114775078D01*
X84824659Y-114904659D01*
X84695078Y-115011004D01*
X84695076Y-115011005D01*
X84547242Y-115090024D01*
X84386823Y-115138687D01*
X84261804Y-115151000D01*
X83378196Y-115151000D01*
X83253177Y-115138687D01*
X83092758Y-115090024D01*
X82944924Y-115011005D01*
X82944922Y-115011004D01*
X82815341Y-114904659D01*
X82708996Y-114775078D01*
X82700886Y-114759906D01*
X82629976Y-114627242D01*
X82581313Y-114466823D01*
X82564883Y-114300000D01*
X82581313Y-114133177D01*
X82629976Y-113972758D01*
X82708995Y-113824924D01*
X82708996Y-113824922D01*
X82815341Y-113695341D01*
X82944922Y-113588996D01*
X82960094Y-113580886D01*
X83092758Y-113509976D01*
X83253177Y-113461313D01*
X83378196Y-113449000D01*
X84261804Y-113449000D01*
X84386823Y-113461313D01*
X84386823Y-113461313D01*
G37*
G36*
X109786823Y-113461313D02*
G01*
X109947242Y-113509976D01*
X110079906Y-113580886D01*
X110095078Y-113588996D01*
X110224659Y-113695341D01*
X110331004Y-113824922D01*
X110331005Y-113824924D01*
X110410024Y-113972758D01*
X110458687Y-114133177D01*
X110475117Y-114300000D01*
X110458687Y-114466823D01*
X110410024Y-114627242D01*
X110339114Y-114759906D01*
X110331004Y-114775078D01*
X110224659Y-114904659D01*
X110095078Y-115011004D01*
X110095076Y-115011005D01*
X109947242Y-115090024D01*
X109786823Y-115138687D01*
X109661804Y-115151000D01*
X108778196Y-115151000D01*
X108653177Y-115138687D01*
X108492758Y-115090024D01*
X108344924Y-115011005D01*
X108344922Y-115011004D01*
X108215341Y-114904659D01*
X108108996Y-114775078D01*
X108100886Y-114759906D01*
X108029976Y-114627242D01*
X107981313Y-114466823D01*
X107964883Y-114300000D01*
X107981313Y-114133177D01*
X108029976Y-113972758D01*
X108108995Y-113824924D01*
X108108996Y-113824922D01*
X108215341Y-113695341D01*
X108344922Y-113588996D01*
X108360094Y-113580886D01*
X108492758Y-113509976D01*
X108653177Y-113461313D01*
X108778196Y-113449000D01*
X109661804Y-113449000D01*
X109786823Y-113461313D01*
X109786823Y-113461313D01*
G37*
G36*
X114866823Y-110921313D02*
G01*
X115027242Y-110969976D01*
X115159906Y-111040886D01*
X115175078Y-111048996D01*
X115304659Y-111155341D01*
X115411004Y-111284922D01*
X115411005Y-111284924D01*
X115490024Y-111432758D01*
X115538687Y-111593177D01*
X115555117Y-111760000D01*
X115538687Y-111926823D01*
X115490024Y-112087242D01*
X115419114Y-112219906D01*
X115411004Y-112235078D01*
X115304659Y-112364659D01*
X115175078Y-112471004D01*
X115175076Y-112471005D01*
X115027242Y-112550024D01*
X114866823Y-112598687D01*
X114741804Y-112611000D01*
X113858196Y-112611000D01*
X113733177Y-112598687D01*
X113572758Y-112550024D01*
X113424924Y-112471005D01*
X113424922Y-112471004D01*
X113295341Y-112364659D01*
X113188996Y-112235078D01*
X113180886Y-112219906D01*
X113109976Y-112087242D01*
X113061313Y-111926823D01*
X113044883Y-111760000D01*
X113061313Y-111593177D01*
X113109976Y-111432758D01*
X113188995Y-111284924D01*
X113188996Y-111284922D01*
X113295341Y-111155341D01*
X113424922Y-111048996D01*
X113440094Y-111040886D01*
X113572758Y-110969976D01*
X113733177Y-110921313D01*
X113858196Y-110909000D01*
X114741804Y-110909000D01*
X114866823Y-110921313D01*
X114866823Y-110921313D01*
G37*
G36*
X170746823Y-110921313D02*
G01*
X170907242Y-110969976D01*
X171039906Y-111040886D01*
X171055078Y-111048996D01*
X171184659Y-111155341D01*
X171291004Y-111284922D01*
X171291005Y-111284924D01*
X171370024Y-111432758D01*
X171418687Y-111593177D01*
X171435117Y-111760000D01*
X171418687Y-111926823D01*
X171370024Y-112087242D01*
X171299114Y-112219906D01*
X171291004Y-112235078D01*
X171184659Y-112364659D01*
X171055078Y-112471004D01*
X171055076Y-112471005D01*
X170907242Y-112550024D01*
X170746823Y-112598687D01*
X170621804Y-112611000D01*
X169738196Y-112611000D01*
X169613177Y-112598687D01*
X169452758Y-112550024D01*
X169304924Y-112471005D01*
X169304922Y-112471004D01*
X169175341Y-112364659D01*
X169068996Y-112235078D01*
X169060886Y-112219906D01*
X168989976Y-112087242D01*
X168941313Y-111926823D01*
X168924883Y-111760000D01*
X168941313Y-111593177D01*
X168989976Y-111432758D01*
X169068995Y-111284924D01*
X169068996Y-111284922D01*
X169175341Y-111155341D01*
X169304922Y-111048996D01*
X169320094Y-111040886D01*
X169452758Y-110969976D01*
X169613177Y-110921313D01*
X169738196Y-110909000D01*
X170621804Y-110909000D01*
X170746823Y-110921313D01*
X170746823Y-110921313D01*
G37*
G36*
X163126823Y-110921313D02*
G01*
X163287242Y-110969976D01*
X163419906Y-111040886D01*
X163435078Y-111048996D01*
X163564659Y-111155341D01*
X163671004Y-111284922D01*
X163671005Y-111284924D01*
X163750024Y-111432758D01*
X163798687Y-111593177D01*
X163815117Y-111760000D01*
X163798687Y-111926823D01*
X163750024Y-112087242D01*
X163679114Y-112219906D01*
X163671004Y-112235078D01*
X163564659Y-112364659D01*
X163435078Y-112471004D01*
X163435076Y-112471005D01*
X163287242Y-112550024D01*
X163126823Y-112598687D01*
X163001804Y-112611000D01*
X162118196Y-112611000D01*
X161993177Y-112598687D01*
X161832758Y-112550024D01*
X161684924Y-112471005D01*
X161684922Y-112471004D01*
X161555341Y-112364659D01*
X161448996Y-112235078D01*
X161440886Y-112219906D01*
X161369976Y-112087242D01*
X161321313Y-111926823D01*
X161304883Y-111760000D01*
X161321313Y-111593177D01*
X161369976Y-111432758D01*
X161448995Y-111284924D01*
X161448996Y-111284922D01*
X161555341Y-111155341D01*
X161684922Y-111048996D01*
X161700094Y-111040886D01*
X161832758Y-110969976D01*
X161993177Y-110921313D01*
X162118196Y-110909000D01*
X163001804Y-110909000D01*
X163126823Y-110921313D01*
X163126823Y-110921313D01*
G37*
G36*
X155506823Y-110921313D02*
G01*
X155667242Y-110969976D01*
X155799906Y-111040886D01*
X155815078Y-111048996D01*
X155944659Y-111155341D01*
X156051004Y-111284922D01*
X156051005Y-111284924D01*
X156130024Y-111432758D01*
X156178687Y-111593177D01*
X156195117Y-111760000D01*
X156178687Y-111926823D01*
X156130024Y-112087242D01*
X156059114Y-112219906D01*
X156051004Y-112235078D01*
X155944659Y-112364659D01*
X155815078Y-112471004D01*
X155815076Y-112471005D01*
X155667242Y-112550024D01*
X155506823Y-112598687D01*
X155381804Y-112611000D01*
X154498196Y-112611000D01*
X154373177Y-112598687D01*
X154212758Y-112550024D01*
X154064924Y-112471005D01*
X154064922Y-112471004D01*
X153935341Y-112364659D01*
X153828996Y-112235078D01*
X153820886Y-112219906D01*
X153749976Y-112087242D01*
X153701313Y-111926823D01*
X153684883Y-111760000D01*
X153701313Y-111593177D01*
X153749976Y-111432758D01*
X153828995Y-111284924D01*
X153828996Y-111284922D01*
X153935341Y-111155341D01*
X154064922Y-111048996D01*
X154080094Y-111040886D01*
X154212758Y-110969976D01*
X154373177Y-110921313D01*
X154498196Y-110909000D01*
X155381804Y-110909000D01*
X155506823Y-110921313D01*
X155506823Y-110921313D01*
G37*
G36*
X147886823Y-110921313D02*
G01*
X148047242Y-110969976D01*
X148179906Y-111040886D01*
X148195078Y-111048996D01*
X148324659Y-111155341D01*
X148431004Y-111284922D01*
X148431005Y-111284924D01*
X148510024Y-111432758D01*
X148558687Y-111593177D01*
X148575117Y-111760000D01*
X148558687Y-111926823D01*
X148510024Y-112087242D01*
X148439114Y-112219906D01*
X148431004Y-112235078D01*
X148324659Y-112364659D01*
X148195078Y-112471004D01*
X148195076Y-112471005D01*
X148047242Y-112550024D01*
X147886823Y-112598687D01*
X147761804Y-112611000D01*
X146878196Y-112611000D01*
X146753177Y-112598687D01*
X146592758Y-112550024D01*
X146444924Y-112471005D01*
X146444922Y-112471004D01*
X146315341Y-112364659D01*
X146208996Y-112235078D01*
X146200886Y-112219906D01*
X146129976Y-112087242D01*
X146081313Y-111926823D01*
X146064883Y-111760000D01*
X146081313Y-111593177D01*
X146129976Y-111432758D01*
X146208995Y-111284924D01*
X146208996Y-111284922D01*
X146315341Y-111155341D01*
X146444922Y-111048996D01*
X146460094Y-111040886D01*
X146592758Y-110969976D01*
X146753177Y-110921313D01*
X146878196Y-110909000D01*
X147761804Y-110909000D01*
X147886823Y-110921313D01*
X147886823Y-110921313D01*
G37*
G36*
X142806823Y-110921313D02*
G01*
X142967242Y-110969976D01*
X143099906Y-111040886D01*
X143115078Y-111048996D01*
X143244659Y-111155341D01*
X143351004Y-111284922D01*
X143351005Y-111284924D01*
X143430024Y-111432758D01*
X143478687Y-111593177D01*
X143495117Y-111760000D01*
X143478687Y-111926823D01*
X143430024Y-112087242D01*
X143359114Y-112219906D01*
X143351004Y-112235078D01*
X143244659Y-112364659D01*
X143115078Y-112471004D01*
X143115076Y-112471005D01*
X142967242Y-112550024D01*
X142806823Y-112598687D01*
X142681804Y-112611000D01*
X141798196Y-112611000D01*
X141673177Y-112598687D01*
X141512758Y-112550024D01*
X141364924Y-112471005D01*
X141364922Y-112471004D01*
X141235341Y-112364659D01*
X141128996Y-112235078D01*
X141120886Y-112219906D01*
X141049976Y-112087242D01*
X141001313Y-111926823D01*
X140984883Y-111760000D01*
X141001313Y-111593177D01*
X141049976Y-111432758D01*
X141128995Y-111284924D01*
X141128996Y-111284922D01*
X141235341Y-111155341D01*
X141364922Y-111048996D01*
X141380094Y-111040886D01*
X141512758Y-110969976D01*
X141673177Y-110921313D01*
X141798196Y-110909000D01*
X142681804Y-110909000D01*
X142806823Y-110921313D01*
X142806823Y-110921313D01*
G37*
G36*
X122486823Y-110921313D02*
G01*
X122647242Y-110969976D01*
X122779906Y-111040886D01*
X122795078Y-111048996D01*
X122924659Y-111155341D01*
X123031004Y-111284922D01*
X123031005Y-111284924D01*
X123110024Y-111432758D01*
X123158687Y-111593177D01*
X123175117Y-111760000D01*
X123158687Y-111926823D01*
X123110024Y-112087242D01*
X123039114Y-112219906D01*
X123031004Y-112235078D01*
X122924659Y-112364659D01*
X122795078Y-112471004D01*
X122795076Y-112471005D01*
X122647242Y-112550024D01*
X122486823Y-112598687D01*
X122361804Y-112611000D01*
X121478196Y-112611000D01*
X121353177Y-112598687D01*
X121192758Y-112550024D01*
X121044924Y-112471005D01*
X121044922Y-112471004D01*
X120915341Y-112364659D01*
X120808996Y-112235078D01*
X120800886Y-112219906D01*
X120729976Y-112087242D01*
X120681313Y-111926823D01*
X120664883Y-111760000D01*
X120681313Y-111593177D01*
X120729976Y-111432758D01*
X120808995Y-111284924D01*
X120808996Y-111284922D01*
X120915341Y-111155341D01*
X121044922Y-111048996D01*
X121060094Y-111040886D01*
X121192758Y-110969976D01*
X121353177Y-110921313D01*
X121478196Y-110909000D01*
X122361804Y-110909000D01*
X122486823Y-110921313D01*
X122486823Y-110921313D01*
G37*
G36*
X109786823Y-110921313D02*
G01*
X109947242Y-110969976D01*
X110079906Y-111040886D01*
X110095078Y-111048996D01*
X110224659Y-111155341D01*
X110331004Y-111284922D01*
X110331005Y-111284924D01*
X110410024Y-111432758D01*
X110458687Y-111593177D01*
X110475117Y-111760000D01*
X110458687Y-111926823D01*
X110410024Y-112087242D01*
X110339114Y-112219906D01*
X110331004Y-112235078D01*
X110224659Y-112364659D01*
X110095078Y-112471004D01*
X110095076Y-112471005D01*
X109947242Y-112550024D01*
X109786823Y-112598687D01*
X109661804Y-112611000D01*
X108778196Y-112611000D01*
X108653177Y-112598687D01*
X108492758Y-112550024D01*
X108344924Y-112471005D01*
X108344922Y-112471004D01*
X108215341Y-112364659D01*
X108108996Y-112235078D01*
X108100886Y-112219906D01*
X108029976Y-112087242D01*
X107981313Y-111926823D01*
X107964883Y-111760000D01*
X107981313Y-111593177D01*
X108029976Y-111432758D01*
X108108995Y-111284924D01*
X108108996Y-111284922D01*
X108215341Y-111155341D01*
X108344922Y-111048996D01*
X108360094Y-111040886D01*
X108492758Y-110969976D01*
X108653177Y-110921313D01*
X108778196Y-110909000D01*
X109661804Y-110909000D01*
X109786823Y-110921313D01*
X109786823Y-110921313D01*
G37*
G36*
X102166823Y-110921313D02*
G01*
X102327242Y-110969976D01*
X102459906Y-111040886D01*
X102475078Y-111048996D01*
X102604659Y-111155341D01*
X102711004Y-111284922D01*
X102711005Y-111284924D01*
X102790024Y-111432758D01*
X102838687Y-111593177D01*
X102855117Y-111760000D01*
X102838687Y-111926823D01*
X102790024Y-112087242D01*
X102719114Y-112219906D01*
X102711004Y-112235078D01*
X102604659Y-112364659D01*
X102475078Y-112471004D01*
X102475076Y-112471005D01*
X102327242Y-112550024D01*
X102166823Y-112598687D01*
X102041804Y-112611000D01*
X101158196Y-112611000D01*
X101033177Y-112598687D01*
X100872758Y-112550024D01*
X100724924Y-112471005D01*
X100724922Y-112471004D01*
X100595341Y-112364659D01*
X100488996Y-112235078D01*
X100480886Y-112219906D01*
X100409976Y-112087242D01*
X100361313Y-111926823D01*
X100344883Y-111760000D01*
X100361313Y-111593177D01*
X100409976Y-111432758D01*
X100488995Y-111284924D01*
X100488996Y-111284922D01*
X100595341Y-111155341D01*
X100724922Y-111048996D01*
X100740094Y-111040886D01*
X100872758Y-110969976D01*
X101033177Y-110921313D01*
X101158196Y-110909000D01*
X102041804Y-110909000D01*
X102166823Y-110921313D01*
X102166823Y-110921313D01*
G37*
G36*
X92006823Y-110921313D02*
G01*
X92167242Y-110969976D01*
X92299906Y-111040886D01*
X92315078Y-111048996D01*
X92444659Y-111155341D01*
X92551004Y-111284922D01*
X92551005Y-111284924D01*
X92630024Y-111432758D01*
X92678687Y-111593177D01*
X92695117Y-111760000D01*
X92678687Y-111926823D01*
X92630024Y-112087242D01*
X92559114Y-112219906D01*
X92551004Y-112235078D01*
X92444659Y-112364659D01*
X92315078Y-112471004D01*
X92315076Y-112471005D01*
X92167242Y-112550024D01*
X92006823Y-112598687D01*
X91881804Y-112611000D01*
X90998196Y-112611000D01*
X90873177Y-112598687D01*
X90712758Y-112550024D01*
X90564924Y-112471005D01*
X90564922Y-112471004D01*
X90435341Y-112364659D01*
X90328996Y-112235078D01*
X90320886Y-112219906D01*
X90249976Y-112087242D01*
X90201313Y-111926823D01*
X90184883Y-111760000D01*
X90201313Y-111593177D01*
X90249976Y-111432758D01*
X90328995Y-111284924D01*
X90328996Y-111284922D01*
X90435341Y-111155341D01*
X90564922Y-111048996D01*
X90580094Y-111040886D01*
X90712758Y-110969976D01*
X90873177Y-110921313D01*
X90998196Y-110909000D01*
X91881804Y-110909000D01*
X92006823Y-110921313D01*
X92006823Y-110921313D01*
G37*
G36*
X84386823Y-110921313D02*
G01*
X84547242Y-110969976D01*
X84679906Y-111040886D01*
X84695078Y-111048996D01*
X84824659Y-111155341D01*
X84931004Y-111284922D01*
X84931005Y-111284924D01*
X85010024Y-111432758D01*
X85058687Y-111593177D01*
X85075117Y-111760000D01*
X85058687Y-111926823D01*
X85010024Y-112087242D01*
X84939114Y-112219906D01*
X84931004Y-112235078D01*
X84824659Y-112364659D01*
X84695078Y-112471004D01*
X84695076Y-112471005D01*
X84547242Y-112550024D01*
X84386823Y-112598687D01*
X84261804Y-112611000D01*
X83378196Y-112611000D01*
X83253177Y-112598687D01*
X83092758Y-112550024D01*
X82944924Y-112471005D01*
X82944922Y-112471004D01*
X82815341Y-112364659D01*
X82708996Y-112235078D01*
X82700886Y-112219906D01*
X82629976Y-112087242D01*
X82581313Y-111926823D01*
X82564883Y-111760000D01*
X82581313Y-111593177D01*
X82629976Y-111432758D01*
X82708995Y-111284924D01*
X82708996Y-111284922D01*
X82815341Y-111155341D01*
X82944922Y-111048996D01*
X82960094Y-111040886D01*
X83092758Y-110969976D01*
X83253177Y-110921313D01*
X83378196Y-110909000D01*
X84261804Y-110909000D01*
X84386823Y-110921313D01*
X84386823Y-110921313D01*
G37*
G36*
X135186823Y-110921313D02*
G01*
X135347242Y-110969976D01*
X135479906Y-111040886D01*
X135495078Y-111048996D01*
X135624659Y-111155341D01*
X135731004Y-111284922D01*
X135731005Y-111284924D01*
X135810024Y-111432758D01*
X135858687Y-111593177D01*
X135875117Y-111760000D01*
X135858687Y-111926823D01*
X135810024Y-112087242D01*
X135739114Y-112219906D01*
X135731004Y-112235078D01*
X135624659Y-112364659D01*
X135495078Y-112471004D01*
X135495076Y-112471005D01*
X135347242Y-112550024D01*
X135186823Y-112598687D01*
X135061804Y-112611000D01*
X134178196Y-112611000D01*
X134053177Y-112598687D01*
X133892758Y-112550024D01*
X133744924Y-112471005D01*
X133744922Y-112471004D01*
X133615341Y-112364659D01*
X133508996Y-112235078D01*
X133500886Y-112219906D01*
X133429976Y-112087242D01*
X133381313Y-111926823D01*
X133364883Y-111760000D01*
X133381313Y-111593177D01*
X133429976Y-111432758D01*
X133508995Y-111284924D01*
X133508996Y-111284922D01*
X133615341Y-111155341D01*
X133744922Y-111048996D01*
X133760094Y-111040886D01*
X133892758Y-110969976D01*
X134053177Y-110921313D01*
X134178196Y-110909000D01*
X135061804Y-110909000D01*
X135186823Y-110921313D01*
X135186823Y-110921313D01*
G37*
G36*
X83559561Y-104492966D02*
G01*
X83592383Y-104502923D01*
X83622632Y-104519092D01*
X83649148Y-104540852D01*
X83670908Y-104567368D01*
X83687077Y-104597617D01*
X83697034Y-104630439D01*
X83701000Y-104670713D01*
X83701000Y-106149287D01*
X83697034Y-106189561D01*
X83687077Y-106222383D01*
X83670908Y-106252632D01*
X83649148Y-106279148D01*
X83622632Y-106300908D01*
X83592383Y-106317077D01*
X83559561Y-106327034D01*
X83519287Y-106331000D01*
X81580713Y-106331000D01*
X81540439Y-106327034D01*
X81507617Y-106317077D01*
X81477368Y-106300908D01*
X81450852Y-106279148D01*
X81429092Y-106252632D01*
X81412923Y-106222383D01*
X81402966Y-106189561D01*
X81399000Y-106149287D01*
X81399000Y-104670713D01*
X81402966Y-104630439D01*
X81412923Y-104597617D01*
X81429092Y-104567368D01*
X81450852Y-104540852D01*
X81477368Y-104519092D01*
X81507617Y-104502923D01*
X81540439Y-104492966D01*
X81580713Y-104489000D01*
X83519287Y-104489000D01*
X83559561Y-104492966D01*
X83559561Y-104492966D01*
G37*
G36*
X82870345Y-101953442D02*
G01*
X82960548Y-101962326D01*
X83134157Y-102014990D01*
X83294156Y-102100511D01*
X83337729Y-102136271D01*
X83434397Y-102215603D01*
X83512689Y-102311004D01*
X83549489Y-102355844D01*
X83635010Y-102515843D01*
X83687674Y-102689452D01*
X83705456Y-102870000D01*
X83687674Y-103050548D01*
X83635010Y-103224157D01*
X83549489Y-103384156D01*
X83513729Y-103427729D01*
X83434397Y-103524397D01*
X83337729Y-103603729D01*
X83294156Y-103639489D01*
X83134157Y-103725010D01*
X82960548Y-103777674D01*
X82870345Y-103786558D01*
X82825245Y-103791000D01*
X82274755Y-103791000D01*
X82229655Y-103786558D01*
X82139452Y-103777674D01*
X81965843Y-103725010D01*
X81805844Y-103639489D01*
X81762271Y-103603729D01*
X81665603Y-103524397D01*
X81586271Y-103427729D01*
X81550511Y-103384156D01*
X81464990Y-103224157D01*
X81412326Y-103050548D01*
X81394544Y-102870000D01*
X81412326Y-102689452D01*
X81464990Y-102515843D01*
X81550511Y-102355844D01*
X81587311Y-102311004D01*
X81665603Y-102215603D01*
X81762271Y-102136271D01*
X81805844Y-102100511D01*
X81965843Y-102014990D01*
X82139452Y-101962326D01*
X82229655Y-101953442D01*
X82274755Y-101949000D01*
X82825245Y-101949000D01*
X82870345Y-101953442D01*
X82870345Y-101953442D01*
G37*
G36*
X160268228Y-100781703D02*
G01*
X160423100Y-100845853D01*
X160562481Y-100938985D01*
X160681015Y-101057519D01*
X160774147Y-101196900D01*
X160838297Y-101351772D01*
X160871000Y-101516184D01*
X160871000Y-101683816D01*
X160838297Y-101848228D01*
X160774147Y-102003100D01*
X160681015Y-102142481D01*
X160562481Y-102261015D01*
X160423100Y-102354147D01*
X160268228Y-102418297D01*
X160103816Y-102451000D01*
X159936184Y-102451000D01*
X159771772Y-102418297D01*
X159616900Y-102354147D01*
X159477519Y-102261015D01*
X159358985Y-102142481D01*
X159265853Y-102003100D01*
X159201703Y-101848228D01*
X159169000Y-101683816D01*
X159169000Y-101516184D01*
X159201703Y-101351772D01*
X159265853Y-101196900D01*
X159358985Y-101057519D01*
X159477519Y-100938985D01*
X159616900Y-100845853D01*
X159771772Y-100781703D01*
X159936184Y-100749000D01*
X160103816Y-100749000D01*
X160268228Y-100781703D01*
X160268228Y-100781703D01*
G37*
G36*
X119628228Y-100781703D02*
G01*
X119783100Y-100845853D01*
X119922481Y-100938985D01*
X120041015Y-101057519D01*
X120134147Y-101196900D01*
X120198297Y-101351772D01*
X120231000Y-101516184D01*
X120231000Y-101683816D01*
X120198297Y-101848228D01*
X120134147Y-102003100D01*
X120041015Y-102142481D01*
X119922481Y-102261015D01*
X119783100Y-102354147D01*
X119628228Y-102418297D01*
X119463816Y-102451000D01*
X119296184Y-102451000D01*
X119131772Y-102418297D01*
X118976900Y-102354147D01*
X118837519Y-102261015D01*
X118718985Y-102142481D01*
X118625853Y-102003100D01*
X118561703Y-101848228D01*
X118529000Y-101683816D01*
X118529000Y-101516184D01*
X118561703Y-101351772D01*
X118625853Y-101196900D01*
X118718985Y-101057519D01*
X118837519Y-100938985D01*
X118976900Y-100845853D01*
X119131772Y-100781703D01*
X119296184Y-100749000D01*
X119463816Y-100749000D01*
X119628228Y-100781703D01*
X119628228Y-100781703D01*
G37*
G36*
X124626823Y-100761313D02*
G01*
X124787242Y-100809976D01*
X124854361Y-100845852D01*
X124935078Y-100888996D01*
X125064659Y-100995341D01*
X125171004Y-101124922D01*
X125171005Y-101124924D01*
X125250024Y-101272758D01*
X125298687Y-101433177D01*
X125315117Y-101600000D01*
X125298687Y-101766823D01*
X125250024Y-101927242D01*
X125203121Y-102014991D01*
X125171004Y-102075078D01*
X125064659Y-102204659D01*
X124935078Y-102311004D01*
X124935076Y-102311005D01*
X124787242Y-102390024D01*
X124626823Y-102438687D01*
X124501804Y-102451000D01*
X124418196Y-102451000D01*
X124293177Y-102438687D01*
X124132758Y-102390024D01*
X123984924Y-102311005D01*
X123984922Y-102311004D01*
X123855341Y-102204659D01*
X123748996Y-102075078D01*
X123716879Y-102014991D01*
X123669976Y-101927242D01*
X123621313Y-101766823D01*
X123604883Y-101600000D01*
X123621313Y-101433177D01*
X123669976Y-101272758D01*
X123748995Y-101124924D01*
X123748996Y-101124922D01*
X123855341Y-100995341D01*
X123984922Y-100888996D01*
X124065639Y-100845852D01*
X124132758Y-100809976D01*
X124293177Y-100761313D01*
X124418196Y-100749000D01*
X124501804Y-100749000D01*
X124626823Y-100761313D01*
X124626823Y-100761313D01*
G37*
G36*
X137326823Y-100761313D02*
G01*
X137487242Y-100809976D01*
X137554361Y-100845852D01*
X137635078Y-100888996D01*
X137764659Y-100995341D01*
X137871004Y-101124922D01*
X137871005Y-101124924D01*
X137950024Y-101272758D01*
X137998687Y-101433177D01*
X138015117Y-101600000D01*
X137998687Y-101766823D01*
X137950024Y-101927242D01*
X137903121Y-102014991D01*
X137871004Y-102075078D01*
X137764659Y-102204659D01*
X137635078Y-102311004D01*
X137635076Y-102311005D01*
X137487242Y-102390024D01*
X137326823Y-102438687D01*
X137201804Y-102451000D01*
X137118196Y-102451000D01*
X136993177Y-102438687D01*
X136832758Y-102390024D01*
X136684924Y-102311005D01*
X136684922Y-102311004D01*
X136555341Y-102204659D01*
X136448996Y-102075078D01*
X136416879Y-102014991D01*
X136369976Y-101927242D01*
X136321313Y-101766823D01*
X136304883Y-101600000D01*
X136321313Y-101433177D01*
X136369976Y-101272758D01*
X136448995Y-101124924D01*
X136448996Y-101124922D01*
X136555341Y-100995341D01*
X136684922Y-100888996D01*
X136765639Y-100845852D01*
X136832758Y-100809976D01*
X136993177Y-100761313D01*
X137118196Y-100749000D01*
X137201804Y-100749000D01*
X137326823Y-100761313D01*
X137326823Y-100761313D01*
G37*
G36*
X144946823Y-100761313D02*
G01*
X145107242Y-100809976D01*
X145174361Y-100845852D01*
X145255078Y-100888996D01*
X145384659Y-100995341D01*
X145491004Y-101124922D01*
X145491005Y-101124924D01*
X145570024Y-101272758D01*
X145618687Y-101433177D01*
X145635117Y-101600000D01*
X145618687Y-101766823D01*
X145570024Y-101927242D01*
X145523121Y-102014991D01*
X145491004Y-102075078D01*
X145384659Y-102204659D01*
X145255078Y-102311004D01*
X145255076Y-102311005D01*
X145107242Y-102390024D01*
X144946823Y-102438687D01*
X144821804Y-102451000D01*
X144738196Y-102451000D01*
X144613177Y-102438687D01*
X144452758Y-102390024D01*
X144304924Y-102311005D01*
X144304922Y-102311004D01*
X144175341Y-102204659D01*
X144068996Y-102075078D01*
X144036879Y-102014991D01*
X143989976Y-101927242D01*
X143941313Y-101766823D01*
X143924883Y-101600000D01*
X143941313Y-101433177D01*
X143989976Y-101272758D01*
X144068995Y-101124924D01*
X144068996Y-101124922D01*
X144175341Y-100995341D01*
X144304922Y-100888996D01*
X144385639Y-100845852D01*
X144452758Y-100809976D01*
X144613177Y-100761313D01*
X144738196Y-100749000D01*
X144821804Y-100749000D01*
X144946823Y-100761313D01*
X144946823Y-100761313D01*
G37*
G36*
X132328228Y-100781703D02*
G01*
X132483100Y-100845853D01*
X132622481Y-100938985D01*
X132741015Y-101057519D01*
X132834147Y-101196900D01*
X132898297Y-101351772D01*
X132931000Y-101516184D01*
X132931000Y-101683816D01*
X132898297Y-101848228D01*
X132834147Y-102003100D01*
X132741015Y-102142481D01*
X132622481Y-102261015D01*
X132483100Y-102354147D01*
X132328228Y-102418297D01*
X132163816Y-102451000D01*
X131996184Y-102451000D01*
X131831772Y-102418297D01*
X131676900Y-102354147D01*
X131537519Y-102261015D01*
X131418985Y-102142481D01*
X131325853Y-102003100D01*
X131261703Y-101848228D01*
X131229000Y-101683816D01*
X131229000Y-101516184D01*
X131261703Y-101351772D01*
X131325853Y-101196900D01*
X131418985Y-101057519D01*
X131537519Y-100938985D01*
X131676900Y-100845853D01*
X131831772Y-100781703D01*
X131996184Y-100749000D01*
X132163816Y-100749000D01*
X132328228Y-100781703D01*
X132328228Y-100781703D01*
G37*
G36*
X92291000Y-97371000D02*
G01*
X90589000Y-97371000D01*
X90589000Y-95669000D01*
X92291000Y-95669000D01*
X92291000Y-97371000D01*
X92291000Y-97371000D01*
G37*
G36*
X112008228Y-95661703D02*
G01*
X112163100Y-95725853D01*
X112302481Y-95818985D01*
X112421015Y-95937519D01*
X112514147Y-96076900D01*
X112578297Y-96231772D01*
X112611000Y-96396184D01*
X112611000Y-96563816D01*
X112578297Y-96728228D01*
X112514147Y-96883100D01*
X112421015Y-97022481D01*
X112302481Y-97141015D01*
X112163100Y-97234147D01*
X112008228Y-97298297D01*
X111843816Y-97331000D01*
X111676184Y-97331000D01*
X111511772Y-97298297D01*
X111356900Y-97234147D01*
X111217519Y-97141015D01*
X111098985Y-97022481D01*
X111005853Y-96883100D01*
X110941703Y-96728228D01*
X110909000Y-96563816D01*
X110909000Y-96396184D01*
X110941703Y-96231772D01*
X111005853Y-96076900D01*
X111098985Y-95937519D01*
X111217519Y-95818985D01*
X111356900Y-95725853D01*
X111511772Y-95661703D01*
X111676184Y-95629000D01*
X111843816Y-95629000D01*
X112008228Y-95661703D01*
X112008228Y-95661703D01*
G37*
G36*
X173095256Y-92371298D02*
G01*
X173201579Y-92392447D01*
X173502042Y-92516903D01*
X173772451Y-92697585D01*
X174002415Y-92927549D01*
X174183097Y-93197958D01*
X174307553Y-93498421D01*
X174323163Y-93576900D01*
X174371000Y-93817389D01*
X174371000Y-94142611D01*
X174346013Y-94268228D01*
X174307553Y-94461579D01*
X174233228Y-94641015D01*
X174198790Y-94724157D01*
X174183097Y-94762042D01*
X174002415Y-95032451D01*
X173772451Y-95262415D01*
X173502042Y-95443097D01*
X173201579Y-95567553D01*
X173095256Y-95588702D01*
X172882611Y-95631000D01*
X172557389Y-95631000D01*
X172344744Y-95588702D01*
X172238421Y-95567553D01*
X171937958Y-95443097D01*
X171667549Y-95262415D01*
X171437585Y-95032451D01*
X171256903Y-94762042D01*
X171241211Y-94724157D01*
X171206772Y-94641015D01*
X171132447Y-94461579D01*
X171093987Y-94268228D01*
X171069000Y-94142611D01*
X171069000Y-93817389D01*
X171116837Y-93576900D01*
X171132447Y-93498421D01*
X171256903Y-93197958D01*
X171437585Y-92927549D01*
X171667549Y-92697585D01*
X171937958Y-92516903D01*
X172238421Y-92392447D01*
X172344744Y-92371298D01*
X172557389Y-92329000D01*
X172882611Y-92329000D01*
X173095256Y-92371298D01*
X173095256Y-92371298D01*
G37*
G36*
X81655256Y-92371298D02*
G01*
X81761579Y-92392447D01*
X82062042Y-92516903D01*
X82332451Y-92697585D01*
X82562415Y-92927549D01*
X82743097Y-93197958D01*
X82867553Y-93498421D01*
X82883163Y-93576900D01*
X82931000Y-93817389D01*
X82931000Y-94142611D01*
X82906013Y-94268228D01*
X82867553Y-94461579D01*
X82793228Y-94641015D01*
X82758790Y-94724157D01*
X82743097Y-94762042D01*
X82562415Y-95032451D01*
X82332451Y-95262415D01*
X82062042Y-95443097D01*
X81761579Y-95567553D01*
X81655256Y-95588702D01*
X81442611Y-95631000D01*
X81117389Y-95631000D01*
X80904744Y-95588702D01*
X80798421Y-95567553D01*
X80497958Y-95443097D01*
X80227549Y-95262415D01*
X79997585Y-95032451D01*
X79816903Y-94762042D01*
X79801211Y-94724157D01*
X79766772Y-94641015D01*
X79692447Y-94461579D01*
X79653987Y-94268228D01*
X79629000Y-94142611D01*
X79629000Y-93817389D01*
X79676837Y-93576900D01*
X79692447Y-93498421D01*
X79816903Y-93197958D01*
X79997585Y-92927549D01*
X80227549Y-92697585D01*
X80497958Y-92516903D01*
X80798421Y-92392447D01*
X80904744Y-92371298D01*
X81117389Y-92329000D01*
X81442611Y-92329000D01*
X81655256Y-92371298D01*
X81655256Y-92371298D01*
G37*
G36*
X155120547Y-92842326D02*
G01*
X155294156Y-92894990D01*
X155294158Y-92894991D01*
X155454155Y-92980511D01*
X155594397Y-93095603D01*
X155671845Y-93189975D01*
X155709489Y-93235844D01*
X155795010Y-93395843D01*
X155847674Y-93569452D01*
X155861000Y-93704756D01*
X155861000Y-94255243D01*
X155847674Y-94390548D01*
X155795010Y-94564157D01*
X155709489Y-94724156D01*
X155678398Y-94762040D01*
X155594397Y-94864397D01*
X155497729Y-94943729D01*
X155454156Y-94979489D01*
X155294157Y-95065010D01*
X155120548Y-95117674D01*
X154940000Y-95135456D01*
X154759453Y-95117674D01*
X154585844Y-95065010D01*
X154425845Y-94979489D01*
X154382272Y-94943729D01*
X154285604Y-94864397D01*
X154178712Y-94734148D01*
X154170512Y-94724156D01*
X154084990Y-94564157D01*
X154032326Y-94390548D01*
X154019000Y-94255244D01*
X154019000Y-93704757D01*
X154032326Y-93569453D01*
X154084990Y-93395844D01*
X154170511Y-93235845D01*
X154198529Y-93201705D01*
X154285603Y-93095603D01*
X154411388Y-92992375D01*
X154425844Y-92980511D01*
X154585843Y-92894990D01*
X154759452Y-92842326D01*
X154940000Y-92824544D01*
X155120547Y-92842326D01*
X155120547Y-92842326D01*
G37*
G36*
X152580547Y-92842326D02*
G01*
X152754156Y-92894990D01*
X152754158Y-92894991D01*
X152914155Y-92980511D01*
X153054397Y-93095603D01*
X153131845Y-93189975D01*
X153169489Y-93235844D01*
X153255010Y-93395843D01*
X153307674Y-93569452D01*
X153321000Y-93704756D01*
X153321000Y-94255243D01*
X153307674Y-94390548D01*
X153255010Y-94564157D01*
X153169489Y-94724156D01*
X153138398Y-94762040D01*
X153054397Y-94864397D01*
X152957729Y-94943729D01*
X152914156Y-94979489D01*
X152754157Y-95065010D01*
X152580548Y-95117674D01*
X152400000Y-95135456D01*
X152219453Y-95117674D01*
X152045844Y-95065010D01*
X151885845Y-94979489D01*
X151842272Y-94943729D01*
X151745604Y-94864397D01*
X151638712Y-94734148D01*
X151630512Y-94724156D01*
X151544990Y-94564157D01*
X151492326Y-94390548D01*
X151479000Y-94255244D01*
X151479000Y-93704757D01*
X151492326Y-93569453D01*
X151544990Y-93395844D01*
X151630511Y-93235845D01*
X151658529Y-93201705D01*
X151745603Y-93095603D01*
X151871388Y-92992375D01*
X151885844Y-92980511D01*
X152045843Y-92894990D01*
X152219452Y-92842326D01*
X152400000Y-92824544D01*
X152580547Y-92842326D01*
X152580547Y-92842326D01*
G37*
G36*
X104320547Y-92842326D02*
G01*
X104494156Y-92894990D01*
X104494158Y-92894991D01*
X104654155Y-92980511D01*
X104794397Y-93095603D01*
X104871845Y-93189975D01*
X104909489Y-93235844D01*
X104995010Y-93395843D01*
X105047674Y-93569452D01*
X105061000Y-93704756D01*
X105061000Y-94255243D01*
X105047674Y-94390548D01*
X104995010Y-94564157D01*
X104909489Y-94724156D01*
X104878398Y-94762040D01*
X104794397Y-94864397D01*
X104697729Y-94943729D01*
X104654156Y-94979489D01*
X104494157Y-95065010D01*
X104320548Y-95117674D01*
X104140000Y-95135456D01*
X103959453Y-95117674D01*
X103785844Y-95065010D01*
X103625845Y-94979489D01*
X103582272Y-94943729D01*
X103485604Y-94864397D01*
X103378712Y-94734148D01*
X103370512Y-94724156D01*
X103284990Y-94564157D01*
X103232326Y-94390548D01*
X103219000Y-94255244D01*
X103219000Y-93704757D01*
X103232326Y-93569453D01*
X103284990Y-93395844D01*
X103370511Y-93235845D01*
X103398529Y-93201705D01*
X103485603Y-93095603D01*
X103611388Y-92992375D01*
X103625844Y-92980511D01*
X103785843Y-92894990D01*
X103959452Y-92842326D01*
X104140000Y-92824544D01*
X104320547Y-92842326D01*
X104320547Y-92842326D01*
G37*
G36*
X101780547Y-92842326D02*
G01*
X101954156Y-92894990D01*
X101954158Y-92894991D01*
X102114155Y-92980511D01*
X102254397Y-93095603D01*
X102331845Y-93189975D01*
X102369489Y-93235844D01*
X102455010Y-93395843D01*
X102507674Y-93569452D01*
X102521000Y-93704756D01*
X102521000Y-94255243D01*
X102507674Y-94390548D01*
X102455010Y-94564157D01*
X102369489Y-94724156D01*
X102338398Y-94762040D01*
X102254397Y-94864397D01*
X102157729Y-94943729D01*
X102114156Y-94979489D01*
X101954157Y-95065010D01*
X101780548Y-95117674D01*
X101600000Y-95135456D01*
X101419453Y-95117674D01*
X101245844Y-95065010D01*
X101085845Y-94979489D01*
X101042272Y-94943729D01*
X100945604Y-94864397D01*
X100838712Y-94734148D01*
X100830512Y-94724156D01*
X100744990Y-94564157D01*
X100692326Y-94390548D01*
X100679000Y-94255244D01*
X100679000Y-93704757D01*
X100692326Y-93569453D01*
X100744990Y-93395844D01*
X100830511Y-93235845D01*
X100858529Y-93201705D01*
X100945603Y-93095603D01*
X101071388Y-92992375D01*
X101085844Y-92980511D01*
X101245843Y-92894990D01*
X101419452Y-92842326D01*
X101600000Y-92824544D01*
X101780547Y-92842326D01*
X101780547Y-92842326D01*
G37*
G36*
X99839561Y-92832966D02*
G01*
X99872383Y-92842923D01*
X99902632Y-92859092D01*
X99929148Y-92880852D01*
X99950908Y-92907368D01*
X99967077Y-92937617D01*
X99977034Y-92970439D01*
X99981000Y-93010713D01*
X99981000Y-94949287D01*
X99977034Y-94989561D01*
X99967077Y-95022383D01*
X99950908Y-95052632D01*
X99929148Y-95079148D01*
X99902632Y-95100908D01*
X99872383Y-95117077D01*
X99839561Y-95127034D01*
X99799287Y-95131000D01*
X98320713Y-95131000D01*
X98280439Y-95127034D01*
X98247617Y-95117077D01*
X98217368Y-95100908D01*
X98190852Y-95079148D01*
X98169092Y-95052632D01*
X98152923Y-95022383D01*
X98142966Y-94989561D01*
X98139000Y-94949287D01*
X98139000Y-93010713D01*
X98142966Y-92970439D01*
X98152923Y-92937617D01*
X98169092Y-92907368D01*
X98190852Y-92880852D01*
X98217368Y-92859092D01*
X98247617Y-92842923D01*
X98280439Y-92832966D01*
X98320713Y-92829000D01*
X99799287Y-92829000D01*
X99839561Y-92832966D01*
X99839561Y-92832966D01*
G37*
G36*
X150639561Y-92832966D02*
G01*
X150672383Y-92842923D01*
X150702632Y-92859092D01*
X150729148Y-92880852D01*
X150750908Y-92907368D01*
X150767077Y-92937617D01*
X150777034Y-92970439D01*
X150781000Y-93010713D01*
X150781000Y-94949287D01*
X150777034Y-94989561D01*
X150767077Y-95022383D01*
X150750908Y-95052632D01*
X150729148Y-95079148D01*
X150702632Y-95100908D01*
X150672383Y-95117077D01*
X150639561Y-95127034D01*
X150599287Y-95131000D01*
X149120713Y-95131000D01*
X149080439Y-95127034D01*
X149047617Y-95117077D01*
X149017368Y-95100908D01*
X148990852Y-95079148D01*
X148969092Y-95052632D01*
X148952923Y-95022383D01*
X148942966Y-94989561D01*
X148939000Y-94949287D01*
X148939000Y-93010713D01*
X148942966Y-92970439D01*
X148952923Y-92937617D01*
X148969092Y-92907368D01*
X148990852Y-92880852D01*
X149017368Y-92859092D01*
X149047617Y-92842923D01*
X149080439Y-92832966D01*
X149120713Y-92829000D01*
X150599287Y-92829000D01*
X150639561Y-92832966D01*
X150639561Y-92832966D01*
G37*
G36*
X91688228Y-93201703D02*
G01*
X91843100Y-93265853D01*
X91982481Y-93358985D01*
X92101015Y-93477519D01*
X92194147Y-93616900D01*
X92258297Y-93771772D01*
X92291000Y-93936184D01*
X92291000Y-94103816D01*
X92258297Y-94268228D01*
X92194147Y-94423100D01*
X92101015Y-94562481D01*
X91982481Y-94681015D01*
X91843100Y-94774147D01*
X91688228Y-94838297D01*
X91523816Y-94871000D01*
X91356184Y-94871000D01*
X91191772Y-94838297D01*
X91036900Y-94774147D01*
X90897519Y-94681015D01*
X90778985Y-94562481D01*
X90685853Y-94423100D01*
X90621703Y-94268228D01*
X90589000Y-94103816D01*
X90589000Y-93936184D01*
X90621703Y-93771772D01*
X90685853Y-93616900D01*
X90778985Y-93477519D01*
X90897519Y-93358985D01*
X91036900Y-93265853D01*
X91191772Y-93201703D01*
X91356184Y-93169000D01*
X91523816Y-93169000D01*
X91688228Y-93201703D01*
X91688228Y-93201703D01*
G37*
G36*
X145028228Y-93161703D02*
G01*
X145183100Y-93225853D01*
X145322481Y-93318985D01*
X145441015Y-93437519D01*
X145534147Y-93576900D01*
X145598297Y-93731772D01*
X145631000Y-93896184D01*
X145631000Y-94063816D01*
X145598297Y-94228228D01*
X145534147Y-94383100D01*
X145441015Y-94522481D01*
X145322481Y-94641015D01*
X145183100Y-94734147D01*
X145028228Y-94798297D01*
X144863816Y-94831000D01*
X144696184Y-94831000D01*
X144531772Y-94798297D01*
X144376900Y-94734147D01*
X144237519Y-94641015D01*
X144118985Y-94522481D01*
X144025853Y-94383100D01*
X143961703Y-94228228D01*
X143929000Y-94063816D01*
X143929000Y-93896184D01*
X143961703Y-93731772D01*
X144025853Y-93576900D01*
X144118985Y-93437519D01*
X144237519Y-93318985D01*
X144376900Y-93225853D01*
X144531772Y-93161703D01*
X144696184Y-93129000D01*
X144863816Y-93129000D01*
X145028228Y-93161703D01*
X145028228Y-93161703D01*
G37*
G36*
X160186823Y-93141313D02*
G01*
X160347242Y-93189976D01*
X160479906Y-93260886D01*
X160495078Y-93268996D01*
X160624659Y-93375341D01*
X160731004Y-93504922D01*
X160731005Y-93504924D01*
X160810024Y-93652758D01*
X160858687Y-93813177D01*
X160875117Y-93980000D01*
X160858687Y-94146823D01*
X160810024Y-94307242D01*
X160739114Y-94439906D01*
X160731004Y-94455078D01*
X160624659Y-94584659D01*
X160495078Y-94691004D01*
X160495076Y-94691005D01*
X160347242Y-94770024D01*
X160347239Y-94770025D01*
X160333647Y-94774148D01*
X160186823Y-94818687D01*
X160061804Y-94831000D01*
X159978196Y-94831000D01*
X159853177Y-94818687D01*
X159706353Y-94774148D01*
X159692761Y-94770025D01*
X159692758Y-94770024D01*
X159544924Y-94691005D01*
X159544922Y-94691004D01*
X159415341Y-94584659D01*
X159308996Y-94455078D01*
X159300886Y-94439906D01*
X159229976Y-94307242D01*
X159181313Y-94146823D01*
X159164883Y-93980000D01*
X159181313Y-93813177D01*
X159229976Y-93652758D01*
X159308995Y-93504924D01*
X159308996Y-93504922D01*
X159415341Y-93375341D01*
X159544922Y-93268996D01*
X159560094Y-93260886D01*
X159692758Y-93189976D01*
X159853177Y-93141313D01*
X159978196Y-93129000D01*
X160061804Y-93129000D01*
X160186823Y-93141313D01*
X160186823Y-93141313D01*
G37*
G36*
X137408228Y-93161703D02*
G01*
X137563100Y-93225853D01*
X137702481Y-93318985D01*
X137821015Y-93437519D01*
X137914147Y-93576900D01*
X137978297Y-93731772D01*
X138011000Y-93896184D01*
X138011000Y-94063816D01*
X137978297Y-94228228D01*
X137914147Y-94383100D01*
X137821015Y-94522481D01*
X137702481Y-94641015D01*
X137563100Y-94734147D01*
X137408228Y-94798297D01*
X137243816Y-94831000D01*
X137076184Y-94831000D01*
X136911772Y-94798297D01*
X136756900Y-94734147D01*
X136617519Y-94641015D01*
X136498985Y-94522481D01*
X136405853Y-94383100D01*
X136341703Y-94228228D01*
X136309000Y-94063816D01*
X136309000Y-93896184D01*
X136341703Y-93731772D01*
X136405853Y-93576900D01*
X136498985Y-93437519D01*
X136617519Y-93318985D01*
X136756900Y-93225853D01*
X136911772Y-93161703D01*
X137076184Y-93129000D01*
X137243816Y-93129000D01*
X137408228Y-93161703D01*
X137408228Y-93161703D01*
G37*
G36*
X119546823Y-93141313D02*
G01*
X119707242Y-93189976D01*
X119839906Y-93260886D01*
X119855078Y-93268996D01*
X119984659Y-93375341D01*
X120091004Y-93504922D01*
X120091005Y-93504924D01*
X120170024Y-93652758D01*
X120218687Y-93813177D01*
X120235117Y-93980000D01*
X120218687Y-94146823D01*
X120170024Y-94307242D01*
X120099114Y-94439906D01*
X120091004Y-94455078D01*
X119984659Y-94584659D01*
X119855078Y-94691004D01*
X119855076Y-94691005D01*
X119707242Y-94770024D01*
X119707239Y-94770025D01*
X119693647Y-94774148D01*
X119546823Y-94818687D01*
X119421804Y-94831000D01*
X119338196Y-94831000D01*
X119213177Y-94818687D01*
X119066353Y-94774148D01*
X119052761Y-94770025D01*
X119052758Y-94770024D01*
X118904924Y-94691005D01*
X118904922Y-94691004D01*
X118775341Y-94584659D01*
X118668996Y-94455078D01*
X118660886Y-94439906D01*
X118589976Y-94307242D01*
X118541313Y-94146823D01*
X118524883Y-93980000D01*
X118541313Y-93813177D01*
X118589976Y-93652758D01*
X118668995Y-93504924D01*
X118668996Y-93504922D01*
X118775341Y-93375341D01*
X118904922Y-93268996D01*
X118920094Y-93260886D01*
X119052758Y-93189976D01*
X119213177Y-93141313D01*
X119338196Y-93129000D01*
X119421804Y-93129000D01*
X119546823Y-93141313D01*
X119546823Y-93141313D01*
G37*
G36*
X112611000Y-94831000D02*
G01*
X110909000Y-94831000D01*
X110909000Y-93129000D01*
X112611000Y-93129000D01*
X112611000Y-94831000D01*
X112611000Y-94831000D01*
G37*
M02*
