G04 #@! TF.GenerationSoftware,KiCad,Pcbnew,5.1.5+dfsg1-2*
G04 #@! TF.CreationDate,2020-03-03T15:33:36-06:00*
G04 #@! TF.ProjectId,daughter,64617567-6874-4657-922e-6b696361645f,1.3.1*
G04 #@! TF.SameCoordinates,Original*
G04 #@! TF.FileFunction,Copper,L1,Top*
G04 #@! TF.FilePolarity,Positive*
%FSLAX46Y46*%
G04 Gerber Fmt 4.6, Leading zero omitted, Abs format (unit mm)*
G04 Created by KiCad (PCBNEW 5.1.5+dfsg1-2) date 2020-03-03 15:33:36*
%MOMM*%
%LPD*%
G04 APERTURE LIST*
%ADD10C,10.160000*%
%ADD11C,0.100000*%
%ADD12O,1.700000X1.700000*%
%ADD13R,1.700000X1.700000*%
%ADD14C,0.762000*%
%ADD15C,0.254000*%
G04 APERTURE END LIST*
D10*
X133350000Y-104775000D03*
G04 #@! TA.AperFunction,SMDPad,CuDef*
D11*
G36*
X172099504Y-75071204D02*
G01*
X172123773Y-75074804D01*
X172147571Y-75080765D01*
X172170671Y-75089030D01*
X172192849Y-75099520D01*
X172213893Y-75112133D01*
X172233598Y-75126747D01*
X172251777Y-75143223D01*
X172268253Y-75161402D01*
X172282867Y-75181107D01*
X172295480Y-75202151D01*
X172305970Y-75224329D01*
X172314235Y-75247429D01*
X172320196Y-75271227D01*
X172323796Y-75295496D01*
X172325000Y-75320000D01*
X172325000Y-76070000D01*
X172323796Y-76094504D01*
X172320196Y-76118773D01*
X172314235Y-76142571D01*
X172305970Y-76165671D01*
X172295480Y-76187849D01*
X172282867Y-76208893D01*
X172268253Y-76228598D01*
X172251777Y-76246777D01*
X172233598Y-76263253D01*
X172213893Y-76277867D01*
X172192849Y-76290480D01*
X172170671Y-76300970D01*
X172147571Y-76309235D01*
X172123773Y-76315196D01*
X172099504Y-76318796D01*
X172075000Y-76320000D01*
X170825000Y-76320000D01*
X170800496Y-76318796D01*
X170776227Y-76315196D01*
X170752429Y-76309235D01*
X170729329Y-76300970D01*
X170707151Y-76290480D01*
X170686107Y-76277867D01*
X170666402Y-76263253D01*
X170648223Y-76246777D01*
X170631747Y-76228598D01*
X170617133Y-76208893D01*
X170604520Y-76187849D01*
X170594030Y-76165671D01*
X170585765Y-76142571D01*
X170579804Y-76118773D01*
X170576204Y-76094504D01*
X170575000Y-76070000D01*
X170575000Y-75320000D01*
X170576204Y-75295496D01*
X170579804Y-75271227D01*
X170585765Y-75247429D01*
X170594030Y-75224329D01*
X170604520Y-75202151D01*
X170617133Y-75181107D01*
X170631747Y-75161402D01*
X170648223Y-75143223D01*
X170666402Y-75126747D01*
X170686107Y-75112133D01*
X170707151Y-75099520D01*
X170729329Y-75089030D01*
X170752429Y-75080765D01*
X170776227Y-75074804D01*
X170800496Y-75071204D01*
X170825000Y-75070000D01*
X172075000Y-75070000D01*
X172099504Y-75071204D01*
G37*
G04 #@! TD.AperFunction*
G04 #@! TA.AperFunction,SMDPad,CuDef*
G36*
X172099504Y-72271204D02*
G01*
X172123773Y-72274804D01*
X172147571Y-72280765D01*
X172170671Y-72289030D01*
X172192849Y-72299520D01*
X172213893Y-72312133D01*
X172233598Y-72326747D01*
X172251777Y-72343223D01*
X172268253Y-72361402D01*
X172282867Y-72381107D01*
X172295480Y-72402151D01*
X172305970Y-72424329D01*
X172314235Y-72447429D01*
X172320196Y-72471227D01*
X172323796Y-72495496D01*
X172325000Y-72520000D01*
X172325000Y-73270000D01*
X172323796Y-73294504D01*
X172320196Y-73318773D01*
X172314235Y-73342571D01*
X172305970Y-73365671D01*
X172295480Y-73387849D01*
X172282867Y-73408893D01*
X172268253Y-73428598D01*
X172251777Y-73446777D01*
X172233598Y-73463253D01*
X172213893Y-73477867D01*
X172192849Y-73490480D01*
X172170671Y-73500970D01*
X172147571Y-73509235D01*
X172123773Y-73515196D01*
X172099504Y-73518796D01*
X172075000Y-73520000D01*
X170825000Y-73520000D01*
X170800496Y-73518796D01*
X170776227Y-73515196D01*
X170752429Y-73509235D01*
X170729329Y-73500970D01*
X170707151Y-73490480D01*
X170686107Y-73477867D01*
X170666402Y-73463253D01*
X170648223Y-73446777D01*
X170631747Y-73428598D01*
X170617133Y-73408893D01*
X170604520Y-73387849D01*
X170594030Y-73365671D01*
X170585765Y-73342571D01*
X170579804Y-73318773D01*
X170576204Y-73294504D01*
X170575000Y-73270000D01*
X170575000Y-72520000D01*
X170576204Y-72495496D01*
X170579804Y-72471227D01*
X170585765Y-72447429D01*
X170594030Y-72424329D01*
X170604520Y-72402151D01*
X170617133Y-72381107D01*
X170631747Y-72361402D01*
X170648223Y-72343223D01*
X170666402Y-72326747D01*
X170686107Y-72312133D01*
X170707151Y-72299520D01*
X170729329Y-72289030D01*
X170752429Y-72280765D01*
X170776227Y-72274804D01*
X170800496Y-72271204D01*
X170825000Y-72270000D01*
X172075000Y-72270000D01*
X172099504Y-72271204D01*
G37*
G04 #@! TD.AperFunction*
G04 #@! TA.AperFunction,SMDPad,CuDef*
G36*
X172099504Y-78621204D02*
G01*
X172123773Y-78624804D01*
X172147571Y-78630765D01*
X172170671Y-78639030D01*
X172192849Y-78649520D01*
X172213893Y-78662133D01*
X172233598Y-78676747D01*
X172251777Y-78693223D01*
X172268253Y-78711402D01*
X172282867Y-78731107D01*
X172295480Y-78752151D01*
X172305970Y-78774329D01*
X172314235Y-78797429D01*
X172320196Y-78821227D01*
X172323796Y-78845496D01*
X172325000Y-78870000D01*
X172325000Y-79620000D01*
X172323796Y-79644504D01*
X172320196Y-79668773D01*
X172314235Y-79692571D01*
X172305970Y-79715671D01*
X172295480Y-79737849D01*
X172282867Y-79758893D01*
X172268253Y-79778598D01*
X172251777Y-79796777D01*
X172233598Y-79813253D01*
X172213893Y-79827867D01*
X172192849Y-79840480D01*
X172170671Y-79850970D01*
X172147571Y-79859235D01*
X172123773Y-79865196D01*
X172099504Y-79868796D01*
X172075000Y-79870000D01*
X170825000Y-79870000D01*
X170800496Y-79868796D01*
X170776227Y-79865196D01*
X170752429Y-79859235D01*
X170729329Y-79850970D01*
X170707151Y-79840480D01*
X170686107Y-79827867D01*
X170666402Y-79813253D01*
X170648223Y-79796777D01*
X170631747Y-79778598D01*
X170617133Y-79758893D01*
X170604520Y-79737849D01*
X170594030Y-79715671D01*
X170585765Y-79692571D01*
X170579804Y-79668773D01*
X170576204Y-79644504D01*
X170575000Y-79620000D01*
X170575000Y-78870000D01*
X170576204Y-78845496D01*
X170579804Y-78821227D01*
X170585765Y-78797429D01*
X170594030Y-78774329D01*
X170604520Y-78752151D01*
X170617133Y-78731107D01*
X170631747Y-78711402D01*
X170648223Y-78693223D01*
X170666402Y-78676747D01*
X170686107Y-78662133D01*
X170707151Y-78649520D01*
X170729329Y-78639030D01*
X170752429Y-78630765D01*
X170776227Y-78624804D01*
X170800496Y-78621204D01*
X170825000Y-78620000D01*
X172075000Y-78620000D01*
X172099504Y-78621204D01*
G37*
G04 #@! TD.AperFunction*
G04 #@! TA.AperFunction,SMDPad,CuDef*
G36*
X172099504Y-81421204D02*
G01*
X172123773Y-81424804D01*
X172147571Y-81430765D01*
X172170671Y-81439030D01*
X172192849Y-81449520D01*
X172213893Y-81462133D01*
X172233598Y-81476747D01*
X172251777Y-81493223D01*
X172268253Y-81511402D01*
X172282867Y-81531107D01*
X172295480Y-81552151D01*
X172305970Y-81574329D01*
X172314235Y-81597429D01*
X172320196Y-81621227D01*
X172323796Y-81645496D01*
X172325000Y-81670000D01*
X172325000Y-82420000D01*
X172323796Y-82444504D01*
X172320196Y-82468773D01*
X172314235Y-82492571D01*
X172305970Y-82515671D01*
X172295480Y-82537849D01*
X172282867Y-82558893D01*
X172268253Y-82578598D01*
X172251777Y-82596777D01*
X172233598Y-82613253D01*
X172213893Y-82627867D01*
X172192849Y-82640480D01*
X172170671Y-82650970D01*
X172147571Y-82659235D01*
X172123773Y-82665196D01*
X172099504Y-82668796D01*
X172075000Y-82670000D01*
X170825000Y-82670000D01*
X170800496Y-82668796D01*
X170776227Y-82665196D01*
X170752429Y-82659235D01*
X170729329Y-82650970D01*
X170707151Y-82640480D01*
X170686107Y-82627867D01*
X170666402Y-82613253D01*
X170648223Y-82596777D01*
X170631747Y-82578598D01*
X170617133Y-82558893D01*
X170604520Y-82537849D01*
X170594030Y-82515671D01*
X170585765Y-82492571D01*
X170579804Y-82468773D01*
X170576204Y-82444504D01*
X170575000Y-82420000D01*
X170575000Y-81670000D01*
X170576204Y-81645496D01*
X170579804Y-81621227D01*
X170585765Y-81597429D01*
X170594030Y-81574329D01*
X170604520Y-81552151D01*
X170617133Y-81531107D01*
X170631747Y-81511402D01*
X170648223Y-81493223D01*
X170666402Y-81476747D01*
X170686107Y-81462133D01*
X170707151Y-81449520D01*
X170729329Y-81439030D01*
X170752429Y-81430765D01*
X170776227Y-81424804D01*
X170800496Y-81421204D01*
X170825000Y-81420000D01*
X172075000Y-81420000D01*
X172099504Y-81421204D01*
G37*
G04 #@! TD.AperFunction*
D10*
X158750000Y-85725000D03*
X133350000Y-85725000D03*
X107950000Y-85725000D03*
X82550000Y-85725000D03*
X146050000Y-85725000D03*
X120650000Y-85725000D03*
X95250000Y-85725000D03*
X69850000Y-85725000D03*
X158750000Y-104775000D03*
X107950000Y-104775000D03*
X82550000Y-104775000D03*
X146050000Y-104775000D03*
X120650000Y-104775000D03*
X95250000Y-104775000D03*
X69850000Y-104775000D03*
G04 #@! TA.AperFunction,SMDPad,CuDef*
D11*
G36*
X157374504Y-71516204D02*
G01*
X157398773Y-71519804D01*
X157422571Y-71525765D01*
X157445671Y-71534030D01*
X157467849Y-71544520D01*
X157488893Y-71557133D01*
X157508598Y-71571747D01*
X157526777Y-71588223D01*
X157543253Y-71606402D01*
X157557867Y-71626107D01*
X157570480Y-71647151D01*
X157580970Y-71669329D01*
X157589235Y-71692429D01*
X157595196Y-71716227D01*
X157598796Y-71740496D01*
X157600000Y-71765000D01*
X157600000Y-73015000D01*
X157598796Y-73039504D01*
X157595196Y-73063773D01*
X157589235Y-73087571D01*
X157580970Y-73110671D01*
X157570480Y-73132849D01*
X157557867Y-73153893D01*
X157543253Y-73173598D01*
X157526777Y-73191777D01*
X157508598Y-73208253D01*
X157488893Y-73222867D01*
X157467849Y-73235480D01*
X157445671Y-73245970D01*
X157422571Y-73254235D01*
X157398773Y-73260196D01*
X157374504Y-73263796D01*
X157350000Y-73265000D01*
X156600000Y-73265000D01*
X156575496Y-73263796D01*
X156551227Y-73260196D01*
X156527429Y-73254235D01*
X156504329Y-73245970D01*
X156482151Y-73235480D01*
X156461107Y-73222867D01*
X156441402Y-73208253D01*
X156423223Y-73191777D01*
X156406747Y-73173598D01*
X156392133Y-73153893D01*
X156379520Y-73132849D01*
X156369030Y-73110671D01*
X156360765Y-73087571D01*
X156354804Y-73063773D01*
X156351204Y-73039504D01*
X156350000Y-73015000D01*
X156350000Y-71765000D01*
X156351204Y-71740496D01*
X156354804Y-71716227D01*
X156360765Y-71692429D01*
X156369030Y-71669329D01*
X156379520Y-71647151D01*
X156392133Y-71626107D01*
X156406747Y-71606402D01*
X156423223Y-71588223D01*
X156441402Y-71571747D01*
X156461107Y-71557133D01*
X156482151Y-71544520D01*
X156504329Y-71534030D01*
X156527429Y-71525765D01*
X156551227Y-71519804D01*
X156575496Y-71516204D01*
X156600000Y-71515000D01*
X157350000Y-71515000D01*
X157374504Y-71516204D01*
G37*
G04 #@! TD.AperFunction*
G04 #@! TA.AperFunction,SMDPad,CuDef*
G36*
X154574504Y-71516204D02*
G01*
X154598773Y-71519804D01*
X154622571Y-71525765D01*
X154645671Y-71534030D01*
X154667849Y-71544520D01*
X154688893Y-71557133D01*
X154708598Y-71571747D01*
X154726777Y-71588223D01*
X154743253Y-71606402D01*
X154757867Y-71626107D01*
X154770480Y-71647151D01*
X154780970Y-71669329D01*
X154789235Y-71692429D01*
X154795196Y-71716227D01*
X154798796Y-71740496D01*
X154800000Y-71765000D01*
X154800000Y-73015000D01*
X154798796Y-73039504D01*
X154795196Y-73063773D01*
X154789235Y-73087571D01*
X154780970Y-73110671D01*
X154770480Y-73132849D01*
X154757867Y-73153893D01*
X154743253Y-73173598D01*
X154726777Y-73191777D01*
X154708598Y-73208253D01*
X154688893Y-73222867D01*
X154667849Y-73235480D01*
X154645671Y-73245970D01*
X154622571Y-73254235D01*
X154598773Y-73260196D01*
X154574504Y-73263796D01*
X154550000Y-73265000D01*
X153800000Y-73265000D01*
X153775496Y-73263796D01*
X153751227Y-73260196D01*
X153727429Y-73254235D01*
X153704329Y-73245970D01*
X153682151Y-73235480D01*
X153661107Y-73222867D01*
X153641402Y-73208253D01*
X153623223Y-73191777D01*
X153606747Y-73173598D01*
X153592133Y-73153893D01*
X153579520Y-73132849D01*
X153569030Y-73110671D01*
X153560765Y-73087571D01*
X153554804Y-73063773D01*
X153551204Y-73039504D01*
X153550000Y-73015000D01*
X153550000Y-71765000D01*
X153551204Y-71740496D01*
X153554804Y-71716227D01*
X153560765Y-71692429D01*
X153569030Y-71669329D01*
X153579520Y-71647151D01*
X153592133Y-71626107D01*
X153606747Y-71606402D01*
X153623223Y-71588223D01*
X153641402Y-71571747D01*
X153661107Y-71557133D01*
X153682151Y-71544520D01*
X153704329Y-71534030D01*
X153727429Y-71525765D01*
X153751227Y-71519804D01*
X153775496Y-71516204D01*
X153800000Y-71515000D01*
X154550000Y-71515000D01*
X154574504Y-71516204D01*
G37*
G04 #@! TD.AperFunction*
G04 #@! TA.AperFunction,SMDPad,CuDef*
G36*
X131974504Y-71516204D02*
G01*
X131998773Y-71519804D01*
X132022571Y-71525765D01*
X132045671Y-71534030D01*
X132067849Y-71544520D01*
X132088893Y-71557133D01*
X132108598Y-71571747D01*
X132126777Y-71588223D01*
X132143253Y-71606402D01*
X132157867Y-71626107D01*
X132170480Y-71647151D01*
X132180970Y-71669329D01*
X132189235Y-71692429D01*
X132195196Y-71716227D01*
X132198796Y-71740496D01*
X132200000Y-71765000D01*
X132200000Y-73015000D01*
X132198796Y-73039504D01*
X132195196Y-73063773D01*
X132189235Y-73087571D01*
X132180970Y-73110671D01*
X132170480Y-73132849D01*
X132157867Y-73153893D01*
X132143253Y-73173598D01*
X132126777Y-73191777D01*
X132108598Y-73208253D01*
X132088893Y-73222867D01*
X132067849Y-73235480D01*
X132045671Y-73245970D01*
X132022571Y-73254235D01*
X131998773Y-73260196D01*
X131974504Y-73263796D01*
X131950000Y-73265000D01*
X131200000Y-73265000D01*
X131175496Y-73263796D01*
X131151227Y-73260196D01*
X131127429Y-73254235D01*
X131104329Y-73245970D01*
X131082151Y-73235480D01*
X131061107Y-73222867D01*
X131041402Y-73208253D01*
X131023223Y-73191777D01*
X131006747Y-73173598D01*
X130992133Y-73153893D01*
X130979520Y-73132849D01*
X130969030Y-73110671D01*
X130960765Y-73087571D01*
X130954804Y-73063773D01*
X130951204Y-73039504D01*
X130950000Y-73015000D01*
X130950000Y-71765000D01*
X130951204Y-71740496D01*
X130954804Y-71716227D01*
X130960765Y-71692429D01*
X130969030Y-71669329D01*
X130979520Y-71647151D01*
X130992133Y-71626107D01*
X131006747Y-71606402D01*
X131023223Y-71588223D01*
X131041402Y-71571747D01*
X131061107Y-71557133D01*
X131082151Y-71544520D01*
X131104329Y-71534030D01*
X131127429Y-71525765D01*
X131151227Y-71519804D01*
X131175496Y-71516204D01*
X131200000Y-71515000D01*
X131950000Y-71515000D01*
X131974504Y-71516204D01*
G37*
G04 #@! TD.AperFunction*
G04 #@! TA.AperFunction,SMDPad,CuDef*
G36*
X129174504Y-71516204D02*
G01*
X129198773Y-71519804D01*
X129222571Y-71525765D01*
X129245671Y-71534030D01*
X129267849Y-71544520D01*
X129288893Y-71557133D01*
X129308598Y-71571747D01*
X129326777Y-71588223D01*
X129343253Y-71606402D01*
X129357867Y-71626107D01*
X129370480Y-71647151D01*
X129380970Y-71669329D01*
X129389235Y-71692429D01*
X129395196Y-71716227D01*
X129398796Y-71740496D01*
X129400000Y-71765000D01*
X129400000Y-73015000D01*
X129398796Y-73039504D01*
X129395196Y-73063773D01*
X129389235Y-73087571D01*
X129380970Y-73110671D01*
X129370480Y-73132849D01*
X129357867Y-73153893D01*
X129343253Y-73173598D01*
X129326777Y-73191777D01*
X129308598Y-73208253D01*
X129288893Y-73222867D01*
X129267849Y-73235480D01*
X129245671Y-73245970D01*
X129222571Y-73254235D01*
X129198773Y-73260196D01*
X129174504Y-73263796D01*
X129150000Y-73265000D01*
X128400000Y-73265000D01*
X128375496Y-73263796D01*
X128351227Y-73260196D01*
X128327429Y-73254235D01*
X128304329Y-73245970D01*
X128282151Y-73235480D01*
X128261107Y-73222867D01*
X128241402Y-73208253D01*
X128223223Y-73191777D01*
X128206747Y-73173598D01*
X128192133Y-73153893D01*
X128179520Y-73132849D01*
X128169030Y-73110671D01*
X128160765Y-73087571D01*
X128154804Y-73063773D01*
X128151204Y-73039504D01*
X128150000Y-73015000D01*
X128150000Y-71765000D01*
X128151204Y-71740496D01*
X128154804Y-71716227D01*
X128160765Y-71692429D01*
X128169030Y-71669329D01*
X128179520Y-71647151D01*
X128192133Y-71626107D01*
X128206747Y-71606402D01*
X128223223Y-71588223D01*
X128241402Y-71571747D01*
X128261107Y-71557133D01*
X128282151Y-71544520D01*
X128304329Y-71534030D01*
X128327429Y-71525765D01*
X128351227Y-71519804D01*
X128375496Y-71516204D01*
X128400000Y-71515000D01*
X129150000Y-71515000D01*
X129174504Y-71516204D01*
G37*
G04 #@! TD.AperFunction*
G04 #@! TA.AperFunction,SMDPad,CuDef*
G36*
X106574504Y-71516204D02*
G01*
X106598773Y-71519804D01*
X106622571Y-71525765D01*
X106645671Y-71534030D01*
X106667849Y-71544520D01*
X106688893Y-71557133D01*
X106708598Y-71571747D01*
X106726777Y-71588223D01*
X106743253Y-71606402D01*
X106757867Y-71626107D01*
X106770480Y-71647151D01*
X106780970Y-71669329D01*
X106789235Y-71692429D01*
X106795196Y-71716227D01*
X106798796Y-71740496D01*
X106800000Y-71765000D01*
X106800000Y-73015000D01*
X106798796Y-73039504D01*
X106795196Y-73063773D01*
X106789235Y-73087571D01*
X106780970Y-73110671D01*
X106770480Y-73132849D01*
X106757867Y-73153893D01*
X106743253Y-73173598D01*
X106726777Y-73191777D01*
X106708598Y-73208253D01*
X106688893Y-73222867D01*
X106667849Y-73235480D01*
X106645671Y-73245970D01*
X106622571Y-73254235D01*
X106598773Y-73260196D01*
X106574504Y-73263796D01*
X106550000Y-73265000D01*
X105800000Y-73265000D01*
X105775496Y-73263796D01*
X105751227Y-73260196D01*
X105727429Y-73254235D01*
X105704329Y-73245970D01*
X105682151Y-73235480D01*
X105661107Y-73222867D01*
X105641402Y-73208253D01*
X105623223Y-73191777D01*
X105606747Y-73173598D01*
X105592133Y-73153893D01*
X105579520Y-73132849D01*
X105569030Y-73110671D01*
X105560765Y-73087571D01*
X105554804Y-73063773D01*
X105551204Y-73039504D01*
X105550000Y-73015000D01*
X105550000Y-71765000D01*
X105551204Y-71740496D01*
X105554804Y-71716227D01*
X105560765Y-71692429D01*
X105569030Y-71669329D01*
X105579520Y-71647151D01*
X105592133Y-71626107D01*
X105606747Y-71606402D01*
X105623223Y-71588223D01*
X105641402Y-71571747D01*
X105661107Y-71557133D01*
X105682151Y-71544520D01*
X105704329Y-71534030D01*
X105727429Y-71525765D01*
X105751227Y-71519804D01*
X105775496Y-71516204D01*
X105800000Y-71515000D01*
X106550000Y-71515000D01*
X106574504Y-71516204D01*
G37*
G04 #@! TD.AperFunction*
G04 #@! TA.AperFunction,SMDPad,CuDef*
G36*
X103774504Y-71516204D02*
G01*
X103798773Y-71519804D01*
X103822571Y-71525765D01*
X103845671Y-71534030D01*
X103867849Y-71544520D01*
X103888893Y-71557133D01*
X103908598Y-71571747D01*
X103926777Y-71588223D01*
X103943253Y-71606402D01*
X103957867Y-71626107D01*
X103970480Y-71647151D01*
X103980970Y-71669329D01*
X103989235Y-71692429D01*
X103995196Y-71716227D01*
X103998796Y-71740496D01*
X104000000Y-71765000D01*
X104000000Y-73015000D01*
X103998796Y-73039504D01*
X103995196Y-73063773D01*
X103989235Y-73087571D01*
X103980970Y-73110671D01*
X103970480Y-73132849D01*
X103957867Y-73153893D01*
X103943253Y-73173598D01*
X103926777Y-73191777D01*
X103908598Y-73208253D01*
X103888893Y-73222867D01*
X103867849Y-73235480D01*
X103845671Y-73245970D01*
X103822571Y-73254235D01*
X103798773Y-73260196D01*
X103774504Y-73263796D01*
X103750000Y-73265000D01*
X103000000Y-73265000D01*
X102975496Y-73263796D01*
X102951227Y-73260196D01*
X102927429Y-73254235D01*
X102904329Y-73245970D01*
X102882151Y-73235480D01*
X102861107Y-73222867D01*
X102841402Y-73208253D01*
X102823223Y-73191777D01*
X102806747Y-73173598D01*
X102792133Y-73153893D01*
X102779520Y-73132849D01*
X102769030Y-73110671D01*
X102760765Y-73087571D01*
X102754804Y-73063773D01*
X102751204Y-73039504D01*
X102750000Y-73015000D01*
X102750000Y-71765000D01*
X102751204Y-71740496D01*
X102754804Y-71716227D01*
X102760765Y-71692429D01*
X102769030Y-71669329D01*
X102779520Y-71647151D01*
X102792133Y-71626107D01*
X102806747Y-71606402D01*
X102823223Y-71588223D01*
X102841402Y-71571747D01*
X102861107Y-71557133D01*
X102882151Y-71544520D01*
X102904329Y-71534030D01*
X102927429Y-71525765D01*
X102951227Y-71519804D01*
X102975496Y-71516204D01*
X103000000Y-71515000D01*
X103750000Y-71515000D01*
X103774504Y-71516204D01*
G37*
G04 #@! TD.AperFunction*
G04 #@! TA.AperFunction,SMDPad,CuDef*
G36*
X81174504Y-71516204D02*
G01*
X81198773Y-71519804D01*
X81222571Y-71525765D01*
X81245671Y-71534030D01*
X81267849Y-71544520D01*
X81288893Y-71557133D01*
X81308598Y-71571747D01*
X81326777Y-71588223D01*
X81343253Y-71606402D01*
X81357867Y-71626107D01*
X81370480Y-71647151D01*
X81380970Y-71669329D01*
X81389235Y-71692429D01*
X81395196Y-71716227D01*
X81398796Y-71740496D01*
X81400000Y-71765000D01*
X81400000Y-73015000D01*
X81398796Y-73039504D01*
X81395196Y-73063773D01*
X81389235Y-73087571D01*
X81380970Y-73110671D01*
X81370480Y-73132849D01*
X81357867Y-73153893D01*
X81343253Y-73173598D01*
X81326777Y-73191777D01*
X81308598Y-73208253D01*
X81288893Y-73222867D01*
X81267849Y-73235480D01*
X81245671Y-73245970D01*
X81222571Y-73254235D01*
X81198773Y-73260196D01*
X81174504Y-73263796D01*
X81150000Y-73265000D01*
X80400000Y-73265000D01*
X80375496Y-73263796D01*
X80351227Y-73260196D01*
X80327429Y-73254235D01*
X80304329Y-73245970D01*
X80282151Y-73235480D01*
X80261107Y-73222867D01*
X80241402Y-73208253D01*
X80223223Y-73191777D01*
X80206747Y-73173598D01*
X80192133Y-73153893D01*
X80179520Y-73132849D01*
X80169030Y-73110671D01*
X80160765Y-73087571D01*
X80154804Y-73063773D01*
X80151204Y-73039504D01*
X80150000Y-73015000D01*
X80150000Y-71765000D01*
X80151204Y-71740496D01*
X80154804Y-71716227D01*
X80160765Y-71692429D01*
X80169030Y-71669329D01*
X80179520Y-71647151D01*
X80192133Y-71626107D01*
X80206747Y-71606402D01*
X80223223Y-71588223D01*
X80241402Y-71571747D01*
X80261107Y-71557133D01*
X80282151Y-71544520D01*
X80304329Y-71534030D01*
X80327429Y-71525765D01*
X80351227Y-71519804D01*
X80375496Y-71516204D01*
X80400000Y-71515000D01*
X81150000Y-71515000D01*
X81174504Y-71516204D01*
G37*
G04 #@! TD.AperFunction*
G04 #@! TA.AperFunction,SMDPad,CuDef*
G36*
X78374504Y-71516204D02*
G01*
X78398773Y-71519804D01*
X78422571Y-71525765D01*
X78445671Y-71534030D01*
X78467849Y-71544520D01*
X78488893Y-71557133D01*
X78508598Y-71571747D01*
X78526777Y-71588223D01*
X78543253Y-71606402D01*
X78557867Y-71626107D01*
X78570480Y-71647151D01*
X78580970Y-71669329D01*
X78589235Y-71692429D01*
X78595196Y-71716227D01*
X78598796Y-71740496D01*
X78600000Y-71765000D01*
X78600000Y-73015000D01*
X78598796Y-73039504D01*
X78595196Y-73063773D01*
X78589235Y-73087571D01*
X78580970Y-73110671D01*
X78570480Y-73132849D01*
X78557867Y-73153893D01*
X78543253Y-73173598D01*
X78526777Y-73191777D01*
X78508598Y-73208253D01*
X78488893Y-73222867D01*
X78467849Y-73235480D01*
X78445671Y-73245970D01*
X78422571Y-73254235D01*
X78398773Y-73260196D01*
X78374504Y-73263796D01*
X78350000Y-73265000D01*
X77600000Y-73265000D01*
X77575496Y-73263796D01*
X77551227Y-73260196D01*
X77527429Y-73254235D01*
X77504329Y-73245970D01*
X77482151Y-73235480D01*
X77461107Y-73222867D01*
X77441402Y-73208253D01*
X77423223Y-73191777D01*
X77406747Y-73173598D01*
X77392133Y-73153893D01*
X77379520Y-73132849D01*
X77369030Y-73110671D01*
X77360765Y-73087571D01*
X77354804Y-73063773D01*
X77351204Y-73039504D01*
X77350000Y-73015000D01*
X77350000Y-71765000D01*
X77351204Y-71740496D01*
X77354804Y-71716227D01*
X77360765Y-71692429D01*
X77369030Y-71669329D01*
X77379520Y-71647151D01*
X77392133Y-71626107D01*
X77406747Y-71606402D01*
X77423223Y-71588223D01*
X77441402Y-71571747D01*
X77461107Y-71557133D01*
X77482151Y-71544520D01*
X77504329Y-71534030D01*
X77527429Y-71525765D01*
X77551227Y-71519804D01*
X77575496Y-71516204D01*
X77600000Y-71515000D01*
X78350000Y-71515000D01*
X78374504Y-71516204D01*
G37*
G04 #@! TD.AperFunction*
G04 #@! TA.AperFunction,SMDPad,CuDef*
G36*
X144674504Y-71516204D02*
G01*
X144698773Y-71519804D01*
X144722571Y-71525765D01*
X144745671Y-71534030D01*
X144767849Y-71544520D01*
X144788893Y-71557133D01*
X144808598Y-71571747D01*
X144826777Y-71588223D01*
X144843253Y-71606402D01*
X144857867Y-71626107D01*
X144870480Y-71647151D01*
X144880970Y-71669329D01*
X144889235Y-71692429D01*
X144895196Y-71716227D01*
X144898796Y-71740496D01*
X144900000Y-71765000D01*
X144900000Y-73015000D01*
X144898796Y-73039504D01*
X144895196Y-73063773D01*
X144889235Y-73087571D01*
X144880970Y-73110671D01*
X144870480Y-73132849D01*
X144857867Y-73153893D01*
X144843253Y-73173598D01*
X144826777Y-73191777D01*
X144808598Y-73208253D01*
X144788893Y-73222867D01*
X144767849Y-73235480D01*
X144745671Y-73245970D01*
X144722571Y-73254235D01*
X144698773Y-73260196D01*
X144674504Y-73263796D01*
X144650000Y-73265000D01*
X143900000Y-73265000D01*
X143875496Y-73263796D01*
X143851227Y-73260196D01*
X143827429Y-73254235D01*
X143804329Y-73245970D01*
X143782151Y-73235480D01*
X143761107Y-73222867D01*
X143741402Y-73208253D01*
X143723223Y-73191777D01*
X143706747Y-73173598D01*
X143692133Y-73153893D01*
X143679520Y-73132849D01*
X143669030Y-73110671D01*
X143660765Y-73087571D01*
X143654804Y-73063773D01*
X143651204Y-73039504D01*
X143650000Y-73015000D01*
X143650000Y-71765000D01*
X143651204Y-71740496D01*
X143654804Y-71716227D01*
X143660765Y-71692429D01*
X143669030Y-71669329D01*
X143679520Y-71647151D01*
X143692133Y-71626107D01*
X143706747Y-71606402D01*
X143723223Y-71588223D01*
X143741402Y-71571747D01*
X143761107Y-71557133D01*
X143782151Y-71544520D01*
X143804329Y-71534030D01*
X143827429Y-71525765D01*
X143851227Y-71519804D01*
X143875496Y-71516204D01*
X143900000Y-71515000D01*
X144650000Y-71515000D01*
X144674504Y-71516204D01*
G37*
G04 #@! TD.AperFunction*
G04 #@! TA.AperFunction,SMDPad,CuDef*
G36*
X141874504Y-71516204D02*
G01*
X141898773Y-71519804D01*
X141922571Y-71525765D01*
X141945671Y-71534030D01*
X141967849Y-71544520D01*
X141988893Y-71557133D01*
X142008598Y-71571747D01*
X142026777Y-71588223D01*
X142043253Y-71606402D01*
X142057867Y-71626107D01*
X142070480Y-71647151D01*
X142080970Y-71669329D01*
X142089235Y-71692429D01*
X142095196Y-71716227D01*
X142098796Y-71740496D01*
X142100000Y-71765000D01*
X142100000Y-73015000D01*
X142098796Y-73039504D01*
X142095196Y-73063773D01*
X142089235Y-73087571D01*
X142080970Y-73110671D01*
X142070480Y-73132849D01*
X142057867Y-73153893D01*
X142043253Y-73173598D01*
X142026777Y-73191777D01*
X142008598Y-73208253D01*
X141988893Y-73222867D01*
X141967849Y-73235480D01*
X141945671Y-73245970D01*
X141922571Y-73254235D01*
X141898773Y-73260196D01*
X141874504Y-73263796D01*
X141850000Y-73265000D01*
X141100000Y-73265000D01*
X141075496Y-73263796D01*
X141051227Y-73260196D01*
X141027429Y-73254235D01*
X141004329Y-73245970D01*
X140982151Y-73235480D01*
X140961107Y-73222867D01*
X140941402Y-73208253D01*
X140923223Y-73191777D01*
X140906747Y-73173598D01*
X140892133Y-73153893D01*
X140879520Y-73132849D01*
X140869030Y-73110671D01*
X140860765Y-73087571D01*
X140854804Y-73063773D01*
X140851204Y-73039504D01*
X140850000Y-73015000D01*
X140850000Y-71765000D01*
X140851204Y-71740496D01*
X140854804Y-71716227D01*
X140860765Y-71692429D01*
X140869030Y-71669329D01*
X140879520Y-71647151D01*
X140892133Y-71626107D01*
X140906747Y-71606402D01*
X140923223Y-71588223D01*
X140941402Y-71571747D01*
X140961107Y-71557133D01*
X140982151Y-71544520D01*
X141004329Y-71534030D01*
X141027429Y-71525765D01*
X141051227Y-71519804D01*
X141075496Y-71516204D01*
X141100000Y-71515000D01*
X141850000Y-71515000D01*
X141874504Y-71516204D01*
G37*
G04 #@! TD.AperFunction*
G04 #@! TA.AperFunction,SMDPad,CuDef*
G36*
X119274504Y-71516204D02*
G01*
X119298773Y-71519804D01*
X119322571Y-71525765D01*
X119345671Y-71534030D01*
X119367849Y-71544520D01*
X119388893Y-71557133D01*
X119408598Y-71571747D01*
X119426777Y-71588223D01*
X119443253Y-71606402D01*
X119457867Y-71626107D01*
X119470480Y-71647151D01*
X119480970Y-71669329D01*
X119489235Y-71692429D01*
X119495196Y-71716227D01*
X119498796Y-71740496D01*
X119500000Y-71765000D01*
X119500000Y-73015000D01*
X119498796Y-73039504D01*
X119495196Y-73063773D01*
X119489235Y-73087571D01*
X119480970Y-73110671D01*
X119470480Y-73132849D01*
X119457867Y-73153893D01*
X119443253Y-73173598D01*
X119426777Y-73191777D01*
X119408598Y-73208253D01*
X119388893Y-73222867D01*
X119367849Y-73235480D01*
X119345671Y-73245970D01*
X119322571Y-73254235D01*
X119298773Y-73260196D01*
X119274504Y-73263796D01*
X119250000Y-73265000D01*
X118500000Y-73265000D01*
X118475496Y-73263796D01*
X118451227Y-73260196D01*
X118427429Y-73254235D01*
X118404329Y-73245970D01*
X118382151Y-73235480D01*
X118361107Y-73222867D01*
X118341402Y-73208253D01*
X118323223Y-73191777D01*
X118306747Y-73173598D01*
X118292133Y-73153893D01*
X118279520Y-73132849D01*
X118269030Y-73110671D01*
X118260765Y-73087571D01*
X118254804Y-73063773D01*
X118251204Y-73039504D01*
X118250000Y-73015000D01*
X118250000Y-71765000D01*
X118251204Y-71740496D01*
X118254804Y-71716227D01*
X118260765Y-71692429D01*
X118269030Y-71669329D01*
X118279520Y-71647151D01*
X118292133Y-71626107D01*
X118306747Y-71606402D01*
X118323223Y-71588223D01*
X118341402Y-71571747D01*
X118361107Y-71557133D01*
X118382151Y-71544520D01*
X118404329Y-71534030D01*
X118427429Y-71525765D01*
X118451227Y-71519804D01*
X118475496Y-71516204D01*
X118500000Y-71515000D01*
X119250000Y-71515000D01*
X119274504Y-71516204D01*
G37*
G04 #@! TD.AperFunction*
G04 #@! TA.AperFunction,SMDPad,CuDef*
G36*
X116474504Y-71516204D02*
G01*
X116498773Y-71519804D01*
X116522571Y-71525765D01*
X116545671Y-71534030D01*
X116567849Y-71544520D01*
X116588893Y-71557133D01*
X116608598Y-71571747D01*
X116626777Y-71588223D01*
X116643253Y-71606402D01*
X116657867Y-71626107D01*
X116670480Y-71647151D01*
X116680970Y-71669329D01*
X116689235Y-71692429D01*
X116695196Y-71716227D01*
X116698796Y-71740496D01*
X116700000Y-71765000D01*
X116700000Y-73015000D01*
X116698796Y-73039504D01*
X116695196Y-73063773D01*
X116689235Y-73087571D01*
X116680970Y-73110671D01*
X116670480Y-73132849D01*
X116657867Y-73153893D01*
X116643253Y-73173598D01*
X116626777Y-73191777D01*
X116608598Y-73208253D01*
X116588893Y-73222867D01*
X116567849Y-73235480D01*
X116545671Y-73245970D01*
X116522571Y-73254235D01*
X116498773Y-73260196D01*
X116474504Y-73263796D01*
X116450000Y-73265000D01*
X115700000Y-73265000D01*
X115675496Y-73263796D01*
X115651227Y-73260196D01*
X115627429Y-73254235D01*
X115604329Y-73245970D01*
X115582151Y-73235480D01*
X115561107Y-73222867D01*
X115541402Y-73208253D01*
X115523223Y-73191777D01*
X115506747Y-73173598D01*
X115492133Y-73153893D01*
X115479520Y-73132849D01*
X115469030Y-73110671D01*
X115460765Y-73087571D01*
X115454804Y-73063773D01*
X115451204Y-73039504D01*
X115450000Y-73015000D01*
X115450000Y-71765000D01*
X115451204Y-71740496D01*
X115454804Y-71716227D01*
X115460765Y-71692429D01*
X115469030Y-71669329D01*
X115479520Y-71647151D01*
X115492133Y-71626107D01*
X115506747Y-71606402D01*
X115523223Y-71588223D01*
X115541402Y-71571747D01*
X115561107Y-71557133D01*
X115582151Y-71544520D01*
X115604329Y-71534030D01*
X115627429Y-71525765D01*
X115651227Y-71519804D01*
X115675496Y-71516204D01*
X115700000Y-71515000D01*
X116450000Y-71515000D01*
X116474504Y-71516204D01*
G37*
G04 #@! TD.AperFunction*
G04 #@! TA.AperFunction,SMDPad,CuDef*
G36*
X93874504Y-71516204D02*
G01*
X93898773Y-71519804D01*
X93922571Y-71525765D01*
X93945671Y-71534030D01*
X93967849Y-71544520D01*
X93988893Y-71557133D01*
X94008598Y-71571747D01*
X94026777Y-71588223D01*
X94043253Y-71606402D01*
X94057867Y-71626107D01*
X94070480Y-71647151D01*
X94080970Y-71669329D01*
X94089235Y-71692429D01*
X94095196Y-71716227D01*
X94098796Y-71740496D01*
X94100000Y-71765000D01*
X94100000Y-73015000D01*
X94098796Y-73039504D01*
X94095196Y-73063773D01*
X94089235Y-73087571D01*
X94080970Y-73110671D01*
X94070480Y-73132849D01*
X94057867Y-73153893D01*
X94043253Y-73173598D01*
X94026777Y-73191777D01*
X94008598Y-73208253D01*
X93988893Y-73222867D01*
X93967849Y-73235480D01*
X93945671Y-73245970D01*
X93922571Y-73254235D01*
X93898773Y-73260196D01*
X93874504Y-73263796D01*
X93850000Y-73265000D01*
X93100000Y-73265000D01*
X93075496Y-73263796D01*
X93051227Y-73260196D01*
X93027429Y-73254235D01*
X93004329Y-73245970D01*
X92982151Y-73235480D01*
X92961107Y-73222867D01*
X92941402Y-73208253D01*
X92923223Y-73191777D01*
X92906747Y-73173598D01*
X92892133Y-73153893D01*
X92879520Y-73132849D01*
X92869030Y-73110671D01*
X92860765Y-73087571D01*
X92854804Y-73063773D01*
X92851204Y-73039504D01*
X92850000Y-73015000D01*
X92850000Y-71765000D01*
X92851204Y-71740496D01*
X92854804Y-71716227D01*
X92860765Y-71692429D01*
X92869030Y-71669329D01*
X92879520Y-71647151D01*
X92892133Y-71626107D01*
X92906747Y-71606402D01*
X92923223Y-71588223D01*
X92941402Y-71571747D01*
X92961107Y-71557133D01*
X92982151Y-71544520D01*
X93004329Y-71534030D01*
X93027429Y-71525765D01*
X93051227Y-71519804D01*
X93075496Y-71516204D01*
X93100000Y-71515000D01*
X93850000Y-71515000D01*
X93874504Y-71516204D01*
G37*
G04 #@! TD.AperFunction*
G04 #@! TA.AperFunction,SMDPad,CuDef*
G36*
X91074504Y-71516204D02*
G01*
X91098773Y-71519804D01*
X91122571Y-71525765D01*
X91145671Y-71534030D01*
X91167849Y-71544520D01*
X91188893Y-71557133D01*
X91208598Y-71571747D01*
X91226777Y-71588223D01*
X91243253Y-71606402D01*
X91257867Y-71626107D01*
X91270480Y-71647151D01*
X91280970Y-71669329D01*
X91289235Y-71692429D01*
X91295196Y-71716227D01*
X91298796Y-71740496D01*
X91300000Y-71765000D01*
X91300000Y-73015000D01*
X91298796Y-73039504D01*
X91295196Y-73063773D01*
X91289235Y-73087571D01*
X91280970Y-73110671D01*
X91270480Y-73132849D01*
X91257867Y-73153893D01*
X91243253Y-73173598D01*
X91226777Y-73191777D01*
X91208598Y-73208253D01*
X91188893Y-73222867D01*
X91167849Y-73235480D01*
X91145671Y-73245970D01*
X91122571Y-73254235D01*
X91098773Y-73260196D01*
X91074504Y-73263796D01*
X91050000Y-73265000D01*
X90300000Y-73265000D01*
X90275496Y-73263796D01*
X90251227Y-73260196D01*
X90227429Y-73254235D01*
X90204329Y-73245970D01*
X90182151Y-73235480D01*
X90161107Y-73222867D01*
X90141402Y-73208253D01*
X90123223Y-73191777D01*
X90106747Y-73173598D01*
X90092133Y-73153893D01*
X90079520Y-73132849D01*
X90069030Y-73110671D01*
X90060765Y-73087571D01*
X90054804Y-73063773D01*
X90051204Y-73039504D01*
X90050000Y-73015000D01*
X90050000Y-71765000D01*
X90051204Y-71740496D01*
X90054804Y-71716227D01*
X90060765Y-71692429D01*
X90069030Y-71669329D01*
X90079520Y-71647151D01*
X90092133Y-71626107D01*
X90106747Y-71606402D01*
X90123223Y-71588223D01*
X90141402Y-71571747D01*
X90161107Y-71557133D01*
X90182151Y-71544520D01*
X90204329Y-71534030D01*
X90227429Y-71525765D01*
X90251227Y-71519804D01*
X90275496Y-71516204D01*
X90300000Y-71515000D01*
X91050000Y-71515000D01*
X91074504Y-71516204D01*
G37*
G04 #@! TD.AperFunction*
G04 #@! TA.AperFunction,SMDPad,CuDef*
G36*
X68604504Y-71516204D02*
G01*
X68628773Y-71519804D01*
X68652571Y-71525765D01*
X68675671Y-71534030D01*
X68697849Y-71544520D01*
X68718893Y-71557133D01*
X68738598Y-71571747D01*
X68756777Y-71588223D01*
X68773253Y-71606402D01*
X68787867Y-71626107D01*
X68800480Y-71647151D01*
X68810970Y-71669329D01*
X68819235Y-71692429D01*
X68825196Y-71716227D01*
X68828796Y-71740496D01*
X68830000Y-71765000D01*
X68830000Y-73015000D01*
X68828796Y-73039504D01*
X68825196Y-73063773D01*
X68819235Y-73087571D01*
X68810970Y-73110671D01*
X68800480Y-73132849D01*
X68787867Y-73153893D01*
X68773253Y-73173598D01*
X68756777Y-73191777D01*
X68738598Y-73208253D01*
X68718893Y-73222867D01*
X68697849Y-73235480D01*
X68675671Y-73245970D01*
X68652571Y-73254235D01*
X68628773Y-73260196D01*
X68604504Y-73263796D01*
X68580000Y-73265000D01*
X67830000Y-73265000D01*
X67805496Y-73263796D01*
X67781227Y-73260196D01*
X67757429Y-73254235D01*
X67734329Y-73245970D01*
X67712151Y-73235480D01*
X67691107Y-73222867D01*
X67671402Y-73208253D01*
X67653223Y-73191777D01*
X67636747Y-73173598D01*
X67622133Y-73153893D01*
X67609520Y-73132849D01*
X67599030Y-73110671D01*
X67590765Y-73087571D01*
X67584804Y-73063773D01*
X67581204Y-73039504D01*
X67580000Y-73015000D01*
X67580000Y-71765000D01*
X67581204Y-71740496D01*
X67584804Y-71716227D01*
X67590765Y-71692429D01*
X67599030Y-71669329D01*
X67609520Y-71647151D01*
X67622133Y-71626107D01*
X67636747Y-71606402D01*
X67653223Y-71588223D01*
X67671402Y-71571747D01*
X67691107Y-71557133D01*
X67712151Y-71544520D01*
X67734329Y-71534030D01*
X67757429Y-71525765D01*
X67781227Y-71519804D01*
X67805496Y-71516204D01*
X67830000Y-71515000D01*
X68580000Y-71515000D01*
X68604504Y-71516204D01*
G37*
G04 #@! TD.AperFunction*
G04 #@! TA.AperFunction,SMDPad,CuDef*
G36*
X65804504Y-71516204D02*
G01*
X65828773Y-71519804D01*
X65852571Y-71525765D01*
X65875671Y-71534030D01*
X65897849Y-71544520D01*
X65918893Y-71557133D01*
X65938598Y-71571747D01*
X65956777Y-71588223D01*
X65973253Y-71606402D01*
X65987867Y-71626107D01*
X66000480Y-71647151D01*
X66010970Y-71669329D01*
X66019235Y-71692429D01*
X66025196Y-71716227D01*
X66028796Y-71740496D01*
X66030000Y-71765000D01*
X66030000Y-73015000D01*
X66028796Y-73039504D01*
X66025196Y-73063773D01*
X66019235Y-73087571D01*
X66010970Y-73110671D01*
X66000480Y-73132849D01*
X65987867Y-73153893D01*
X65973253Y-73173598D01*
X65956777Y-73191777D01*
X65938598Y-73208253D01*
X65918893Y-73222867D01*
X65897849Y-73235480D01*
X65875671Y-73245970D01*
X65852571Y-73254235D01*
X65828773Y-73260196D01*
X65804504Y-73263796D01*
X65780000Y-73265000D01*
X65030000Y-73265000D01*
X65005496Y-73263796D01*
X64981227Y-73260196D01*
X64957429Y-73254235D01*
X64934329Y-73245970D01*
X64912151Y-73235480D01*
X64891107Y-73222867D01*
X64871402Y-73208253D01*
X64853223Y-73191777D01*
X64836747Y-73173598D01*
X64822133Y-73153893D01*
X64809520Y-73132849D01*
X64799030Y-73110671D01*
X64790765Y-73087571D01*
X64784804Y-73063773D01*
X64781204Y-73039504D01*
X64780000Y-73015000D01*
X64780000Y-71765000D01*
X64781204Y-71740496D01*
X64784804Y-71716227D01*
X64790765Y-71692429D01*
X64799030Y-71669329D01*
X64809520Y-71647151D01*
X64822133Y-71626107D01*
X64836747Y-71606402D01*
X64853223Y-71588223D01*
X64871402Y-71571747D01*
X64891107Y-71557133D01*
X64912151Y-71544520D01*
X64934329Y-71534030D01*
X64957429Y-71525765D01*
X64981227Y-71519804D01*
X65005496Y-71516204D01*
X65030000Y-71515000D01*
X65780000Y-71515000D01*
X65804504Y-71516204D01*
G37*
G04 #@! TD.AperFunction*
D12*
X163830000Y-76200000D03*
X161290000Y-76200000D03*
X158750000Y-76200000D03*
X156210000Y-76200000D03*
X153670000Y-76200000D03*
X151130000Y-76200000D03*
X148590000Y-76200000D03*
X146050000Y-76200000D03*
X143510000Y-76200000D03*
X140970000Y-76200000D03*
X138430000Y-76200000D03*
X135890000Y-76200000D03*
X133350000Y-76200000D03*
X130810000Y-76200000D03*
X128270000Y-76200000D03*
X125730000Y-76200000D03*
X123190000Y-76200000D03*
X120650000Y-76200000D03*
X118110000Y-76200000D03*
X115570000Y-76200000D03*
X113030000Y-76200000D03*
X110490000Y-76200000D03*
X107950000Y-76200000D03*
X105410000Y-76200000D03*
X102870000Y-76200000D03*
X100330000Y-76200000D03*
X97790000Y-76200000D03*
X95250000Y-76200000D03*
X92710000Y-76200000D03*
X90170000Y-76200000D03*
X87630000Y-76200000D03*
X85090000Y-76200000D03*
X82550000Y-76200000D03*
X80010000Y-76200000D03*
X77470000Y-76200000D03*
X74930000Y-76200000D03*
X72390000Y-76200000D03*
X69850000Y-76200000D03*
X67310000Y-76200000D03*
D13*
X64770000Y-76200000D03*
G04 #@! TA.AperFunction,SMDPad,CuDef*
D11*
G36*
X160924504Y-71516204D02*
G01*
X160948773Y-71519804D01*
X160972571Y-71525765D01*
X160995671Y-71534030D01*
X161017849Y-71544520D01*
X161038893Y-71557133D01*
X161058598Y-71571747D01*
X161076777Y-71588223D01*
X161093253Y-71606402D01*
X161107867Y-71626107D01*
X161120480Y-71647151D01*
X161130970Y-71669329D01*
X161139235Y-71692429D01*
X161145196Y-71716227D01*
X161148796Y-71740496D01*
X161150000Y-71765000D01*
X161150000Y-73015000D01*
X161148796Y-73039504D01*
X161145196Y-73063773D01*
X161139235Y-73087571D01*
X161130970Y-73110671D01*
X161120480Y-73132849D01*
X161107867Y-73153893D01*
X161093253Y-73173598D01*
X161076777Y-73191777D01*
X161058598Y-73208253D01*
X161038893Y-73222867D01*
X161017849Y-73235480D01*
X160995671Y-73245970D01*
X160972571Y-73254235D01*
X160948773Y-73260196D01*
X160924504Y-73263796D01*
X160900000Y-73265000D01*
X160150000Y-73265000D01*
X160125496Y-73263796D01*
X160101227Y-73260196D01*
X160077429Y-73254235D01*
X160054329Y-73245970D01*
X160032151Y-73235480D01*
X160011107Y-73222867D01*
X159991402Y-73208253D01*
X159973223Y-73191777D01*
X159956747Y-73173598D01*
X159942133Y-73153893D01*
X159929520Y-73132849D01*
X159919030Y-73110671D01*
X159910765Y-73087571D01*
X159904804Y-73063773D01*
X159901204Y-73039504D01*
X159900000Y-73015000D01*
X159900000Y-71765000D01*
X159901204Y-71740496D01*
X159904804Y-71716227D01*
X159910765Y-71692429D01*
X159919030Y-71669329D01*
X159929520Y-71647151D01*
X159942133Y-71626107D01*
X159956747Y-71606402D01*
X159973223Y-71588223D01*
X159991402Y-71571747D01*
X160011107Y-71557133D01*
X160032151Y-71544520D01*
X160054329Y-71534030D01*
X160077429Y-71525765D01*
X160101227Y-71519804D01*
X160125496Y-71516204D01*
X160150000Y-71515000D01*
X160900000Y-71515000D01*
X160924504Y-71516204D01*
G37*
G04 #@! TD.AperFunction*
G04 #@! TA.AperFunction,SMDPad,CuDef*
G36*
X163724504Y-71516204D02*
G01*
X163748773Y-71519804D01*
X163772571Y-71525765D01*
X163795671Y-71534030D01*
X163817849Y-71544520D01*
X163838893Y-71557133D01*
X163858598Y-71571747D01*
X163876777Y-71588223D01*
X163893253Y-71606402D01*
X163907867Y-71626107D01*
X163920480Y-71647151D01*
X163930970Y-71669329D01*
X163939235Y-71692429D01*
X163945196Y-71716227D01*
X163948796Y-71740496D01*
X163950000Y-71765000D01*
X163950000Y-73015000D01*
X163948796Y-73039504D01*
X163945196Y-73063773D01*
X163939235Y-73087571D01*
X163930970Y-73110671D01*
X163920480Y-73132849D01*
X163907867Y-73153893D01*
X163893253Y-73173598D01*
X163876777Y-73191777D01*
X163858598Y-73208253D01*
X163838893Y-73222867D01*
X163817849Y-73235480D01*
X163795671Y-73245970D01*
X163772571Y-73254235D01*
X163748773Y-73260196D01*
X163724504Y-73263796D01*
X163700000Y-73265000D01*
X162950000Y-73265000D01*
X162925496Y-73263796D01*
X162901227Y-73260196D01*
X162877429Y-73254235D01*
X162854329Y-73245970D01*
X162832151Y-73235480D01*
X162811107Y-73222867D01*
X162791402Y-73208253D01*
X162773223Y-73191777D01*
X162756747Y-73173598D01*
X162742133Y-73153893D01*
X162729520Y-73132849D01*
X162719030Y-73110671D01*
X162710765Y-73087571D01*
X162704804Y-73063773D01*
X162701204Y-73039504D01*
X162700000Y-73015000D01*
X162700000Y-71765000D01*
X162701204Y-71740496D01*
X162704804Y-71716227D01*
X162710765Y-71692429D01*
X162719030Y-71669329D01*
X162729520Y-71647151D01*
X162742133Y-71626107D01*
X162756747Y-71606402D01*
X162773223Y-71588223D01*
X162791402Y-71571747D01*
X162811107Y-71557133D01*
X162832151Y-71544520D01*
X162854329Y-71534030D01*
X162877429Y-71525765D01*
X162901227Y-71519804D01*
X162925496Y-71516204D01*
X162950000Y-71515000D01*
X163700000Y-71515000D01*
X163724504Y-71516204D01*
G37*
G04 #@! TD.AperFunction*
G04 #@! TA.AperFunction,SMDPad,CuDef*
G36*
X135524504Y-71516204D02*
G01*
X135548773Y-71519804D01*
X135572571Y-71525765D01*
X135595671Y-71534030D01*
X135617849Y-71544520D01*
X135638893Y-71557133D01*
X135658598Y-71571747D01*
X135676777Y-71588223D01*
X135693253Y-71606402D01*
X135707867Y-71626107D01*
X135720480Y-71647151D01*
X135730970Y-71669329D01*
X135739235Y-71692429D01*
X135745196Y-71716227D01*
X135748796Y-71740496D01*
X135750000Y-71765000D01*
X135750000Y-73015000D01*
X135748796Y-73039504D01*
X135745196Y-73063773D01*
X135739235Y-73087571D01*
X135730970Y-73110671D01*
X135720480Y-73132849D01*
X135707867Y-73153893D01*
X135693253Y-73173598D01*
X135676777Y-73191777D01*
X135658598Y-73208253D01*
X135638893Y-73222867D01*
X135617849Y-73235480D01*
X135595671Y-73245970D01*
X135572571Y-73254235D01*
X135548773Y-73260196D01*
X135524504Y-73263796D01*
X135500000Y-73265000D01*
X134750000Y-73265000D01*
X134725496Y-73263796D01*
X134701227Y-73260196D01*
X134677429Y-73254235D01*
X134654329Y-73245970D01*
X134632151Y-73235480D01*
X134611107Y-73222867D01*
X134591402Y-73208253D01*
X134573223Y-73191777D01*
X134556747Y-73173598D01*
X134542133Y-73153893D01*
X134529520Y-73132849D01*
X134519030Y-73110671D01*
X134510765Y-73087571D01*
X134504804Y-73063773D01*
X134501204Y-73039504D01*
X134500000Y-73015000D01*
X134500000Y-71765000D01*
X134501204Y-71740496D01*
X134504804Y-71716227D01*
X134510765Y-71692429D01*
X134519030Y-71669329D01*
X134529520Y-71647151D01*
X134542133Y-71626107D01*
X134556747Y-71606402D01*
X134573223Y-71588223D01*
X134591402Y-71571747D01*
X134611107Y-71557133D01*
X134632151Y-71544520D01*
X134654329Y-71534030D01*
X134677429Y-71525765D01*
X134701227Y-71519804D01*
X134725496Y-71516204D01*
X134750000Y-71515000D01*
X135500000Y-71515000D01*
X135524504Y-71516204D01*
G37*
G04 #@! TD.AperFunction*
G04 #@! TA.AperFunction,SMDPad,CuDef*
G36*
X138324504Y-71516204D02*
G01*
X138348773Y-71519804D01*
X138372571Y-71525765D01*
X138395671Y-71534030D01*
X138417849Y-71544520D01*
X138438893Y-71557133D01*
X138458598Y-71571747D01*
X138476777Y-71588223D01*
X138493253Y-71606402D01*
X138507867Y-71626107D01*
X138520480Y-71647151D01*
X138530970Y-71669329D01*
X138539235Y-71692429D01*
X138545196Y-71716227D01*
X138548796Y-71740496D01*
X138550000Y-71765000D01*
X138550000Y-73015000D01*
X138548796Y-73039504D01*
X138545196Y-73063773D01*
X138539235Y-73087571D01*
X138530970Y-73110671D01*
X138520480Y-73132849D01*
X138507867Y-73153893D01*
X138493253Y-73173598D01*
X138476777Y-73191777D01*
X138458598Y-73208253D01*
X138438893Y-73222867D01*
X138417849Y-73235480D01*
X138395671Y-73245970D01*
X138372571Y-73254235D01*
X138348773Y-73260196D01*
X138324504Y-73263796D01*
X138300000Y-73265000D01*
X137550000Y-73265000D01*
X137525496Y-73263796D01*
X137501227Y-73260196D01*
X137477429Y-73254235D01*
X137454329Y-73245970D01*
X137432151Y-73235480D01*
X137411107Y-73222867D01*
X137391402Y-73208253D01*
X137373223Y-73191777D01*
X137356747Y-73173598D01*
X137342133Y-73153893D01*
X137329520Y-73132849D01*
X137319030Y-73110671D01*
X137310765Y-73087571D01*
X137304804Y-73063773D01*
X137301204Y-73039504D01*
X137300000Y-73015000D01*
X137300000Y-71765000D01*
X137301204Y-71740496D01*
X137304804Y-71716227D01*
X137310765Y-71692429D01*
X137319030Y-71669329D01*
X137329520Y-71647151D01*
X137342133Y-71626107D01*
X137356747Y-71606402D01*
X137373223Y-71588223D01*
X137391402Y-71571747D01*
X137411107Y-71557133D01*
X137432151Y-71544520D01*
X137454329Y-71534030D01*
X137477429Y-71525765D01*
X137501227Y-71519804D01*
X137525496Y-71516204D01*
X137550000Y-71515000D01*
X138300000Y-71515000D01*
X138324504Y-71516204D01*
G37*
G04 #@! TD.AperFunction*
G04 #@! TA.AperFunction,SMDPad,CuDef*
G36*
X110124504Y-71516204D02*
G01*
X110148773Y-71519804D01*
X110172571Y-71525765D01*
X110195671Y-71534030D01*
X110217849Y-71544520D01*
X110238893Y-71557133D01*
X110258598Y-71571747D01*
X110276777Y-71588223D01*
X110293253Y-71606402D01*
X110307867Y-71626107D01*
X110320480Y-71647151D01*
X110330970Y-71669329D01*
X110339235Y-71692429D01*
X110345196Y-71716227D01*
X110348796Y-71740496D01*
X110350000Y-71765000D01*
X110350000Y-73015000D01*
X110348796Y-73039504D01*
X110345196Y-73063773D01*
X110339235Y-73087571D01*
X110330970Y-73110671D01*
X110320480Y-73132849D01*
X110307867Y-73153893D01*
X110293253Y-73173598D01*
X110276777Y-73191777D01*
X110258598Y-73208253D01*
X110238893Y-73222867D01*
X110217849Y-73235480D01*
X110195671Y-73245970D01*
X110172571Y-73254235D01*
X110148773Y-73260196D01*
X110124504Y-73263796D01*
X110100000Y-73265000D01*
X109350000Y-73265000D01*
X109325496Y-73263796D01*
X109301227Y-73260196D01*
X109277429Y-73254235D01*
X109254329Y-73245970D01*
X109232151Y-73235480D01*
X109211107Y-73222867D01*
X109191402Y-73208253D01*
X109173223Y-73191777D01*
X109156747Y-73173598D01*
X109142133Y-73153893D01*
X109129520Y-73132849D01*
X109119030Y-73110671D01*
X109110765Y-73087571D01*
X109104804Y-73063773D01*
X109101204Y-73039504D01*
X109100000Y-73015000D01*
X109100000Y-71765000D01*
X109101204Y-71740496D01*
X109104804Y-71716227D01*
X109110765Y-71692429D01*
X109119030Y-71669329D01*
X109129520Y-71647151D01*
X109142133Y-71626107D01*
X109156747Y-71606402D01*
X109173223Y-71588223D01*
X109191402Y-71571747D01*
X109211107Y-71557133D01*
X109232151Y-71544520D01*
X109254329Y-71534030D01*
X109277429Y-71525765D01*
X109301227Y-71519804D01*
X109325496Y-71516204D01*
X109350000Y-71515000D01*
X110100000Y-71515000D01*
X110124504Y-71516204D01*
G37*
G04 #@! TD.AperFunction*
G04 #@! TA.AperFunction,SMDPad,CuDef*
G36*
X112924504Y-71516204D02*
G01*
X112948773Y-71519804D01*
X112972571Y-71525765D01*
X112995671Y-71534030D01*
X113017849Y-71544520D01*
X113038893Y-71557133D01*
X113058598Y-71571747D01*
X113076777Y-71588223D01*
X113093253Y-71606402D01*
X113107867Y-71626107D01*
X113120480Y-71647151D01*
X113130970Y-71669329D01*
X113139235Y-71692429D01*
X113145196Y-71716227D01*
X113148796Y-71740496D01*
X113150000Y-71765000D01*
X113150000Y-73015000D01*
X113148796Y-73039504D01*
X113145196Y-73063773D01*
X113139235Y-73087571D01*
X113130970Y-73110671D01*
X113120480Y-73132849D01*
X113107867Y-73153893D01*
X113093253Y-73173598D01*
X113076777Y-73191777D01*
X113058598Y-73208253D01*
X113038893Y-73222867D01*
X113017849Y-73235480D01*
X112995671Y-73245970D01*
X112972571Y-73254235D01*
X112948773Y-73260196D01*
X112924504Y-73263796D01*
X112900000Y-73265000D01*
X112150000Y-73265000D01*
X112125496Y-73263796D01*
X112101227Y-73260196D01*
X112077429Y-73254235D01*
X112054329Y-73245970D01*
X112032151Y-73235480D01*
X112011107Y-73222867D01*
X111991402Y-73208253D01*
X111973223Y-73191777D01*
X111956747Y-73173598D01*
X111942133Y-73153893D01*
X111929520Y-73132849D01*
X111919030Y-73110671D01*
X111910765Y-73087571D01*
X111904804Y-73063773D01*
X111901204Y-73039504D01*
X111900000Y-73015000D01*
X111900000Y-71765000D01*
X111901204Y-71740496D01*
X111904804Y-71716227D01*
X111910765Y-71692429D01*
X111919030Y-71669329D01*
X111929520Y-71647151D01*
X111942133Y-71626107D01*
X111956747Y-71606402D01*
X111973223Y-71588223D01*
X111991402Y-71571747D01*
X112011107Y-71557133D01*
X112032151Y-71544520D01*
X112054329Y-71534030D01*
X112077429Y-71525765D01*
X112101227Y-71519804D01*
X112125496Y-71516204D01*
X112150000Y-71515000D01*
X112900000Y-71515000D01*
X112924504Y-71516204D01*
G37*
G04 #@! TD.AperFunction*
G04 #@! TA.AperFunction,SMDPad,CuDef*
G36*
X84724504Y-71516204D02*
G01*
X84748773Y-71519804D01*
X84772571Y-71525765D01*
X84795671Y-71534030D01*
X84817849Y-71544520D01*
X84838893Y-71557133D01*
X84858598Y-71571747D01*
X84876777Y-71588223D01*
X84893253Y-71606402D01*
X84907867Y-71626107D01*
X84920480Y-71647151D01*
X84930970Y-71669329D01*
X84939235Y-71692429D01*
X84945196Y-71716227D01*
X84948796Y-71740496D01*
X84950000Y-71765000D01*
X84950000Y-73015000D01*
X84948796Y-73039504D01*
X84945196Y-73063773D01*
X84939235Y-73087571D01*
X84930970Y-73110671D01*
X84920480Y-73132849D01*
X84907867Y-73153893D01*
X84893253Y-73173598D01*
X84876777Y-73191777D01*
X84858598Y-73208253D01*
X84838893Y-73222867D01*
X84817849Y-73235480D01*
X84795671Y-73245970D01*
X84772571Y-73254235D01*
X84748773Y-73260196D01*
X84724504Y-73263796D01*
X84700000Y-73265000D01*
X83950000Y-73265000D01*
X83925496Y-73263796D01*
X83901227Y-73260196D01*
X83877429Y-73254235D01*
X83854329Y-73245970D01*
X83832151Y-73235480D01*
X83811107Y-73222867D01*
X83791402Y-73208253D01*
X83773223Y-73191777D01*
X83756747Y-73173598D01*
X83742133Y-73153893D01*
X83729520Y-73132849D01*
X83719030Y-73110671D01*
X83710765Y-73087571D01*
X83704804Y-73063773D01*
X83701204Y-73039504D01*
X83700000Y-73015000D01*
X83700000Y-71765000D01*
X83701204Y-71740496D01*
X83704804Y-71716227D01*
X83710765Y-71692429D01*
X83719030Y-71669329D01*
X83729520Y-71647151D01*
X83742133Y-71626107D01*
X83756747Y-71606402D01*
X83773223Y-71588223D01*
X83791402Y-71571747D01*
X83811107Y-71557133D01*
X83832151Y-71544520D01*
X83854329Y-71534030D01*
X83877429Y-71525765D01*
X83901227Y-71519804D01*
X83925496Y-71516204D01*
X83950000Y-71515000D01*
X84700000Y-71515000D01*
X84724504Y-71516204D01*
G37*
G04 #@! TD.AperFunction*
G04 #@! TA.AperFunction,SMDPad,CuDef*
G36*
X87524504Y-71516204D02*
G01*
X87548773Y-71519804D01*
X87572571Y-71525765D01*
X87595671Y-71534030D01*
X87617849Y-71544520D01*
X87638893Y-71557133D01*
X87658598Y-71571747D01*
X87676777Y-71588223D01*
X87693253Y-71606402D01*
X87707867Y-71626107D01*
X87720480Y-71647151D01*
X87730970Y-71669329D01*
X87739235Y-71692429D01*
X87745196Y-71716227D01*
X87748796Y-71740496D01*
X87750000Y-71765000D01*
X87750000Y-73015000D01*
X87748796Y-73039504D01*
X87745196Y-73063773D01*
X87739235Y-73087571D01*
X87730970Y-73110671D01*
X87720480Y-73132849D01*
X87707867Y-73153893D01*
X87693253Y-73173598D01*
X87676777Y-73191777D01*
X87658598Y-73208253D01*
X87638893Y-73222867D01*
X87617849Y-73235480D01*
X87595671Y-73245970D01*
X87572571Y-73254235D01*
X87548773Y-73260196D01*
X87524504Y-73263796D01*
X87500000Y-73265000D01*
X86750000Y-73265000D01*
X86725496Y-73263796D01*
X86701227Y-73260196D01*
X86677429Y-73254235D01*
X86654329Y-73245970D01*
X86632151Y-73235480D01*
X86611107Y-73222867D01*
X86591402Y-73208253D01*
X86573223Y-73191777D01*
X86556747Y-73173598D01*
X86542133Y-73153893D01*
X86529520Y-73132849D01*
X86519030Y-73110671D01*
X86510765Y-73087571D01*
X86504804Y-73063773D01*
X86501204Y-73039504D01*
X86500000Y-73015000D01*
X86500000Y-71765000D01*
X86501204Y-71740496D01*
X86504804Y-71716227D01*
X86510765Y-71692429D01*
X86519030Y-71669329D01*
X86529520Y-71647151D01*
X86542133Y-71626107D01*
X86556747Y-71606402D01*
X86573223Y-71588223D01*
X86591402Y-71571747D01*
X86611107Y-71557133D01*
X86632151Y-71544520D01*
X86654329Y-71534030D01*
X86677429Y-71525765D01*
X86701227Y-71519804D01*
X86725496Y-71516204D01*
X86750000Y-71515000D01*
X87500000Y-71515000D01*
X87524504Y-71516204D01*
G37*
G04 #@! TD.AperFunction*
G04 #@! TA.AperFunction,SMDPad,CuDef*
G36*
X148354504Y-71516204D02*
G01*
X148378773Y-71519804D01*
X148402571Y-71525765D01*
X148425671Y-71534030D01*
X148447849Y-71544520D01*
X148468893Y-71557133D01*
X148488598Y-71571747D01*
X148506777Y-71588223D01*
X148523253Y-71606402D01*
X148537867Y-71626107D01*
X148550480Y-71647151D01*
X148560970Y-71669329D01*
X148569235Y-71692429D01*
X148575196Y-71716227D01*
X148578796Y-71740496D01*
X148580000Y-71765000D01*
X148580000Y-73015000D01*
X148578796Y-73039504D01*
X148575196Y-73063773D01*
X148569235Y-73087571D01*
X148560970Y-73110671D01*
X148550480Y-73132849D01*
X148537867Y-73153893D01*
X148523253Y-73173598D01*
X148506777Y-73191777D01*
X148488598Y-73208253D01*
X148468893Y-73222867D01*
X148447849Y-73235480D01*
X148425671Y-73245970D01*
X148402571Y-73254235D01*
X148378773Y-73260196D01*
X148354504Y-73263796D01*
X148330000Y-73265000D01*
X147580000Y-73265000D01*
X147555496Y-73263796D01*
X147531227Y-73260196D01*
X147507429Y-73254235D01*
X147484329Y-73245970D01*
X147462151Y-73235480D01*
X147441107Y-73222867D01*
X147421402Y-73208253D01*
X147403223Y-73191777D01*
X147386747Y-73173598D01*
X147372133Y-73153893D01*
X147359520Y-73132849D01*
X147349030Y-73110671D01*
X147340765Y-73087571D01*
X147334804Y-73063773D01*
X147331204Y-73039504D01*
X147330000Y-73015000D01*
X147330000Y-71765000D01*
X147331204Y-71740496D01*
X147334804Y-71716227D01*
X147340765Y-71692429D01*
X147349030Y-71669329D01*
X147359520Y-71647151D01*
X147372133Y-71626107D01*
X147386747Y-71606402D01*
X147403223Y-71588223D01*
X147421402Y-71571747D01*
X147441107Y-71557133D01*
X147462151Y-71544520D01*
X147484329Y-71534030D01*
X147507429Y-71525765D01*
X147531227Y-71519804D01*
X147555496Y-71516204D01*
X147580000Y-71515000D01*
X148330000Y-71515000D01*
X148354504Y-71516204D01*
G37*
G04 #@! TD.AperFunction*
G04 #@! TA.AperFunction,SMDPad,CuDef*
G36*
X151154504Y-71516204D02*
G01*
X151178773Y-71519804D01*
X151202571Y-71525765D01*
X151225671Y-71534030D01*
X151247849Y-71544520D01*
X151268893Y-71557133D01*
X151288598Y-71571747D01*
X151306777Y-71588223D01*
X151323253Y-71606402D01*
X151337867Y-71626107D01*
X151350480Y-71647151D01*
X151360970Y-71669329D01*
X151369235Y-71692429D01*
X151375196Y-71716227D01*
X151378796Y-71740496D01*
X151380000Y-71765000D01*
X151380000Y-73015000D01*
X151378796Y-73039504D01*
X151375196Y-73063773D01*
X151369235Y-73087571D01*
X151360970Y-73110671D01*
X151350480Y-73132849D01*
X151337867Y-73153893D01*
X151323253Y-73173598D01*
X151306777Y-73191777D01*
X151288598Y-73208253D01*
X151268893Y-73222867D01*
X151247849Y-73235480D01*
X151225671Y-73245970D01*
X151202571Y-73254235D01*
X151178773Y-73260196D01*
X151154504Y-73263796D01*
X151130000Y-73265000D01*
X150380000Y-73265000D01*
X150355496Y-73263796D01*
X150331227Y-73260196D01*
X150307429Y-73254235D01*
X150284329Y-73245970D01*
X150262151Y-73235480D01*
X150241107Y-73222867D01*
X150221402Y-73208253D01*
X150203223Y-73191777D01*
X150186747Y-73173598D01*
X150172133Y-73153893D01*
X150159520Y-73132849D01*
X150149030Y-73110671D01*
X150140765Y-73087571D01*
X150134804Y-73063773D01*
X150131204Y-73039504D01*
X150130000Y-73015000D01*
X150130000Y-71765000D01*
X150131204Y-71740496D01*
X150134804Y-71716227D01*
X150140765Y-71692429D01*
X150149030Y-71669329D01*
X150159520Y-71647151D01*
X150172133Y-71626107D01*
X150186747Y-71606402D01*
X150203223Y-71588223D01*
X150221402Y-71571747D01*
X150241107Y-71557133D01*
X150262151Y-71544520D01*
X150284329Y-71534030D01*
X150307429Y-71525765D01*
X150331227Y-71519804D01*
X150355496Y-71516204D01*
X150380000Y-71515000D01*
X151130000Y-71515000D01*
X151154504Y-71516204D01*
G37*
G04 #@! TD.AperFunction*
G04 #@! TA.AperFunction,SMDPad,CuDef*
G36*
X122824504Y-71516204D02*
G01*
X122848773Y-71519804D01*
X122872571Y-71525765D01*
X122895671Y-71534030D01*
X122917849Y-71544520D01*
X122938893Y-71557133D01*
X122958598Y-71571747D01*
X122976777Y-71588223D01*
X122993253Y-71606402D01*
X123007867Y-71626107D01*
X123020480Y-71647151D01*
X123030970Y-71669329D01*
X123039235Y-71692429D01*
X123045196Y-71716227D01*
X123048796Y-71740496D01*
X123050000Y-71765000D01*
X123050000Y-73015000D01*
X123048796Y-73039504D01*
X123045196Y-73063773D01*
X123039235Y-73087571D01*
X123030970Y-73110671D01*
X123020480Y-73132849D01*
X123007867Y-73153893D01*
X122993253Y-73173598D01*
X122976777Y-73191777D01*
X122958598Y-73208253D01*
X122938893Y-73222867D01*
X122917849Y-73235480D01*
X122895671Y-73245970D01*
X122872571Y-73254235D01*
X122848773Y-73260196D01*
X122824504Y-73263796D01*
X122800000Y-73265000D01*
X122050000Y-73265000D01*
X122025496Y-73263796D01*
X122001227Y-73260196D01*
X121977429Y-73254235D01*
X121954329Y-73245970D01*
X121932151Y-73235480D01*
X121911107Y-73222867D01*
X121891402Y-73208253D01*
X121873223Y-73191777D01*
X121856747Y-73173598D01*
X121842133Y-73153893D01*
X121829520Y-73132849D01*
X121819030Y-73110671D01*
X121810765Y-73087571D01*
X121804804Y-73063773D01*
X121801204Y-73039504D01*
X121800000Y-73015000D01*
X121800000Y-71765000D01*
X121801204Y-71740496D01*
X121804804Y-71716227D01*
X121810765Y-71692429D01*
X121819030Y-71669329D01*
X121829520Y-71647151D01*
X121842133Y-71626107D01*
X121856747Y-71606402D01*
X121873223Y-71588223D01*
X121891402Y-71571747D01*
X121911107Y-71557133D01*
X121932151Y-71544520D01*
X121954329Y-71534030D01*
X121977429Y-71525765D01*
X122001227Y-71519804D01*
X122025496Y-71516204D01*
X122050000Y-71515000D01*
X122800000Y-71515000D01*
X122824504Y-71516204D01*
G37*
G04 #@! TD.AperFunction*
G04 #@! TA.AperFunction,SMDPad,CuDef*
G36*
X125624504Y-71516204D02*
G01*
X125648773Y-71519804D01*
X125672571Y-71525765D01*
X125695671Y-71534030D01*
X125717849Y-71544520D01*
X125738893Y-71557133D01*
X125758598Y-71571747D01*
X125776777Y-71588223D01*
X125793253Y-71606402D01*
X125807867Y-71626107D01*
X125820480Y-71647151D01*
X125830970Y-71669329D01*
X125839235Y-71692429D01*
X125845196Y-71716227D01*
X125848796Y-71740496D01*
X125850000Y-71765000D01*
X125850000Y-73015000D01*
X125848796Y-73039504D01*
X125845196Y-73063773D01*
X125839235Y-73087571D01*
X125830970Y-73110671D01*
X125820480Y-73132849D01*
X125807867Y-73153893D01*
X125793253Y-73173598D01*
X125776777Y-73191777D01*
X125758598Y-73208253D01*
X125738893Y-73222867D01*
X125717849Y-73235480D01*
X125695671Y-73245970D01*
X125672571Y-73254235D01*
X125648773Y-73260196D01*
X125624504Y-73263796D01*
X125600000Y-73265000D01*
X124850000Y-73265000D01*
X124825496Y-73263796D01*
X124801227Y-73260196D01*
X124777429Y-73254235D01*
X124754329Y-73245970D01*
X124732151Y-73235480D01*
X124711107Y-73222867D01*
X124691402Y-73208253D01*
X124673223Y-73191777D01*
X124656747Y-73173598D01*
X124642133Y-73153893D01*
X124629520Y-73132849D01*
X124619030Y-73110671D01*
X124610765Y-73087571D01*
X124604804Y-73063773D01*
X124601204Y-73039504D01*
X124600000Y-73015000D01*
X124600000Y-71765000D01*
X124601204Y-71740496D01*
X124604804Y-71716227D01*
X124610765Y-71692429D01*
X124619030Y-71669329D01*
X124629520Y-71647151D01*
X124642133Y-71626107D01*
X124656747Y-71606402D01*
X124673223Y-71588223D01*
X124691402Y-71571747D01*
X124711107Y-71557133D01*
X124732151Y-71544520D01*
X124754329Y-71534030D01*
X124777429Y-71525765D01*
X124801227Y-71519804D01*
X124825496Y-71516204D01*
X124850000Y-71515000D01*
X125600000Y-71515000D01*
X125624504Y-71516204D01*
G37*
G04 #@! TD.AperFunction*
G04 #@! TA.AperFunction,SMDPad,CuDef*
G36*
X97294504Y-71516204D02*
G01*
X97318773Y-71519804D01*
X97342571Y-71525765D01*
X97365671Y-71534030D01*
X97387849Y-71544520D01*
X97408893Y-71557133D01*
X97428598Y-71571747D01*
X97446777Y-71588223D01*
X97463253Y-71606402D01*
X97477867Y-71626107D01*
X97490480Y-71647151D01*
X97500970Y-71669329D01*
X97509235Y-71692429D01*
X97515196Y-71716227D01*
X97518796Y-71740496D01*
X97520000Y-71765000D01*
X97520000Y-73015000D01*
X97518796Y-73039504D01*
X97515196Y-73063773D01*
X97509235Y-73087571D01*
X97500970Y-73110671D01*
X97490480Y-73132849D01*
X97477867Y-73153893D01*
X97463253Y-73173598D01*
X97446777Y-73191777D01*
X97428598Y-73208253D01*
X97408893Y-73222867D01*
X97387849Y-73235480D01*
X97365671Y-73245970D01*
X97342571Y-73254235D01*
X97318773Y-73260196D01*
X97294504Y-73263796D01*
X97270000Y-73265000D01*
X96520000Y-73265000D01*
X96495496Y-73263796D01*
X96471227Y-73260196D01*
X96447429Y-73254235D01*
X96424329Y-73245970D01*
X96402151Y-73235480D01*
X96381107Y-73222867D01*
X96361402Y-73208253D01*
X96343223Y-73191777D01*
X96326747Y-73173598D01*
X96312133Y-73153893D01*
X96299520Y-73132849D01*
X96289030Y-73110671D01*
X96280765Y-73087571D01*
X96274804Y-73063773D01*
X96271204Y-73039504D01*
X96270000Y-73015000D01*
X96270000Y-71765000D01*
X96271204Y-71740496D01*
X96274804Y-71716227D01*
X96280765Y-71692429D01*
X96289030Y-71669329D01*
X96299520Y-71647151D01*
X96312133Y-71626107D01*
X96326747Y-71606402D01*
X96343223Y-71588223D01*
X96361402Y-71571747D01*
X96381107Y-71557133D01*
X96402151Y-71544520D01*
X96424329Y-71534030D01*
X96447429Y-71525765D01*
X96471227Y-71519804D01*
X96495496Y-71516204D01*
X96520000Y-71515000D01*
X97270000Y-71515000D01*
X97294504Y-71516204D01*
G37*
G04 #@! TD.AperFunction*
G04 #@! TA.AperFunction,SMDPad,CuDef*
G36*
X100094504Y-71516204D02*
G01*
X100118773Y-71519804D01*
X100142571Y-71525765D01*
X100165671Y-71534030D01*
X100187849Y-71544520D01*
X100208893Y-71557133D01*
X100228598Y-71571747D01*
X100246777Y-71588223D01*
X100263253Y-71606402D01*
X100277867Y-71626107D01*
X100290480Y-71647151D01*
X100300970Y-71669329D01*
X100309235Y-71692429D01*
X100315196Y-71716227D01*
X100318796Y-71740496D01*
X100320000Y-71765000D01*
X100320000Y-73015000D01*
X100318796Y-73039504D01*
X100315196Y-73063773D01*
X100309235Y-73087571D01*
X100300970Y-73110671D01*
X100290480Y-73132849D01*
X100277867Y-73153893D01*
X100263253Y-73173598D01*
X100246777Y-73191777D01*
X100228598Y-73208253D01*
X100208893Y-73222867D01*
X100187849Y-73235480D01*
X100165671Y-73245970D01*
X100142571Y-73254235D01*
X100118773Y-73260196D01*
X100094504Y-73263796D01*
X100070000Y-73265000D01*
X99320000Y-73265000D01*
X99295496Y-73263796D01*
X99271227Y-73260196D01*
X99247429Y-73254235D01*
X99224329Y-73245970D01*
X99202151Y-73235480D01*
X99181107Y-73222867D01*
X99161402Y-73208253D01*
X99143223Y-73191777D01*
X99126747Y-73173598D01*
X99112133Y-73153893D01*
X99099520Y-73132849D01*
X99089030Y-73110671D01*
X99080765Y-73087571D01*
X99074804Y-73063773D01*
X99071204Y-73039504D01*
X99070000Y-73015000D01*
X99070000Y-71765000D01*
X99071204Y-71740496D01*
X99074804Y-71716227D01*
X99080765Y-71692429D01*
X99089030Y-71669329D01*
X99099520Y-71647151D01*
X99112133Y-71626107D01*
X99126747Y-71606402D01*
X99143223Y-71588223D01*
X99161402Y-71571747D01*
X99181107Y-71557133D01*
X99202151Y-71544520D01*
X99224329Y-71534030D01*
X99247429Y-71525765D01*
X99271227Y-71519804D01*
X99295496Y-71516204D01*
X99320000Y-71515000D01*
X100070000Y-71515000D01*
X100094504Y-71516204D01*
G37*
G04 #@! TD.AperFunction*
G04 #@! TA.AperFunction,SMDPad,CuDef*
G36*
X71894504Y-71516204D02*
G01*
X71918773Y-71519804D01*
X71942571Y-71525765D01*
X71965671Y-71534030D01*
X71987849Y-71544520D01*
X72008893Y-71557133D01*
X72028598Y-71571747D01*
X72046777Y-71588223D01*
X72063253Y-71606402D01*
X72077867Y-71626107D01*
X72090480Y-71647151D01*
X72100970Y-71669329D01*
X72109235Y-71692429D01*
X72115196Y-71716227D01*
X72118796Y-71740496D01*
X72120000Y-71765000D01*
X72120000Y-73015000D01*
X72118796Y-73039504D01*
X72115196Y-73063773D01*
X72109235Y-73087571D01*
X72100970Y-73110671D01*
X72090480Y-73132849D01*
X72077867Y-73153893D01*
X72063253Y-73173598D01*
X72046777Y-73191777D01*
X72028598Y-73208253D01*
X72008893Y-73222867D01*
X71987849Y-73235480D01*
X71965671Y-73245970D01*
X71942571Y-73254235D01*
X71918773Y-73260196D01*
X71894504Y-73263796D01*
X71870000Y-73265000D01*
X71120000Y-73265000D01*
X71095496Y-73263796D01*
X71071227Y-73260196D01*
X71047429Y-73254235D01*
X71024329Y-73245970D01*
X71002151Y-73235480D01*
X70981107Y-73222867D01*
X70961402Y-73208253D01*
X70943223Y-73191777D01*
X70926747Y-73173598D01*
X70912133Y-73153893D01*
X70899520Y-73132849D01*
X70889030Y-73110671D01*
X70880765Y-73087571D01*
X70874804Y-73063773D01*
X70871204Y-73039504D01*
X70870000Y-73015000D01*
X70870000Y-71765000D01*
X70871204Y-71740496D01*
X70874804Y-71716227D01*
X70880765Y-71692429D01*
X70889030Y-71669329D01*
X70899520Y-71647151D01*
X70912133Y-71626107D01*
X70926747Y-71606402D01*
X70943223Y-71588223D01*
X70961402Y-71571747D01*
X70981107Y-71557133D01*
X71002151Y-71544520D01*
X71024329Y-71534030D01*
X71047429Y-71525765D01*
X71071227Y-71519804D01*
X71095496Y-71516204D01*
X71120000Y-71515000D01*
X71870000Y-71515000D01*
X71894504Y-71516204D01*
G37*
G04 #@! TD.AperFunction*
G04 #@! TA.AperFunction,SMDPad,CuDef*
G36*
X74694504Y-71516204D02*
G01*
X74718773Y-71519804D01*
X74742571Y-71525765D01*
X74765671Y-71534030D01*
X74787849Y-71544520D01*
X74808893Y-71557133D01*
X74828598Y-71571747D01*
X74846777Y-71588223D01*
X74863253Y-71606402D01*
X74877867Y-71626107D01*
X74890480Y-71647151D01*
X74900970Y-71669329D01*
X74909235Y-71692429D01*
X74915196Y-71716227D01*
X74918796Y-71740496D01*
X74920000Y-71765000D01*
X74920000Y-73015000D01*
X74918796Y-73039504D01*
X74915196Y-73063773D01*
X74909235Y-73087571D01*
X74900970Y-73110671D01*
X74890480Y-73132849D01*
X74877867Y-73153893D01*
X74863253Y-73173598D01*
X74846777Y-73191777D01*
X74828598Y-73208253D01*
X74808893Y-73222867D01*
X74787849Y-73235480D01*
X74765671Y-73245970D01*
X74742571Y-73254235D01*
X74718773Y-73260196D01*
X74694504Y-73263796D01*
X74670000Y-73265000D01*
X73920000Y-73265000D01*
X73895496Y-73263796D01*
X73871227Y-73260196D01*
X73847429Y-73254235D01*
X73824329Y-73245970D01*
X73802151Y-73235480D01*
X73781107Y-73222867D01*
X73761402Y-73208253D01*
X73743223Y-73191777D01*
X73726747Y-73173598D01*
X73712133Y-73153893D01*
X73699520Y-73132849D01*
X73689030Y-73110671D01*
X73680765Y-73087571D01*
X73674804Y-73063773D01*
X73671204Y-73039504D01*
X73670000Y-73015000D01*
X73670000Y-71765000D01*
X73671204Y-71740496D01*
X73674804Y-71716227D01*
X73680765Y-71692429D01*
X73689030Y-71669329D01*
X73699520Y-71647151D01*
X73712133Y-71626107D01*
X73726747Y-71606402D01*
X73743223Y-71588223D01*
X73761402Y-71571747D01*
X73781107Y-71557133D01*
X73802151Y-71544520D01*
X73824329Y-71534030D01*
X73847429Y-71525765D01*
X73871227Y-71519804D01*
X73895496Y-71516204D01*
X73920000Y-71515000D01*
X74670000Y-71515000D01*
X74694504Y-71516204D01*
G37*
G04 #@! TD.AperFunction*
D14*
X68205000Y-72390000D02*
X71495000Y-72390000D01*
X72390000Y-74295000D02*
X74295000Y-72390000D01*
X72390000Y-76200000D02*
X72390000Y-74295000D01*
X80775000Y-72390000D02*
X84325000Y-72390000D01*
X85090000Y-74425000D02*
X87125000Y-72390000D01*
X85090000Y-76200000D02*
X85090000Y-74425000D01*
X93475000Y-72390000D02*
X96895000Y-72390000D01*
X97790000Y-74295000D02*
X99695000Y-72390000D01*
X97790000Y-76200000D02*
X97790000Y-74295000D01*
X106175000Y-72390000D02*
X109725000Y-72390000D01*
X110490000Y-74425000D02*
X112525000Y-72390000D01*
X110490000Y-76200000D02*
X110490000Y-74425000D01*
X118875000Y-72390000D02*
X122425000Y-72390000D01*
X123190000Y-74425000D02*
X125225000Y-72390000D01*
X123190000Y-76200000D02*
X123190000Y-74425000D01*
X131575000Y-72390000D02*
X135125000Y-72390000D01*
X135890000Y-74425000D02*
X137925000Y-72390000D01*
X135890000Y-76200000D02*
X135890000Y-74425000D01*
X144275000Y-72390000D02*
X147955000Y-72390000D01*
X148590000Y-74555000D02*
X150755000Y-72390000D01*
X148590000Y-76200000D02*
X148590000Y-74555000D01*
X156975000Y-72390000D02*
X160525000Y-72390000D01*
X161290000Y-74425000D02*
X163325000Y-72390000D01*
X161290000Y-76200000D02*
X161290000Y-74425000D01*
X67310000Y-74295000D02*
X65405000Y-72390000D01*
X67310000Y-76200000D02*
X67310000Y-74295000D01*
X80010000Y-74425000D02*
X77975000Y-72390000D01*
X80010000Y-76200000D02*
X80010000Y-74425000D01*
X92710000Y-74425000D02*
X90675000Y-72390000D01*
X92710000Y-76200000D02*
X92710000Y-74425000D01*
X105410000Y-74425000D02*
X103375000Y-72390000D01*
X105410000Y-76200000D02*
X105410000Y-74425000D01*
X118110000Y-74425000D02*
X116075000Y-72390000D01*
X118110000Y-76200000D02*
X118110000Y-74425000D01*
X130810000Y-74425000D02*
X128775000Y-72390000D01*
X130810000Y-76200000D02*
X130810000Y-74425000D01*
X143510000Y-74425000D02*
X141475000Y-72390000D01*
X143510000Y-76200000D02*
X143510000Y-74425000D01*
X156210000Y-74425000D02*
X154175000Y-72390000D01*
X156210000Y-76200000D02*
X156210000Y-74425000D01*
X65405000Y-72390000D02*
X65405000Y-70485000D01*
X154175000Y-70615000D02*
X154305000Y-70485000D01*
X154175000Y-72390000D02*
X154175000Y-70615000D01*
X141475000Y-72390000D02*
X141475000Y-70615000D01*
X141475000Y-70615000D02*
X141605000Y-70485000D01*
X141605000Y-70485000D02*
X154305000Y-70485000D01*
X128775000Y-70615000D02*
X128905000Y-70485000D01*
X128775000Y-72390000D02*
X128775000Y-70615000D01*
X128905000Y-70485000D02*
X141605000Y-70485000D01*
X116075000Y-70615000D02*
X116205000Y-70485000D01*
X116075000Y-72390000D02*
X116075000Y-70615000D01*
X116205000Y-70485000D02*
X128905000Y-70485000D01*
X103375000Y-70615000D02*
X103505000Y-70485000D01*
X103375000Y-72390000D02*
X103375000Y-70615000D01*
X103505000Y-70485000D02*
X116205000Y-70485000D01*
X77975000Y-70615000D02*
X78105000Y-70485000D01*
X77975000Y-72390000D02*
X77975000Y-70615000D01*
X65405000Y-70485000D02*
X78105000Y-70485000D01*
X154305000Y-70485000D02*
X170180000Y-70485000D01*
X171450000Y-71755000D02*
X171450000Y-72895000D01*
X170180000Y-70485000D02*
X171450000Y-71755000D01*
X90675000Y-70615000D02*
X90675000Y-72390000D01*
X90805000Y-70485000D02*
X90675000Y-70615000D01*
X90805000Y-70485000D02*
X103505000Y-70485000D01*
X78105000Y-70485000D02*
X90805000Y-70485000D01*
X171450000Y-75695000D02*
X171450000Y-79245000D01*
D15*
G36*
X177140000Y-110465000D02*
G01*
X159438561Y-110465000D01*
X160417004Y-110270375D01*
X161457067Y-109839567D01*
X162393100Y-109214130D01*
X163189130Y-108418100D01*
X163814567Y-107482067D01*
X164245375Y-106442004D01*
X164368130Y-105824872D01*
X170485000Y-105824872D01*
X170485000Y-106265128D01*
X170570890Y-106696925D01*
X170739369Y-107103669D01*
X170983962Y-107469729D01*
X171295271Y-107781038D01*
X171661331Y-108025631D01*
X172068075Y-108194110D01*
X172499872Y-108280000D01*
X172940128Y-108280000D01*
X173371925Y-108194110D01*
X173778669Y-108025631D01*
X174144729Y-107781038D01*
X174456038Y-107469729D01*
X174700631Y-107103669D01*
X174869110Y-106696925D01*
X174955000Y-106265128D01*
X174955000Y-105824872D01*
X174869110Y-105393075D01*
X174700631Y-104986331D01*
X174456038Y-104620271D01*
X174144729Y-104308962D01*
X173778669Y-104064369D01*
X173371925Y-103895890D01*
X172940128Y-103810000D01*
X172499872Y-103810000D01*
X172068075Y-103895890D01*
X171661331Y-104064369D01*
X171295271Y-104308962D01*
X170983962Y-104620271D01*
X170739369Y-104986331D01*
X170570890Y-105393075D01*
X170485000Y-105824872D01*
X164368130Y-105824872D01*
X164465000Y-105337878D01*
X164465000Y-104212122D01*
X164245375Y-103107996D01*
X163814567Y-102067933D01*
X163189130Y-101131900D01*
X162393100Y-100335870D01*
X161457067Y-99710433D01*
X160417004Y-99279625D01*
X159312878Y-99060000D01*
X158187122Y-99060000D01*
X157082996Y-99279625D01*
X156042933Y-99710433D01*
X155106900Y-100335870D01*
X154310870Y-101131900D01*
X153685433Y-102067933D01*
X153254625Y-103107996D01*
X153035000Y-104212122D01*
X153035000Y-105337878D01*
X153254625Y-106442004D01*
X153685433Y-107482067D01*
X154310870Y-108418100D01*
X155106900Y-109214130D01*
X156042933Y-109839567D01*
X157082996Y-110270375D01*
X158061439Y-110465000D01*
X146738561Y-110465000D01*
X147717004Y-110270375D01*
X148757067Y-109839567D01*
X149693100Y-109214130D01*
X150489130Y-108418100D01*
X151114567Y-107482067D01*
X151545375Y-106442004D01*
X151765000Y-105337878D01*
X151765000Y-104212122D01*
X151545375Y-103107996D01*
X151114567Y-102067933D01*
X150489130Y-101131900D01*
X149693100Y-100335870D01*
X148757067Y-99710433D01*
X147717004Y-99279625D01*
X146612878Y-99060000D01*
X145487122Y-99060000D01*
X144382996Y-99279625D01*
X143342933Y-99710433D01*
X142406900Y-100335870D01*
X141610870Y-101131900D01*
X140985433Y-102067933D01*
X140554625Y-103107996D01*
X140335000Y-104212122D01*
X140335000Y-105337878D01*
X140554625Y-106442004D01*
X140985433Y-107482067D01*
X141610870Y-108418100D01*
X142406900Y-109214130D01*
X143342933Y-109839567D01*
X144382996Y-110270375D01*
X145361439Y-110465000D01*
X134038561Y-110465000D01*
X135017004Y-110270375D01*
X136057067Y-109839567D01*
X136993100Y-109214130D01*
X137789130Y-108418100D01*
X138414567Y-107482067D01*
X138845375Y-106442004D01*
X139065000Y-105337878D01*
X139065000Y-104212122D01*
X138845375Y-103107996D01*
X138414567Y-102067933D01*
X137789130Y-101131900D01*
X136993100Y-100335870D01*
X136057067Y-99710433D01*
X135017004Y-99279625D01*
X133912878Y-99060000D01*
X132787122Y-99060000D01*
X131682996Y-99279625D01*
X130642933Y-99710433D01*
X129706900Y-100335870D01*
X128910870Y-101131900D01*
X128285433Y-102067933D01*
X127854625Y-103107996D01*
X127635000Y-104212122D01*
X127635000Y-105337878D01*
X127854625Y-106442004D01*
X128285433Y-107482067D01*
X128910870Y-108418100D01*
X129706900Y-109214130D01*
X130642933Y-109839567D01*
X131682996Y-110270375D01*
X132661439Y-110465000D01*
X121338561Y-110465000D01*
X122317004Y-110270375D01*
X123357067Y-109839567D01*
X124293100Y-109214130D01*
X125089130Y-108418100D01*
X125714567Y-107482067D01*
X126145375Y-106442004D01*
X126365000Y-105337878D01*
X126365000Y-104212122D01*
X126145375Y-103107996D01*
X125714567Y-102067933D01*
X125089130Y-101131900D01*
X124293100Y-100335870D01*
X123357067Y-99710433D01*
X122317004Y-99279625D01*
X121212878Y-99060000D01*
X120087122Y-99060000D01*
X118982996Y-99279625D01*
X117942933Y-99710433D01*
X117006900Y-100335870D01*
X116210870Y-101131900D01*
X115585433Y-102067933D01*
X115154625Y-103107996D01*
X114935000Y-104212122D01*
X114935000Y-105337878D01*
X115154625Y-106442004D01*
X115585433Y-107482067D01*
X116210870Y-108418100D01*
X117006900Y-109214130D01*
X117942933Y-109839567D01*
X118982996Y-110270375D01*
X119961439Y-110465000D01*
X108638561Y-110465000D01*
X109617004Y-110270375D01*
X110657067Y-109839567D01*
X111593100Y-109214130D01*
X112389130Y-108418100D01*
X113014567Y-107482067D01*
X113445375Y-106442004D01*
X113665000Y-105337878D01*
X113665000Y-104212122D01*
X113445375Y-103107996D01*
X113014567Y-102067933D01*
X112389130Y-101131900D01*
X111593100Y-100335870D01*
X110657067Y-99710433D01*
X109617004Y-99279625D01*
X108512878Y-99060000D01*
X107387122Y-99060000D01*
X106282996Y-99279625D01*
X105242933Y-99710433D01*
X104306900Y-100335870D01*
X103510870Y-101131900D01*
X102885433Y-102067933D01*
X102454625Y-103107996D01*
X102235000Y-104212122D01*
X102235000Y-105337878D01*
X102454625Y-106442004D01*
X102885433Y-107482067D01*
X103510870Y-108418100D01*
X104306900Y-109214130D01*
X105242933Y-109839567D01*
X106282996Y-110270375D01*
X107261439Y-110465000D01*
X95938561Y-110465000D01*
X96917004Y-110270375D01*
X97957067Y-109839567D01*
X98893100Y-109214130D01*
X99689130Y-108418100D01*
X100314567Y-107482067D01*
X100745375Y-106442004D01*
X100965000Y-105337878D01*
X100965000Y-104212122D01*
X100745375Y-103107996D01*
X100314567Y-102067933D01*
X99689130Y-101131900D01*
X98893100Y-100335870D01*
X97957067Y-99710433D01*
X96917004Y-99279625D01*
X95812878Y-99060000D01*
X94687122Y-99060000D01*
X93582996Y-99279625D01*
X92542933Y-99710433D01*
X91606900Y-100335870D01*
X90810870Y-101131900D01*
X90185433Y-102067933D01*
X89754625Y-103107996D01*
X89535000Y-104212122D01*
X89535000Y-105337878D01*
X89754625Y-106442004D01*
X90185433Y-107482067D01*
X90810870Y-108418100D01*
X91606900Y-109214130D01*
X92542933Y-109839567D01*
X93582996Y-110270375D01*
X94561439Y-110465000D01*
X83238561Y-110465000D01*
X84217004Y-110270375D01*
X85257067Y-109839567D01*
X86193100Y-109214130D01*
X86989130Y-108418100D01*
X87614567Y-107482067D01*
X88045375Y-106442004D01*
X88265000Y-105337878D01*
X88265000Y-104212122D01*
X88045375Y-103107996D01*
X87614567Y-102067933D01*
X86989130Y-101131900D01*
X86193100Y-100335870D01*
X85257067Y-99710433D01*
X84217004Y-99279625D01*
X83112878Y-99060000D01*
X81987122Y-99060000D01*
X80882996Y-99279625D01*
X79842933Y-99710433D01*
X78906900Y-100335870D01*
X78110870Y-101131900D01*
X77485433Y-102067933D01*
X77054625Y-103107996D01*
X76835000Y-104212122D01*
X76835000Y-105337878D01*
X77054625Y-106442004D01*
X77485433Y-107482067D01*
X78110870Y-108418100D01*
X78906900Y-109214130D01*
X79842933Y-109839567D01*
X80882996Y-110270375D01*
X81861439Y-110465000D01*
X70538561Y-110465000D01*
X71517004Y-110270375D01*
X72557067Y-109839567D01*
X73493100Y-109214130D01*
X74289130Y-108418100D01*
X74914567Y-107482067D01*
X75345375Y-106442004D01*
X75565000Y-105337878D01*
X75565000Y-104212122D01*
X75345375Y-103107996D01*
X74914567Y-102067933D01*
X74289130Y-101131900D01*
X73493100Y-100335870D01*
X72557067Y-99710433D01*
X71517004Y-99279625D01*
X70412878Y-99060000D01*
X69287122Y-99060000D01*
X68182996Y-99279625D01*
X67142933Y-99710433D01*
X66206900Y-100335870D01*
X65410870Y-101131900D01*
X64785433Y-102067933D01*
X64354625Y-103107996D01*
X64135000Y-104212122D01*
X64135000Y-105337878D01*
X64354625Y-106442004D01*
X64785433Y-107482067D01*
X65410870Y-108418100D01*
X66206900Y-109214130D01*
X67142933Y-109839567D01*
X68182996Y-110270375D01*
X69161439Y-110465000D01*
X51460000Y-110465000D01*
X51460000Y-105824872D01*
X53645000Y-105824872D01*
X53645000Y-106265128D01*
X53730890Y-106696925D01*
X53899369Y-107103669D01*
X54143962Y-107469729D01*
X54455271Y-107781038D01*
X54821331Y-108025631D01*
X55228075Y-108194110D01*
X55659872Y-108280000D01*
X56100128Y-108280000D01*
X56531925Y-108194110D01*
X56938669Y-108025631D01*
X57304729Y-107781038D01*
X57616038Y-107469729D01*
X57860631Y-107103669D01*
X58029110Y-106696925D01*
X58115000Y-106265128D01*
X58115000Y-105824872D01*
X58029110Y-105393075D01*
X57860631Y-104986331D01*
X57616038Y-104620271D01*
X57304729Y-104308962D01*
X56938669Y-104064369D01*
X56531925Y-103895890D01*
X56100128Y-103810000D01*
X55659872Y-103810000D01*
X55228075Y-103895890D01*
X54821331Y-104064369D01*
X54455271Y-104308962D01*
X54143962Y-104620271D01*
X53899369Y-104986331D01*
X53730890Y-105393075D01*
X53645000Y-105824872D01*
X51460000Y-105824872D01*
X51460000Y-85162122D01*
X64135000Y-85162122D01*
X64135000Y-86287878D01*
X64354625Y-87392004D01*
X64785433Y-88432067D01*
X65410870Y-89368100D01*
X66206900Y-90164130D01*
X67142933Y-90789567D01*
X68182996Y-91220375D01*
X69287122Y-91440000D01*
X70412878Y-91440000D01*
X71517004Y-91220375D01*
X72557067Y-90789567D01*
X73493100Y-90164130D01*
X74289130Y-89368100D01*
X74914567Y-88432067D01*
X75345375Y-87392004D01*
X75565000Y-86287878D01*
X75565000Y-85162122D01*
X76835000Y-85162122D01*
X76835000Y-86287878D01*
X77054625Y-87392004D01*
X77485433Y-88432067D01*
X78110870Y-89368100D01*
X78906900Y-90164130D01*
X79842933Y-90789567D01*
X80882996Y-91220375D01*
X81987122Y-91440000D01*
X83112878Y-91440000D01*
X84217004Y-91220375D01*
X85257067Y-90789567D01*
X86193100Y-90164130D01*
X86989130Y-89368100D01*
X87614567Y-88432067D01*
X88045375Y-87392004D01*
X88265000Y-86287878D01*
X88265000Y-85162122D01*
X89535000Y-85162122D01*
X89535000Y-86287878D01*
X89754625Y-87392004D01*
X90185433Y-88432067D01*
X90810870Y-89368100D01*
X91606900Y-90164130D01*
X92542933Y-90789567D01*
X93582996Y-91220375D01*
X94687122Y-91440000D01*
X95812878Y-91440000D01*
X96917004Y-91220375D01*
X97957067Y-90789567D01*
X98893100Y-90164130D01*
X99689130Y-89368100D01*
X100314567Y-88432067D01*
X100745375Y-87392004D01*
X100965000Y-86287878D01*
X100965000Y-85162122D01*
X102235000Y-85162122D01*
X102235000Y-86287878D01*
X102454625Y-87392004D01*
X102885433Y-88432067D01*
X103510870Y-89368100D01*
X104306900Y-90164130D01*
X105242933Y-90789567D01*
X106282996Y-91220375D01*
X107387122Y-91440000D01*
X108512878Y-91440000D01*
X109617004Y-91220375D01*
X110657067Y-90789567D01*
X111593100Y-90164130D01*
X112389130Y-89368100D01*
X113014567Y-88432067D01*
X113445375Y-87392004D01*
X113665000Y-86287878D01*
X113665000Y-85162122D01*
X114935000Y-85162122D01*
X114935000Y-86287878D01*
X115154625Y-87392004D01*
X115585433Y-88432067D01*
X116210870Y-89368100D01*
X117006900Y-90164130D01*
X117942933Y-90789567D01*
X118982996Y-91220375D01*
X120087122Y-91440000D01*
X121212878Y-91440000D01*
X122317004Y-91220375D01*
X123357067Y-90789567D01*
X124293100Y-90164130D01*
X125089130Y-89368100D01*
X125714567Y-88432067D01*
X126145375Y-87392004D01*
X126365000Y-86287878D01*
X126365000Y-85162122D01*
X127635000Y-85162122D01*
X127635000Y-86287878D01*
X127854625Y-87392004D01*
X128285433Y-88432067D01*
X128910870Y-89368100D01*
X129706900Y-90164130D01*
X130642933Y-90789567D01*
X131682996Y-91220375D01*
X132787122Y-91440000D01*
X133912878Y-91440000D01*
X135017004Y-91220375D01*
X136057067Y-90789567D01*
X136993100Y-90164130D01*
X137789130Y-89368100D01*
X138414567Y-88432067D01*
X138845375Y-87392004D01*
X139065000Y-86287878D01*
X139065000Y-85162122D01*
X140335000Y-85162122D01*
X140335000Y-86287878D01*
X140554625Y-87392004D01*
X140985433Y-88432067D01*
X141610870Y-89368100D01*
X142406900Y-90164130D01*
X143342933Y-90789567D01*
X144382996Y-91220375D01*
X145487122Y-91440000D01*
X146612878Y-91440000D01*
X147717004Y-91220375D01*
X148757067Y-90789567D01*
X149693100Y-90164130D01*
X150489130Y-89368100D01*
X151114567Y-88432067D01*
X151545375Y-87392004D01*
X151765000Y-86287878D01*
X151765000Y-85162122D01*
X153035000Y-85162122D01*
X153035000Y-86287878D01*
X153254625Y-87392004D01*
X153685433Y-88432067D01*
X154310870Y-89368100D01*
X155106900Y-90164130D01*
X156042933Y-90789567D01*
X157082996Y-91220375D01*
X158187122Y-91440000D01*
X159312878Y-91440000D01*
X160417004Y-91220375D01*
X161457067Y-90789567D01*
X162393100Y-90164130D01*
X163189130Y-89368100D01*
X163814567Y-88432067D01*
X164245375Y-87392004D01*
X164465000Y-86287878D01*
X164465000Y-85162122D01*
X164245375Y-84057996D01*
X163814567Y-83017933D01*
X163582086Y-82670000D01*
X169936928Y-82670000D01*
X169949188Y-82794482D01*
X169985498Y-82914180D01*
X170044463Y-83024494D01*
X170123815Y-83121185D01*
X170220506Y-83200537D01*
X170330820Y-83259502D01*
X170450518Y-83295812D01*
X170575000Y-83308072D01*
X171164250Y-83305000D01*
X171323000Y-83146250D01*
X171323000Y-82172000D01*
X171577000Y-82172000D01*
X171577000Y-83146250D01*
X171735750Y-83305000D01*
X172325000Y-83308072D01*
X172449482Y-83295812D01*
X172569180Y-83259502D01*
X172679494Y-83200537D01*
X172776185Y-83121185D01*
X172855537Y-83024494D01*
X172914502Y-82914180D01*
X172950812Y-82794482D01*
X172963072Y-82670000D01*
X172960000Y-82330750D01*
X172801250Y-82172000D01*
X171577000Y-82172000D01*
X171323000Y-82172000D01*
X170098750Y-82172000D01*
X169940000Y-82330750D01*
X169936928Y-82670000D01*
X163582086Y-82670000D01*
X163189130Y-82081900D01*
X162527230Y-81420000D01*
X169936928Y-81420000D01*
X169940000Y-81759250D01*
X170098750Y-81918000D01*
X171323000Y-81918000D01*
X171323000Y-80943750D01*
X171577000Y-80943750D01*
X171577000Y-81918000D01*
X172801250Y-81918000D01*
X172960000Y-81759250D01*
X172963072Y-81420000D01*
X172950812Y-81295518D01*
X172914502Y-81175820D01*
X172855537Y-81065506D01*
X172776185Y-80968815D01*
X172679494Y-80889463D01*
X172569180Y-80830498D01*
X172449482Y-80794188D01*
X172325000Y-80781928D01*
X171735750Y-80785000D01*
X171577000Y-80943750D01*
X171323000Y-80943750D01*
X171164250Y-80785000D01*
X170575000Y-80781928D01*
X170450518Y-80794188D01*
X170330820Y-80830498D01*
X170220506Y-80889463D01*
X170123815Y-80968815D01*
X170044463Y-81065506D01*
X169985498Y-81175820D01*
X169949188Y-81295518D01*
X169936928Y-81420000D01*
X162527230Y-81420000D01*
X162393100Y-81285870D01*
X161457067Y-80660433D01*
X160417004Y-80229625D01*
X159312878Y-80010000D01*
X158187122Y-80010000D01*
X157082996Y-80229625D01*
X156042933Y-80660433D01*
X155106900Y-81285870D01*
X154310870Y-82081900D01*
X153685433Y-83017933D01*
X153254625Y-84057996D01*
X153035000Y-85162122D01*
X151765000Y-85162122D01*
X151545375Y-84057996D01*
X151114567Y-83017933D01*
X150489130Y-82081900D01*
X149693100Y-81285870D01*
X148757067Y-80660433D01*
X147717004Y-80229625D01*
X146612878Y-80010000D01*
X145487122Y-80010000D01*
X144382996Y-80229625D01*
X143342933Y-80660433D01*
X142406900Y-81285870D01*
X141610870Y-82081900D01*
X140985433Y-83017933D01*
X140554625Y-84057996D01*
X140335000Y-85162122D01*
X139065000Y-85162122D01*
X138845375Y-84057996D01*
X138414567Y-83017933D01*
X137789130Y-82081900D01*
X136993100Y-81285870D01*
X136057067Y-80660433D01*
X135017004Y-80229625D01*
X133912878Y-80010000D01*
X132787122Y-80010000D01*
X131682996Y-80229625D01*
X130642933Y-80660433D01*
X129706900Y-81285870D01*
X128910870Y-82081900D01*
X128285433Y-83017933D01*
X127854625Y-84057996D01*
X127635000Y-85162122D01*
X126365000Y-85162122D01*
X126145375Y-84057996D01*
X125714567Y-83017933D01*
X125089130Y-82081900D01*
X124293100Y-81285870D01*
X123357067Y-80660433D01*
X122317004Y-80229625D01*
X121212878Y-80010000D01*
X120087122Y-80010000D01*
X118982996Y-80229625D01*
X117942933Y-80660433D01*
X117006900Y-81285870D01*
X116210870Y-82081900D01*
X115585433Y-83017933D01*
X115154625Y-84057996D01*
X114935000Y-85162122D01*
X113665000Y-85162122D01*
X113445375Y-84057996D01*
X113014567Y-83017933D01*
X112389130Y-82081900D01*
X111593100Y-81285870D01*
X110657067Y-80660433D01*
X109617004Y-80229625D01*
X108512878Y-80010000D01*
X107387122Y-80010000D01*
X106282996Y-80229625D01*
X105242933Y-80660433D01*
X104306900Y-81285870D01*
X103510870Y-82081900D01*
X102885433Y-83017933D01*
X102454625Y-84057996D01*
X102235000Y-85162122D01*
X100965000Y-85162122D01*
X100745375Y-84057996D01*
X100314567Y-83017933D01*
X99689130Y-82081900D01*
X98893100Y-81285870D01*
X97957067Y-80660433D01*
X96917004Y-80229625D01*
X95812878Y-80010000D01*
X94687122Y-80010000D01*
X93582996Y-80229625D01*
X92542933Y-80660433D01*
X91606900Y-81285870D01*
X90810870Y-82081900D01*
X90185433Y-83017933D01*
X89754625Y-84057996D01*
X89535000Y-85162122D01*
X88265000Y-85162122D01*
X88045375Y-84057996D01*
X87614567Y-83017933D01*
X86989130Y-82081900D01*
X86193100Y-81285870D01*
X85257067Y-80660433D01*
X84217004Y-80229625D01*
X83112878Y-80010000D01*
X81987122Y-80010000D01*
X80882996Y-80229625D01*
X79842933Y-80660433D01*
X78906900Y-81285870D01*
X78110870Y-82081900D01*
X77485433Y-83017933D01*
X77054625Y-84057996D01*
X76835000Y-85162122D01*
X75565000Y-85162122D01*
X75345375Y-84057996D01*
X74914567Y-83017933D01*
X74289130Y-82081900D01*
X73493100Y-81285870D01*
X72557067Y-80660433D01*
X71517004Y-80229625D01*
X70412878Y-80010000D01*
X69287122Y-80010000D01*
X68182996Y-80229625D01*
X67142933Y-80660433D01*
X66206900Y-81285870D01*
X65410870Y-82081900D01*
X64785433Y-83017933D01*
X64354625Y-84057996D01*
X64135000Y-85162122D01*
X51460000Y-85162122D01*
X51460000Y-75350000D01*
X63281928Y-75350000D01*
X63281928Y-77050000D01*
X63294188Y-77174482D01*
X63330498Y-77294180D01*
X63389463Y-77404494D01*
X63468815Y-77501185D01*
X63565506Y-77580537D01*
X63675820Y-77639502D01*
X63795518Y-77675812D01*
X63920000Y-77688072D01*
X65620000Y-77688072D01*
X65744482Y-77675812D01*
X65864180Y-77639502D01*
X65974494Y-77580537D01*
X66071185Y-77501185D01*
X66150537Y-77404494D01*
X66209502Y-77294180D01*
X66231513Y-77221620D01*
X66363368Y-77353475D01*
X66606589Y-77515990D01*
X66876842Y-77627932D01*
X67163740Y-77685000D01*
X67456260Y-77685000D01*
X67743158Y-77627932D01*
X68013411Y-77515990D01*
X68256632Y-77353475D01*
X68463475Y-77146632D01*
X68585195Y-76964466D01*
X68654822Y-77081355D01*
X68849731Y-77297588D01*
X69083080Y-77471641D01*
X69345901Y-77596825D01*
X69493110Y-77641476D01*
X69723000Y-77520155D01*
X69723000Y-76327000D01*
X69703000Y-76327000D01*
X69703000Y-76073000D01*
X69723000Y-76073000D01*
X69723000Y-74879845D01*
X69493110Y-74758524D01*
X69345901Y-74803175D01*
X69083080Y-74928359D01*
X68849731Y-75102412D01*
X68654822Y-75318645D01*
X68585195Y-75435534D01*
X68463475Y-75253368D01*
X68326000Y-75115893D01*
X68326000Y-74344902D01*
X68330915Y-74295000D01*
X68311298Y-74095829D01*
X68253202Y-73904313D01*
X68252539Y-73903072D01*
X68580000Y-73903072D01*
X68753254Y-73886008D01*
X68919850Y-73835472D01*
X69073386Y-73753405D01*
X69207962Y-73642962D01*
X69318405Y-73508386D01*
X69373132Y-73406000D01*
X70326868Y-73406000D01*
X70381595Y-73508386D01*
X70492038Y-73642962D01*
X70626614Y-73753405D01*
X70780150Y-73835472D01*
X70946746Y-73886008D01*
X71120000Y-73903072D01*
X71447462Y-73903072D01*
X71446799Y-73904313D01*
X71388702Y-74095830D01*
X71369085Y-74295000D01*
X71374001Y-74344911D01*
X71374001Y-75115892D01*
X71236525Y-75253368D01*
X71114805Y-75435534D01*
X71045178Y-75318645D01*
X70850269Y-75102412D01*
X70616920Y-74928359D01*
X70354099Y-74803175D01*
X70206890Y-74758524D01*
X69977000Y-74879845D01*
X69977000Y-76073000D01*
X69997000Y-76073000D01*
X69997000Y-76327000D01*
X69977000Y-76327000D01*
X69977000Y-77520155D01*
X70206890Y-77641476D01*
X70354099Y-77596825D01*
X70616920Y-77471641D01*
X70850269Y-77297588D01*
X71045178Y-77081355D01*
X71114805Y-76964466D01*
X71236525Y-77146632D01*
X71443368Y-77353475D01*
X71686589Y-77515990D01*
X71956842Y-77627932D01*
X72243740Y-77685000D01*
X72536260Y-77685000D01*
X72823158Y-77627932D01*
X73093411Y-77515990D01*
X73336632Y-77353475D01*
X73543475Y-77146632D01*
X73660000Y-76972240D01*
X73776525Y-77146632D01*
X73983368Y-77353475D01*
X74226589Y-77515990D01*
X74496842Y-77627932D01*
X74783740Y-77685000D01*
X75076260Y-77685000D01*
X75363158Y-77627932D01*
X75633411Y-77515990D01*
X75876632Y-77353475D01*
X76083475Y-77146632D01*
X76200000Y-76972240D01*
X76316525Y-77146632D01*
X76523368Y-77353475D01*
X76766589Y-77515990D01*
X77036842Y-77627932D01*
X77323740Y-77685000D01*
X77616260Y-77685000D01*
X77903158Y-77627932D01*
X78173411Y-77515990D01*
X78416632Y-77353475D01*
X78623475Y-77146632D01*
X78740000Y-76972240D01*
X78856525Y-77146632D01*
X79063368Y-77353475D01*
X79306589Y-77515990D01*
X79576842Y-77627932D01*
X79863740Y-77685000D01*
X80156260Y-77685000D01*
X80443158Y-77627932D01*
X80713411Y-77515990D01*
X80956632Y-77353475D01*
X81163475Y-77146632D01*
X81285195Y-76964466D01*
X81354822Y-77081355D01*
X81549731Y-77297588D01*
X81783080Y-77471641D01*
X82045901Y-77596825D01*
X82193110Y-77641476D01*
X82423000Y-77520155D01*
X82423000Y-76327000D01*
X82403000Y-76327000D01*
X82403000Y-76073000D01*
X82423000Y-76073000D01*
X82423000Y-74879845D01*
X82193110Y-74758524D01*
X82045901Y-74803175D01*
X81783080Y-74928359D01*
X81549731Y-75102412D01*
X81354822Y-75318645D01*
X81285195Y-75435534D01*
X81163475Y-75253368D01*
X81026000Y-75115893D01*
X81026000Y-74474902D01*
X81030915Y-74425000D01*
X81011298Y-74225829D01*
X80953202Y-74034313D01*
X80883053Y-73903072D01*
X81150000Y-73903072D01*
X81323254Y-73886008D01*
X81489850Y-73835472D01*
X81643386Y-73753405D01*
X81777962Y-73642962D01*
X81888405Y-73508386D01*
X81943132Y-73406000D01*
X83156868Y-73406000D01*
X83211595Y-73508386D01*
X83322038Y-73642962D01*
X83456614Y-73753405D01*
X83610150Y-73835472D01*
X83776746Y-73886008D01*
X83950000Y-73903072D01*
X84216948Y-73903072D01*
X84216285Y-73904313D01*
X84146799Y-74034313D01*
X84088702Y-74225830D01*
X84069085Y-74425000D01*
X84074001Y-74474911D01*
X84074001Y-75115892D01*
X83936525Y-75253368D01*
X83814805Y-75435534D01*
X83745178Y-75318645D01*
X83550269Y-75102412D01*
X83316920Y-74928359D01*
X83054099Y-74803175D01*
X82906890Y-74758524D01*
X82677000Y-74879845D01*
X82677000Y-76073000D01*
X82697000Y-76073000D01*
X82697000Y-76327000D01*
X82677000Y-76327000D01*
X82677000Y-77520155D01*
X82906890Y-77641476D01*
X83054099Y-77596825D01*
X83316920Y-77471641D01*
X83550269Y-77297588D01*
X83745178Y-77081355D01*
X83814805Y-76964466D01*
X83936525Y-77146632D01*
X84143368Y-77353475D01*
X84386589Y-77515990D01*
X84656842Y-77627932D01*
X84943740Y-77685000D01*
X85236260Y-77685000D01*
X85523158Y-77627932D01*
X85793411Y-77515990D01*
X86036632Y-77353475D01*
X86243475Y-77146632D01*
X86360000Y-76972240D01*
X86476525Y-77146632D01*
X86683368Y-77353475D01*
X86926589Y-77515990D01*
X87196842Y-77627932D01*
X87483740Y-77685000D01*
X87776260Y-77685000D01*
X88063158Y-77627932D01*
X88333411Y-77515990D01*
X88576632Y-77353475D01*
X88783475Y-77146632D01*
X88900000Y-76972240D01*
X89016525Y-77146632D01*
X89223368Y-77353475D01*
X89466589Y-77515990D01*
X89736842Y-77627932D01*
X90023740Y-77685000D01*
X90316260Y-77685000D01*
X90603158Y-77627932D01*
X90873411Y-77515990D01*
X91116632Y-77353475D01*
X91323475Y-77146632D01*
X91440000Y-76972240D01*
X91556525Y-77146632D01*
X91763368Y-77353475D01*
X92006589Y-77515990D01*
X92276842Y-77627932D01*
X92563740Y-77685000D01*
X92856260Y-77685000D01*
X93143158Y-77627932D01*
X93413411Y-77515990D01*
X93656632Y-77353475D01*
X93863475Y-77146632D01*
X93985195Y-76964466D01*
X94054822Y-77081355D01*
X94249731Y-77297588D01*
X94483080Y-77471641D01*
X94745901Y-77596825D01*
X94893110Y-77641476D01*
X95123000Y-77520155D01*
X95123000Y-76327000D01*
X95103000Y-76327000D01*
X95103000Y-76073000D01*
X95123000Y-76073000D01*
X95123000Y-74879845D01*
X94893110Y-74758524D01*
X94745901Y-74803175D01*
X94483080Y-74928359D01*
X94249731Y-75102412D01*
X94054822Y-75318645D01*
X93985195Y-75435534D01*
X93863475Y-75253368D01*
X93726000Y-75115893D01*
X93726000Y-74474902D01*
X93730915Y-74425000D01*
X93711298Y-74225829D01*
X93653202Y-74034313D01*
X93583053Y-73903072D01*
X93850000Y-73903072D01*
X94023254Y-73886008D01*
X94189850Y-73835472D01*
X94343386Y-73753405D01*
X94477962Y-73642962D01*
X94588405Y-73508386D01*
X94643132Y-73406000D01*
X95726868Y-73406000D01*
X95781595Y-73508386D01*
X95892038Y-73642962D01*
X96026614Y-73753405D01*
X96180150Y-73835472D01*
X96346746Y-73886008D01*
X96520000Y-73903072D01*
X96847462Y-73903072D01*
X96846799Y-73904313D01*
X96788702Y-74095830D01*
X96769085Y-74295000D01*
X96774001Y-74344911D01*
X96774001Y-75115892D01*
X96636525Y-75253368D01*
X96514805Y-75435534D01*
X96445178Y-75318645D01*
X96250269Y-75102412D01*
X96016920Y-74928359D01*
X95754099Y-74803175D01*
X95606890Y-74758524D01*
X95377000Y-74879845D01*
X95377000Y-76073000D01*
X95397000Y-76073000D01*
X95397000Y-76327000D01*
X95377000Y-76327000D01*
X95377000Y-77520155D01*
X95606890Y-77641476D01*
X95754099Y-77596825D01*
X96016920Y-77471641D01*
X96250269Y-77297588D01*
X96445178Y-77081355D01*
X96514805Y-76964466D01*
X96636525Y-77146632D01*
X96843368Y-77353475D01*
X97086589Y-77515990D01*
X97356842Y-77627932D01*
X97643740Y-77685000D01*
X97936260Y-77685000D01*
X98223158Y-77627932D01*
X98493411Y-77515990D01*
X98736632Y-77353475D01*
X98943475Y-77146632D01*
X99060000Y-76972240D01*
X99176525Y-77146632D01*
X99383368Y-77353475D01*
X99626589Y-77515990D01*
X99896842Y-77627932D01*
X100183740Y-77685000D01*
X100476260Y-77685000D01*
X100763158Y-77627932D01*
X101033411Y-77515990D01*
X101276632Y-77353475D01*
X101483475Y-77146632D01*
X101600000Y-76972240D01*
X101716525Y-77146632D01*
X101923368Y-77353475D01*
X102166589Y-77515990D01*
X102436842Y-77627932D01*
X102723740Y-77685000D01*
X103016260Y-77685000D01*
X103303158Y-77627932D01*
X103573411Y-77515990D01*
X103816632Y-77353475D01*
X104023475Y-77146632D01*
X104140000Y-76972240D01*
X104256525Y-77146632D01*
X104463368Y-77353475D01*
X104706589Y-77515990D01*
X104976842Y-77627932D01*
X105263740Y-77685000D01*
X105556260Y-77685000D01*
X105843158Y-77627932D01*
X106113411Y-77515990D01*
X106356632Y-77353475D01*
X106563475Y-77146632D01*
X106685195Y-76964466D01*
X106754822Y-77081355D01*
X106949731Y-77297588D01*
X107183080Y-77471641D01*
X107445901Y-77596825D01*
X107593110Y-77641476D01*
X107823000Y-77520155D01*
X107823000Y-76327000D01*
X107803000Y-76327000D01*
X107803000Y-76073000D01*
X107823000Y-76073000D01*
X107823000Y-74879845D01*
X107593110Y-74758524D01*
X107445901Y-74803175D01*
X107183080Y-74928359D01*
X106949731Y-75102412D01*
X106754822Y-75318645D01*
X106685195Y-75435534D01*
X106563475Y-75253368D01*
X106426000Y-75115893D01*
X106426000Y-74474902D01*
X106430915Y-74425000D01*
X106411298Y-74225829D01*
X106353202Y-74034313D01*
X106283053Y-73903072D01*
X106550000Y-73903072D01*
X106723254Y-73886008D01*
X106889850Y-73835472D01*
X107043386Y-73753405D01*
X107177962Y-73642962D01*
X107288405Y-73508386D01*
X107343132Y-73406000D01*
X108556868Y-73406000D01*
X108611595Y-73508386D01*
X108722038Y-73642962D01*
X108856614Y-73753405D01*
X109010150Y-73835472D01*
X109176746Y-73886008D01*
X109350000Y-73903072D01*
X109616948Y-73903072D01*
X109616285Y-73904313D01*
X109546799Y-74034313D01*
X109488702Y-74225830D01*
X109469085Y-74425000D01*
X109474001Y-74474911D01*
X109474001Y-75115892D01*
X109336525Y-75253368D01*
X109214805Y-75435534D01*
X109145178Y-75318645D01*
X108950269Y-75102412D01*
X108716920Y-74928359D01*
X108454099Y-74803175D01*
X108306890Y-74758524D01*
X108077000Y-74879845D01*
X108077000Y-76073000D01*
X108097000Y-76073000D01*
X108097000Y-76327000D01*
X108077000Y-76327000D01*
X108077000Y-77520155D01*
X108306890Y-77641476D01*
X108454099Y-77596825D01*
X108716920Y-77471641D01*
X108950269Y-77297588D01*
X109145178Y-77081355D01*
X109214805Y-76964466D01*
X109336525Y-77146632D01*
X109543368Y-77353475D01*
X109786589Y-77515990D01*
X110056842Y-77627932D01*
X110343740Y-77685000D01*
X110636260Y-77685000D01*
X110923158Y-77627932D01*
X111193411Y-77515990D01*
X111436632Y-77353475D01*
X111643475Y-77146632D01*
X111760000Y-76972240D01*
X111876525Y-77146632D01*
X112083368Y-77353475D01*
X112326589Y-77515990D01*
X112596842Y-77627932D01*
X112883740Y-77685000D01*
X113176260Y-77685000D01*
X113463158Y-77627932D01*
X113733411Y-77515990D01*
X113976632Y-77353475D01*
X114183475Y-77146632D01*
X114300000Y-76972240D01*
X114416525Y-77146632D01*
X114623368Y-77353475D01*
X114866589Y-77515990D01*
X115136842Y-77627932D01*
X115423740Y-77685000D01*
X115716260Y-77685000D01*
X116003158Y-77627932D01*
X116273411Y-77515990D01*
X116516632Y-77353475D01*
X116723475Y-77146632D01*
X116840000Y-76972240D01*
X116956525Y-77146632D01*
X117163368Y-77353475D01*
X117406589Y-77515990D01*
X117676842Y-77627932D01*
X117963740Y-77685000D01*
X118256260Y-77685000D01*
X118543158Y-77627932D01*
X118813411Y-77515990D01*
X119056632Y-77353475D01*
X119263475Y-77146632D01*
X119385195Y-76964466D01*
X119454822Y-77081355D01*
X119649731Y-77297588D01*
X119883080Y-77471641D01*
X120145901Y-77596825D01*
X120293110Y-77641476D01*
X120523000Y-77520155D01*
X120523000Y-76327000D01*
X120503000Y-76327000D01*
X120503000Y-76073000D01*
X120523000Y-76073000D01*
X120523000Y-74879845D01*
X120293110Y-74758524D01*
X120145901Y-74803175D01*
X119883080Y-74928359D01*
X119649731Y-75102412D01*
X119454822Y-75318645D01*
X119385195Y-75435534D01*
X119263475Y-75253368D01*
X119126000Y-75115893D01*
X119126000Y-74474902D01*
X119130915Y-74425000D01*
X119111298Y-74225829D01*
X119053202Y-74034313D01*
X118983053Y-73903072D01*
X119250000Y-73903072D01*
X119423254Y-73886008D01*
X119589850Y-73835472D01*
X119743386Y-73753405D01*
X119877962Y-73642962D01*
X119988405Y-73508386D01*
X120043132Y-73406000D01*
X121256868Y-73406000D01*
X121311595Y-73508386D01*
X121422038Y-73642962D01*
X121556614Y-73753405D01*
X121710150Y-73835472D01*
X121876746Y-73886008D01*
X122050000Y-73903072D01*
X122316948Y-73903072D01*
X122316285Y-73904313D01*
X122246799Y-74034313D01*
X122188702Y-74225830D01*
X122169085Y-74425000D01*
X122174001Y-74474911D01*
X122174001Y-75115892D01*
X122036525Y-75253368D01*
X121914805Y-75435534D01*
X121845178Y-75318645D01*
X121650269Y-75102412D01*
X121416920Y-74928359D01*
X121154099Y-74803175D01*
X121006890Y-74758524D01*
X120777000Y-74879845D01*
X120777000Y-76073000D01*
X120797000Y-76073000D01*
X120797000Y-76327000D01*
X120777000Y-76327000D01*
X120777000Y-77520155D01*
X121006890Y-77641476D01*
X121154099Y-77596825D01*
X121416920Y-77471641D01*
X121650269Y-77297588D01*
X121845178Y-77081355D01*
X121914805Y-76964466D01*
X122036525Y-77146632D01*
X122243368Y-77353475D01*
X122486589Y-77515990D01*
X122756842Y-77627932D01*
X123043740Y-77685000D01*
X123336260Y-77685000D01*
X123623158Y-77627932D01*
X123893411Y-77515990D01*
X124136632Y-77353475D01*
X124343475Y-77146632D01*
X124460000Y-76972240D01*
X124576525Y-77146632D01*
X124783368Y-77353475D01*
X125026589Y-77515990D01*
X125296842Y-77627932D01*
X125583740Y-77685000D01*
X125876260Y-77685000D01*
X126163158Y-77627932D01*
X126433411Y-77515990D01*
X126676632Y-77353475D01*
X126883475Y-77146632D01*
X127000000Y-76972240D01*
X127116525Y-77146632D01*
X127323368Y-77353475D01*
X127566589Y-77515990D01*
X127836842Y-77627932D01*
X128123740Y-77685000D01*
X128416260Y-77685000D01*
X128703158Y-77627932D01*
X128973411Y-77515990D01*
X129216632Y-77353475D01*
X129423475Y-77146632D01*
X129540000Y-76972240D01*
X129656525Y-77146632D01*
X129863368Y-77353475D01*
X130106589Y-77515990D01*
X130376842Y-77627932D01*
X130663740Y-77685000D01*
X130956260Y-77685000D01*
X131243158Y-77627932D01*
X131513411Y-77515990D01*
X131756632Y-77353475D01*
X131963475Y-77146632D01*
X132085195Y-76964466D01*
X132154822Y-77081355D01*
X132349731Y-77297588D01*
X132583080Y-77471641D01*
X132845901Y-77596825D01*
X132993110Y-77641476D01*
X133223000Y-77520155D01*
X133223000Y-76327000D01*
X133203000Y-76327000D01*
X133203000Y-76073000D01*
X133223000Y-76073000D01*
X133223000Y-74879845D01*
X132993110Y-74758524D01*
X132845901Y-74803175D01*
X132583080Y-74928359D01*
X132349731Y-75102412D01*
X132154822Y-75318645D01*
X132085195Y-75435534D01*
X131963475Y-75253368D01*
X131826000Y-75115893D01*
X131826000Y-74474902D01*
X131830915Y-74425000D01*
X131811298Y-74225829D01*
X131753202Y-74034313D01*
X131683053Y-73903072D01*
X131950000Y-73903072D01*
X132123254Y-73886008D01*
X132289850Y-73835472D01*
X132443386Y-73753405D01*
X132577962Y-73642962D01*
X132688405Y-73508386D01*
X132743132Y-73406000D01*
X133956868Y-73406000D01*
X134011595Y-73508386D01*
X134122038Y-73642962D01*
X134256614Y-73753405D01*
X134410150Y-73835472D01*
X134576746Y-73886008D01*
X134750000Y-73903072D01*
X135016948Y-73903072D01*
X135016285Y-73904313D01*
X134946799Y-74034313D01*
X134888702Y-74225830D01*
X134869085Y-74425000D01*
X134874001Y-74474911D01*
X134874001Y-75115892D01*
X134736525Y-75253368D01*
X134614805Y-75435534D01*
X134545178Y-75318645D01*
X134350269Y-75102412D01*
X134116920Y-74928359D01*
X133854099Y-74803175D01*
X133706890Y-74758524D01*
X133477000Y-74879845D01*
X133477000Y-76073000D01*
X133497000Y-76073000D01*
X133497000Y-76327000D01*
X133477000Y-76327000D01*
X133477000Y-77520155D01*
X133706890Y-77641476D01*
X133854099Y-77596825D01*
X134116920Y-77471641D01*
X134350269Y-77297588D01*
X134545178Y-77081355D01*
X134614805Y-76964466D01*
X134736525Y-77146632D01*
X134943368Y-77353475D01*
X135186589Y-77515990D01*
X135456842Y-77627932D01*
X135743740Y-77685000D01*
X136036260Y-77685000D01*
X136323158Y-77627932D01*
X136593411Y-77515990D01*
X136836632Y-77353475D01*
X137043475Y-77146632D01*
X137160000Y-76972240D01*
X137276525Y-77146632D01*
X137483368Y-77353475D01*
X137726589Y-77515990D01*
X137996842Y-77627932D01*
X138283740Y-77685000D01*
X138576260Y-77685000D01*
X138863158Y-77627932D01*
X139133411Y-77515990D01*
X139376632Y-77353475D01*
X139583475Y-77146632D01*
X139700000Y-76972240D01*
X139816525Y-77146632D01*
X140023368Y-77353475D01*
X140266589Y-77515990D01*
X140536842Y-77627932D01*
X140823740Y-77685000D01*
X141116260Y-77685000D01*
X141403158Y-77627932D01*
X141673411Y-77515990D01*
X141916632Y-77353475D01*
X142123475Y-77146632D01*
X142240000Y-76972240D01*
X142356525Y-77146632D01*
X142563368Y-77353475D01*
X142806589Y-77515990D01*
X143076842Y-77627932D01*
X143363740Y-77685000D01*
X143656260Y-77685000D01*
X143943158Y-77627932D01*
X144213411Y-77515990D01*
X144456632Y-77353475D01*
X144663475Y-77146632D01*
X144785195Y-76964466D01*
X144854822Y-77081355D01*
X145049731Y-77297588D01*
X145283080Y-77471641D01*
X145545901Y-77596825D01*
X145693110Y-77641476D01*
X145923000Y-77520155D01*
X145923000Y-76327000D01*
X145903000Y-76327000D01*
X145903000Y-76073000D01*
X145923000Y-76073000D01*
X145923000Y-74879845D01*
X145693110Y-74758524D01*
X145545901Y-74803175D01*
X145283080Y-74928359D01*
X145049731Y-75102412D01*
X144854822Y-75318645D01*
X144785195Y-75435534D01*
X144663475Y-75253368D01*
X144526000Y-75115893D01*
X144526000Y-74474902D01*
X144530915Y-74425000D01*
X144511298Y-74225829D01*
X144453202Y-74034313D01*
X144383053Y-73903072D01*
X144650000Y-73903072D01*
X144823254Y-73886008D01*
X144989850Y-73835472D01*
X145143386Y-73753405D01*
X145277962Y-73642962D01*
X145388405Y-73508386D01*
X145443132Y-73406000D01*
X146786868Y-73406000D01*
X146841595Y-73508386D01*
X146952038Y-73642962D01*
X147086614Y-73753405D01*
X147240150Y-73835472D01*
X147406746Y-73886008D01*
X147580000Y-73903072D01*
X147810684Y-73903072D01*
X147741141Y-73987810D01*
X147683404Y-74095829D01*
X147646799Y-74164313D01*
X147588702Y-74355830D01*
X147569085Y-74555000D01*
X147574001Y-74604911D01*
X147574001Y-75115892D01*
X147436525Y-75253368D01*
X147314805Y-75435534D01*
X147245178Y-75318645D01*
X147050269Y-75102412D01*
X146816920Y-74928359D01*
X146554099Y-74803175D01*
X146406890Y-74758524D01*
X146177000Y-74879845D01*
X146177000Y-76073000D01*
X146197000Y-76073000D01*
X146197000Y-76327000D01*
X146177000Y-76327000D01*
X146177000Y-77520155D01*
X146406890Y-77641476D01*
X146554099Y-77596825D01*
X146816920Y-77471641D01*
X147050269Y-77297588D01*
X147245178Y-77081355D01*
X147314805Y-76964466D01*
X147436525Y-77146632D01*
X147643368Y-77353475D01*
X147886589Y-77515990D01*
X148156842Y-77627932D01*
X148443740Y-77685000D01*
X148736260Y-77685000D01*
X149023158Y-77627932D01*
X149293411Y-77515990D01*
X149536632Y-77353475D01*
X149743475Y-77146632D01*
X149860000Y-76972240D01*
X149976525Y-77146632D01*
X150183368Y-77353475D01*
X150426589Y-77515990D01*
X150696842Y-77627932D01*
X150983740Y-77685000D01*
X151276260Y-77685000D01*
X151563158Y-77627932D01*
X151833411Y-77515990D01*
X152076632Y-77353475D01*
X152283475Y-77146632D01*
X152400000Y-76972240D01*
X152516525Y-77146632D01*
X152723368Y-77353475D01*
X152966589Y-77515990D01*
X153236842Y-77627932D01*
X153523740Y-77685000D01*
X153816260Y-77685000D01*
X154103158Y-77627932D01*
X154373411Y-77515990D01*
X154616632Y-77353475D01*
X154823475Y-77146632D01*
X154940000Y-76972240D01*
X155056525Y-77146632D01*
X155263368Y-77353475D01*
X155506589Y-77515990D01*
X155776842Y-77627932D01*
X156063740Y-77685000D01*
X156356260Y-77685000D01*
X156643158Y-77627932D01*
X156913411Y-77515990D01*
X157156632Y-77353475D01*
X157363475Y-77146632D01*
X157485195Y-76964466D01*
X157554822Y-77081355D01*
X157749731Y-77297588D01*
X157983080Y-77471641D01*
X158245901Y-77596825D01*
X158393110Y-77641476D01*
X158623000Y-77520155D01*
X158623000Y-76327000D01*
X158603000Y-76327000D01*
X158603000Y-76073000D01*
X158623000Y-76073000D01*
X158623000Y-74879845D01*
X158393110Y-74758524D01*
X158245901Y-74803175D01*
X157983080Y-74928359D01*
X157749731Y-75102412D01*
X157554822Y-75318645D01*
X157485195Y-75435534D01*
X157363475Y-75253368D01*
X157226000Y-75115893D01*
X157226000Y-74474902D01*
X157230915Y-74425000D01*
X157211298Y-74225829D01*
X157153202Y-74034313D01*
X157083053Y-73903072D01*
X157350000Y-73903072D01*
X157523254Y-73886008D01*
X157689850Y-73835472D01*
X157843386Y-73753405D01*
X157977962Y-73642962D01*
X158088405Y-73508386D01*
X158143132Y-73406000D01*
X159356868Y-73406000D01*
X159411595Y-73508386D01*
X159522038Y-73642962D01*
X159656614Y-73753405D01*
X159810150Y-73835472D01*
X159976746Y-73886008D01*
X160150000Y-73903072D01*
X160416948Y-73903072D01*
X160416285Y-73904313D01*
X160346799Y-74034313D01*
X160288702Y-74225830D01*
X160269085Y-74425000D01*
X160274001Y-74474911D01*
X160274001Y-75115892D01*
X160136525Y-75253368D01*
X160014805Y-75435534D01*
X159945178Y-75318645D01*
X159750269Y-75102412D01*
X159516920Y-74928359D01*
X159254099Y-74803175D01*
X159106890Y-74758524D01*
X158877000Y-74879845D01*
X158877000Y-76073000D01*
X158897000Y-76073000D01*
X158897000Y-76327000D01*
X158877000Y-76327000D01*
X158877000Y-77520155D01*
X159106890Y-77641476D01*
X159254099Y-77596825D01*
X159516920Y-77471641D01*
X159750269Y-77297588D01*
X159945178Y-77081355D01*
X160014805Y-76964466D01*
X160136525Y-77146632D01*
X160343368Y-77353475D01*
X160586589Y-77515990D01*
X160856842Y-77627932D01*
X161143740Y-77685000D01*
X161436260Y-77685000D01*
X161723158Y-77627932D01*
X161993411Y-77515990D01*
X162236632Y-77353475D01*
X162443475Y-77146632D01*
X162560000Y-76972240D01*
X162676525Y-77146632D01*
X162883368Y-77353475D01*
X163126589Y-77515990D01*
X163396842Y-77627932D01*
X163683740Y-77685000D01*
X163976260Y-77685000D01*
X164263158Y-77627932D01*
X164533411Y-77515990D01*
X164776632Y-77353475D01*
X164983475Y-77146632D01*
X165145990Y-76903411D01*
X165257932Y-76633158D01*
X165315000Y-76346260D01*
X165315000Y-76053740D01*
X165257932Y-75766842D01*
X165145990Y-75496589D01*
X165027998Y-75320000D01*
X169936928Y-75320000D01*
X169936928Y-76070000D01*
X169953992Y-76243254D01*
X170004528Y-76409850D01*
X170086595Y-76563386D01*
X170197038Y-76697962D01*
X170331614Y-76808405D01*
X170434000Y-76863132D01*
X170434001Y-78076868D01*
X170331614Y-78131595D01*
X170197038Y-78242038D01*
X170086595Y-78376614D01*
X170004528Y-78530150D01*
X169953992Y-78696746D01*
X169936928Y-78870000D01*
X169936928Y-79620000D01*
X169953992Y-79793254D01*
X170004528Y-79959850D01*
X170086595Y-80113386D01*
X170197038Y-80247962D01*
X170331614Y-80358405D01*
X170485150Y-80440472D01*
X170651746Y-80491008D01*
X170825000Y-80508072D01*
X172075000Y-80508072D01*
X172248254Y-80491008D01*
X172414850Y-80440472D01*
X172568386Y-80358405D01*
X172702962Y-80247962D01*
X172813405Y-80113386D01*
X172895472Y-79959850D01*
X172946008Y-79793254D01*
X172963072Y-79620000D01*
X172963072Y-78870000D01*
X172946008Y-78696746D01*
X172895472Y-78530150D01*
X172813405Y-78376614D01*
X172702962Y-78242038D01*
X172568386Y-78131595D01*
X172466000Y-78076868D01*
X172466000Y-76863132D01*
X172568386Y-76808405D01*
X172702962Y-76697962D01*
X172813405Y-76563386D01*
X172895472Y-76409850D01*
X172946008Y-76243254D01*
X172963072Y-76070000D01*
X172963072Y-75320000D01*
X172946008Y-75146746D01*
X172895472Y-74980150D01*
X172813405Y-74826614D01*
X172702962Y-74692038D01*
X172568386Y-74581595D01*
X172414850Y-74499528D01*
X172248254Y-74448992D01*
X172075000Y-74431928D01*
X170825000Y-74431928D01*
X170651746Y-74448992D01*
X170485150Y-74499528D01*
X170331614Y-74581595D01*
X170197038Y-74692038D01*
X170086595Y-74826614D01*
X170004528Y-74980150D01*
X169953992Y-75146746D01*
X169936928Y-75320000D01*
X165027998Y-75320000D01*
X164983475Y-75253368D01*
X164776632Y-75046525D01*
X164533411Y-74884010D01*
X164263158Y-74772068D01*
X163976260Y-74715000D01*
X163683740Y-74715000D01*
X163396842Y-74772068D01*
X163126589Y-74884010D01*
X162883368Y-75046525D01*
X162676525Y-75253368D01*
X162560000Y-75427760D01*
X162443475Y-75253368D01*
X162306000Y-75115893D01*
X162306000Y-74845840D01*
X163248769Y-73903072D01*
X163700000Y-73903072D01*
X163873254Y-73886008D01*
X164039850Y-73835472D01*
X164193386Y-73753405D01*
X164327962Y-73642962D01*
X164438405Y-73508386D01*
X164520472Y-73354850D01*
X164571008Y-73188254D01*
X164588072Y-73015000D01*
X164588072Y-71765000D01*
X164571008Y-71591746D01*
X164543481Y-71501000D01*
X169759160Y-71501000D01*
X170175924Y-71917765D01*
X170086595Y-72026614D01*
X170004528Y-72180150D01*
X169953992Y-72346746D01*
X169936928Y-72520000D01*
X169936928Y-73270000D01*
X169953992Y-73443254D01*
X170004528Y-73609850D01*
X170086595Y-73763386D01*
X170197038Y-73897962D01*
X170331614Y-74008405D01*
X170485150Y-74090472D01*
X170651746Y-74141008D01*
X170825000Y-74158072D01*
X172075000Y-74158072D01*
X172248254Y-74141008D01*
X172414850Y-74090472D01*
X172568386Y-74008405D01*
X172702962Y-73897962D01*
X172813405Y-73763386D01*
X172895472Y-73609850D01*
X172946008Y-73443254D01*
X172963072Y-73270000D01*
X172963072Y-72520000D01*
X172946008Y-72346746D01*
X172895472Y-72180150D01*
X172813405Y-72026614D01*
X172702962Y-71892038D01*
X172568386Y-71781595D01*
X172468263Y-71728078D01*
X172466000Y-71705105D01*
X172466000Y-71705098D01*
X172451298Y-71555829D01*
X172393202Y-71364313D01*
X172298860Y-71187810D01*
X172171896Y-71033104D01*
X172133133Y-71001292D01*
X170933712Y-69801872D01*
X170901896Y-69763104D01*
X170747190Y-69636140D01*
X170570687Y-69541798D01*
X170379171Y-69483702D01*
X170229902Y-69469000D01*
X170180000Y-69464085D01*
X170130098Y-69469000D01*
X154354902Y-69469000D01*
X154305000Y-69464085D01*
X154255098Y-69469000D01*
X141654902Y-69469000D01*
X141605000Y-69464085D01*
X141555098Y-69469000D01*
X128954902Y-69469000D01*
X128905000Y-69464085D01*
X128855098Y-69469000D01*
X116254902Y-69469000D01*
X116205000Y-69464085D01*
X116155098Y-69469000D01*
X103554902Y-69469000D01*
X103505000Y-69464085D01*
X103455098Y-69469000D01*
X90854902Y-69469000D01*
X90805000Y-69464085D01*
X90755098Y-69469000D01*
X78154902Y-69469000D01*
X78105000Y-69464085D01*
X78055098Y-69469000D01*
X65454902Y-69469000D01*
X65405000Y-69464085D01*
X65355098Y-69469000D01*
X65205829Y-69483702D01*
X65014313Y-69541798D01*
X64837810Y-69636140D01*
X64683104Y-69763104D01*
X64556140Y-69917810D01*
X64461798Y-70094313D01*
X64403702Y-70285829D01*
X64384085Y-70485000D01*
X64389001Y-70534912D01*
X64389001Y-71152924D01*
X64291595Y-71271614D01*
X64209528Y-71425150D01*
X64158992Y-71591746D01*
X64141928Y-71765000D01*
X64141928Y-73015000D01*
X64158992Y-73188254D01*
X64209528Y-73354850D01*
X64291595Y-73508386D01*
X64402038Y-73642962D01*
X64536614Y-73753405D01*
X64690150Y-73835472D01*
X64856746Y-73886008D01*
X65030000Y-73903072D01*
X65481232Y-73903072D01*
X66294001Y-74715842D01*
X66294001Y-75115892D01*
X66231513Y-75178380D01*
X66209502Y-75105820D01*
X66150537Y-74995506D01*
X66071185Y-74898815D01*
X65974494Y-74819463D01*
X65864180Y-74760498D01*
X65744482Y-74724188D01*
X65620000Y-74711928D01*
X63920000Y-74711928D01*
X63795518Y-74724188D01*
X63675820Y-74760498D01*
X63565506Y-74819463D01*
X63468815Y-74898815D01*
X63389463Y-74995506D01*
X63330498Y-75105820D01*
X63294188Y-75225518D01*
X63281928Y-75350000D01*
X51460000Y-75350000D01*
X51460000Y-64454385D01*
X61565505Y-64454385D01*
X61565505Y-65085615D01*
X61688652Y-65704717D01*
X61930214Y-66287897D01*
X62280906Y-66812746D01*
X62727254Y-67259094D01*
X63252103Y-67609786D01*
X63835283Y-67851348D01*
X64454385Y-67974495D01*
X65085615Y-67974495D01*
X65704717Y-67851348D01*
X66287897Y-67609786D01*
X66812746Y-67259094D01*
X67259094Y-66812746D01*
X67609786Y-66287897D01*
X67851348Y-65704717D01*
X67974495Y-65085615D01*
X67974495Y-64454385D01*
X74265505Y-64454385D01*
X74265505Y-65085615D01*
X74388652Y-65704717D01*
X74630214Y-66287897D01*
X74980906Y-66812746D01*
X75427254Y-67259094D01*
X75952103Y-67609786D01*
X76535283Y-67851348D01*
X77154385Y-67974495D01*
X77785615Y-67974495D01*
X78404717Y-67851348D01*
X78987897Y-67609786D01*
X79512746Y-67259094D01*
X79959094Y-66812746D01*
X80309786Y-66287897D01*
X80551348Y-65704717D01*
X80674495Y-65085615D01*
X80674495Y-64454385D01*
X86965505Y-64454385D01*
X86965505Y-65085615D01*
X87088652Y-65704717D01*
X87330214Y-66287897D01*
X87680906Y-66812746D01*
X88127254Y-67259094D01*
X88652103Y-67609786D01*
X89235283Y-67851348D01*
X89854385Y-67974495D01*
X90485615Y-67974495D01*
X91104717Y-67851348D01*
X91687897Y-67609786D01*
X92212746Y-67259094D01*
X92659094Y-66812746D01*
X93009786Y-66287897D01*
X93251348Y-65704717D01*
X93374495Y-65085615D01*
X93374495Y-64454385D01*
X99665505Y-64454385D01*
X99665505Y-65085615D01*
X99788652Y-65704717D01*
X100030214Y-66287897D01*
X100380906Y-66812746D01*
X100827254Y-67259094D01*
X101352103Y-67609786D01*
X101935283Y-67851348D01*
X102554385Y-67974495D01*
X103185615Y-67974495D01*
X103804717Y-67851348D01*
X104387897Y-67609786D01*
X104912746Y-67259094D01*
X105359094Y-66812746D01*
X105709786Y-66287897D01*
X105951348Y-65704717D01*
X106074495Y-65085615D01*
X106074495Y-64454385D01*
X112365505Y-64454385D01*
X112365505Y-65085615D01*
X112488652Y-65704717D01*
X112730214Y-66287897D01*
X113080906Y-66812746D01*
X113527254Y-67259094D01*
X114052103Y-67609786D01*
X114635283Y-67851348D01*
X115254385Y-67974495D01*
X115885615Y-67974495D01*
X116504717Y-67851348D01*
X117087897Y-67609786D01*
X117612746Y-67259094D01*
X118059094Y-66812746D01*
X118409786Y-66287897D01*
X118651348Y-65704717D01*
X118774495Y-65085615D01*
X118774495Y-64644885D01*
X125065505Y-64644885D01*
X125065505Y-65276115D01*
X125188652Y-65895217D01*
X125430214Y-66478397D01*
X125780906Y-67003246D01*
X126227254Y-67449594D01*
X126752103Y-67800286D01*
X127335283Y-68041848D01*
X127954385Y-68164995D01*
X128585615Y-68164995D01*
X129204717Y-68041848D01*
X129787897Y-67800286D01*
X130312746Y-67449594D01*
X130759094Y-67003246D01*
X131109786Y-66478397D01*
X131351348Y-65895217D01*
X131474495Y-65276115D01*
X131474495Y-64644885D01*
X131436603Y-64454385D01*
X137765505Y-64454385D01*
X137765505Y-65085615D01*
X137888652Y-65704717D01*
X138130214Y-66287897D01*
X138480906Y-66812746D01*
X138927254Y-67259094D01*
X139452103Y-67609786D01*
X140035283Y-67851348D01*
X140654385Y-67974495D01*
X141285615Y-67974495D01*
X141904717Y-67851348D01*
X142487897Y-67609786D01*
X143012746Y-67259094D01*
X143459094Y-66812746D01*
X143809786Y-66287897D01*
X144051348Y-65704717D01*
X144174495Y-65085615D01*
X144174495Y-64454385D01*
X150465505Y-64454385D01*
X150465505Y-65085615D01*
X150588652Y-65704717D01*
X150830214Y-66287897D01*
X151180906Y-66812746D01*
X151627254Y-67259094D01*
X152152103Y-67609786D01*
X152735283Y-67851348D01*
X153354385Y-67974495D01*
X153985615Y-67974495D01*
X154604717Y-67851348D01*
X155187897Y-67609786D01*
X155712746Y-67259094D01*
X156159094Y-66812746D01*
X156509786Y-66287897D01*
X156751348Y-65704717D01*
X156874495Y-65085615D01*
X156874495Y-64454385D01*
X156751348Y-63835283D01*
X156509786Y-63252103D01*
X156159094Y-62727254D01*
X155712746Y-62280906D01*
X155187897Y-61930214D01*
X154604717Y-61688652D01*
X153985615Y-61565505D01*
X153354385Y-61565505D01*
X152735283Y-61688652D01*
X152152103Y-61930214D01*
X151627254Y-62280906D01*
X151180906Y-62727254D01*
X150830214Y-63252103D01*
X150588652Y-63835283D01*
X150465505Y-64454385D01*
X144174495Y-64454385D01*
X144051348Y-63835283D01*
X143809786Y-63252103D01*
X143459094Y-62727254D01*
X143012746Y-62280906D01*
X142487897Y-61930214D01*
X141904717Y-61688652D01*
X141285615Y-61565505D01*
X140654385Y-61565505D01*
X140035283Y-61688652D01*
X139452103Y-61930214D01*
X138927254Y-62280906D01*
X138480906Y-62727254D01*
X138130214Y-63252103D01*
X137888652Y-63835283D01*
X137765505Y-64454385D01*
X131436603Y-64454385D01*
X131351348Y-64025783D01*
X131109786Y-63442603D01*
X130759094Y-62917754D01*
X130312746Y-62471406D01*
X129787897Y-62120714D01*
X129204717Y-61879152D01*
X128585615Y-61756005D01*
X127954385Y-61756005D01*
X127335283Y-61879152D01*
X126752103Y-62120714D01*
X126227254Y-62471406D01*
X125780906Y-62917754D01*
X125430214Y-63442603D01*
X125188652Y-64025783D01*
X125065505Y-64644885D01*
X118774495Y-64644885D01*
X118774495Y-64454385D01*
X118651348Y-63835283D01*
X118409786Y-63252103D01*
X118059094Y-62727254D01*
X117612746Y-62280906D01*
X117087897Y-61930214D01*
X116504717Y-61688652D01*
X115885615Y-61565505D01*
X115254385Y-61565505D01*
X114635283Y-61688652D01*
X114052103Y-61930214D01*
X113527254Y-62280906D01*
X113080906Y-62727254D01*
X112730214Y-63252103D01*
X112488652Y-63835283D01*
X112365505Y-64454385D01*
X106074495Y-64454385D01*
X105951348Y-63835283D01*
X105709786Y-63252103D01*
X105359094Y-62727254D01*
X104912746Y-62280906D01*
X104387897Y-61930214D01*
X103804717Y-61688652D01*
X103185615Y-61565505D01*
X102554385Y-61565505D01*
X101935283Y-61688652D01*
X101352103Y-61930214D01*
X100827254Y-62280906D01*
X100380906Y-62727254D01*
X100030214Y-63252103D01*
X99788652Y-63835283D01*
X99665505Y-64454385D01*
X93374495Y-64454385D01*
X93251348Y-63835283D01*
X93009786Y-63252103D01*
X92659094Y-62727254D01*
X92212746Y-62280906D01*
X91687897Y-61930214D01*
X91104717Y-61688652D01*
X90485615Y-61565505D01*
X89854385Y-61565505D01*
X89235283Y-61688652D01*
X88652103Y-61930214D01*
X88127254Y-62280906D01*
X87680906Y-62727254D01*
X87330214Y-63252103D01*
X87088652Y-63835283D01*
X86965505Y-64454385D01*
X80674495Y-64454385D01*
X80551348Y-63835283D01*
X80309786Y-63252103D01*
X79959094Y-62727254D01*
X79512746Y-62280906D01*
X78987897Y-61930214D01*
X78404717Y-61688652D01*
X77785615Y-61565505D01*
X77154385Y-61565505D01*
X76535283Y-61688652D01*
X75952103Y-61930214D01*
X75427254Y-62280906D01*
X74980906Y-62727254D01*
X74630214Y-63252103D01*
X74388652Y-63835283D01*
X74265505Y-64454385D01*
X67974495Y-64454385D01*
X67851348Y-63835283D01*
X67609786Y-63252103D01*
X67259094Y-62727254D01*
X66812746Y-62280906D01*
X66287897Y-61930214D01*
X65704717Y-61688652D01*
X65085615Y-61565505D01*
X64454385Y-61565505D01*
X63835283Y-61688652D01*
X63252103Y-61930214D01*
X62727254Y-62280906D01*
X62280906Y-62727254D01*
X61930214Y-63252103D01*
X61688652Y-63835283D01*
X61565505Y-64454385D01*
X51460000Y-64454385D01*
X51460000Y-60985000D01*
X177140001Y-60985000D01*
X177140000Y-110465000D01*
G37*
X177140000Y-110465000D02*
X159438561Y-110465000D01*
X160417004Y-110270375D01*
X161457067Y-109839567D01*
X162393100Y-109214130D01*
X163189130Y-108418100D01*
X163814567Y-107482067D01*
X164245375Y-106442004D01*
X164368130Y-105824872D01*
X170485000Y-105824872D01*
X170485000Y-106265128D01*
X170570890Y-106696925D01*
X170739369Y-107103669D01*
X170983962Y-107469729D01*
X171295271Y-107781038D01*
X171661331Y-108025631D01*
X172068075Y-108194110D01*
X172499872Y-108280000D01*
X172940128Y-108280000D01*
X173371925Y-108194110D01*
X173778669Y-108025631D01*
X174144729Y-107781038D01*
X174456038Y-107469729D01*
X174700631Y-107103669D01*
X174869110Y-106696925D01*
X174955000Y-106265128D01*
X174955000Y-105824872D01*
X174869110Y-105393075D01*
X174700631Y-104986331D01*
X174456038Y-104620271D01*
X174144729Y-104308962D01*
X173778669Y-104064369D01*
X173371925Y-103895890D01*
X172940128Y-103810000D01*
X172499872Y-103810000D01*
X172068075Y-103895890D01*
X171661331Y-104064369D01*
X171295271Y-104308962D01*
X170983962Y-104620271D01*
X170739369Y-104986331D01*
X170570890Y-105393075D01*
X170485000Y-105824872D01*
X164368130Y-105824872D01*
X164465000Y-105337878D01*
X164465000Y-104212122D01*
X164245375Y-103107996D01*
X163814567Y-102067933D01*
X163189130Y-101131900D01*
X162393100Y-100335870D01*
X161457067Y-99710433D01*
X160417004Y-99279625D01*
X159312878Y-99060000D01*
X158187122Y-99060000D01*
X157082996Y-99279625D01*
X156042933Y-99710433D01*
X155106900Y-100335870D01*
X154310870Y-101131900D01*
X153685433Y-102067933D01*
X153254625Y-103107996D01*
X153035000Y-104212122D01*
X153035000Y-105337878D01*
X153254625Y-106442004D01*
X153685433Y-107482067D01*
X154310870Y-108418100D01*
X155106900Y-109214130D01*
X156042933Y-109839567D01*
X157082996Y-110270375D01*
X158061439Y-110465000D01*
X146738561Y-110465000D01*
X147717004Y-110270375D01*
X148757067Y-109839567D01*
X149693100Y-109214130D01*
X150489130Y-108418100D01*
X151114567Y-107482067D01*
X151545375Y-106442004D01*
X151765000Y-105337878D01*
X151765000Y-104212122D01*
X151545375Y-103107996D01*
X151114567Y-102067933D01*
X150489130Y-101131900D01*
X149693100Y-100335870D01*
X148757067Y-99710433D01*
X147717004Y-99279625D01*
X146612878Y-99060000D01*
X145487122Y-99060000D01*
X144382996Y-99279625D01*
X143342933Y-99710433D01*
X142406900Y-100335870D01*
X141610870Y-101131900D01*
X140985433Y-102067933D01*
X140554625Y-103107996D01*
X140335000Y-104212122D01*
X140335000Y-105337878D01*
X140554625Y-106442004D01*
X140985433Y-107482067D01*
X141610870Y-108418100D01*
X142406900Y-109214130D01*
X143342933Y-109839567D01*
X144382996Y-110270375D01*
X145361439Y-110465000D01*
X134038561Y-110465000D01*
X135017004Y-110270375D01*
X136057067Y-109839567D01*
X136993100Y-109214130D01*
X137789130Y-108418100D01*
X138414567Y-107482067D01*
X138845375Y-106442004D01*
X139065000Y-105337878D01*
X139065000Y-104212122D01*
X138845375Y-103107996D01*
X138414567Y-102067933D01*
X137789130Y-101131900D01*
X136993100Y-100335870D01*
X136057067Y-99710433D01*
X135017004Y-99279625D01*
X133912878Y-99060000D01*
X132787122Y-99060000D01*
X131682996Y-99279625D01*
X130642933Y-99710433D01*
X129706900Y-100335870D01*
X128910870Y-101131900D01*
X128285433Y-102067933D01*
X127854625Y-103107996D01*
X127635000Y-104212122D01*
X127635000Y-105337878D01*
X127854625Y-106442004D01*
X128285433Y-107482067D01*
X128910870Y-108418100D01*
X129706900Y-109214130D01*
X130642933Y-109839567D01*
X131682996Y-110270375D01*
X132661439Y-110465000D01*
X121338561Y-110465000D01*
X122317004Y-110270375D01*
X123357067Y-109839567D01*
X124293100Y-109214130D01*
X125089130Y-108418100D01*
X125714567Y-107482067D01*
X126145375Y-106442004D01*
X126365000Y-105337878D01*
X126365000Y-104212122D01*
X126145375Y-103107996D01*
X125714567Y-102067933D01*
X125089130Y-101131900D01*
X124293100Y-100335870D01*
X123357067Y-99710433D01*
X122317004Y-99279625D01*
X121212878Y-99060000D01*
X120087122Y-99060000D01*
X118982996Y-99279625D01*
X117942933Y-99710433D01*
X117006900Y-100335870D01*
X116210870Y-101131900D01*
X115585433Y-102067933D01*
X115154625Y-103107996D01*
X114935000Y-104212122D01*
X114935000Y-105337878D01*
X115154625Y-106442004D01*
X115585433Y-107482067D01*
X116210870Y-108418100D01*
X117006900Y-109214130D01*
X117942933Y-109839567D01*
X118982996Y-110270375D01*
X119961439Y-110465000D01*
X108638561Y-110465000D01*
X109617004Y-110270375D01*
X110657067Y-109839567D01*
X111593100Y-109214130D01*
X112389130Y-108418100D01*
X113014567Y-107482067D01*
X113445375Y-106442004D01*
X113665000Y-105337878D01*
X113665000Y-104212122D01*
X113445375Y-103107996D01*
X113014567Y-102067933D01*
X112389130Y-101131900D01*
X111593100Y-100335870D01*
X110657067Y-99710433D01*
X109617004Y-99279625D01*
X108512878Y-99060000D01*
X107387122Y-99060000D01*
X106282996Y-99279625D01*
X105242933Y-99710433D01*
X104306900Y-100335870D01*
X103510870Y-101131900D01*
X102885433Y-102067933D01*
X102454625Y-103107996D01*
X102235000Y-104212122D01*
X102235000Y-105337878D01*
X102454625Y-106442004D01*
X102885433Y-107482067D01*
X103510870Y-108418100D01*
X104306900Y-109214130D01*
X105242933Y-109839567D01*
X106282996Y-110270375D01*
X107261439Y-110465000D01*
X95938561Y-110465000D01*
X96917004Y-110270375D01*
X97957067Y-109839567D01*
X98893100Y-109214130D01*
X99689130Y-108418100D01*
X100314567Y-107482067D01*
X100745375Y-106442004D01*
X100965000Y-105337878D01*
X100965000Y-104212122D01*
X100745375Y-103107996D01*
X100314567Y-102067933D01*
X99689130Y-101131900D01*
X98893100Y-100335870D01*
X97957067Y-99710433D01*
X96917004Y-99279625D01*
X95812878Y-99060000D01*
X94687122Y-99060000D01*
X93582996Y-99279625D01*
X92542933Y-99710433D01*
X91606900Y-100335870D01*
X90810870Y-101131900D01*
X90185433Y-102067933D01*
X89754625Y-103107996D01*
X89535000Y-104212122D01*
X89535000Y-105337878D01*
X89754625Y-106442004D01*
X90185433Y-107482067D01*
X90810870Y-108418100D01*
X91606900Y-109214130D01*
X92542933Y-109839567D01*
X93582996Y-110270375D01*
X94561439Y-110465000D01*
X83238561Y-110465000D01*
X84217004Y-110270375D01*
X85257067Y-109839567D01*
X86193100Y-109214130D01*
X86989130Y-108418100D01*
X87614567Y-107482067D01*
X88045375Y-106442004D01*
X88265000Y-105337878D01*
X88265000Y-104212122D01*
X88045375Y-103107996D01*
X87614567Y-102067933D01*
X86989130Y-101131900D01*
X86193100Y-100335870D01*
X85257067Y-99710433D01*
X84217004Y-99279625D01*
X83112878Y-99060000D01*
X81987122Y-99060000D01*
X80882996Y-99279625D01*
X79842933Y-99710433D01*
X78906900Y-100335870D01*
X78110870Y-101131900D01*
X77485433Y-102067933D01*
X77054625Y-103107996D01*
X76835000Y-104212122D01*
X76835000Y-105337878D01*
X77054625Y-106442004D01*
X77485433Y-107482067D01*
X78110870Y-108418100D01*
X78906900Y-109214130D01*
X79842933Y-109839567D01*
X80882996Y-110270375D01*
X81861439Y-110465000D01*
X70538561Y-110465000D01*
X71517004Y-110270375D01*
X72557067Y-109839567D01*
X73493100Y-109214130D01*
X74289130Y-108418100D01*
X74914567Y-107482067D01*
X75345375Y-106442004D01*
X75565000Y-105337878D01*
X75565000Y-104212122D01*
X75345375Y-103107996D01*
X74914567Y-102067933D01*
X74289130Y-101131900D01*
X73493100Y-100335870D01*
X72557067Y-99710433D01*
X71517004Y-99279625D01*
X70412878Y-99060000D01*
X69287122Y-99060000D01*
X68182996Y-99279625D01*
X67142933Y-99710433D01*
X66206900Y-100335870D01*
X65410870Y-101131900D01*
X64785433Y-102067933D01*
X64354625Y-103107996D01*
X64135000Y-104212122D01*
X64135000Y-105337878D01*
X64354625Y-106442004D01*
X64785433Y-107482067D01*
X65410870Y-108418100D01*
X66206900Y-109214130D01*
X67142933Y-109839567D01*
X68182996Y-110270375D01*
X69161439Y-110465000D01*
X51460000Y-110465000D01*
X51460000Y-105824872D01*
X53645000Y-105824872D01*
X53645000Y-106265128D01*
X53730890Y-106696925D01*
X53899369Y-107103669D01*
X54143962Y-107469729D01*
X54455271Y-107781038D01*
X54821331Y-108025631D01*
X55228075Y-108194110D01*
X55659872Y-108280000D01*
X56100128Y-108280000D01*
X56531925Y-108194110D01*
X56938669Y-108025631D01*
X57304729Y-107781038D01*
X57616038Y-107469729D01*
X57860631Y-107103669D01*
X58029110Y-106696925D01*
X58115000Y-106265128D01*
X58115000Y-105824872D01*
X58029110Y-105393075D01*
X57860631Y-104986331D01*
X57616038Y-104620271D01*
X57304729Y-104308962D01*
X56938669Y-104064369D01*
X56531925Y-103895890D01*
X56100128Y-103810000D01*
X55659872Y-103810000D01*
X55228075Y-103895890D01*
X54821331Y-104064369D01*
X54455271Y-104308962D01*
X54143962Y-104620271D01*
X53899369Y-104986331D01*
X53730890Y-105393075D01*
X53645000Y-105824872D01*
X51460000Y-105824872D01*
X51460000Y-85162122D01*
X64135000Y-85162122D01*
X64135000Y-86287878D01*
X64354625Y-87392004D01*
X64785433Y-88432067D01*
X65410870Y-89368100D01*
X66206900Y-90164130D01*
X67142933Y-90789567D01*
X68182996Y-91220375D01*
X69287122Y-91440000D01*
X70412878Y-91440000D01*
X71517004Y-91220375D01*
X72557067Y-90789567D01*
X73493100Y-90164130D01*
X74289130Y-89368100D01*
X74914567Y-88432067D01*
X75345375Y-87392004D01*
X75565000Y-86287878D01*
X75565000Y-85162122D01*
X76835000Y-85162122D01*
X76835000Y-86287878D01*
X77054625Y-87392004D01*
X77485433Y-88432067D01*
X78110870Y-89368100D01*
X78906900Y-90164130D01*
X79842933Y-90789567D01*
X80882996Y-91220375D01*
X81987122Y-91440000D01*
X83112878Y-91440000D01*
X84217004Y-91220375D01*
X85257067Y-90789567D01*
X86193100Y-90164130D01*
X86989130Y-89368100D01*
X87614567Y-88432067D01*
X88045375Y-87392004D01*
X88265000Y-86287878D01*
X88265000Y-85162122D01*
X89535000Y-85162122D01*
X89535000Y-86287878D01*
X89754625Y-87392004D01*
X90185433Y-88432067D01*
X90810870Y-89368100D01*
X91606900Y-90164130D01*
X92542933Y-90789567D01*
X93582996Y-91220375D01*
X94687122Y-91440000D01*
X95812878Y-91440000D01*
X96917004Y-91220375D01*
X97957067Y-90789567D01*
X98893100Y-90164130D01*
X99689130Y-89368100D01*
X100314567Y-88432067D01*
X100745375Y-87392004D01*
X100965000Y-86287878D01*
X100965000Y-85162122D01*
X102235000Y-85162122D01*
X102235000Y-86287878D01*
X102454625Y-87392004D01*
X102885433Y-88432067D01*
X103510870Y-89368100D01*
X104306900Y-90164130D01*
X105242933Y-90789567D01*
X106282996Y-91220375D01*
X107387122Y-91440000D01*
X108512878Y-91440000D01*
X109617004Y-91220375D01*
X110657067Y-90789567D01*
X111593100Y-90164130D01*
X112389130Y-89368100D01*
X113014567Y-88432067D01*
X113445375Y-87392004D01*
X113665000Y-86287878D01*
X113665000Y-85162122D01*
X114935000Y-85162122D01*
X114935000Y-86287878D01*
X115154625Y-87392004D01*
X115585433Y-88432067D01*
X116210870Y-89368100D01*
X117006900Y-90164130D01*
X117942933Y-90789567D01*
X118982996Y-91220375D01*
X120087122Y-91440000D01*
X121212878Y-91440000D01*
X122317004Y-91220375D01*
X123357067Y-90789567D01*
X124293100Y-90164130D01*
X125089130Y-89368100D01*
X125714567Y-88432067D01*
X126145375Y-87392004D01*
X126365000Y-86287878D01*
X126365000Y-85162122D01*
X127635000Y-85162122D01*
X127635000Y-86287878D01*
X127854625Y-87392004D01*
X128285433Y-88432067D01*
X128910870Y-89368100D01*
X129706900Y-90164130D01*
X130642933Y-90789567D01*
X131682996Y-91220375D01*
X132787122Y-91440000D01*
X133912878Y-91440000D01*
X135017004Y-91220375D01*
X136057067Y-90789567D01*
X136993100Y-90164130D01*
X137789130Y-89368100D01*
X138414567Y-88432067D01*
X138845375Y-87392004D01*
X139065000Y-86287878D01*
X139065000Y-85162122D01*
X140335000Y-85162122D01*
X140335000Y-86287878D01*
X140554625Y-87392004D01*
X140985433Y-88432067D01*
X141610870Y-89368100D01*
X142406900Y-90164130D01*
X143342933Y-90789567D01*
X144382996Y-91220375D01*
X145487122Y-91440000D01*
X146612878Y-91440000D01*
X147717004Y-91220375D01*
X148757067Y-90789567D01*
X149693100Y-90164130D01*
X150489130Y-89368100D01*
X151114567Y-88432067D01*
X151545375Y-87392004D01*
X151765000Y-86287878D01*
X151765000Y-85162122D01*
X153035000Y-85162122D01*
X153035000Y-86287878D01*
X153254625Y-87392004D01*
X153685433Y-88432067D01*
X154310870Y-89368100D01*
X155106900Y-90164130D01*
X156042933Y-90789567D01*
X157082996Y-91220375D01*
X158187122Y-91440000D01*
X159312878Y-91440000D01*
X160417004Y-91220375D01*
X161457067Y-90789567D01*
X162393100Y-90164130D01*
X163189130Y-89368100D01*
X163814567Y-88432067D01*
X164245375Y-87392004D01*
X164465000Y-86287878D01*
X164465000Y-85162122D01*
X164245375Y-84057996D01*
X163814567Y-83017933D01*
X163582086Y-82670000D01*
X169936928Y-82670000D01*
X169949188Y-82794482D01*
X169985498Y-82914180D01*
X170044463Y-83024494D01*
X170123815Y-83121185D01*
X170220506Y-83200537D01*
X170330820Y-83259502D01*
X170450518Y-83295812D01*
X170575000Y-83308072D01*
X171164250Y-83305000D01*
X171323000Y-83146250D01*
X171323000Y-82172000D01*
X171577000Y-82172000D01*
X171577000Y-83146250D01*
X171735750Y-83305000D01*
X172325000Y-83308072D01*
X172449482Y-83295812D01*
X172569180Y-83259502D01*
X172679494Y-83200537D01*
X172776185Y-83121185D01*
X172855537Y-83024494D01*
X172914502Y-82914180D01*
X172950812Y-82794482D01*
X172963072Y-82670000D01*
X172960000Y-82330750D01*
X172801250Y-82172000D01*
X171577000Y-82172000D01*
X171323000Y-82172000D01*
X170098750Y-82172000D01*
X169940000Y-82330750D01*
X169936928Y-82670000D01*
X163582086Y-82670000D01*
X163189130Y-82081900D01*
X162527230Y-81420000D01*
X169936928Y-81420000D01*
X169940000Y-81759250D01*
X170098750Y-81918000D01*
X171323000Y-81918000D01*
X171323000Y-80943750D01*
X171577000Y-80943750D01*
X171577000Y-81918000D01*
X172801250Y-81918000D01*
X172960000Y-81759250D01*
X172963072Y-81420000D01*
X172950812Y-81295518D01*
X172914502Y-81175820D01*
X172855537Y-81065506D01*
X172776185Y-80968815D01*
X172679494Y-80889463D01*
X172569180Y-80830498D01*
X172449482Y-80794188D01*
X172325000Y-80781928D01*
X171735750Y-80785000D01*
X171577000Y-80943750D01*
X171323000Y-80943750D01*
X171164250Y-80785000D01*
X170575000Y-80781928D01*
X170450518Y-80794188D01*
X170330820Y-80830498D01*
X170220506Y-80889463D01*
X170123815Y-80968815D01*
X170044463Y-81065506D01*
X169985498Y-81175820D01*
X169949188Y-81295518D01*
X169936928Y-81420000D01*
X162527230Y-81420000D01*
X162393100Y-81285870D01*
X161457067Y-80660433D01*
X160417004Y-80229625D01*
X159312878Y-80010000D01*
X158187122Y-80010000D01*
X157082996Y-80229625D01*
X156042933Y-80660433D01*
X155106900Y-81285870D01*
X154310870Y-82081900D01*
X153685433Y-83017933D01*
X153254625Y-84057996D01*
X153035000Y-85162122D01*
X151765000Y-85162122D01*
X151545375Y-84057996D01*
X151114567Y-83017933D01*
X150489130Y-82081900D01*
X149693100Y-81285870D01*
X148757067Y-80660433D01*
X147717004Y-80229625D01*
X146612878Y-80010000D01*
X145487122Y-80010000D01*
X144382996Y-80229625D01*
X143342933Y-80660433D01*
X142406900Y-81285870D01*
X141610870Y-82081900D01*
X140985433Y-83017933D01*
X140554625Y-84057996D01*
X140335000Y-85162122D01*
X139065000Y-85162122D01*
X138845375Y-84057996D01*
X138414567Y-83017933D01*
X137789130Y-82081900D01*
X136993100Y-81285870D01*
X136057067Y-80660433D01*
X135017004Y-80229625D01*
X133912878Y-80010000D01*
X132787122Y-80010000D01*
X131682996Y-80229625D01*
X130642933Y-80660433D01*
X129706900Y-81285870D01*
X128910870Y-82081900D01*
X128285433Y-83017933D01*
X127854625Y-84057996D01*
X127635000Y-85162122D01*
X126365000Y-85162122D01*
X126145375Y-84057996D01*
X125714567Y-83017933D01*
X125089130Y-82081900D01*
X124293100Y-81285870D01*
X123357067Y-80660433D01*
X122317004Y-80229625D01*
X121212878Y-80010000D01*
X120087122Y-80010000D01*
X118982996Y-80229625D01*
X117942933Y-80660433D01*
X117006900Y-81285870D01*
X116210870Y-82081900D01*
X115585433Y-83017933D01*
X115154625Y-84057996D01*
X114935000Y-85162122D01*
X113665000Y-85162122D01*
X113445375Y-84057996D01*
X113014567Y-83017933D01*
X112389130Y-82081900D01*
X111593100Y-81285870D01*
X110657067Y-80660433D01*
X109617004Y-80229625D01*
X108512878Y-80010000D01*
X107387122Y-80010000D01*
X106282996Y-80229625D01*
X105242933Y-80660433D01*
X104306900Y-81285870D01*
X103510870Y-82081900D01*
X102885433Y-83017933D01*
X102454625Y-84057996D01*
X102235000Y-85162122D01*
X100965000Y-85162122D01*
X100745375Y-84057996D01*
X100314567Y-83017933D01*
X99689130Y-82081900D01*
X98893100Y-81285870D01*
X97957067Y-80660433D01*
X96917004Y-80229625D01*
X95812878Y-80010000D01*
X94687122Y-80010000D01*
X93582996Y-80229625D01*
X92542933Y-80660433D01*
X91606900Y-81285870D01*
X90810870Y-82081900D01*
X90185433Y-83017933D01*
X89754625Y-84057996D01*
X89535000Y-85162122D01*
X88265000Y-85162122D01*
X88045375Y-84057996D01*
X87614567Y-83017933D01*
X86989130Y-82081900D01*
X86193100Y-81285870D01*
X85257067Y-80660433D01*
X84217004Y-80229625D01*
X83112878Y-80010000D01*
X81987122Y-80010000D01*
X80882996Y-80229625D01*
X79842933Y-80660433D01*
X78906900Y-81285870D01*
X78110870Y-82081900D01*
X77485433Y-83017933D01*
X77054625Y-84057996D01*
X76835000Y-85162122D01*
X75565000Y-85162122D01*
X75345375Y-84057996D01*
X74914567Y-83017933D01*
X74289130Y-82081900D01*
X73493100Y-81285870D01*
X72557067Y-80660433D01*
X71517004Y-80229625D01*
X70412878Y-80010000D01*
X69287122Y-80010000D01*
X68182996Y-80229625D01*
X67142933Y-80660433D01*
X66206900Y-81285870D01*
X65410870Y-82081900D01*
X64785433Y-83017933D01*
X64354625Y-84057996D01*
X64135000Y-85162122D01*
X51460000Y-85162122D01*
X51460000Y-75350000D01*
X63281928Y-75350000D01*
X63281928Y-77050000D01*
X63294188Y-77174482D01*
X63330498Y-77294180D01*
X63389463Y-77404494D01*
X63468815Y-77501185D01*
X63565506Y-77580537D01*
X63675820Y-77639502D01*
X63795518Y-77675812D01*
X63920000Y-77688072D01*
X65620000Y-77688072D01*
X65744482Y-77675812D01*
X65864180Y-77639502D01*
X65974494Y-77580537D01*
X66071185Y-77501185D01*
X66150537Y-77404494D01*
X66209502Y-77294180D01*
X66231513Y-77221620D01*
X66363368Y-77353475D01*
X66606589Y-77515990D01*
X66876842Y-77627932D01*
X67163740Y-77685000D01*
X67456260Y-77685000D01*
X67743158Y-77627932D01*
X68013411Y-77515990D01*
X68256632Y-77353475D01*
X68463475Y-77146632D01*
X68585195Y-76964466D01*
X68654822Y-77081355D01*
X68849731Y-77297588D01*
X69083080Y-77471641D01*
X69345901Y-77596825D01*
X69493110Y-77641476D01*
X69723000Y-77520155D01*
X69723000Y-76327000D01*
X69703000Y-76327000D01*
X69703000Y-76073000D01*
X69723000Y-76073000D01*
X69723000Y-74879845D01*
X69493110Y-74758524D01*
X69345901Y-74803175D01*
X69083080Y-74928359D01*
X68849731Y-75102412D01*
X68654822Y-75318645D01*
X68585195Y-75435534D01*
X68463475Y-75253368D01*
X68326000Y-75115893D01*
X68326000Y-74344902D01*
X68330915Y-74295000D01*
X68311298Y-74095829D01*
X68253202Y-73904313D01*
X68252539Y-73903072D01*
X68580000Y-73903072D01*
X68753254Y-73886008D01*
X68919850Y-73835472D01*
X69073386Y-73753405D01*
X69207962Y-73642962D01*
X69318405Y-73508386D01*
X69373132Y-73406000D01*
X70326868Y-73406000D01*
X70381595Y-73508386D01*
X70492038Y-73642962D01*
X70626614Y-73753405D01*
X70780150Y-73835472D01*
X70946746Y-73886008D01*
X71120000Y-73903072D01*
X71447462Y-73903072D01*
X71446799Y-73904313D01*
X71388702Y-74095830D01*
X71369085Y-74295000D01*
X71374001Y-74344911D01*
X71374001Y-75115892D01*
X71236525Y-75253368D01*
X71114805Y-75435534D01*
X71045178Y-75318645D01*
X70850269Y-75102412D01*
X70616920Y-74928359D01*
X70354099Y-74803175D01*
X70206890Y-74758524D01*
X69977000Y-74879845D01*
X69977000Y-76073000D01*
X69997000Y-76073000D01*
X69997000Y-76327000D01*
X69977000Y-76327000D01*
X69977000Y-77520155D01*
X70206890Y-77641476D01*
X70354099Y-77596825D01*
X70616920Y-77471641D01*
X70850269Y-77297588D01*
X71045178Y-77081355D01*
X71114805Y-76964466D01*
X71236525Y-77146632D01*
X71443368Y-77353475D01*
X71686589Y-77515990D01*
X71956842Y-77627932D01*
X72243740Y-77685000D01*
X72536260Y-77685000D01*
X72823158Y-77627932D01*
X73093411Y-77515990D01*
X73336632Y-77353475D01*
X73543475Y-77146632D01*
X73660000Y-76972240D01*
X73776525Y-77146632D01*
X73983368Y-77353475D01*
X74226589Y-77515990D01*
X74496842Y-77627932D01*
X74783740Y-77685000D01*
X75076260Y-77685000D01*
X75363158Y-77627932D01*
X75633411Y-77515990D01*
X75876632Y-77353475D01*
X76083475Y-77146632D01*
X76200000Y-76972240D01*
X76316525Y-77146632D01*
X76523368Y-77353475D01*
X76766589Y-77515990D01*
X77036842Y-77627932D01*
X77323740Y-77685000D01*
X77616260Y-77685000D01*
X77903158Y-77627932D01*
X78173411Y-77515990D01*
X78416632Y-77353475D01*
X78623475Y-77146632D01*
X78740000Y-76972240D01*
X78856525Y-77146632D01*
X79063368Y-77353475D01*
X79306589Y-77515990D01*
X79576842Y-77627932D01*
X79863740Y-77685000D01*
X80156260Y-77685000D01*
X80443158Y-77627932D01*
X80713411Y-77515990D01*
X80956632Y-77353475D01*
X81163475Y-77146632D01*
X81285195Y-76964466D01*
X81354822Y-77081355D01*
X81549731Y-77297588D01*
X81783080Y-77471641D01*
X82045901Y-77596825D01*
X82193110Y-77641476D01*
X82423000Y-77520155D01*
X82423000Y-76327000D01*
X82403000Y-76327000D01*
X82403000Y-76073000D01*
X82423000Y-76073000D01*
X82423000Y-74879845D01*
X82193110Y-74758524D01*
X82045901Y-74803175D01*
X81783080Y-74928359D01*
X81549731Y-75102412D01*
X81354822Y-75318645D01*
X81285195Y-75435534D01*
X81163475Y-75253368D01*
X81026000Y-75115893D01*
X81026000Y-74474902D01*
X81030915Y-74425000D01*
X81011298Y-74225829D01*
X80953202Y-74034313D01*
X80883053Y-73903072D01*
X81150000Y-73903072D01*
X81323254Y-73886008D01*
X81489850Y-73835472D01*
X81643386Y-73753405D01*
X81777962Y-73642962D01*
X81888405Y-73508386D01*
X81943132Y-73406000D01*
X83156868Y-73406000D01*
X83211595Y-73508386D01*
X83322038Y-73642962D01*
X83456614Y-73753405D01*
X83610150Y-73835472D01*
X83776746Y-73886008D01*
X83950000Y-73903072D01*
X84216948Y-73903072D01*
X84216285Y-73904313D01*
X84146799Y-74034313D01*
X84088702Y-74225830D01*
X84069085Y-74425000D01*
X84074001Y-74474911D01*
X84074001Y-75115892D01*
X83936525Y-75253368D01*
X83814805Y-75435534D01*
X83745178Y-75318645D01*
X83550269Y-75102412D01*
X83316920Y-74928359D01*
X83054099Y-74803175D01*
X82906890Y-74758524D01*
X82677000Y-74879845D01*
X82677000Y-76073000D01*
X82697000Y-76073000D01*
X82697000Y-76327000D01*
X82677000Y-76327000D01*
X82677000Y-77520155D01*
X82906890Y-77641476D01*
X83054099Y-77596825D01*
X83316920Y-77471641D01*
X83550269Y-77297588D01*
X83745178Y-77081355D01*
X83814805Y-76964466D01*
X83936525Y-77146632D01*
X84143368Y-77353475D01*
X84386589Y-77515990D01*
X84656842Y-77627932D01*
X84943740Y-77685000D01*
X85236260Y-77685000D01*
X85523158Y-77627932D01*
X85793411Y-77515990D01*
X86036632Y-77353475D01*
X86243475Y-77146632D01*
X86360000Y-76972240D01*
X86476525Y-77146632D01*
X86683368Y-77353475D01*
X86926589Y-77515990D01*
X87196842Y-77627932D01*
X87483740Y-77685000D01*
X87776260Y-77685000D01*
X88063158Y-77627932D01*
X88333411Y-77515990D01*
X88576632Y-77353475D01*
X88783475Y-77146632D01*
X88900000Y-76972240D01*
X89016525Y-77146632D01*
X89223368Y-77353475D01*
X89466589Y-77515990D01*
X89736842Y-77627932D01*
X90023740Y-77685000D01*
X90316260Y-77685000D01*
X90603158Y-77627932D01*
X90873411Y-77515990D01*
X91116632Y-77353475D01*
X91323475Y-77146632D01*
X91440000Y-76972240D01*
X91556525Y-77146632D01*
X91763368Y-77353475D01*
X92006589Y-77515990D01*
X92276842Y-77627932D01*
X92563740Y-77685000D01*
X92856260Y-77685000D01*
X93143158Y-77627932D01*
X93413411Y-77515990D01*
X93656632Y-77353475D01*
X93863475Y-77146632D01*
X93985195Y-76964466D01*
X94054822Y-77081355D01*
X94249731Y-77297588D01*
X94483080Y-77471641D01*
X94745901Y-77596825D01*
X94893110Y-77641476D01*
X95123000Y-77520155D01*
X95123000Y-76327000D01*
X95103000Y-76327000D01*
X95103000Y-76073000D01*
X95123000Y-76073000D01*
X95123000Y-74879845D01*
X94893110Y-74758524D01*
X94745901Y-74803175D01*
X94483080Y-74928359D01*
X94249731Y-75102412D01*
X94054822Y-75318645D01*
X93985195Y-75435534D01*
X93863475Y-75253368D01*
X93726000Y-75115893D01*
X93726000Y-74474902D01*
X93730915Y-74425000D01*
X93711298Y-74225829D01*
X93653202Y-74034313D01*
X93583053Y-73903072D01*
X93850000Y-73903072D01*
X94023254Y-73886008D01*
X94189850Y-73835472D01*
X94343386Y-73753405D01*
X94477962Y-73642962D01*
X94588405Y-73508386D01*
X94643132Y-73406000D01*
X95726868Y-73406000D01*
X95781595Y-73508386D01*
X95892038Y-73642962D01*
X96026614Y-73753405D01*
X96180150Y-73835472D01*
X96346746Y-73886008D01*
X96520000Y-73903072D01*
X96847462Y-73903072D01*
X96846799Y-73904313D01*
X96788702Y-74095830D01*
X96769085Y-74295000D01*
X96774001Y-74344911D01*
X96774001Y-75115892D01*
X96636525Y-75253368D01*
X96514805Y-75435534D01*
X96445178Y-75318645D01*
X96250269Y-75102412D01*
X96016920Y-74928359D01*
X95754099Y-74803175D01*
X95606890Y-74758524D01*
X95377000Y-74879845D01*
X95377000Y-76073000D01*
X95397000Y-76073000D01*
X95397000Y-76327000D01*
X95377000Y-76327000D01*
X95377000Y-77520155D01*
X95606890Y-77641476D01*
X95754099Y-77596825D01*
X96016920Y-77471641D01*
X96250269Y-77297588D01*
X96445178Y-77081355D01*
X96514805Y-76964466D01*
X96636525Y-77146632D01*
X96843368Y-77353475D01*
X97086589Y-77515990D01*
X97356842Y-77627932D01*
X97643740Y-77685000D01*
X97936260Y-77685000D01*
X98223158Y-77627932D01*
X98493411Y-77515990D01*
X98736632Y-77353475D01*
X98943475Y-77146632D01*
X99060000Y-76972240D01*
X99176525Y-77146632D01*
X99383368Y-77353475D01*
X99626589Y-77515990D01*
X99896842Y-77627932D01*
X100183740Y-77685000D01*
X100476260Y-77685000D01*
X100763158Y-77627932D01*
X101033411Y-77515990D01*
X101276632Y-77353475D01*
X101483475Y-77146632D01*
X101600000Y-76972240D01*
X101716525Y-77146632D01*
X101923368Y-77353475D01*
X102166589Y-77515990D01*
X102436842Y-77627932D01*
X102723740Y-77685000D01*
X103016260Y-77685000D01*
X103303158Y-77627932D01*
X103573411Y-77515990D01*
X103816632Y-77353475D01*
X104023475Y-77146632D01*
X104140000Y-76972240D01*
X104256525Y-77146632D01*
X104463368Y-77353475D01*
X104706589Y-77515990D01*
X104976842Y-77627932D01*
X105263740Y-77685000D01*
X105556260Y-77685000D01*
X105843158Y-77627932D01*
X106113411Y-77515990D01*
X106356632Y-77353475D01*
X106563475Y-77146632D01*
X106685195Y-76964466D01*
X106754822Y-77081355D01*
X106949731Y-77297588D01*
X107183080Y-77471641D01*
X107445901Y-77596825D01*
X107593110Y-77641476D01*
X107823000Y-77520155D01*
X107823000Y-76327000D01*
X107803000Y-76327000D01*
X107803000Y-76073000D01*
X107823000Y-76073000D01*
X107823000Y-74879845D01*
X107593110Y-74758524D01*
X107445901Y-74803175D01*
X107183080Y-74928359D01*
X106949731Y-75102412D01*
X106754822Y-75318645D01*
X106685195Y-75435534D01*
X106563475Y-75253368D01*
X106426000Y-75115893D01*
X106426000Y-74474902D01*
X106430915Y-74425000D01*
X106411298Y-74225829D01*
X106353202Y-74034313D01*
X106283053Y-73903072D01*
X106550000Y-73903072D01*
X106723254Y-73886008D01*
X106889850Y-73835472D01*
X107043386Y-73753405D01*
X107177962Y-73642962D01*
X107288405Y-73508386D01*
X107343132Y-73406000D01*
X108556868Y-73406000D01*
X108611595Y-73508386D01*
X108722038Y-73642962D01*
X108856614Y-73753405D01*
X109010150Y-73835472D01*
X109176746Y-73886008D01*
X109350000Y-73903072D01*
X109616948Y-73903072D01*
X109616285Y-73904313D01*
X109546799Y-74034313D01*
X109488702Y-74225830D01*
X109469085Y-74425000D01*
X109474001Y-74474911D01*
X109474001Y-75115892D01*
X109336525Y-75253368D01*
X109214805Y-75435534D01*
X109145178Y-75318645D01*
X108950269Y-75102412D01*
X108716920Y-74928359D01*
X108454099Y-74803175D01*
X108306890Y-74758524D01*
X108077000Y-74879845D01*
X108077000Y-76073000D01*
X108097000Y-76073000D01*
X108097000Y-76327000D01*
X108077000Y-76327000D01*
X108077000Y-77520155D01*
X108306890Y-77641476D01*
X108454099Y-77596825D01*
X108716920Y-77471641D01*
X108950269Y-77297588D01*
X109145178Y-77081355D01*
X109214805Y-76964466D01*
X109336525Y-77146632D01*
X109543368Y-77353475D01*
X109786589Y-77515990D01*
X110056842Y-77627932D01*
X110343740Y-77685000D01*
X110636260Y-77685000D01*
X110923158Y-77627932D01*
X111193411Y-77515990D01*
X111436632Y-77353475D01*
X111643475Y-77146632D01*
X111760000Y-76972240D01*
X111876525Y-77146632D01*
X112083368Y-77353475D01*
X112326589Y-77515990D01*
X112596842Y-77627932D01*
X112883740Y-77685000D01*
X113176260Y-77685000D01*
X113463158Y-77627932D01*
X113733411Y-77515990D01*
X113976632Y-77353475D01*
X114183475Y-77146632D01*
X114300000Y-76972240D01*
X114416525Y-77146632D01*
X114623368Y-77353475D01*
X114866589Y-77515990D01*
X115136842Y-77627932D01*
X115423740Y-77685000D01*
X115716260Y-77685000D01*
X116003158Y-77627932D01*
X116273411Y-77515990D01*
X116516632Y-77353475D01*
X116723475Y-77146632D01*
X116840000Y-76972240D01*
X116956525Y-77146632D01*
X117163368Y-77353475D01*
X117406589Y-77515990D01*
X117676842Y-77627932D01*
X117963740Y-77685000D01*
X118256260Y-77685000D01*
X118543158Y-77627932D01*
X118813411Y-77515990D01*
X119056632Y-77353475D01*
X119263475Y-77146632D01*
X119385195Y-76964466D01*
X119454822Y-77081355D01*
X119649731Y-77297588D01*
X119883080Y-77471641D01*
X120145901Y-77596825D01*
X120293110Y-77641476D01*
X120523000Y-77520155D01*
X120523000Y-76327000D01*
X120503000Y-76327000D01*
X120503000Y-76073000D01*
X120523000Y-76073000D01*
X120523000Y-74879845D01*
X120293110Y-74758524D01*
X120145901Y-74803175D01*
X119883080Y-74928359D01*
X119649731Y-75102412D01*
X119454822Y-75318645D01*
X119385195Y-75435534D01*
X119263475Y-75253368D01*
X119126000Y-75115893D01*
X119126000Y-74474902D01*
X119130915Y-74425000D01*
X119111298Y-74225829D01*
X119053202Y-74034313D01*
X118983053Y-73903072D01*
X119250000Y-73903072D01*
X119423254Y-73886008D01*
X119589850Y-73835472D01*
X119743386Y-73753405D01*
X119877962Y-73642962D01*
X119988405Y-73508386D01*
X120043132Y-73406000D01*
X121256868Y-73406000D01*
X121311595Y-73508386D01*
X121422038Y-73642962D01*
X121556614Y-73753405D01*
X121710150Y-73835472D01*
X121876746Y-73886008D01*
X122050000Y-73903072D01*
X122316948Y-73903072D01*
X122316285Y-73904313D01*
X122246799Y-74034313D01*
X122188702Y-74225830D01*
X122169085Y-74425000D01*
X122174001Y-74474911D01*
X122174001Y-75115892D01*
X122036525Y-75253368D01*
X121914805Y-75435534D01*
X121845178Y-75318645D01*
X121650269Y-75102412D01*
X121416920Y-74928359D01*
X121154099Y-74803175D01*
X121006890Y-74758524D01*
X120777000Y-74879845D01*
X120777000Y-76073000D01*
X120797000Y-76073000D01*
X120797000Y-76327000D01*
X120777000Y-76327000D01*
X120777000Y-77520155D01*
X121006890Y-77641476D01*
X121154099Y-77596825D01*
X121416920Y-77471641D01*
X121650269Y-77297588D01*
X121845178Y-77081355D01*
X121914805Y-76964466D01*
X122036525Y-77146632D01*
X122243368Y-77353475D01*
X122486589Y-77515990D01*
X122756842Y-77627932D01*
X123043740Y-77685000D01*
X123336260Y-77685000D01*
X123623158Y-77627932D01*
X123893411Y-77515990D01*
X124136632Y-77353475D01*
X124343475Y-77146632D01*
X124460000Y-76972240D01*
X124576525Y-77146632D01*
X124783368Y-77353475D01*
X125026589Y-77515990D01*
X125296842Y-77627932D01*
X125583740Y-77685000D01*
X125876260Y-77685000D01*
X126163158Y-77627932D01*
X126433411Y-77515990D01*
X126676632Y-77353475D01*
X126883475Y-77146632D01*
X127000000Y-76972240D01*
X127116525Y-77146632D01*
X127323368Y-77353475D01*
X127566589Y-77515990D01*
X127836842Y-77627932D01*
X128123740Y-77685000D01*
X128416260Y-77685000D01*
X128703158Y-77627932D01*
X128973411Y-77515990D01*
X129216632Y-77353475D01*
X129423475Y-77146632D01*
X129540000Y-76972240D01*
X129656525Y-77146632D01*
X129863368Y-77353475D01*
X130106589Y-77515990D01*
X130376842Y-77627932D01*
X130663740Y-77685000D01*
X130956260Y-77685000D01*
X131243158Y-77627932D01*
X131513411Y-77515990D01*
X131756632Y-77353475D01*
X131963475Y-77146632D01*
X132085195Y-76964466D01*
X132154822Y-77081355D01*
X132349731Y-77297588D01*
X132583080Y-77471641D01*
X132845901Y-77596825D01*
X132993110Y-77641476D01*
X133223000Y-77520155D01*
X133223000Y-76327000D01*
X133203000Y-76327000D01*
X133203000Y-76073000D01*
X133223000Y-76073000D01*
X133223000Y-74879845D01*
X132993110Y-74758524D01*
X132845901Y-74803175D01*
X132583080Y-74928359D01*
X132349731Y-75102412D01*
X132154822Y-75318645D01*
X132085195Y-75435534D01*
X131963475Y-75253368D01*
X131826000Y-75115893D01*
X131826000Y-74474902D01*
X131830915Y-74425000D01*
X131811298Y-74225829D01*
X131753202Y-74034313D01*
X131683053Y-73903072D01*
X131950000Y-73903072D01*
X132123254Y-73886008D01*
X132289850Y-73835472D01*
X132443386Y-73753405D01*
X132577962Y-73642962D01*
X132688405Y-73508386D01*
X132743132Y-73406000D01*
X133956868Y-73406000D01*
X134011595Y-73508386D01*
X134122038Y-73642962D01*
X134256614Y-73753405D01*
X134410150Y-73835472D01*
X134576746Y-73886008D01*
X134750000Y-73903072D01*
X135016948Y-73903072D01*
X135016285Y-73904313D01*
X134946799Y-74034313D01*
X134888702Y-74225830D01*
X134869085Y-74425000D01*
X134874001Y-74474911D01*
X134874001Y-75115892D01*
X134736525Y-75253368D01*
X134614805Y-75435534D01*
X134545178Y-75318645D01*
X134350269Y-75102412D01*
X134116920Y-74928359D01*
X133854099Y-74803175D01*
X133706890Y-74758524D01*
X133477000Y-74879845D01*
X133477000Y-76073000D01*
X133497000Y-76073000D01*
X133497000Y-76327000D01*
X133477000Y-76327000D01*
X133477000Y-77520155D01*
X133706890Y-77641476D01*
X133854099Y-77596825D01*
X134116920Y-77471641D01*
X134350269Y-77297588D01*
X134545178Y-77081355D01*
X134614805Y-76964466D01*
X134736525Y-77146632D01*
X134943368Y-77353475D01*
X135186589Y-77515990D01*
X135456842Y-77627932D01*
X135743740Y-77685000D01*
X136036260Y-77685000D01*
X136323158Y-77627932D01*
X136593411Y-77515990D01*
X136836632Y-77353475D01*
X137043475Y-77146632D01*
X137160000Y-76972240D01*
X137276525Y-77146632D01*
X137483368Y-77353475D01*
X137726589Y-77515990D01*
X137996842Y-77627932D01*
X138283740Y-77685000D01*
X138576260Y-77685000D01*
X138863158Y-77627932D01*
X139133411Y-77515990D01*
X139376632Y-77353475D01*
X139583475Y-77146632D01*
X139700000Y-76972240D01*
X139816525Y-77146632D01*
X140023368Y-77353475D01*
X140266589Y-77515990D01*
X140536842Y-77627932D01*
X140823740Y-77685000D01*
X141116260Y-77685000D01*
X141403158Y-77627932D01*
X141673411Y-77515990D01*
X141916632Y-77353475D01*
X142123475Y-77146632D01*
X142240000Y-76972240D01*
X142356525Y-77146632D01*
X142563368Y-77353475D01*
X142806589Y-77515990D01*
X143076842Y-77627932D01*
X143363740Y-77685000D01*
X143656260Y-77685000D01*
X143943158Y-77627932D01*
X144213411Y-77515990D01*
X144456632Y-77353475D01*
X144663475Y-77146632D01*
X144785195Y-76964466D01*
X144854822Y-77081355D01*
X145049731Y-77297588D01*
X145283080Y-77471641D01*
X145545901Y-77596825D01*
X145693110Y-77641476D01*
X145923000Y-77520155D01*
X145923000Y-76327000D01*
X145903000Y-76327000D01*
X145903000Y-76073000D01*
X145923000Y-76073000D01*
X145923000Y-74879845D01*
X145693110Y-74758524D01*
X145545901Y-74803175D01*
X145283080Y-74928359D01*
X145049731Y-75102412D01*
X144854822Y-75318645D01*
X144785195Y-75435534D01*
X144663475Y-75253368D01*
X144526000Y-75115893D01*
X144526000Y-74474902D01*
X144530915Y-74425000D01*
X144511298Y-74225829D01*
X144453202Y-74034313D01*
X144383053Y-73903072D01*
X144650000Y-73903072D01*
X144823254Y-73886008D01*
X144989850Y-73835472D01*
X145143386Y-73753405D01*
X145277962Y-73642962D01*
X145388405Y-73508386D01*
X145443132Y-73406000D01*
X146786868Y-73406000D01*
X146841595Y-73508386D01*
X146952038Y-73642962D01*
X147086614Y-73753405D01*
X147240150Y-73835472D01*
X147406746Y-73886008D01*
X147580000Y-73903072D01*
X147810684Y-73903072D01*
X147741141Y-73987810D01*
X147683404Y-74095829D01*
X147646799Y-74164313D01*
X147588702Y-74355830D01*
X147569085Y-74555000D01*
X147574001Y-74604911D01*
X147574001Y-75115892D01*
X147436525Y-75253368D01*
X147314805Y-75435534D01*
X147245178Y-75318645D01*
X147050269Y-75102412D01*
X146816920Y-74928359D01*
X146554099Y-74803175D01*
X146406890Y-74758524D01*
X146177000Y-74879845D01*
X146177000Y-76073000D01*
X146197000Y-76073000D01*
X146197000Y-76327000D01*
X146177000Y-76327000D01*
X146177000Y-77520155D01*
X146406890Y-77641476D01*
X146554099Y-77596825D01*
X146816920Y-77471641D01*
X147050269Y-77297588D01*
X147245178Y-77081355D01*
X147314805Y-76964466D01*
X147436525Y-77146632D01*
X147643368Y-77353475D01*
X147886589Y-77515990D01*
X148156842Y-77627932D01*
X148443740Y-77685000D01*
X148736260Y-77685000D01*
X149023158Y-77627932D01*
X149293411Y-77515990D01*
X149536632Y-77353475D01*
X149743475Y-77146632D01*
X149860000Y-76972240D01*
X149976525Y-77146632D01*
X150183368Y-77353475D01*
X150426589Y-77515990D01*
X150696842Y-77627932D01*
X150983740Y-77685000D01*
X151276260Y-77685000D01*
X151563158Y-77627932D01*
X151833411Y-77515990D01*
X152076632Y-77353475D01*
X152283475Y-77146632D01*
X152400000Y-76972240D01*
X152516525Y-77146632D01*
X152723368Y-77353475D01*
X152966589Y-77515990D01*
X153236842Y-77627932D01*
X153523740Y-77685000D01*
X153816260Y-77685000D01*
X154103158Y-77627932D01*
X154373411Y-77515990D01*
X154616632Y-77353475D01*
X154823475Y-77146632D01*
X154940000Y-76972240D01*
X155056525Y-77146632D01*
X155263368Y-77353475D01*
X155506589Y-77515990D01*
X155776842Y-77627932D01*
X156063740Y-77685000D01*
X156356260Y-77685000D01*
X156643158Y-77627932D01*
X156913411Y-77515990D01*
X157156632Y-77353475D01*
X157363475Y-77146632D01*
X157485195Y-76964466D01*
X157554822Y-77081355D01*
X157749731Y-77297588D01*
X157983080Y-77471641D01*
X158245901Y-77596825D01*
X158393110Y-77641476D01*
X158623000Y-77520155D01*
X158623000Y-76327000D01*
X158603000Y-76327000D01*
X158603000Y-76073000D01*
X158623000Y-76073000D01*
X158623000Y-74879845D01*
X158393110Y-74758524D01*
X158245901Y-74803175D01*
X157983080Y-74928359D01*
X157749731Y-75102412D01*
X157554822Y-75318645D01*
X157485195Y-75435534D01*
X157363475Y-75253368D01*
X157226000Y-75115893D01*
X157226000Y-74474902D01*
X157230915Y-74425000D01*
X157211298Y-74225829D01*
X157153202Y-74034313D01*
X157083053Y-73903072D01*
X157350000Y-73903072D01*
X157523254Y-73886008D01*
X157689850Y-73835472D01*
X157843386Y-73753405D01*
X157977962Y-73642962D01*
X158088405Y-73508386D01*
X158143132Y-73406000D01*
X159356868Y-73406000D01*
X159411595Y-73508386D01*
X159522038Y-73642962D01*
X159656614Y-73753405D01*
X159810150Y-73835472D01*
X159976746Y-73886008D01*
X160150000Y-73903072D01*
X160416948Y-73903072D01*
X160416285Y-73904313D01*
X160346799Y-74034313D01*
X160288702Y-74225830D01*
X160269085Y-74425000D01*
X160274001Y-74474911D01*
X160274001Y-75115892D01*
X160136525Y-75253368D01*
X160014805Y-75435534D01*
X159945178Y-75318645D01*
X159750269Y-75102412D01*
X159516920Y-74928359D01*
X159254099Y-74803175D01*
X159106890Y-74758524D01*
X158877000Y-74879845D01*
X158877000Y-76073000D01*
X158897000Y-76073000D01*
X158897000Y-76327000D01*
X158877000Y-76327000D01*
X158877000Y-77520155D01*
X159106890Y-77641476D01*
X159254099Y-77596825D01*
X159516920Y-77471641D01*
X159750269Y-77297588D01*
X159945178Y-77081355D01*
X160014805Y-76964466D01*
X160136525Y-77146632D01*
X160343368Y-77353475D01*
X160586589Y-77515990D01*
X160856842Y-77627932D01*
X161143740Y-77685000D01*
X161436260Y-77685000D01*
X161723158Y-77627932D01*
X161993411Y-77515990D01*
X162236632Y-77353475D01*
X162443475Y-77146632D01*
X162560000Y-76972240D01*
X162676525Y-77146632D01*
X162883368Y-77353475D01*
X163126589Y-77515990D01*
X163396842Y-77627932D01*
X163683740Y-77685000D01*
X163976260Y-77685000D01*
X164263158Y-77627932D01*
X164533411Y-77515990D01*
X164776632Y-77353475D01*
X164983475Y-77146632D01*
X165145990Y-76903411D01*
X165257932Y-76633158D01*
X165315000Y-76346260D01*
X165315000Y-76053740D01*
X165257932Y-75766842D01*
X165145990Y-75496589D01*
X165027998Y-75320000D01*
X169936928Y-75320000D01*
X169936928Y-76070000D01*
X169953992Y-76243254D01*
X170004528Y-76409850D01*
X170086595Y-76563386D01*
X170197038Y-76697962D01*
X170331614Y-76808405D01*
X170434000Y-76863132D01*
X170434001Y-78076868D01*
X170331614Y-78131595D01*
X170197038Y-78242038D01*
X170086595Y-78376614D01*
X170004528Y-78530150D01*
X169953992Y-78696746D01*
X169936928Y-78870000D01*
X169936928Y-79620000D01*
X169953992Y-79793254D01*
X170004528Y-79959850D01*
X170086595Y-80113386D01*
X170197038Y-80247962D01*
X170331614Y-80358405D01*
X170485150Y-80440472D01*
X170651746Y-80491008D01*
X170825000Y-80508072D01*
X172075000Y-80508072D01*
X172248254Y-80491008D01*
X172414850Y-80440472D01*
X172568386Y-80358405D01*
X172702962Y-80247962D01*
X172813405Y-80113386D01*
X172895472Y-79959850D01*
X172946008Y-79793254D01*
X172963072Y-79620000D01*
X172963072Y-78870000D01*
X172946008Y-78696746D01*
X172895472Y-78530150D01*
X172813405Y-78376614D01*
X172702962Y-78242038D01*
X172568386Y-78131595D01*
X172466000Y-78076868D01*
X172466000Y-76863132D01*
X172568386Y-76808405D01*
X172702962Y-76697962D01*
X172813405Y-76563386D01*
X172895472Y-76409850D01*
X172946008Y-76243254D01*
X172963072Y-76070000D01*
X172963072Y-75320000D01*
X172946008Y-75146746D01*
X172895472Y-74980150D01*
X172813405Y-74826614D01*
X172702962Y-74692038D01*
X172568386Y-74581595D01*
X172414850Y-74499528D01*
X172248254Y-74448992D01*
X172075000Y-74431928D01*
X170825000Y-74431928D01*
X170651746Y-74448992D01*
X170485150Y-74499528D01*
X170331614Y-74581595D01*
X170197038Y-74692038D01*
X170086595Y-74826614D01*
X170004528Y-74980150D01*
X169953992Y-75146746D01*
X169936928Y-75320000D01*
X165027998Y-75320000D01*
X164983475Y-75253368D01*
X164776632Y-75046525D01*
X164533411Y-74884010D01*
X164263158Y-74772068D01*
X163976260Y-74715000D01*
X163683740Y-74715000D01*
X163396842Y-74772068D01*
X163126589Y-74884010D01*
X162883368Y-75046525D01*
X162676525Y-75253368D01*
X162560000Y-75427760D01*
X162443475Y-75253368D01*
X162306000Y-75115893D01*
X162306000Y-74845840D01*
X163248769Y-73903072D01*
X163700000Y-73903072D01*
X163873254Y-73886008D01*
X164039850Y-73835472D01*
X164193386Y-73753405D01*
X164327962Y-73642962D01*
X164438405Y-73508386D01*
X164520472Y-73354850D01*
X164571008Y-73188254D01*
X164588072Y-73015000D01*
X164588072Y-71765000D01*
X164571008Y-71591746D01*
X164543481Y-71501000D01*
X169759160Y-71501000D01*
X170175924Y-71917765D01*
X170086595Y-72026614D01*
X170004528Y-72180150D01*
X169953992Y-72346746D01*
X169936928Y-72520000D01*
X169936928Y-73270000D01*
X169953992Y-73443254D01*
X170004528Y-73609850D01*
X170086595Y-73763386D01*
X170197038Y-73897962D01*
X170331614Y-74008405D01*
X170485150Y-74090472D01*
X170651746Y-74141008D01*
X170825000Y-74158072D01*
X172075000Y-74158072D01*
X172248254Y-74141008D01*
X172414850Y-74090472D01*
X172568386Y-74008405D01*
X172702962Y-73897962D01*
X172813405Y-73763386D01*
X172895472Y-73609850D01*
X172946008Y-73443254D01*
X172963072Y-73270000D01*
X172963072Y-72520000D01*
X172946008Y-72346746D01*
X172895472Y-72180150D01*
X172813405Y-72026614D01*
X172702962Y-71892038D01*
X172568386Y-71781595D01*
X172468263Y-71728078D01*
X172466000Y-71705105D01*
X172466000Y-71705098D01*
X172451298Y-71555829D01*
X172393202Y-71364313D01*
X172298860Y-71187810D01*
X172171896Y-71033104D01*
X172133133Y-71001292D01*
X170933712Y-69801872D01*
X170901896Y-69763104D01*
X170747190Y-69636140D01*
X170570687Y-69541798D01*
X170379171Y-69483702D01*
X170229902Y-69469000D01*
X170180000Y-69464085D01*
X170130098Y-69469000D01*
X154354902Y-69469000D01*
X154305000Y-69464085D01*
X154255098Y-69469000D01*
X141654902Y-69469000D01*
X141605000Y-69464085D01*
X141555098Y-69469000D01*
X128954902Y-69469000D01*
X128905000Y-69464085D01*
X128855098Y-69469000D01*
X116254902Y-69469000D01*
X116205000Y-69464085D01*
X116155098Y-69469000D01*
X103554902Y-69469000D01*
X103505000Y-69464085D01*
X103455098Y-69469000D01*
X90854902Y-69469000D01*
X90805000Y-69464085D01*
X90755098Y-69469000D01*
X78154902Y-69469000D01*
X78105000Y-69464085D01*
X78055098Y-69469000D01*
X65454902Y-69469000D01*
X65405000Y-69464085D01*
X65355098Y-69469000D01*
X65205829Y-69483702D01*
X65014313Y-69541798D01*
X64837810Y-69636140D01*
X64683104Y-69763104D01*
X64556140Y-69917810D01*
X64461798Y-70094313D01*
X64403702Y-70285829D01*
X64384085Y-70485000D01*
X64389001Y-70534912D01*
X64389001Y-71152924D01*
X64291595Y-71271614D01*
X64209528Y-71425150D01*
X64158992Y-71591746D01*
X64141928Y-71765000D01*
X64141928Y-73015000D01*
X64158992Y-73188254D01*
X64209528Y-73354850D01*
X64291595Y-73508386D01*
X64402038Y-73642962D01*
X64536614Y-73753405D01*
X64690150Y-73835472D01*
X64856746Y-73886008D01*
X65030000Y-73903072D01*
X65481232Y-73903072D01*
X66294001Y-74715842D01*
X66294001Y-75115892D01*
X66231513Y-75178380D01*
X66209502Y-75105820D01*
X66150537Y-74995506D01*
X66071185Y-74898815D01*
X65974494Y-74819463D01*
X65864180Y-74760498D01*
X65744482Y-74724188D01*
X65620000Y-74711928D01*
X63920000Y-74711928D01*
X63795518Y-74724188D01*
X63675820Y-74760498D01*
X63565506Y-74819463D01*
X63468815Y-74898815D01*
X63389463Y-74995506D01*
X63330498Y-75105820D01*
X63294188Y-75225518D01*
X63281928Y-75350000D01*
X51460000Y-75350000D01*
X51460000Y-64454385D01*
X61565505Y-64454385D01*
X61565505Y-65085615D01*
X61688652Y-65704717D01*
X61930214Y-66287897D01*
X62280906Y-66812746D01*
X62727254Y-67259094D01*
X63252103Y-67609786D01*
X63835283Y-67851348D01*
X64454385Y-67974495D01*
X65085615Y-67974495D01*
X65704717Y-67851348D01*
X66287897Y-67609786D01*
X66812746Y-67259094D01*
X67259094Y-66812746D01*
X67609786Y-66287897D01*
X67851348Y-65704717D01*
X67974495Y-65085615D01*
X67974495Y-64454385D01*
X74265505Y-64454385D01*
X74265505Y-65085615D01*
X74388652Y-65704717D01*
X74630214Y-66287897D01*
X74980906Y-66812746D01*
X75427254Y-67259094D01*
X75952103Y-67609786D01*
X76535283Y-67851348D01*
X77154385Y-67974495D01*
X77785615Y-67974495D01*
X78404717Y-67851348D01*
X78987897Y-67609786D01*
X79512746Y-67259094D01*
X79959094Y-66812746D01*
X80309786Y-66287897D01*
X80551348Y-65704717D01*
X80674495Y-65085615D01*
X80674495Y-64454385D01*
X86965505Y-64454385D01*
X86965505Y-65085615D01*
X87088652Y-65704717D01*
X87330214Y-66287897D01*
X87680906Y-66812746D01*
X88127254Y-67259094D01*
X88652103Y-67609786D01*
X89235283Y-67851348D01*
X89854385Y-67974495D01*
X90485615Y-67974495D01*
X91104717Y-67851348D01*
X91687897Y-67609786D01*
X92212746Y-67259094D01*
X92659094Y-66812746D01*
X93009786Y-66287897D01*
X93251348Y-65704717D01*
X93374495Y-65085615D01*
X93374495Y-64454385D01*
X99665505Y-64454385D01*
X99665505Y-65085615D01*
X99788652Y-65704717D01*
X100030214Y-66287897D01*
X100380906Y-66812746D01*
X100827254Y-67259094D01*
X101352103Y-67609786D01*
X101935283Y-67851348D01*
X102554385Y-67974495D01*
X103185615Y-67974495D01*
X103804717Y-67851348D01*
X104387897Y-67609786D01*
X104912746Y-67259094D01*
X105359094Y-66812746D01*
X105709786Y-66287897D01*
X105951348Y-65704717D01*
X106074495Y-65085615D01*
X106074495Y-64454385D01*
X112365505Y-64454385D01*
X112365505Y-65085615D01*
X112488652Y-65704717D01*
X112730214Y-66287897D01*
X113080906Y-66812746D01*
X113527254Y-67259094D01*
X114052103Y-67609786D01*
X114635283Y-67851348D01*
X115254385Y-67974495D01*
X115885615Y-67974495D01*
X116504717Y-67851348D01*
X117087897Y-67609786D01*
X117612746Y-67259094D01*
X118059094Y-66812746D01*
X118409786Y-66287897D01*
X118651348Y-65704717D01*
X118774495Y-65085615D01*
X118774495Y-64644885D01*
X125065505Y-64644885D01*
X125065505Y-65276115D01*
X125188652Y-65895217D01*
X125430214Y-66478397D01*
X125780906Y-67003246D01*
X126227254Y-67449594D01*
X126752103Y-67800286D01*
X127335283Y-68041848D01*
X127954385Y-68164995D01*
X128585615Y-68164995D01*
X129204717Y-68041848D01*
X129787897Y-67800286D01*
X130312746Y-67449594D01*
X130759094Y-67003246D01*
X131109786Y-66478397D01*
X131351348Y-65895217D01*
X131474495Y-65276115D01*
X131474495Y-64644885D01*
X131436603Y-64454385D01*
X137765505Y-64454385D01*
X137765505Y-65085615D01*
X137888652Y-65704717D01*
X138130214Y-66287897D01*
X138480906Y-66812746D01*
X138927254Y-67259094D01*
X139452103Y-67609786D01*
X140035283Y-67851348D01*
X140654385Y-67974495D01*
X141285615Y-67974495D01*
X141904717Y-67851348D01*
X142487897Y-67609786D01*
X143012746Y-67259094D01*
X143459094Y-66812746D01*
X143809786Y-66287897D01*
X144051348Y-65704717D01*
X144174495Y-65085615D01*
X144174495Y-64454385D01*
X150465505Y-64454385D01*
X150465505Y-65085615D01*
X150588652Y-65704717D01*
X150830214Y-66287897D01*
X151180906Y-66812746D01*
X151627254Y-67259094D01*
X152152103Y-67609786D01*
X152735283Y-67851348D01*
X153354385Y-67974495D01*
X153985615Y-67974495D01*
X154604717Y-67851348D01*
X155187897Y-67609786D01*
X155712746Y-67259094D01*
X156159094Y-66812746D01*
X156509786Y-66287897D01*
X156751348Y-65704717D01*
X156874495Y-65085615D01*
X156874495Y-64454385D01*
X156751348Y-63835283D01*
X156509786Y-63252103D01*
X156159094Y-62727254D01*
X155712746Y-62280906D01*
X155187897Y-61930214D01*
X154604717Y-61688652D01*
X153985615Y-61565505D01*
X153354385Y-61565505D01*
X152735283Y-61688652D01*
X152152103Y-61930214D01*
X151627254Y-62280906D01*
X151180906Y-62727254D01*
X150830214Y-63252103D01*
X150588652Y-63835283D01*
X150465505Y-64454385D01*
X144174495Y-64454385D01*
X144051348Y-63835283D01*
X143809786Y-63252103D01*
X143459094Y-62727254D01*
X143012746Y-62280906D01*
X142487897Y-61930214D01*
X141904717Y-61688652D01*
X141285615Y-61565505D01*
X140654385Y-61565505D01*
X140035283Y-61688652D01*
X139452103Y-61930214D01*
X138927254Y-62280906D01*
X138480906Y-62727254D01*
X138130214Y-63252103D01*
X137888652Y-63835283D01*
X137765505Y-64454385D01*
X131436603Y-64454385D01*
X131351348Y-64025783D01*
X131109786Y-63442603D01*
X130759094Y-62917754D01*
X130312746Y-62471406D01*
X129787897Y-62120714D01*
X129204717Y-61879152D01*
X128585615Y-61756005D01*
X127954385Y-61756005D01*
X127335283Y-61879152D01*
X126752103Y-62120714D01*
X126227254Y-62471406D01*
X125780906Y-62917754D01*
X125430214Y-63442603D01*
X125188652Y-64025783D01*
X125065505Y-64644885D01*
X118774495Y-64644885D01*
X118774495Y-64454385D01*
X118651348Y-63835283D01*
X118409786Y-63252103D01*
X118059094Y-62727254D01*
X117612746Y-62280906D01*
X117087897Y-61930214D01*
X116504717Y-61688652D01*
X115885615Y-61565505D01*
X115254385Y-61565505D01*
X114635283Y-61688652D01*
X114052103Y-61930214D01*
X113527254Y-62280906D01*
X113080906Y-62727254D01*
X112730214Y-63252103D01*
X112488652Y-63835283D01*
X112365505Y-64454385D01*
X106074495Y-64454385D01*
X105951348Y-63835283D01*
X105709786Y-63252103D01*
X105359094Y-62727254D01*
X104912746Y-62280906D01*
X104387897Y-61930214D01*
X103804717Y-61688652D01*
X103185615Y-61565505D01*
X102554385Y-61565505D01*
X101935283Y-61688652D01*
X101352103Y-61930214D01*
X100827254Y-62280906D01*
X100380906Y-62727254D01*
X100030214Y-63252103D01*
X99788652Y-63835283D01*
X99665505Y-64454385D01*
X93374495Y-64454385D01*
X93251348Y-63835283D01*
X93009786Y-63252103D01*
X92659094Y-62727254D01*
X92212746Y-62280906D01*
X91687897Y-61930214D01*
X91104717Y-61688652D01*
X90485615Y-61565505D01*
X89854385Y-61565505D01*
X89235283Y-61688652D01*
X88652103Y-61930214D01*
X88127254Y-62280906D01*
X87680906Y-62727254D01*
X87330214Y-63252103D01*
X87088652Y-63835283D01*
X86965505Y-64454385D01*
X80674495Y-64454385D01*
X80551348Y-63835283D01*
X80309786Y-63252103D01*
X79959094Y-62727254D01*
X79512746Y-62280906D01*
X78987897Y-61930214D01*
X78404717Y-61688652D01*
X77785615Y-61565505D01*
X77154385Y-61565505D01*
X76535283Y-61688652D01*
X75952103Y-61930214D01*
X75427254Y-62280906D01*
X74980906Y-62727254D01*
X74630214Y-63252103D01*
X74388652Y-63835283D01*
X74265505Y-64454385D01*
X67974495Y-64454385D01*
X67851348Y-63835283D01*
X67609786Y-63252103D01*
X67259094Y-62727254D01*
X66812746Y-62280906D01*
X66287897Y-61930214D01*
X65704717Y-61688652D01*
X65085615Y-61565505D01*
X64454385Y-61565505D01*
X63835283Y-61688652D01*
X63252103Y-61930214D01*
X62727254Y-62280906D01*
X62280906Y-62727254D01*
X61930214Y-63252103D01*
X61688652Y-63835283D01*
X61565505Y-64454385D01*
X51460000Y-64454385D01*
X51460000Y-60985000D01*
X177140001Y-60985000D01*
X177140000Y-110465000D01*
M02*
