M48
; DRILL file {KiCad 5.1.2+dfsg1-1} date Tue 11 Jun 2019 02:10:22 PM CDT
; FORMAT={-:-/ absolute / inch / decimal}
; #@! TF.CreationDate,2019-06-11T14:10:22-05:00
; #@! TF.GenerationSoftware,Kicad,Pcbnew,5.1.2+dfsg1-1
; #@! TF.FileFunction,Plated,1,2,PTH
FMAT,2
INCH
T1C0.0157
T2C0.0315
T3C0.0433
T4C0.0472
T5C0.0591
%
G90
G05
T1
X3.8Y-3.15
X4.35Y-2.5
X4.7Y-3.15
X5.35Y-2.75
X5.35Y-3.15
X5.55Y-3.3
T2
X4.9Y-2.9
X4.9Y-3.2
X5.0Y-2.9
X5.0Y-3.2
X5.1Y-2.9
X5.1Y-3.2
X5.2Y-2.9
X5.2Y-3.2
X3.4016Y-2.7
X3.5Y-2.7
X3.7Y-2.8
X4.1Y-2.8
X5.05Y-3.45
X5.05Y-3.55
X5.05Y-3.65
X5.05Y-3.75
X5.35Y-3.45
X5.35Y-3.55
X5.35Y-3.65
X5.35Y-3.75
X4.6Y-2.3
X4.6Y-2.4
X4.6Y-2.5
X4.3Y-3.5
X4.3Y-3.6
X4.3Y-3.7
X4.5Y-2.0
X4.9Y-2.0
X3.8016Y-2.0
X3.9Y-2.0
X4.3Y-2.3
X4.3Y-2.7
X3.2Y-3.5
X3.2Y-3.6
X3.2Y-3.7
X3.65Y-3.45
X3.65Y-3.55
X3.65Y-3.65
X3.65Y-3.75
X3.95Y-3.45
X3.95Y-3.55
X3.95Y-3.65
X3.95Y-3.75
X3.1Y-3.1
X3.1Y-3.1984
X3.1Y-2.2
X3.1Y-2.2984
X5.55Y-2.6
X5.55Y-2.9
X5.65Y-2.6
X5.65Y-2.9
X5.75Y-2.6
X5.75Y-2.9
X5.85Y-2.6
X5.85Y-2.9
X5.7Y-3.5
X5.7Y-3.6
X5.7Y-3.7
X4.9Y-2.3
X4.9Y-2.6
X5.0Y-2.3
X5.0Y-2.6
X5.1Y-2.3
X5.1Y-2.6
X5.2Y-2.3
X5.2Y-2.6
X3.8Y-2.3
X3.8Y-2.6
X3.9Y-2.3
X3.9Y-2.6
X4.0Y-2.3
X4.0Y-2.6
X4.1Y-2.3
X4.1Y-2.6
X4.7Y-3.5
X4.7Y-3.6
X4.7Y-3.7
T3
X3.1Y-2.6
X3.1Y-2.7
X3.1Y-2.8
T4
X4.1Y-4.05
X4.2Y-4.05
X3.4Y-2.0
X3.5Y-2.0
X5.5Y-2.3
X5.6Y-2.3
X5.5Y-4.05
X5.6Y-4.05
X3.4Y-4.05
X3.5Y-4.05
X4.8Y-4.05
X4.9Y-4.05
T5
X5.15Y-2.0
X2.85Y-2.95
X5.35Y-2.0
X4.3Y-2.9
X2.85Y-3.35
X4.7Y-2.75
T0
M30
