G04 #@! TF.GenerationSoftware,KiCad,Pcbnew,5.1.2+dfsg1-1*
G04 #@! TF.CreationDate,2019-06-11T14:10:43-05:00*
G04 #@! TF.ProjectId,galvanostat,67616c76-616e-46f7-9374-61742e6b6963,C*
G04 #@! TF.SameCoordinates,Original*
G04 #@! TF.FileFunction,Copper,L1,Top*
G04 #@! TF.FilePolarity,Positive*
%FSLAX46Y46*%
G04 Gerber Fmt 4.6, Leading zero omitted, Abs format (unit mm)*
G04 Created by KiCad (PCBNEW 5.1.2+dfsg1-1) date 2019-06-11 14:10:43*
%MOMM*%
%LPD*%
G04 APERTURE LIST*
%ADD10O,1.740000X2.200000*%
%ADD11C,0.100000*%
%ADD12C,1.740000*%
%ADD13O,2.400000X1.600000*%
%ADD14R,2.400000X1.600000*%
%ADD15C,1.440000*%
%ADD16O,1.600000X2.400000*%
%ADD17R,1.600000X2.400000*%
%ADD18R,1.600000X1.600000*%
%ADD19C,1.600000*%
%ADD20O,1.600000X1.600000*%
%ADD21R,2.000000X1.905000*%
%ADD22O,2.000000X1.905000*%
%ADD23C,3.000000*%
%ADD24C,0.800000*%
%ADD25C,0.762000*%
G04 APERTURE END LIST*
D10*
X124460000Y-102870000D03*
D11*
G36*
X122564505Y-101771204D02*
G01*
X122588773Y-101774804D01*
X122612572Y-101780765D01*
X122635671Y-101789030D01*
X122657850Y-101799520D01*
X122678893Y-101812132D01*
X122698599Y-101826747D01*
X122716777Y-101843223D01*
X122733253Y-101861401D01*
X122747868Y-101881107D01*
X122760480Y-101902150D01*
X122770970Y-101924329D01*
X122779235Y-101947428D01*
X122785196Y-101971227D01*
X122788796Y-101995495D01*
X122790000Y-102019999D01*
X122790000Y-103720001D01*
X122788796Y-103744505D01*
X122785196Y-103768773D01*
X122779235Y-103792572D01*
X122770970Y-103815671D01*
X122760480Y-103837850D01*
X122747868Y-103858893D01*
X122733253Y-103878599D01*
X122716777Y-103896777D01*
X122698599Y-103913253D01*
X122678893Y-103927868D01*
X122657850Y-103940480D01*
X122635671Y-103950970D01*
X122612572Y-103959235D01*
X122588773Y-103965196D01*
X122564505Y-103968796D01*
X122540001Y-103970000D01*
X121299999Y-103970000D01*
X121275495Y-103968796D01*
X121251227Y-103965196D01*
X121227428Y-103959235D01*
X121204329Y-103950970D01*
X121182150Y-103940480D01*
X121161107Y-103927868D01*
X121141401Y-103913253D01*
X121123223Y-103896777D01*
X121106747Y-103878599D01*
X121092132Y-103858893D01*
X121079520Y-103837850D01*
X121069030Y-103815671D01*
X121060765Y-103792572D01*
X121054804Y-103768773D01*
X121051204Y-103744505D01*
X121050000Y-103720001D01*
X121050000Y-102019999D01*
X121051204Y-101995495D01*
X121054804Y-101971227D01*
X121060765Y-101947428D01*
X121069030Y-101924329D01*
X121079520Y-101902150D01*
X121092132Y-101881107D01*
X121106747Y-101861401D01*
X121123223Y-101843223D01*
X121141401Y-101826747D01*
X121161107Y-101812132D01*
X121182150Y-101799520D01*
X121204329Y-101789030D01*
X121227428Y-101780765D01*
X121251227Y-101774804D01*
X121275495Y-101771204D01*
X121299999Y-101770000D01*
X122540001Y-101770000D01*
X122564505Y-101771204D01*
X122564505Y-101771204D01*
G37*
D12*
X121920000Y-102870000D03*
D13*
X135890000Y-87630000D03*
X128270000Y-95250000D03*
X135890000Y-90170000D03*
X128270000Y-92710000D03*
X135890000Y-92710000D03*
X128270000Y-90170000D03*
X135890000Y-95250000D03*
D14*
X128270000Y-87630000D03*
D15*
X144780000Y-93980000D03*
X144780000Y-91440000D03*
X144780000Y-88900000D03*
X119380000Y-93980000D03*
X119380000Y-91440000D03*
X119380000Y-88900000D03*
D10*
X142240000Y-102870000D03*
D11*
G36*
X140344505Y-101771204D02*
G01*
X140368773Y-101774804D01*
X140392572Y-101780765D01*
X140415671Y-101789030D01*
X140437850Y-101799520D01*
X140458893Y-101812132D01*
X140478599Y-101826747D01*
X140496777Y-101843223D01*
X140513253Y-101861401D01*
X140527868Y-101881107D01*
X140540480Y-101902150D01*
X140550970Y-101924329D01*
X140559235Y-101947428D01*
X140565196Y-101971227D01*
X140568796Y-101995495D01*
X140570000Y-102019999D01*
X140570000Y-103720001D01*
X140568796Y-103744505D01*
X140565196Y-103768773D01*
X140559235Y-103792572D01*
X140550970Y-103815671D01*
X140540480Y-103837850D01*
X140527868Y-103858893D01*
X140513253Y-103878599D01*
X140496777Y-103896777D01*
X140478599Y-103913253D01*
X140458893Y-103927868D01*
X140437850Y-103940480D01*
X140415671Y-103950970D01*
X140392572Y-103959235D01*
X140368773Y-103965196D01*
X140344505Y-103968796D01*
X140320001Y-103970000D01*
X139079999Y-103970000D01*
X139055495Y-103968796D01*
X139031227Y-103965196D01*
X139007428Y-103959235D01*
X138984329Y-103950970D01*
X138962150Y-103940480D01*
X138941107Y-103927868D01*
X138921401Y-103913253D01*
X138903223Y-103896777D01*
X138886747Y-103878599D01*
X138872132Y-103858893D01*
X138859520Y-103837850D01*
X138849030Y-103815671D01*
X138840765Y-103792572D01*
X138834804Y-103768773D01*
X138831204Y-103744505D01*
X138830000Y-103720001D01*
X138830000Y-102019999D01*
X138831204Y-101995495D01*
X138834804Y-101971227D01*
X138840765Y-101947428D01*
X138849030Y-101924329D01*
X138859520Y-101902150D01*
X138872132Y-101881107D01*
X138886747Y-101861401D01*
X138903223Y-101843223D01*
X138921401Y-101826747D01*
X138941107Y-101812132D01*
X138962150Y-101799520D01*
X138984329Y-101789030D01*
X139007428Y-101780765D01*
X139031227Y-101774804D01*
X139055495Y-101771204D01*
X139079999Y-101770000D01*
X140320001Y-101770000D01*
X140344505Y-101771204D01*
X140344505Y-101771204D01*
G37*
D12*
X139700000Y-102870000D03*
D16*
X104140000Y-66040000D03*
X96520000Y-58420000D03*
X101600000Y-66040000D03*
X99060000Y-58420000D03*
X99060000Y-66040000D03*
X101600000Y-58420000D03*
X96520000Y-66040000D03*
D17*
X104140000Y-58420000D03*
D18*
X78740000Y-55880000D03*
D19*
X78740000Y-58380000D03*
X78740000Y-81240000D03*
D18*
X78740000Y-78740000D03*
D15*
X109220000Y-93980000D03*
X109220000Y-91440000D03*
X109220000Y-88900000D03*
X81280000Y-88900000D03*
X81280000Y-91440000D03*
X81280000Y-93980000D03*
D18*
X99060000Y-50800000D03*
D19*
X96560000Y-50800000D03*
D15*
X116840000Y-63500000D03*
X116840000Y-60960000D03*
X116840000Y-58420000D03*
D10*
X88900000Y-50800000D03*
D11*
G36*
X87004505Y-49701204D02*
G01*
X87028773Y-49704804D01*
X87052572Y-49710765D01*
X87075671Y-49719030D01*
X87097850Y-49729520D01*
X87118893Y-49742132D01*
X87138599Y-49756747D01*
X87156777Y-49773223D01*
X87173253Y-49791401D01*
X87187868Y-49811107D01*
X87200480Y-49832150D01*
X87210970Y-49854329D01*
X87219235Y-49877428D01*
X87225196Y-49901227D01*
X87228796Y-49925495D01*
X87230000Y-49949999D01*
X87230000Y-51650001D01*
X87228796Y-51674505D01*
X87225196Y-51698773D01*
X87219235Y-51722572D01*
X87210970Y-51745671D01*
X87200480Y-51767850D01*
X87187868Y-51788893D01*
X87173253Y-51808599D01*
X87156777Y-51826777D01*
X87138599Y-51843253D01*
X87118893Y-51857868D01*
X87097850Y-51870480D01*
X87075671Y-51880970D01*
X87052572Y-51889235D01*
X87028773Y-51895196D01*
X87004505Y-51898796D01*
X86980001Y-51900000D01*
X85739999Y-51900000D01*
X85715495Y-51898796D01*
X85691227Y-51895196D01*
X85667428Y-51889235D01*
X85644329Y-51880970D01*
X85622150Y-51870480D01*
X85601107Y-51857868D01*
X85581401Y-51843253D01*
X85563223Y-51826777D01*
X85546747Y-51808599D01*
X85532132Y-51788893D01*
X85519520Y-51767850D01*
X85509030Y-51745671D01*
X85500765Y-51722572D01*
X85494804Y-51698773D01*
X85491204Y-51674505D01*
X85490000Y-51650001D01*
X85490000Y-49949999D01*
X85491204Y-49925495D01*
X85494804Y-49901227D01*
X85500765Y-49877428D01*
X85509030Y-49854329D01*
X85519520Y-49832150D01*
X85532132Y-49811107D01*
X85546747Y-49791401D01*
X85563223Y-49773223D01*
X85581401Y-49756747D01*
X85601107Y-49742132D01*
X85622150Y-49729520D01*
X85644329Y-49719030D01*
X85667428Y-49710765D01*
X85691227Y-49704804D01*
X85715495Y-49701204D01*
X85739999Y-49700000D01*
X86980001Y-49700000D01*
X87004505Y-49701204D01*
X87004505Y-49701204D01*
G37*
D12*
X86360000Y-50800000D03*
D11*
G36*
X87004505Y-101771204D02*
G01*
X87028773Y-101774804D01*
X87052572Y-101780765D01*
X87075671Y-101789030D01*
X87097850Y-101799520D01*
X87118893Y-101812132D01*
X87138599Y-101826747D01*
X87156777Y-101843223D01*
X87173253Y-101861401D01*
X87187868Y-101881107D01*
X87200480Y-101902150D01*
X87210970Y-101924329D01*
X87219235Y-101947428D01*
X87225196Y-101971227D01*
X87228796Y-101995495D01*
X87230000Y-102019999D01*
X87230000Y-103720001D01*
X87228796Y-103744505D01*
X87225196Y-103768773D01*
X87219235Y-103792572D01*
X87210970Y-103815671D01*
X87200480Y-103837850D01*
X87187868Y-103858893D01*
X87173253Y-103878599D01*
X87156777Y-103896777D01*
X87138599Y-103913253D01*
X87118893Y-103927868D01*
X87097850Y-103940480D01*
X87075671Y-103950970D01*
X87052572Y-103959235D01*
X87028773Y-103965196D01*
X87004505Y-103968796D01*
X86980001Y-103970000D01*
X85739999Y-103970000D01*
X85715495Y-103968796D01*
X85691227Y-103965196D01*
X85667428Y-103959235D01*
X85644329Y-103950970D01*
X85622150Y-103940480D01*
X85601107Y-103927868D01*
X85581401Y-103913253D01*
X85563223Y-103896777D01*
X85546747Y-103878599D01*
X85532132Y-103858893D01*
X85519520Y-103837850D01*
X85509030Y-103815671D01*
X85500765Y-103792572D01*
X85494804Y-103768773D01*
X85491204Y-103744505D01*
X85490000Y-103720001D01*
X85490000Y-102019999D01*
X85491204Y-101995495D01*
X85494804Y-101971227D01*
X85500765Y-101947428D01*
X85509030Y-101924329D01*
X85519520Y-101902150D01*
X85532132Y-101881107D01*
X85546747Y-101861401D01*
X85563223Y-101843223D01*
X85581401Y-101826747D01*
X85601107Y-101812132D01*
X85622150Y-101799520D01*
X85644329Y-101789030D01*
X85667428Y-101780765D01*
X85691227Y-101774804D01*
X85715495Y-101771204D01*
X85739999Y-101770000D01*
X86980001Y-101770000D01*
X87004505Y-101771204D01*
X87004505Y-101771204D01*
G37*
D12*
X86360000Y-102870000D03*
D10*
X88900000Y-102870000D03*
D11*
G36*
X104784505Y-101771204D02*
G01*
X104808773Y-101774804D01*
X104832572Y-101780765D01*
X104855671Y-101789030D01*
X104877850Y-101799520D01*
X104898893Y-101812132D01*
X104918599Y-101826747D01*
X104936777Y-101843223D01*
X104953253Y-101861401D01*
X104967868Y-101881107D01*
X104980480Y-101902150D01*
X104990970Y-101924329D01*
X104999235Y-101947428D01*
X105005196Y-101971227D01*
X105008796Y-101995495D01*
X105010000Y-102019999D01*
X105010000Y-103720001D01*
X105008796Y-103744505D01*
X105005196Y-103768773D01*
X104999235Y-103792572D01*
X104990970Y-103815671D01*
X104980480Y-103837850D01*
X104967868Y-103858893D01*
X104953253Y-103878599D01*
X104936777Y-103896777D01*
X104918599Y-103913253D01*
X104898893Y-103927868D01*
X104877850Y-103940480D01*
X104855671Y-103950970D01*
X104832572Y-103959235D01*
X104808773Y-103965196D01*
X104784505Y-103968796D01*
X104760001Y-103970000D01*
X103519999Y-103970000D01*
X103495495Y-103968796D01*
X103471227Y-103965196D01*
X103447428Y-103959235D01*
X103424329Y-103950970D01*
X103402150Y-103940480D01*
X103381107Y-103927868D01*
X103361401Y-103913253D01*
X103343223Y-103896777D01*
X103326747Y-103878599D01*
X103312132Y-103858893D01*
X103299520Y-103837850D01*
X103289030Y-103815671D01*
X103280765Y-103792572D01*
X103274804Y-103768773D01*
X103271204Y-103744505D01*
X103270000Y-103720001D01*
X103270000Y-102019999D01*
X103271204Y-101995495D01*
X103274804Y-101971227D01*
X103280765Y-101947428D01*
X103289030Y-101924329D01*
X103299520Y-101902150D01*
X103312132Y-101881107D01*
X103326747Y-101861401D01*
X103343223Y-101843223D01*
X103361401Y-101826747D01*
X103381107Y-101812132D01*
X103402150Y-101799520D01*
X103424329Y-101789030D01*
X103447428Y-101780765D01*
X103471227Y-101774804D01*
X103495495Y-101771204D01*
X103519999Y-101770000D01*
X104760001Y-101770000D01*
X104784505Y-101771204D01*
X104784505Y-101771204D01*
G37*
D12*
X104140000Y-102870000D03*
D10*
X106680000Y-102870000D03*
X142240000Y-58420000D03*
D11*
G36*
X140344505Y-57321204D02*
G01*
X140368773Y-57324804D01*
X140392572Y-57330765D01*
X140415671Y-57339030D01*
X140437850Y-57349520D01*
X140458893Y-57362132D01*
X140478599Y-57376747D01*
X140496777Y-57393223D01*
X140513253Y-57411401D01*
X140527868Y-57431107D01*
X140540480Y-57452150D01*
X140550970Y-57474329D01*
X140559235Y-57497428D01*
X140565196Y-57521227D01*
X140568796Y-57545495D01*
X140570000Y-57569999D01*
X140570000Y-59270001D01*
X140568796Y-59294505D01*
X140565196Y-59318773D01*
X140559235Y-59342572D01*
X140550970Y-59365671D01*
X140540480Y-59387850D01*
X140527868Y-59408893D01*
X140513253Y-59428599D01*
X140496777Y-59446777D01*
X140478599Y-59463253D01*
X140458893Y-59477868D01*
X140437850Y-59490480D01*
X140415671Y-59500970D01*
X140392572Y-59509235D01*
X140368773Y-59515196D01*
X140344505Y-59518796D01*
X140320001Y-59520000D01*
X139079999Y-59520000D01*
X139055495Y-59518796D01*
X139031227Y-59515196D01*
X139007428Y-59509235D01*
X138984329Y-59500970D01*
X138962150Y-59490480D01*
X138941107Y-59477868D01*
X138921401Y-59463253D01*
X138903223Y-59446777D01*
X138886747Y-59428599D01*
X138872132Y-59408893D01*
X138859520Y-59387850D01*
X138849030Y-59365671D01*
X138840765Y-59342572D01*
X138834804Y-59318773D01*
X138831204Y-59294505D01*
X138830000Y-59270001D01*
X138830000Y-57569999D01*
X138831204Y-57545495D01*
X138834804Y-57521227D01*
X138840765Y-57497428D01*
X138849030Y-57474329D01*
X138859520Y-57452150D01*
X138872132Y-57431107D01*
X138886747Y-57411401D01*
X138903223Y-57393223D01*
X138921401Y-57376747D01*
X138941107Y-57362132D01*
X138962150Y-57349520D01*
X138984329Y-57339030D01*
X139007428Y-57330765D01*
X139031227Y-57324804D01*
X139055495Y-57321204D01*
X139079999Y-57320000D01*
X140320001Y-57320000D01*
X140344505Y-57321204D01*
X140344505Y-57321204D01*
G37*
D12*
X139700000Y-58420000D03*
D18*
X88900000Y-68580000D03*
D19*
X86400000Y-68580000D03*
X114300000Y-50800000D03*
D20*
X124460000Y-50800000D03*
D21*
X78740000Y-66040000D03*
D22*
X78740000Y-68580000D03*
X78740000Y-71120000D03*
D17*
X132080000Y-58420000D03*
D16*
X124460000Y-66040000D03*
X129540000Y-58420000D03*
X127000000Y-66040000D03*
X127000000Y-58420000D03*
X129540000Y-66040000D03*
X124460000Y-58420000D03*
X132080000Y-66040000D03*
X140970000Y-66040000D03*
X148590000Y-73660000D03*
X143510000Y-66040000D03*
X146050000Y-73660000D03*
X146050000Y-66040000D03*
X143510000Y-73660000D03*
X148590000Y-66040000D03*
D17*
X140970000Y-73660000D03*
X124460000Y-81280000D03*
D16*
X132080000Y-73660000D03*
X127000000Y-81280000D03*
X129540000Y-73660000D03*
X129540000Y-81280000D03*
X127000000Y-73660000D03*
X132080000Y-81280000D03*
X124460000Y-73660000D03*
D14*
X92710000Y-87630000D03*
D13*
X100330000Y-95250000D03*
X92710000Y-90170000D03*
X100330000Y-92710000D03*
X92710000Y-92710000D03*
X100330000Y-90170000D03*
X92710000Y-95250000D03*
X100330000Y-87630000D03*
D23*
X72390000Y-74930000D03*
X72390000Y-85090000D03*
X135890000Y-50800000D03*
X130810000Y-50800000D03*
X109220000Y-73660000D03*
X119380000Y-69850000D03*
D20*
X93980000Y-71120000D03*
D19*
X104140000Y-71120000D03*
X109220000Y-68580000D03*
D20*
X109220000Y-58420000D03*
D24*
X110490000Y-63500000D03*
X135890000Y-80010000D03*
X140970000Y-83820000D03*
X135890000Y-69850000D03*
X119380000Y-80010000D03*
X96520000Y-80010000D03*
D25*
X93980000Y-71120000D02*
X99060000Y-71120000D01*
X99060000Y-71120000D02*
X99695000Y-71120000D01*
X102235000Y-68580000D02*
X105410000Y-68580000D01*
X105410000Y-68580000D02*
X110490000Y-63500000D01*
X104140000Y-77470000D02*
X104140000Y-75259000D01*
X104140000Y-75259000D02*
X100001000Y-71120000D01*
X99695000Y-71120000D02*
X100001000Y-71120000D01*
X100001000Y-71120000D02*
X102235000Y-68580000D01*
X110490000Y-63500000D02*
X110490000Y-63500000D01*
X100330000Y-81280000D02*
X104140000Y-77470000D01*
X100330000Y-87630000D02*
X100330000Y-81280000D01*
X135890000Y-80010000D02*
X135890000Y-87630000D01*
X77178000Y-78740000D02*
X78740000Y-78740000D01*
X76200000Y-79718000D02*
X77178000Y-78740000D01*
X76200000Y-81280000D02*
X76200000Y-79718000D01*
X72390000Y-85090000D02*
X76200000Y-81280000D01*
X92710000Y-95250000D02*
X93110000Y-95250000D01*
X140970000Y-83820000D02*
X140970000Y-90170000D01*
X140970000Y-90170000D02*
X142240000Y-91440000D01*
X142240000Y-91440000D02*
X144780000Y-91440000D01*
X86400000Y-50840000D02*
X86360000Y-50800000D01*
X78740000Y-58380000D02*
X81320000Y-58380000D01*
X86400000Y-68580000D02*
X86400000Y-53300000D01*
X81320000Y-58380000D02*
X86400000Y-53300000D01*
X86400000Y-53300000D02*
X86400000Y-50840000D01*
X102870000Y-90170000D02*
X100330000Y-90170000D01*
X104140000Y-102870000D02*
X104140000Y-91440000D01*
X104140000Y-91440000D02*
X102870000Y-90170000D01*
X90170000Y-90170000D02*
X92710000Y-90170000D01*
X88900000Y-102870000D02*
X88900000Y-91440000D01*
X88900000Y-91440000D02*
X90170000Y-90170000D01*
X86360000Y-102870000D02*
X86360000Y-90170000D01*
X86360000Y-90170000D02*
X88900000Y-87630000D01*
X88900000Y-87630000D02*
X92710000Y-87630000D01*
X135890000Y-63500000D02*
X135890000Y-69850000D01*
X132080000Y-58420000D02*
X134620000Y-58420000D01*
X134620000Y-58420000D02*
X135890000Y-59690000D01*
X135890000Y-63500000D02*
X135890000Y-59690000D01*
X135890000Y-59690000D02*
X135890000Y-50800000D01*
X135890000Y-59690000D02*
X137160000Y-58420000D01*
X137160000Y-58420000D02*
X139700000Y-58420000D01*
X143510000Y-68002000D02*
X143510000Y-66040000D01*
X140970000Y-68580000D02*
X142932000Y-68580000D01*
X132080000Y-77470000D02*
X140970000Y-68580000D01*
X142932000Y-68580000D02*
X143510000Y-68002000D01*
X127000000Y-81280000D02*
X127000000Y-79318000D01*
X127000000Y-79318000D02*
X128848000Y-77470000D01*
X128848000Y-77470000D02*
X132080000Y-77470000D01*
X129540000Y-79318000D02*
X130118000Y-78740000D01*
X129540000Y-81280000D02*
X129540000Y-79318000D01*
X130118000Y-78740000D02*
X133350000Y-78740000D01*
X138430000Y-73660000D02*
X140970000Y-73660000D01*
X133350000Y-78740000D02*
X138430000Y-73660000D01*
X128270000Y-92710000D02*
X130810000Y-92710000D01*
X133350000Y-95250000D02*
X135890000Y-95250000D01*
X92710000Y-92710000D02*
X95250000Y-92710000D01*
X97790000Y-95250000D02*
X100330000Y-95250000D01*
X132080000Y-73660000D02*
X132080000Y-71120000D01*
X132080000Y-71120000D02*
X130810000Y-69850000D01*
X130810000Y-69850000D02*
X119380000Y-69850000D01*
X96520000Y-93980000D02*
X97790000Y-95250000D01*
X95250000Y-92710000D02*
X96520000Y-93980000D01*
X119380000Y-78740000D02*
X119380000Y-69850000D01*
X119380000Y-81280000D02*
X123190000Y-85090000D01*
X123190000Y-85090000D02*
X130810000Y-85090000D01*
X132080000Y-86360000D02*
X132080000Y-93980000D01*
X130810000Y-85090000D02*
X132080000Y-86360000D01*
X130810000Y-92710000D02*
X132080000Y-93980000D01*
X132080000Y-93980000D02*
X133350000Y-95250000D01*
X119380000Y-80010000D02*
X119380000Y-81280000D01*
X119380000Y-78740000D02*
X119380000Y-80010000D01*
X96520000Y-80010000D02*
X96520000Y-93980000D01*
X124460000Y-102870000D02*
X124460000Y-91440000D01*
X125730000Y-90170000D02*
X128270000Y-90170000D01*
X124460000Y-91440000D02*
X125730000Y-90170000D01*
X121920000Y-102870000D02*
X121920000Y-88900000D01*
X123190000Y-87630000D02*
X128270000Y-87630000D01*
X121920000Y-88900000D02*
X123190000Y-87630000D01*
X138430000Y-90170000D02*
X135890000Y-90170000D01*
X139700000Y-102870000D02*
X139700000Y-91440000D01*
X139700000Y-91440000D02*
X138430000Y-90170000D01*
M02*
