G04 #@! TF.GenerationSoftware,KiCad,Pcbnew,5.1.5+dfsg1-2*
G04 #@! TF.CreationDate,2020-03-03T15:22:14-06:00*
G04 #@! TF.ProjectId,galvanosynth,67616c76-616e-46f7-9379-6e74682e6b69,4.1.1*
G04 #@! TF.SameCoordinates,Original*
G04 #@! TF.FileFunction,Paste,Top*
G04 #@! TF.FilePolarity,Positive*
%FSLAX46Y46*%
G04 Gerber Fmt 4.6, Leading zero omitted, Abs format (unit mm)*
G04 Created by KiCad (PCBNEW 5.1.5+dfsg1-2) date 2020-03-03 15:22:14*
%MOMM*%
%LPD*%
G04 APERTURE LIST*
%ADD10C,0.150000*%
%ADD11C,0.100000*%
G04 APERTURE END LIST*
D10*
X50800000Y-127000000D02*
X177800000Y-127000000D01*
X50800000Y-63500000D02*
X177800000Y-63500000D01*
X50800000Y-127000000D02*
X50800000Y-63500000D01*
X177800000Y-127000000D02*
X177800000Y-63500000D01*
D11*
G36*
X157749504Y-112156204D02*
G01*
X157773773Y-112159804D01*
X157797571Y-112165765D01*
X157820671Y-112174030D01*
X157842849Y-112184520D01*
X157863893Y-112197133D01*
X157883598Y-112211747D01*
X157901777Y-112228223D01*
X157918253Y-112246402D01*
X157932867Y-112266107D01*
X157945480Y-112287151D01*
X157955970Y-112309329D01*
X157964235Y-112332429D01*
X157970196Y-112356227D01*
X157973796Y-112380496D01*
X157975000Y-112405000D01*
X157975000Y-113655000D01*
X157973796Y-113679504D01*
X157970196Y-113703773D01*
X157964235Y-113727571D01*
X157955970Y-113750671D01*
X157945480Y-113772849D01*
X157932867Y-113793893D01*
X157918253Y-113813598D01*
X157901777Y-113831777D01*
X157883598Y-113848253D01*
X157863893Y-113862867D01*
X157842849Y-113875480D01*
X157820671Y-113885970D01*
X157797571Y-113894235D01*
X157773773Y-113900196D01*
X157749504Y-113903796D01*
X157725000Y-113905000D01*
X156975000Y-113905000D01*
X156950496Y-113903796D01*
X156926227Y-113900196D01*
X156902429Y-113894235D01*
X156879329Y-113885970D01*
X156857151Y-113875480D01*
X156836107Y-113862867D01*
X156816402Y-113848253D01*
X156798223Y-113831777D01*
X156781747Y-113813598D01*
X156767133Y-113793893D01*
X156754520Y-113772849D01*
X156744030Y-113750671D01*
X156735765Y-113727571D01*
X156729804Y-113703773D01*
X156726204Y-113679504D01*
X156725000Y-113655000D01*
X156725000Y-112405000D01*
X156726204Y-112380496D01*
X156729804Y-112356227D01*
X156735765Y-112332429D01*
X156744030Y-112309329D01*
X156754520Y-112287151D01*
X156767133Y-112266107D01*
X156781747Y-112246402D01*
X156798223Y-112228223D01*
X156816402Y-112211747D01*
X156836107Y-112197133D01*
X156857151Y-112184520D01*
X156879329Y-112174030D01*
X156902429Y-112165765D01*
X156926227Y-112159804D01*
X156950496Y-112156204D01*
X156975000Y-112155000D01*
X157725000Y-112155000D01*
X157749504Y-112156204D01*
G37*
G36*
X160549504Y-112156204D02*
G01*
X160573773Y-112159804D01*
X160597571Y-112165765D01*
X160620671Y-112174030D01*
X160642849Y-112184520D01*
X160663893Y-112197133D01*
X160683598Y-112211747D01*
X160701777Y-112228223D01*
X160718253Y-112246402D01*
X160732867Y-112266107D01*
X160745480Y-112287151D01*
X160755970Y-112309329D01*
X160764235Y-112332429D01*
X160770196Y-112356227D01*
X160773796Y-112380496D01*
X160775000Y-112405000D01*
X160775000Y-113655000D01*
X160773796Y-113679504D01*
X160770196Y-113703773D01*
X160764235Y-113727571D01*
X160755970Y-113750671D01*
X160745480Y-113772849D01*
X160732867Y-113793893D01*
X160718253Y-113813598D01*
X160701777Y-113831777D01*
X160683598Y-113848253D01*
X160663893Y-113862867D01*
X160642849Y-113875480D01*
X160620671Y-113885970D01*
X160597571Y-113894235D01*
X160573773Y-113900196D01*
X160549504Y-113903796D01*
X160525000Y-113905000D01*
X159775000Y-113905000D01*
X159750496Y-113903796D01*
X159726227Y-113900196D01*
X159702429Y-113894235D01*
X159679329Y-113885970D01*
X159657151Y-113875480D01*
X159636107Y-113862867D01*
X159616402Y-113848253D01*
X159598223Y-113831777D01*
X159581747Y-113813598D01*
X159567133Y-113793893D01*
X159554520Y-113772849D01*
X159544030Y-113750671D01*
X159535765Y-113727571D01*
X159529804Y-113703773D01*
X159526204Y-113679504D01*
X159525000Y-113655000D01*
X159525000Y-112405000D01*
X159526204Y-112380496D01*
X159529804Y-112356227D01*
X159535765Y-112332429D01*
X159544030Y-112309329D01*
X159554520Y-112287151D01*
X159567133Y-112266107D01*
X159581747Y-112246402D01*
X159598223Y-112228223D01*
X159616402Y-112211747D01*
X159636107Y-112197133D01*
X159657151Y-112184520D01*
X159679329Y-112174030D01*
X159702429Y-112165765D01*
X159726227Y-112159804D01*
X159750496Y-112156204D01*
X159775000Y-112155000D01*
X160525000Y-112155000D01*
X160549504Y-112156204D01*
G37*
G36*
X145049504Y-112156204D02*
G01*
X145073773Y-112159804D01*
X145097571Y-112165765D01*
X145120671Y-112174030D01*
X145142849Y-112184520D01*
X145163893Y-112197133D01*
X145183598Y-112211747D01*
X145201777Y-112228223D01*
X145218253Y-112246402D01*
X145232867Y-112266107D01*
X145245480Y-112287151D01*
X145255970Y-112309329D01*
X145264235Y-112332429D01*
X145270196Y-112356227D01*
X145273796Y-112380496D01*
X145275000Y-112405000D01*
X145275000Y-113655000D01*
X145273796Y-113679504D01*
X145270196Y-113703773D01*
X145264235Y-113727571D01*
X145255970Y-113750671D01*
X145245480Y-113772849D01*
X145232867Y-113793893D01*
X145218253Y-113813598D01*
X145201777Y-113831777D01*
X145183598Y-113848253D01*
X145163893Y-113862867D01*
X145142849Y-113875480D01*
X145120671Y-113885970D01*
X145097571Y-113894235D01*
X145073773Y-113900196D01*
X145049504Y-113903796D01*
X145025000Y-113905000D01*
X144275000Y-113905000D01*
X144250496Y-113903796D01*
X144226227Y-113900196D01*
X144202429Y-113894235D01*
X144179329Y-113885970D01*
X144157151Y-113875480D01*
X144136107Y-113862867D01*
X144116402Y-113848253D01*
X144098223Y-113831777D01*
X144081747Y-113813598D01*
X144067133Y-113793893D01*
X144054520Y-113772849D01*
X144044030Y-113750671D01*
X144035765Y-113727571D01*
X144029804Y-113703773D01*
X144026204Y-113679504D01*
X144025000Y-113655000D01*
X144025000Y-112405000D01*
X144026204Y-112380496D01*
X144029804Y-112356227D01*
X144035765Y-112332429D01*
X144044030Y-112309329D01*
X144054520Y-112287151D01*
X144067133Y-112266107D01*
X144081747Y-112246402D01*
X144098223Y-112228223D01*
X144116402Y-112211747D01*
X144136107Y-112197133D01*
X144157151Y-112184520D01*
X144179329Y-112174030D01*
X144202429Y-112165765D01*
X144226227Y-112159804D01*
X144250496Y-112156204D01*
X144275000Y-112155000D01*
X145025000Y-112155000D01*
X145049504Y-112156204D01*
G37*
G36*
X147849504Y-112156204D02*
G01*
X147873773Y-112159804D01*
X147897571Y-112165765D01*
X147920671Y-112174030D01*
X147942849Y-112184520D01*
X147963893Y-112197133D01*
X147983598Y-112211747D01*
X148001777Y-112228223D01*
X148018253Y-112246402D01*
X148032867Y-112266107D01*
X148045480Y-112287151D01*
X148055970Y-112309329D01*
X148064235Y-112332429D01*
X148070196Y-112356227D01*
X148073796Y-112380496D01*
X148075000Y-112405000D01*
X148075000Y-113655000D01*
X148073796Y-113679504D01*
X148070196Y-113703773D01*
X148064235Y-113727571D01*
X148055970Y-113750671D01*
X148045480Y-113772849D01*
X148032867Y-113793893D01*
X148018253Y-113813598D01*
X148001777Y-113831777D01*
X147983598Y-113848253D01*
X147963893Y-113862867D01*
X147942849Y-113875480D01*
X147920671Y-113885970D01*
X147897571Y-113894235D01*
X147873773Y-113900196D01*
X147849504Y-113903796D01*
X147825000Y-113905000D01*
X147075000Y-113905000D01*
X147050496Y-113903796D01*
X147026227Y-113900196D01*
X147002429Y-113894235D01*
X146979329Y-113885970D01*
X146957151Y-113875480D01*
X146936107Y-113862867D01*
X146916402Y-113848253D01*
X146898223Y-113831777D01*
X146881747Y-113813598D01*
X146867133Y-113793893D01*
X146854520Y-113772849D01*
X146844030Y-113750671D01*
X146835765Y-113727571D01*
X146829804Y-113703773D01*
X146826204Y-113679504D01*
X146825000Y-113655000D01*
X146825000Y-112405000D01*
X146826204Y-112380496D01*
X146829804Y-112356227D01*
X146835765Y-112332429D01*
X146844030Y-112309329D01*
X146854520Y-112287151D01*
X146867133Y-112266107D01*
X146881747Y-112246402D01*
X146898223Y-112228223D01*
X146916402Y-112211747D01*
X146936107Y-112197133D01*
X146957151Y-112184520D01*
X146979329Y-112174030D01*
X147002429Y-112165765D01*
X147026227Y-112159804D01*
X147050496Y-112156204D01*
X147075000Y-112155000D01*
X147825000Y-112155000D01*
X147849504Y-112156204D01*
G37*
G36*
X132349504Y-112156204D02*
G01*
X132373773Y-112159804D01*
X132397571Y-112165765D01*
X132420671Y-112174030D01*
X132442849Y-112184520D01*
X132463893Y-112197133D01*
X132483598Y-112211747D01*
X132501777Y-112228223D01*
X132518253Y-112246402D01*
X132532867Y-112266107D01*
X132545480Y-112287151D01*
X132555970Y-112309329D01*
X132564235Y-112332429D01*
X132570196Y-112356227D01*
X132573796Y-112380496D01*
X132575000Y-112405000D01*
X132575000Y-113655000D01*
X132573796Y-113679504D01*
X132570196Y-113703773D01*
X132564235Y-113727571D01*
X132555970Y-113750671D01*
X132545480Y-113772849D01*
X132532867Y-113793893D01*
X132518253Y-113813598D01*
X132501777Y-113831777D01*
X132483598Y-113848253D01*
X132463893Y-113862867D01*
X132442849Y-113875480D01*
X132420671Y-113885970D01*
X132397571Y-113894235D01*
X132373773Y-113900196D01*
X132349504Y-113903796D01*
X132325000Y-113905000D01*
X131575000Y-113905000D01*
X131550496Y-113903796D01*
X131526227Y-113900196D01*
X131502429Y-113894235D01*
X131479329Y-113885970D01*
X131457151Y-113875480D01*
X131436107Y-113862867D01*
X131416402Y-113848253D01*
X131398223Y-113831777D01*
X131381747Y-113813598D01*
X131367133Y-113793893D01*
X131354520Y-113772849D01*
X131344030Y-113750671D01*
X131335765Y-113727571D01*
X131329804Y-113703773D01*
X131326204Y-113679504D01*
X131325000Y-113655000D01*
X131325000Y-112405000D01*
X131326204Y-112380496D01*
X131329804Y-112356227D01*
X131335765Y-112332429D01*
X131344030Y-112309329D01*
X131354520Y-112287151D01*
X131367133Y-112266107D01*
X131381747Y-112246402D01*
X131398223Y-112228223D01*
X131416402Y-112211747D01*
X131436107Y-112197133D01*
X131457151Y-112184520D01*
X131479329Y-112174030D01*
X131502429Y-112165765D01*
X131526227Y-112159804D01*
X131550496Y-112156204D01*
X131575000Y-112155000D01*
X132325000Y-112155000D01*
X132349504Y-112156204D01*
G37*
G36*
X135149504Y-112156204D02*
G01*
X135173773Y-112159804D01*
X135197571Y-112165765D01*
X135220671Y-112174030D01*
X135242849Y-112184520D01*
X135263893Y-112197133D01*
X135283598Y-112211747D01*
X135301777Y-112228223D01*
X135318253Y-112246402D01*
X135332867Y-112266107D01*
X135345480Y-112287151D01*
X135355970Y-112309329D01*
X135364235Y-112332429D01*
X135370196Y-112356227D01*
X135373796Y-112380496D01*
X135375000Y-112405000D01*
X135375000Y-113655000D01*
X135373796Y-113679504D01*
X135370196Y-113703773D01*
X135364235Y-113727571D01*
X135355970Y-113750671D01*
X135345480Y-113772849D01*
X135332867Y-113793893D01*
X135318253Y-113813598D01*
X135301777Y-113831777D01*
X135283598Y-113848253D01*
X135263893Y-113862867D01*
X135242849Y-113875480D01*
X135220671Y-113885970D01*
X135197571Y-113894235D01*
X135173773Y-113900196D01*
X135149504Y-113903796D01*
X135125000Y-113905000D01*
X134375000Y-113905000D01*
X134350496Y-113903796D01*
X134326227Y-113900196D01*
X134302429Y-113894235D01*
X134279329Y-113885970D01*
X134257151Y-113875480D01*
X134236107Y-113862867D01*
X134216402Y-113848253D01*
X134198223Y-113831777D01*
X134181747Y-113813598D01*
X134167133Y-113793893D01*
X134154520Y-113772849D01*
X134144030Y-113750671D01*
X134135765Y-113727571D01*
X134129804Y-113703773D01*
X134126204Y-113679504D01*
X134125000Y-113655000D01*
X134125000Y-112405000D01*
X134126204Y-112380496D01*
X134129804Y-112356227D01*
X134135765Y-112332429D01*
X134144030Y-112309329D01*
X134154520Y-112287151D01*
X134167133Y-112266107D01*
X134181747Y-112246402D01*
X134198223Y-112228223D01*
X134216402Y-112211747D01*
X134236107Y-112197133D01*
X134257151Y-112184520D01*
X134279329Y-112174030D01*
X134302429Y-112165765D01*
X134326227Y-112159804D01*
X134350496Y-112156204D01*
X134375000Y-112155000D01*
X135125000Y-112155000D01*
X135149504Y-112156204D01*
G37*
G36*
X119649504Y-112156204D02*
G01*
X119673773Y-112159804D01*
X119697571Y-112165765D01*
X119720671Y-112174030D01*
X119742849Y-112184520D01*
X119763893Y-112197133D01*
X119783598Y-112211747D01*
X119801777Y-112228223D01*
X119818253Y-112246402D01*
X119832867Y-112266107D01*
X119845480Y-112287151D01*
X119855970Y-112309329D01*
X119864235Y-112332429D01*
X119870196Y-112356227D01*
X119873796Y-112380496D01*
X119875000Y-112405000D01*
X119875000Y-113655000D01*
X119873796Y-113679504D01*
X119870196Y-113703773D01*
X119864235Y-113727571D01*
X119855970Y-113750671D01*
X119845480Y-113772849D01*
X119832867Y-113793893D01*
X119818253Y-113813598D01*
X119801777Y-113831777D01*
X119783598Y-113848253D01*
X119763893Y-113862867D01*
X119742849Y-113875480D01*
X119720671Y-113885970D01*
X119697571Y-113894235D01*
X119673773Y-113900196D01*
X119649504Y-113903796D01*
X119625000Y-113905000D01*
X118875000Y-113905000D01*
X118850496Y-113903796D01*
X118826227Y-113900196D01*
X118802429Y-113894235D01*
X118779329Y-113885970D01*
X118757151Y-113875480D01*
X118736107Y-113862867D01*
X118716402Y-113848253D01*
X118698223Y-113831777D01*
X118681747Y-113813598D01*
X118667133Y-113793893D01*
X118654520Y-113772849D01*
X118644030Y-113750671D01*
X118635765Y-113727571D01*
X118629804Y-113703773D01*
X118626204Y-113679504D01*
X118625000Y-113655000D01*
X118625000Y-112405000D01*
X118626204Y-112380496D01*
X118629804Y-112356227D01*
X118635765Y-112332429D01*
X118644030Y-112309329D01*
X118654520Y-112287151D01*
X118667133Y-112266107D01*
X118681747Y-112246402D01*
X118698223Y-112228223D01*
X118716402Y-112211747D01*
X118736107Y-112197133D01*
X118757151Y-112184520D01*
X118779329Y-112174030D01*
X118802429Y-112165765D01*
X118826227Y-112159804D01*
X118850496Y-112156204D01*
X118875000Y-112155000D01*
X119625000Y-112155000D01*
X119649504Y-112156204D01*
G37*
G36*
X122449504Y-112156204D02*
G01*
X122473773Y-112159804D01*
X122497571Y-112165765D01*
X122520671Y-112174030D01*
X122542849Y-112184520D01*
X122563893Y-112197133D01*
X122583598Y-112211747D01*
X122601777Y-112228223D01*
X122618253Y-112246402D01*
X122632867Y-112266107D01*
X122645480Y-112287151D01*
X122655970Y-112309329D01*
X122664235Y-112332429D01*
X122670196Y-112356227D01*
X122673796Y-112380496D01*
X122675000Y-112405000D01*
X122675000Y-113655000D01*
X122673796Y-113679504D01*
X122670196Y-113703773D01*
X122664235Y-113727571D01*
X122655970Y-113750671D01*
X122645480Y-113772849D01*
X122632867Y-113793893D01*
X122618253Y-113813598D01*
X122601777Y-113831777D01*
X122583598Y-113848253D01*
X122563893Y-113862867D01*
X122542849Y-113875480D01*
X122520671Y-113885970D01*
X122497571Y-113894235D01*
X122473773Y-113900196D01*
X122449504Y-113903796D01*
X122425000Y-113905000D01*
X121675000Y-113905000D01*
X121650496Y-113903796D01*
X121626227Y-113900196D01*
X121602429Y-113894235D01*
X121579329Y-113885970D01*
X121557151Y-113875480D01*
X121536107Y-113862867D01*
X121516402Y-113848253D01*
X121498223Y-113831777D01*
X121481747Y-113813598D01*
X121467133Y-113793893D01*
X121454520Y-113772849D01*
X121444030Y-113750671D01*
X121435765Y-113727571D01*
X121429804Y-113703773D01*
X121426204Y-113679504D01*
X121425000Y-113655000D01*
X121425000Y-112405000D01*
X121426204Y-112380496D01*
X121429804Y-112356227D01*
X121435765Y-112332429D01*
X121444030Y-112309329D01*
X121454520Y-112287151D01*
X121467133Y-112266107D01*
X121481747Y-112246402D01*
X121498223Y-112228223D01*
X121516402Y-112211747D01*
X121536107Y-112197133D01*
X121557151Y-112184520D01*
X121579329Y-112174030D01*
X121602429Y-112165765D01*
X121626227Y-112159804D01*
X121650496Y-112156204D01*
X121675000Y-112155000D01*
X122425000Y-112155000D01*
X122449504Y-112156204D01*
G37*
G36*
X106949504Y-112156204D02*
G01*
X106973773Y-112159804D01*
X106997571Y-112165765D01*
X107020671Y-112174030D01*
X107042849Y-112184520D01*
X107063893Y-112197133D01*
X107083598Y-112211747D01*
X107101777Y-112228223D01*
X107118253Y-112246402D01*
X107132867Y-112266107D01*
X107145480Y-112287151D01*
X107155970Y-112309329D01*
X107164235Y-112332429D01*
X107170196Y-112356227D01*
X107173796Y-112380496D01*
X107175000Y-112405000D01*
X107175000Y-113655000D01*
X107173796Y-113679504D01*
X107170196Y-113703773D01*
X107164235Y-113727571D01*
X107155970Y-113750671D01*
X107145480Y-113772849D01*
X107132867Y-113793893D01*
X107118253Y-113813598D01*
X107101777Y-113831777D01*
X107083598Y-113848253D01*
X107063893Y-113862867D01*
X107042849Y-113875480D01*
X107020671Y-113885970D01*
X106997571Y-113894235D01*
X106973773Y-113900196D01*
X106949504Y-113903796D01*
X106925000Y-113905000D01*
X106175000Y-113905000D01*
X106150496Y-113903796D01*
X106126227Y-113900196D01*
X106102429Y-113894235D01*
X106079329Y-113885970D01*
X106057151Y-113875480D01*
X106036107Y-113862867D01*
X106016402Y-113848253D01*
X105998223Y-113831777D01*
X105981747Y-113813598D01*
X105967133Y-113793893D01*
X105954520Y-113772849D01*
X105944030Y-113750671D01*
X105935765Y-113727571D01*
X105929804Y-113703773D01*
X105926204Y-113679504D01*
X105925000Y-113655000D01*
X105925000Y-112405000D01*
X105926204Y-112380496D01*
X105929804Y-112356227D01*
X105935765Y-112332429D01*
X105944030Y-112309329D01*
X105954520Y-112287151D01*
X105967133Y-112266107D01*
X105981747Y-112246402D01*
X105998223Y-112228223D01*
X106016402Y-112211747D01*
X106036107Y-112197133D01*
X106057151Y-112184520D01*
X106079329Y-112174030D01*
X106102429Y-112165765D01*
X106126227Y-112159804D01*
X106150496Y-112156204D01*
X106175000Y-112155000D01*
X106925000Y-112155000D01*
X106949504Y-112156204D01*
G37*
G36*
X109749504Y-112156204D02*
G01*
X109773773Y-112159804D01*
X109797571Y-112165765D01*
X109820671Y-112174030D01*
X109842849Y-112184520D01*
X109863893Y-112197133D01*
X109883598Y-112211747D01*
X109901777Y-112228223D01*
X109918253Y-112246402D01*
X109932867Y-112266107D01*
X109945480Y-112287151D01*
X109955970Y-112309329D01*
X109964235Y-112332429D01*
X109970196Y-112356227D01*
X109973796Y-112380496D01*
X109975000Y-112405000D01*
X109975000Y-113655000D01*
X109973796Y-113679504D01*
X109970196Y-113703773D01*
X109964235Y-113727571D01*
X109955970Y-113750671D01*
X109945480Y-113772849D01*
X109932867Y-113793893D01*
X109918253Y-113813598D01*
X109901777Y-113831777D01*
X109883598Y-113848253D01*
X109863893Y-113862867D01*
X109842849Y-113875480D01*
X109820671Y-113885970D01*
X109797571Y-113894235D01*
X109773773Y-113900196D01*
X109749504Y-113903796D01*
X109725000Y-113905000D01*
X108975000Y-113905000D01*
X108950496Y-113903796D01*
X108926227Y-113900196D01*
X108902429Y-113894235D01*
X108879329Y-113885970D01*
X108857151Y-113875480D01*
X108836107Y-113862867D01*
X108816402Y-113848253D01*
X108798223Y-113831777D01*
X108781747Y-113813598D01*
X108767133Y-113793893D01*
X108754520Y-113772849D01*
X108744030Y-113750671D01*
X108735765Y-113727571D01*
X108729804Y-113703773D01*
X108726204Y-113679504D01*
X108725000Y-113655000D01*
X108725000Y-112405000D01*
X108726204Y-112380496D01*
X108729804Y-112356227D01*
X108735765Y-112332429D01*
X108744030Y-112309329D01*
X108754520Y-112287151D01*
X108767133Y-112266107D01*
X108781747Y-112246402D01*
X108798223Y-112228223D01*
X108816402Y-112211747D01*
X108836107Y-112197133D01*
X108857151Y-112184520D01*
X108879329Y-112174030D01*
X108902429Y-112165765D01*
X108926227Y-112159804D01*
X108950496Y-112156204D01*
X108975000Y-112155000D01*
X109725000Y-112155000D01*
X109749504Y-112156204D01*
G37*
G36*
X94249504Y-112156204D02*
G01*
X94273773Y-112159804D01*
X94297571Y-112165765D01*
X94320671Y-112174030D01*
X94342849Y-112184520D01*
X94363893Y-112197133D01*
X94383598Y-112211747D01*
X94401777Y-112228223D01*
X94418253Y-112246402D01*
X94432867Y-112266107D01*
X94445480Y-112287151D01*
X94455970Y-112309329D01*
X94464235Y-112332429D01*
X94470196Y-112356227D01*
X94473796Y-112380496D01*
X94475000Y-112405000D01*
X94475000Y-113655000D01*
X94473796Y-113679504D01*
X94470196Y-113703773D01*
X94464235Y-113727571D01*
X94455970Y-113750671D01*
X94445480Y-113772849D01*
X94432867Y-113793893D01*
X94418253Y-113813598D01*
X94401777Y-113831777D01*
X94383598Y-113848253D01*
X94363893Y-113862867D01*
X94342849Y-113875480D01*
X94320671Y-113885970D01*
X94297571Y-113894235D01*
X94273773Y-113900196D01*
X94249504Y-113903796D01*
X94225000Y-113905000D01*
X93475000Y-113905000D01*
X93450496Y-113903796D01*
X93426227Y-113900196D01*
X93402429Y-113894235D01*
X93379329Y-113885970D01*
X93357151Y-113875480D01*
X93336107Y-113862867D01*
X93316402Y-113848253D01*
X93298223Y-113831777D01*
X93281747Y-113813598D01*
X93267133Y-113793893D01*
X93254520Y-113772849D01*
X93244030Y-113750671D01*
X93235765Y-113727571D01*
X93229804Y-113703773D01*
X93226204Y-113679504D01*
X93225000Y-113655000D01*
X93225000Y-112405000D01*
X93226204Y-112380496D01*
X93229804Y-112356227D01*
X93235765Y-112332429D01*
X93244030Y-112309329D01*
X93254520Y-112287151D01*
X93267133Y-112266107D01*
X93281747Y-112246402D01*
X93298223Y-112228223D01*
X93316402Y-112211747D01*
X93336107Y-112197133D01*
X93357151Y-112184520D01*
X93379329Y-112174030D01*
X93402429Y-112165765D01*
X93426227Y-112159804D01*
X93450496Y-112156204D01*
X93475000Y-112155000D01*
X94225000Y-112155000D01*
X94249504Y-112156204D01*
G37*
G36*
X97049504Y-112156204D02*
G01*
X97073773Y-112159804D01*
X97097571Y-112165765D01*
X97120671Y-112174030D01*
X97142849Y-112184520D01*
X97163893Y-112197133D01*
X97183598Y-112211747D01*
X97201777Y-112228223D01*
X97218253Y-112246402D01*
X97232867Y-112266107D01*
X97245480Y-112287151D01*
X97255970Y-112309329D01*
X97264235Y-112332429D01*
X97270196Y-112356227D01*
X97273796Y-112380496D01*
X97275000Y-112405000D01*
X97275000Y-113655000D01*
X97273796Y-113679504D01*
X97270196Y-113703773D01*
X97264235Y-113727571D01*
X97255970Y-113750671D01*
X97245480Y-113772849D01*
X97232867Y-113793893D01*
X97218253Y-113813598D01*
X97201777Y-113831777D01*
X97183598Y-113848253D01*
X97163893Y-113862867D01*
X97142849Y-113875480D01*
X97120671Y-113885970D01*
X97097571Y-113894235D01*
X97073773Y-113900196D01*
X97049504Y-113903796D01*
X97025000Y-113905000D01*
X96275000Y-113905000D01*
X96250496Y-113903796D01*
X96226227Y-113900196D01*
X96202429Y-113894235D01*
X96179329Y-113885970D01*
X96157151Y-113875480D01*
X96136107Y-113862867D01*
X96116402Y-113848253D01*
X96098223Y-113831777D01*
X96081747Y-113813598D01*
X96067133Y-113793893D01*
X96054520Y-113772849D01*
X96044030Y-113750671D01*
X96035765Y-113727571D01*
X96029804Y-113703773D01*
X96026204Y-113679504D01*
X96025000Y-113655000D01*
X96025000Y-112405000D01*
X96026204Y-112380496D01*
X96029804Y-112356227D01*
X96035765Y-112332429D01*
X96044030Y-112309329D01*
X96054520Y-112287151D01*
X96067133Y-112266107D01*
X96081747Y-112246402D01*
X96098223Y-112228223D01*
X96116402Y-112211747D01*
X96136107Y-112197133D01*
X96157151Y-112184520D01*
X96179329Y-112174030D01*
X96202429Y-112165765D01*
X96226227Y-112159804D01*
X96250496Y-112156204D01*
X96275000Y-112155000D01*
X97025000Y-112155000D01*
X97049504Y-112156204D01*
G37*
G36*
X81549504Y-112156204D02*
G01*
X81573773Y-112159804D01*
X81597571Y-112165765D01*
X81620671Y-112174030D01*
X81642849Y-112184520D01*
X81663893Y-112197133D01*
X81683598Y-112211747D01*
X81701777Y-112228223D01*
X81718253Y-112246402D01*
X81732867Y-112266107D01*
X81745480Y-112287151D01*
X81755970Y-112309329D01*
X81764235Y-112332429D01*
X81770196Y-112356227D01*
X81773796Y-112380496D01*
X81775000Y-112405000D01*
X81775000Y-113655000D01*
X81773796Y-113679504D01*
X81770196Y-113703773D01*
X81764235Y-113727571D01*
X81755970Y-113750671D01*
X81745480Y-113772849D01*
X81732867Y-113793893D01*
X81718253Y-113813598D01*
X81701777Y-113831777D01*
X81683598Y-113848253D01*
X81663893Y-113862867D01*
X81642849Y-113875480D01*
X81620671Y-113885970D01*
X81597571Y-113894235D01*
X81573773Y-113900196D01*
X81549504Y-113903796D01*
X81525000Y-113905000D01*
X80775000Y-113905000D01*
X80750496Y-113903796D01*
X80726227Y-113900196D01*
X80702429Y-113894235D01*
X80679329Y-113885970D01*
X80657151Y-113875480D01*
X80636107Y-113862867D01*
X80616402Y-113848253D01*
X80598223Y-113831777D01*
X80581747Y-113813598D01*
X80567133Y-113793893D01*
X80554520Y-113772849D01*
X80544030Y-113750671D01*
X80535765Y-113727571D01*
X80529804Y-113703773D01*
X80526204Y-113679504D01*
X80525000Y-113655000D01*
X80525000Y-112405000D01*
X80526204Y-112380496D01*
X80529804Y-112356227D01*
X80535765Y-112332429D01*
X80544030Y-112309329D01*
X80554520Y-112287151D01*
X80567133Y-112266107D01*
X80581747Y-112246402D01*
X80598223Y-112228223D01*
X80616402Y-112211747D01*
X80636107Y-112197133D01*
X80657151Y-112184520D01*
X80679329Y-112174030D01*
X80702429Y-112165765D01*
X80726227Y-112159804D01*
X80750496Y-112156204D01*
X80775000Y-112155000D01*
X81525000Y-112155000D01*
X81549504Y-112156204D01*
G37*
G36*
X84349504Y-112156204D02*
G01*
X84373773Y-112159804D01*
X84397571Y-112165765D01*
X84420671Y-112174030D01*
X84442849Y-112184520D01*
X84463893Y-112197133D01*
X84483598Y-112211747D01*
X84501777Y-112228223D01*
X84518253Y-112246402D01*
X84532867Y-112266107D01*
X84545480Y-112287151D01*
X84555970Y-112309329D01*
X84564235Y-112332429D01*
X84570196Y-112356227D01*
X84573796Y-112380496D01*
X84575000Y-112405000D01*
X84575000Y-113655000D01*
X84573796Y-113679504D01*
X84570196Y-113703773D01*
X84564235Y-113727571D01*
X84555970Y-113750671D01*
X84545480Y-113772849D01*
X84532867Y-113793893D01*
X84518253Y-113813598D01*
X84501777Y-113831777D01*
X84483598Y-113848253D01*
X84463893Y-113862867D01*
X84442849Y-113875480D01*
X84420671Y-113885970D01*
X84397571Y-113894235D01*
X84373773Y-113900196D01*
X84349504Y-113903796D01*
X84325000Y-113905000D01*
X83575000Y-113905000D01*
X83550496Y-113903796D01*
X83526227Y-113900196D01*
X83502429Y-113894235D01*
X83479329Y-113885970D01*
X83457151Y-113875480D01*
X83436107Y-113862867D01*
X83416402Y-113848253D01*
X83398223Y-113831777D01*
X83381747Y-113813598D01*
X83367133Y-113793893D01*
X83354520Y-113772849D01*
X83344030Y-113750671D01*
X83335765Y-113727571D01*
X83329804Y-113703773D01*
X83326204Y-113679504D01*
X83325000Y-113655000D01*
X83325000Y-112405000D01*
X83326204Y-112380496D01*
X83329804Y-112356227D01*
X83335765Y-112332429D01*
X83344030Y-112309329D01*
X83354520Y-112287151D01*
X83367133Y-112266107D01*
X83381747Y-112246402D01*
X83398223Y-112228223D01*
X83416402Y-112211747D01*
X83436107Y-112197133D01*
X83457151Y-112184520D01*
X83479329Y-112174030D01*
X83502429Y-112165765D01*
X83526227Y-112159804D01*
X83550496Y-112156204D01*
X83575000Y-112155000D01*
X84325000Y-112155000D01*
X84349504Y-112156204D01*
G37*
G36*
X68849504Y-112156204D02*
G01*
X68873773Y-112159804D01*
X68897571Y-112165765D01*
X68920671Y-112174030D01*
X68942849Y-112184520D01*
X68963893Y-112197133D01*
X68983598Y-112211747D01*
X69001777Y-112228223D01*
X69018253Y-112246402D01*
X69032867Y-112266107D01*
X69045480Y-112287151D01*
X69055970Y-112309329D01*
X69064235Y-112332429D01*
X69070196Y-112356227D01*
X69073796Y-112380496D01*
X69075000Y-112405000D01*
X69075000Y-113655000D01*
X69073796Y-113679504D01*
X69070196Y-113703773D01*
X69064235Y-113727571D01*
X69055970Y-113750671D01*
X69045480Y-113772849D01*
X69032867Y-113793893D01*
X69018253Y-113813598D01*
X69001777Y-113831777D01*
X68983598Y-113848253D01*
X68963893Y-113862867D01*
X68942849Y-113875480D01*
X68920671Y-113885970D01*
X68897571Y-113894235D01*
X68873773Y-113900196D01*
X68849504Y-113903796D01*
X68825000Y-113905000D01*
X68075000Y-113905000D01*
X68050496Y-113903796D01*
X68026227Y-113900196D01*
X68002429Y-113894235D01*
X67979329Y-113885970D01*
X67957151Y-113875480D01*
X67936107Y-113862867D01*
X67916402Y-113848253D01*
X67898223Y-113831777D01*
X67881747Y-113813598D01*
X67867133Y-113793893D01*
X67854520Y-113772849D01*
X67844030Y-113750671D01*
X67835765Y-113727571D01*
X67829804Y-113703773D01*
X67826204Y-113679504D01*
X67825000Y-113655000D01*
X67825000Y-112405000D01*
X67826204Y-112380496D01*
X67829804Y-112356227D01*
X67835765Y-112332429D01*
X67844030Y-112309329D01*
X67854520Y-112287151D01*
X67867133Y-112266107D01*
X67881747Y-112246402D01*
X67898223Y-112228223D01*
X67916402Y-112211747D01*
X67936107Y-112197133D01*
X67957151Y-112184520D01*
X67979329Y-112174030D01*
X68002429Y-112165765D01*
X68026227Y-112159804D01*
X68050496Y-112156204D01*
X68075000Y-112155000D01*
X68825000Y-112155000D01*
X68849504Y-112156204D01*
G37*
G36*
X71649504Y-112156204D02*
G01*
X71673773Y-112159804D01*
X71697571Y-112165765D01*
X71720671Y-112174030D01*
X71742849Y-112184520D01*
X71763893Y-112197133D01*
X71783598Y-112211747D01*
X71801777Y-112228223D01*
X71818253Y-112246402D01*
X71832867Y-112266107D01*
X71845480Y-112287151D01*
X71855970Y-112309329D01*
X71864235Y-112332429D01*
X71870196Y-112356227D01*
X71873796Y-112380496D01*
X71875000Y-112405000D01*
X71875000Y-113655000D01*
X71873796Y-113679504D01*
X71870196Y-113703773D01*
X71864235Y-113727571D01*
X71855970Y-113750671D01*
X71845480Y-113772849D01*
X71832867Y-113793893D01*
X71818253Y-113813598D01*
X71801777Y-113831777D01*
X71783598Y-113848253D01*
X71763893Y-113862867D01*
X71742849Y-113875480D01*
X71720671Y-113885970D01*
X71697571Y-113894235D01*
X71673773Y-113900196D01*
X71649504Y-113903796D01*
X71625000Y-113905000D01*
X70875000Y-113905000D01*
X70850496Y-113903796D01*
X70826227Y-113900196D01*
X70802429Y-113894235D01*
X70779329Y-113885970D01*
X70757151Y-113875480D01*
X70736107Y-113862867D01*
X70716402Y-113848253D01*
X70698223Y-113831777D01*
X70681747Y-113813598D01*
X70667133Y-113793893D01*
X70654520Y-113772849D01*
X70644030Y-113750671D01*
X70635765Y-113727571D01*
X70629804Y-113703773D01*
X70626204Y-113679504D01*
X70625000Y-113655000D01*
X70625000Y-112405000D01*
X70626204Y-112380496D01*
X70629804Y-112356227D01*
X70635765Y-112332429D01*
X70644030Y-112309329D01*
X70654520Y-112287151D01*
X70667133Y-112266107D01*
X70681747Y-112246402D01*
X70698223Y-112228223D01*
X70716402Y-112211747D01*
X70736107Y-112197133D01*
X70757151Y-112184520D01*
X70779329Y-112174030D01*
X70802429Y-112165765D01*
X70826227Y-112159804D01*
X70850496Y-112156204D01*
X70875000Y-112155000D01*
X71625000Y-112155000D01*
X71649504Y-112156204D01*
G37*
G36*
X158129504Y-65286204D02*
G01*
X158153773Y-65289804D01*
X158177571Y-65295765D01*
X158200671Y-65304030D01*
X158222849Y-65314520D01*
X158243893Y-65327133D01*
X158263598Y-65341747D01*
X158281777Y-65358223D01*
X158298253Y-65376402D01*
X158312867Y-65396107D01*
X158325480Y-65417151D01*
X158335970Y-65439329D01*
X158344235Y-65462429D01*
X158350196Y-65486227D01*
X158353796Y-65510496D01*
X158355000Y-65535000D01*
X158355000Y-66285000D01*
X158353796Y-66309504D01*
X158350196Y-66333773D01*
X158344235Y-66357571D01*
X158335970Y-66380671D01*
X158325480Y-66402849D01*
X158312867Y-66423893D01*
X158298253Y-66443598D01*
X158281777Y-66461777D01*
X158263598Y-66478253D01*
X158243893Y-66492867D01*
X158222849Y-66505480D01*
X158200671Y-66515970D01*
X158177571Y-66524235D01*
X158153773Y-66530196D01*
X158129504Y-66533796D01*
X158105000Y-66535000D01*
X156855000Y-66535000D01*
X156830496Y-66533796D01*
X156806227Y-66530196D01*
X156782429Y-66524235D01*
X156759329Y-66515970D01*
X156737151Y-66505480D01*
X156716107Y-66492867D01*
X156696402Y-66478253D01*
X156678223Y-66461777D01*
X156661747Y-66443598D01*
X156647133Y-66423893D01*
X156634520Y-66402849D01*
X156624030Y-66380671D01*
X156615765Y-66357571D01*
X156609804Y-66333773D01*
X156606204Y-66309504D01*
X156605000Y-66285000D01*
X156605000Y-65535000D01*
X156606204Y-65510496D01*
X156609804Y-65486227D01*
X156615765Y-65462429D01*
X156624030Y-65439329D01*
X156634520Y-65417151D01*
X156647133Y-65396107D01*
X156661747Y-65376402D01*
X156678223Y-65358223D01*
X156696402Y-65341747D01*
X156716107Y-65327133D01*
X156737151Y-65314520D01*
X156759329Y-65304030D01*
X156782429Y-65295765D01*
X156806227Y-65289804D01*
X156830496Y-65286204D01*
X156855000Y-65285000D01*
X158105000Y-65285000D01*
X158129504Y-65286204D01*
G37*
G36*
X158129504Y-68086204D02*
G01*
X158153773Y-68089804D01*
X158177571Y-68095765D01*
X158200671Y-68104030D01*
X158222849Y-68114520D01*
X158243893Y-68127133D01*
X158263598Y-68141747D01*
X158281777Y-68158223D01*
X158298253Y-68176402D01*
X158312867Y-68196107D01*
X158325480Y-68217151D01*
X158335970Y-68239329D01*
X158344235Y-68262429D01*
X158350196Y-68286227D01*
X158353796Y-68310496D01*
X158355000Y-68335000D01*
X158355000Y-69085000D01*
X158353796Y-69109504D01*
X158350196Y-69133773D01*
X158344235Y-69157571D01*
X158335970Y-69180671D01*
X158325480Y-69202849D01*
X158312867Y-69223893D01*
X158298253Y-69243598D01*
X158281777Y-69261777D01*
X158263598Y-69278253D01*
X158243893Y-69292867D01*
X158222849Y-69305480D01*
X158200671Y-69315970D01*
X158177571Y-69324235D01*
X158153773Y-69330196D01*
X158129504Y-69333796D01*
X158105000Y-69335000D01*
X156855000Y-69335000D01*
X156830496Y-69333796D01*
X156806227Y-69330196D01*
X156782429Y-69324235D01*
X156759329Y-69315970D01*
X156737151Y-69305480D01*
X156716107Y-69292867D01*
X156696402Y-69278253D01*
X156678223Y-69261777D01*
X156661747Y-69243598D01*
X156647133Y-69223893D01*
X156634520Y-69202849D01*
X156624030Y-69180671D01*
X156615765Y-69157571D01*
X156609804Y-69133773D01*
X156606204Y-69109504D01*
X156605000Y-69085000D01*
X156605000Y-68335000D01*
X156606204Y-68310496D01*
X156609804Y-68286227D01*
X156615765Y-68262429D01*
X156624030Y-68239329D01*
X156634520Y-68217151D01*
X156647133Y-68196107D01*
X156661747Y-68176402D01*
X156678223Y-68158223D01*
X156696402Y-68141747D01*
X156716107Y-68127133D01*
X156737151Y-68114520D01*
X156759329Y-68104030D01*
X156782429Y-68095765D01*
X156806227Y-68089804D01*
X156830496Y-68086204D01*
X156855000Y-68085000D01*
X158105000Y-68085000D01*
X158129504Y-68086204D01*
G37*
G36*
X158129504Y-70236204D02*
G01*
X158153773Y-70239804D01*
X158177571Y-70245765D01*
X158200671Y-70254030D01*
X158222849Y-70264520D01*
X158243893Y-70277133D01*
X158263598Y-70291747D01*
X158281777Y-70308223D01*
X158298253Y-70326402D01*
X158312867Y-70346107D01*
X158325480Y-70367151D01*
X158335970Y-70389329D01*
X158344235Y-70412429D01*
X158350196Y-70436227D01*
X158353796Y-70460496D01*
X158355000Y-70485000D01*
X158355000Y-71235000D01*
X158353796Y-71259504D01*
X158350196Y-71283773D01*
X158344235Y-71307571D01*
X158335970Y-71330671D01*
X158325480Y-71352849D01*
X158312867Y-71373893D01*
X158298253Y-71393598D01*
X158281777Y-71411777D01*
X158263598Y-71428253D01*
X158243893Y-71442867D01*
X158222849Y-71455480D01*
X158200671Y-71465970D01*
X158177571Y-71474235D01*
X158153773Y-71480196D01*
X158129504Y-71483796D01*
X158105000Y-71485000D01*
X156855000Y-71485000D01*
X156830496Y-71483796D01*
X156806227Y-71480196D01*
X156782429Y-71474235D01*
X156759329Y-71465970D01*
X156737151Y-71455480D01*
X156716107Y-71442867D01*
X156696402Y-71428253D01*
X156678223Y-71411777D01*
X156661747Y-71393598D01*
X156647133Y-71373893D01*
X156634520Y-71352849D01*
X156624030Y-71330671D01*
X156615765Y-71307571D01*
X156609804Y-71283773D01*
X156606204Y-71259504D01*
X156605000Y-71235000D01*
X156605000Y-70485000D01*
X156606204Y-70460496D01*
X156609804Y-70436227D01*
X156615765Y-70412429D01*
X156624030Y-70389329D01*
X156634520Y-70367151D01*
X156647133Y-70346107D01*
X156661747Y-70326402D01*
X156678223Y-70308223D01*
X156696402Y-70291747D01*
X156716107Y-70277133D01*
X156737151Y-70264520D01*
X156759329Y-70254030D01*
X156782429Y-70245765D01*
X156806227Y-70239804D01*
X156830496Y-70236204D01*
X156855000Y-70235000D01*
X158105000Y-70235000D01*
X158129504Y-70236204D01*
G37*
G36*
X158129504Y-73036204D02*
G01*
X158153773Y-73039804D01*
X158177571Y-73045765D01*
X158200671Y-73054030D01*
X158222849Y-73064520D01*
X158243893Y-73077133D01*
X158263598Y-73091747D01*
X158281777Y-73108223D01*
X158298253Y-73126402D01*
X158312867Y-73146107D01*
X158325480Y-73167151D01*
X158335970Y-73189329D01*
X158344235Y-73212429D01*
X158350196Y-73236227D01*
X158353796Y-73260496D01*
X158355000Y-73285000D01*
X158355000Y-74035000D01*
X158353796Y-74059504D01*
X158350196Y-74083773D01*
X158344235Y-74107571D01*
X158335970Y-74130671D01*
X158325480Y-74152849D01*
X158312867Y-74173893D01*
X158298253Y-74193598D01*
X158281777Y-74211777D01*
X158263598Y-74228253D01*
X158243893Y-74242867D01*
X158222849Y-74255480D01*
X158200671Y-74265970D01*
X158177571Y-74274235D01*
X158153773Y-74280196D01*
X158129504Y-74283796D01*
X158105000Y-74285000D01*
X156855000Y-74285000D01*
X156830496Y-74283796D01*
X156806227Y-74280196D01*
X156782429Y-74274235D01*
X156759329Y-74265970D01*
X156737151Y-74255480D01*
X156716107Y-74242867D01*
X156696402Y-74228253D01*
X156678223Y-74211777D01*
X156661747Y-74193598D01*
X156647133Y-74173893D01*
X156634520Y-74152849D01*
X156624030Y-74130671D01*
X156615765Y-74107571D01*
X156609804Y-74083773D01*
X156606204Y-74059504D01*
X156605000Y-74035000D01*
X156605000Y-73285000D01*
X156606204Y-73260496D01*
X156609804Y-73236227D01*
X156615765Y-73212429D01*
X156624030Y-73189329D01*
X156634520Y-73167151D01*
X156647133Y-73146107D01*
X156661747Y-73126402D01*
X156678223Y-73108223D01*
X156696402Y-73091747D01*
X156716107Y-73077133D01*
X156737151Y-73064520D01*
X156759329Y-73054030D01*
X156782429Y-73045765D01*
X156806227Y-73039804D01*
X156830496Y-73036204D01*
X156855000Y-73035000D01*
X158105000Y-73035000D01*
X158129504Y-73036204D01*
G37*
G36*
X159399504Y-79256204D02*
G01*
X159423773Y-79259804D01*
X159447571Y-79265765D01*
X159470671Y-79274030D01*
X159492849Y-79284520D01*
X159513893Y-79297133D01*
X159533598Y-79311747D01*
X159551777Y-79328223D01*
X159568253Y-79346402D01*
X159582867Y-79366107D01*
X159595480Y-79387151D01*
X159605970Y-79409329D01*
X159614235Y-79432429D01*
X159620196Y-79456227D01*
X159623796Y-79480496D01*
X159625000Y-79505000D01*
X159625000Y-80255000D01*
X159623796Y-80279504D01*
X159620196Y-80303773D01*
X159614235Y-80327571D01*
X159605970Y-80350671D01*
X159595480Y-80372849D01*
X159582867Y-80393893D01*
X159568253Y-80413598D01*
X159551777Y-80431777D01*
X159533598Y-80448253D01*
X159513893Y-80462867D01*
X159492849Y-80475480D01*
X159470671Y-80485970D01*
X159447571Y-80494235D01*
X159423773Y-80500196D01*
X159399504Y-80503796D01*
X159375000Y-80505000D01*
X158125000Y-80505000D01*
X158100496Y-80503796D01*
X158076227Y-80500196D01*
X158052429Y-80494235D01*
X158029329Y-80485970D01*
X158007151Y-80475480D01*
X157986107Y-80462867D01*
X157966402Y-80448253D01*
X157948223Y-80431777D01*
X157931747Y-80413598D01*
X157917133Y-80393893D01*
X157904520Y-80372849D01*
X157894030Y-80350671D01*
X157885765Y-80327571D01*
X157879804Y-80303773D01*
X157876204Y-80279504D01*
X157875000Y-80255000D01*
X157875000Y-79505000D01*
X157876204Y-79480496D01*
X157879804Y-79456227D01*
X157885765Y-79432429D01*
X157894030Y-79409329D01*
X157904520Y-79387151D01*
X157917133Y-79366107D01*
X157931747Y-79346402D01*
X157948223Y-79328223D01*
X157966402Y-79311747D01*
X157986107Y-79297133D01*
X158007151Y-79284520D01*
X158029329Y-79274030D01*
X158052429Y-79265765D01*
X158076227Y-79259804D01*
X158100496Y-79256204D01*
X158125000Y-79255000D01*
X159375000Y-79255000D01*
X159399504Y-79256204D01*
G37*
G36*
X159399504Y-82056204D02*
G01*
X159423773Y-82059804D01*
X159447571Y-82065765D01*
X159470671Y-82074030D01*
X159492849Y-82084520D01*
X159513893Y-82097133D01*
X159533598Y-82111747D01*
X159551777Y-82128223D01*
X159568253Y-82146402D01*
X159582867Y-82166107D01*
X159595480Y-82187151D01*
X159605970Y-82209329D01*
X159614235Y-82232429D01*
X159620196Y-82256227D01*
X159623796Y-82280496D01*
X159625000Y-82305000D01*
X159625000Y-83055000D01*
X159623796Y-83079504D01*
X159620196Y-83103773D01*
X159614235Y-83127571D01*
X159605970Y-83150671D01*
X159595480Y-83172849D01*
X159582867Y-83193893D01*
X159568253Y-83213598D01*
X159551777Y-83231777D01*
X159533598Y-83248253D01*
X159513893Y-83262867D01*
X159492849Y-83275480D01*
X159470671Y-83285970D01*
X159447571Y-83294235D01*
X159423773Y-83300196D01*
X159399504Y-83303796D01*
X159375000Y-83305000D01*
X158125000Y-83305000D01*
X158100496Y-83303796D01*
X158076227Y-83300196D01*
X158052429Y-83294235D01*
X158029329Y-83285970D01*
X158007151Y-83275480D01*
X157986107Y-83262867D01*
X157966402Y-83248253D01*
X157948223Y-83231777D01*
X157931747Y-83213598D01*
X157917133Y-83193893D01*
X157904520Y-83172849D01*
X157894030Y-83150671D01*
X157885765Y-83127571D01*
X157879804Y-83103773D01*
X157876204Y-83079504D01*
X157875000Y-83055000D01*
X157875000Y-82305000D01*
X157876204Y-82280496D01*
X157879804Y-82256227D01*
X157885765Y-82232429D01*
X157894030Y-82209329D01*
X157904520Y-82187151D01*
X157917133Y-82166107D01*
X157931747Y-82146402D01*
X157948223Y-82128223D01*
X157966402Y-82111747D01*
X157986107Y-82097133D01*
X158007151Y-82084520D01*
X158029329Y-82074030D01*
X158052429Y-82065765D01*
X158076227Y-82059804D01*
X158100496Y-82056204D01*
X158125000Y-82055000D01*
X159375000Y-82055000D01*
X159399504Y-82056204D01*
G37*
G36*
X146699504Y-79256204D02*
G01*
X146723773Y-79259804D01*
X146747571Y-79265765D01*
X146770671Y-79274030D01*
X146792849Y-79284520D01*
X146813893Y-79297133D01*
X146833598Y-79311747D01*
X146851777Y-79328223D01*
X146868253Y-79346402D01*
X146882867Y-79366107D01*
X146895480Y-79387151D01*
X146905970Y-79409329D01*
X146914235Y-79432429D01*
X146920196Y-79456227D01*
X146923796Y-79480496D01*
X146925000Y-79505000D01*
X146925000Y-80255000D01*
X146923796Y-80279504D01*
X146920196Y-80303773D01*
X146914235Y-80327571D01*
X146905970Y-80350671D01*
X146895480Y-80372849D01*
X146882867Y-80393893D01*
X146868253Y-80413598D01*
X146851777Y-80431777D01*
X146833598Y-80448253D01*
X146813893Y-80462867D01*
X146792849Y-80475480D01*
X146770671Y-80485970D01*
X146747571Y-80494235D01*
X146723773Y-80500196D01*
X146699504Y-80503796D01*
X146675000Y-80505000D01*
X145425000Y-80505000D01*
X145400496Y-80503796D01*
X145376227Y-80500196D01*
X145352429Y-80494235D01*
X145329329Y-80485970D01*
X145307151Y-80475480D01*
X145286107Y-80462867D01*
X145266402Y-80448253D01*
X145248223Y-80431777D01*
X145231747Y-80413598D01*
X145217133Y-80393893D01*
X145204520Y-80372849D01*
X145194030Y-80350671D01*
X145185765Y-80327571D01*
X145179804Y-80303773D01*
X145176204Y-80279504D01*
X145175000Y-80255000D01*
X145175000Y-79505000D01*
X145176204Y-79480496D01*
X145179804Y-79456227D01*
X145185765Y-79432429D01*
X145194030Y-79409329D01*
X145204520Y-79387151D01*
X145217133Y-79366107D01*
X145231747Y-79346402D01*
X145248223Y-79328223D01*
X145266402Y-79311747D01*
X145286107Y-79297133D01*
X145307151Y-79284520D01*
X145329329Y-79274030D01*
X145352429Y-79265765D01*
X145376227Y-79259804D01*
X145400496Y-79256204D01*
X145425000Y-79255000D01*
X146675000Y-79255000D01*
X146699504Y-79256204D01*
G37*
G36*
X146699504Y-82056204D02*
G01*
X146723773Y-82059804D01*
X146747571Y-82065765D01*
X146770671Y-82074030D01*
X146792849Y-82084520D01*
X146813893Y-82097133D01*
X146833598Y-82111747D01*
X146851777Y-82128223D01*
X146868253Y-82146402D01*
X146882867Y-82166107D01*
X146895480Y-82187151D01*
X146905970Y-82209329D01*
X146914235Y-82232429D01*
X146920196Y-82256227D01*
X146923796Y-82280496D01*
X146925000Y-82305000D01*
X146925000Y-83055000D01*
X146923796Y-83079504D01*
X146920196Y-83103773D01*
X146914235Y-83127571D01*
X146905970Y-83150671D01*
X146895480Y-83172849D01*
X146882867Y-83193893D01*
X146868253Y-83213598D01*
X146851777Y-83231777D01*
X146833598Y-83248253D01*
X146813893Y-83262867D01*
X146792849Y-83275480D01*
X146770671Y-83285970D01*
X146747571Y-83294235D01*
X146723773Y-83300196D01*
X146699504Y-83303796D01*
X146675000Y-83305000D01*
X145425000Y-83305000D01*
X145400496Y-83303796D01*
X145376227Y-83300196D01*
X145352429Y-83294235D01*
X145329329Y-83285970D01*
X145307151Y-83275480D01*
X145286107Y-83262867D01*
X145266402Y-83248253D01*
X145248223Y-83231777D01*
X145231747Y-83213598D01*
X145217133Y-83193893D01*
X145204520Y-83172849D01*
X145194030Y-83150671D01*
X145185765Y-83127571D01*
X145179804Y-83103773D01*
X145176204Y-83079504D01*
X145175000Y-83055000D01*
X145175000Y-82305000D01*
X145176204Y-82280496D01*
X145179804Y-82256227D01*
X145185765Y-82232429D01*
X145194030Y-82209329D01*
X145204520Y-82187151D01*
X145217133Y-82166107D01*
X145231747Y-82146402D01*
X145248223Y-82128223D01*
X145266402Y-82111747D01*
X145286107Y-82097133D01*
X145307151Y-82084520D01*
X145329329Y-82074030D01*
X145352429Y-82065765D01*
X145376227Y-82059804D01*
X145400496Y-82056204D01*
X145425000Y-82055000D01*
X146675000Y-82055000D01*
X146699504Y-82056204D01*
G37*
G36*
X133999504Y-79256204D02*
G01*
X134023773Y-79259804D01*
X134047571Y-79265765D01*
X134070671Y-79274030D01*
X134092849Y-79284520D01*
X134113893Y-79297133D01*
X134133598Y-79311747D01*
X134151777Y-79328223D01*
X134168253Y-79346402D01*
X134182867Y-79366107D01*
X134195480Y-79387151D01*
X134205970Y-79409329D01*
X134214235Y-79432429D01*
X134220196Y-79456227D01*
X134223796Y-79480496D01*
X134225000Y-79505000D01*
X134225000Y-80255000D01*
X134223796Y-80279504D01*
X134220196Y-80303773D01*
X134214235Y-80327571D01*
X134205970Y-80350671D01*
X134195480Y-80372849D01*
X134182867Y-80393893D01*
X134168253Y-80413598D01*
X134151777Y-80431777D01*
X134133598Y-80448253D01*
X134113893Y-80462867D01*
X134092849Y-80475480D01*
X134070671Y-80485970D01*
X134047571Y-80494235D01*
X134023773Y-80500196D01*
X133999504Y-80503796D01*
X133975000Y-80505000D01*
X132725000Y-80505000D01*
X132700496Y-80503796D01*
X132676227Y-80500196D01*
X132652429Y-80494235D01*
X132629329Y-80485970D01*
X132607151Y-80475480D01*
X132586107Y-80462867D01*
X132566402Y-80448253D01*
X132548223Y-80431777D01*
X132531747Y-80413598D01*
X132517133Y-80393893D01*
X132504520Y-80372849D01*
X132494030Y-80350671D01*
X132485765Y-80327571D01*
X132479804Y-80303773D01*
X132476204Y-80279504D01*
X132475000Y-80255000D01*
X132475000Y-79505000D01*
X132476204Y-79480496D01*
X132479804Y-79456227D01*
X132485765Y-79432429D01*
X132494030Y-79409329D01*
X132504520Y-79387151D01*
X132517133Y-79366107D01*
X132531747Y-79346402D01*
X132548223Y-79328223D01*
X132566402Y-79311747D01*
X132586107Y-79297133D01*
X132607151Y-79284520D01*
X132629329Y-79274030D01*
X132652429Y-79265765D01*
X132676227Y-79259804D01*
X132700496Y-79256204D01*
X132725000Y-79255000D01*
X133975000Y-79255000D01*
X133999504Y-79256204D01*
G37*
G36*
X133999504Y-82056204D02*
G01*
X134023773Y-82059804D01*
X134047571Y-82065765D01*
X134070671Y-82074030D01*
X134092849Y-82084520D01*
X134113893Y-82097133D01*
X134133598Y-82111747D01*
X134151777Y-82128223D01*
X134168253Y-82146402D01*
X134182867Y-82166107D01*
X134195480Y-82187151D01*
X134205970Y-82209329D01*
X134214235Y-82232429D01*
X134220196Y-82256227D01*
X134223796Y-82280496D01*
X134225000Y-82305000D01*
X134225000Y-83055000D01*
X134223796Y-83079504D01*
X134220196Y-83103773D01*
X134214235Y-83127571D01*
X134205970Y-83150671D01*
X134195480Y-83172849D01*
X134182867Y-83193893D01*
X134168253Y-83213598D01*
X134151777Y-83231777D01*
X134133598Y-83248253D01*
X134113893Y-83262867D01*
X134092849Y-83275480D01*
X134070671Y-83285970D01*
X134047571Y-83294235D01*
X134023773Y-83300196D01*
X133999504Y-83303796D01*
X133975000Y-83305000D01*
X132725000Y-83305000D01*
X132700496Y-83303796D01*
X132676227Y-83300196D01*
X132652429Y-83294235D01*
X132629329Y-83285970D01*
X132607151Y-83275480D01*
X132586107Y-83262867D01*
X132566402Y-83248253D01*
X132548223Y-83231777D01*
X132531747Y-83213598D01*
X132517133Y-83193893D01*
X132504520Y-83172849D01*
X132494030Y-83150671D01*
X132485765Y-83127571D01*
X132479804Y-83103773D01*
X132476204Y-83079504D01*
X132475000Y-83055000D01*
X132475000Y-82305000D01*
X132476204Y-82280496D01*
X132479804Y-82256227D01*
X132485765Y-82232429D01*
X132494030Y-82209329D01*
X132504520Y-82187151D01*
X132517133Y-82166107D01*
X132531747Y-82146402D01*
X132548223Y-82128223D01*
X132566402Y-82111747D01*
X132586107Y-82097133D01*
X132607151Y-82084520D01*
X132629329Y-82074030D01*
X132652429Y-82065765D01*
X132676227Y-82059804D01*
X132700496Y-82056204D01*
X132725000Y-82055000D01*
X133975000Y-82055000D01*
X133999504Y-82056204D01*
G37*
G36*
X121299504Y-79256204D02*
G01*
X121323773Y-79259804D01*
X121347571Y-79265765D01*
X121370671Y-79274030D01*
X121392849Y-79284520D01*
X121413893Y-79297133D01*
X121433598Y-79311747D01*
X121451777Y-79328223D01*
X121468253Y-79346402D01*
X121482867Y-79366107D01*
X121495480Y-79387151D01*
X121505970Y-79409329D01*
X121514235Y-79432429D01*
X121520196Y-79456227D01*
X121523796Y-79480496D01*
X121525000Y-79505000D01*
X121525000Y-80255000D01*
X121523796Y-80279504D01*
X121520196Y-80303773D01*
X121514235Y-80327571D01*
X121505970Y-80350671D01*
X121495480Y-80372849D01*
X121482867Y-80393893D01*
X121468253Y-80413598D01*
X121451777Y-80431777D01*
X121433598Y-80448253D01*
X121413893Y-80462867D01*
X121392849Y-80475480D01*
X121370671Y-80485970D01*
X121347571Y-80494235D01*
X121323773Y-80500196D01*
X121299504Y-80503796D01*
X121275000Y-80505000D01*
X120025000Y-80505000D01*
X120000496Y-80503796D01*
X119976227Y-80500196D01*
X119952429Y-80494235D01*
X119929329Y-80485970D01*
X119907151Y-80475480D01*
X119886107Y-80462867D01*
X119866402Y-80448253D01*
X119848223Y-80431777D01*
X119831747Y-80413598D01*
X119817133Y-80393893D01*
X119804520Y-80372849D01*
X119794030Y-80350671D01*
X119785765Y-80327571D01*
X119779804Y-80303773D01*
X119776204Y-80279504D01*
X119775000Y-80255000D01*
X119775000Y-79505000D01*
X119776204Y-79480496D01*
X119779804Y-79456227D01*
X119785765Y-79432429D01*
X119794030Y-79409329D01*
X119804520Y-79387151D01*
X119817133Y-79366107D01*
X119831747Y-79346402D01*
X119848223Y-79328223D01*
X119866402Y-79311747D01*
X119886107Y-79297133D01*
X119907151Y-79284520D01*
X119929329Y-79274030D01*
X119952429Y-79265765D01*
X119976227Y-79259804D01*
X120000496Y-79256204D01*
X120025000Y-79255000D01*
X121275000Y-79255000D01*
X121299504Y-79256204D01*
G37*
G36*
X121299504Y-82056204D02*
G01*
X121323773Y-82059804D01*
X121347571Y-82065765D01*
X121370671Y-82074030D01*
X121392849Y-82084520D01*
X121413893Y-82097133D01*
X121433598Y-82111747D01*
X121451777Y-82128223D01*
X121468253Y-82146402D01*
X121482867Y-82166107D01*
X121495480Y-82187151D01*
X121505970Y-82209329D01*
X121514235Y-82232429D01*
X121520196Y-82256227D01*
X121523796Y-82280496D01*
X121525000Y-82305000D01*
X121525000Y-83055000D01*
X121523796Y-83079504D01*
X121520196Y-83103773D01*
X121514235Y-83127571D01*
X121505970Y-83150671D01*
X121495480Y-83172849D01*
X121482867Y-83193893D01*
X121468253Y-83213598D01*
X121451777Y-83231777D01*
X121433598Y-83248253D01*
X121413893Y-83262867D01*
X121392849Y-83275480D01*
X121370671Y-83285970D01*
X121347571Y-83294235D01*
X121323773Y-83300196D01*
X121299504Y-83303796D01*
X121275000Y-83305000D01*
X120025000Y-83305000D01*
X120000496Y-83303796D01*
X119976227Y-83300196D01*
X119952429Y-83294235D01*
X119929329Y-83285970D01*
X119907151Y-83275480D01*
X119886107Y-83262867D01*
X119866402Y-83248253D01*
X119848223Y-83231777D01*
X119831747Y-83213598D01*
X119817133Y-83193893D01*
X119804520Y-83172849D01*
X119794030Y-83150671D01*
X119785765Y-83127571D01*
X119779804Y-83103773D01*
X119776204Y-83079504D01*
X119775000Y-83055000D01*
X119775000Y-82305000D01*
X119776204Y-82280496D01*
X119779804Y-82256227D01*
X119785765Y-82232429D01*
X119794030Y-82209329D01*
X119804520Y-82187151D01*
X119817133Y-82166107D01*
X119831747Y-82146402D01*
X119848223Y-82128223D01*
X119866402Y-82111747D01*
X119886107Y-82097133D01*
X119907151Y-82084520D01*
X119929329Y-82074030D01*
X119952429Y-82065765D01*
X119976227Y-82059804D01*
X120000496Y-82056204D01*
X120025000Y-82055000D01*
X121275000Y-82055000D01*
X121299504Y-82056204D01*
G37*
G36*
X108599504Y-79256204D02*
G01*
X108623773Y-79259804D01*
X108647571Y-79265765D01*
X108670671Y-79274030D01*
X108692849Y-79284520D01*
X108713893Y-79297133D01*
X108733598Y-79311747D01*
X108751777Y-79328223D01*
X108768253Y-79346402D01*
X108782867Y-79366107D01*
X108795480Y-79387151D01*
X108805970Y-79409329D01*
X108814235Y-79432429D01*
X108820196Y-79456227D01*
X108823796Y-79480496D01*
X108825000Y-79505000D01*
X108825000Y-80255000D01*
X108823796Y-80279504D01*
X108820196Y-80303773D01*
X108814235Y-80327571D01*
X108805970Y-80350671D01*
X108795480Y-80372849D01*
X108782867Y-80393893D01*
X108768253Y-80413598D01*
X108751777Y-80431777D01*
X108733598Y-80448253D01*
X108713893Y-80462867D01*
X108692849Y-80475480D01*
X108670671Y-80485970D01*
X108647571Y-80494235D01*
X108623773Y-80500196D01*
X108599504Y-80503796D01*
X108575000Y-80505000D01*
X107325000Y-80505000D01*
X107300496Y-80503796D01*
X107276227Y-80500196D01*
X107252429Y-80494235D01*
X107229329Y-80485970D01*
X107207151Y-80475480D01*
X107186107Y-80462867D01*
X107166402Y-80448253D01*
X107148223Y-80431777D01*
X107131747Y-80413598D01*
X107117133Y-80393893D01*
X107104520Y-80372849D01*
X107094030Y-80350671D01*
X107085765Y-80327571D01*
X107079804Y-80303773D01*
X107076204Y-80279504D01*
X107075000Y-80255000D01*
X107075000Y-79505000D01*
X107076204Y-79480496D01*
X107079804Y-79456227D01*
X107085765Y-79432429D01*
X107094030Y-79409329D01*
X107104520Y-79387151D01*
X107117133Y-79366107D01*
X107131747Y-79346402D01*
X107148223Y-79328223D01*
X107166402Y-79311747D01*
X107186107Y-79297133D01*
X107207151Y-79284520D01*
X107229329Y-79274030D01*
X107252429Y-79265765D01*
X107276227Y-79259804D01*
X107300496Y-79256204D01*
X107325000Y-79255000D01*
X108575000Y-79255000D01*
X108599504Y-79256204D01*
G37*
G36*
X108599504Y-82056204D02*
G01*
X108623773Y-82059804D01*
X108647571Y-82065765D01*
X108670671Y-82074030D01*
X108692849Y-82084520D01*
X108713893Y-82097133D01*
X108733598Y-82111747D01*
X108751777Y-82128223D01*
X108768253Y-82146402D01*
X108782867Y-82166107D01*
X108795480Y-82187151D01*
X108805970Y-82209329D01*
X108814235Y-82232429D01*
X108820196Y-82256227D01*
X108823796Y-82280496D01*
X108825000Y-82305000D01*
X108825000Y-83055000D01*
X108823796Y-83079504D01*
X108820196Y-83103773D01*
X108814235Y-83127571D01*
X108805970Y-83150671D01*
X108795480Y-83172849D01*
X108782867Y-83193893D01*
X108768253Y-83213598D01*
X108751777Y-83231777D01*
X108733598Y-83248253D01*
X108713893Y-83262867D01*
X108692849Y-83275480D01*
X108670671Y-83285970D01*
X108647571Y-83294235D01*
X108623773Y-83300196D01*
X108599504Y-83303796D01*
X108575000Y-83305000D01*
X107325000Y-83305000D01*
X107300496Y-83303796D01*
X107276227Y-83300196D01*
X107252429Y-83294235D01*
X107229329Y-83285970D01*
X107207151Y-83275480D01*
X107186107Y-83262867D01*
X107166402Y-83248253D01*
X107148223Y-83231777D01*
X107131747Y-83213598D01*
X107117133Y-83193893D01*
X107104520Y-83172849D01*
X107094030Y-83150671D01*
X107085765Y-83127571D01*
X107079804Y-83103773D01*
X107076204Y-83079504D01*
X107075000Y-83055000D01*
X107075000Y-82305000D01*
X107076204Y-82280496D01*
X107079804Y-82256227D01*
X107085765Y-82232429D01*
X107094030Y-82209329D01*
X107104520Y-82187151D01*
X107117133Y-82166107D01*
X107131747Y-82146402D01*
X107148223Y-82128223D01*
X107166402Y-82111747D01*
X107186107Y-82097133D01*
X107207151Y-82084520D01*
X107229329Y-82074030D01*
X107252429Y-82065765D01*
X107276227Y-82059804D01*
X107300496Y-82056204D01*
X107325000Y-82055000D01*
X108575000Y-82055000D01*
X108599504Y-82056204D01*
G37*
G36*
X95899504Y-79256204D02*
G01*
X95923773Y-79259804D01*
X95947571Y-79265765D01*
X95970671Y-79274030D01*
X95992849Y-79284520D01*
X96013893Y-79297133D01*
X96033598Y-79311747D01*
X96051777Y-79328223D01*
X96068253Y-79346402D01*
X96082867Y-79366107D01*
X96095480Y-79387151D01*
X96105970Y-79409329D01*
X96114235Y-79432429D01*
X96120196Y-79456227D01*
X96123796Y-79480496D01*
X96125000Y-79505000D01*
X96125000Y-80255000D01*
X96123796Y-80279504D01*
X96120196Y-80303773D01*
X96114235Y-80327571D01*
X96105970Y-80350671D01*
X96095480Y-80372849D01*
X96082867Y-80393893D01*
X96068253Y-80413598D01*
X96051777Y-80431777D01*
X96033598Y-80448253D01*
X96013893Y-80462867D01*
X95992849Y-80475480D01*
X95970671Y-80485970D01*
X95947571Y-80494235D01*
X95923773Y-80500196D01*
X95899504Y-80503796D01*
X95875000Y-80505000D01*
X94625000Y-80505000D01*
X94600496Y-80503796D01*
X94576227Y-80500196D01*
X94552429Y-80494235D01*
X94529329Y-80485970D01*
X94507151Y-80475480D01*
X94486107Y-80462867D01*
X94466402Y-80448253D01*
X94448223Y-80431777D01*
X94431747Y-80413598D01*
X94417133Y-80393893D01*
X94404520Y-80372849D01*
X94394030Y-80350671D01*
X94385765Y-80327571D01*
X94379804Y-80303773D01*
X94376204Y-80279504D01*
X94375000Y-80255000D01*
X94375000Y-79505000D01*
X94376204Y-79480496D01*
X94379804Y-79456227D01*
X94385765Y-79432429D01*
X94394030Y-79409329D01*
X94404520Y-79387151D01*
X94417133Y-79366107D01*
X94431747Y-79346402D01*
X94448223Y-79328223D01*
X94466402Y-79311747D01*
X94486107Y-79297133D01*
X94507151Y-79284520D01*
X94529329Y-79274030D01*
X94552429Y-79265765D01*
X94576227Y-79259804D01*
X94600496Y-79256204D01*
X94625000Y-79255000D01*
X95875000Y-79255000D01*
X95899504Y-79256204D01*
G37*
G36*
X95899504Y-82056204D02*
G01*
X95923773Y-82059804D01*
X95947571Y-82065765D01*
X95970671Y-82074030D01*
X95992849Y-82084520D01*
X96013893Y-82097133D01*
X96033598Y-82111747D01*
X96051777Y-82128223D01*
X96068253Y-82146402D01*
X96082867Y-82166107D01*
X96095480Y-82187151D01*
X96105970Y-82209329D01*
X96114235Y-82232429D01*
X96120196Y-82256227D01*
X96123796Y-82280496D01*
X96125000Y-82305000D01*
X96125000Y-83055000D01*
X96123796Y-83079504D01*
X96120196Y-83103773D01*
X96114235Y-83127571D01*
X96105970Y-83150671D01*
X96095480Y-83172849D01*
X96082867Y-83193893D01*
X96068253Y-83213598D01*
X96051777Y-83231777D01*
X96033598Y-83248253D01*
X96013893Y-83262867D01*
X95992849Y-83275480D01*
X95970671Y-83285970D01*
X95947571Y-83294235D01*
X95923773Y-83300196D01*
X95899504Y-83303796D01*
X95875000Y-83305000D01*
X94625000Y-83305000D01*
X94600496Y-83303796D01*
X94576227Y-83300196D01*
X94552429Y-83294235D01*
X94529329Y-83285970D01*
X94507151Y-83275480D01*
X94486107Y-83262867D01*
X94466402Y-83248253D01*
X94448223Y-83231777D01*
X94431747Y-83213598D01*
X94417133Y-83193893D01*
X94404520Y-83172849D01*
X94394030Y-83150671D01*
X94385765Y-83127571D01*
X94379804Y-83103773D01*
X94376204Y-83079504D01*
X94375000Y-83055000D01*
X94375000Y-82305000D01*
X94376204Y-82280496D01*
X94379804Y-82256227D01*
X94385765Y-82232429D01*
X94394030Y-82209329D01*
X94404520Y-82187151D01*
X94417133Y-82166107D01*
X94431747Y-82146402D01*
X94448223Y-82128223D01*
X94466402Y-82111747D01*
X94486107Y-82097133D01*
X94507151Y-82084520D01*
X94529329Y-82074030D01*
X94552429Y-82065765D01*
X94576227Y-82059804D01*
X94600496Y-82056204D01*
X94625000Y-82055000D01*
X95875000Y-82055000D01*
X95899504Y-82056204D01*
G37*
G36*
X83199504Y-79256204D02*
G01*
X83223773Y-79259804D01*
X83247571Y-79265765D01*
X83270671Y-79274030D01*
X83292849Y-79284520D01*
X83313893Y-79297133D01*
X83333598Y-79311747D01*
X83351777Y-79328223D01*
X83368253Y-79346402D01*
X83382867Y-79366107D01*
X83395480Y-79387151D01*
X83405970Y-79409329D01*
X83414235Y-79432429D01*
X83420196Y-79456227D01*
X83423796Y-79480496D01*
X83425000Y-79505000D01*
X83425000Y-80255000D01*
X83423796Y-80279504D01*
X83420196Y-80303773D01*
X83414235Y-80327571D01*
X83405970Y-80350671D01*
X83395480Y-80372849D01*
X83382867Y-80393893D01*
X83368253Y-80413598D01*
X83351777Y-80431777D01*
X83333598Y-80448253D01*
X83313893Y-80462867D01*
X83292849Y-80475480D01*
X83270671Y-80485970D01*
X83247571Y-80494235D01*
X83223773Y-80500196D01*
X83199504Y-80503796D01*
X83175000Y-80505000D01*
X81925000Y-80505000D01*
X81900496Y-80503796D01*
X81876227Y-80500196D01*
X81852429Y-80494235D01*
X81829329Y-80485970D01*
X81807151Y-80475480D01*
X81786107Y-80462867D01*
X81766402Y-80448253D01*
X81748223Y-80431777D01*
X81731747Y-80413598D01*
X81717133Y-80393893D01*
X81704520Y-80372849D01*
X81694030Y-80350671D01*
X81685765Y-80327571D01*
X81679804Y-80303773D01*
X81676204Y-80279504D01*
X81675000Y-80255000D01*
X81675000Y-79505000D01*
X81676204Y-79480496D01*
X81679804Y-79456227D01*
X81685765Y-79432429D01*
X81694030Y-79409329D01*
X81704520Y-79387151D01*
X81717133Y-79366107D01*
X81731747Y-79346402D01*
X81748223Y-79328223D01*
X81766402Y-79311747D01*
X81786107Y-79297133D01*
X81807151Y-79284520D01*
X81829329Y-79274030D01*
X81852429Y-79265765D01*
X81876227Y-79259804D01*
X81900496Y-79256204D01*
X81925000Y-79255000D01*
X83175000Y-79255000D01*
X83199504Y-79256204D01*
G37*
G36*
X83199504Y-82056204D02*
G01*
X83223773Y-82059804D01*
X83247571Y-82065765D01*
X83270671Y-82074030D01*
X83292849Y-82084520D01*
X83313893Y-82097133D01*
X83333598Y-82111747D01*
X83351777Y-82128223D01*
X83368253Y-82146402D01*
X83382867Y-82166107D01*
X83395480Y-82187151D01*
X83405970Y-82209329D01*
X83414235Y-82232429D01*
X83420196Y-82256227D01*
X83423796Y-82280496D01*
X83425000Y-82305000D01*
X83425000Y-83055000D01*
X83423796Y-83079504D01*
X83420196Y-83103773D01*
X83414235Y-83127571D01*
X83405970Y-83150671D01*
X83395480Y-83172849D01*
X83382867Y-83193893D01*
X83368253Y-83213598D01*
X83351777Y-83231777D01*
X83333598Y-83248253D01*
X83313893Y-83262867D01*
X83292849Y-83275480D01*
X83270671Y-83285970D01*
X83247571Y-83294235D01*
X83223773Y-83300196D01*
X83199504Y-83303796D01*
X83175000Y-83305000D01*
X81925000Y-83305000D01*
X81900496Y-83303796D01*
X81876227Y-83300196D01*
X81852429Y-83294235D01*
X81829329Y-83285970D01*
X81807151Y-83275480D01*
X81786107Y-83262867D01*
X81766402Y-83248253D01*
X81748223Y-83231777D01*
X81731747Y-83213598D01*
X81717133Y-83193893D01*
X81704520Y-83172849D01*
X81694030Y-83150671D01*
X81685765Y-83127571D01*
X81679804Y-83103773D01*
X81676204Y-83079504D01*
X81675000Y-83055000D01*
X81675000Y-82305000D01*
X81676204Y-82280496D01*
X81679804Y-82256227D01*
X81685765Y-82232429D01*
X81694030Y-82209329D01*
X81704520Y-82187151D01*
X81717133Y-82166107D01*
X81731747Y-82146402D01*
X81748223Y-82128223D01*
X81766402Y-82111747D01*
X81786107Y-82097133D01*
X81807151Y-82084520D01*
X81829329Y-82074030D01*
X81852429Y-82065765D01*
X81876227Y-82059804D01*
X81900496Y-82056204D01*
X81925000Y-82055000D01*
X83175000Y-82055000D01*
X83199504Y-82056204D01*
G37*
G36*
X70499504Y-79256204D02*
G01*
X70523773Y-79259804D01*
X70547571Y-79265765D01*
X70570671Y-79274030D01*
X70592849Y-79284520D01*
X70613893Y-79297133D01*
X70633598Y-79311747D01*
X70651777Y-79328223D01*
X70668253Y-79346402D01*
X70682867Y-79366107D01*
X70695480Y-79387151D01*
X70705970Y-79409329D01*
X70714235Y-79432429D01*
X70720196Y-79456227D01*
X70723796Y-79480496D01*
X70725000Y-79505000D01*
X70725000Y-80255000D01*
X70723796Y-80279504D01*
X70720196Y-80303773D01*
X70714235Y-80327571D01*
X70705970Y-80350671D01*
X70695480Y-80372849D01*
X70682867Y-80393893D01*
X70668253Y-80413598D01*
X70651777Y-80431777D01*
X70633598Y-80448253D01*
X70613893Y-80462867D01*
X70592849Y-80475480D01*
X70570671Y-80485970D01*
X70547571Y-80494235D01*
X70523773Y-80500196D01*
X70499504Y-80503796D01*
X70475000Y-80505000D01*
X69225000Y-80505000D01*
X69200496Y-80503796D01*
X69176227Y-80500196D01*
X69152429Y-80494235D01*
X69129329Y-80485970D01*
X69107151Y-80475480D01*
X69086107Y-80462867D01*
X69066402Y-80448253D01*
X69048223Y-80431777D01*
X69031747Y-80413598D01*
X69017133Y-80393893D01*
X69004520Y-80372849D01*
X68994030Y-80350671D01*
X68985765Y-80327571D01*
X68979804Y-80303773D01*
X68976204Y-80279504D01*
X68975000Y-80255000D01*
X68975000Y-79505000D01*
X68976204Y-79480496D01*
X68979804Y-79456227D01*
X68985765Y-79432429D01*
X68994030Y-79409329D01*
X69004520Y-79387151D01*
X69017133Y-79366107D01*
X69031747Y-79346402D01*
X69048223Y-79328223D01*
X69066402Y-79311747D01*
X69086107Y-79297133D01*
X69107151Y-79284520D01*
X69129329Y-79274030D01*
X69152429Y-79265765D01*
X69176227Y-79259804D01*
X69200496Y-79256204D01*
X69225000Y-79255000D01*
X70475000Y-79255000D01*
X70499504Y-79256204D01*
G37*
G36*
X70499504Y-82056204D02*
G01*
X70523773Y-82059804D01*
X70547571Y-82065765D01*
X70570671Y-82074030D01*
X70592849Y-82084520D01*
X70613893Y-82097133D01*
X70633598Y-82111747D01*
X70651777Y-82128223D01*
X70668253Y-82146402D01*
X70682867Y-82166107D01*
X70695480Y-82187151D01*
X70705970Y-82209329D01*
X70714235Y-82232429D01*
X70720196Y-82256227D01*
X70723796Y-82280496D01*
X70725000Y-82305000D01*
X70725000Y-83055000D01*
X70723796Y-83079504D01*
X70720196Y-83103773D01*
X70714235Y-83127571D01*
X70705970Y-83150671D01*
X70695480Y-83172849D01*
X70682867Y-83193893D01*
X70668253Y-83213598D01*
X70651777Y-83231777D01*
X70633598Y-83248253D01*
X70613893Y-83262867D01*
X70592849Y-83275480D01*
X70570671Y-83285970D01*
X70547571Y-83294235D01*
X70523773Y-83300196D01*
X70499504Y-83303796D01*
X70475000Y-83305000D01*
X69225000Y-83305000D01*
X69200496Y-83303796D01*
X69176227Y-83300196D01*
X69152429Y-83294235D01*
X69129329Y-83285970D01*
X69107151Y-83275480D01*
X69086107Y-83262867D01*
X69066402Y-83248253D01*
X69048223Y-83231777D01*
X69031747Y-83213598D01*
X69017133Y-83193893D01*
X69004520Y-83172849D01*
X68994030Y-83150671D01*
X68985765Y-83127571D01*
X68979804Y-83103773D01*
X68976204Y-83079504D01*
X68975000Y-83055000D01*
X68975000Y-82305000D01*
X68976204Y-82280496D01*
X68979804Y-82256227D01*
X68985765Y-82232429D01*
X68994030Y-82209329D01*
X69004520Y-82187151D01*
X69017133Y-82166107D01*
X69031747Y-82146402D01*
X69048223Y-82128223D01*
X69066402Y-82111747D01*
X69086107Y-82097133D01*
X69107151Y-82084520D01*
X69129329Y-82074030D01*
X69152429Y-82065765D01*
X69176227Y-82059804D01*
X69200496Y-82056204D01*
X69225000Y-82055000D01*
X70475000Y-82055000D01*
X70499504Y-82056204D01*
G37*
G36*
X162877004Y-79256204D02*
G01*
X162901273Y-79259804D01*
X162925071Y-79265765D01*
X162948171Y-79274030D01*
X162970349Y-79284520D01*
X162991393Y-79297133D01*
X163011098Y-79311747D01*
X163029277Y-79328223D01*
X163045753Y-79346402D01*
X163060367Y-79366107D01*
X163072980Y-79387151D01*
X163083470Y-79409329D01*
X163091735Y-79432429D01*
X163097696Y-79456227D01*
X163101296Y-79480496D01*
X163102500Y-79505000D01*
X163102500Y-80255000D01*
X163101296Y-80279504D01*
X163097696Y-80303773D01*
X163091735Y-80327571D01*
X163083470Y-80350671D01*
X163072980Y-80372849D01*
X163060367Y-80393893D01*
X163045753Y-80413598D01*
X163029277Y-80431777D01*
X163011098Y-80448253D01*
X162991393Y-80462867D01*
X162970349Y-80475480D01*
X162948171Y-80485970D01*
X162925071Y-80494235D01*
X162901273Y-80500196D01*
X162877004Y-80503796D01*
X162852500Y-80505000D01*
X161602500Y-80505000D01*
X161577996Y-80503796D01*
X161553727Y-80500196D01*
X161529929Y-80494235D01*
X161506829Y-80485970D01*
X161484651Y-80475480D01*
X161463607Y-80462867D01*
X161443902Y-80448253D01*
X161425723Y-80431777D01*
X161409247Y-80413598D01*
X161394633Y-80393893D01*
X161382020Y-80372849D01*
X161371530Y-80350671D01*
X161363265Y-80327571D01*
X161357304Y-80303773D01*
X161353704Y-80279504D01*
X161352500Y-80255000D01*
X161352500Y-79505000D01*
X161353704Y-79480496D01*
X161357304Y-79456227D01*
X161363265Y-79432429D01*
X161371530Y-79409329D01*
X161382020Y-79387151D01*
X161394633Y-79366107D01*
X161409247Y-79346402D01*
X161425723Y-79328223D01*
X161443902Y-79311747D01*
X161463607Y-79297133D01*
X161484651Y-79284520D01*
X161506829Y-79274030D01*
X161529929Y-79265765D01*
X161553727Y-79259804D01*
X161577996Y-79256204D01*
X161602500Y-79255000D01*
X162852500Y-79255000D01*
X162877004Y-79256204D01*
G37*
G36*
X162877004Y-82056204D02*
G01*
X162901273Y-82059804D01*
X162925071Y-82065765D01*
X162948171Y-82074030D01*
X162970349Y-82084520D01*
X162991393Y-82097133D01*
X163011098Y-82111747D01*
X163029277Y-82128223D01*
X163045753Y-82146402D01*
X163060367Y-82166107D01*
X163072980Y-82187151D01*
X163083470Y-82209329D01*
X163091735Y-82232429D01*
X163097696Y-82256227D01*
X163101296Y-82280496D01*
X163102500Y-82305000D01*
X163102500Y-83055000D01*
X163101296Y-83079504D01*
X163097696Y-83103773D01*
X163091735Y-83127571D01*
X163083470Y-83150671D01*
X163072980Y-83172849D01*
X163060367Y-83193893D01*
X163045753Y-83213598D01*
X163029277Y-83231777D01*
X163011098Y-83248253D01*
X162991393Y-83262867D01*
X162970349Y-83275480D01*
X162948171Y-83285970D01*
X162925071Y-83294235D01*
X162901273Y-83300196D01*
X162877004Y-83303796D01*
X162852500Y-83305000D01*
X161602500Y-83305000D01*
X161577996Y-83303796D01*
X161553727Y-83300196D01*
X161529929Y-83294235D01*
X161506829Y-83285970D01*
X161484651Y-83275480D01*
X161463607Y-83262867D01*
X161443902Y-83248253D01*
X161425723Y-83231777D01*
X161409247Y-83213598D01*
X161394633Y-83193893D01*
X161382020Y-83172849D01*
X161371530Y-83150671D01*
X161363265Y-83127571D01*
X161357304Y-83103773D01*
X161353704Y-83079504D01*
X161352500Y-83055000D01*
X161352500Y-82305000D01*
X161353704Y-82280496D01*
X161357304Y-82256227D01*
X161363265Y-82232429D01*
X161371530Y-82209329D01*
X161382020Y-82187151D01*
X161394633Y-82166107D01*
X161409247Y-82146402D01*
X161425723Y-82128223D01*
X161443902Y-82111747D01*
X161463607Y-82097133D01*
X161484651Y-82084520D01*
X161506829Y-82074030D01*
X161529929Y-82065765D01*
X161553727Y-82059804D01*
X161577996Y-82056204D01*
X161602500Y-82055000D01*
X162852500Y-82055000D01*
X162877004Y-82056204D01*
G37*
G36*
X150177004Y-79256204D02*
G01*
X150201273Y-79259804D01*
X150225071Y-79265765D01*
X150248171Y-79274030D01*
X150270349Y-79284520D01*
X150291393Y-79297133D01*
X150311098Y-79311747D01*
X150329277Y-79328223D01*
X150345753Y-79346402D01*
X150360367Y-79366107D01*
X150372980Y-79387151D01*
X150383470Y-79409329D01*
X150391735Y-79432429D01*
X150397696Y-79456227D01*
X150401296Y-79480496D01*
X150402500Y-79505000D01*
X150402500Y-80255000D01*
X150401296Y-80279504D01*
X150397696Y-80303773D01*
X150391735Y-80327571D01*
X150383470Y-80350671D01*
X150372980Y-80372849D01*
X150360367Y-80393893D01*
X150345753Y-80413598D01*
X150329277Y-80431777D01*
X150311098Y-80448253D01*
X150291393Y-80462867D01*
X150270349Y-80475480D01*
X150248171Y-80485970D01*
X150225071Y-80494235D01*
X150201273Y-80500196D01*
X150177004Y-80503796D01*
X150152500Y-80505000D01*
X148902500Y-80505000D01*
X148877996Y-80503796D01*
X148853727Y-80500196D01*
X148829929Y-80494235D01*
X148806829Y-80485970D01*
X148784651Y-80475480D01*
X148763607Y-80462867D01*
X148743902Y-80448253D01*
X148725723Y-80431777D01*
X148709247Y-80413598D01*
X148694633Y-80393893D01*
X148682020Y-80372849D01*
X148671530Y-80350671D01*
X148663265Y-80327571D01*
X148657304Y-80303773D01*
X148653704Y-80279504D01*
X148652500Y-80255000D01*
X148652500Y-79505000D01*
X148653704Y-79480496D01*
X148657304Y-79456227D01*
X148663265Y-79432429D01*
X148671530Y-79409329D01*
X148682020Y-79387151D01*
X148694633Y-79366107D01*
X148709247Y-79346402D01*
X148725723Y-79328223D01*
X148743902Y-79311747D01*
X148763607Y-79297133D01*
X148784651Y-79284520D01*
X148806829Y-79274030D01*
X148829929Y-79265765D01*
X148853727Y-79259804D01*
X148877996Y-79256204D01*
X148902500Y-79255000D01*
X150152500Y-79255000D01*
X150177004Y-79256204D01*
G37*
G36*
X150177004Y-82056204D02*
G01*
X150201273Y-82059804D01*
X150225071Y-82065765D01*
X150248171Y-82074030D01*
X150270349Y-82084520D01*
X150291393Y-82097133D01*
X150311098Y-82111747D01*
X150329277Y-82128223D01*
X150345753Y-82146402D01*
X150360367Y-82166107D01*
X150372980Y-82187151D01*
X150383470Y-82209329D01*
X150391735Y-82232429D01*
X150397696Y-82256227D01*
X150401296Y-82280496D01*
X150402500Y-82305000D01*
X150402500Y-83055000D01*
X150401296Y-83079504D01*
X150397696Y-83103773D01*
X150391735Y-83127571D01*
X150383470Y-83150671D01*
X150372980Y-83172849D01*
X150360367Y-83193893D01*
X150345753Y-83213598D01*
X150329277Y-83231777D01*
X150311098Y-83248253D01*
X150291393Y-83262867D01*
X150270349Y-83275480D01*
X150248171Y-83285970D01*
X150225071Y-83294235D01*
X150201273Y-83300196D01*
X150177004Y-83303796D01*
X150152500Y-83305000D01*
X148902500Y-83305000D01*
X148877996Y-83303796D01*
X148853727Y-83300196D01*
X148829929Y-83294235D01*
X148806829Y-83285970D01*
X148784651Y-83275480D01*
X148763607Y-83262867D01*
X148743902Y-83248253D01*
X148725723Y-83231777D01*
X148709247Y-83213598D01*
X148694633Y-83193893D01*
X148682020Y-83172849D01*
X148671530Y-83150671D01*
X148663265Y-83127571D01*
X148657304Y-83103773D01*
X148653704Y-83079504D01*
X148652500Y-83055000D01*
X148652500Y-82305000D01*
X148653704Y-82280496D01*
X148657304Y-82256227D01*
X148663265Y-82232429D01*
X148671530Y-82209329D01*
X148682020Y-82187151D01*
X148694633Y-82166107D01*
X148709247Y-82146402D01*
X148725723Y-82128223D01*
X148743902Y-82111747D01*
X148763607Y-82097133D01*
X148784651Y-82084520D01*
X148806829Y-82074030D01*
X148829929Y-82065765D01*
X148853727Y-82059804D01*
X148877996Y-82056204D01*
X148902500Y-82055000D01*
X150152500Y-82055000D01*
X150177004Y-82056204D01*
G37*
G36*
X137477004Y-79256204D02*
G01*
X137501273Y-79259804D01*
X137525071Y-79265765D01*
X137548171Y-79274030D01*
X137570349Y-79284520D01*
X137591393Y-79297133D01*
X137611098Y-79311747D01*
X137629277Y-79328223D01*
X137645753Y-79346402D01*
X137660367Y-79366107D01*
X137672980Y-79387151D01*
X137683470Y-79409329D01*
X137691735Y-79432429D01*
X137697696Y-79456227D01*
X137701296Y-79480496D01*
X137702500Y-79505000D01*
X137702500Y-80255000D01*
X137701296Y-80279504D01*
X137697696Y-80303773D01*
X137691735Y-80327571D01*
X137683470Y-80350671D01*
X137672980Y-80372849D01*
X137660367Y-80393893D01*
X137645753Y-80413598D01*
X137629277Y-80431777D01*
X137611098Y-80448253D01*
X137591393Y-80462867D01*
X137570349Y-80475480D01*
X137548171Y-80485970D01*
X137525071Y-80494235D01*
X137501273Y-80500196D01*
X137477004Y-80503796D01*
X137452500Y-80505000D01*
X136202500Y-80505000D01*
X136177996Y-80503796D01*
X136153727Y-80500196D01*
X136129929Y-80494235D01*
X136106829Y-80485970D01*
X136084651Y-80475480D01*
X136063607Y-80462867D01*
X136043902Y-80448253D01*
X136025723Y-80431777D01*
X136009247Y-80413598D01*
X135994633Y-80393893D01*
X135982020Y-80372849D01*
X135971530Y-80350671D01*
X135963265Y-80327571D01*
X135957304Y-80303773D01*
X135953704Y-80279504D01*
X135952500Y-80255000D01*
X135952500Y-79505000D01*
X135953704Y-79480496D01*
X135957304Y-79456227D01*
X135963265Y-79432429D01*
X135971530Y-79409329D01*
X135982020Y-79387151D01*
X135994633Y-79366107D01*
X136009247Y-79346402D01*
X136025723Y-79328223D01*
X136043902Y-79311747D01*
X136063607Y-79297133D01*
X136084651Y-79284520D01*
X136106829Y-79274030D01*
X136129929Y-79265765D01*
X136153727Y-79259804D01*
X136177996Y-79256204D01*
X136202500Y-79255000D01*
X137452500Y-79255000D01*
X137477004Y-79256204D01*
G37*
G36*
X137477004Y-82056204D02*
G01*
X137501273Y-82059804D01*
X137525071Y-82065765D01*
X137548171Y-82074030D01*
X137570349Y-82084520D01*
X137591393Y-82097133D01*
X137611098Y-82111747D01*
X137629277Y-82128223D01*
X137645753Y-82146402D01*
X137660367Y-82166107D01*
X137672980Y-82187151D01*
X137683470Y-82209329D01*
X137691735Y-82232429D01*
X137697696Y-82256227D01*
X137701296Y-82280496D01*
X137702500Y-82305000D01*
X137702500Y-83055000D01*
X137701296Y-83079504D01*
X137697696Y-83103773D01*
X137691735Y-83127571D01*
X137683470Y-83150671D01*
X137672980Y-83172849D01*
X137660367Y-83193893D01*
X137645753Y-83213598D01*
X137629277Y-83231777D01*
X137611098Y-83248253D01*
X137591393Y-83262867D01*
X137570349Y-83275480D01*
X137548171Y-83285970D01*
X137525071Y-83294235D01*
X137501273Y-83300196D01*
X137477004Y-83303796D01*
X137452500Y-83305000D01*
X136202500Y-83305000D01*
X136177996Y-83303796D01*
X136153727Y-83300196D01*
X136129929Y-83294235D01*
X136106829Y-83285970D01*
X136084651Y-83275480D01*
X136063607Y-83262867D01*
X136043902Y-83248253D01*
X136025723Y-83231777D01*
X136009247Y-83213598D01*
X135994633Y-83193893D01*
X135982020Y-83172849D01*
X135971530Y-83150671D01*
X135963265Y-83127571D01*
X135957304Y-83103773D01*
X135953704Y-83079504D01*
X135952500Y-83055000D01*
X135952500Y-82305000D01*
X135953704Y-82280496D01*
X135957304Y-82256227D01*
X135963265Y-82232429D01*
X135971530Y-82209329D01*
X135982020Y-82187151D01*
X135994633Y-82166107D01*
X136009247Y-82146402D01*
X136025723Y-82128223D01*
X136043902Y-82111747D01*
X136063607Y-82097133D01*
X136084651Y-82084520D01*
X136106829Y-82074030D01*
X136129929Y-82065765D01*
X136153727Y-82059804D01*
X136177996Y-82056204D01*
X136202500Y-82055000D01*
X137452500Y-82055000D01*
X137477004Y-82056204D01*
G37*
G36*
X124777004Y-79256204D02*
G01*
X124801273Y-79259804D01*
X124825071Y-79265765D01*
X124848171Y-79274030D01*
X124870349Y-79284520D01*
X124891393Y-79297133D01*
X124911098Y-79311747D01*
X124929277Y-79328223D01*
X124945753Y-79346402D01*
X124960367Y-79366107D01*
X124972980Y-79387151D01*
X124983470Y-79409329D01*
X124991735Y-79432429D01*
X124997696Y-79456227D01*
X125001296Y-79480496D01*
X125002500Y-79505000D01*
X125002500Y-80255000D01*
X125001296Y-80279504D01*
X124997696Y-80303773D01*
X124991735Y-80327571D01*
X124983470Y-80350671D01*
X124972980Y-80372849D01*
X124960367Y-80393893D01*
X124945753Y-80413598D01*
X124929277Y-80431777D01*
X124911098Y-80448253D01*
X124891393Y-80462867D01*
X124870349Y-80475480D01*
X124848171Y-80485970D01*
X124825071Y-80494235D01*
X124801273Y-80500196D01*
X124777004Y-80503796D01*
X124752500Y-80505000D01*
X123502500Y-80505000D01*
X123477996Y-80503796D01*
X123453727Y-80500196D01*
X123429929Y-80494235D01*
X123406829Y-80485970D01*
X123384651Y-80475480D01*
X123363607Y-80462867D01*
X123343902Y-80448253D01*
X123325723Y-80431777D01*
X123309247Y-80413598D01*
X123294633Y-80393893D01*
X123282020Y-80372849D01*
X123271530Y-80350671D01*
X123263265Y-80327571D01*
X123257304Y-80303773D01*
X123253704Y-80279504D01*
X123252500Y-80255000D01*
X123252500Y-79505000D01*
X123253704Y-79480496D01*
X123257304Y-79456227D01*
X123263265Y-79432429D01*
X123271530Y-79409329D01*
X123282020Y-79387151D01*
X123294633Y-79366107D01*
X123309247Y-79346402D01*
X123325723Y-79328223D01*
X123343902Y-79311747D01*
X123363607Y-79297133D01*
X123384651Y-79284520D01*
X123406829Y-79274030D01*
X123429929Y-79265765D01*
X123453727Y-79259804D01*
X123477996Y-79256204D01*
X123502500Y-79255000D01*
X124752500Y-79255000D01*
X124777004Y-79256204D01*
G37*
G36*
X124777004Y-82056204D02*
G01*
X124801273Y-82059804D01*
X124825071Y-82065765D01*
X124848171Y-82074030D01*
X124870349Y-82084520D01*
X124891393Y-82097133D01*
X124911098Y-82111747D01*
X124929277Y-82128223D01*
X124945753Y-82146402D01*
X124960367Y-82166107D01*
X124972980Y-82187151D01*
X124983470Y-82209329D01*
X124991735Y-82232429D01*
X124997696Y-82256227D01*
X125001296Y-82280496D01*
X125002500Y-82305000D01*
X125002500Y-83055000D01*
X125001296Y-83079504D01*
X124997696Y-83103773D01*
X124991735Y-83127571D01*
X124983470Y-83150671D01*
X124972980Y-83172849D01*
X124960367Y-83193893D01*
X124945753Y-83213598D01*
X124929277Y-83231777D01*
X124911098Y-83248253D01*
X124891393Y-83262867D01*
X124870349Y-83275480D01*
X124848171Y-83285970D01*
X124825071Y-83294235D01*
X124801273Y-83300196D01*
X124777004Y-83303796D01*
X124752500Y-83305000D01*
X123502500Y-83305000D01*
X123477996Y-83303796D01*
X123453727Y-83300196D01*
X123429929Y-83294235D01*
X123406829Y-83285970D01*
X123384651Y-83275480D01*
X123363607Y-83262867D01*
X123343902Y-83248253D01*
X123325723Y-83231777D01*
X123309247Y-83213598D01*
X123294633Y-83193893D01*
X123282020Y-83172849D01*
X123271530Y-83150671D01*
X123263265Y-83127571D01*
X123257304Y-83103773D01*
X123253704Y-83079504D01*
X123252500Y-83055000D01*
X123252500Y-82305000D01*
X123253704Y-82280496D01*
X123257304Y-82256227D01*
X123263265Y-82232429D01*
X123271530Y-82209329D01*
X123282020Y-82187151D01*
X123294633Y-82166107D01*
X123309247Y-82146402D01*
X123325723Y-82128223D01*
X123343902Y-82111747D01*
X123363607Y-82097133D01*
X123384651Y-82084520D01*
X123406829Y-82074030D01*
X123429929Y-82065765D01*
X123453727Y-82059804D01*
X123477996Y-82056204D01*
X123502500Y-82055000D01*
X124752500Y-82055000D01*
X124777004Y-82056204D01*
G37*
G36*
X112077004Y-79256204D02*
G01*
X112101273Y-79259804D01*
X112125071Y-79265765D01*
X112148171Y-79274030D01*
X112170349Y-79284520D01*
X112191393Y-79297133D01*
X112211098Y-79311747D01*
X112229277Y-79328223D01*
X112245753Y-79346402D01*
X112260367Y-79366107D01*
X112272980Y-79387151D01*
X112283470Y-79409329D01*
X112291735Y-79432429D01*
X112297696Y-79456227D01*
X112301296Y-79480496D01*
X112302500Y-79505000D01*
X112302500Y-80255000D01*
X112301296Y-80279504D01*
X112297696Y-80303773D01*
X112291735Y-80327571D01*
X112283470Y-80350671D01*
X112272980Y-80372849D01*
X112260367Y-80393893D01*
X112245753Y-80413598D01*
X112229277Y-80431777D01*
X112211098Y-80448253D01*
X112191393Y-80462867D01*
X112170349Y-80475480D01*
X112148171Y-80485970D01*
X112125071Y-80494235D01*
X112101273Y-80500196D01*
X112077004Y-80503796D01*
X112052500Y-80505000D01*
X110802500Y-80505000D01*
X110777996Y-80503796D01*
X110753727Y-80500196D01*
X110729929Y-80494235D01*
X110706829Y-80485970D01*
X110684651Y-80475480D01*
X110663607Y-80462867D01*
X110643902Y-80448253D01*
X110625723Y-80431777D01*
X110609247Y-80413598D01*
X110594633Y-80393893D01*
X110582020Y-80372849D01*
X110571530Y-80350671D01*
X110563265Y-80327571D01*
X110557304Y-80303773D01*
X110553704Y-80279504D01*
X110552500Y-80255000D01*
X110552500Y-79505000D01*
X110553704Y-79480496D01*
X110557304Y-79456227D01*
X110563265Y-79432429D01*
X110571530Y-79409329D01*
X110582020Y-79387151D01*
X110594633Y-79366107D01*
X110609247Y-79346402D01*
X110625723Y-79328223D01*
X110643902Y-79311747D01*
X110663607Y-79297133D01*
X110684651Y-79284520D01*
X110706829Y-79274030D01*
X110729929Y-79265765D01*
X110753727Y-79259804D01*
X110777996Y-79256204D01*
X110802500Y-79255000D01*
X112052500Y-79255000D01*
X112077004Y-79256204D01*
G37*
G36*
X112077004Y-82056204D02*
G01*
X112101273Y-82059804D01*
X112125071Y-82065765D01*
X112148171Y-82074030D01*
X112170349Y-82084520D01*
X112191393Y-82097133D01*
X112211098Y-82111747D01*
X112229277Y-82128223D01*
X112245753Y-82146402D01*
X112260367Y-82166107D01*
X112272980Y-82187151D01*
X112283470Y-82209329D01*
X112291735Y-82232429D01*
X112297696Y-82256227D01*
X112301296Y-82280496D01*
X112302500Y-82305000D01*
X112302500Y-83055000D01*
X112301296Y-83079504D01*
X112297696Y-83103773D01*
X112291735Y-83127571D01*
X112283470Y-83150671D01*
X112272980Y-83172849D01*
X112260367Y-83193893D01*
X112245753Y-83213598D01*
X112229277Y-83231777D01*
X112211098Y-83248253D01*
X112191393Y-83262867D01*
X112170349Y-83275480D01*
X112148171Y-83285970D01*
X112125071Y-83294235D01*
X112101273Y-83300196D01*
X112077004Y-83303796D01*
X112052500Y-83305000D01*
X110802500Y-83305000D01*
X110777996Y-83303796D01*
X110753727Y-83300196D01*
X110729929Y-83294235D01*
X110706829Y-83285970D01*
X110684651Y-83275480D01*
X110663607Y-83262867D01*
X110643902Y-83248253D01*
X110625723Y-83231777D01*
X110609247Y-83213598D01*
X110594633Y-83193893D01*
X110582020Y-83172849D01*
X110571530Y-83150671D01*
X110563265Y-83127571D01*
X110557304Y-83103773D01*
X110553704Y-83079504D01*
X110552500Y-83055000D01*
X110552500Y-82305000D01*
X110553704Y-82280496D01*
X110557304Y-82256227D01*
X110563265Y-82232429D01*
X110571530Y-82209329D01*
X110582020Y-82187151D01*
X110594633Y-82166107D01*
X110609247Y-82146402D01*
X110625723Y-82128223D01*
X110643902Y-82111747D01*
X110663607Y-82097133D01*
X110684651Y-82084520D01*
X110706829Y-82074030D01*
X110729929Y-82065765D01*
X110753727Y-82059804D01*
X110777996Y-82056204D01*
X110802500Y-82055000D01*
X112052500Y-82055000D01*
X112077004Y-82056204D01*
G37*
G36*
X99377004Y-79256204D02*
G01*
X99401273Y-79259804D01*
X99425071Y-79265765D01*
X99448171Y-79274030D01*
X99470349Y-79284520D01*
X99491393Y-79297133D01*
X99511098Y-79311747D01*
X99529277Y-79328223D01*
X99545753Y-79346402D01*
X99560367Y-79366107D01*
X99572980Y-79387151D01*
X99583470Y-79409329D01*
X99591735Y-79432429D01*
X99597696Y-79456227D01*
X99601296Y-79480496D01*
X99602500Y-79505000D01*
X99602500Y-80255000D01*
X99601296Y-80279504D01*
X99597696Y-80303773D01*
X99591735Y-80327571D01*
X99583470Y-80350671D01*
X99572980Y-80372849D01*
X99560367Y-80393893D01*
X99545753Y-80413598D01*
X99529277Y-80431777D01*
X99511098Y-80448253D01*
X99491393Y-80462867D01*
X99470349Y-80475480D01*
X99448171Y-80485970D01*
X99425071Y-80494235D01*
X99401273Y-80500196D01*
X99377004Y-80503796D01*
X99352500Y-80505000D01*
X98102500Y-80505000D01*
X98077996Y-80503796D01*
X98053727Y-80500196D01*
X98029929Y-80494235D01*
X98006829Y-80485970D01*
X97984651Y-80475480D01*
X97963607Y-80462867D01*
X97943902Y-80448253D01*
X97925723Y-80431777D01*
X97909247Y-80413598D01*
X97894633Y-80393893D01*
X97882020Y-80372849D01*
X97871530Y-80350671D01*
X97863265Y-80327571D01*
X97857304Y-80303773D01*
X97853704Y-80279504D01*
X97852500Y-80255000D01*
X97852500Y-79505000D01*
X97853704Y-79480496D01*
X97857304Y-79456227D01*
X97863265Y-79432429D01*
X97871530Y-79409329D01*
X97882020Y-79387151D01*
X97894633Y-79366107D01*
X97909247Y-79346402D01*
X97925723Y-79328223D01*
X97943902Y-79311747D01*
X97963607Y-79297133D01*
X97984651Y-79284520D01*
X98006829Y-79274030D01*
X98029929Y-79265765D01*
X98053727Y-79259804D01*
X98077996Y-79256204D01*
X98102500Y-79255000D01*
X99352500Y-79255000D01*
X99377004Y-79256204D01*
G37*
G36*
X99377004Y-82056204D02*
G01*
X99401273Y-82059804D01*
X99425071Y-82065765D01*
X99448171Y-82074030D01*
X99470349Y-82084520D01*
X99491393Y-82097133D01*
X99511098Y-82111747D01*
X99529277Y-82128223D01*
X99545753Y-82146402D01*
X99560367Y-82166107D01*
X99572980Y-82187151D01*
X99583470Y-82209329D01*
X99591735Y-82232429D01*
X99597696Y-82256227D01*
X99601296Y-82280496D01*
X99602500Y-82305000D01*
X99602500Y-83055000D01*
X99601296Y-83079504D01*
X99597696Y-83103773D01*
X99591735Y-83127571D01*
X99583470Y-83150671D01*
X99572980Y-83172849D01*
X99560367Y-83193893D01*
X99545753Y-83213598D01*
X99529277Y-83231777D01*
X99511098Y-83248253D01*
X99491393Y-83262867D01*
X99470349Y-83275480D01*
X99448171Y-83285970D01*
X99425071Y-83294235D01*
X99401273Y-83300196D01*
X99377004Y-83303796D01*
X99352500Y-83305000D01*
X98102500Y-83305000D01*
X98077996Y-83303796D01*
X98053727Y-83300196D01*
X98029929Y-83294235D01*
X98006829Y-83285970D01*
X97984651Y-83275480D01*
X97963607Y-83262867D01*
X97943902Y-83248253D01*
X97925723Y-83231777D01*
X97909247Y-83213598D01*
X97894633Y-83193893D01*
X97882020Y-83172849D01*
X97871530Y-83150671D01*
X97863265Y-83127571D01*
X97857304Y-83103773D01*
X97853704Y-83079504D01*
X97852500Y-83055000D01*
X97852500Y-82305000D01*
X97853704Y-82280496D01*
X97857304Y-82256227D01*
X97863265Y-82232429D01*
X97871530Y-82209329D01*
X97882020Y-82187151D01*
X97894633Y-82166107D01*
X97909247Y-82146402D01*
X97925723Y-82128223D01*
X97943902Y-82111747D01*
X97963607Y-82097133D01*
X97984651Y-82084520D01*
X98006829Y-82074030D01*
X98029929Y-82065765D01*
X98053727Y-82059804D01*
X98077996Y-82056204D01*
X98102500Y-82055000D01*
X99352500Y-82055000D01*
X99377004Y-82056204D01*
G37*
G36*
X86677004Y-79256204D02*
G01*
X86701273Y-79259804D01*
X86725071Y-79265765D01*
X86748171Y-79274030D01*
X86770349Y-79284520D01*
X86791393Y-79297133D01*
X86811098Y-79311747D01*
X86829277Y-79328223D01*
X86845753Y-79346402D01*
X86860367Y-79366107D01*
X86872980Y-79387151D01*
X86883470Y-79409329D01*
X86891735Y-79432429D01*
X86897696Y-79456227D01*
X86901296Y-79480496D01*
X86902500Y-79505000D01*
X86902500Y-80255000D01*
X86901296Y-80279504D01*
X86897696Y-80303773D01*
X86891735Y-80327571D01*
X86883470Y-80350671D01*
X86872980Y-80372849D01*
X86860367Y-80393893D01*
X86845753Y-80413598D01*
X86829277Y-80431777D01*
X86811098Y-80448253D01*
X86791393Y-80462867D01*
X86770349Y-80475480D01*
X86748171Y-80485970D01*
X86725071Y-80494235D01*
X86701273Y-80500196D01*
X86677004Y-80503796D01*
X86652500Y-80505000D01*
X85402500Y-80505000D01*
X85377996Y-80503796D01*
X85353727Y-80500196D01*
X85329929Y-80494235D01*
X85306829Y-80485970D01*
X85284651Y-80475480D01*
X85263607Y-80462867D01*
X85243902Y-80448253D01*
X85225723Y-80431777D01*
X85209247Y-80413598D01*
X85194633Y-80393893D01*
X85182020Y-80372849D01*
X85171530Y-80350671D01*
X85163265Y-80327571D01*
X85157304Y-80303773D01*
X85153704Y-80279504D01*
X85152500Y-80255000D01*
X85152500Y-79505000D01*
X85153704Y-79480496D01*
X85157304Y-79456227D01*
X85163265Y-79432429D01*
X85171530Y-79409329D01*
X85182020Y-79387151D01*
X85194633Y-79366107D01*
X85209247Y-79346402D01*
X85225723Y-79328223D01*
X85243902Y-79311747D01*
X85263607Y-79297133D01*
X85284651Y-79284520D01*
X85306829Y-79274030D01*
X85329929Y-79265765D01*
X85353727Y-79259804D01*
X85377996Y-79256204D01*
X85402500Y-79255000D01*
X86652500Y-79255000D01*
X86677004Y-79256204D01*
G37*
G36*
X86677004Y-82056204D02*
G01*
X86701273Y-82059804D01*
X86725071Y-82065765D01*
X86748171Y-82074030D01*
X86770349Y-82084520D01*
X86791393Y-82097133D01*
X86811098Y-82111747D01*
X86829277Y-82128223D01*
X86845753Y-82146402D01*
X86860367Y-82166107D01*
X86872980Y-82187151D01*
X86883470Y-82209329D01*
X86891735Y-82232429D01*
X86897696Y-82256227D01*
X86901296Y-82280496D01*
X86902500Y-82305000D01*
X86902500Y-83055000D01*
X86901296Y-83079504D01*
X86897696Y-83103773D01*
X86891735Y-83127571D01*
X86883470Y-83150671D01*
X86872980Y-83172849D01*
X86860367Y-83193893D01*
X86845753Y-83213598D01*
X86829277Y-83231777D01*
X86811098Y-83248253D01*
X86791393Y-83262867D01*
X86770349Y-83275480D01*
X86748171Y-83285970D01*
X86725071Y-83294235D01*
X86701273Y-83300196D01*
X86677004Y-83303796D01*
X86652500Y-83305000D01*
X85402500Y-83305000D01*
X85377996Y-83303796D01*
X85353727Y-83300196D01*
X85329929Y-83294235D01*
X85306829Y-83285970D01*
X85284651Y-83275480D01*
X85263607Y-83262867D01*
X85243902Y-83248253D01*
X85225723Y-83231777D01*
X85209247Y-83213598D01*
X85194633Y-83193893D01*
X85182020Y-83172849D01*
X85171530Y-83150671D01*
X85163265Y-83127571D01*
X85157304Y-83103773D01*
X85153704Y-83079504D01*
X85152500Y-83055000D01*
X85152500Y-82305000D01*
X85153704Y-82280496D01*
X85157304Y-82256227D01*
X85163265Y-82232429D01*
X85171530Y-82209329D01*
X85182020Y-82187151D01*
X85194633Y-82166107D01*
X85209247Y-82146402D01*
X85225723Y-82128223D01*
X85243902Y-82111747D01*
X85263607Y-82097133D01*
X85284651Y-82084520D01*
X85306829Y-82074030D01*
X85329929Y-82065765D01*
X85353727Y-82059804D01*
X85377996Y-82056204D01*
X85402500Y-82055000D01*
X86652500Y-82055000D01*
X86677004Y-82056204D01*
G37*
G36*
X74007004Y-79256204D02*
G01*
X74031273Y-79259804D01*
X74055071Y-79265765D01*
X74078171Y-79274030D01*
X74100349Y-79284520D01*
X74121393Y-79297133D01*
X74141098Y-79311747D01*
X74159277Y-79328223D01*
X74175753Y-79346402D01*
X74190367Y-79366107D01*
X74202980Y-79387151D01*
X74213470Y-79409329D01*
X74221735Y-79432429D01*
X74227696Y-79456227D01*
X74231296Y-79480496D01*
X74232500Y-79505000D01*
X74232500Y-80255000D01*
X74231296Y-80279504D01*
X74227696Y-80303773D01*
X74221735Y-80327571D01*
X74213470Y-80350671D01*
X74202980Y-80372849D01*
X74190367Y-80393893D01*
X74175753Y-80413598D01*
X74159277Y-80431777D01*
X74141098Y-80448253D01*
X74121393Y-80462867D01*
X74100349Y-80475480D01*
X74078171Y-80485970D01*
X74055071Y-80494235D01*
X74031273Y-80500196D01*
X74007004Y-80503796D01*
X73982500Y-80505000D01*
X72732500Y-80505000D01*
X72707996Y-80503796D01*
X72683727Y-80500196D01*
X72659929Y-80494235D01*
X72636829Y-80485970D01*
X72614651Y-80475480D01*
X72593607Y-80462867D01*
X72573902Y-80448253D01*
X72555723Y-80431777D01*
X72539247Y-80413598D01*
X72524633Y-80393893D01*
X72512020Y-80372849D01*
X72501530Y-80350671D01*
X72493265Y-80327571D01*
X72487304Y-80303773D01*
X72483704Y-80279504D01*
X72482500Y-80255000D01*
X72482500Y-79505000D01*
X72483704Y-79480496D01*
X72487304Y-79456227D01*
X72493265Y-79432429D01*
X72501530Y-79409329D01*
X72512020Y-79387151D01*
X72524633Y-79366107D01*
X72539247Y-79346402D01*
X72555723Y-79328223D01*
X72573902Y-79311747D01*
X72593607Y-79297133D01*
X72614651Y-79284520D01*
X72636829Y-79274030D01*
X72659929Y-79265765D01*
X72683727Y-79259804D01*
X72707996Y-79256204D01*
X72732500Y-79255000D01*
X73982500Y-79255000D01*
X74007004Y-79256204D01*
G37*
G36*
X74007004Y-82056204D02*
G01*
X74031273Y-82059804D01*
X74055071Y-82065765D01*
X74078171Y-82074030D01*
X74100349Y-82084520D01*
X74121393Y-82097133D01*
X74141098Y-82111747D01*
X74159277Y-82128223D01*
X74175753Y-82146402D01*
X74190367Y-82166107D01*
X74202980Y-82187151D01*
X74213470Y-82209329D01*
X74221735Y-82232429D01*
X74227696Y-82256227D01*
X74231296Y-82280496D01*
X74232500Y-82305000D01*
X74232500Y-83055000D01*
X74231296Y-83079504D01*
X74227696Y-83103773D01*
X74221735Y-83127571D01*
X74213470Y-83150671D01*
X74202980Y-83172849D01*
X74190367Y-83193893D01*
X74175753Y-83213598D01*
X74159277Y-83231777D01*
X74141098Y-83248253D01*
X74121393Y-83262867D01*
X74100349Y-83275480D01*
X74078171Y-83285970D01*
X74055071Y-83294235D01*
X74031273Y-83300196D01*
X74007004Y-83303796D01*
X73982500Y-83305000D01*
X72732500Y-83305000D01*
X72707996Y-83303796D01*
X72683727Y-83300196D01*
X72659929Y-83294235D01*
X72636829Y-83285970D01*
X72614651Y-83275480D01*
X72593607Y-83262867D01*
X72573902Y-83248253D01*
X72555723Y-83231777D01*
X72539247Y-83213598D01*
X72524633Y-83193893D01*
X72512020Y-83172849D01*
X72501530Y-83150671D01*
X72493265Y-83127571D01*
X72487304Y-83103773D01*
X72483704Y-83079504D01*
X72482500Y-83055000D01*
X72482500Y-82305000D01*
X72483704Y-82280496D01*
X72487304Y-82256227D01*
X72493265Y-82232429D01*
X72501530Y-82209329D01*
X72512020Y-82187151D01*
X72524633Y-82166107D01*
X72539247Y-82146402D01*
X72555723Y-82128223D01*
X72573902Y-82111747D01*
X72593607Y-82097133D01*
X72614651Y-82084520D01*
X72636829Y-82074030D01*
X72659929Y-82065765D01*
X72683727Y-82059804D01*
X72707996Y-82056204D01*
X72732500Y-82055000D01*
X73982500Y-82055000D01*
X74007004Y-82056204D01*
G37*
G36*
X154444504Y-98186204D02*
G01*
X154468773Y-98189804D01*
X154492571Y-98195765D01*
X154515671Y-98204030D01*
X154537849Y-98214520D01*
X154558893Y-98227133D01*
X154578598Y-98241747D01*
X154596777Y-98258223D01*
X154613253Y-98276402D01*
X154627867Y-98296107D01*
X154640480Y-98317151D01*
X154650970Y-98339329D01*
X154659235Y-98362429D01*
X154665196Y-98386227D01*
X154668796Y-98410496D01*
X154670000Y-98435000D01*
X154670000Y-99685000D01*
X154668796Y-99709504D01*
X154665196Y-99733773D01*
X154659235Y-99757571D01*
X154650970Y-99780671D01*
X154640480Y-99802849D01*
X154627867Y-99823893D01*
X154613253Y-99843598D01*
X154596777Y-99861777D01*
X154578598Y-99878253D01*
X154558893Y-99892867D01*
X154537849Y-99905480D01*
X154515671Y-99915970D01*
X154492571Y-99924235D01*
X154468773Y-99930196D01*
X154444504Y-99933796D01*
X154420000Y-99935000D01*
X153670000Y-99935000D01*
X153645496Y-99933796D01*
X153621227Y-99930196D01*
X153597429Y-99924235D01*
X153574329Y-99915970D01*
X153552151Y-99905480D01*
X153531107Y-99892867D01*
X153511402Y-99878253D01*
X153493223Y-99861777D01*
X153476747Y-99843598D01*
X153462133Y-99823893D01*
X153449520Y-99802849D01*
X153439030Y-99780671D01*
X153430765Y-99757571D01*
X153424804Y-99733773D01*
X153421204Y-99709504D01*
X153420000Y-99685000D01*
X153420000Y-98435000D01*
X153421204Y-98410496D01*
X153424804Y-98386227D01*
X153430765Y-98362429D01*
X153439030Y-98339329D01*
X153449520Y-98317151D01*
X153462133Y-98296107D01*
X153476747Y-98276402D01*
X153493223Y-98258223D01*
X153511402Y-98241747D01*
X153531107Y-98227133D01*
X153552151Y-98214520D01*
X153574329Y-98204030D01*
X153597429Y-98195765D01*
X153621227Y-98189804D01*
X153645496Y-98186204D01*
X153670000Y-98185000D01*
X154420000Y-98185000D01*
X154444504Y-98186204D01*
G37*
G36*
X157244504Y-98186204D02*
G01*
X157268773Y-98189804D01*
X157292571Y-98195765D01*
X157315671Y-98204030D01*
X157337849Y-98214520D01*
X157358893Y-98227133D01*
X157378598Y-98241747D01*
X157396777Y-98258223D01*
X157413253Y-98276402D01*
X157427867Y-98296107D01*
X157440480Y-98317151D01*
X157450970Y-98339329D01*
X157459235Y-98362429D01*
X157465196Y-98386227D01*
X157468796Y-98410496D01*
X157470000Y-98435000D01*
X157470000Y-99685000D01*
X157468796Y-99709504D01*
X157465196Y-99733773D01*
X157459235Y-99757571D01*
X157450970Y-99780671D01*
X157440480Y-99802849D01*
X157427867Y-99823893D01*
X157413253Y-99843598D01*
X157396777Y-99861777D01*
X157378598Y-99878253D01*
X157358893Y-99892867D01*
X157337849Y-99905480D01*
X157315671Y-99915970D01*
X157292571Y-99924235D01*
X157268773Y-99930196D01*
X157244504Y-99933796D01*
X157220000Y-99935000D01*
X156470000Y-99935000D01*
X156445496Y-99933796D01*
X156421227Y-99930196D01*
X156397429Y-99924235D01*
X156374329Y-99915970D01*
X156352151Y-99905480D01*
X156331107Y-99892867D01*
X156311402Y-99878253D01*
X156293223Y-99861777D01*
X156276747Y-99843598D01*
X156262133Y-99823893D01*
X156249520Y-99802849D01*
X156239030Y-99780671D01*
X156230765Y-99757571D01*
X156224804Y-99733773D01*
X156221204Y-99709504D01*
X156220000Y-99685000D01*
X156220000Y-98435000D01*
X156221204Y-98410496D01*
X156224804Y-98386227D01*
X156230765Y-98362429D01*
X156239030Y-98339329D01*
X156249520Y-98317151D01*
X156262133Y-98296107D01*
X156276747Y-98276402D01*
X156293223Y-98258223D01*
X156311402Y-98241747D01*
X156331107Y-98227133D01*
X156352151Y-98214520D01*
X156374329Y-98204030D01*
X156397429Y-98195765D01*
X156421227Y-98189804D01*
X156445496Y-98186204D01*
X156470000Y-98185000D01*
X157220000Y-98185000D01*
X157244504Y-98186204D01*
G37*
G36*
X141744504Y-98186204D02*
G01*
X141768773Y-98189804D01*
X141792571Y-98195765D01*
X141815671Y-98204030D01*
X141837849Y-98214520D01*
X141858893Y-98227133D01*
X141878598Y-98241747D01*
X141896777Y-98258223D01*
X141913253Y-98276402D01*
X141927867Y-98296107D01*
X141940480Y-98317151D01*
X141950970Y-98339329D01*
X141959235Y-98362429D01*
X141965196Y-98386227D01*
X141968796Y-98410496D01*
X141970000Y-98435000D01*
X141970000Y-99685000D01*
X141968796Y-99709504D01*
X141965196Y-99733773D01*
X141959235Y-99757571D01*
X141950970Y-99780671D01*
X141940480Y-99802849D01*
X141927867Y-99823893D01*
X141913253Y-99843598D01*
X141896777Y-99861777D01*
X141878598Y-99878253D01*
X141858893Y-99892867D01*
X141837849Y-99905480D01*
X141815671Y-99915970D01*
X141792571Y-99924235D01*
X141768773Y-99930196D01*
X141744504Y-99933796D01*
X141720000Y-99935000D01*
X140970000Y-99935000D01*
X140945496Y-99933796D01*
X140921227Y-99930196D01*
X140897429Y-99924235D01*
X140874329Y-99915970D01*
X140852151Y-99905480D01*
X140831107Y-99892867D01*
X140811402Y-99878253D01*
X140793223Y-99861777D01*
X140776747Y-99843598D01*
X140762133Y-99823893D01*
X140749520Y-99802849D01*
X140739030Y-99780671D01*
X140730765Y-99757571D01*
X140724804Y-99733773D01*
X140721204Y-99709504D01*
X140720000Y-99685000D01*
X140720000Y-98435000D01*
X140721204Y-98410496D01*
X140724804Y-98386227D01*
X140730765Y-98362429D01*
X140739030Y-98339329D01*
X140749520Y-98317151D01*
X140762133Y-98296107D01*
X140776747Y-98276402D01*
X140793223Y-98258223D01*
X140811402Y-98241747D01*
X140831107Y-98227133D01*
X140852151Y-98214520D01*
X140874329Y-98204030D01*
X140897429Y-98195765D01*
X140921227Y-98189804D01*
X140945496Y-98186204D01*
X140970000Y-98185000D01*
X141720000Y-98185000D01*
X141744504Y-98186204D01*
G37*
G36*
X144544504Y-98186204D02*
G01*
X144568773Y-98189804D01*
X144592571Y-98195765D01*
X144615671Y-98204030D01*
X144637849Y-98214520D01*
X144658893Y-98227133D01*
X144678598Y-98241747D01*
X144696777Y-98258223D01*
X144713253Y-98276402D01*
X144727867Y-98296107D01*
X144740480Y-98317151D01*
X144750970Y-98339329D01*
X144759235Y-98362429D01*
X144765196Y-98386227D01*
X144768796Y-98410496D01*
X144770000Y-98435000D01*
X144770000Y-99685000D01*
X144768796Y-99709504D01*
X144765196Y-99733773D01*
X144759235Y-99757571D01*
X144750970Y-99780671D01*
X144740480Y-99802849D01*
X144727867Y-99823893D01*
X144713253Y-99843598D01*
X144696777Y-99861777D01*
X144678598Y-99878253D01*
X144658893Y-99892867D01*
X144637849Y-99905480D01*
X144615671Y-99915970D01*
X144592571Y-99924235D01*
X144568773Y-99930196D01*
X144544504Y-99933796D01*
X144520000Y-99935000D01*
X143770000Y-99935000D01*
X143745496Y-99933796D01*
X143721227Y-99930196D01*
X143697429Y-99924235D01*
X143674329Y-99915970D01*
X143652151Y-99905480D01*
X143631107Y-99892867D01*
X143611402Y-99878253D01*
X143593223Y-99861777D01*
X143576747Y-99843598D01*
X143562133Y-99823893D01*
X143549520Y-99802849D01*
X143539030Y-99780671D01*
X143530765Y-99757571D01*
X143524804Y-99733773D01*
X143521204Y-99709504D01*
X143520000Y-99685000D01*
X143520000Y-98435000D01*
X143521204Y-98410496D01*
X143524804Y-98386227D01*
X143530765Y-98362429D01*
X143539030Y-98339329D01*
X143549520Y-98317151D01*
X143562133Y-98296107D01*
X143576747Y-98276402D01*
X143593223Y-98258223D01*
X143611402Y-98241747D01*
X143631107Y-98227133D01*
X143652151Y-98214520D01*
X143674329Y-98204030D01*
X143697429Y-98195765D01*
X143721227Y-98189804D01*
X143745496Y-98186204D01*
X143770000Y-98185000D01*
X144520000Y-98185000D01*
X144544504Y-98186204D01*
G37*
G36*
X129044504Y-98186204D02*
G01*
X129068773Y-98189804D01*
X129092571Y-98195765D01*
X129115671Y-98204030D01*
X129137849Y-98214520D01*
X129158893Y-98227133D01*
X129178598Y-98241747D01*
X129196777Y-98258223D01*
X129213253Y-98276402D01*
X129227867Y-98296107D01*
X129240480Y-98317151D01*
X129250970Y-98339329D01*
X129259235Y-98362429D01*
X129265196Y-98386227D01*
X129268796Y-98410496D01*
X129270000Y-98435000D01*
X129270000Y-99685000D01*
X129268796Y-99709504D01*
X129265196Y-99733773D01*
X129259235Y-99757571D01*
X129250970Y-99780671D01*
X129240480Y-99802849D01*
X129227867Y-99823893D01*
X129213253Y-99843598D01*
X129196777Y-99861777D01*
X129178598Y-99878253D01*
X129158893Y-99892867D01*
X129137849Y-99905480D01*
X129115671Y-99915970D01*
X129092571Y-99924235D01*
X129068773Y-99930196D01*
X129044504Y-99933796D01*
X129020000Y-99935000D01*
X128270000Y-99935000D01*
X128245496Y-99933796D01*
X128221227Y-99930196D01*
X128197429Y-99924235D01*
X128174329Y-99915970D01*
X128152151Y-99905480D01*
X128131107Y-99892867D01*
X128111402Y-99878253D01*
X128093223Y-99861777D01*
X128076747Y-99843598D01*
X128062133Y-99823893D01*
X128049520Y-99802849D01*
X128039030Y-99780671D01*
X128030765Y-99757571D01*
X128024804Y-99733773D01*
X128021204Y-99709504D01*
X128020000Y-99685000D01*
X128020000Y-98435000D01*
X128021204Y-98410496D01*
X128024804Y-98386227D01*
X128030765Y-98362429D01*
X128039030Y-98339329D01*
X128049520Y-98317151D01*
X128062133Y-98296107D01*
X128076747Y-98276402D01*
X128093223Y-98258223D01*
X128111402Y-98241747D01*
X128131107Y-98227133D01*
X128152151Y-98214520D01*
X128174329Y-98204030D01*
X128197429Y-98195765D01*
X128221227Y-98189804D01*
X128245496Y-98186204D01*
X128270000Y-98185000D01*
X129020000Y-98185000D01*
X129044504Y-98186204D01*
G37*
G36*
X131844504Y-98186204D02*
G01*
X131868773Y-98189804D01*
X131892571Y-98195765D01*
X131915671Y-98204030D01*
X131937849Y-98214520D01*
X131958893Y-98227133D01*
X131978598Y-98241747D01*
X131996777Y-98258223D01*
X132013253Y-98276402D01*
X132027867Y-98296107D01*
X132040480Y-98317151D01*
X132050970Y-98339329D01*
X132059235Y-98362429D01*
X132065196Y-98386227D01*
X132068796Y-98410496D01*
X132070000Y-98435000D01*
X132070000Y-99685000D01*
X132068796Y-99709504D01*
X132065196Y-99733773D01*
X132059235Y-99757571D01*
X132050970Y-99780671D01*
X132040480Y-99802849D01*
X132027867Y-99823893D01*
X132013253Y-99843598D01*
X131996777Y-99861777D01*
X131978598Y-99878253D01*
X131958893Y-99892867D01*
X131937849Y-99905480D01*
X131915671Y-99915970D01*
X131892571Y-99924235D01*
X131868773Y-99930196D01*
X131844504Y-99933796D01*
X131820000Y-99935000D01*
X131070000Y-99935000D01*
X131045496Y-99933796D01*
X131021227Y-99930196D01*
X130997429Y-99924235D01*
X130974329Y-99915970D01*
X130952151Y-99905480D01*
X130931107Y-99892867D01*
X130911402Y-99878253D01*
X130893223Y-99861777D01*
X130876747Y-99843598D01*
X130862133Y-99823893D01*
X130849520Y-99802849D01*
X130839030Y-99780671D01*
X130830765Y-99757571D01*
X130824804Y-99733773D01*
X130821204Y-99709504D01*
X130820000Y-99685000D01*
X130820000Y-98435000D01*
X130821204Y-98410496D01*
X130824804Y-98386227D01*
X130830765Y-98362429D01*
X130839030Y-98339329D01*
X130849520Y-98317151D01*
X130862133Y-98296107D01*
X130876747Y-98276402D01*
X130893223Y-98258223D01*
X130911402Y-98241747D01*
X130931107Y-98227133D01*
X130952151Y-98214520D01*
X130974329Y-98204030D01*
X130997429Y-98195765D01*
X131021227Y-98189804D01*
X131045496Y-98186204D01*
X131070000Y-98185000D01*
X131820000Y-98185000D01*
X131844504Y-98186204D01*
G37*
G36*
X116344504Y-98186204D02*
G01*
X116368773Y-98189804D01*
X116392571Y-98195765D01*
X116415671Y-98204030D01*
X116437849Y-98214520D01*
X116458893Y-98227133D01*
X116478598Y-98241747D01*
X116496777Y-98258223D01*
X116513253Y-98276402D01*
X116527867Y-98296107D01*
X116540480Y-98317151D01*
X116550970Y-98339329D01*
X116559235Y-98362429D01*
X116565196Y-98386227D01*
X116568796Y-98410496D01*
X116570000Y-98435000D01*
X116570000Y-99685000D01*
X116568796Y-99709504D01*
X116565196Y-99733773D01*
X116559235Y-99757571D01*
X116550970Y-99780671D01*
X116540480Y-99802849D01*
X116527867Y-99823893D01*
X116513253Y-99843598D01*
X116496777Y-99861777D01*
X116478598Y-99878253D01*
X116458893Y-99892867D01*
X116437849Y-99905480D01*
X116415671Y-99915970D01*
X116392571Y-99924235D01*
X116368773Y-99930196D01*
X116344504Y-99933796D01*
X116320000Y-99935000D01*
X115570000Y-99935000D01*
X115545496Y-99933796D01*
X115521227Y-99930196D01*
X115497429Y-99924235D01*
X115474329Y-99915970D01*
X115452151Y-99905480D01*
X115431107Y-99892867D01*
X115411402Y-99878253D01*
X115393223Y-99861777D01*
X115376747Y-99843598D01*
X115362133Y-99823893D01*
X115349520Y-99802849D01*
X115339030Y-99780671D01*
X115330765Y-99757571D01*
X115324804Y-99733773D01*
X115321204Y-99709504D01*
X115320000Y-99685000D01*
X115320000Y-98435000D01*
X115321204Y-98410496D01*
X115324804Y-98386227D01*
X115330765Y-98362429D01*
X115339030Y-98339329D01*
X115349520Y-98317151D01*
X115362133Y-98296107D01*
X115376747Y-98276402D01*
X115393223Y-98258223D01*
X115411402Y-98241747D01*
X115431107Y-98227133D01*
X115452151Y-98214520D01*
X115474329Y-98204030D01*
X115497429Y-98195765D01*
X115521227Y-98189804D01*
X115545496Y-98186204D01*
X115570000Y-98185000D01*
X116320000Y-98185000D01*
X116344504Y-98186204D01*
G37*
G36*
X119144504Y-98186204D02*
G01*
X119168773Y-98189804D01*
X119192571Y-98195765D01*
X119215671Y-98204030D01*
X119237849Y-98214520D01*
X119258893Y-98227133D01*
X119278598Y-98241747D01*
X119296777Y-98258223D01*
X119313253Y-98276402D01*
X119327867Y-98296107D01*
X119340480Y-98317151D01*
X119350970Y-98339329D01*
X119359235Y-98362429D01*
X119365196Y-98386227D01*
X119368796Y-98410496D01*
X119370000Y-98435000D01*
X119370000Y-99685000D01*
X119368796Y-99709504D01*
X119365196Y-99733773D01*
X119359235Y-99757571D01*
X119350970Y-99780671D01*
X119340480Y-99802849D01*
X119327867Y-99823893D01*
X119313253Y-99843598D01*
X119296777Y-99861777D01*
X119278598Y-99878253D01*
X119258893Y-99892867D01*
X119237849Y-99905480D01*
X119215671Y-99915970D01*
X119192571Y-99924235D01*
X119168773Y-99930196D01*
X119144504Y-99933796D01*
X119120000Y-99935000D01*
X118370000Y-99935000D01*
X118345496Y-99933796D01*
X118321227Y-99930196D01*
X118297429Y-99924235D01*
X118274329Y-99915970D01*
X118252151Y-99905480D01*
X118231107Y-99892867D01*
X118211402Y-99878253D01*
X118193223Y-99861777D01*
X118176747Y-99843598D01*
X118162133Y-99823893D01*
X118149520Y-99802849D01*
X118139030Y-99780671D01*
X118130765Y-99757571D01*
X118124804Y-99733773D01*
X118121204Y-99709504D01*
X118120000Y-99685000D01*
X118120000Y-98435000D01*
X118121204Y-98410496D01*
X118124804Y-98386227D01*
X118130765Y-98362429D01*
X118139030Y-98339329D01*
X118149520Y-98317151D01*
X118162133Y-98296107D01*
X118176747Y-98276402D01*
X118193223Y-98258223D01*
X118211402Y-98241747D01*
X118231107Y-98227133D01*
X118252151Y-98214520D01*
X118274329Y-98204030D01*
X118297429Y-98195765D01*
X118321227Y-98189804D01*
X118345496Y-98186204D01*
X118370000Y-98185000D01*
X119120000Y-98185000D01*
X119144504Y-98186204D01*
G37*
G36*
X103644504Y-98186204D02*
G01*
X103668773Y-98189804D01*
X103692571Y-98195765D01*
X103715671Y-98204030D01*
X103737849Y-98214520D01*
X103758893Y-98227133D01*
X103778598Y-98241747D01*
X103796777Y-98258223D01*
X103813253Y-98276402D01*
X103827867Y-98296107D01*
X103840480Y-98317151D01*
X103850970Y-98339329D01*
X103859235Y-98362429D01*
X103865196Y-98386227D01*
X103868796Y-98410496D01*
X103870000Y-98435000D01*
X103870000Y-99685000D01*
X103868796Y-99709504D01*
X103865196Y-99733773D01*
X103859235Y-99757571D01*
X103850970Y-99780671D01*
X103840480Y-99802849D01*
X103827867Y-99823893D01*
X103813253Y-99843598D01*
X103796777Y-99861777D01*
X103778598Y-99878253D01*
X103758893Y-99892867D01*
X103737849Y-99905480D01*
X103715671Y-99915970D01*
X103692571Y-99924235D01*
X103668773Y-99930196D01*
X103644504Y-99933796D01*
X103620000Y-99935000D01*
X102870000Y-99935000D01*
X102845496Y-99933796D01*
X102821227Y-99930196D01*
X102797429Y-99924235D01*
X102774329Y-99915970D01*
X102752151Y-99905480D01*
X102731107Y-99892867D01*
X102711402Y-99878253D01*
X102693223Y-99861777D01*
X102676747Y-99843598D01*
X102662133Y-99823893D01*
X102649520Y-99802849D01*
X102639030Y-99780671D01*
X102630765Y-99757571D01*
X102624804Y-99733773D01*
X102621204Y-99709504D01*
X102620000Y-99685000D01*
X102620000Y-98435000D01*
X102621204Y-98410496D01*
X102624804Y-98386227D01*
X102630765Y-98362429D01*
X102639030Y-98339329D01*
X102649520Y-98317151D01*
X102662133Y-98296107D01*
X102676747Y-98276402D01*
X102693223Y-98258223D01*
X102711402Y-98241747D01*
X102731107Y-98227133D01*
X102752151Y-98214520D01*
X102774329Y-98204030D01*
X102797429Y-98195765D01*
X102821227Y-98189804D01*
X102845496Y-98186204D01*
X102870000Y-98185000D01*
X103620000Y-98185000D01*
X103644504Y-98186204D01*
G37*
G36*
X106444504Y-98186204D02*
G01*
X106468773Y-98189804D01*
X106492571Y-98195765D01*
X106515671Y-98204030D01*
X106537849Y-98214520D01*
X106558893Y-98227133D01*
X106578598Y-98241747D01*
X106596777Y-98258223D01*
X106613253Y-98276402D01*
X106627867Y-98296107D01*
X106640480Y-98317151D01*
X106650970Y-98339329D01*
X106659235Y-98362429D01*
X106665196Y-98386227D01*
X106668796Y-98410496D01*
X106670000Y-98435000D01*
X106670000Y-99685000D01*
X106668796Y-99709504D01*
X106665196Y-99733773D01*
X106659235Y-99757571D01*
X106650970Y-99780671D01*
X106640480Y-99802849D01*
X106627867Y-99823893D01*
X106613253Y-99843598D01*
X106596777Y-99861777D01*
X106578598Y-99878253D01*
X106558893Y-99892867D01*
X106537849Y-99905480D01*
X106515671Y-99915970D01*
X106492571Y-99924235D01*
X106468773Y-99930196D01*
X106444504Y-99933796D01*
X106420000Y-99935000D01*
X105670000Y-99935000D01*
X105645496Y-99933796D01*
X105621227Y-99930196D01*
X105597429Y-99924235D01*
X105574329Y-99915970D01*
X105552151Y-99905480D01*
X105531107Y-99892867D01*
X105511402Y-99878253D01*
X105493223Y-99861777D01*
X105476747Y-99843598D01*
X105462133Y-99823893D01*
X105449520Y-99802849D01*
X105439030Y-99780671D01*
X105430765Y-99757571D01*
X105424804Y-99733773D01*
X105421204Y-99709504D01*
X105420000Y-99685000D01*
X105420000Y-98435000D01*
X105421204Y-98410496D01*
X105424804Y-98386227D01*
X105430765Y-98362429D01*
X105439030Y-98339329D01*
X105449520Y-98317151D01*
X105462133Y-98296107D01*
X105476747Y-98276402D01*
X105493223Y-98258223D01*
X105511402Y-98241747D01*
X105531107Y-98227133D01*
X105552151Y-98214520D01*
X105574329Y-98204030D01*
X105597429Y-98195765D01*
X105621227Y-98189804D01*
X105645496Y-98186204D01*
X105670000Y-98185000D01*
X106420000Y-98185000D01*
X106444504Y-98186204D01*
G37*
G36*
X90944504Y-98186204D02*
G01*
X90968773Y-98189804D01*
X90992571Y-98195765D01*
X91015671Y-98204030D01*
X91037849Y-98214520D01*
X91058893Y-98227133D01*
X91078598Y-98241747D01*
X91096777Y-98258223D01*
X91113253Y-98276402D01*
X91127867Y-98296107D01*
X91140480Y-98317151D01*
X91150970Y-98339329D01*
X91159235Y-98362429D01*
X91165196Y-98386227D01*
X91168796Y-98410496D01*
X91170000Y-98435000D01*
X91170000Y-99685000D01*
X91168796Y-99709504D01*
X91165196Y-99733773D01*
X91159235Y-99757571D01*
X91150970Y-99780671D01*
X91140480Y-99802849D01*
X91127867Y-99823893D01*
X91113253Y-99843598D01*
X91096777Y-99861777D01*
X91078598Y-99878253D01*
X91058893Y-99892867D01*
X91037849Y-99905480D01*
X91015671Y-99915970D01*
X90992571Y-99924235D01*
X90968773Y-99930196D01*
X90944504Y-99933796D01*
X90920000Y-99935000D01*
X90170000Y-99935000D01*
X90145496Y-99933796D01*
X90121227Y-99930196D01*
X90097429Y-99924235D01*
X90074329Y-99915970D01*
X90052151Y-99905480D01*
X90031107Y-99892867D01*
X90011402Y-99878253D01*
X89993223Y-99861777D01*
X89976747Y-99843598D01*
X89962133Y-99823893D01*
X89949520Y-99802849D01*
X89939030Y-99780671D01*
X89930765Y-99757571D01*
X89924804Y-99733773D01*
X89921204Y-99709504D01*
X89920000Y-99685000D01*
X89920000Y-98435000D01*
X89921204Y-98410496D01*
X89924804Y-98386227D01*
X89930765Y-98362429D01*
X89939030Y-98339329D01*
X89949520Y-98317151D01*
X89962133Y-98296107D01*
X89976747Y-98276402D01*
X89993223Y-98258223D01*
X90011402Y-98241747D01*
X90031107Y-98227133D01*
X90052151Y-98214520D01*
X90074329Y-98204030D01*
X90097429Y-98195765D01*
X90121227Y-98189804D01*
X90145496Y-98186204D01*
X90170000Y-98185000D01*
X90920000Y-98185000D01*
X90944504Y-98186204D01*
G37*
G36*
X93744504Y-98186204D02*
G01*
X93768773Y-98189804D01*
X93792571Y-98195765D01*
X93815671Y-98204030D01*
X93837849Y-98214520D01*
X93858893Y-98227133D01*
X93878598Y-98241747D01*
X93896777Y-98258223D01*
X93913253Y-98276402D01*
X93927867Y-98296107D01*
X93940480Y-98317151D01*
X93950970Y-98339329D01*
X93959235Y-98362429D01*
X93965196Y-98386227D01*
X93968796Y-98410496D01*
X93970000Y-98435000D01*
X93970000Y-99685000D01*
X93968796Y-99709504D01*
X93965196Y-99733773D01*
X93959235Y-99757571D01*
X93950970Y-99780671D01*
X93940480Y-99802849D01*
X93927867Y-99823893D01*
X93913253Y-99843598D01*
X93896777Y-99861777D01*
X93878598Y-99878253D01*
X93858893Y-99892867D01*
X93837849Y-99905480D01*
X93815671Y-99915970D01*
X93792571Y-99924235D01*
X93768773Y-99930196D01*
X93744504Y-99933796D01*
X93720000Y-99935000D01*
X92970000Y-99935000D01*
X92945496Y-99933796D01*
X92921227Y-99930196D01*
X92897429Y-99924235D01*
X92874329Y-99915970D01*
X92852151Y-99905480D01*
X92831107Y-99892867D01*
X92811402Y-99878253D01*
X92793223Y-99861777D01*
X92776747Y-99843598D01*
X92762133Y-99823893D01*
X92749520Y-99802849D01*
X92739030Y-99780671D01*
X92730765Y-99757571D01*
X92724804Y-99733773D01*
X92721204Y-99709504D01*
X92720000Y-99685000D01*
X92720000Y-98435000D01*
X92721204Y-98410496D01*
X92724804Y-98386227D01*
X92730765Y-98362429D01*
X92739030Y-98339329D01*
X92749520Y-98317151D01*
X92762133Y-98296107D01*
X92776747Y-98276402D01*
X92793223Y-98258223D01*
X92811402Y-98241747D01*
X92831107Y-98227133D01*
X92852151Y-98214520D01*
X92874329Y-98204030D01*
X92897429Y-98195765D01*
X92921227Y-98189804D01*
X92945496Y-98186204D01*
X92970000Y-98185000D01*
X93720000Y-98185000D01*
X93744504Y-98186204D01*
G37*
G36*
X78244504Y-98186204D02*
G01*
X78268773Y-98189804D01*
X78292571Y-98195765D01*
X78315671Y-98204030D01*
X78337849Y-98214520D01*
X78358893Y-98227133D01*
X78378598Y-98241747D01*
X78396777Y-98258223D01*
X78413253Y-98276402D01*
X78427867Y-98296107D01*
X78440480Y-98317151D01*
X78450970Y-98339329D01*
X78459235Y-98362429D01*
X78465196Y-98386227D01*
X78468796Y-98410496D01*
X78470000Y-98435000D01*
X78470000Y-99685000D01*
X78468796Y-99709504D01*
X78465196Y-99733773D01*
X78459235Y-99757571D01*
X78450970Y-99780671D01*
X78440480Y-99802849D01*
X78427867Y-99823893D01*
X78413253Y-99843598D01*
X78396777Y-99861777D01*
X78378598Y-99878253D01*
X78358893Y-99892867D01*
X78337849Y-99905480D01*
X78315671Y-99915970D01*
X78292571Y-99924235D01*
X78268773Y-99930196D01*
X78244504Y-99933796D01*
X78220000Y-99935000D01*
X77470000Y-99935000D01*
X77445496Y-99933796D01*
X77421227Y-99930196D01*
X77397429Y-99924235D01*
X77374329Y-99915970D01*
X77352151Y-99905480D01*
X77331107Y-99892867D01*
X77311402Y-99878253D01*
X77293223Y-99861777D01*
X77276747Y-99843598D01*
X77262133Y-99823893D01*
X77249520Y-99802849D01*
X77239030Y-99780671D01*
X77230765Y-99757571D01*
X77224804Y-99733773D01*
X77221204Y-99709504D01*
X77220000Y-99685000D01*
X77220000Y-98435000D01*
X77221204Y-98410496D01*
X77224804Y-98386227D01*
X77230765Y-98362429D01*
X77239030Y-98339329D01*
X77249520Y-98317151D01*
X77262133Y-98296107D01*
X77276747Y-98276402D01*
X77293223Y-98258223D01*
X77311402Y-98241747D01*
X77331107Y-98227133D01*
X77352151Y-98214520D01*
X77374329Y-98204030D01*
X77397429Y-98195765D01*
X77421227Y-98189804D01*
X77445496Y-98186204D01*
X77470000Y-98185000D01*
X78220000Y-98185000D01*
X78244504Y-98186204D01*
G37*
G36*
X81044504Y-98186204D02*
G01*
X81068773Y-98189804D01*
X81092571Y-98195765D01*
X81115671Y-98204030D01*
X81137849Y-98214520D01*
X81158893Y-98227133D01*
X81178598Y-98241747D01*
X81196777Y-98258223D01*
X81213253Y-98276402D01*
X81227867Y-98296107D01*
X81240480Y-98317151D01*
X81250970Y-98339329D01*
X81259235Y-98362429D01*
X81265196Y-98386227D01*
X81268796Y-98410496D01*
X81270000Y-98435000D01*
X81270000Y-99685000D01*
X81268796Y-99709504D01*
X81265196Y-99733773D01*
X81259235Y-99757571D01*
X81250970Y-99780671D01*
X81240480Y-99802849D01*
X81227867Y-99823893D01*
X81213253Y-99843598D01*
X81196777Y-99861777D01*
X81178598Y-99878253D01*
X81158893Y-99892867D01*
X81137849Y-99905480D01*
X81115671Y-99915970D01*
X81092571Y-99924235D01*
X81068773Y-99930196D01*
X81044504Y-99933796D01*
X81020000Y-99935000D01*
X80270000Y-99935000D01*
X80245496Y-99933796D01*
X80221227Y-99930196D01*
X80197429Y-99924235D01*
X80174329Y-99915970D01*
X80152151Y-99905480D01*
X80131107Y-99892867D01*
X80111402Y-99878253D01*
X80093223Y-99861777D01*
X80076747Y-99843598D01*
X80062133Y-99823893D01*
X80049520Y-99802849D01*
X80039030Y-99780671D01*
X80030765Y-99757571D01*
X80024804Y-99733773D01*
X80021204Y-99709504D01*
X80020000Y-99685000D01*
X80020000Y-98435000D01*
X80021204Y-98410496D01*
X80024804Y-98386227D01*
X80030765Y-98362429D01*
X80039030Y-98339329D01*
X80049520Y-98317151D01*
X80062133Y-98296107D01*
X80076747Y-98276402D01*
X80093223Y-98258223D01*
X80111402Y-98241747D01*
X80131107Y-98227133D01*
X80152151Y-98214520D01*
X80174329Y-98204030D01*
X80197429Y-98195765D01*
X80221227Y-98189804D01*
X80245496Y-98186204D01*
X80270000Y-98185000D01*
X81020000Y-98185000D01*
X81044504Y-98186204D01*
G37*
G36*
X65674504Y-98186204D02*
G01*
X65698773Y-98189804D01*
X65722571Y-98195765D01*
X65745671Y-98204030D01*
X65767849Y-98214520D01*
X65788893Y-98227133D01*
X65808598Y-98241747D01*
X65826777Y-98258223D01*
X65843253Y-98276402D01*
X65857867Y-98296107D01*
X65870480Y-98317151D01*
X65880970Y-98339329D01*
X65889235Y-98362429D01*
X65895196Y-98386227D01*
X65898796Y-98410496D01*
X65900000Y-98435000D01*
X65900000Y-99685000D01*
X65898796Y-99709504D01*
X65895196Y-99733773D01*
X65889235Y-99757571D01*
X65880970Y-99780671D01*
X65870480Y-99802849D01*
X65857867Y-99823893D01*
X65843253Y-99843598D01*
X65826777Y-99861777D01*
X65808598Y-99878253D01*
X65788893Y-99892867D01*
X65767849Y-99905480D01*
X65745671Y-99915970D01*
X65722571Y-99924235D01*
X65698773Y-99930196D01*
X65674504Y-99933796D01*
X65650000Y-99935000D01*
X64900000Y-99935000D01*
X64875496Y-99933796D01*
X64851227Y-99930196D01*
X64827429Y-99924235D01*
X64804329Y-99915970D01*
X64782151Y-99905480D01*
X64761107Y-99892867D01*
X64741402Y-99878253D01*
X64723223Y-99861777D01*
X64706747Y-99843598D01*
X64692133Y-99823893D01*
X64679520Y-99802849D01*
X64669030Y-99780671D01*
X64660765Y-99757571D01*
X64654804Y-99733773D01*
X64651204Y-99709504D01*
X64650000Y-99685000D01*
X64650000Y-98435000D01*
X64651204Y-98410496D01*
X64654804Y-98386227D01*
X64660765Y-98362429D01*
X64669030Y-98339329D01*
X64679520Y-98317151D01*
X64692133Y-98296107D01*
X64706747Y-98276402D01*
X64723223Y-98258223D01*
X64741402Y-98241747D01*
X64761107Y-98227133D01*
X64782151Y-98214520D01*
X64804329Y-98204030D01*
X64827429Y-98195765D01*
X64851227Y-98189804D01*
X64875496Y-98186204D01*
X64900000Y-98185000D01*
X65650000Y-98185000D01*
X65674504Y-98186204D01*
G37*
G36*
X68474504Y-98186204D02*
G01*
X68498773Y-98189804D01*
X68522571Y-98195765D01*
X68545671Y-98204030D01*
X68567849Y-98214520D01*
X68588893Y-98227133D01*
X68608598Y-98241747D01*
X68626777Y-98258223D01*
X68643253Y-98276402D01*
X68657867Y-98296107D01*
X68670480Y-98317151D01*
X68680970Y-98339329D01*
X68689235Y-98362429D01*
X68695196Y-98386227D01*
X68698796Y-98410496D01*
X68700000Y-98435000D01*
X68700000Y-99685000D01*
X68698796Y-99709504D01*
X68695196Y-99733773D01*
X68689235Y-99757571D01*
X68680970Y-99780671D01*
X68670480Y-99802849D01*
X68657867Y-99823893D01*
X68643253Y-99843598D01*
X68626777Y-99861777D01*
X68608598Y-99878253D01*
X68588893Y-99892867D01*
X68567849Y-99905480D01*
X68545671Y-99915970D01*
X68522571Y-99924235D01*
X68498773Y-99930196D01*
X68474504Y-99933796D01*
X68450000Y-99935000D01*
X67700000Y-99935000D01*
X67675496Y-99933796D01*
X67651227Y-99930196D01*
X67627429Y-99924235D01*
X67604329Y-99915970D01*
X67582151Y-99905480D01*
X67561107Y-99892867D01*
X67541402Y-99878253D01*
X67523223Y-99861777D01*
X67506747Y-99843598D01*
X67492133Y-99823893D01*
X67479520Y-99802849D01*
X67469030Y-99780671D01*
X67460765Y-99757571D01*
X67454804Y-99733773D01*
X67451204Y-99709504D01*
X67450000Y-99685000D01*
X67450000Y-98435000D01*
X67451204Y-98410496D01*
X67454804Y-98386227D01*
X67460765Y-98362429D01*
X67469030Y-98339329D01*
X67479520Y-98317151D01*
X67492133Y-98296107D01*
X67506747Y-98276402D01*
X67523223Y-98258223D01*
X67541402Y-98241747D01*
X67561107Y-98227133D01*
X67582151Y-98214520D01*
X67604329Y-98204030D01*
X67627429Y-98195765D01*
X67651227Y-98189804D01*
X67675496Y-98186204D01*
X67700000Y-98185000D01*
X68450000Y-98185000D01*
X68474504Y-98186204D01*
G37*
G36*
X155892004Y-82056204D02*
G01*
X155916273Y-82059804D01*
X155940071Y-82065765D01*
X155963171Y-82074030D01*
X155985349Y-82084520D01*
X156006393Y-82097133D01*
X156026098Y-82111747D01*
X156044277Y-82128223D01*
X156060753Y-82146402D01*
X156075367Y-82166107D01*
X156087980Y-82187151D01*
X156098470Y-82209329D01*
X156106735Y-82232429D01*
X156112696Y-82256227D01*
X156116296Y-82280496D01*
X156117500Y-82305000D01*
X156117500Y-83055000D01*
X156116296Y-83079504D01*
X156112696Y-83103773D01*
X156106735Y-83127571D01*
X156098470Y-83150671D01*
X156087980Y-83172849D01*
X156075367Y-83193893D01*
X156060753Y-83213598D01*
X156044277Y-83231777D01*
X156026098Y-83248253D01*
X156006393Y-83262867D01*
X155985349Y-83275480D01*
X155963171Y-83285970D01*
X155940071Y-83294235D01*
X155916273Y-83300196D01*
X155892004Y-83303796D01*
X155867500Y-83305000D01*
X154617500Y-83305000D01*
X154592996Y-83303796D01*
X154568727Y-83300196D01*
X154544929Y-83294235D01*
X154521829Y-83285970D01*
X154499651Y-83275480D01*
X154478607Y-83262867D01*
X154458902Y-83248253D01*
X154440723Y-83231777D01*
X154424247Y-83213598D01*
X154409633Y-83193893D01*
X154397020Y-83172849D01*
X154386530Y-83150671D01*
X154378265Y-83127571D01*
X154372304Y-83103773D01*
X154368704Y-83079504D01*
X154367500Y-83055000D01*
X154367500Y-82305000D01*
X154368704Y-82280496D01*
X154372304Y-82256227D01*
X154378265Y-82232429D01*
X154386530Y-82209329D01*
X154397020Y-82187151D01*
X154409633Y-82166107D01*
X154424247Y-82146402D01*
X154440723Y-82128223D01*
X154458902Y-82111747D01*
X154478607Y-82097133D01*
X154499651Y-82084520D01*
X154521829Y-82074030D01*
X154544929Y-82065765D01*
X154568727Y-82059804D01*
X154592996Y-82056204D01*
X154617500Y-82055000D01*
X155867500Y-82055000D01*
X155892004Y-82056204D01*
G37*
G36*
X155892004Y-79256204D02*
G01*
X155916273Y-79259804D01*
X155940071Y-79265765D01*
X155963171Y-79274030D01*
X155985349Y-79284520D01*
X156006393Y-79297133D01*
X156026098Y-79311747D01*
X156044277Y-79328223D01*
X156060753Y-79346402D01*
X156075367Y-79366107D01*
X156087980Y-79387151D01*
X156098470Y-79409329D01*
X156106735Y-79432429D01*
X156112696Y-79456227D01*
X156116296Y-79480496D01*
X156117500Y-79505000D01*
X156117500Y-80255000D01*
X156116296Y-80279504D01*
X156112696Y-80303773D01*
X156106735Y-80327571D01*
X156098470Y-80350671D01*
X156087980Y-80372849D01*
X156075367Y-80393893D01*
X156060753Y-80413598D01*
X156044277Y-80431777D01*
X156026098Y-80448253D01*
X156006393Y-80462867D01*
X155985349Y-80475480D01*
X155963171Y-80485970D01*
X155940071Y-80494235D01*
X155916273Y-80500196D01*
X155892004Y-80503796D01*
X155867500Y-80505000D01*
X154617500Y-80505000D01*
X154592996Y-80503796D01*
X154568727Y-80500196D01*
X154544929Y-80494235D01*
X154521829Y-80485970D01*
X154499651Y-80475480D01*
X154478607Y-80462867D01*
X154458902Y-80448253D01*
X154440723Y-80431777D01*
X154424247Y-80413598D01*
X154409633Y-80393893D01*
X154397020Y-80372849D01*
X154386530Y-80350671D01*
X154378265Y-80327571D01*
X154372304Y-80303773D01*
X154368704Y-80279504D01*
X154367500Y-80255000D01*
X154367500Y-79505000D01*
X154368704Y-79480496D01*
X154372304Y-79456227D01*
X154378265Y-79432429D01*
X154386530Y-79409329D01*
X154397020Y-79387151D01*
X154409633Y-79366107D01*
X154424247Y-79346402D01*
X154440723Y-79328223D01*
X154458902Y-79311747D01*
X154478607Y-79297133D01*
X154499651Y-79284520D01*
X154521829Y-79274030D01*
X154544929Y-79265765D01*
X154568727Y-79259804D01*
X154592996Y-79256204D01*
X154617500Y-79255000D01*
X155867500Y-79255000D01*
X155892004Y-79256204D01*
G37*
G36*
X143192004Y-82056204D02*
G01*
X143216273Y-82059804D01*
X143240071Y-82065765D01*
X143263171Y-82074030D01*
X143285349Y-82084520D01*
X143306393Y-82097133D01*
X143326098Y-82111747D01*
X143344277Y-82128223D01*
X143360753Y-82146402D01*
X143375367Y-82166107D01*
X143387980Y-82187151D01*
X143398470Y-82209329D01*
X143406735Y-82232429D01*
X143412696Y-82256227D01*
X143416296Y-82280496D01*
X143417500Y-82305000D01*
X143417500Y-83055000D01*
X143416296Y-83079504D01*
X143412696Y-83103773D01*
X143406735Y-83127571D01*
X143398470Y-83150671D01*
X143387980Y-83172849D01*
X143375367Y-83193893D01*
X143360753Y-83213598D01*
X143344277Y-83231777D01*
X143326098Y-83248253D01*
X143306393Y-83262867D01*
X143285349Y-83275480D01*
X143263171Y-83285970D01*
X143240071Y-83294235D01*
X143216273Y-83300196D01*
X143192004Y-83303796D01*
X143167500Y-83305000D01*
X141917500Y-83305000D01*
X141892996Y-83303796D01*
X141868727Y-83300196D01*
X141844929Y-83294235D01*
X141821829Y-83285970D01*
X141799651Y-83275480D01*
X141778607Y-83262867D01*
X141758902Y-83248253D01*
X141740723Y-83231777D01*
X141724247Y-83213598D01*
X141709633Y-83193893D01*
X141697020Y-83172849D01*
X141686530Y-83150671D01*
X141678265Y-83127571D01*
X141672304Y-83103773D01*
X141668704Y-83079504D01*
X141667500Y-83055000D01*
X141667500Y-82305000D01*
X141668704Y-82280496D01*
X141672304Y-82256227D01*
X141678265Y-82232429D01*
X141686530Y-82209329D01*
X141697020Y-82187151D01*
X141709633Y-82166107D01*
X141724247Y-82146402D01*
X141740723Y-82128223D01*
X141758902Y-82111747D01*
X141778607Y-82097133D01*
X141799651Y-82084520D01*
X141821829Y-82074030D01*
X141844929Y-82065765D01*
X141868727Y-82059804D01*
X141892996Y-82056204D01*
X141917500Y-82055000D01*
X143167500Y-82055000D01*
X143192004Y-82056204D01*
G37*
G36*
X143192004Y-79256204D02*
G01*
X143216273Y-79259804D01*
X143240071Y-79265765D01*
X143263171Y-79274030D01*
X143285349Y-79284520D01*
X143306393Y-79297133D01*
X143326098Y-79311747D01*
X143344277Y-79328223D01*
X143360753Y-79346402D01*
X143375367Y-79366107D01*
X143387980Y-79387151D01*
X143398470Y-79409329D01*
X143406735Y-79432429D01*
X143412696Y-79456227D01*
X143416296Y-79480496D01*
X143417500Y-79505000D01*
X143417500Y-80255000D01*
X143416296Y-80279504D01*
X143412696Y-80303773D01*
X143406735Y-80327571D01*
X143398470Y-80350671D01*
X143387980Y-80372849D01*
X143375367Y-80393893D01*
X143360753Y-80413598D01*
X143344277Y-80431777D01*
X143326098Y-80448253D01*
X143306393Y-80462867D01*
X143285349Y-80475480D01*
X143263171Y-80485970D01*
X143240071Y-80494235D01*
X143216273Y-80500196D01*
X143192004Y-80503796D01*
X143167500Y-80505000D01*
X141917500Y-80505000D01*
X141892996Y-80503796D01*
X141868727Y-80500196D01*
X141844929Y-80494235D01*
X141821829Y-80485970D01*
X141799651Y-80475480D01*
X141778607Y-80462867D01*
X141758902Y-80448253D01*
X141740723Y-80431777D01*
X141724247Y-80413598D01*
X141709633Y-80393893D01*
X141697020Y-80372849D01*
X141686530Y-80350671D01*
X141678265Y-80327571D01*
X141672304Y-80303773D01*
X141668704Y-80279504D01*
X141667500Y-80255000D01*
X141667500Y-79505000D01*
X141668704Y-79480496D01*
X141672304Y-79456227D01*
X141678265Y-79432429D01*
X141686530Y-79409329D01*
X141697020Y-79387151D01*
X141709633Y-79366107D01*
X141724247Y-79346402D01*
X141740723Y-79328223D01*
X141758902Y-79311747D01*
X141778607Y-79297133D01*
X141799651Y-79284520D01*
X141821829Y-79274030D01*
X141844929Y-79265765D01*
X141868727Y-79259804D01*
X141892996Y-79256204D01*
X141917500Y-79255000D01*
X143167500Y-79255000D01*
X143192004Y-79256204D01*
G37*
G36*
X130492004Y-82056204D02*
G01*
X130516273Y-82059804D01*
X130540071Y-82065765D01*
X130563171Y-82074030D01*
X130585349Y-82084520D01*
X130606393Y-82097133D01*
X130626098Y-82111747D01*
X130644277Y-82128223D01*
X130660753Y-82146402D01*
X130675367Y-82166107D01*
X130687980Y-82187151D01*
X130698470Y-82209329D01*
X130706735Y-82232429D01*
X130712696Y-82256227D01*
X130716296Y-82280496D01*
X130717500Y-82305000D01*
X130717500Y-83055000D01*
X130716296Y-83079504D01*
X130712696Y-83103773D01*
X130706735Y-83127571D01*
X130698470Y-83150671D01*
X130687980Y-83172849D01*
X130675367Y-83193893D01*
X130660753Y-83213598D01*
X130644277Y-83231777D01*
X130626098Y-83248253D01*
X130606393Y-83262867D01*
X130585349Y-83275480D01*
X130563171Y-83285970D01*
X130540071Y-83294235D01*
X130516273Y-83300196D01*
X130492004Y-83303796D01*
X130467500Y-83305000D01*
X129217500Y-83305000D01*
X129192996Y-83303796D01*
X129168727Y-83300196D01*
X129144929Y-83294235D01*
X129121829Y-83285970D01*
X129099651Y-83275480D01*
X129078607Y-83262867D01*
X129058902Y-83248253D01*
X129040723Y-83231777D01*
X129024247Y-83213598D01*
X129009633Y-83193893D01*
X128997020Y-83172849D01*
X128986530Y-83150671D01*
X128978265Y-83127571D01*
X128972304Y-83103773D01*
X128968704Y-83079504D01*
X128967500Y-83055000D01*
X128967500Y-82305000D01*
X128968704Y-82280496D01*
X128972304Y-82256227D01*
X128978265Y-82232429D01*
X128986530Y-82209329D01*
X128997020Y-82187151D01*
X129009633Y-82166107D01*
X129024247Y-82146402D01*
X129040723Y-82128223D01*
X129058902Y-82111747D01*
X129078607Y-82097133D01*
X129099651Y-82084520D01*
X129121829Y-82074030D01*
X129144929Y-82065765D01*
X129168727Y-82059804D01*
X129192996Y-82056204D01*
X129217500Y-82055000D01*
X130467500Y-82055000D01*
X130492004Y-82056204D01*
G37*
G36*
X130492004Y-79256204D02*
G01*
X130516273Y-79259804D01*
X130540071Y-79265765D01*
X130563171Y-79274030D01*
X130585349Y-79284520D01*
X130606393Y-79297133D01*
X130626098Y-79311747D01*
X130644277Y-79328223D01*
X130660753Y-79346402D01*
X130675367Y-79366107D01*
X130687980Y-79387151D01*
X130698470Y-79409329D01*
X130706735Y-79432429D01*
X130712696Y-79456227D01*
X130716296Y-79480496D01*
X130717500Y-79505000D01*
X130717500Y-80255000D01*
X130716296Y-80279504D01*
X130712696Y-80303773D01*
X130706735Y-80327571D01*
X130698470Y-80350671D01*
X130687980Y-80372849D01*
X130675367Y-80393893D01*
X130660753Y-80413598D01*
X130644277Y-80431777D01*
X130626098Y-80448253D01*
X130606393Y-80462867D01*
X130585349Y-80475480D01*
X130563171Y-80485970D01*
X130540071Y-80494235D01*
X130516273Y-80500196D01*
X130492004Y-80503796D01*
X130467500Y-80505000D01*
X129217500Y-80505000D01*
X129192996Y-80503796D01*
X129168727Y-80500196D01*
X129144929Y-80494235D01*
X129121829Y-80485970D01*
X129099651Y-80475480D01*
X129078607Y-80462867D01*
X129058902Y-80448253D01*
X129040723Y-80431777D01*
X129024247Y-80413598D01*
X129009633Y-80393893D01*
X128997020Y-80372849D01*
X128986530Y-80350671D01*
X128978265Y-80327571D01*
X128972304Y-80303773D01*
X128968704Y-80279504D01*
X128967500Y-80255000D01*
X128967500Y-79505000D01*
X128968704Y-79480496D01*
X128972304Y-79456227D01*
X128978265Y-79432429D01*
X128986530Y-79409329D01*
X128997020Y-79387151D01*
X129009633Y-79366107D01*
X129024247Y-79346402D01*
X129040723Y-79328223D01*
X129058902Y-79311747D01*
X129078607Y-79297133D01*
X129099651Y-79284520D01*
X129121829Y-79274030D01*
X129144929Y-79265765D01*
X129168727Y-79259804D01*
X129192996Y-79256204D01*
X129217500Y-79255000D01*
X130467500Y-79255000D01*
X130492004Y-79256204D01*
G37*
G36*
X117792004Y-82056204D02*
G01*
X117816273Y-82059804D01*
X117840071Y-82065765D01*
X117863171Y-82074030D01*
X117885349Y-82084520D01*
X117906393Y-82097133D01*
X117926098Y-82111747D01*
X117944277Y-82128223D01*
X117960753Y-82146402D01*
X117975367Y-82166107D01*
X117987980Y-82187151D01*
X117998470Y-82209329D01*
X118006735Y-82232429D01*
X118012696Y-82256227D01*
X118016296Y-82280496D01*
X118017500Y-82305000D01*
X118017500Y-83055000D01*
X118016296Y-83079504D01*
X118012696Y-83103773D01*
X118006735Y-83127571D01*
X117998470Y-83150671D01*
X117987980Y-83172849D01*
X117975367Y-83193893D01*
X117960753Y-83213598D01*
X117944277Y-83231777D01*
X117926098Y-83248253D01*
X117906393Y-83262867D01*
X117885349Y-83275480D01*
X117863171Y-83285970D01*
X117840071Y-83294235D01*
X117816273Y-83300196D01*
X117792004Y-83303796D01*
X117767500Y-83305000D01*
X116517500Y-83305000D01*
X116492996Y-83303796D01*
X116468727Y-83300196D01*
X116444929Y-83294235D01*
X116421829Y-83285970D01*
X116399651Y-83275480D01*
X116378607Y-83262867D01*
X116358902Y-83248253D01*
X116340723Y-83231777D01*
X116324247Y-83213598D01*
X116309633Y-83193893D01*
X116297020Y-83172849D01*
X116286530Y-83150671D01*
X116278265Y-83127571D01*
X116272304Y-83103773D01*
X116268704Y-83079504D01*
X116267500Y-83055000D01*
X116267500Y-82305000D01*
X116268704Y-82280496D01*
X116272304Y-82256227D01*
X116278265Y-82232429D01*
X116286530Y-82209329D01*
X116297020Y-82187151D01*
X116309633Y-82166107D01*
X116324247Y-82146402D01*
X116340723Y-82128223D01*
X116358902Y-82111747D01*
X116378607Y-82097133D01*
X116399651Y-82084520D01*
X116421829Y-82074030D01*
X116444929Y-82065765D01*
X116468727Y-82059804D01*
X116492996Y-82056204D01*
X116517500Y-82055000D01*
X117767500Y-82055000D01*
X117792004Y-82056204D01*
G37*
G36*
X117792004Y-79256204D02*
G01*
X117816273Y-79259804D01*
X117840071Y-79265765D01*
X117863171Y-79274030D01*
X117885349Y-79284520D01*
X117906393Y-79297133D01*
X117926098Y-79311747D01*
X117944277Y-79328223D01*
X117960753Y-79346402D01*
X117975367Y-79366107D01*
X117987980Y-79387151D01*
X117998470Y-79409329D01*
X118006735Y-79432429D01*
X118012696Y-79456227D01*
X118016296Y-79480496D01*
X118017500Y-79505000D01*
X118017500Y-80255000D01*
X118016296Y-80279504D01*
X118012696Y-80303773D01*
X118006735Y-80327571D01*
X117998470Y-80350671D01*
X117987980Y-80372849D01*
X117975367Y-80393893D01*
X117960753Y-80413598D01*
X117944277Y-80431777D01*
X117926098Y-80448253D01*
X117906393Y-80462867D01*
X117885349Y-80475480D01*
X117863171Y-80485970D01*
X117840071Y-80494235D01*
X117816273Y-80500196D01*
X117792004Y-80503796D01*
X117767500Y-80505000D01*
X116517500Y-80505000D01*
X116492996Y-80503796D01*
X116468727Y-80500196D01*
X116444929Y-80494235D01*
X116421829Y-80485970D01*
X116399651Y-80475480D01*
X116378607Y-80462867D01*
X116358902Y-80448253D01*
X116340723Y-80431777D01*
X116324247Y-80413598D01*
X116309633Y-80393893D01*
X116297020Y-80372849D01*
X116286530Y-80350671D01*
X116278265Y-80327571D01*
X116272304Y-80303773D01*
X116268704Y-80279504D01*
X116267500Y-80255000D01*
X116267500Y-79505000D01*
X116268704Y-79480496D01*
X116272304Y-79456227D01*
X116278265Y-79432429D01*
X116286530Y-79409329D01*
X116297020Y-79387151D01*
X116309633Y-79366107D01*
X116324247Y-79346402D01*
X116340723Y-79328223D01*
X116358902Y-79311747D01*
X116378607Y-79297133D01*
X116399651Y-79284520D01*
X116421829Y-79274030D01*
X116444929Y-79265765D01*
X116468727Y-79259804D01*
X116492996Y-79256204D01*
X116517500Y-79255000D01*
X117767500Y-79255000D01*
X117792004Y-79256204D01*
G37*
G36*
X105092004Y-82056204D02*
G01*
X105116273Y-82059804D01*
X105140071Y-82065765D01*
X105163171Y-82074030D01*
X105185349Y-82084520D01*
X105206393Y-82097133D01*
X105226098Y-82111747D01*
X105244277Y-82128223D01*
X105260753Y-82146402D01*
X105275367Y-82166107D01*
X105287980Y-82187151D01*
X105298470Y-82209329D01*
X105306735Y-82232429D01*
X105312696Y-82256227D01*
X105316296Y-82280496D01*
X105317500Y-82305000D01*
X105317500Y-83055000D01*
X105316296Y-83079504D01*
X105312696Y-83103773D01*
X105306735Y-83127571D01*
X105298470Y-83150671D01*
X105287980Y-83172849D01*
X105275367Y-83193893D01*
X105260753Y-83213598D01*
X105244277Y-83231777D01*
X105226098Y-83248253D01*
X105206393Y-83262867D01*
X105185349Y-83275480D01*
X105163171Y-83285970D01*
X105140071Y-83294235D01*
X105116273Y-83300196D01*
X105092004Y-83303796D01*
X105067500Y-83305000D01*
X103817500Y-83305000D01*
X103792996Y-83303796D01*
X103768727Y-83300196D01*
X103744929Y-83294235D01*
X103721829Y-83285970D01*
X103699651Y-83275480D01*
X103678607Y-83262867D01*
X103658902Y-83248253D01*
X103640723Y-83231777D01*
X103624247Y-83213598D01*
X103609633Y-83193893D01*
X103597020Y-83172849D01*
X103586530Y-83150671D01*
X103578265Y-83127571D01*
X103572304Y-83103773D01*
X103568704Y-83079504D01*
X103567500Y-83055000D01*
X103567500Y-82305000D01*
X103568704Y-82280496D01*
X103572304Y-82256227D01*
X103578265Y-82232429D01*
X103586530Y-82209329D01*
X103597020Y-82187151D01*
X103609633Y-82166107D01*
X103624247Y-82146402D01*
X103640723Y-82128223D01*
X103658902Y-82111747D01*
X103678607Y-82097133D01*
X103699651Y-82084520D01*
X103721829Y-82074030D01*
X103744929Y-82065765D01*
X103768727Y-82059804D01*
X103792996Y-82056204D01*
X103817500Y-82055000D01*
X105067500Y-82055000D01*
X105092004Y-82056204D01*
G37*
G36*
X105092004Y-79256204D02*
G01*
X105116273Y-79259804D01*
X105140071Y-79265765D01*
X105163171Y-79274030D01*
X105185349Y-79284520D01*
X105206393Y-79297133D01*
X105226098Y-79311747D01*
X105244277Y-79328223D01*
X105260753Y-79346402D01*
X105275367Y-79366107D01*
X105287980Y-79387151D01*
X105298470Y-79409329D01*
X105306735Y-79432429D01*
X105312696Y-79456227D01*
X105316296Y-79480496D01*
X105317500Y-79505000D01*
X105317500Y-80255000D01*
X105316296Y-80279504D01*
X105312696Y-80303773D01*
X105306735Y-80327571D01*
X105298470Y-80350671D01*
X105287980Y-80372849D01*
X105275367Y-80393893D01*
X105260753Y-80413598D01*
X105244277Y-80431777D01*
X105226098Y-80448253D01*
X105206393Y-80462867D01*
X105185349Y-80475480D01*
X105163171Y-80485970D01*
X105140071Y-80494235D01*
X105116273Y-80500196D01*
X105092004Y-80503796D01*
X105067500Y-80505000D01*
X103817500Y-80505000D01*
X103792996Y-80503796D01*
X103768727Y-80500196D01*
X103744929Y-80494235D01*
X103721829Y-80485970D01*
X103699651Y-80475480D01*
X103678607Y-80462867D01*
X103658902Y-80448253D01*
X103640723Y-80431777D01*
X103624247Y-80413598D01*
X103609633Y-80393893D01*
X103597020Y-80372849D01*
X103586530Y-80350671D01*
X103578265Y-80327571D01*
X103572304Y-80303773D01*
X103568704Y-80279504D01*
X103567500Y-80255000D01*
X103567500Y-79505000D01*
X103568704Y-79480496D01*
X103572304Y-79456227D01*
X103578265Y-79432429D01*
X103586530Y-79409329D01*
X103597020Y-79387151D01*
X103609633Y-79366107D01*
X103624247Y-79346402D01*
X103640723Y-79328223D01*
X103658902Y-79311747D01*
X103678607Y-79297133D01*
X103699651Y-79284520D01*
X103721829Y-79274030D01*
X103744929Y-79265765D01*
X103768727Y-79259804D01*
X103792996Y-79256204D01*
X103817500Y-79255000D01*
X105067500Y-79255000D01*
X105092004Y-79256204D01*
G37*
G36*
X92422004Y-82056204D02*
G01*
X92446273Y-82059804D01*
X92470071Y-82065765D01*
X92493171Y-82074030D01*
X92515349Y-82084520D01*
X92536393Y-82097133D01*
X92556098Y-82111747D01*
X92574277Y-82128223D01*
X92590753Y-82146402D01*
X92605367Y-82166107D01*
X92617980Y-82187151D01*
X92628470Y-82209329D01*
X92636735Y-82232429D01*
X92642696Y-82256227D01*
X92646296Y-82280496D01*
X92647500Y-82305000D01*
X92647500Y-83055000D01*
X92646296Y-83079504D01*
X92642696Y-83103773D01*
X92636735Y-83127571D01*
X92628470Y-83150671D01*
X92617980Y-83172849D01*
X92605367Y-83193893D01*
X92590753Y-83213598D01*
X92574277Y-83231777D01*
X92556098Y-83248253D01*
X92536393Y-83262867D01*
X92515349Y-83275480D01*
X92493171Y-83285970D01*
X92470071Y-83294235D01*
X92446273Y-83300196D01*
X92422004Y-83303796D01*
X92397500Y-83305000D01*
X91147500Y-83305000D01*
X91122996Y-83303796D01*
X91098727Y-83300196D01*
X91074929Y-83294235D01*
X91051829Y-83285970D01*
X91029651Y-83275480D01*
X91008607Y-83262867D01*
X90988902Y-83248253D01*
X90970723Y-83231777D01*
X90954247Y-83213598D01*
X90939633Y-83193893D01*
X90927020Y-83172849D01*
X90916530Y-83150671D01*
X90908265Y-83127571D01*
X90902304Y-83103773D01*
X90898704Y-83079504D01*
X90897500Y-83055000D01*
X90897500Y-82305000D01*
X90898704Y-82280496D01*
X90902304Y-82256227D01*
X90908265Y-82232429D01*
X90916530Y-82209329D01*
X90927020Y-82187151D01*
X90939633Y-82166107D01*
X90954247Y-82146402D01*
X90970723Y-82128223D01*
X90988902Y-82111747D01*
X91008607Y-82097133D01*
X91029651Y-82084520D01*
X91051829Y-82074030D01*
X91074929Y-82065765D01*
X91098727Y-82059804D01*
X91122996Y-82056204D01*
X91147500Y-82055000D01*
X92397500Y-82055000D01*
X92422004Y-82056204D01*
G37*
G36*
X92422004Y-79256204D02*
G01*
X92446273Y-79259804D01*
X92470071Y-79265765D01*
X92493171Y-79274030D01*
X92515349Y-79284520D01*
X92536393Y-79297133D01*
X92556098Y-79311747D01*
X92574277Y-79328223D01*
X92590753Y-79346402D01*
X92605367Y-79366107D01*
X92617980Y-79387151D01*
X92628470Y-79409329D01*
X92636735Y-79432429D01*
X92642696Y-79456227D01*
X92646296Y-79480496D01*
X92647500Y-79505000D01*
X92647500Y-80255000D01*
X92646296Y-80279504D01*
X92642696Y-80303773D01*
X92636735Y-80327571D01*
X92628470Y-80350671D01*
X92617980Y-80372849D01*
X92605367Y-80393893D01*
X92590753Y-80413598D01*
X92574277Y-80431777D01*
X92556098Y-80448253D01*
X92536393Y-80462867D01*
X92515349Y-80475480D01*
X92493171Y-80485970D01*
X92470071Y-80494235D01*
X92446273Y-80500196D01*
X92422004Y-80503796D01*
X92397500Y-80505000D01*
X91147500Y-80505000D01*
X91122996Y-80503796D01*
X91098727Y-80500196D01*
X91074929Y-80494235D01*
X91051829Y-80485970D01*
X91029651Y-80475480D01*
X91008607Y-80462867D01*
X90988902Y-80448253D01*
X90970723Y-80431777D01*
X90954247Y-80413598D01*
X90939633Y-80393893D01*
X90927020Y-80372849D01*
X90916530Y-80350671D01*
X90908265Y-80327571D01*
X90902304Y-80303773D01*
X90898704Y-80279504D01*
X90897500Y-80255000D01*
X90897500Y-79505000D01*
X90898704Y-79480496D01*
X90902304Y-79456227D01*
X90908265Y-79432429D01*
X90916530Y-79409329D01*
X90927020Y-79387151D01*
X90939633Y-79366107D01*
X90954247Y-79346402D01*
X90970723Y-79328223D01*
X90988902Y-79311747D01*
X91008607Y-79297133D01*
X91029651Y-79284520D01*
X91051829Y-79274030D01*
X91074929Y-79265765D01*
X91098727Y-79259804D01*
X91122996Y-79256204D01*
X91147500Y-79255000D01*
X92397500Y-79255000D01*
X92422004Y-79256204D01*
G37*
G36*
X79722004Y-82056204D02*
G01*
X79746273Y-82059804D01*
X79770071Y-82065765D01*
X79793171Y-82074030D01*
X79815349Y-82084520D01*
X79836393Y-82097133D01*
X79856098Y-82111747D01*
X79874277Y-82128223D01*
X79890753Y-82146402D01*
X79905367Y-82166107D01*
X79917980Y-82187151D01*
X79928470Y-82209329D01*
X79936735Y-82232429D01*
X79942696Y-82256227D01*
X79946296Y-82280496D01*
X79947500Y-82305000D01*
X79947500Y-83055000D01*
X79946296Y-83079504D01*
X79942696Y-83103773D01*
X79936735Y-83127571D01*
X79928470Y-83150671D01*
X79917980Y-83172849D01*
X79905367Y-83193893D01*
X79890753Y-83213598D01*
X79874277Y-83231777D01*
X79856098Y-83248253D01*
X79836393Y-83262867D01*
X79815349Y-83275480D01*
X79793171Y-83285970D01*
X79770071Y-83294235D01*
X79746273Y-83300196D01*
X79722004Y-83303796D01*
X79697500Y-83305000D01*
X78447500Y-83305000D01*
X78422996Y-83303796D01*
X78398727Y-83300196D01*
X78374929Y-83294235D01*
X78351829Y-83285970D01*
X78329651Y-83275480D01*
X78308607Y-83262867D01*
X78288902Y-83248253D01*
X78270723Y-83231777D01*
X78254247Y-83213598D01*
X78239633Y-83193893D01*
X78227020Y-83172849D01*
X78216530Y-83150671D01*
X78208265Y-83127571D01*
X78202304Y-83103773D01*
X78198704Y-83079504D01*
X78197500Y-83055000D01*
X78197500Y-82305000D01*
X78198704Y-82280496D01*
X78202304Y-82256227D01*
X78208265Y-82232429D01*
X78216530Y-82209329D01*
X78227020Y-82187151D01*
X78239633Y-82166107D01*
X78254247Y-82146402D01*
X78270723Y-82128223D01*
X78288902Y-82111747D01*
X78308607Y-82097133D01*
X78329651Y-82084520D01*
X78351829Y-82074030D01*
X78374929Y-82065765D01*
X78398727Y-82059804D01*
X78422996Y-82056204D01*
X78447500Y-82055000D01*
X79697500Y-82055000D01*
X79722004Y-82056204D01*
G37*
G36*
X79722004Y-79256204D02*
G01*
X79746273Y-79259804D01*
X79770071Y-79265765D01*
X79793171Y-79274030D01*
X79815349Y-79284520D01*
X79836393Y-79297133D01*
X79856098Y-79311747D01*
X79874277Y-79328223D01*
X79890753Y-79346402D01*
X79905367Y-79366107D01*
X79917980Y-79387151D01*
X79928470Y-79409329D01*
X79936735Y-79432429D01*
X79942696Y-79456227D01*
X79946296Y-79480496D01*
X79947500Y-79505000D01*
X79947500Y-80255000D01*
X79946296Y-80279504D01*
X79942696Y-80303773D01*
X79936735Y-80327571D01*
X79928470Y-80350671D01*
X79917980Y-80372849D01*
X79905367Y-80393893D01*
X79890753Y-80413598D01*
X79874277Y-80431777D01*
X79856098Y-80448253D01*
X79836393Y-80462867D01*
X79815349Y-80475480D01*
X79793171Y-80485970D01*
X79770071Y-80494235D01*
X79746273Y-80500196D01*
X79722004Y-80503796D01*
X79697500Y-80505000D01*
X78447500Y-80505000D01*
X78422996Y-80503796D01*
X78398727Y-80500196D01*
X78374929Y-80494235D01*
X78351829Y-80485970D01*
X78329651Y-80475480D01*
X78308607Y-80462867D01*
X78288902Y-80448253D01*
X78270723Y-80431777D01*
X78254247Y-80413598D01*
X78239633Y-80393893D01*
X78227020Y-80372849D01*
X78216530Y-80350671D01*
X78208265Y-80327571D01*
X78202304Y-80303773D01*
X78198704Y-80279504D01*
X78197500Y-80255000D01*
X78197500Y-79505000D01*
X78198704Y-79480496D01*
X78202304Y-79456227D01*
X78208265Y-79432429D01*
X78216530Y-79409329D01*
X78227020Y-79387151D01*
X78239633Y-79366107D01*
X78254247Y-79346402D01*
X78270723Y-79328223D01*
X78288902Y-79311747D01*
X78308607Y-79297133D01*
X78329651Y-79284520D01*
X78351829Y-79274030D01*
X78374929Y-79265765D01*
X78398727Y-79259804D01*
X78422996Y-79256204D01*
X78447500Y-79255000D01*
X79697500Y-79255000D01*
X79722004Y-79256204D01*
G37*
G36*
X67022004Y-82056204D02*
G01*
X67046273Y-82059804D01*
X67070071Y-82065765D01*
X67093171Y-82074030D01*
X67115349Y-82084520D01*
X67136393Y-82097133D01*
X67156098Y-82111747D01*
X67174277Y-82128223D01*
X67190753Y-82146402D01*
X67205367Y-82166107D01*
X67217980Y-82187151D01*
X67228470Y-82209329D01*
X67236735Y-82232429D01*
X67242696Y-82256227D01*
X67246296Y-82280496D01*
X67247500Y-82305000D01*
X67247500Y-83055000D01*
X67246296Y-83079504D01*
X67242696Y-83103773D01*
X67236735Y-83127571D01*
X67228470Y-83150671D01*
X67217980Y-83172849D01*
X67205367Y-83193893D01*
X67190753Y-83213598D01*
X67174277Y-83231777D01*
X67156098Y-83248253D01*
X67136393Y-83262867D01*
X67115349Y-83275480D01*
X67093171Y-83285970D01*
X67070071Y-83294235D01*
X67046273Y-83300196D01*
X67022004Y-83303796D01*
X66997500Y-83305000D01*
X65747500Y-83305000D01*
X65722996Y-83303796D01*
X65698727Y-83300196D01*
X65674929Y-83294235D01*
X65651829Y-83285970D01*
X65629651Y-83275480D01*
X65608607Y-83262867D01*
X65588902Y-83248253D01*
X65570723Y-83231777D01*
X65554247Y-83213598D01*
X65539633Y-83193893D01*
X65527020Y-83172849D01*
X65516530Y-83150671D01*
X65508265Y-83127571D01*
X65502304Y-83103773D01*
X65498704Y-83079504D01*
X65497500Y-83055000D01*
X65497500Y-82305000D01*
X65498704Y-82280496D01*
X65502304Y-82256227D01*
X65508265Y-82232429D01*
X65516530Y-82209329D01*
X65527020Y-82187151D01*
X65539633Y-82166107D01*
X65554247Y-82146402D01*
X65570723Y-82128223D01*
X65588902Y-82111747D01*
X65608607Y-82097133D01*
X65629651Y-82084520D01*
X65651829Y-82074030D01*
X65674929Y-82065765D01*
X65698727Y-82059804D01*
X65722996Y-82056204D01*
X65747500Y-82055000D01*
X66997500Y-82055000D01*
X67022004Y-82056204D01*
G37*
G36*
X67022004Y-79256204D02*
G01*
X67046273Y-79259804D01*
X67070071Y-79265765D01*
X67093171Y-79274030D01*
X67115349Y-79284520D01*
X67136393Y-79297133D01*
X67156098Y-79311747D01*
X67174277Y-79328223D01*
X67190753Y-79346402D01*
X67205367Y-79366107D01*
X67217980Y-79387151D01*
X67228470Y-79409329D01*
X67236735Y-79432429D01*
X67242696Y-79456227D01*
X67246296Y-79480496D01*
X67247500Y-79505000D01*
X67247500Y-80255000D01*
X67246296Y-80279504D01*
X67242696Y-80303773D01*
X67236735Y-80327571D01*
X67228470Y-80350671D01*
X67217980Y-80372849D01*
X67205367Y-80393893D01*
X67190753Y-80413598D01*
X67174277Y-80431777D01*
X67156098Y-80448253D01*
X67136393Y-80462867D01*
X67115349Y-80475480D01*
X67093171Y-80485970D01*
X67070071Y-80494235D01*
X67046273Y-80500196D01*
X67022004Y-80503796D01*
X66997500Y-80505000D01*
X65747500Y-80505000D01*
X65722996Y-80503796D01*
X65698727Y-80500196D01*
X65674929Y-80494235D01*
X65651829Y-80485970D01*
X65629651Y-80475480D01*
X65608607Y-80462867D01*
X65588902Y-80448253D01*
X65570723Y-80431777D01*
X65554247Y-80413598D01*
X65539633Y-80393893D01*
X65527020Y-80372849D01*
X65516530Y-80350671D01*
X65508265Y-80327571D01*
X65502304Y-80303773D01*
X65498704Y-80279504D01*
X65497500Y-80255000D01*
X65497500Y-79505000D01*
X65498704Y-79480496D01*
X65502304Y-79456227D01*
X65508265Y-79432429D01*
X65516530Y-79409329D01*
X65527020Y-79387151D01*
X65539633Y-79366107D01*
X65554247Y-79346402D01*
X65570723Y-79328223D01*
X65588902Y-79311747D01*
X65608607Y-79297133D01*
X65629651Y-79284520D01*
X65651829Y-79274030D01*
X65674929Y-79265765D01*
X65698727Y-79259804D01*
X65722996Y-79256204D01*
X65747500Y-79255000D01*
X66997500Y-79255000D01*
X67022004Y-79256204D01*
G37*
M02*
