G04 #@! TF.GenerationSoftware,KiCad,Pcbnew,5.1.8+dfsg1-1+b1*
G04 #@! TF.CreationDate,2021-07-09T11:11:43-05:00*
G04 #@! TF.ProjectId,potentiosynth,706f7465-6e74-4696-9f73-796e74682e6b,B*
G04 #@! TF.SameCoordinates,Original*
G04 #@! TF.FileFunction,Copper,L2,Bot*
G04 #@! TF.FilePolarity,Positive*
%FSLAX46Y46*%
G04 Gerber Fmt 4.6, Leading zero omitted, Abs format (unit mm)*
G04 Created by KiCad (PCBNEW 5.1.8+dfsg1-1+b1) date 2021-07-09 11:11:43*
%MOMM*%
%LPD*%
G01*
G04 APERTURE LIST*
G04 #@! TA.AperFunction,Profile*
%ADD10C,0.150000*%
G04 #@! TD*
G04 #@! TA.AperFunction,ComponentPad*
%ADD11C,1.440000*%
G04 #@! TD*
G04 #@! TA.AperFunction,ComponentPad*
%ADD12R,3.500000X3.500000*%
G04 #@! TD*
G04 #@! TA.AperFunction,ComponentPad*
%ADD13O,1.700000X1.700000*%
G04 #@! TD*
G04 #@! TA.AperFunction,ComponentPad*
%ADD14R,1.700000X1.700000*%
G04 #@! TD*
G04 #@! TA.AperFunction,ComponentPad*
%ADD15C,3.000000*%
G04 #@! TD*
G04 #@! TA.AperFunction,ComponentPad*
%ADD16C,1.600000*%
G04 #@! TD*
G04 #@! TA.AperFunction,ComponentPad*
%ADD17R,1.600000X1.600000*%
G04 #@! TD*
G04 #@! TA.AperFunction,ViaPad*
%ADD18C,0.800000*%
G04 #@! TD*
G04 #@! TA.AperFunction,Conductor*
%ADD19C,0.508000*%
G04 #@! TD*
G04 #@! TA.AperFunction,Conductor*
%ADD20C,0.254000*%
G04 #@! TD*
G04 #@! TA.AperFunction,Conductor*
%ADD21C,0.100000*%
G04 #@! TD*
G04 APERTURE END LIST*
D10*
X50800000Y-127000000D02*
X177800000Y-127000000D01*
X50800000Y-63500000D02*
X177800000Y-63500000D01*
X50800000Y-127000000D02*
X50800000Y-63500000D01*
X177800000Y-127000000D02*
X177800000Y-63500000D01*
D11*
X114300000Y-119380000D03*
X114300000Y-116840000D03*
X114300000Y-114300000D03*
X63500000Y-119380000D03*
X63500000Y-116840000D03*
X63500000Y-114300000D03*
X127000000Y-119380000D03*
X127000000Y-116840000D03*
X127000000Y-114300000D03*
X88900000Y-119380000D03*
X88900000Y-116840000D03*
X88900000Y-114300000D03*
X76200000Y-119380000D03*
X76200000Y-116840000D03*
X76200000Y-114300000D03*
X101600000Y-119380000D03*
X101600000Y-116840000D03*
X101600000Y-114300000D03*
X152400000Y-119380000D03*
X152400000Y-116840000D03*
X152400000Y-114300000D03*
X139700000Y-119380000D03*
X139700000Y-116840000D03*
X139700000Y-114300000D03*
G04 #@! TA.AperFunction,ComponentPad*
G36*
G01*
X83325000Y-67640000D02*
X85075000Y-67640000D01*
G75*
G02*
X85950000Y-68515000I0J-875000D01*
G01*
X85950000Y-70265000D01*
G75*
G02*
X85075000Y-71140000I-875000J0D01*
G01*
X83325000Y-71140000D01*
G75*
G02*
X82450000Y-70265000I0J875000D01*
G01*
X82450000Y-68515000D01*
G75*
G02*
X83325000Y-67640000I875000J0D01*
G01*
G37*
G04 #@! TD.AperFunction*
G04 #@! TA.AperFunction,ComponentPad*
G36*
G01*
X87900000Y-64890000D02*
X89900000Y-64890000D01*
G75*
G02*
X90650000Y-65640000I0J-750000D01*
G01*
X90650000Y-67140000D01*
G75*
G02*
X89900000Y-67890000I-750000J0D01*
G01*
X87900000Y-67890000D01*
G75*
G02*
X87150000Y-67140000I0J750000D01*
G01*
X87150000Y-65640000D01*
G75*
G02*
X87900000Y-64890000I750000J0D01*
G01*
G37*
G04 #@! TD.AperFunction*
D12*
X88900000Y-72390000D03*
G04 #@! TA.AperFunction,ComponentPad*
G36*
G01*
X70625000Y-67640000D02*
X72375000Y-67640000D01*
G75*
G02*
X73250000Y-68515000I0J-875000D01*
G01*
X73250000Y-70265000D01*
G75*
G02*
X72375000Y-71140000I-875000J0D01*
G01*
X70625000Y-71140000D01*
G75*
G02*
X69750000Y-70265000I0J875000D01*
G01*
X69750000Y-68515000D01*
G75*
G02*
X70625000Y-67640000I875000J0D01*
G01*
G37*
G04 #@! TD.AperFunction*
G04 #@! TA.AperFunction,ComponentPad*
G36*
G01*
X75200000Y-64890000D02*
X77200000Y-64890000D01*
G75*
G02*
X77950000Y-65640000I0J-750000D01*
G01*
X77950000Y-67140000D01*
G75*
G02*
X77200000Y-67890000I-750000J0D01*
G01*
X75200000Y-67890000D01*
G75*
G02*
X74450000Y-67140000I0J750000D01*
G01*
X74450000Y-65640000D01*
G75*
G02*
X75200000Y-64890000I750000J0D01*
G01*
G37*
G04 #@! TD.AperFunction*
X76200000Y-72390000D03*
D13*
X163830000Y-123190000D03*
X161290000Y-123190000D03*
X158750000Y-123190000D03*
X156210000Y-123190000D03*
X153670000Y-123190000D03*
X151130000Y-123190000D03*
X148590000Y-123190000D03*
X146050000Y-123190000D03*
X143510000Y-123190000D03*
X140970000Y-123190000D03*
X138430000Y-123190000D03*
X135890000Y-123190000D03*
X133350000Y-123190000D03*
X130810000Y-123190000D03*
X128270000Y-123190000D03*
X125730000Y-123190000D03*
X123190000Y-123190000D03*
X120650000Y-123190000D03*
X118110000Y-123190000D03*
X115570000Y-123190000D03*
X113030000Y-123190000D03*
X110490000Y-123190000D03*
X107950000Y-123190000D03*
X105410000Y-123190000D03*
X102870000Y-123190000D03*
X100330000Y-123190000D03*
X97790000Y-123190000D03*
X95250000Y-123190000D03*
X92710000Y-123190000D03*
X90170000Y-123190000D03*
X87630000Y-123190000D03*
X85090000Y-123190000D03*
X82550000Y-123190000D03*
X80010000Y-123190000D03*
X77470000Y-123190000D03*
X74930000Y-123190000D03*
X72390000Y-123190000D03*
X69850000Y-123190000D03*
X67310000Y-123190000D03*
D14*
X64770000Y-123190000D03*
D15*
X165100000Y-67945000D03*
X158750000Y-67945000D03*
D16*
X142240000Y-68580000D03*
D17*
X142240000Y-71080000D03*
D16*
X110490000Y-68620000D03*
D17*
X110490000Y-71120000D03*
D16*
X110490000Y-79970000D03*
D17*
X110490000Y-77470000D03*
D18*
X80645000Y-94615000D03*
X93345000Y-94615000D03*
X67945000Y-94615000D03*
X106045000Y-94615000D03*
X118745000Y-94615000D03*
X131445000Y-94615000D03*
X144145000Y-94615000D03*
X156845000Y-94615000D03*
X163195000Y-96520000D03*
X163195000Y-99695000D03*
X150495000Y-96520000D03*
X150495000Y-99695000D03*
X137795000Y-96520000D03*
X137795000Y-99695000D03*
X125095000Y-96520000D03*
X125095000Y-99695000D03*
X112395000Y-96520000D03*
X112395000Y-99695000D03*
X99695000Y-96520000D03*
X99695000Y-99695000D03*
X86995000Y-96520000D03*
X86995000Y-99695000D03*
X74295000Y-96520000D03*
X74295000Y-99695000D03*
X73025000Y-94615000D03*
X85725000Y-94615000D03*
X98425000Y-94615000D03*
X111125000Y-94615000D03*
X123825000Y-94615000D03*
X136525000Y-94615000D03*
X149225000Y-94615000D03*
X161925000Y-94615000D03*
D19*
X163830000Y-123190000D02*
X163195000Y-122555000D01*
X163195000Y-122555000D02*
X163195000Y-113030000D01*
X163195000Y-113030000D02*
X164465000Y-111760000D01*
X164465000Y-97790000D02*
X163830000Y-97155000D01*
X164465000Y-111760000D02*
X164465000Y-97790000D01*
X163195000Y-96520000D02*
X163830000Y-97155000D01*
X163195000Y-99695000D02*
X163195000Y-109220000D01*
X163195000Y-109220000D02*
X154305000Y-118110000D01*
X154305000Y-122555000D02*
X153670000Y-123190000D01*
X154305000Y-118110000D02*
X154305000Y-122555000D01*
X150495000Y-96520000D02*
X151765000Y-97790000D01*
X151765000Y-97790000D02*
X151765000Y-111760000D01*
X151765000Y-111760000D02*
X150495000Y-113030000D01*
X150495000Y-122555000D02*
X151130000Y-123190000D01*
X150495000Y-113030000D02*
X150495000Y-122555000D01*
X150495000Y-99695000D02*
X150495000Y-109220000D01*
X150495000Y-109220000D02*
X141605000Y-118110000D01*
X141605000Y-122555000D02*
X140970000Y-123190000D01*
X141605000Y-118110000D02*
X141605000Y-122555000D01*
X137795000Y-122555000D02*
X138430000Y-123190000D01*
X137795000Y-113030000D02*
X137795000Y-122555000D01*
X139065000Y-111760000D02*
X137795000Y-113030000D01*
X139065000Y-97790000D02*
X139065000Y-111760000D01*
X137795000Y-96520000D02*
X139065000Y-97790000D01*
X137795000Y-99695000D02*
X137795000Y-109220000D01*
X137795000Y-109220000D02*
X128905000Y-118110000D01*
X128905000Y-122555000D02*
X128270000Y-123190000D01*
X128905000Y-118110000D02*
X128905000Y-122555000D01*
X125095000Y-96520000D02*
X126365000Y-97790000D01*
X126365000Y-97790000D02*
X126365000Y-111760000D01*
X126365000Y-111760000D02*
X125095000Y-113030000D01*
X125095000Y-122555000D02*
X125730000Y-123190000D01*
X125095000Y-113030000D02*
X125095000Y-122555000D01*
X125095000Y-99695000D02*
X125095000Y-109220000D01*
X125095000Y-109220000D02*
X116205000Y-118110000D01*
X116205000Y-122555000D02*
X115570000Y-123190000D01*
X116205000Y-118110000D02*
X116205000Y-122555000D01*
X112395000Y-96520000D02*
X113665000Y-97790000D01*
X113665000Y-97790000D02*
X113665000Y-111760000D01*
X113665000Y-111760000D02*
X112395000Y-113030000D01*
X112395000Y-122555000D02*
X113030000Y-123190000D01*
X112395000Y-113030000D02*
X112395000Y-122555000D01*
X112395000Y-99695000D02*
X112395000Y-109220000D01*
X112395000Y-109220000D02*
X103505000Y-118110000D01*
X103505000Y-122555000D02*
X102870000Y-123190000D01*
X103505000Y-118110000D02*
X103505000Y-122555000D01*
X99695000Y-122555000D02*
X100330000Y-123190000D01*
X99695000Y-113030000D02*
X99695000Y-122555000D01*
X100965000Y-111760000D02*
X99695000Y-113030000D01*
X100965000Y-97790000D02*
X100965000Y-111760000D01*
X99695000Y-96520000D02*
X100965000Y-97790000D01*
X90805000Y-122555000D02*
X90170000Y-123190000D01*
X99695000Y-109220000D02*
X90805000Y-118110000D01*
X90805000Y-118110000D02*
X90805000Y-122555000D01*
X99695000Y-99695000D02*
X99695000Y-109220000D01*
X86995000Y-122555000D02*
X87630000Y-123190000D01*
X86995000Y-113030000D02*
X86995000Y-122555000D01*
X88265000Y-111760000D02*
X86995000Y-113030000D01*
X88265000Y-97790000D02*
X88265000Y-111760000D01*
X86995000Y-96520000D02*
X88265000Y-97790000D01*
X86995000Y-99695000D02*
X86995000Y-109220000D01*
X78105000Y-122555000D02*
X77470000Y-123190000D01*
X78105000Y-118110000D02*
X78105000Y-122555000D01*
X86995000Y-109220000D02*
X78105000Y-118110000D01*
X74295000Y-96520000D02*
X75565000Y-97790000D01*
X75565000Y-97790000D02*
X75565000Y-111760000D01*
X75565000Y-111760000D02*
X74295000Y-113030000D01*
X74295000Y-122555000D02*
X74930000Y-123190000D01*
X74295000Y-113030000D02*
X74295000Y-122555000D01*
X74295000Y-99695000D02*
X74295000Y-109220000D01*
X74295000Y-109220000D02*
X65405000Y-118110000D01*
X65405000Y-122555000D02*
X64770000Y-123190000D01*
X65405000Y-118110000D02*
X65405000Y-122555000D01*
X73025000Y-107315000D02*
X73025000Y-94615000D01*
X63500000Y-116840000D02*
X73025000Y-107315000D01*
X76200000Y-116840000D02*
X85725000Y-107315000D01*
X85725000Y-107315000D02*
X85725000Y-94615000D01*
X98425000Y-107315000D02*
X88900000Y-116840000D01*
X98425000Y-94615000D02*
X98425000Y-107315000D01*
X111125000Y-107315000D02*
X111125000Y-94615000D01*
X101600000Y-116840000D02*
X111125000Y-107315000D01*
X123825000Y-107315000D02*
X123825000Y-94615000D01*
X114300000Y-116840000D02*
X123825000Y-107315000D01*
X136525000Y-107315000D02*
X136525000Y-94615000D01*
X127000000Y-116840000D02*
X136525000Y-107315000D01*
X149225000Y-107315000D02*
X149225000Y-94615000D01*
X139700000Y-116840000D02*
X149225000Y-107315000D01*
X161925000Y-107315000D02*
X161925000Y-94615000D01*
X152400000Y-116840000D02*
X161925000Y-107315000D01*
D20*
X177217000Y-126417000D02*
X51383000Y-126417000D01*
X51383000Y-116632380D01*
X53772000Y-116632380D01*
X53772000Y-117047620D01*
X53853009Y-117454881D01*
X54011914Y-117838513D01*
X54242609Y-118183772D01*
X54536228Y-118477391D01*
X54881487Y-118708086D01*
X55265119Y-118866991D01*
X55672380Y-118948000D01*
X56087620Y-118948000D01*
X56494881Y-118866991D01*
X56878513Y-118708086D01*
X57223772Y-118477391D01*
X57517391Y-118183772D01*
X57748086Y-117838513D01*
X57906991Y-117454881D01*
X57988000Y-117047620D01*
X57988000Y-116719053D01*
X62272000Y-116719053D01*
X62272000Y-116960947D01*
X62319191Y-117198194D01*
X62411760Y-117421676D01*
X62546150Y-117622805D01*
X62717195Y-117793850D01*
X62918324Y-117928240D01*
X63141806Y-118020809D01*
X63379053Y-118068000D01*
X63620947Y-118068000D01*
X63858194Y-118020809D01*
X64081676Y-117928240D01*
X64282805Y-117793850D01*
X64453850Y-117622805D01*
X64588240Y-117421676D01*
X64680809Y-117198194D01*
X64728000Y-116960947D01*
X64728000Y-116719053D01*
X64723118Y-116694512D01*
X73533001Y-107884630D01*
X73533001Y-108904369D01*
X64892654Y-117544716D01*
X64863578Y-117568578D01*
X64833125Y-117605686D01*
X64768355Y-117684608D01*
X64730535Y-117755365D01*
X64697598Y-117816986D01*
X64654026Y-117960623D01*
X64643451Y-118068000D01*
X64639314Y-118110000D01*
X64643000Y-118147423D01*
X64643000Y-118930527D01*
X64588240Y-118798324D01*
X64453850Y-118597195D01*
X64282805Y-118426150D01*
X64081676Y-118291760D01*
X63858194Y-118199191D01*
X63620947Y-118152000D01*
X63379053Y-118152000D01*
X63141806Y-118199191D01*
X62918324Y-118291760D01*
X62717195Y-118426150D01*
X62546150Y-118597195D01*
X62411760Y-118798324D01*
X62319191Y-119021806D01*
X62272000Y-119259053D01*
X62272000Y-119500947D01*
X62319191Y-119738194D01*
X62411760Y-119961676D01*
X62546150Y-120162805D01*
X62717195Y-120333850D01*
X62918324Y-120468240D01*
X63141806Y-120560809D01*
X63379053Y-120608000D01*
X63620947Y-120608000D01*
X63858194Y-120560809D01*
X64081676Y-120468240D01*
X64282805Y-120333850D01*
X64453850Y-120162805D01*
X64588240Y-119961676D01*
X64643000Y-119829473D01*
X64643001Y-121829543D01*
X63920000Y-121829543D01*
X63820415Y-121839351D01*
X63724657Y-121868399D01*
X63636405Y-121915571D01*
X63559052Y-121979052D01*
X63495571Y-122056405D01*
X63448399Y-122144657D01*
X63419351Y-122240415D01*
X63409543Y-122340000D01*
X63409543Y-124040000D01*
X63419351Y-124139585D01*
X63448399Y-124235343D01*
X63495571Y-124323595D01*
X63559052Y-124400948D01*
X63636405Y-124464429D01*
X63724657Y-124511601D01*
X63820415Y-124540649D01*
X63920000Y-124550457D01*
X65620000Y-124550457D01*
X65719585Y-124540649D01*
X65815343Y-124511601D01*
X65903595Y-124464429D01*
X65980948Y-124400948D01*
X66044429Y-124323595D01*
X66091601Y-124235343D01*
X66120649Y-124139585D01*
X66126133Y-124083903D01*
X66309731Y-124287588D01*
X66543080Y-124461641D01*
X66805901Y-124586825D01*
X66953110Y-124631476D01*
X67183000Y-124510155D01*
X67183000Y-123317000D01*
X67163000Y-123317000D01*
X67163000Y-123063000D01*
X67183000Y-123063000D01*
X67183000Y-121869845D01*
X66953110Y-121748524D01*
X66805901Y-121793175D01*
X66543080Y-121918359D01*
X66309731Y-122092412D01*
X66167000Y-122250758D01*
X66167000Y-118425630D01*
X74803001Y-109789629D01*
X74803001Y-111444368D01*
X73782654Y-112464716D01*
X73753578Y-112488578D01*
X73723125Y-112525686D01*
X73658355Y-112604608D01*
X73620535Y-112675365D01*
X73587598Y-112736986D01*
X73544026Y-112880623D01*
X73538135Y-112940439D01*
X73529314Y-113030000D01*
X73533000Y-113067423D01*
X73533001Y-122456286D01*
X73444828Y-122324325D01*
X73255675Y-122135172D01*
X73033254Y-121986556D01*
X72786114Y-121884187D01*
X72523751Y-121832000D01*
X72256249Y-121832000D01*
X71993886Y-121884187D01*
X71746746Y-121986556D01*
X71524325Y-122135172D01*
X71335172Y-122324325D01*
X71186556Y-122546746D01*
X71120000Y-122707426D01*
X71053444Y-122546746D01*
X70904828Y-122324325D01*
X70715675Y-122135172D01*
X70493254Y-121986556D01*
X70246114Y-121884187D01*
X69983751Y-121832000D01*
X69716249Y-121832000D01*
X69453886Y-121884187D01*
X69206746Y-121986556D01*
X68984325Y-122135172D01*
X68795172Y-122324325D01*
X68646795Y-122546389D01*
X68505178Y-122308645D01*
X68310269Y-122092412D01*
X68076920Y-121918359D01*
X67814099Y-121793175D01*
X67666890Y-121748524D01*
X67437000Y-121869845D01*
X67437000Y-123063000D01*
X67457000Y-123063000D01*
X67457000Y-123317000D01*
X67437000Y-123317000D01*
X67437000Y-124510155D01*
X67666890Y-124631476D01*
X67814099Y-124586825D01*
X68076920Y-124461641D01*
X68310269Y-124287588D01*
X68505178Y-124071355D01*
X68646795Y-123833611D01*
X68795172Y-124055675D01*
X68984325Y-124244828D01*
X69206746Y-124393444D01*
X69453886Y-124495813D01*
X69716249Y-124548000D01*
X69983751Y-124548000D01*
X70246114Y-124495813D01*
X70493254Y-124393444D01*
X70715675Y-124244828D01*
X70904828Y-124055675D01*
X71053444Y-123833254D01*
X71120000Y-123672574D01*
X71186556Y-123833254D01*
X71335172Y-124055675D01*
X71524325Y-124244828D01*
X71746746Y-124393444D01*
X71993886Y-124495813D01*
X72256249Y-124548000D01*
X72523751Y-124548000D01*
X72786114Y-124495813D01*
X73033254Y-124393444D01*
X73255675Y-124244828D01*
X73444828Y-124055675D01*
X73593444Y-123833254D01*
X73660000Y-123672574D01*
X73726556Y-123833254D01*
X73875172Y-124055675D01*
X74064325Y-124244828D01*
X74286746Y-124393444D01*
X74533886Y-124495813D01*
X74796249Y-124548000D01*
X75063751Y-124548000D01*
X75326114Y-124495813D01*
X75573254Y-124393444D01*
X75795675Y-124244828D01*
X75984828Y-124055675D01*
X76133444Y-123833254D01*
X76200000Y-123672574D01*
X76266556Y-123833254D01*
X76415172Y-124055675D01*
X76604325Y-124244828D01*
X76826746Y-124393444D01*
X77073886Y-124495813D01*
X77336249Y-124548000D01*
X77603751Y-124548000D01*
X77866114Y-124495813D01*
X78113254Y-124393444D01*
X78335675Y-124244828D01*
X78524828Y-124055675D01*
X78673205Y-123833611D01*
X78814822Y-124071355D01*
X79009731Y-124287588D01*
X79243080Y-124461641D01*
X79505901Y-124586825D01*
X79653110Y-124631476D01*
X79883000Y-124510155D01*
X79883000Y-123317000D01*
X79863000Y-123317000D01*
X79863000Y-123063000D01*
X79883000Y-123063000D01*
X79883000Y-121869845D01*
X79653110Y-121748524D01*
X79505901Y-121793175D01*
X79243080Y-121918359D01*
X79009731Y-122092412D01*
X78867000Y-122250758D01*
X78867000Y-118425630D01*
X87503001Y-109789629D01*
X87503001Y-111444368D01*
X86482654Y-112464716D01*
X86453578Y-112488578D01*
X86423125Y-112525686D01*
X86358355Y-112604608D01*
X86320535Y-112675365D01*
X86287598Y-112736986D01*
X86244026Y-112880623D01*
X86238135Y-112940439D01*
X86229314Y-113030000D01*
X86233000Y-113067423D01*
X86233001Y-122456286D01*
X86144828Y-122324325D01*
X85955675Y-122135172D01*
X85733254Y-121986556D01*
X85486114Y-121884187D01*
X85223751Y-121832000D01*
X84956249Y-121832000D01*
X84693886Y-121884187D01*
X84446746Y-121986556D01*
X84224325Y-122135172D01*
X84035172Y-122324325D01*
X83886556Y-122546746D01*
X83820000Y-122707426D01*
X83753444Y-122546746D01*
X83604828Y-122324325D01*
X83415675Y-122135172D01*
X83193254Y-121986556D01*
X82946114Y-121884187D01*
X82683751Y-121832000D01*
X82416249Y-121832000D01*
X82153886Y-121884187D01*
X81906746Y-121986556D01*
X81684325Y-122135172D01*
X81495172Y-122324325D01*
X81346795Y-122546389D01*
X81205178Y-122308645D01*
X81010269Y-122092412D01*
X80776920Y-121918359D01*
X80514099Y-121793175D01*
X80366890Y-121748524D01*
X80137000Y-121869845D01*
X80137000Y-123063000D01*
X80157000Y-123063000D01*
X80157000Y-123317000D01*
X80137000Y-123317000D01*
X80137000Y-124510155D01*
X80366890Y-124631476D01*
X80514099Y-124586825D01*
X80776920Y-124461641D01*
X81010269Y-124287588D01*
X81205178Y-124071355D01*
X81346795Y-123833611D01*
X81495172Y-124055675D01*
X81684325Y-124244828D01*
X81906746Y-124393444D01*
X82153886Y-124495813D01*
X82416249Y-124548000D01*
X82683751Y-124548000D01*
X82946114Y-124495813D01*
X83193254Y-124393444D01*
X83415675Y-124244828D01*
X83604828Y-124055675D01*
X83753444Y-123833254D01*
X83820000Y-123672574D01*
X83886556Y-123833254D01*
X84035172Y-124055675D01*
X84224325Y-124244828D01*
X84446746Y-124393444D01*
X84693886Y-124495813D01*
X84956249Y-124548000D01*
X85223751Y-124548000D01*
X85486114Y-124495813D01*
X85733254Y-124393444D01*
X85955675Y-124244828D01*
X86144828Y-124055675D01*
X86293444Y-123833254D01*
X86360000Y-123672574D01*
X86426556Y-123833254D01*
X86575172Y-124055675D01*
X86764325Y-124244828D01*
X86986746Y-124393444D01*
X87233886Y-124495813D01*
X87496249Y-124548000D01*
X87763751Y-124548000D01*
X88026114Y-124495813D01*
X88273254Y-124393444D01*
X88495675Y-124244828D01*
X88684828Y-124055675D01*
X88833444Y-123833254D01*
X88900000Y-123672574D01*
X88966556Y-123833254D01*
X89115172Y-124055675D01*
X89304325Y-124244828D01*
X89526746Y-124393444D01*
X89773886Y-124495813D01*
X90036249Y-124548000D01*
X90303751Y-124548000D01*
X90566114Y-124495813D01*
X90813254Y-124393444D01*
X91035675Y-124244828D01*
X91224828Y-124055675D01*
X91373205Y-123833611D01*
X91514822Y-124071355D01*
X91709731Y-124287588D01*
X91943080Y-124461641D01*
X92205901Y-124586825D01*
X92353110Y-124631476D01*
X92583000Y-124510155D01*
X92583000Y-123317000D01*
X92563000Y-123317000D01*
X92563000Y-123063000D01*
X92583000Y-123063000D01*
X92583000Y-121869845D01*
X92353110Y-121748524D01*
X92205901Y-121793175D01*
X91943080Y-121918359D01*
X91709731Y-122092412D01*
X91567000Y-122250758D01*
X91567000Y-118425630D01*
X100203001Y-109789629D01*
X100203001Y-111444368D01*
X99182654Y-112464716D01*
X99153578Y-112488578D01*
X99123125Y-112525686D01*
X99058355Y-112604608D01*
X99020535Y-112675365D01*
X98987598Y-112736986D01*
X98944026Y-112880623D01*
X98938135Y-112940439D01*
X98929314Y-113030000D01*
X98933000Y-113067423D01*
X98933001Y-122456286D01*
X98844828Y-122324325D01*
X98655675Y-122135172D01*
X98433254Y-121986556D01*
X98186114Y-121884187D01*
X97923751Y-121832000D01*
X97656249Y-121832000D01*
X97393886Y-121884187D01*
X97146746Y-121986556D01*
X96924325Y-122135172D01*
X96735172Y-122324325D01*
X96586556Y-122546746D01*
X96520000Y-122707426D01*
X96453444Y-122546746D01*
X96304828Y-122324325D01*
X96115675Y-122135172D01*
X95893254Y-121986556D01*
X95646114Y-121884187D01*
X95383751Y-121832000D01*
X95116249Y-121832000D01*
X94853886Y-121884187D01*
X94606746Y-121986556D01*
X94384325Y-122135172D01*
X94195172Y-122324325D01*
X94046795Y-122546389D01*
X93905178Y-122308645D01*
X93710269Y-122092412D01*
X93476920Y-121918359D01*
X93214099Y-121793175D01*
X93066890Y-121748524D01*
X92837000Y-121869845D01*
X92837000Y-123063000D01*
X92857000Y-123063000D01*
X92857000Y-123317000D01*
X92837000Y-123317000D01*
X92837000Y-124510155D01*
X93066890Y-124631476D01*
X93214099Y-124586825D01*
X93476920Y-124461641D01*
X93710269Y-124287588D01*
X93905178Y-124071355D01*
X94046795Y-123833611D01*
X94195172Y-124055675D01*
X94384325Y-124244828D01*
X94606746Y-124393444D01*
X94853886Y-124495813D01*
X95116249Y-124548000D01*
X95383751Y-124548000D01*
X95646114Y-124495813D01*
X95893254Y-124393444D01*
X96115675Y-124244828D01*
X96304828Y-124055675D01*
X96453444Y-123833254D01*
X96520000Y-123672574D01*
X96586556Y-123833254D01*
X96735172Y-124055675D01*
X96924325Y-124244828D01*
X97146746Y-124393444D01*
X97393886Y-124495813D01*
X97656249Y-124548000D01*
X97923751Y-124548000D01*
X98186114Y-124495813D01*
X98433254Y-124393444D01*
X98655675Y-124244828D01*
X98844828Y-124055675D01*
X98993444Y-123833254D01*
X99060000Y-123672574D01*
X99126556Y-123833254D01*
X99275172Y-124055675D01*
X99464325Y-124244828D01*
X99686746Y-124393444D01*
X99933886Y-124495813D01*
X100196249Y-124548000D01*
X100463751Y-124548000D01*
X100726114Y-124495813D01*
X100973254Y-124393444D01*
X101195675Y-124244828D01*
X101384828Y-124055675D01*
X101533444Y-123833254D01*
X101600000Y-123672574D01*
X101666556Y-123833254D01*
X101815172Y-124055675D01*
X102004325Y-124244828D01*
X102226746Y-124393444D01*
X102473886Y-124495813D01*
X102736249Y-124548000D01*
X103003751Y-124548000D01*
X103266114Y-124495813D01*
X103513254Y-124393444D01*
X103735675Y-124244828D01*
X103924828Y-124055675D01*
X104073205Y-123833611D01*
X104214822Y-124071355D01*
X104409731Y-124287588D01*
X104643080Y-124461641D01*
X104905901Y-124586825D01*
X105053110Y-124631476D01*
X105283000Y-124510155D01*
X105283000Y-123317000D01*
X105263000Y-123317000D01*
X105263000Y-123063000D01*
X105283000Y-123063000D01*
X105283000Y-121869845D01*
X105053110Y-121748524D01*
X104905901Y-121793175D01*
X104643080Y-121918359D01*
X104409731Y-122092412D01*
X104267000Y-122250758D01*
X104267000Y-118425630D01*
X112903001Y-109789629D01*
X112903001Y-111444368D01*
X111882654Y-112464716D01*
X111853578Y-112488578D01*
X111823125Y-112525686D01*
X111758355Y-112604608D01*
X111720535Y-112675365D01*
X111687598Y-112736986D01*
X111644026Y-112880623D01*
X111638135Y-112940439D01*
X111629314Y-113030000D01*
X111633000Y-113067423D01*
X111633001Y-122456286D01*
X111544828Y-122324325D01*
X111355675Y-122135172D01*
X111133254Y-121986556D01*
X110886114Y-121884187D01*
X110623751Y-121832000D01*
X110356249Y-121832000D01*
X110093886Y-121884187D01*
X109846746Y-121986556D01*
X109624325Y-122135172D01*
X109435172Y-122324325D01*
X109286556Y-122546746D01*
X109220000Y-122707426D01*
X109153444Y-122546746D01*
X109004828Y-122324325D01*
X108815675Y-122135172D01*
X108593254Y-121986556D01*
X108346114Y-121884187D01*
X108083751Y-121832000D01*
X107816249Y-121832000D01*
X107553886Y-121884187D01*
X107306746Y-121986556D01*
X107084325Y-122135172D01*
X106895172Y-122324325D01*
X106746795Y-122546389D01*
X106605178Y-122308645D01*
X106410269Y-122092412D01*
X106176920Y-121918359D01*
X105914099Y-121793175D01*
X105766890Y-121748524D01*
X105537000Y-121869845D01*
X105537000Y-123063000D01*
X105557000Y-123063000D01*
X105557000Y-123317000D01*
X105537000Y-123317000D01*
X105537000Y-124510155D01*
X105766890Y-124631476D01*
X105914099Y-124586825D01*
X106176920Y-124461641D01*
X106410269Y-124287588D01*
X106605178Y-124071355D01*
X106746795Y-123833611D01*
X106895172Y-124055675D01*
X107084325Y-124244828D01*
X107306746Y-124393444D01*
X107553886Y-124495813D01*
X107816249Y-124548000D01*
X108083751Y-124548000D01*
X108346114Y-124495813D01*
X108593254Y-124393444D01*
X108815675Y-124244828D01*
X109004828Y-124055675D01*
X109153444Y-123833254D01*
X109220000Y-123672574D01*
X109286556Y-123833254D01*
X109435172Y-124055675D01*
X109624325Y-124244828D01*
X109846746Y-124393444D01*
X110093886Y-124495813D01*
X110356249Y-124548000D01*
X110623751Y-124548000D01*
X110886114Y-124495813D01*
X111133254Y-124393444D01*
X111355675Y-124244828D01*
X111544828Y-124055675D01*
X111693444Y-123833254D01*
X111760000Y-123672574D01*
X111826556Y-123833254D01*
X111975172Y-124055675D01*
X112164325Y-124244828D01*
X112386746Y-124393444D01*
X112633886Y-124495813D01*
X112896249Y-124548000D01*
X113163751Y-124548000D01*
X113426114Y-124495813D01*
X113673254Y-124393444D01*
X113895675Y-124244828D01*
X114084828Y-124055675D01*
X114233444Y-123833254D01*
X114300000Y-123672574D01*
X114366556Y-123833254D01*
X114515172Y-124055675D01*
X114704325Y-124244828D01*
X114926746Y-124393444D01*
X115173886Y-124495813D01*
X115436249Y-124548000D01*
X115703751Y-124548000D01*
X115966114Y-124495813D01*
X116213254Y-124393444D01*
X116435675Y-124244828D01*
X116624828Y-124055675D01*
X116773205Y-123833611D01*
X116914822Y-124071355D01*
X117109731Y-124287588D01*
X117343080Y-124461641D01*
X117605901Y-124586825D01*
X117753110Y-124631476D01*
X117983000Y-124510155D01*
X117983000Y-123317000D01*
X117963000Y-123317000D01*
X117963000Y-123063000D01*
X117983000Y-123063000D01*
X117983000Y-121869845D01*
X117753110Y-121748524D01*
X117605901Y-121793175D01*
X117343080Y-121918359D01*
X117109731Y-122092412D01*
X116967000Y-122250758D01*
X116967000Y-118425630D01*
X125603001Y-109789629D01*
X125603001Y-111444368D01*
X124582654Y-112464716D01*
X124553578Y-112488578D01*
X124523125Y-112525686D01*
X124458355Y-112604608D01*
X124420535Y-112675365D01*
X124387598Y-112736986D01*
X124344026Y-112880623D01*
X124338135Y-112940439D01*
X124329314Y-113030000D01*
X124333000Y-113067423D01*
X124333001Y-122456286D01*
X124244828Y-122324325D01*
X124055675Y-122135172D01*
X123833254Y-121986556D01*
X123586114Y-121884187D01*
X123323751Y-121832000D01*
X123056249Y-121832000D01*
X122793886Y-121884187D01*
X122546746Y-121986556D01*
X122324325Y-122135172D01*
X122135172Y-122324325D01*
X121986556Y-122546746D01*
X121920000Y-122707426D01*
X121853444Y-122546746D01*
X121704828Y-122324325D01*
X121515675Y-122135172D01*
X121293254Y-121986556D01*
X121046114Y-121884187D01*
X120783751Y-121832000D01*
X120516249Y-121832000D01*
X120253886Y-121884187D01*
X120006746Y-121986556D01*
X119784325Y-122135172D01*
X119595172Y-122324325D01*
X119446795Y-122546389D01*
X119305178Y-122308645D01*
X119110269Y-122092412D01*
X118876920Y-121918359D01*
X118614099Y-121793175D01*
X118466890Y-121748524D01*
X118237000Y-121869845D01*
X118237000Y-123063000D01*
X118257000Y-123063000D01*
X118257000Y-123317000D01*
X118237000Y-123317000D01*
X118237000Y-124510155D01*
X118466890Y-124631476D01*
X118614099Y-124586825D01*
X118876920Y-124461641D01*
X119110269Y-124287588D01*
X119305178Y-124071355D01*
X119446795Y-123833611D01*
X119595172Y-124055675D01*
X119784325Y-124244828D01*
X120006746Y-124393444D01*
X120253886Y-124495813D01*
X120516249Y-124548000D01*
X120783751Y-124548000D01*
X121046114Y-124495813D01*
X121293254Y-124393444D01*
X121515675Y-124244828D01*
X121704828Y-124055675D01*
X121853444Y-123833254D01*
X121920000Y-123672574D01*
X121986556Y-123833254D01*
X122135172Y-124055675D01*
X122324325Y-124244828D01*
X122546746Y-124393444D01*
X122793886Y-124495813D01*
X123056249Y-124548000D01*
X123323751Y-124548000D01*
X123586114Y-124495813D01*
X123833254Y-124393444D01*
X124055675Y-124244828D01*
X124244828Y-124055675D01*
X124393444Y-123833254D01*
X124460000Y-123672574D01*
X124526556Y-123833254D01*
X124675172Y-124055675D01*
X124864325Y-124244828D01*
X125086746Y-124393444D01*
X125333886Y-124495813D01*
X125596249Y-124548000D01*
X125863751Y-124548000D01*
X126126114Y-124495813D01*
X126373254Y-124393444D01*
X126595675Y-124244828D01*
X126784828Y-124055675D01*
X126933444Y-123833254D01*
X127000000Y-123672574D01*
X127066556Y-123833254D01*
X127215172Y-124055675D01*
X127404325Y-124244828D01*
X127626746Y-124393444D01*
X127873886Y-124495813D01*
X128136249Y-124548000D01*
X128403751Y-124548000D01*
X128666114Y-124495813D01*
X128913254Y-124393444D01*
X129135675Y-124244828D01*
X129324828Y-124055675D01*
X129473205Y-123833611D01*
X129614822Y-124071355D01*
X129809731Y-124287588D01*
X130043080Y-124461641D01*
X130305901Y-124586825D01*
X130453110Y-124631476D01*
X130683000Y-124510155D01*
X130683000Y-123317000D01*
X130663000Y-123317000D01*
X130663000Y-123063000D01*
X130683000Y-123063000D01*
X130683000Y-121869845D01*
X130453110Y-121748524D01*
X130305901Y-121793175D01*
X130043080Y-121918359D01*
X129809731Y-122092412D01*
X129667000Y-122250758D01*
X129667000Y-118425630D01*
X138303001Y-109789629D01*
X138303001Y-111444368D01*
X137282654Y-112464716D01*
X137253578Y-112488578D01*
X137223125Y-112525686D01*
X137158355Y-112604608D01*
X137120535Y-112675365D01*
X137087598Y-112736986D01*
X137044026Y-112880623D01*
X137038135Y-112940439D01*
X137029314Y-113030000D01*
X137033000Y-113067423D01*
X137033001Y-122456286D01*
X136944828Y-122324325D01*
X136755675Y-122135172D01*
X136533254Y-121986556D01*
X136286114Y-121884187D01*
X136023751Y-121832000D01*
X135756249Y-121832000D01*
X135493886Y-121884187D01*
X135246746Y-121986556D01*
X135024325Y-122135172D01*
X134835172Y-122324325D01*
X134686556Y-122546746D01*
X134620000Y-122707426D01*
X134553444Y-122546746D01*
X134404828Y-122324325D01*
X134215675Y-122135172D01*
X133993254Y-121986556D01*
X133746114Y-121884187D01*
X133483751Y-121832000D01*
X133216249Y-121832000D01*
X132953886Y-121884187D01*
X132706746Y-121986556D01*
X132484325Y-122135172D01*
X132295172Y-122324325D01*
X132146795Y-122546389D01*
X132005178Y-122308645D01*
X131810269Y-122092412D01*
X131576920Y-121918359D01*
X131314099Y-121793175D01*
X131166890Y-121748524D01*
X130937000Y-121869845D01*
X130937000Y-123063000D01*
X130957000Y-123063000D01*
X130957000Y-123317000D01*
X130937000Y-123317000D01*
X130937000Y-124510155D01*
X131166890Y-124631476D01*
X131314099Y-124586825D01*
X131576920Y-124461641D01*
X131810269Y-124287588D01*
X132005178Y-124071355D01*
X132146795Y-123833611D01*
X132295172Y-124055675D01*
X132484325Y-124244828D01*
X132706746Y-124393444D01*
X132953886Y-124495813D01*
X133216249Y-124548000D01*
X133483751Y-124548000D01*
X133746114Y-124495813D01*
X133993254Y-124393444D01*
X134215675Y-124244828D01*
X134404828Y-124055675D01*
X134553444Y-123833254D01*
X134620000Y-123672574D01*
X134686556Y-123833254D01*
X134835172Y-124055675D01*
X135024325Y-124244828D01*
X135246746Y-124393444D01*
X135493886Y-124495813D01*
X135756249Y-124548000D01*
X136023751Y-124548000D01*
X136286114Y-124495813D01*
X136533254Y-124393444D01*
X136755675Y-124244828D01*
X136944828Y-124055675D01*
X137093444Y-123833254D01*
X137160000Y-123672574D01*
X137226556Y-123833254D01*
X137375172Y-124055675D01*
X137564325Y-124244828D01*
X137786746Y-124393444D01*
X138033886Y-124495813D01*
X138296249Y-124548000D01*
X138563751Y-124548000D01*
X138826114Y-124495813D01*
X139073254Y-124393444D01*
X139295675Y-124244828D01*
X139484828Y-124055675D01*
X139633444Y-123833254D01*
X139700000Y-123672574D01*
X139766556Y-123833254D01*
X139915172Y-124055675D01*
X140104325Y-124244828D01*
X140326746Y-124393444D01*
X140573886Y-124495813D01*
X140836249Y-124548000D01*
X141103751Y-124548000D01*
X141366114Y-124495813D01*
X141613254Y-124393444D01*
X141835675Y-124244828D01*
X142024828Y-124055675D01*
X142173205Y-123833611D01*
X142314822Y-124071355D01*
X142509731Y-124287588D01*
X142743080Y-124461641D01*
X143005901Y-124586825D01*
X143153110Y-124631476D01*
X143383000Y-124510155D01*
X143383000Y-123317000D01*
X143363000Y-123317000D01*
X143363000Y-123063000D01*
X143383000Y-123063000D01*
X143383000Y-121869845D01*
X143153110Y-121748524D01*
X143005901Y-121793175D01*
X142743080Y-121918359D01*
X142509731Y-122092412D01*
X142367000Y-122250758D01*
X142367000Y-118425630D01*
X151003001Y-109789629D01*
X151003001Y-111444368D01*
X149982654Y-112464716D01*
X149953578Y-112488578D01*
X149923125Y-112525686D01*
X149858355Y-112604608D01*
X149820535Y-112675365D01*
X149787598Y-112736986D01*
X149744026Y-112880623D01*
X149738135Y-112940439D01*
X149729314Y-113030000D01*
X149733000Y-113067423D01*
X149733001Y-122456286D01*
X149644828Y-122324325D01*
X149455675Y-122135172D01*
X149233254Y-121986556D01*
X148986114Y-121884187D01*
X148723751Y-121832000D01*
X148456249Y-121832000D01*
X148193886Y-121884187D01*
X147946746Y-121986556D01*
X147724325Y-122135172D01*
X147535172Y-122324325D01*
X147386556Y-122546746D01*
X147320000Y-122707426D01*
X147253444Y-122546746D01*
X147104828Y-122324325D01*
X146915675Y-122135172D01*
X146693254Y-121986556D01*
X146446114Y-121884187D01*
X146183751Y-121832000D01*
X145916249Y-121832000D01*
X145653886Y-121884187D01*
X145406746Y-121986556D01*
X145184325Y-122135172D01*
X144995172Y-122324325D01*
X144846795Y-122546389D01*
X144705178Y-122308645D01*
X144510269Y-122092412D01*
X144276920Y-121918359D01*
X144014099Y-121793175D01*
X143866890Y-121748524D01*
X143637000Y-121869845D01*
X143637000Y-123063000D01*
X143657000Y-123063000D01*
X143657000Y-123317000D01*
X143637000Y-123317000D01*
X143637000Y-124510155D01*
X143866890Y-124631476D01*
X144014099Y-124586825D01*
X144276920Y-124461641D01*
X144510269Y-124287588D01*
X144705178Y-124071355D01*
X144846795Y-123833611D01*
X144995172Y-124055675D01*
X145184325Y-124244828D01*
X145406746Y-124393444D01*
X145653886Y-124495813D01*
X145916249Y-124548000D01*
X146183751Y-124548000D01*
X146446114Y-124495813D01*
X146693254Y-124393444D01*
X146915675Y-124244828D01*
X147104828Y-124055675D01*
X147253444Y-123833254D01*
X147320000Y-123672574D01*
X147386556Y-123833254D01*
X147535172Y-124055675D01*
X147724325Y-124244828D01*
X147946746Y-124393444D01*
X148193886Y-124495813D01*
X148456249Y-124548000D01*
X148723751Y-124548000D01*
X148986114Y-124495813D01*
X149233254Y-124393444D01*
X149455675Y-124244828D01*
X149644828Y-124055675D01*
X149793444Y-123833254D01*
X149860000Y-123672574D01*
X149926556Y-123833254D01*
X150075172Y-124055675D01*
X150264325Y-124244828D01*
X150486746Y-124393444D01*
X150733886Y-124495813D01*
X150996249Y-124548000D01*
X151263751Y-124548000D01*
X151526114Y-124495813D01*
X151773254Y-124393444D01*
X151995675Y-124244828D01*
X152184828Y-124055675D01*
X152333444Y-123833254D01*
X152400000Y-123672574D01*
X152466556Y-123833254D01*
X152615172Y-124055675D01*
X152804325Y-124244828D01*
X153026746Y-124393444D01*
X153273886Y-124495813D01*
X153536249Y-124548000D01*
X153803751Y-124548000D01*
X154066114Y-124495813D01*
X154313254Y-124393444D01*
X154535675Y-124244828D01*
X154724828Y-124055675D01*
X154873205Y-123833611D01*
X155014822Y-124071355D01*
X155209731Y-124287588D01*
X155443080Y-124461641D01*
X155705901Y-124586825D01*
X155853110Y-124631476D01*
X156083000Y-124510155D01*
X156083000Y-123317000D01*
X156063000Y-123317000D01*
X156063000Y-123063000D01*
X156083000Y-123063000D01*
X156083000Y-121869845D01*
X155853110Y-121748524D01*
X155705901Y-121793175D01*
X155443080Y-121918359D01*
X155209731Y-122092412D01*
X155067000Y-122250758D01*
X155067000Y-118425630D01*
X163703000Y-109789630D01*
X163703000Y-111444369D01*
X162682649Y-112464721D01*
X162653579Y-112488578D01*
X162629722Y-112517648D01*
X162629721Y-112517649D01*
X162558355Y-112604608D01*
X162487599Y-112736985D01*
X162444027Y-112880622D01*
X162429314Y-113030000D01*
X162433001Y-113067433D01*
X162433000Y-122456285D01*
X162344828Y-122324325D01*
X162155675Y-122135172D01*
X161933254Y-121986556D01*
X161686114Y-121884187D01*
X161423751Y-121832000D01*
X161156249Y-121832000D01*
X160893886Y-121884187D01*
X160646746Y-121986556D01*
X160424325Y-122135172D01*
X160235172Y-122324325D01*
X160086556Y-122546746D01*
X160020000Y-122707426D01*
X159953444Y-122546746D01*
X159804828Y-122324325D01*
X159615675Y-122135172D01*
X159393254Y-121986556D01*
X159146114Y-121884187D01*
X158883751Y-121832000D01*
X158616249Y-121832000D01*
X158353886Y-121884187D01*
X158106746Y-121986556D01*
X157884325Y-122135172D01*
X157695172Y-122324325D01*
X157546795Y-122546389D01*
X157405178Y-122308645D01*
X157210269Y-122092412D01*
X156976920Y-121918359D01*
X156714099Y-121793175D01*
X156566890Y-121748524D01*
X156337000Y-121869845D01*
X156337000Y-123063000D01*
X156357000Y-123063000D01*
X156357000Y-123317000D01*
X156337000Y-123317000D01*
X156337000Y-124510155D01*
X156566890Y-124631476D01*
X156714099Y-124586825D01*
X156976920Y-124461641D01*
X157210269Y-124287588D01*
X157405178Y-124071355D01*
X157546795Y-123833611D01*
X157695172Y-124055675D01*
X157884325Y-124244828D01*
X158106746Y-124393444D01*
X158353886Y-124495813D01*
X158616249Y-124548000D01*
X158883751Y-124548000D01*
X159146114Y-124495813D01*
X159393254Y-124393444D01*
X159615675Y-124244828D01*
X159804828Y-124055675D01*
X159953444Y-123833254D01*
X160020000Y-123672574D01*
X160086556Y-123833254D01*
X160235172Y-124055675D01*
X160424325Y-124244828D01*
X160646746Y-124393444D01*
X160893886Y-124495813D01*
X161156249Y-124548000D01*
X161423751Y-124548000D01*
X161686114Y-124495813D01*
X161933254Y-124393444D01*
X162155675Y-124244828D01*
X162344828Y-124055675D01*
X162493444Y-123833254D01*
X162560000Y-123672574D01*
X162626556Y-123833254D01*
X162775172Y-124055675D01*
X162964325Y-124244828D01*
X163186746Y-124393444D01*
X163433886Y-124495813D01*
X163696249Y-124548000D01*
X163963751Y-124548000D01*
X164226114Y-124495813D01*
X164473254Y-124393444D01*
X164695675Y-124244828D01*
X164884828Y-124055675D01*
X165033444Y-123833254D01*
X165135813Y-123586114D01*
X165188000Y-123323751D01*
X165188000Y-123056249D01*
X165135813Y-122793886D01*
X165033444Y-122546746D01*
X164884828Y-122324325D01*
X164695675Y-122135172D01*
X164473254Y-121986556D01*
X164226114Y-121884187D01*
X163963751Y-121832000D01*
X163957000Y-121832000D01*
X163957000Y-116632380D01*
X170612000Y-116632380D01*
X170612000Y-117047620D01*
X170693009Y-117454881D01*
X170851914Y-117838513D01*
X171082609Y-118183772D01*
X171376228Y-118477391D01*
X171721487Y-118708086D01*
X172105119Y-118866991D01*
X172512380Y-118948000D01*
X172927620Y-118948000D01*
X173334881Y-118866991D01*
X173718513Y-118708086D01*
X174063772Y-118477391D01*
X174357391Y-118183772D01*
X174588086Y-117838513D01*
X174746991Y-117454881D01*
X174828000Y-117047620D01*
X174828000Y-116632380D01*
X174746991Y-116225119D01*
X174588086Y-115841487D01*
X174357391Y-115496228D01*
X174063772Y-115202609D01*
X173718513Y-114971914D01*
X173334881Y-114813009D01*
X172927620Y-114732000D01*
X172512380Y-114732000D01*
X172105119Y-114813009D01*
X171721487Y-114971914D01*
X171376228Y-115202609D01*
X171082609Y-115496228D01*
X170851914Y-115841487D01*
X170693009Y-116225119D01*
X170612000Y-116632380D01*
X163957000Y-116632380D01*
X163957000Y-113345630D01*
X164977353Y-112325278D01*
X165006422Y-112301422D01*
X165101645Y-112185392D01*
X165172402Y-112053015D01*
X165215974Y-111909378D01*
X165227000Y-111797426D01*
X165227000Y-111797424D01*
X165230686Y-111760001D01*
X165227000Y-111722578D01*
X165227000Y-97827423D01*
X165230686Y-97790000D01*
X165223819Y-97720279D01*
X165215974Y-97640622D01*
X165172402Y-97496985D01*
X165101646Y-97364609D01*
X165101645Y-97364607D01*
X165066857Y-97322219D01*
X165006422Y-97248578D01*
X164977346Y-97224716D01*
X164083086Y-96330456D01*
X164068106Y-96255146D01*
X163999659Y-96089901D01*
X163900289Y-95941184D01*
X163773816Y-95814711D01*
X163625099Y-95715341D01*
X163459854Y-95646894D01*
X163284430Y-95612000D01*
X163105570Y-95612000D01*
X162930146Y-95646894D01*
X162764901Y-95715341D01*
X162687000Y-95767393D01*
X162687000Y-95108942D01*
X162729659Y-95045099D01*
X162798106Y-94879854D01*
X162833000Y-94704430D01*
X162833000Y-94525570D01*
X162798106Y-94350146D01*
X162729659Y-94184901D01*
X162630289Y-94036184D01*
X162503816Y-93909711D01*
X162355099Y-93810341D01*
X162189854Y-93741894D01*
X162014430Y-93707000D01*
X161835570Y-93707000D01*
X161660146Y-93741894D01*
X161494901Y-93810341D01*
X161346184Y-93909711D01*
X161219711Y-94036184D01*
X161120341Y-94184901D01*
X161051894Y-94350146D01*
X161017000Y-94525570D01*
X161017000Y-94704430D01*
X161051894Y-94879854D01*
X161120341Y-95045099D01*
X161163001Y-95108944D01*
X161163000Y-106999369D01*
X153751426Y-114410944D01*
X153759561Y-114226320D01*
X153719063Y-113962499D01*
X153627875Y-113711647D01*
X153571368Y-113605932D01*
X153335560Y-113544045D01*
X152579605Y-114300000D01*
X152593748Y-114314143D01*
X152414143Y-114493748D01*
X152400000Y-114479605D01*
X151644045Y-115235560D01*
X151705932Y-115471368D01*
X151947790Y-115584266D01*
X152158643Y-115635951D01*
X152041806Y-115659191D01*
X151818324Y-115751760D01*
X151617195Y-115886150D01*
X151446150Y-116057195D01*
X151311760Y-116258324D01*
X151257000Y-116390527D01*
X151257000Y-115001513D01*
X151464440Y-115055955D01*
X152220395Y-114300000D01*
X151464440Y-113544045D01*
X151257000Y-113598487D01*
X151257000Y-113364440D01*
X151644045Y-113364440D01*
X152400000Y-114120395D01*
X153155955Y-113364440D01*
X153094068Y-113128632D01*
X152852210Y-113015734D01*
X152592973Y-112952189D01*
X152326320Y-112940439D01*
X152062499Y-112980937D01*
X151811647Y-113072125D01*
X151705932Y-113128632D01*
X151644045Y-113364440D01*
X151257000Y-113364440D01*
X151257000Y-113345630D01*
X152277352Y-112325279D01*
X152306422Y-112301422D01*
X152401645Y-112185392D01*
X152472402Y-112053015D01*
X152515974Y-111909378D01*
X152527000Y-111797426D01*
X152527000Y-111797424D01*
X152530686Y-111760001D01*
X152527000Y-111722578D01*
X152527000Y-97827422D01*
X152530686Y-97789999D01*
X152523819Y-97720279D01*
X152515974Y-97640622D01*
X152472402Y-97496985D01*
X152401645Y-97364608D01*
X152306422Y-97248578D01*
X152277353Y-97224722D01*
X151383086Y-96330456D01*
X151368106Y-96255146D01*
X151299659Y-96089901D01*
X151200289Y-95941184D01*
X151073816Y-95814711D01*
X150925099Y-95715341D01*
X150759854Y-95646894D01*
X150584430Y-95612000D01*
X150405570Y-95612000D01*
X150230146Y-95646894D01*
X150064901Y-95715341D01*
X149987000Y-95767393D01*
X149987000Y-95108942D01*
X150029659Y-95045099D01*
X150098106Y-94879854D01*
X150133000Y-94704430D01*
X150133000Y-94525570D01*
X150098106Y-94350146D01*
X150029659Y-94184901D01*
X149930289Y-94036184D01*
X149803816Y-93909711D01*
X149655099Y-93810341D01*
X149489854Y-93741894D01*
X149314430Y-93707000D01*
X149135570Y-93707000D01*
X148960146Y-93741894D01*
X148794901Y-93810341D01*
X148646184Y-93909711D01*
X148519711Y-94036184D01*
X148420341Y-94184901D01*
X148351894Y-94350146D01*
X148317000Y-94525570D01*
X148317000Y-94704430D01*
X148351894Y-94879854D01*
X148420341Y-95045099D01*
X148463001Y-95108944D01*
X148463000Y-106999369D01*
X141051426Y-114410944D01*
X141059561Y-114226320D01*
X141019063Y-113962499D01*
X140927875Y-113711647D01*
X140871368Y-113605932D01*
X140635560Y-113544045D01*
X139879605Y-114300000D01*
X139893748Y-114314143D01*
X139714143Y-114493748D01*
X139700000Y-114479605D01*
X138944045Y-115235560D01*
X139005932Y-115471368D01*
X139247790Y-115584266D01*
X139458643Y-115635951D01*
X139341806Y-115659191D01*
X139118324Y-115751760D01*
X138917195Y-115886150D01*
X138746150Y-116057195D01*
X138611760Y-116258324D01*
X138557000Y-116390527D01*
X138557000Y-115001513D01*
X138764440Y-115055955D01*
X139520395Y-114300000D01*
X138764440Y-113544045D01*
X138557000Y-113598487D01*
X138557000Y-113364440D01*
X138944045Y-113364440D01*
X139700000Y-114120395D01*
X140455955Y-113364440D01*
X140394068Y-113128632D01*
X140152210Y-113015734D01*
X139892973Y-112952189D01*
X139626320Y-112940439D01*
X139362499Y-112980937D01*
X139111647Y-113072125D01*
X139005932Y-113128632D01*
X138944045Y-113364440D01*
X138557000Y-113364440D01*
X138557000Y-113345630D01*
X139577352Y-112325279D01*
X139606422Y-112301422D01*
X139701645Y-112185392D01*
X139772402Y-112053015D01*
X139815974Y-111909378D01*
X139827000Y-111797426D01*
X139827000Y-111797424D01*
X139830686Y-111760001D01*
X139827000Y-111722578D01*
X139827000Y-97827422D01*
X139830686Y-97789999D01*
X139823819Y-97720279D01*
X139815974Y-97640622D01*
X139772402Y-97496985D01*
X139701645Y-97364608D01*
X139606422Y-97248578D01*
X139577353Y-97224722D01*
X138683086Y-96330456D01*
X138668106Y-96255146D01*
X138599659Y-96089901D01*
X138500289Y-95941184D01*
X138373816Y-95814711D01*
X138225099Y-95715341D01*
X138059854Y-95646894D01*
X137884430Y-95612000D01*
X137705570Y-95612000D01*
X137530146Y-95646894D01*
X137364901Y-95715341D01*
X137287000Y-95767393D01*
X137287000Y-95108942D01*
X137329659Y-95045099D01*
X137398106Y-94879854D01*
X137433000Y-94704430D01*
X137433000Y-94525570D01*
X137398106Y-94350146D01*
X137329659Y-94184901D01*
X137230289Y-94036184D01*
X137103816Y-93909711D01*
X136955099Y-93810341D01*
X136789854Y-93741894D01*
X136614430Y-93707000D01*
X136435570Y-93707000D01*
X136260146Y-93741894D01*
X136094901Y-93810341D01*
X135946184Y-93909711D01*
X135819711Y-94036184D01*
X135720341Y-94184901D01*
X135651894Y-94350146D01*
X135617000Y-94525570D01*
X135617000Y-94704430D01*
X135651894Y-94879854D01*
X135720341Y-95045099D01*
X135763001Y-95108944D01*
X135763000Y-106999369D01*
X128351426Y-114410944D01*
X128359561Y-114226320D01*
X128319063Y-113962499D01*
X128227875Y-113711647D01*
X128171368Y-113605932D01*
X127935560Y-113544045D01*
X127179605Y-114300000D01*
X127193748Y-114314143D01*
X127014143Y-114493748D01*
X127000000Y-114479605D01*
X126244045Y-115235560D01*
X126305932Y-115471368D01*
X126547790Y-115584266D01*
X126758643Y-115635951D01*
X126641806Y-115659191D01*
X126418324Y-115751760D01*
X126217195Y-115886150D01*
X126046150Y-116057195D01*
X125911760Y-116258324D01*
X125857000Y-116390527D01*
X125857000Y-115001513D01*
X126064440Y-115055955D01*
X126820395Y-114300000D01*
X126064440Y-113544045D01*
X125857000Y-113598487D01*
X125857000Y-113364440D01*
X126244045Y-113364440D01*
X127000000Y-114120395D01*
X127755955Y-113364440D01*
X127694068Y-113128632D01*
X127452210Y-113015734D01*
X127192973Y-112952189D01*
X126926320Y-112940439D01*
X126662499Y-112980937D01*
X126411647Y-113072125D01*
X126305932Y-113128632D01*
X126244045Y-113364440D01*
X125857000Y-113364440D01*
X125857000Y-113345630D01*
X126877352Y-112325279D01*
X126906422Y-112301422D01*
X127001645Y-112185392D01*
X127072402Y-112053015D01*
X127115974Y-111909378D01*
X127127000Y-111797426D01*
X127127000Y-111797424D01*
X127130686Y-111760001D01*
X127127000Y-111722578D01*
X127127000Y-97827422D01*
X127130686Y-97789999D01*
X127123819Y-97720279D01*
X127115974Y-97640622D01*
X127072402Y-97496985D01*
X127001645Y-97364608D01*
X126906422Y-97248578D01*
X126877353Y-97224722D01*
X125983086Y-96330456D01*
X125968106Y-96255146D01*
X125899659Y-96089901D01*
X125800289Y-95941184D01*
X125673816Y-95814711D01*
X125525099Y-95715341D01*
X125359854Y-95646894D01*
X125184430Y-95612000D01*
X125005570Y-95612000D01*
X124830146Y-95646894D01*
X124664901Y-95715341D01*
X124587000Y-95767393D01*
X124587000Y-95108942D01*
X124629659Y-95045099D01*
X124698106Y-94879854D01*
X124733000Y-94704430D01*
X124733000Y-94525570D01*
X124698106Y-94350146D01*
X124629659Y-94184901D01*
X124530289Y-94036184D01*
X124403816Y-93909711D01*
X124255099Y-93810341D01*
X124089854Y-93741894D01*
X123914430Y-93707000D01*
X123735570Y-93707000D01*
X123560146Y-93741894D01*
X123394901Y-93810341D01*
X123246184Y-93909711D01*
X123119711Y-94036184D01*
X123020341Y-94184901D01*
X122951894Y-94350146D01*
X122917000Y-94525570D01*
X122917000Y-94704430D01*
X122951894Y-94879854D01*
X123020341Y-95045099D01*
X123063001Y-95108944D01*
X123063000Y-106999369D01*
X115651426Y-114410944D01*
X115659561Y-114226320D01*
X115619063Y-113962499D01*
X115527875Y-113711647D01*
X115471368Y-113605932D01*
X115235560Y-113544045D01*
X114479605Y-114300000D01*
X114493748Y-114314143D01*
X114314143Y-114493748D01*
X114300000Y-114479605D01*
X113544045Y-115235560D01*
X113605932Y-115471368D01*
X113847790Y-115584266D01*
X114058643Y-115635951D01*
X113941806Y-115659191D01*
X113718324Y-115751760D01*
X113517195Y-115886150D01*
X113346150Y-116057195D01*
X113211760Y-116258324D01*
X113157000Y-116390527D01*
X113157000Y-115001513D01*
X113364440Y-115055955D01*
X114120395Y-114300000D01*
X113364440Y-113544045D01*
X113157000Y-113598487D01*
X113157000Y-113364440D01*
X113544045Y-113364440D01*
X114300000Y-114120395D01*
X115055955Y-113364440D01*
X114994068Y-113128632D01*
X114752210Y-113015734D01*
X114492973Y-112952189D01*
X114226320Y-112940439D01*
X113962499Y-112980937D01*
X113711647Y-113072125D01*
X113605932Y-113128632D01*
X113544045Y-113364440D01*
X113157000Y-113364440D01*
X113157000Y-113345630D01*
X114177352Y-112325279D01*
X114206422Y-112301422D01*
X114301645Y-112185392D01*
X114372402Y-112053015D01*
X114415974Y-111909378D01*
X114427000Y-111797426D01*
X114427000Y-111797424D01*
X114430686Y-111760001D01*
X114427000Y-111722578D01*
X114427000Y-97827422D01*
X114430686Y-97789999D01*
X114423819Y-97720279D01*
X114415974Y-97640622D01*
X114372402Y-97496985D01*
X114301645Y-97364608D01*
X114206422Y-97248578D01*
X114177353Y-97224722D01*
X113283086Y-96330456D01*
X113268106Y-96255146D01*
X113199659Y-96089901D01*
X113100289Y-95941184D01*
X112973816Y-95814711D01*
X112825099Y-95715341D01*
X112659854Y-95646894D01*
X112484430Y-95612000D01*
X112305570Y-95612000D01*
X112130146Y-95646894D01*
X111964901Y-95715341D01*
X111887000Y-95767393D01*
X111887000Y-95108942D01*
X111929659Y-95045099D01*
X111998106Y-94879854D01*
X112033000Y-94704430D01*
X112033000Y-94525570D01*
X111998106Y-94350146D01*
X111929659Y-94184901D01*
X111830289Y-94036184D01*
X111703816Y-93909711D01*
X111555099Y-93810341D01*
X111389854Y-93741894D01*
X111214430Y-93707000D01*
X111035570Y-93707000D01*
X110860146Y-93741894D01*
X110694901Y-93810341D01*
X110546184Y-93909711D01*
X110419711Y-94036184D01*
X110320341Y-94184901D01*
X110251894Y-94350146D01*
X110217000Y-94525570D01*
X110217000Y-94704430D01*
X110251894Y-94879854D01*
X110320341Y-95045099D01*
X110363001Y-95108944D01*
X110363000Y-106999369D01*
X102951426Y-114410944D01*
X102959561Y-114226320D01*
X102919063Y-113962499D01*
X102827875Y-113711647D01*
X102771368Y-113605932D01*
X102535560Y-113544045D01*
X101779605Y-114300000D01*
X101793748Y-114314143D01*
X101614143Y-114493748D01*
X101600000Y-114479605D01*
X100844045Y-115235560D01*
X100905932Y-115471368D01*
X101147790Y-115584266D01*
X101358643Y-115635951D01*
X101241806Y-115659191D01*
X101018324Y-115751760D01*
X100817195Y-115886150D01*
X100646150Y-116057195D01*
X100511760Y-116258324D01*
X100457000Y-116390527D01*
X100457000Y-115001513D01*
X100664440Y-115055955D01*
X101420395Y-114300000D01*
X100664440Y-113544045D01*
X100457000Y-113598487D01*
X100457000Y-113364440D01*
X100844045Y-113364440D01*
X101600000Y-114120395D01*
X102355955Y-113364440D01*
X102294068Y-113128632D01*
X102052210Y-113015734D01*
X101792973Y-112952189D01*
X101526320Y-112940439D01*
X101262499Y-112980937D01*
X101011647Y-113072125D01*
X100905932Y-113128632D01*
X100844045Y-113364440D01*
X100457000Y-113364440D01*
X100457000Y-113345630D01*
X101477352Y-112325279D01*
X101506422Y-112301422D01*
X101601645Y-112185392D01*
X101672402Y-112053015D01*
X101715974Y-111909378D01*
X101727000Y-111797426D01*
X101727000Y-111797424D01*
X101730686Y-111760001D01*
X101727000Y-111722578D01*
X101727000Y-97827422D01*
X101730686Y-97789999D01*
X101723819Y-97720279D01*
X101715974Y-97640622D01*
X101672402Y-97496985D01*
X101601645Y-97364608D01*
X101506422Y-97248578D01*
X101477353Y-97224722D01*
X100583086Y-96330456D01*
X100568106Y-96255146D01*
X100499659Y-96089901D01*
X100400289Y-95941184D01*
X100273816Y-95814711D01*
X100125099Y-95715341D01*
X99959854Y-95646894D01*
X99784430Y-95612000D01*
X99605570Y-95612000D01*
X99430146Y-95646894D01*
X99264901Y-95715341D01*
X99187000Y-95767393D01*
X99187000Y-95108942D01*
X99229659Y-95045099D01*
X99298106Y-94879854D01*
X99333000Y-94704430D01*
X99333000Y-94525570D01*
X99298106Y-94350146D01*
X99229659Y-94184901D01*
X99130289Y-94036184D01*
X99003816Y-93909711D01*
X98855099Y-93810341D01*
X98689854Y-93741894D01*
X98514430Y-93707000D01*
X98335570Y-93707000D01*
X98160146Y-93741894D01*
X97994901Y-93810341D01*
X97846184Y-93909711D01*
X97719711Y-94036184D01*
X97620341Y-94184901D01*
X97551894Y-94350146D01*
X97517000Y-94525570D01*
X97517000Y-94704430D01*
X97551894Y-94879854D01*
X97620341Y-95045099D01*
X97663000Y-95108942D01*
X97663001Y-106999368D01*
X90251426Y-114410944D01*
X90259561Y-114226320D01*
X90219063Y-113962499D01*
X90127875Y-113711647D01*
X90071368Y-113605932D01*
X89835560Y-113544045D01*
X89079605Y-114300000D01*
X89093748Y-114314143D01*
X88914143Y-114493748D01*
X88900000Y-114479605D01*
X88144045Y-115235560D01*
X88205932Y-115471368D01*
X88447790Y-115584266D01*
X88658643Y-115635951D01*
X88541806Y-115659191D01*
X88318324Y-115751760D01*
X88117195Y-115886150D01*
X87946150Y-116057195D01*
X87811760Y-116258324D01*
X87757000Y-116390527D01*
X87757000Y-115001513D01*
X87964440Y-115055955D01*
X88720395Y-114300000D01*
X87964440Y-113544045D01*
X87757000Y-113598487D01*
X87757000Y-113364440D01*
X88144045Y-113364440D01*
X88900000Y-114120395D01*
X89655955Y-113364440D01*
X89594068Y-113128632D01*
X89352210Y-113015734D01*
X89092973Y-112952189D01*
X88826320Y-112940439D01*
X88562499Y-112980937D01*
X88311647Y-113072125D01*
X88205932Y-113128632D01*
X88144045Y-113364440D01*
X87757000Y-113364440D01*
X87757000Y-113345630D01*
X88777352Y-112325279D01*
X88806422Y-112301422D01*
X88901645Y-112185392D01*
X88972402Y-112053015D01*
X89015974Y-111909378D01*
X89027000Y-111797426D01*
X89027000Y-111797424D01*
X89030686Y-111760001D01*
X89027000Y-111722578D01*
X89027000Y-97827422D01*
X89030686Y-97789999D01*
X89023819Y-97720279D01*
X89015974Y-97640622D01*
X88972402Y-97496985D01*
X88901645Y-97364608D01*
X88806422Y-97248578D01*
X88777353Y-97224722D01*
X87883086Y-96330456D01*
X87868106Y-96255146D01*
X87799659Y-96089901D01*
X87700289Y-95941184D01*
X87573816Y-95814711D01*
X87425099Y-95715341D01*
X87259854Y-95646894D01*
X87084430Y-95612000D01*
X86905570Y-95612000D01*
X86730146Y-95646894D01*
X86564901Y-95715341D01*
X86487000Y-95767393D01*
X86487000Y-95108942D01*
X86529659Y-95045099D01*
X86598106Y-94879854D01*
X86633000Y-94704430D01*
X86633000Y-94525570D01*
X86598106Y-94350146D01*
X86529659Y-94184901D01*
X86430289Y-94036184D01*
X86303816Y-93909711D01*
X86155099Y-93810341D01*
X85989854Y-93741894D01*
X85814430Y-93707000D01*
X85635570Y-93707000D01*
X85460146Y-93741894D01*
X85294901Y-93810341D01*
X85146184Y-93909711D01*
X85019711Y-94036184D01*
X84920341Y-94184901D01*
X84851894Y-94350146D01*
X84817000Y-94525570D01*
X84817000Y-94704430D01*
X84851894Y-94879854D01*
X84920341Y-95045099D01*
X84963001Y-95108944D01*
X84963000Y-106999369D01*
X77551426Y-114410944D01*
X77559561Y-114226320D01*
X77519063Y-113962499D01*
X77427875Y-113711647D01*
X77371368Y-113605932D01*
X77135560Y-113544045D01*
X76379605Y-114300000D01*
X76393748Y-114314143D01*
X76214143Y-114493748D01*
X76200000Y-114479605D01*
X75444045Y-115235560D01*
X75505932Y-115471368D01*
X75747790Y-115584266D01*
X75958643Y-115635951D01*
X75841806Y-115659191D01*
X75618324Y-115751760D01*
X75417195Y-115886150D01*
X75246150Y-116057195D01*
X75111760Y-116258324D01*
X75057000Y-116390527D01*
X75057000Y-115001513D01*
X75264440Y-115055955D01*
X76020395Y-114300000D01*
X75264440Y-113544045D01*
X75057000Y-113598487D01*
X75057000Y-113364440D01*
X75444045Y-113364440D01*
X76200000Y-114120395D01*
X76955955Y-113364440D01*
X76894068Y-113128632D01*
X76652210Y-113015734D01*
X76392973Y-112952189D01*
X76126320Y-112940439D01*
X75862499Y-112980937D01*
X75611647Y-113072125D01*
X75505932Y-113128632D01*
X75444045Y-113364440D01*
X75057000Y-113364440D01*
X75057000Y-113345630D01*
X76077352Y-112325279D01*
X76106422Y-112301422D01*
X76201645Y-112185392D01*
X76272402Y-112053015D01*
X76315974Y-111909378D01*
X76327000Y-111797426D01*
X76327000Y-111797424D01*
X76330686Y-111760001D01*
X76327000Y-111722578D01*
X76327000Y-97827422D01*
X76330686Y-97789999D01*
X76323819Y-97720279D01*
X76315974Y-97640622D01*
X76272402Y-97496985D01*
X76201645Y-97364608D01*
X76106422Y-97248578D01*
X76077353Y-97224722D01*
X75183086Y-96330456D01*
X75168106Y-96255146D01*
X75099659Y-96089901D01*
X75000289Y-95941184D01*
X74873816Y-95814711D01*
X74725099Y-95715341D01*
X74559854Y-95646894D01*
X74384430Y-95612000D01*
X74205570Y-95612000D01*
X74030146Y-95646894D01*
X73864901Y-95715341D01*
X73787000Y-95767393D01*
X73787000Y-95108942D01*
X73829659Y-95045099D01*
X73898106Y-94879854D01*
X73933000Y-94704430D01*
X73933000Y-94525570D01*
X73898106Y-94350146D01*
X73829659Y-94184901D01*
X73730289Y-94036184D01*
X73603816Y-93909711D01*
X73455099Y-93810341D01*
X73289854Y-93741894D01*
X73114430Y-93707000D01*
X72935570Y-93707000D01*
X72760146Y-93741894D01*
X72594901Y-93810341D01*
X72446184Y-93909711D01*
X72319711Y-94036184D01*
X72220341Y-94184901D01*
X72151894Y-94350146D01*
X72117000Y-94525570D01*
X72117000Y-94704430D01*
X72151894Y-94879854D01*
X72220341Y-95045099D01*
X72263001Y-95108944D01*
X72263000Y-106999369D01*
X64851426Y-114410944D01*
X64859561Y-114226320D01*
X64819063Y-113962499D01*
X64727875Y-113711647D01*
X64671368Y-113605932D01*
X64435560Y-113544045D01*
X63679605Y-114300000D01*
X63693748Y-114314143D01*
X63514143Y-114493748D01*
X63500000Y-114479605D01*
X62744045Y-115235560D01*
X62805932Y-115471368D01*
X63047790Y-115584266D01*
X63258643Y-115635951D01*
X63141806Y-115659191D01*
X62918324Y-115751760D01*
X62717195Y-115886150D01*
X62546150Y-116057195D01*
X62411760Y-116258324D01*
X62319191Y-116481806D01*
X62272000Y-116719053D01*
X57988000Y-116719053D01*
X57988000Y-116632380D01*
X57906991Y-116225119D01*
X57748086Y-115841487D01*
X57517391Y-115496228D01*
X57223772Y-115202609D01*
X56878513Y-114971914D01*
X56494881Y-114813009D01*
X56087620Y-114732000D01*
X55672380Y-114732000D01*
X55265119Y-114813009D01*
X54881487Y-114971914D01*
X54536228Y-115202609D01*
X54242609Y-115496228D01*
X54011914Y-115841487D01*
X53853009Y-116225119D01*
X53772000Y-116632380D01*
X51383000Y-116632380D01*
X51383000Y-114373680D01*
X62140439Y-114373680D01*
X62180937Y-114637501D01*
X62272125Y-114888353D01*
X62328632Y-114994068D01*
X62564440Y-115055955D01*
X63320395Y-114300000D01*
X62564440Y-113544045D01*
X62328632Y-113605932D01*
X62215734Y-113847790D01*
X62152189Y-114107027D01*
X62140439Y-114373680D01*
X51383000Y-114373680D01*
X51383000Y-113364440D01*
X62744045Y-113364440D01*
X63500000Y-114120395D01*
X64255955Y-113364440D01*
X64194068Y-113128632D01*
X63952210Y-113015734D01*
X63692973Y-112952189D01*
X63426320Y-112940439D01*
X63162499Y-112980937D01*
X62911647Y-113072125D01*
X62805932Y-113128632D01*
X62744045Y-113364440D01*
X51383000Y-113364440D01*
X51383000Y-76670000D01*
X109179543Y-76670000D01*
X109179543Y-78270000D01*
X109189351Y-78369585D01*
X109218399Y-78465343D01*
X109265571Y-78553595D01*
X109329052Y-78630948D01*
X109406405Y-78694429D01*
X109494657Y-78741601D01*
X109590415Y-78770649D01*
X109690000Y-78780457D01*
X109943842Y-78780457D01*
X109870430Y-78810865D01*
X109656199Y-78954010D01*
X109474010Y-79136199D01*
X109330865Y-79350430D01*
X109232266Y-79588470D01*
X109182000Y-79841173D01*
X109182000Y-80098827D01*
X109232266Y-80351530D01*
X109330865Y-80589570D01*
X109474010Y-80803801D01*
X109656199Y-80985990D01*
X109870430Y-81129135D01*
X110108470Y-81227734D01*
X110361173Y-81278000D01*
X110618827Y-81278000D01*
X110871530Y-81227734D01*
X111109570Y-81129135D01*
X111323801Y-80985990D01*
X111505990Y-80803801D01*
X111649135Y-80589570D01*
X111747734Y-80351530D01*
X111798000Y-80098827D01*
X111798000Y-79841173D01*
X111747734Y-79588470D01*
X111649135Y-79350430D01*
X111505990Y-79136199D01*
X111323801Y-78954010D01*
X111109570Y-78810865D01*
X111036158Y-78780457D01*
X111290000Y-78780457D01*
X111389585Y-78770649D01*
X111485343Y-78741601D01*
X111573595Y-78694429D01*
X111650948Y-78630948D01*
X111714429Y-78553595D01*
X111761601Y-78465343D01*
X111790649Y-78369585D01*
X111800457Y-78270000D01*
X111800457Y-76670000D01*
X111790649Y-76570415D01*
X111761601Y-76474657D01*
X111714429Y-76386405D01*
X111650948Y-76309052D01*
X111573595Y-76245571D01*
X111485343Y-76198399D01*
X111389585Y-76169351D01*
X111290000Y-76159543D01*
X109690000Y-76159543D01*
X109590415Y-76169351D01*
X109494657Y-76198399D01*
X109406405Y-76245571D01*
X109329052Y-76309052D01*
X109265571Y-76386405D01*
X109218399Y-76474657D01*
X109189351Y-76570415D01*
X109179543Y-76670000D01*
X51383000Y-76670000D01*
X51383000Y-73452380D01*
X53772000Y-73452380D01*
X53772000Y-73867620D01*
X53853009Y-74274881D01*
X54011914Y-74658513D01*
X54242609Y-75003772D01*
X54536228Y-75297391D01*
X54881487Y-75528086D01*
X55265119Y-75686991D01*
X55672380Y-75768000D01*
X56087620Y-75768000D01*
X56494881Y-75686991D01*
X56878513Y-75528086D01*
X57223772Y-75297391D01*
X57517391Y-75003772D01*
X57748086Y-74658513D01*
X57906991Y-74274881D01*
X57988000Y-73867620D01*
X57988000Y-73452380D01*
X57906991Y-73045119D01*
X57748086Y-72661487D01*
X57517391Y-72316228D01*
X57223772Y-72022609D01*
X56878513Y-71791914D01*
X56494881Y-71633009D01*
X56087620Y-71552000D01*
X55672380Y-71552000D01*
X55265119Y-71633009D01*
X54881487Y-71791914D01*
X54536228Y-72022609D01*
X54242609Y-72316228D01*
X54011914Y-72661487D01*
X53853009Y-73045119D01*
X53772000Y-73452380D01*
X51383000Y-73452380D01*
X51383000Y-68515000D01*
X69239543Y-68515000D01*
X69239543Y-70265000D01*
X69266164Y-70535289D01*
X69345005Y-70795191D01*
X69473035Y-71034719D01*
X69645334Y-71244666D01*
X69855281Y-71416965D01*
X70094809Y-71544995D01*
X70354711Y-71623836D01*
X70625000Y-71650457D01*
X72375000Y-71650457D01*
X72645289Y-71623836D01*
X72905191Y-71544995D01*
X73144719Y-71416965D01*
X73354666Y-71244666D01*
X73526965Y-71034719D01*
X73654995Y-70795191D01*
X73702072Y-70640000D01*
X73939543Y-70640000D01*
X73939543Y-74140000D01*
X73949351Y-74239585D01*
X73978399Y-74335343D01*
X74025571Y-74423595D01*
X74089052Y-74500948D01*
X74166405Y-74564429D01*
X74254657Y-74611601D01*
X74350415Y-74640649D01*
X74450000Y-74650457D01*
X77950000Y-74650457D01*
X78049585Y-74640649D01*
X78145343Y-74611601D01*
X78233595Y-74564429D01*
X78310948Y-74500948D01*
X78374429Y-74423595D01*
X78421601Y-74335343D01*
X78450649Y-74239585D01*
X78460457Y-74140000D01*
X78460457Y-70640000D01*
X78450649Y-70540415D01*
X78421601Y-70444657D01*
X78374429Y-70356405D01*
X78310948Y-70279052D01*
X78233595Y-70215571D01*
X78145343Y-70168399D01*
X78049585Y-70139351D01*
X77950000Y-70129543D01*
X74450000Y-70129543D01*
X74350415Y-70139351D01*
X74254657Y-70168399D01*
X74166405Y-70215571D01*
X74089052Y-70279052D01*
X74025571Y-70356405D01*
X73978399Y-70444657D01*
X73949351Y-70540415D01*
X73939543Y-70640000D01*
X73702072Y-70640000D01*
X73733836Y-70535289D01*
X73760457Y-70265000D01*
X73760457Y-68515000D01*
X81939543Y-68515000D01*
X81939543Y-70265000D01*
X81966164Y-70535289D01*
X82045005Y-70795191D01*
X82173035Y-71034719D01*
X82345334Y-71244666D01*
X82555281Y-71416965D01*
X82794809Y-71544995D01*
X83054711Y-71623836D01*
X83325000Y-71650457D01*
X85075000Y-71650457D01*
X85345289Y-71623836D01*
X85605191Y-71544995D01*
X85844719Y-71416965D01*
X86054666Y-71244666D01*
X86226965Y-71034719D01*
X86354995Y-70795191D01*
X86402072Y-70640000D01*
X86639543Y-70640000D01*
X86639543Y-74140000D01*
X86649351Y-74239585D01*
X86678399Y-74335343D01*
X86725571Y-74423595D01*
X86789052Y-74500948D01*
X86866405Y-74564429D01*
X86954657Y-74611601D01*
X87050415Y-74640649D01*
X87150000Y-74650457D01*
X90650000Y-74650457D01*
X90749585Y-74640649D01*
X90845343Y-74611601D01*
X90933595Y-74564429D01*
X91010948Y-74500948D01*
X91074429Y-74423595D01*
X91121601Y-74335343D01*
X91150649Y-74239585D01*
X91160457Y-74140000D01*
X91160457Y-73452380D01*
X170612000Y-73452380D01*
X170612000Y-73867620D01*
X170693009Y-74274881D01*
X170851914Y-74658513D01*
X171082609Y-75003772D01*
X171376228Y-75297391D01*
X171721487Y-75528086D01*
X172105119Y-75686991D01*
X172512380Y-75768000D01*
X172927620Y-75768000D01*
X173334881Y-75686991D01*
X173718513Y-75528086D01*
X174063772Y-75297391D01*
X174357391Y-75003772D01*
X174588086Y-74658513D01*
X174746991Y-74274881D01*
X174828000Y-73867620D01*
X174828000Y-73452380D01*
X174746991Y-73045119D01*
X174588086Y-72661487D01*
X174357391Y-72316228D01*
X174063772Y-72022609D01*
X173718513Y-71791914D01*
X173334881Y-71633009D01*
X172927620Y-71552000D01*
X172512380Y-71552000D01*
X172105119Y-71633009D01*
X171721487Y-71791914D01*
X171376228Y-72022609D01*
X171082609Y-72316228D01*
X170851914Y-72661487D01*
X170693009Y-73045119D01*
X170612000Y-73452380D01*
X91160457Y-73452380D01*
X91160457Y-70640000D01*
X91150649Y-70540415D01*
X91121601Y-70444657D01*
X91074429Y-70356405D01*
X91044553Y-70320000D01*
X109179543Y-70320000D01*
X109179543Y-71920000D01*
X109189351Y-72019585D01*
X109218399Y-72115343D01*
X109265571Y-72203595D01*
X109329052Y-72280948D01*
X109406405Y-72344429D01*
X109494657Y-72391601D01*
X109590415Y-72420649D01*
X109690000Y-72430457D01*
X111290000Y-72430457D01*
X111389585Y-72420649D01*
X111485343Y-72391601D01*
X111573595Y-72344429D01*
X111650948Y-72280948D01*
X111714429Y-72203595D01*
X111761601Y-72115343D01*
X111790649Y-72019585D01*
X111800457Y-71920000D01*
X111800457Y-71880000D01*
X140801928Y-71880000D01*
X140814188Y-72004482D01*
X140850498Y-72124180D01*
X140909463Y-72234494D01*
X140988815Y-72331185D01*
X141085506Y-72410537D01*
X141195820Y-72469502D01*
X141315518Y-72505812D01*
X141440000Y-72518072D01*
X141954250Y-72515000D01*
X142113000Y-72356250D01*
X142113000Y-71207000D01*
X142367000Y-71207000D01*
X142367000Y-72356250D01*
X142525750Y-72515000D01*
X143040000Y-72518072D01*
X143164482Y-72505812D01*
X143284180Y-72469502D01*
X143394494Y-72410537D01*
X143491185Y-72331185D01*
X143570537Y-72234494D01*
X143629502Y-72124180D01*
X143665812Y-72004482D01*
X143678072Y-71880000D01*
X143675000Y-71365750D01*
X143516250Y-71207000D01*
X142367000Y-71207000D01*
X142113000Y-71207000D01*
X140963750Y-71207000D01*
X140805000Y-71365750D01*
X140801928Y-71880000D01*
X111800457Y-71880000D01*
X111800457Y-70320000D01*
X111796518Y-70280000D01*
X140801928Y-70280000D01*
X140805000Y-70794250D01*
X140963750Y-70953000D01*
X142113000Y-70953000D01*
X142113000Y-70933000D01*
X142367000Y-70933000D01*
X142367000Y-70953000D01*
X143516250Y-70953000D01*
X143675000Y-70794250D01*
X143678072Y-70280000D01*
X143665812Y-70155518D01*
X143629502Y-70035820D01*
X143570537Y-69925506D01*
X143491185Y-69828815D01*
X143394494Y-69749463D01*
X143284180Y-69690498D01*
X143164482Y-69654188D01*
X143040000Y-69641928D01*
X143004735Y-69642139D01*
X143073801Y-69595990D01*
X143255990Y-69413801D01*
X143399135Y-69199570D01*
X143497734Y-68961530D01*
X143548000Y-68708827D01*
X143548000Y-68451173D01*
X143497734Y-68198470D01*
X143399135Y-67960430D01*
X143256679Y-67747229D01*
X156742000Y-67747229D01*
X156742000Y-68142771D01*
X156819166Y-68530712D01*
X156970533Y-68896145D01*
X157190284Y-69225025D01*
X157469975Y-69504716D01*
X157798855Y-69724467D01*
X158164288Y-69875834D01*
X158552229Y-69953000D01*
X158947771Y-69953000D01*
X159335712Y-69875834D01*
X159701145Y-69724467D01*
X160030025Y-69504716D01*
X160098088Y-69436653D01*
X163787952Y-69436653D01*
X163943962Y-69752214D01*
X164318745Y-69943020D01*
X164723551Y-70057044D01*
X165142824Y-70089902D01*
X165560451Y-70040334D01*
X165960383Y-69910243D01*
X166256038Y-69752214D01*
X166412048Y-69436653D01*
X165100000Y-68124605D01*
X163787952Y-69436653D01*
X160098088Y-69436653D01*
X160309716Y-69225025D01*
X160529467Y-68896145D01*
X160680834Y-68530712D01*
X160758000Y-68142771D01*
X160758000Y-67987824D01*
X162955098Y-67987824D01*
X163004666Y-68405451D01*
X163134757Y-68805383D01*
X163292786Y-69101038D01*
X163608347Y-69257048D01*
X164920395Y-67945000D01*
X165279605Y-67945000D01*
X166591653Y-69257048D01*
X166907214Y-69101038D01*
X167098020Y-68726255D01*
X167212044Y-68321449D01*
X167244902Y-67902176D01*
X167195334Y-67484549D01*
X167065243Y-67084617D01*
X166907214Y-66788962D01*
X166591653Y-66632952D01*
X165279605Y-67945000D01*
X164920395Y-67945000D01*
X163608347Y-66632952D01*
X163292786Y-66788962D01*
X163101980Y-67163745D01*
X162987956Y-67568551D01*
X162955098Y-67987824D01*
X160758000Y-67987824D01*
X160758000Y-67747229D01*
X160680834Y-67359288D01*
X160529467Y-66993855D01*
X160309716Y-66664975D01*
X160098088Y-66453347D01*
X163787952Y-66453347D01*
X165100000Y-67765395D01*
X166412048Y-66453347D01*
X166256038Y-66137786D01*
X165881255Y-65946980D01*
X165476449Y-65832956D01*
X165057176Y-65800098D01*
X164639549Y-65849666D01*
X164239617Y-65979757D01*
X163943962Y-66137786D01*
X163787952Y-66453347D01*
X160098088Y-66453347D01*
X160030025Y-66385284D01*
X159701145Y-66165533D01*
X159335712Y-66014166D01*
X158947771Y-65937000D01*
X158552229Y-65937000D01*
X158164288Y-66014166D01*
X157798855Y-66165533D01*
X157469975Y-66385284D01*
X157190284Y-66664975D01*
X156970533Y-66993855D01*
X156819166Y-67359288D01*
X156742000Y-67747229D01*
X143256679Y-67747229D01*
X143255990Y-67746199D01*
X143073801Y-67564010D01*
X142859570Y-67420865D01*
X142621530Y-67322266D01*
X142368827Y-67272000D01*
X142111173Y-67272000D01*
X141858470Y-67322266D01*
X141620430Y-67420865D01*
X141406199Y-67564010D01*
X141224010Y-67746199D01*
X141080865Y-67960430D01*
X140982266Y-68198470D01*
X140932000Y-68451173D01*
X140932000Y-68708827D01*
X140982266Y-68961530D01*
X141080865Y-69199570D01*
X141224010Y-69413801D01*
X141406199Y-69595990D01*
X141475265Y-69642139D01*
X141440000Y-69641928D01*
X141315518Y-69654188D01*
X141195820Y-69690498D01*
X141085506Y-69749463D01*
X140988815Y-69828815D01*
X140909463Y-69925506D01*
X140850498Y-70035820D01*
X140814188Y-70155518D01*
X140801928Y-70280000D01*
X111796518Y-70280000D01*
X111790649Y-70220415D01*
X111761601Y-70124657D01*
X111714429Y-70036405D01*
X111650948Y-69959052D01*
X111573595Y-69895571D01*
X111485343Y-69848399D01*
X111389585Y-69819351D01*
X111290000Y-69809543D01*
X111036158Y-69809543D01*
X111109570Y-69779135D01*
X111323801Y-69635990D01*
X111505990Y-69453801D01*
X111649135Y-69239570D01*
X111747734Y-69001530D01*
X111798000Y-68748827D01*
X111798000Y-68491173D01*
X111747734Y-68238470D01*
X111649135Y-68000430D01*
X111505990Y-67786199D01*
X111323801Y-67604010D01*
X111109570Y-67460865D01*
X110871530Y-67362266D01*
X110618827Y-67312000D01*
X110361173Y-67312000D01*
X110108470Y-67362266D01*
X109870430Y-67460865D01*
X109656199Y-67604010D01*
X109474010Y-67786199D01*
X109330865Y-68000430D01*
X109232266Y-68238470D01*
X109182000Y-68491173D01*
X109182000Y-68748827D01*
X109232266Y-69001530D01*
X109330865Y-69239570D01*
X109474010Y-69453801D01*
X109656199Y-69635990D01*
X109870430Y-69779135D01*
X109943842Y-69809543D01*
X109690000Y-69809543D01*
X109590415Y-69819351D01*
X109494657Y-69848399D01*
X109406405Y-69895571D01*
X109329052Y-69959052D01*
X109265571Y-70036405D01*
X109218399Y-70124657D01*
X109189351Y-70220415D01*
X109179543Y-70320000D01*
X91044553Y-70320000D01*
X91010948Y-70279052D01*
X90933595Y-70215571D01*
X90845343Y-70168399D01*
X90749585Y-70139351D01*
X90650000Y-70129543D01*
X87150000Y-70129543D01*
X87050415Y-70139351D01*
X86954657Y-70168399D01*
X86866405Y-70215571D01*
X86789052Y-70279052D01*
X86725571Y-70356405D01*
X86678399Y-70444657D01*
X86649351Y-70540415D01*
X86639543Y-70640000D01*
X86402072Y-70640000D01*
X86433836Y-70535289D01*
X86460457Y-70265000D01*
X86460457Y-68515000D01*
X86433836Y-68244711D01*
X86354995Y-67984809D01*
X86226965Y-67745281D01*
X86054666Y-67535334D01*
X85844719Y-67363035D01*
X85605191Y-67235005D01*
X85345289Y-67156164D01*
X85075000Y-67129543D01*
X83325000Y-67129543D01*
X83054711Y-67156164D01*
X82794809Y-67235005D01*
X82555281Y-67363035D01*
X82345334Y-67535334D01*
X82173035Y-67745281D01*
X82045005Y-67984809D01*
X81966164Y-68244711D01*
X81939543Y-68515000D01*
X73760457Y-68515000D01*
X73733836Y-68244711D01*
X73654995Y-67984809D01*
X73526965Y-67745281D01*
X73354666Y-67535334D01*
X73144719Y-67363035D01*
X72905191Y-67235005D01*
X72645289Y-67156164D01*
X72375000Y-67129543D01*
X70625000Y-67129543D01*
X70354711Y-67156164D01*
X70094809Y-67235005D01*
X69855281Y-67363035D01*
X69645334Y-67535334D01*
X69473035Y-67745281D01*
X69345005Y-67984809D01*
X69266164Y-68244711D01*
X69239543Y-68515000D01*
X51383000Y-68515000D01*
X51383000Y-65640000D01*
X73939543Y-65640000D01*
X73939543Y-67140000D01*
X73963762Y-67385903D01*
X74035490Y-67622356D01*
X74151968Y-67840272D01*
X74308722Y-68031278D01*
X74499728Y-68188032D01*
X74717644Y-68304510D01*
X74954097Y-68376238D01*
X75200000Y-68400457D01*
X77200000Y-68400457D01*
X77445903Y-68376238D01*
X77682356Y-68304510D01*
X77900272Y-68188032D01*
X78091278Y-68031278D01*
X78248032Y-67840272D01*
X78364510Y-67622356D01*
X78436238Y-67385903D01*
X78460457Y-67140000D01*
X78460457Y-65640000D01*
X86639543Y-65640000D01*
X86639543Y-67140000D01*
X86663762Y-67385903D01*
X86735490Y-67622356D01*
X86851968Y-67840272D01*
X87008722Y-68031278D01*
X87199728Y-68188032D01*
X87417644Y-68304510D01*
X87654097Y-68376238D01*
X87900000Y-68400457D01*
X89900000Y-68400457D01*
X90145903Y-68376238D01*
X90382356Y-68304510D01*
X90600272Y-68188032D01*
X90791278Y-68031278D01*
X90948032Y-67840272D01*
X91064510Y-67622356D01*
X91136238Y-67385903D01*
X91160457Y-67140000D01*
X91160457Y-65640000D01*
X91136238Y-65394097D01*
X91064510Y-65157644D01*
X90948032Y-64939728D01*
X90791278Y-64748722D01*
X90600272Y-64591968D01*
X90382356Y-64475490D01*
X90145903Y-64403762D01*
X89900000Y-64379543D01*
X87900000Y-64379543D01*
X87654097Y-64403762D01*
X87417644Y-64475490D01*
X87199728Y-64591968D01*
X87008722Y-64748722D01*
X86851968Y-64939728D01*
X86735490Y-65157644D01*
X86663762Y-65394097D01*
X86639543Y-65640000D01*
X78460457Y-65640000D01*
X78436238Y-65394097D01*
X78364510Y-65157644D01*
X78248032Y-64939728D01*
X78091278Y-64748722D01*
X77900272Y-64591968D01*
X77682356Y-64475490D01*
X77445903Y-64403762D01*
X77200000Y-64379543D01*
X75200000Y-64379543D01*
X74954097Y-64403762D01*
X74717644Y-64475490D01*
X74499728Y-64591968D01*
X74308722Y-64748722D01*
X74151968Y-64939728D01*
X74035490Y-65157644D01*
X73963762Y-65394097D01*
X73939543Y-65640000D01*
X51383000Y-65640000D01*
X51383000Y-64083000D01*
X177217001Y-64083000D01*
X177217000Y-126417000D01*
G04 #@! TA.AperFunction,Conductor*
D21*
G36*
X177217000Y-126417000D02*
G01*
X51383000Y-126417000D01*
X51383000Y-116632380D01*
X53772000Y-116632380D01*
X53772000Y-117047620D01*
X53853009Y-117454881D01*
X54011914Y-117838513D01*
X54242609Y-118183772D01*
X54536228Y-118477391D01*
X54881487Y-118708086D01*
X55265119Y-118866991D01*
X55672380Y-118948000D01*
X56087620Y-118948000D01*
X56494881Y-118866991D01*
X56878513Y-118708086D01*
X57223772Y-118477391D01*
X57517391Y-118183772D01*
X57748086Y-117838513D01*
X57906991Y-117454881D01*
X57988000Y-117047620D01*
X57988000Y-116719053D01*
X62272000Y-116719053D01*
X62272000Y-116960947D01*
X62319191Y-117198194D01*
X62411760Y-117421676D01*
X62546150Y-117622805D01*
X62717195Y-117793850D01*
X62918324Y-117928240D01*
X63141806Y-118020809D01*
X63379053Y-118068000D01*
X63620947Y-118068000D01*
X63858194Y-118020809D01*
X64081676Y-117928240D01*
X64282805Y-117793850D01*
X64453850Y-117622805D01*
X64588240Y-117421676D01*
X64680809Y-117198194D01*
X64728000Y-116960947D01*
X64728000Y-116719053D01*
X64723118Y-116694512D01*
X73533001Y-107884630D01*
X73533001Y-108904369D01*
X64892654Y-117544716D01*
X64863578Y-117568578D01*
X64833125Y-117605686D01*
X64768355Y-117684608D01*
X64730535Y-117755365D01*
X64697598Y-117816986D01*
X64654026Y-117960623D01*
X64643451Y-118068000D01*
X64639314Y-118110000D01*
X64643000Y-118147423D01*
X64643000Y-118930527D01*
X64588240Y-118798324D01*
X64453850Y-118597195D01*
X64282805Y-118426150D01*
X64081676Y-118291760D01*
X63858194Y-118199191D01*
X63620947Y-118152000D01*
X63379053Y-118152000D01*
X63141806Y-118199191D01*
X62918324Y-118291760D01*
X62717195Y-118426150D01*
X62546150Y-118597195D01*
X62411760Y-118798324D01*
X62319191Y-119021806D01*
X62272000Y-119259053D01*
X62272000Y-119500947D01*
X62319191Y-119738194D01*
X62411760Y-119961676D01*
X62546150Y-120162805D01*
X62717195Y-120333850D01*
X62918324Y-120468240D01*
X63141806Y-120560809D01*
X63379053Y-120608000D01*
X63620947Y-120608000D01*
X63858194Y-120560809D01*
X64081676Y-120468240D01*
X64282805Y-120333850D01*
X64453850Y-120162805D01*
X64588240Y-119961676D01*
X64643000Y-119829473D01*
X64643001Y-121829543D01*
X63920000Y-121829543D01*
X63820415Y-121839351D01*
X63724657Y-121868399D01*
X63636405Y-121915571D01*
X63559052Y-121979052D01*
X63495571Y-122056405D01*
X63448399Y-122144657D01*
X63419351Y-122240415D01*
X63409543Y-122340000D01*
X63409543Y-124040000D01*
X63419351Y-124139585D01*
X63448399Y-124235343D01*
X63495571Y-124323595D01*
X63559052Y-124400948D01*
X63636405Y-124464429D01*
X63724657Y-124511601D01*
X63820415Y-124540649D01*
X63920000Y-124550457D01*
X65620000Y-124550457D01*
X65719585Y-124540649D01*
X65815343Y-124511601D01*
X65903595Y-124464429D01*
X65980948Y-124400948D01*
X66044429Y-124323595D01*
X66091601Y-124235343D01*
X66120649Y-124139585D01*
X66126133Y-124083903D01*
X66309731Y-124287588D01*
X66543080Y-124461641D01*
X66805901Y-124586825D01*
X66953110Y-124631476D01*
X67183000Y-124510155D01*
X67183000Y-123317000D01*
X67163000Y-123317000D01*
X67163000Y-123063000D01*
X67183000Y-123063000D01*
X67183000Y-121869845D01*
X66953110Y-121748524D01*
X66805901Y-121793175D01*
X66543080Y-121918359D01*
X66309731Y-122092412D01*
X66167000Y-122250758D01*
X66167000Y-118425630D01*
X74803001Y-109789629D01*
X74803001Y-111444368D01*
X73782654Y-112464716D01*
X73753578Y-112488578D01*
X73723125Y-112525686D01*
X73658355Y-112604608D01*
X73620535Y-112675365D01*
X73587598Y-112736986D01*
X73544026Y-112880623D01*
X73538135Y-112940439D01*
X73529314Y-113030000D01*
X73533000Y-113067423D01*
X73533001Y-122456286D01*
X73444828Y-122324325D01*
X73255675Y-122135172D01*
X73033254Y-121986556D01*
X72786114Y-121884187D01*
X72523751Y-121832000D01*
X72256249Y-121832000D01*
X71993886Y-121884187D01*
X71746746Y-121986556D01*
X71524325Y-122135172D01*
X71335172Y-122324325D01*
X71186556Y-122546746D01*
X71120000Y-122707426D01*
X71053444Y-122546746D01*
X70904828Y-122324325D01*
X70715675Y-122135172D01*
X70493254Y-121986556D01*
X70246114Y-121884187D01*
X69983751Y-121832000D01*
X69716249Y-121832000D01*
X69453886Y-121884187D01*
X69206746Y-121986556D01*
X68984325Y-122135172D01*
X68795172Y-122324325D01*
X68646795Y-122546389D01*
X68505178Y-122308645D01*
X68310269Y-122092412D01*
X68076920Y-121918359D01*
X67814099Y-121793175D01*
X67666890Y-121748524D01*
X67437000Y-121869845D01*
X67437000Y-123063000D01*
X67457000Y-123063000D01*
X67457000Y-123317000D01*
X67437000Y-123317000D01*
X67437000Y-124510155D01*
X67666890Y-124631476D01*
X67814099Y-124586825D01*
X68076920Y-124461641D01*
X68310269Y-124287588D01*
X68505178Y-124071355D01*
X68646795Y-123833611D01*
X68795172Y-124055675D01*
X68984325Y-124244828D01*
X69206746Y-124393444D01*
X69453886Y-124495813D01*
X69716249Y-124548000D01*
X69983751Y-124548000D01*
X70246114Y-124495813D01*
X70493254Y-124393444D01*
X70715675Y-124244828D01*
X70904828Y-124055675D01*
X71053444Y-123833254D01*
X71120000Y-123672574D01*
X71186556Y-123833254D01*
X71335172Y-124055675D01*
X71524325Y-124244828D01*
X71746746Y-124393444D01*
X71993886Y-124495813D01*
X72256249Y-124548000D01*
X72523751Y-124548000D01*
X72786114Y-124495813D01*
X73033254Y-124393444D01*
X73255675Y-124244828D01*
X73444828Y-124055675D01*
X73593444Y-123833254D01*
X73660000Y-123672574D01*
X73726556Y-123833254D01*
X73875172Y-124055675D01*
X74064325Y-124244828D01*
X74286746Y-124393444D01*
X74533886Y-124495813D01*
X74796249Y-124548000D01*
X75063751Y-124548000D01*
X75326114Y-124495813D01*
X75573254Y-124393444D01*
X75795675Y-124244828D01*
X75984828Y-124055675D01*
X76133444Y-123833254D01*
X76200000Y-123672574D01*
X76266556Y-123833254D01*
X76415172Y-124055675D01*
X76604325Y-124244828D01*
X76826746Y-124393444D01*
X77073886Y-124495813D01*
X77336249Y-124548000D01*
X77603751Y-124548000D01*
X77866114Y-124495813D01*
X78113254Y-124393444D01*
X78335675Y-124244828D01*
X78524828Y-124055675D01*
X78673205Y-123833611D01*
X78814822Y-124071355D01*
X79009731Y-124287588D01*
X79243080Y-124461641D01*
X79505901Y-124586825D01*
X79653110Y-124631476D01*
X79883000Y-124510155D01*
X79883000Y-123317000D01*
X79863000Y-123317000D01*
X79863000Y-123063000D01*
X79883000Y-123063000D01*
X79883000Y-121869845D01*
X79653110Y-121748524D01*
X79505901Y-121793175D01*
X79243080Y-121918359D01*
X79009731Y-122092412D01*
X78867000Y-122250758D01*
X78867000Y-118425630D01*
X87503001Y-109789629D01*
X87503001Y-111444368D01*
X86482654Y-112464716D01*
X86453578Y-112488578D01*
X86423125Y-112525686D01*
X86358355Y-112604608D01*
X86320535Y-112675365D01*
X86287598Y-112736986D01*
X86244026Y-112880623D01*
X86238135Y-112940439D01*
X86229314Y-113030000D01*
X86233000Y-113067423D01*
X86233001Y-122456286D01*
X86144828Y-122324325D01*
X85955675Y-122135172D01*
X85733254Y-121986556D01*
X85486114Y-121884187D01*
X85223751Y-121832000D01*
X84956249Y-121832000D01*
X84693886Y-121884187D01*
X84446746Y-121986556D01*
X84224325Y-122135172D01*
X84035172Y-122324325D01*
X83886556Y-122546746D01*
X83820000Y-122707426D01*
X83753444Y-122546746D01*
X83604828Y-122324325D01*
X83415675Y-122135172D01*
X83193254Y-121986556D01*
X82946114Y-121884187D01*
X82683751Y-121832000D01*
X82416249Y-121832000D01*
X82153886Y-121884187D01*
X81906746Y-121986556D01*
X81684325Y-122135172D01*
X81495172Y-122324325D01*
X81346795Y-122546389D01*
X81205178Y-122308645D01*
X81010269Y-122092412D01*
X80776920Y-121918359D01*
X80514099Y-121793175D01*
X80366890Y-121748524D01*
X80137000Y-121869845D01*
X80137000Y-123063000D01*
X80157000Y-123063000D01*
X80157000Y-123317000D01*
X80137000Y-123317000D01*
X80137000Y-124510155D01*
X80366890Y-124631476D01*
X80514099Y-124586825D01*
X80776920Y-124461641D01*
X81010269Y-124287588D01*
X81205178Y-124071355D01*
X81346795Y-123833611D01*
X81495172Y-124055675D01*
X81684325Y-124244828D01*
X81906746Y-124393444D01*
X82153886Y-124495813D01*
X82416249Y-124548000D01*
X82683751Y-124548000D01*
X82946114Y-124495813D01*
X83193254Y-124393444D01*
X83415675Y-124244828D01*
X83604828Y-124055675D01*
X83753444Y-123833254D01*
X83820000Y-123672574D01*
X83886556Y-123833254D01*
X84035172Y-124055675D01*
X84224325Y-124244828D01*
X84446746Y-124393444D01*
X84693886Y-124495813D01*
X84956249Y-124548000D01*
X85223751Y-124548000D01*
X85486114Y-124495813D01*
X85733254Y-124393444D01*
X85955675Y-124244828D01*
X86144828Y-124055675D01*
X86293444Y-123833254D01*
X86360000Y-123672574D01*
X86426556Y-123833254D01*
X86575172Y-124055675D01*
X86764325Y-124244828D01*
X86986746Y-124393444D01*
X87233886Y-124495813D01*
X87496249Y-124548000D01*
X87763751Y-124548000D01*
X88026114Y-124495813D01*
X88273254Y-124393444D01*
X88495675Y-124244828D01*
X88684828Y-124055675D01*
X88833444Y-123833254D01*
X88900000Y-123672574D01*
X88966556Y-123833254D01*
X89115172Y-124055675D01*
X89304325Y-124244828D01*
X89526746Y-124393444D01*
X89773886Y-124495813D01*
X90036249Y-124548000D01*
X90303751Y-124548000D01*
X90566114Y-124495813D01*
X90813254Y-124393444D01*
X91035675Y-124244828D01*
X91224828Y-124055675D01*
X91373205Y-123833611D01*
X91514822Y-124071355D01*
X91709731Y-124287588D01*
X91943080Y-124461641D01*
X92205901Y-124586825D01*
X92353110Y-124631476D01*
X92583000Y-124510155D01*
X92583000Y-123317000D01*
X92563000Y-123317000D01*
X92563000Y-123063000D01*
X92583000Y-123063000D01*
X92583000Y-121869845D01*
X92353110Y-121748524D01*
X92205901Y-121793175D01*
X91943080Y-121918359D01*
X91709731Y-122092412D01*
X91567000Y-122250758D01*
X91567000Y-118425630D01*
X100203001Y-109789629D01*
X100203001Y-111444368D01*
X99182654Y-112464716D01*
X99153578Y-112488578D01*
X99123125Y-112525686D01*
X99058355Y-112604608D01*
X99020535Y-112675365D01*
X98987598Y-112736986D01*
X98944026Y-112880623D01*
X98938135Y-112940439D01*
X98929314Y-113030000D01*
X98933000Y-113067423D01*
X98933001Y-122456286D01*
X98844828Y-122324325D01*
X98655675Y-122135172D01*
X98433254Y-121986556D01*
X98186114Y-121884187D01*
X97923751Y-121832000D01*
X97656249Y-121832000D01*
X97393886Y-121884187D01*
X97146746Y-121986556D01*
X96924325Y-122135172D01*
X96735172Y-122324325D01*
X96586556Y-122546746D01*
X96520000Y-122707426D01*
X96453444Y-122546746D01*
X96304828Y-122324325D01*
X96115675Y-122135172D01*
X95893254Y-121986556D01*
X95646114Y-121884187D01*
X95383751Y-121832000D01*
X95116249Y-121832000D01*
X94853886Y-121884187D01*
X94606746Y-121986556D01*
X94384325Y-122135172D01*
X94195172Y-122324325D01*
X94046795Y-122546389D01*
X93905178Y-122308645D01*
X93710269Y-122092412D01*
X93476920Y-121918359D01*
X93214099Y-121793175D01*
X93066890Y-121748524D01*
X92837000Y-121869845D01*
X92837000Y-123063000D01*
X92857000Y-123063000D01*
X92857000Y-123317000D01*
X92837000Y-123317000D01*
X92837000Y-124510155D01*
X93066890Y-124631476D01*
X93214099Y-124586825D01*
X93476920Y-124461641D01*
X93710269Y-124287588D01*
X93905178Y-124071355D01*
X94046795Y-123833611D01*
X94195172Y-124055675D01*
X94384325Y-124244828D01*
X94606746Y-124393444D01*
X94853886Y-124495813D01*
X95116249Y-124548000D01*
X95383751Y-124548000D01*
X95646114Y-124495813D01*
X95893254Y-124393444D01*
X96115675Y-124244828D01*
X96304828Y-124055675D01*
X96453444Y-123833254D01*
X96520000Y-123672574D01*
X96586556Y-123833254D01*
X96735172Y-124055675D01*
X96924325Y-124244828D01*
X97146746Y-124393444D01*
X97393886Y-124495813D01*
X97656249Y-124548000D01*
X97923751Y-124548000D01*
X98186114Y-124495813D01*
X98433254Y-124393444D01*
X98655675Y-124244828D01*
X98844828Y-124055675D01*
X98993444Y-123833254D01*
X99060000Y-123672574D01*
X99126556Y-123833254D01*
X99275172Y-124055675D01*
X99464325Y-124244828D01*
X99686746Y-124393444D01*
X99933886Y-124495813D01*
X100196249Y-124548000D01*
X100463751Y-124548000D01*
X100726114Y-124495813D01*
X100973254Y-124393444D01*
X101195675Y-124244828D01*
X101384828Y-124055675D01*
X101533444Y-123833254D01*
X101600000Y-123672574D01*
X101666556Y-123833254D01*
X101815172Y-124055675D01*
X102004325Y-124244828D01*
X102226746Y-124393444D01*
X102473886Y-124495813D01*
X102736249Y-124548000D01*
X103003751Y-124548000D01*
X103266114Y-124495813D01*
X103513254Y-124393444D01*
X103735675Y-124244828D01*
X103924828Y-124055675D01*
X104073205Y-123833611D01*
X104214822Y-124071355D01*
X104409731Y-124287588D01*
X104643080Y-124461641D01*
X104905901Y-124586825D01*
X105053110Y-124631476D01*
X105283000Y-124510155D01*
X105283000Y-123317000D01*
X105263000Y-123317000D01*
X105263000Y-123063000D01*
X105283000Y-123063000D01*
X105283000Y-121869845D01*
X105053110Y-121748524D01*
X104905901Y-121793175D01*
X104643080Y-121918359D01*
X104409731Y-122092412D01*
X104267000Y-122250758D01*
X104267000Y-118425630D01*
X112903001Y-109789629D01*
X112903001Y-111444368D01*
X111882654Y-112464716D01*
X111853578Y-112488578D01*
X111823125Y-112525686D01*
X111758355Y-112604608D01*
X111720535Y-112675365D01*
X111687598Y-112736986D01*
X111644026Y-112880623D01*
X111638135Y-112940439D01*
X111629314Y-113030000D01*
X111633000Y-113067423D01*
X111633001Y-122456286D01*
X111544828Y-122324325D01*
X111355675Y-122135172D01*
X111133254Y-121986556D01*
X110886114Y-121884187D01*
X110623751Y-121832000D01*
X110356249Y-121832000D01*
X110093886Y-121884187D01*
X109846746Y-121986556D01*
X109624325Y-122135172D01*
X109435172Y-122324325D01*
X109286556Y-122546746D01*
X109220000Y-122707426D01*
X109153444Y-122546746D01*
X109004828Y-122324325D01*
X108815675Y-122135172D01*
X108593254Y-121986556D01*
X108346114Y-121884187D01*
X108083751Y-121832000D01*
X107816249Y-121832000D01*
X107553886Y-121884187D01*
X107306746Y-121986556D01*
X107084325Y-122135172D01*
X106895172Y-122324325D01*
X106746795Y-122546389D01*
X106605178Y-122308645D01*
X106410269Y-122092412D01*
X106176920Y-121918359D01*
X105914099Y-121793175D01*
X105766890Y-121748524D01*
X105537000Y-121869845D01*
X105537000Y-123063000D01*
X105557000Y-123063000D01*
X105557000Y-123317000D01*
X105537000Y-123317000D01*
X105537000Y-124510155D01*
X105766890Y-124631476D01*
X105914099Y-124586825D01*
X106176920Y-124461641D01*
X106410269Y-124287588D01*
X106605178Y-124071355D01*
X106746795Y-123833611D01*
X106895172Y-124055675D01*
X107084325Y-124244828D01*
X107306746Y-124393444D01*
X107553886Y-124495813D01*
X107816249Y-124548000D01*
X108083751Y-124548000D01*
X108346114Y-124495813D01*
X108593254Y-124393444D01*
X108815675Y-124244828D01*
X109004828Y-124055675D01*
X109153444Y-123833254D01*
X109220000Y-123672574D01*
X109286556Y-123833254D01*
X109435172Y-124055675D01*
X109624325Y-124244828D01*
X109846746Y-124393444D01*
X110093886Y-124495813D01*
X110356249Y-124548000D01*
X110623751Y-124548000D01*
X110886114Y-124495813D01*
X111133254Y-124393444D01*
X111355675Y-124244828D01*
X111544828Y-124055675D01*
X111693444Y-123833254D01*
X111760000Y-123672574D01*
X111826556Y-123833254D01*
X111975172Y-124055675D01*
X112164325Y-124244828D01*
X112386746Y-124393444D01*
X112633886Y-124495813D01*
X112896249Y-124548000D01*
X113163751Y-124548000D01*
X113426114Y-124495813D01*
X113673254Y-124393444D01*
X113895675Y-124244828D01*
X114084828Y-124055675D01*
X114233444Y-123833254D01*
X114300000Y-123672574D01*
X114366556Y-123833254D01*
X114515172Y-124055675D01*
X114704325Y-124244828D01*
X114926746Y-124393444D01*
X115173886Y-124495813D01*
X115436249Y-124548000D01*
X115703751Y-124548000D01*
X115966114Y-124495813D01*
X116213254Y-124393444D01*
X116435675Y-124244828D01*
X116624828Y-124055675D01*
X116773205Y-123833611D01*
X116914822Y-124071355D01*
X117109731Y-124287588D01*
X117343080Y-124461641D01*
X117605901Y-124586825D01*
X117753110Y-124631476D01*
X117983000Y-124510155D01*
X117983000Y-123317000D01*
X117963000Y-123317000D01*
X117963000Y-123063000D01*
X117983000Y-123063000D01*
X117983000Y-121869845D01*
X117753110Y-121748524D01*
X117605901Y-121793175D01*
X117343080Y-121918359D01*
X117109731Y-122092412D01*
X116967000Y-122250758D01*
X116967000Y-118425630D01*
X125603001Y-109789629D01*
X125603001Y-111444368D01*
X124582654Y-112464716D01*
X124553578Y-112488578D01*
X124523125Y-112525686D01*
X124458355Y-112604608D01*
X124420535Y-112675365D01*
X124387598Y-112736986D01*
X124344026Y-112880623D01*
X124338135Y-112940439D01*
X124329314Y-113030000D01*
X124333000Y-113067423D01*
X124333001Y-122456286D01*
X124244828Y-122324325D01*
X124055675Y-122135172D01*
X123833254Y-121986556D01*
X123586114Y-121884187D01*
X123323751Y-121832000D01*
X123056249Y-121832000D01*
X122793886Y-121884187D01*
X122546746Y-121986556D01*
X122324325Y-122135172D01*
X122135172Y-122324325D01*
X121986556Y-122546746D01*
X121920000Y-122707426D01*
X121853444Y-122546746D01*
X121704828Y-122324325D01*
X121515675Y-122135172D01*
X121293254Y-121986556D01*
X121046114Y-121884187D01*
X120783751Y-121832000D01*
X120516249Y-121832000D01*
X120253886Y-121884187D01*
X120006746Y-121986556D01*
X119784325Y-122135172D01*
X119595172Y-122324325D01*
X119446795Y-122546389D01*
X119305178Y-122308645D01*
X119110269Y-122092412D01*
X118876920Y-121918359D01*
X118614099Y-121793175D01*
X118466890Y-121748524D01*
X118237000Y-121869845D01*
X118237000Y-123063000D01*
X118257000Y-123063000D01*
X118257000Y-123317000D01*
X118237000Y-123317000D01*
X118237000Y-124510155D01*
X118466890Y-124631476D01*
X118614099Y-124586825D01*
X118876920Y-124461641D01*
X119110269Y-124287588D01*
X119305178Y-124071355D01*
X119446795Y-123833611D01*
X119595172Y-124055675D01*
X119784325Y-124244828D01*
X120006746Y-124393444D01*
X120253886Y-124495813D01*
X120516249Y-124548000D01*
X120783751Y-124548000D01*
X121046114Y-124495813D01*
X121293254Y-124393444D01*
X121515675Y-124244828D01*
X121704828Y-124055675D01*
X121853444Y-123833254D01*
X121920000Y-123672574D01*
X121986556Y-123833254D01*
X122135172Y-124055675D01*
X122324325Y-124244828D01*
X122546746Y-124393444D01*
X122793886Y-124495813D01*
X123056249Y-124548000D01*
X123323751Y-124548000D01*
X123586114Y-124495813D01*
X123833254Y-124393444D01*
X124055675Y-124244828D01*
X124244828Y-124055675D01*
X124393444Y-123833254D01*
X124460000Y-123672574D01*
X124526556Y-123833254D01*
X124675172Y-124055675D01*
X124864325Y-124244828D01*
X125086746Y-124393444D01*
X125333886Y-124495813D01*
X125596249Y-124548000D01*
X125863751Y-124548000D01*
X126126114Y-124495813D01*
X126373254Y-124393444D01*
X126595675Y-124244828D01*
X126784828Y-124055675D01*
X126933444Y-123833254D01*
X127000000Y-123672574D01*
X127066556Y-123833254D01*
X127215172Y-124055675D01*
X127404325Y-124244828D01*
X127626746Y-124393444D01*
X127873886Y-124495813D01*
X128136249Y-124548000D01*
X128403751Y-124548000D01*
X128666114Y-124495813D01*
X128913254Y-124393444D01*
X129135675Y-124244828D01*
X129324828Y-124055675D01*
X129473205Y-123833611D01*
X129614822Y-124071355D01*
X129809731Y-124287588D01*
X130043080Y-124461641D01*
X130305901Y-124586825D01*
X130453110Y-124631476D01*
X130683000Y-124510155D01*
X130683000Y-123317000D01*
X130663000Y-123317000D01*
X130663000Y-123063000D01*
X130683000Y-123063000D01*
X130683000Y-121869845D01*
X130453110Y-121748524D01*
X130305901Y-121793175D01*
X130043080Y-121918359D01*
X129809731Y-122092412D01*
X129667000Y-122250758D01*
X129667000Y-118425630D01*
X138303001Y-109789629D01*
X138303001Y-111444368D01*
X137282654Y-112464716D01*
X137253578Y-112488578D01*
X137223125Y-112525686D01*
X137158355Y-112604608D01*
X137120535Y-112675365D01*
X137087598Y-112736986D01*
X137044026Y-112880623D01*
X137038135Y-112940439D01*
X137029314Y-113030000D01*
X137033000Y-113067423D01*
X137033001Y-122456286D01*
X136944828Y-122324325D01*
X136755675Y-122135172D01*
X136533254Y-121986556D01*
X136286114Y-121884187D01*
X136023751Y-121832000D01*
X135756249Y-121832000D01*
X135493886Y-121884187D01*
X135246746Y-121986556D01*
X135024325Y-122135172D01*
X134835172Y-122324325D01*
X134686556Y-122546746D01*
X134620000Y-122707426D01*
X134553444Y-122546746D01*
X134404828Y-122324325D01*
X134215675Y-122135172D01*
X133993254Y-121986556D01*
X133746114Y-121884187D01*
X133483751Y-121832000D01*
X133216249Y-121832000D01*
X132953886Y-121884187D01*
X132706746Y-121986556D01*
X132484325Y-122135172D01*
X132295172Y-122324325D01*
X132146795Y-122546389D01*
X132005178Y-122308645D01*
X131810269Y-122092412D01*
X131576920Y-121918359D01*
X131314099Y-121793175D01*
X131166890Y-121748524D01*
X130937000Y-121869845D01*
X130937000Y-123063000D01*
X130957000Y-123063000D01*
X130957000Y-123317000D01*
X130937000Y-123317000D01*
X130937000Y-124510155D01*
X131166890Y-124631476D01*
X131314099Y-124586825D01*
X131576920Y-124461641D01*
X131810269Y-124287588D01*
X132005178Y-124071355D01*
X132146795Y-123833611D01*
X132295172Y-124055675D01*
X132484325Y-124244828D01*
X132706746Y-124393444D01*
X132953886Y-124495813D01*
X133216249Y-124548000D01*
X133483751Y-124548000D01*
X133746114Y-124495813D01*
X133993254Y-124393444D01*
X134215675Y-124244828D01*
X134404828Y-124055675D01*
X134553444Y-123833254D01*
X134620000Y-123672574D01*
X134686556Y-123833254D01*
X134835172Y-124055675D01*
X135024325Y-124244828D01*
X135246746Y-124393444D01*
X135493886Y-124495813D01*
X135756249Y-124548000D01*
X136023751Y-124548000D01*
X136286114Y-124495813D01*
X136533254Y-124393444D01*
X136755675Y-124244828D01*
X136944828Y-124055675D01*
X137093444Y-123833254D01*
X137160000Y-123672574D01*
X137226556Y-123833254D01*
X137375172Y-124055675D01*
X137564325Y-124244828D01*
X137786746Y-124393444D01*
X138033886Y-124495813D01*
X138296249Y-124548000D01*
X138563751Y-124548000D01*
X138826114Y-124495813D01*
X139073254Y-124393444D01*
X139295675Y-124244828D01*
X139484828Y-124055675D01*
X139633444Y-123833254D01*
X139700000Y-123672574D01*
X139766556Y-123833254D01*
X139915172Y-124055675D01*
X140104325Y-124244828D01*
X140326746Y-124393444D01*
X140573886Y-124495813D01*
X140836249Y-124548000D01*
X141103751Y-124548000D01*
X141366114Y-124495813D01*
X141613254Y-124393444D01*
X141835675Y-124244828D01*
X142024828Y-124055675D01*
X142173205Y-123833611D01*
X142314822Y-124071355D01*
X142509731Y-124287588D01*
X142743080Y-124461641D01*
X143005901Y-124586825D01*
X143153110Y-124631476D01*
X143383000Y-124510155D01*
X143383000Y-123317000D01*
X143363000Y-123317000D01*
X143363000Y-123063000D01*
X143383000Y-123063000D01*
X143383000Y-121869845D01*
X143153110Y-121748524D01*
X143005901Y-121793175D01*
X142743080Y-121918359D01*
X142509731Y-122092412D01*
X142367000Y-122250758D01*
X142367000Y-118425630D01*
X151003001Y-109789629D01*
X151003001Y-111444368D01*
X149982654Y-112464716D01*
X149953578Y-112488578D01*
X149923125Y-112525686D01*
X149858355Y-112604608D01*
X149820535Y-112675365D01*
X149787598Y-112736986D01*
X149744026Y-112880623D01*
X149738135Y-112940439D01*
X149729314Y-113030000D01*
X149733000Y-113067423D01*
X149733001Y-122456286D01*
X149644828Y-122324325D01*
X149455675Y-122135172D01*
X149233254Y-121986556D01*
X148986114Y-121884187D01*
X148723751Y-121832000D01*
X148456249Y-121832000D01*
X148193886Y-121884187D01*
X147946746Y-121986556D01*
X147724325Y-122135172D01*
X147535172Y-122324325D01*
X147386556Y-122546746D01*
X147320000Y-122707426D01*
X147253444Y-122546746D01*
X147104828Y-122324325D01*
X146915675Y-122135172D01*
X146693254Y-121986556D01*
X146446114Y-121884187D01*
X146183751Y-121832000D01*
X145916249Y-121832000D01*
X145653886Y-121884187D01*
X145406746Y-121986556D01*
X145184325Y-122135172D01*
X144995172Y-122324325D01*
X144846795Y-122546389D01*
X144705178Y-122308645D01*
X144510269Y-122092412D01*
X144276920Y-121918359D01*
X144014099Y-121793175D01*
X143866890Y-121748524D01*
X143637000Y-121869845D01*
X143637000Y-123063000D01*
X143657000Y-123063000D01*
X143657000Y-123317000D01*
X143637000Y-123317000D01*
X143637000Y-124510155D01*
X143866890Y-124631476D01*
X144014099Y-124586825D01*
X144276920Y-124461641D01*
X144510269Y-124287588D01*
X144705178Y-124071355D01*
X144846795Y-123833611D01*
X144995172Y-124055675D01*
X145184325Y-124244828D01*
X145406746Y-124393444D01*
X145653886Y-124495813D01*
X145916249Y-124548000D01*
X146183751Y-124548000D01*
X146446114Y-124495813D01*
X146693254Y-124393444D01*
X146915675Y-124244828D01*
X147104828Y-124055675D01*
X147253444Y-123833254D01*
X147320000Y-123672574D01*
X147386556Y-123833254D01*
X147535172Y-124055675D01*
X147724325Y-124244828D01*
X147946746Y-124393444D01*
X148193886Y-124495813D01*
X148456249Y-124548000D01*
X148723751Y-124548000D01*
X148986114Y-124495813D01*
X149233254Y-124393444D01*
X149455675Y-124244828D01*
X149644828Y-124055675D01*
X149793444Y-123833254D01*
X149860000Y-123672574D01*
X149926556Y-123833254D01*
X150075172Y-124055675D01*
X150264325Y-124244828D01*
X150486746Y-124393444D01*
X150733886Y-124495813D01*
X150996249Y-124548000D01*
X151263751Y-124548000D01*
X151526114Y-124495813D01*
X151773254Y-124393444D01*
X151995675Y-124244828D01*
X152184828Y-124055675D01*
X152333444Y-123833254D01*
X152400000Y-123672574D01*
X152466556Y-123833254D01*
X152615172Y-124055675D01*
X152804325Y-124244828D01*
X153026746Y-124393444D01*
X153273886Y-124495813D01*
X153536249Y-124548000D01*
X153803751Y-124548000D01*
X154066114Y-124495813D01*
X154313254Y-124393444D01*
X154535675Y-124244828D01*
X154724828Y-124055675D01*
X154873205Y-123833611D01*
X155014822Y-124071355D01*
X155209731Y-124287588D01*
X155443080Y-124461641D01*
X155705901Y-124586825D01*
X155853110Y-124631476D01*
X156083000Y-124510155D01*
X156083000Y-123317000D01*
X156063000Y-123317000D01*
X156063000Y-123063000D01*
X156083000Y-123063000D01*
X156083000Y-121869845D01*
X155853110Y-121748524D01*
X155705901Y-121793175D01*
X155443080Y-121918359D01*
X155209731Y-122092412D01*
X155067000Y-122250758D01*
X155067000Y-118425630D01*
X163703000Y-109789630D01*
X163703000Y-111444369D01*
X162682649Y-112464721D01*
X162653579Y-112488578D01*
X162629722Y-112517648D01*
X162629721Y-112517649D01*
X162558355Y-112604608D01*
X162487599Y-112736985D01*
X162444027Y-112880622D01*
X162429314Y-113030000D01*
X162433001Y-113067433D01*
X162433000Y-122456285D01*
X162344828Y-122324325D01*
X162155675Y-122135172D01*
X161933254Y-121986556D01*
X161686114Y-121884187D01*
X161423751Y-121832000D01*
X161156249Y-121832000D01*
X160893886Y-121884187D01*
X160646746Y-121986556D01*
X160424325Y-122135172D01*
X160235172Y-122324325D01*
X160086556Y-122546746D01*
X160020000Y-122707426D01*
X159953444Y-122546746D01*
X159804828Y-122324325D01*
X159615675Y-122135172D01*
X159393254Y-121986556D01*
X159146114Y-121884187D01*
X158883751Y-121832000D01*
X158616249Y-121832000D01*
X158353886Y-121884187D01*
X158106746Y-121986556D01*
X157884325Y-122135172D01*
X157695172Y-122324325D01*
X157546795Y-122546389D01*
X157405178Y-122308645D01*
X157210269Y-122092412D01*
X156976920Y-121918359D01*
X156714099Y-121793175D01*
X156566890Y-121748524D01*
X156337000Y-121869845D01*
X156337000Y-123063000D01*
X156357000Y-123063000D01*
X156357000Y-123317000D01*
X156337000Y-123317000D01*
X156337000Y-124510155D01*
X156566890Y-124631476D01*
X156714099Y-124586825D01*
X156976920Y-124461641D01*
X157210269Y-124287588D01*
X157405178Y-124071355D01*
X157546795Y-123833611D01*
X157695172Y-124055675D01*
X157884325Y-124244828D01*
X158106746Y-124393444D01*
X158353886Y-124495813D01*
X158616249Y-124548000D01*
X158883751Y-124548000D01*
X159146114Y-124495813D01*
X159393254Y-124393444D01*
X159615675Y-124244828D01*
X159804828Y-124055675D01*
X159953444Y-123833254D01*
X160020000Y-123672574D01*
X160086556Y-123833254D01*
X160235172Y-124055675D01*
X160424325Y-124244828D01*
X160646746Y-124393444D01*
X160893886Y-124495813D01*
X161156249Y-124548000D01*
X161423751Y-124548000D01*
X161686114Y-124495813D01*
X161933254Y-124393444D01*
X162155675Y-124244828D01*
X162344828Y-124055675D01*
X162493444Y-123833254D01*
X162560000Y-123672574D01*
X162626556Y-123833254D01*
X162775172Y-124055675D01*
X162964325Y-124244828D01*
X163186746Y-124393444D01*
X163433886Y-124495813D01*
X163696249Y-124548000D01*
X163963751Y-124548000D01*
X164226114Y-124495813D01*
X164473254Y-124393444D01*
X164695675Y-124244828D01*
X164884828Y-124055675D01*
X165033444Y-123833254D01*
X165135813Y-123586114D01*
X165188000Y-123323751D01*
X165188000Y-123056249D01*
X165135813Y-122793886D01*
X165033444Y-122546746D01*
X164884828Y-122324325D01*
X164695675Y-122135172D01*
X164473254Y-121986556D01*
X164226114Y-121884187D01*
X163963751Y-121832000D01*
X163957000Y-121832000D01*
X163957000Y-116632380D01*
X170612000Y-116632380D01*
X170612000Y-117047620D01*
X170693009Y-117454881D01*
X170851914Y-117838513D01*
X171082609Y-118183772D01*
X171376228Y-118477391D01*
X171721487Y-118708086D01*
X172105119Y-118866991D01*
X172512380Y-118948000D01*
X172927620Y-118948000D01*
X173334881Y-118866991D01*
X173718513Y-118708086D01*
X174063772Y-118477391D01*
X174357391Y-118183772D01*
X174588086Y-117838513D01*
X174746991Y-117454881D01*
X174828000Y-117047620D01*
X174828000Y-116632380D01*
X174746991Y-116225119D01*
X174588086Y-115841487D01*
X174357391Y-115496228D01*
X174063772Y-115202609D01*
X173718513Y-114971914D01*
X173334881Y-114813009D01*
X172927620Y-114732000D01*
X172512380Y-114732000D01*
X172105119Y-114813009D01*
X171721487Y-114971914D01*
X171376228Y-115202609D01*
X171082609Y-115496228D01*
X170851914Y-115841487D01*
X170693009Y-116225119D01*
X170612000Y-116632380D01*
X163957000Y-116632380D01*
X163957000Y-113345630D01*
X164977353Y-112325278D01*
X165006422Y-112301422D01*
X165101645Y-112185392D01*
X165172402Y-112053015D01*
X165215974Y-111909378D01*
X165227000Y-111797426D01*
X165227000Y-111797424D01*
X165230686Y-111760001D01*
X165227000Y-111722578D01*
X165227000Y-97827423D01*
X165230686Y-97790000D01*
X165223819Y-97720279D01*
X165215974Y-97640622D01*
X165172402Y-97496985D01*
X165101646Y-97364609D01*
X165101645Y-97364607D01*
X165066857Y-97322219D01*
X165006422Y-97248578D01*
X164977346Y-97224716D01*
X164083086Y-96330456D01*
X164068106Y-96255146D01*
X163999659Y-96089901D01*
X163900289Y-95941184D01*
X163773816Y-95814711D01*
X163625099Y-95715341D01*
X163459854Y-95646894D01*
X163284430Y-95612000D01*
X163105570Y-95612000D01*
X162930146Y-95646894D01*
X162764901Y-95715341D01*
X162687000Y-95767393D01*
X162687000Y-95108942D01*
X162729659Y-95045099D01*
X162798106Y-94879854D01*
X162833000Y-94704430D01*
X162833000Y-94525570D01*
X162798106Y-94350146D01*
X162729659Y-94184901D01*
X162630289Y-94036184D01*
X162503816Y-93909711D01*
X162355099Y-93810341D01*
X162189854Y-93741894D01*
X162014430Y-93707000D01*
X161835570Y-93707000D01*
X161660146Y-93741894D01*
X161494901Y-93810341D01*
X161346184Y-93909711D01*
X161219711Y-94036184D01*
X161120341Y-94184901D01*
X161051894Y-94350146D01*
X161017000Y-94525570D01*
X161017000Y-94704430D01*
X161051894Y-94879854D01*
X161120341Y-95045099D01*
X161163001Y-95108944D01*
X161163000Y-106999369D01*
X153751426Y-114410944D01*
X153759561Y-114226320D01*
X153719063Y-113962499D01*
X153627875Y-113711647D01*
X153571368Y-113605932D01*
X153335560Y-113544045D01*
X152579605Y-114300000D01*
X152593748Y-114314143D01*
X152414143Y-114493748D01*
X152400000Y-114479605D01*
X151644045Y-115235560D01*
X151705932Y-115471368D01*
X151947790Y-115584266D01*
X152158643Y-115635951D01*
X152041806Y-115659191D01*
X151818324Y-115751760D01*
X151617195Y-115886150D01*
X151446150Y-116057195D01*
X151311760Y-116258324D01*
X151257000Y-116390527D01*
X151257000Y-115001513D01*
X151464440Y-115055955D01*
X152220395Y-114300000D01*
X151464440Y-113544045D01*
X151257000Y-113598487D01*
X151257000Y-113364440D01*
X151644045Y-113364440D01*
X152400000Y-114120395D01*
X153155955Y-113364440D01*
X153094068Y-113128632D01*
X152852210Y-113015734D01*
X152592973Y-112952189D01*
X152326320Y-112940439D01*
X152062499Y-112980937D01*
X151811647Y-113072125D01*
X151705932Y-113128632D01*
X151644045Y-113364440D01*
X151257000Y-113364440D01*
X151257000Y-113345630D01*
X152277352Y-112325279D01*
X152306422Y-112301422D01*
X152401645Y-112185392D01*
X152472402Y-112053015D01*
X152515974Y-111909378D01*
X152527000Y-111797426D01*
X152527000Y-111797424D01*
X152530686Y-111760001D01*
X152527000Y-111722578D01*
X152527000Y-97827422D01*
X152530686Y-97789999D01*
X152523819Y-97720279D01*
X152515974Y-97640622D01*
X152472402Y-97496985D01*
X152401645Y-97364608D01*
X152306422Y-97248578D01*
X152277353Y-97224722D01*
X151383086Y-96330456D01*
X151368106Y-96255146D01*
X151299659Y-96089901D01*
X151200289Y-95941184D01*
X151073816Y-95814711D01*
X150925099Y-95715341D01*
X150759854Y-95646894D01*
X150584430Y-95612000D01*
X150405570Y-95612000D01*
X150230146Y-95646894D01*
X150064901Y-95715341D01*
X149987000Y-95767393D01*
X149987000Y-95108942D01*
X150029659Y-95045099D01*
X150098106Y-94879854D01*
X150133000Y-94704430D01*
X150133000Y-94525570D01*
X150098106Y-94350146D01*
X150029659Y-94184901D01*
X149930289Y-94036184D01*
X149803816Y-93909711D01*
X149655099Y-93810341D01*
X149489854Y-93741894D01*
X149314430Y-93707000D01*
X149135570Y-93707000D01*
X148960146Y-93741894D01*
X148794901Y-93810341D01*
X148646184Y-93909711D01*
X148519711Y-94036184D01*
X148420341Y-94184901D01*
X148351894Y-94350146D01*
X148317000Y-94525570D01*
X148317000Y-94704430D01*
X148351894Y-94879854D01*
X148420341Y-95045099D01*
X148463001Y-95108944D01*
X148463000Y-106999369D01*
X141051426Y-114410944D01*
X141059561Y-114226320D01*
X141019063Y-113962499D01*
X140927875Y-113711647D01*
X140871368Y-113605932D01*
X140635560Y-113544045D01*
X139879605Y-114300000D01*
X139893748Y-114314143D01*
X139714143Y-114493748D01*
X139700000Y-114479605D01*
X138944045Y-115235560D01*
X139005932Y-115471368D01*
X139247790Y-115584266D01*
X139458643Y-115635951D01*
X139341806Y-115659191D01*
X139118324Y-115751760D01*
X138917195Y-115886150D01*
X138746150Y-116057195D01*
X138611760Y-116258324D01*
X138557000Y-116390527D01*
X138557000Y-115001513D01*
X138764440Y-115055955D01*
X139520395Y-114300000D01*
X138764440Y-113544045D01*
X138557000Y-113598487D01*
X138557000Y-113364440D01*
X138944045Y-113364440D01*
X139700000Y-114120395D01*
X140455955Y-113364440D01*
X140394068Y-113128632D01*
X140152210Y-113015734D01*
X139892973Y-112952189D01*
X139626320Y-112940439D01*
X139362499Y-112980937D01*
X139111647Y-113072125D01*
X139005932Y-113128632D01*
X138944045Y-113364440D01*
X138557000Y-113364440D01*
X138557000Y-113345630D01*
X139577352Y-112325279D01*
X139606422Y-112301422D01*
X139701645Y-112185392D01*
X139772402Y-112053015D01*
X139815974Y-111909378D01*
X139827000Y-111797426D01*
X139827000Y-111797424D01*
X139830686Y-111760001D01*
X139827000Y-111722578D01*
X139827000Y-97827422D01*
X139830686Y-97789999D01*
X139823819Y-97720279D01*
X139815974Y-97640622D01*
X139772402Y-97496985D01*
X139701645Y-97364608D01*
X139606422Y-97248578D01*
X139577353Y-97224722D01*
X138683086Y-96330456D01*
X138668106Y-96255146D01*
X138599659Y-96089901D01*
X138500289Y-95941184D01*
X138373816Y-95814711D01*
X138225099Y-95715341D01*
X138059854Y-95646894D01*
X137884430Y-95612000D01*
X137705570Y-95612000D01*
X137530146Y-95646894D01*
X137364901Y-95715341D01*
X137287000Y-95767393D01*
X137287000Y-95108942D01*
X137329659Y-95045099D01*
X137398106Y-94879854D01*
X137433000Y-94704430D01*
X137433000Y-94525570D01*
X137398106Y-94350146D01*
X137329659Y-94184901D01*
X137230289Y-94036184D01*
X137103816Y-93909711D01*
X136955099Y-93810341D01*
X136789854Y-93741894D01*
X136614430Y-93707000D01*
X136435570Y-93707000D01*
X136260146Y-93741894D01*
X136094901Y-93810341D01*
X135946184Y-93909711D01*
X135819711Y-94036184D01*
X135720341Y-94184901D01*
X135651894Y-94350146D01*
X135617000Y-94525570D01*
X135617000Y-94704430D01*
X135651894Y-94879854D01*
X135720341Y-95045099D01*
X135763001Y-95108944D01*
X135763000Y-106999369D01*
X128351426Y-114410944D01*
X128359561Y-114226320D01*
X128319063Y-113962499D01*
X128227875Y-113711647D01*
X128171368Y-113605932D01*
X127935560Y-113544045D01*
X127179605Y-114300000D01*
X127193748Y-114314143D01*
X127014143Y-114493748D01*
X127000000Y-114479605D01*
X126244045Y-115235560D01*
X126305932Y-115471368D01*
X126547790Y-115584266D01*
X126758643Y-115635951D01*
X126641806Y-115659191D01*
X126418324Y-115751760D01*
X126217195Y-115886150D01*
X126046150Y-116057195D01*
X125911760Y-116258324D01*
X125857000Y-116390527D01*
X125857000Y-115001513D01*
X126064440Y-115055955D01*
X126820395Y-114300000D01*
X126064440Y-113544045D01*
X125857000Y-113598487D01*
X125857000Y-113364440D01*
X126244045Y-113364440D01*
X127000000Y-114120395D01*
X127755955Y-113364440D01*
X127694068Y-113128632D01*
X127452210Y-113015734D01*
X127192973Y-112952189D01*
X126926320Y-112940439D01*
X126662499Y-112980937D01*
X126411647Y-113072125D01*
X126305932Y-113128632D01*
X126244045Y-113364440D01*
X125857000Y-113364440D01*
X125857000Y-113345630D01*
X126877352Y-112325279D01*
X126906422Y-112301422D01*
X127001645Y-112185392D01*
X127072402Y-112053015D01*
X127115974Y-111909378D01*
X127127000Y-111797426D01*
X127127000Y-111797424D01*
X127130686Y-111760001D01*
X127127000Y-111722578D01*
X127127000Y-97827422D01*
X127130686Y-97789999D01*
X127123819Y-97720279D01*
X127115974Y-97640622D01*
X127072402Y-97496985D01*
X127001645Y-97364608D01*
X126906422Y-97248578D01*
X126877353Y-97224722D01*
X125983086Y-96330456D01*
X125968106Y-96255146D01*
X125899659Y-96089901D01*
X125800289Y-95941184D01*
X125673816Y-95814711D01*
X125525099Y-95715341D01*
X125359854Y-95646894D01*
X125184430Y-95612000D01*
X125005570Y-95612000D01*
X124830146Y-95646894D01*
X124664901Y-95715341D01*
X124587000Y-95767393D01*
X124587000Y-95108942D01*
X124629659Y-95045099D01*
X124698106Y-94879854D01*
X124733000Y-94704430D01*
X124733000Y-94525570D01*
X124698106Y-94350146D01*
X124629659Y-94184901D01*
X124530289Y-94036184D01*
X124403816Y-93909711D01*
X124255099Y-93810341D01*
X124089854Y-93741894D01*
X123914430Y-93707000D01*
X123735570Y-93707000D01*
X123560146Y-93741894D01*
X123394901Y-93810341D01*
X123246184Y-93909711D01*
X123119711Y-94036184D01*
X123020341Y-94184901D01*
X122951894Y-94350146D01*
X122917000Y-94525570D01*
X122917000Y-94704430D01*
X122951894Y-94879854D01*
X123020341Y-95045099D01*
X123063001Y-95108944D01*
X123063000Y-106999369D01*
X115651426Y-114410944D01*
X115659561Y-114226320D01*
X115619063Y-113962499D01*
X115527875Y-113711647D01*
X115471368Y-113605932D01*
X115235560Y-113544045D01*
X114479605Y-114300000D01*
X114493748Y-114314143D01*
X114314143Y-114493748D01*
X114300000Y-114479605D01*
X113544045Y-115235560D01*
X113605932Y-115471368D01*
X113847790Y-115584266D01*
X114058643Y-115635951D01*
X113941806Y-115659191D01*
X113718324Y-115751760D01*
X113517195Y-115886150D01*
X113346150Y-116057195D01*
X113211760Y-116258324D01*
X113157000Y-116390527D01*
X113157000Y-115001513D01*
X113364440Y-115055955D01*
X114120395Y-114300000D01*
X113364440Y-113544045D01*
X113157000Y-113598487D01*
X113157000Y-113364440D01*
X113544045Y-113364440D01*
X114300000Y-114120395D01*
X115055955Y-113364440D01*
X114994068Y-113128632D01*
X114752210Y-113015734D01*
X114492973Y-112952189D01*
X114226320Y-112940439D01*
X113962499Y-112980937D01*
X113711647Y-113072125D01*
X113605932Y-113128632D01*
X113544045Y-113364440D01*
X113157000Y-113364440D01*
X113157000Y-113345630D01*
X114177352Y-112325279D01*
X114206422Y-112301422D01*
X114301645Y-112185392D01*
X114372402Y-112053015D01*
X114415974Y-111909378D01*
X114427000Y-111797426D01*
X114427000Y-111797424D01*
X114430686Y-111760001D01*
X114427000Y-111722578D01*
X114427000Y-97827422D01*
X114430686Y-97789999D01*
X114423819Y-97720279D01*
X114415974Y-97640622D01*
X114372402Y-97496985D01*
X114301645Y-97364608D01*
X114206422Y-97248578D01*
X114177353Y-97224722D01*
X113283086Y-96330456D01*
X113268106Y-96255146D01*
X113199659Y-96089901D01*
X113100289Y-95941184D01*
X112973816Y-95814711D01*
X112825099Y-95715341D01*
X112659854Y-95646894D01*
X112484430Y-95612000D01*
X112305570Y-95612000D01*
X112130146Y-95646894D01*
X111964901Y-95715341D01*
X111887000Y-95767393D01*
X111887000Y-95108942D01*
X111929659Y-95045099D01*
X111998106Y-94879854D01*
X112033000Y-94704430D01*
X112033000Y-94525570D01*
X111998106Y-94350146D01*
X111929659Y-94184901D01*
X111830289Y-94036184D01*
X111703816Y-93909711D01*
X111555099Y-93810341D01*
X111389854Y-93741894D01*
X111214430Y-93707000D01*
X111035570Y-93707000D01*
X110860146Y-93741894D01*
X110694901Y-93810341D01*
X110546184Y-93909711D01*
X110419711Y-94036184D01*
X110320341Y-94184901D01*
X110251894Y-94350146D01*
X110217000Y-94525570D01*
X110217000Y-94704430D01*
X110251894Y-94879854D01*
X110320341Y-95045099D01*
X110363001Y-95108944D01*
X110363000Y-106999369D01*
X102951426Y-114410944D01*
X102959561Y-114226320D01*
X102919063Y-113962499D01*
X102827875Y-113711647D01*
X102771368Y-113605932D01*
X102535560Y-113544045D01*
X101779605Y-114300000D01*
X101793748Y-114314143D01*
X101614143Y-114493748D01*
X101600000Y-114479605D01*
X100844045Y-115235560D01*
X100905932Y-115471368D01*
X101147790Y-115584266D01*
X101358643Y-115635951D01*
X101241806Y-115659191D01*
X101018324Y-115751760D01*
X100817195Y-115886150D01*
X100646150Y-116057195D01*
X100511760Y-116258324D01*
X100457000Y-116390527D01*
X100457000Y-115001513D01*
X100664440Y-115055955D01*
X101420395Y-114300000D01*
X100664440Y-113544045D01*
X100457000Y-113598487D01*
X100457000Y-113364440D01*
X100844045Y-113364440D01*
X101600000Y-114120395D01*
X102355955Y-113364440D01*
X102294068Y-113128632D01*
X102052210Y-113015734D01*
X101792973Y-112952189D01*
X101526320Y-112940439D01*
X101262499Y-112980937D01*
X101011647Y-113072125D01*
X100905932Y-113128632D01*
X100844045Y-113364440D01*
X100457000Y-113364440D01*
X100457000Y-113345630D01*
X101477352Y-112325279D01*
X101506422Y-112301422D01*
X101601645Y-112185392D01*
X101672402Y-112053015D01*
X101715974Y-111909378D01*
X101727000Y-111797426D01*
X101727000Y-111797424D01*
X101730686Y-111760001D01*
X101727000Y-111722578D01*
X101727000Y-97827422D01*
X101730686Y-97789999D01*
X101723819Y-97720279D01*
X101715974Y-97640622D01*
X101672402Y-97496985D01*
X101601645Y-97364608D01*
X101506422Y-97248578D01*
X101477353Y-97224722D01*
X100583086Y-96330456D01*
X100568106Y-96255146D01*
X100499659Y-96089901D01*
X100400289Y-95941184D01*
X100273816Y-95814711D01*
X100125099Y-95715341D01*
X99959854Y-95646894D01*
X99784430Y-95612000D01*
X99605570Y-95612000D01*
X99430146Y-95646894D01*
X99264901Y-95715341D01*
X99187000Y-95767393D01*
X99187000Y-95108942D01*
X99229659Y-95045099D01*
X99298106Y-94879854D01*
X99333000Y-94704430D01*
X99333000Y-94525570D01*
X99298106Y-94350146D01*
X99229659Y-94184901D01*
X99130289Y-94036184D01*
X99003816Y-93909711D01*
X98855099Y-93810341D01*
X98689854Y-93741894D01*
X98514430Y-93707000D01*
X98335570Y-93707000D01*
X98160146Y-93741894D01*
X97994901Y-93810341D01*
X97846184Y-93909711D01*
X97719711Y-94036184D01*
X97620341Y-94184901D01*
X97551894Y-94350146D01*
X97517000Y-94525570D01*
X97517000Y-94704430D01*
X97551894Y-94879854D01*
X97620341Y-95045099D01*
X97663000Y-95108942D01*
X97663001Y-106999368D01*
X90251426Y-114410944D01*
X90259561Y-114226320D01*
X90219063Y-113962499D01*
X90127875Y-113711647D01*
X90071368Y-113605932D01*
X89835560Y-113544045D01*
X89079605Y-114300000D01*
X89093748Y-114314143D01*
X88914143Y-114493748D01*
X88900000Y-114479605D01*
X88144045Y-115235560D01*
X88205932Y-115471368D01*
X88447790Y-115584266D01*
X88658643Y-115635951D01*
X88541806Y-115659191D01*
X88318324Y-115751760D01*
X88117195Y-115886150D01*
X87946150Y-116057195D01*
X87811760Y-116258324D01*
X87757000Y-116390527D01*
X87757000Y-115001513D01*
X87964440Y-115055955D01*
X88720395Y-114300000D01*
X87964440Y-113544045D01*
X87757000Y-113598487D01*
X87757000Y-113364440D01*
X88144045Y-113364440D01*
X88900000Y-114120395D01*
X89655955Y-113364440D01*
X89594068Y-113128632D01*
X89352210Y-113015734D01*
X89092973Y-112952189D01*
X88826320Y-112940439D01*
X88562499Y-112980937D01*
X88311647Y-113072125D01*
X88205932Y-113128632D01*
X88144045Y-113364440D01*
X87757000Y-113364440D01*
X87757000Y-113345630D01*
X88777352Y-112325279D01*
X88806422Y-112301422D01*
X88901645Y-112185392D01*
X88972402Y-112053015D01*
X89015974Y-111909378D01*
X89027000Y-111797426D01*
X89027000Y-111797424D01*
X89030686Y-111760001D01*
X89027000Y-111722578D01*
X89027000Y-97827422D01*
X89030686Y-97789999D01*
X89023819Y-97720279D01*
X89015974Y-97640622D01*
X88972402Y-97496985D01*
X88901645Y-97364608D01*
X88806422Y-97248578D01*
X88777353Y-97224722D01*
X87883086Y-96330456D01*
X87868106Y-96255146D01*
X87799659Y-96089901D01*
X87700289Y-95941184D01*
X87573816Y-95814711D01*
X87425099Y-95715341D01*
X87259854Y-95646894D01*
X87084430Y-95612000D01*
X86905570Y-95612000D01*
X86730146Y-95646894D01*
X86564901Y-95715341D01*
X86487000Y-95767393D01*
X86487000Y-95108942D01*
X86529659Y-95045099D01*
X86598106Y-94879854D01*
X86633000Y-94704430D01*
X86633000Y-94525570D01*
X86598106Y-94350146D01*
X86529659Y-94184901D01*
X86430289Y-94036184D01*
X86303816Y-93909711D01*
X86155099Y-93810341D01*
X85989854Y-93741894D01*
X85814430Y-93707000D01*
X85635570Y-93707000D01*
X85460146Y-93741894D01*
X85294901Y-93810341D01*
X85146184Y-93909711D01*
X85019711Y-94036184D01*
X84920341Y-94184901D01*
X84851894Y-94350146D01*
X84817000Y-94525570D01*
X84817000Y-94704430D01*
X84851894Y-94879854D01*
X84920341Y-95045099D01*
X84963001Y-95108944D01*
X84963000Y-106999369D01*
X77551426Y-114410944D01*
X77559561Y-114226320D01*
X77519063Y-113962499D01*
X77427875Y-113711647D01*
X77371368Y-113605932D01*
X77135560Y-113544045D01*
X76379605Y-114300000D01*
X76393748Y-114314143D01*
X76214143Y-114493748D01*
X76200000Y-114479605D01*
X75444045Y-115235560D01*
X75505932Y-115471368D01*
X75747790Y-115584266D01*
X75958643Y-115635951D01*
X75841806Y-115659191D01*
X75618324Y-115751760D01*
X75417195Y-115886150D01*
X75246150Y-116057195D01*
X75111760Y-116258324D01*
X75057000Y-116390527D01*
X75057000Y-115001513D01*
X75264440Y-115055955D01*
X76020395Y-114300000D01*
X75264440Y-113544045D01*
X75057000Y-113598487D01*
X75057000Y-113364440D01*
X75444045Y-113364440D01*
X76200000Y-114120395D01*
X76955955Y-113364440D01*
X76894068Y-113128632D01*
X76652210Y-113015734D01*
X76392973Y-112952189D01*
X76126320Y-112940439D01*
X75862499Y-112980937D01*
X75611647Y-113072125D01*
X75505932Y-113128632D01*
X75444045Y-113364440D01*
X75057000Y-113364440D01*
X75057000Y-113345630D01*
X76077352Y-112325279D01*
X76106422Y-112301422D01*
X76201645Y-112185392D01*
X76272402Y-112053015D01*
X76315974Y-111909378D01*
X76327000Y-111797426D01*
X76327000Y-111797424D01*
X76330686Y-111760001D01*
X76327000Y-111722578D01*
X76327000Y-97827422D01*
X76330686Y-97789999D01*
X76323819Y-97720279D01*
X76315974Y-97640622D01*
X76272402Y-97496985D01*
X76201645Y-97364608D01*
X76106422Y-97248578D01*
X76077353Y-97224722D01*
X75183086Y-96330456D01*
X75168106Y-96255146D01*
X75099659Y-96089901D01*
X75000289Y-95941184D01*
X74873816Y-95814711D01*
X74725099Y-95715341D01*
X74559854Y-95646894D01*
X74384430Y-95612000D01*
X74205570Y-95612000D01*
X74030146Y-95646894D01*
X73864901Y-95715341D01*
X73787000Y-95767393D01*
X73787000Y-95108942D01*
X73829659Y-95045099D01*
X73898106Y-94879854D01*
X73933000Y-94704430D01*
X73933000Y-94525570D01*
X73898106Y-94350146D01*
X73829659Y-94184901D01*
X73730289Y-94036184D01*
X73603816Y-93909711D01*
X73455099Y-93810341D01*
X73289854Y-93741894D01*
X73114430Y-93707000D01*
X72935570Y-93707000D01*
X72760146Y-93741894D01*
X72594901Y-93810341D01*
X72446184Y-93909711D01*
X72319711Y-94036184D01*
X72220341Y-94184901D01*
X72151894Y-94350146D01*
X72117000Y-94525570D01*
X72117000Y-94704430D01*
X72151894Y-94879854D01*
X72220341Y-95045099D01*
X72263001Y-95108944D01*
X72263000Y-106999369D01*
X64851426Y-114410944D01*
X64859561Y-114226320D01*
X64819063Y-113962499D01*
X64727875Y-113711647D01*
X64671368Y-113605932D01*
X64435560Y-113544045D01*
X63679605Y-114300000D01*
X63693748Y-114314143D01*
X63514143Y-114493748D01*
X63500000Y-114479605D01*
X62744045Y-115235560D01*
X62805932Y-115471368D01*
X63047790Y-115584266D01*
X63258643Y-115635951D01*
X63141806Y-115659191D01*
X62918324Y-115751760D01*
X62717195Y-115886150D01*
X62546150Y-116057195D01*
X62411760Y-116258324D01*
X62319191Y-116481806D01*
X62272000Y-116719053D01*
X57988000Y-116719053D01*
X57988000Y-116632380D01*
X57906991Y-116225119D01*
X57748086Y-115841487D01*
X57517391Y-115496228D01*
X57223772Y-115202609D01*
X56878513Y-114971914D01*
X56494881Y-114813009D01*
X56087620Y-114732000D01*
X55672380Y-114732000D01*
X55265119Y-114813009D01*
X54881487Y-114971914D01*
X54536228Y-115202609D01*
X54242609Y-115496228D01*
X54011914Y-115841487D01*
X53853009Y-116225119D01*
X53772000Y-116632380D01*
X51383000Y-116632380D01*
X51383000Y-114373680D01*
X62140439Y-114373680D01*
X62180937Y-114637501D01*
X62272125Y-114888353D01*
X62328632Y-114994068D01*
X62564440Y-115055955D01*
X63320395Y-114300000D01*
X62564440Y-113544045D01*
X62328632Y-113605932D01*
X62215734Y-113847790D01*
X62152189Y-114107027D01*
X62140439Y-114373680D01*
X51383000Y-114373680D01*
X51383000Y-113364440D01*
X62744045Y-113364440D01*
X63500000Y-114120395D01*
X64255955Y-113364440D01*
X64194068Y-113128632D01*
X63952210Y-113015734D01*
X63692973Y-112952189D01*
X63426320Y-112940439D01*
X63162499Y-112980937D01*
X62911647Y-113072125D01*
X62805932Y-113128632D01*
X62744045Y-113364440D01*
X51383000Y-113364440D01*
X51383000Y-76670000D01*
X109179543Y-76670000D01*
X109179543Y-78270000D01*
X109189351Y-78369585D01*
X109218399Y-78465343D01*
X109265571Y-78553595D01*
X109329052Y-78630948D01*
X109406405Y-78694429D01*
X109494657Y-78741601D01*
X109590415Y-78770649D01*
X109690000Y-78780457D01*
X109943842Y-78780457D01*
X109870430Y-78810865D01*
X109656199Y-78954010D01*
X109474010Y-79136199D01*
X109330865Y-79350430D01*
X109232266Y-79588470D01*
X109182000Y-79841173D01*
X109182000Y-80098827D01*
X109232266Y-80351530D01*
X109330865Y-80589570D01*
X109474010Y-80803801D01*
X109656199Y-80985990D01*
X109870430Y-81129135D01*
X110108470Y-81227734D01*
X110361173Y-81278000D01*
X110618827Y-81278000D01*
X110871530Y-81227734D01*
X111109570Y-81129135D01*
X111323801Y-80985990D01*
X111505990Y-80803801D01*
X111649135Y-80589570D01*
X111747734Y-80351530D01*
X111798000Y-80098827D01*
X111798000Y-79841173D01*
X111747734Y-79588470D01*
X111649135Y-79350430D01*
X111505990Y-79136199D01*
X111323801Y-78954010D01*
X111109570Y-78810865D01*
X111036158Y-78780457D01*
X111290000Y-78780457D01*
X111389585Y-78770649D01*
X111485343Y-78741601D01*
X111573595Y-78694429D01*
X111650948Y-78630948D01*
X111714429Y-78553595D01*
X111761601Y-78465343D01*
X111790649Y-78369585D01*
X111800457Y-78270000D01*
X111800457Y-76670000D01*
X111790649Y-76570415D01*
X111761601Y-76474657D01*
X111714429Y-76386405D01*
X111650948Y-76309052D01*
X111573595Y-76245571D01*
X111485343Y-76198399D01*
X111389585Y-76169351D01*
X111290000Y-76159543D01*
X109690000Y-76159543D01*
X109590415Y-76169351D01*
X109494657Y-76198399D01*
X109406405Y-76245571D01*
X109329052Y-76309052D01*
X109265571Y-76386405D01*
X109218399Y-76474657D01*
X109189351Y-76570415D01*
X109179543Y-76670000D01*
X51383000Y-76670000D01*
X51383000Y-73452380D01*
X53772000Y-73452380D01*
X53772000Y-73867620D01*
X53853009Y-74274881D01*
X54011914Y-74658513D01*
X54242609Y-75003772D01*
X54536228Y-75297391D01*
X54881487Y-75528086D01*
X55265119Y-75686991D01*
X55672380Y-75768000D01*
X56087620Y-75768000D01*
X56494881Y-75686991D01*
X56878513Y-75528086D01*
X57223772Y-75297391D01*
X57517391Y-75003772D01*
X57748086Y-74658513D01*
X57906991Y-74274881D01*
X57988000Y-73867620D01*
X57988000Y-73452380D01*
X57906991Y-73045119D01*
X57748086Y-72661487D01*
X57517391Y-72316228D01*
X57223772Y-72022609D01*
X56878513Y-71791914D01*
X56494881Y-71633009D01*
X56087620Y-71552000D01*
X55672380Y-71552000D01*
X55265119Y-71633009D01*
X54881487Y-71791914D01*
X54536228Y-72022609D01*
X54242609Y-72316228D01*
X54011914Y-72661487D01*
X53853009Y-73045119D01*
X53772000Y-73452380D01*
X51383000Y-73452380D01*
X51383000Y-68515000D01*
X69239543Y-68515000D01*
X69239543Y-70265000D01*
X69266164Y-70535289D01*
X69345005Y-70795191D01*
X69473035Y-71034719D01*
X69645334Y-71244666D01*
X69855281Y-71416965D01*
X70094809Y-71544995D01*
X70354711Y-71623836D01*
X70625000Y-71650457D01*
X72375000Y-71650457D01*
X72645289Y-71623836D01*
X72905191Y-71544995D01*
X73144719Y-71416965D01*
X73354666Y-71244666D01*
X73526965Y-71034719D01*
X73654995Y-70795191D01*
X73702072Y-70640000D01*
X73939543Y-70640000D01*
X73939543Y-74140000D01*
X73949351Y-74239585D01*
X73978399Y-74335343D01*
X74025571Y-74423595D01*
X74089052Y-74500948D01*
X74166405Y-74564429D01*
X74254657Y-74611601D01*
X74350415Y-74640649D01*
X74450000Y-74650457D01*
X77950000Y-74650457D01*
X78049585Y-74640649D01*
X78145343Y-74611601D01*
X78233595Y-74564429D01*
X78310948Y-74500948D01*
X78374429Y-74423595D01*
X78421601Y-74335343D01*
X78450649Y-74239585D01*
X78460457Y-74140000D01*
X78460457Y-70640000D01*
X78450649Y-70540415D01*
X78421601Y-70444657D01*
X78374429Y-70356405D01*
X78310948Y-70279052D01*
X78233595Y-70215571D01*
X78145343Y-70168399D01*
X78049585Y-70139351D01*
X77950000Y-70129543D01*
X74450000Y-70129543D01*
X74350415Y-70139351D01*
X74254657Y-70168399D01*
X74166405Y-70215571D01*
X74089052Y-70279052D01*
X74025571Y-70356405D01*
X73978399Y-70444657D01*
X73949351Y-70540415D01*
X73939543Y-70640000D01*
X73702072Y-70640000D01*
X73733836Y-70535289D01*
X73760457Y-70265000D01*
X73760457Y-68515000D01*
X81939543Y-68515000D01*
X81939543Y-70265000D01*
X81966164Y-70535289D01*
X82045005Y-70795191D01*
X82173035Y-71034719D01*
X82345334Y-71244666D01*
X82555281Y-71416965D01*
X82794809Y-71544995D01*
X83054711Y-71623836D01*
X83325000Y-71650457D01*
X85075000Y-71650457D01*
X85345289Y-71623836D01*
X85605191Y-71544995D01*
X85844719Y-71416965D01*
X86054666Y-71244666D01*
X86226965Y-71034719D01*
X86354995Y-70795191D01*
X86402072Y-70640000D01*
X86639543Y-70640000D01*
X86639543Y-74140000D01*
X86649351Y-74239585D01*
X86678399Y-74335343D01*
X86725571Y-74423595D01*
X86789052Y-74500948D01*
X86866405Y-74564429D01*
X86954657Y-74611601D01*
X87050415Y-74640649D01*
X87150000Y-74650457D01*
X90650000Y-74650457D01*
X90749585Y-74640649D01*
X90845343Y-74611601D01*
X90933595Y-74564429D01*
X91010948Y-74500948D01*
X91074429Y-74423595D01*
X91121601Y-74335343D01*
X91150649Y-74239585D01*
X91160457Y-74140000D01*
X91160457Y-73452380D01*
X170612000Y-73452380D01*
X170612000Y-73867620D01*
X170693009Y-74274881D01*
X170851914Y-74658513D01*
X171082609Y-75003772D01*
X171376228Y-75297391D01*
X171721487Y-75528086D01*
X172105119Y-75686991D01*
X172512380Y-75768000D01*
X172927620Y-75768000D01*
X173334881Y-75686991D01*
X173718513Y-75528086D01*
X174063772Y-75297391D01*
X174357391Y-75003772D01*
X174588086Y-74658513D01*
X174746991Y-74274881D01*
X174828000Y-73867620D01*
X174828000Y-73452380D01*
X174746991Y-73045119D01*
X174588086Y-72661487D01*
X174357391Y-72316228D01*
X174063772Y-72022609D01*
X173718513Y-71791914D01*
X173334881Y-71633009D01*
X172927620Y-71552000D01*
X172512380Y-71552000D01*
X172105119Y-71633009D01*
X171721487Y-71791914D01*
X171376228Y-72022609D01*
X171082609Y-72316228D01*
X170851914Y-72661487D01*
X170693009Y-73045119D01*
X170612000Y-73452380D01*
X91160457Y-73452380D01*
X91160457Y-70640000D01*
X91150649Y-70540415D01*
X91121601Y-70444657D01*
X91074429Y-70356405D01*
X91044553Y-70320000D01*
X109179543Y-70320000D01*
X109179543Y-71920000D01*
X109189351Y-72019585D01*
X109218399Y-72115343D01*
X109265571Y-72203595D01*
X109329052Y-72280948D01*
X109406405Y-72344429D01*
X109494657Y-72391601D01*
X109590415Y-72420649D01*
X109690000Y-72430457D01*
X111290000Y-72430457D01*
X111389585Y-72420649D01*
X111485343Y-72391601D01*
X111573595Y-72344429D01*
X111650948Y-72280948D01*
X111714429Y-72203595D01*
X111761601Y-72115343D01*
X111790649Y-72019585D01*
X111800457Y-71920000D01*
X111800457Y-71880000D01*
X140801928Y-71880000D01*
X140814188Y-72004482D01*
X140850498Y-72124180D01*
X140909463Y-72234494D01*
X140988815Y-72331185D01*
X141085506Y-72410537D01*
X141195820Y-72469502D01*
X141315518Y-72505812D01*
X141440000Y-72518072D01*
X141954250Y-72515000D01*
X142113000Y-72356250D01*
X142113000Y-71207000D01*
X142367000Y-71207000D01*
X142367000Y-72356250D01*
X142525750Y-72515000D01*
X143040000Y-72518072D01*
X143164482Y-72505812D01*
X143284180Y-72469502D01*
X143394494Y-72410537D01*
X143491185Y-72331185D01*
X143570537Y-72234494D01*
X143629502Y-72124180D01*
X143665812Y-72004482D01*
X143678072Y-71880000D01*
X143675000Y-71365750D01*
X143516250Y-71207000D01*
X142367000Y-71207000D01*
X142113000Y-71207000D01*
X140963750Y-71207000D01*
X140805000Y-71365750D01*
X140801928Y-71880000D01*
X111800457Y-71880000D01*
X111800457Y-70320000D01*
X111796518Y-70280000D01*
X140801928Y-70280000D01*
X140805000Y-70794250D01*
X140963750Y-70953000D01*
X142113000Y-70953000D01*
X142113000Y-70933000D01*
X142367000Y-70933000D01*
X142367000Y-70953000D01*
X143516250Y-70953000D01*
X143675000Y-70794250D01*
X143678072Y-70280000D01*
X143665812Y-70155518D01*
X143629502Y-70035820D01*
X143570537Y-69925506D01*
X143491185Y-69828815D01*
X143394494Y-69749463D01*
X143284180Y-69690498D01*
X143164482Y-69654188D01*
X143040000Y-69641928D01*
X143004735Y-69642139D01*
X143073801Y-69595990D01*
X143255990Y-69413801D01*
X143399135Y-69199570D01*
X143497734Y-68961530D01*
X143548000Y-68708827D01*
X143548000Y-68451173D01*
X143497734Y-68198470D01*
X143399135Y-67960430D01*
X143256679Y-67747229D01*
X156742000Y-67747229D01*
X156742000Y-68142771D01*
X156819166Y-68530712D01*
X156970533Y-68896145D01*
X157190284Y-69225025D01*
X157469975Y-69504716D01*
X157798855Y-69724467D01*
X158164288Y-69875834D01*
X158552229Y-69953000D01*
X158947771Y-69953000D01*
X159335712Y-69875834D01*
X159701145Y-69724467D01*
X160030025Y-69504716D01*
X160098088Y-69436653D01*
X163787952Y-69436653D01*
X163943962Y-69752214D01*
X164318745Y-69943020D01*
X164723551Y-70057044D01*
X165142824Y-70089902D01*
X165560451Y-70040334D01*
X165960383Y-69910243D01*
X166256038Y-69752214D01*
X166412048Y-69436653D01*
X165100000Y-68124605D01*
X163787952Y-69436653D01*
X160098088Y-69436653D01*
X160309716Y-69225025D01*
X160529467Y-68896145D01*
X160680834Y-68530712D01*
X160758000Y-68142771D01*
X160758000Y-67987824D01*
X162955098Y-67987824D01*
X163004666Y-68405451D01*
X163134757Y-68805383D01*
X163292786Y-69101038D01*
X163608347Y-69257048D01*
X164920395Y-67945000D01*
X165279605Y-67945000D01*
X166591653Y-69257048D01*
X166907214Y-69101038D01*
X167098020Y-68726255D01*
X167212044Y-68321449D01*
X167244902Y-67902176D01*
X167195334Y-67484549D01*
X167065243Y-67084617D01*
X166907214Y-66788962D01*
X166591653Y-66632952D01*
X165279605Y-67945000D01*
X164920395Y-67945000D01*
X163608347Y-66632952D01*
X163292786Y-66788962D01*
X163101980Y-67163745D01*
X162987956Y-67568551D01*
X162955098Y-67987824D01*
X160758000Y-67987824D01*
X160758000Y-67747229D01*
X160680834Y-67359288D01*
X160529467Y-66993855D01*
X160309716Y-66664975D01*
X160098088Y-66453347D01*
X163787952Y-66453347D01*
X165100000Y-67765395D01*
X166412048Y-66453347D01*
X166256038Y-66137786D01*
X165881255Y-65946980D01*
X165476449Y-65832956D01*
X165057176Y-65800098D01*
X164639549Y-65849666D01*
X164239617Y-65979757D01*
X163943962Y-66137786D01*
X163787952Y-66453347D01*
X160098088Y-66453347D01*
X160030025Y-66385284D01*
X159701145Y-66165533D01*
X159335712Y-66014166D01*
X158947771Y-65937000D01*
X158552229Y-65937000D01*
X158164288Y-66014166D01*
X157798855Y-66165533D01*
X157469975Y-66385284D01*
X157190284Y-66664975D01*
X156970533Y-66993855D01*
X156819166Y-67359288D01*
X156742000Y-67747229D01*
X143256679Y-67747229D01*
X143255990Y-67746199D01*
X143073801Y-67564010D01*
X142859570Y-67420865D01*
X142621530Y-67322266D01*
X142368827Y-67272000D01*
X142111173Y-67272000D01*
X141858470Y-67322266D01*
X141620430Y-67420865D01*
X141406199Y-67564010D01*
X141224010Y-67746199D01*
X141080865Y-67960430D01*
X140982266Y-68198470D01*
X140932000Y-68451173D01*
X140932000Y-68708827D01*
X140982266Y-68961530D01*
X141080865Y-69199570D01*
X141224010Y-69413801D01*
X141406199Y-69595990D01*
X141475265Y-69642139D01*
X141440000Y-69641928D01*
X141315518Y-69654188D01*
X141195820Y-69690498D01*
X141085506Y-69749463D01*
X140988815Y-69828815D01*
X140909463Y-69925506D01*
X140850498Y-70035820D01*
X140814188Y-70155518D01*
X140801928Y-70280000D01*
X111796518Y-70280000D01*
X111790649Y-70220415D01*
X111761601Y-70124657D01*
X111714429Y-70036405D01*
X111650948Y-69959052D01*
X111573595Y-69895571D01*
X111485343Y-69848399D01*
X111389585Y-69819351D01*
X111290000Y-69809543D01*
X111036158Y-69809543D01*
X111109570Y-69779135D01*
X111323801Y-69635990D01*
X111505990Y-69453801D01*
X111649135Y-69239570D01*
X111747734Y-69001530D01*
X111798000Y-68748827D01*
X111798000Y-68491173D01*
X111747734Y-68238470D01*
X111649135Y-68000430D01*
X111505990Y-67786199D01*
X111323801Y-67604010D01*
X111109570Y-67460865D01*
X110871530Y-67362266D01*
X110618827Y-67312000D01*
X110361173Y-67312000D01*
X110108470Y-67362266D01*
X109870430Y-67460865D01*
X109656199Y-67604010D01*
X109474010Y-67786199D01*
X109330865Y-68000430D01*
X109232266Y-68238470D01*
X109182000Y-68491173D01*
X109182000Y-68748827D01*
X109232266Y-69001530D01*
X109330865Y-69239570D01*
X109474010Y-69453801D01*
X109656199Y-69635990D01*
X109870430Y-69779135D01*
X109943842Y-69809543D01*
X109690000Y-69809543D01*
X109590415Y-69819351D01*
X109494657Y-69848399D01*
X109406405Y-69895571D01*
X109329052Y-69959052D01*
X109265571Y-70036405D01*
X109218399Y-70124657D01*
X109189351Y-70220415D01*
X109179543Y-70320000D01*
X91044553Y-70320000D01*
X91010948Y-70279052D01*
X90933595Y-70215571D01*
X90845343Y-70168399D01*
X90749585Y-70139351D01*
X90650000Y-70129543D01*
X87150000Y-70129543D01*
X87050415Y-70139351D01*
X86954657Y-70168399D01*
X86866405Y-70215571D01*
X86789052Y-70279052D01*
X86725571Y-70356405D01*
X86678399Y-70444657D01*
X86649351Y-70540415D01*
X86639543Y-70640000D01*
X86402072Y-70640000D01*
X86433836Y-70535289D01*
X86460457Y-70265000D01*
X86460457Y-68515000D01*
X86433836Y-68244711D01*
X86354995Y-67984809D01*
X86226965Y-67745281D01*
X86054666Y-67535334D01*
X85844719Y-67363035D01*
X85605191Y-67235005D01*
X85345289Y-67156164D01*
X85075000Y-67129543D01*
X83325000Y-67129543D01*
X83054711Y-67156164D01*
X82794809Y-67235005D01*
X82555281Y-67363035D01*
X82345334Y-67535334D01*
X82173035Y-67745281D01*
X82045005Y-67984809D01*
X81966164Y-68244711D01*
X81939543Y-68515000D01*
X73760457Y-68515000D01*
X73733836Y-68244711D01*
X73654995Y-67984809D01*
X73526965Y-67745281D01*
X73354666Y-67535334D01*
X73144719Y-67363035D01*
X72905191Y-67235005D01*
X72645289Y-67156164D01*
X72375000Y-67129543D01*
X70625000Y-67129543D01*
X70354711Y-67156164D01*
X70094809Y-67235005D01*
X69855281Y-67363035D01*
X69645334Y-67535334D01*
X69473035Y-67745281D01*
X69345005Y-67984809D01*
X69266164Y-68244711D01*
X69239543Y-68515000D01*
X51383000Y-68515000D01*
X51383000Y-65640000D01*
X73939543Y-65640000D01*
X73939543Y-67140000D01*
X73963762Y-67385903D01*
X74035490Y-67622356D01*
X74151968Y-67840272D01*
X74308722Y-68031278D01*
X74499728Y-68188032D01*
X74717644Y-68304510D01*
X74954097Y-68376238D01*
X75200000Y-68400457D01*
X77200000Y-68400457D01*
X77445903Y-68376238D01*
X77682356Y-68304510D01*
X77900272Y-68188032D01*
X78091278Y-68031278D01*
X78248032Y-67840272D01*
X78364510Y-67622356D01*
X78436238Y-67385903D01*
X78460457Y-67140000D01*
X78460457Y-65640000D01*
X86639543Y-65640000D01*
X86639543Y-67140000D01*
X86663762Y-67385903D01*
X86735490Y-67622356D01*
X86851968Y-67840272D01*
X87008722Y-68031278D01*
X87199728Y-68188032D01*
X87417644Y-68304510D01*
X87654097Y-68376238D01*
X87900000Y-68400457D01*
X89900000Y-68400457D01*
X90145903Y-68376238D01*
X90382356Y-68304510D01*
X90600272Y-68188032D01*
X90791278Y-68031278D01*
X90948032Y-67840272D01*
X91064510Y-67622356D01*
X91136238Y-67385903D01*
X91160457Y-67140000D01*
X91160457Y-65640000D01*
X91136238Y-65394097D01*
X91064510Y-65157644D01*
X90948032Y-64939728D01*
X90791278Y-64748722D01*
X90600272Y-64591968D01*
X90382356Y-64475490D01*
X90145903Y-64403762D01*
X89900000Y-64379543D01*
X87900000Y-64379543D01*
X87654097Y-64403762D01*
X87417644Y-64475490D01*
X87199728Y-64591968D01*
X87008722Y-64748722D01*
X86851968Y-64939728D01*
X86735490Y-65157644D01*
X86663762Y-65394097D01*
X86639543Y-65640000D01*
X78460457Y-65640000D01*
X78436238Y-65394097D01*
X78364510Y-65157644D01*
X78248032Y-64939728D01*
X78091278Y-64748722D01*
X77900272Y-64591968D01*
X77682356Y-64475490D01*
X77445903Y-64403762D01*
X77200000Y-64379543D01*
X75200000Y-64379543D01*
X74954097Y-64403762D01*
X74717644Y-64475490D01*
X74499728Y-64591968D01*
X74308722Y-64748722D01*
X74151968Y-64939728D01*
X74035490Y-65157644D01*
X73963762Y-65394097D01*
X73939543Y-65640000D01*
X51383000Y-65640000D01*
X51383000Y-64083000D01*
X177217001Y-64083000D01*
X177217000Y-126417000D01*
G37*
G04 #@! TD.AperFunction*
M02*
