G04 #@! TF.GenerationSoftware,KiCad,Pcbnew,5.99.0+really5.1.10+dfsg1-1+b1*
G04 #@! TF.CreationDate,2021-10-12T16:58:35-05:00*
G04 #@! TF.ProjectId,potentiosynth,706f7465-6e74-4696-9f73-796e74682e6b,C*
G04 #@! TF.SameCoordinates,Original*
G04 #@! TF.FileFunction,Legend,Bot*
G04 #@! TF.FilePolarity,Positive*
%FSLAX46Y46*%
G04 Gerber Fmt 4.6, Leading zero omitted, Abs format (unit mm)*
G04 Created by KiCad (PCBNEW 5.99.0+really5.1.10+dfsg1-1+b1) date 2021-10-12 16:58:35*
%MOMM*%
%LPD*%
G01*
G04 APERTURE LIST*
%ADD10C,0.150000*%
G04 #@! TA.AperFunction,Profile*
%ADD11C,0.150000*%
G04 #@! TD*
%ADD12C,0.010000*%
%ADD13C,0.120000*%
G04 APERTURE END LIST*
D10*
X106728571Y-71047619D02*
X106728571Y-72047619D01*
X107157142Y-71047619D02*
X107157142Y-71571428D01*
X107109523Y-71666666D01*
X107014285Y-71714285D01*
X106871428Y-71714285D01*
X106776190Y-71666666D01*
X106728571Y-71619047D01*
X107490476Y-71714285D02*
X107871428Y-71714285D01*
X107633333Y-72047619D02*
X107633333Y-71190476D01*
X107680952Y-71095238D01*
X107776190Y-71047619D01*
X107871428Y-71047619D01*
X108061904Y-71714285D02*
X108442857Y-71714285D01*
X108204761Y-72047619D02*
X108204761Y-71190476D01*
X108252380Y-71095238D01*
X108347619Y-71047619D01*
X108442857Y-71047619D01*
X108776190Y-71714285D02*
X108776190Y-70714285D01*
X108776190Y-71666666D02*
X108871428Y-71714285D01*
X109061904Y-71714285D01*
X109157142Y-71666666D01*
X109204761Y-71619047D01*
X109252380Y-71523809D01*
X109252380Y-71238095D01*
X109204761Y-71142857D01*
X109157142Y-71095238D01*
X109061904Y-71047619D01*
X108871428Y-71047619D01*
X108776190Y-71095238D01*
X109633333Y-71095238D02*
X109728571Y-71047619D01*
X109919047Y-71047619D01*
X110014285Y-71095238D01*
X110061904Y-71190476D01*
X110061904Y-71238095D01*
X110014285Y-71333333D01*
X109919047Y-71380952D01*
X109776190Y-71380952D01*
X109680952Y-71428571D01*
X109633333Y-71523809D01*
X109633333Y-71571428D01*
X109680952Y-71666666D01*
X109776190Y-71714285D01*
X109919047Y-71714285D01*
X110014285Y-71666666D01*
X110490476Y-71142857D02*
X110538095Y-71095238D01*
X110490476Y-71047619D01*
X110442857Y-71095238D01*
X110490476Y-71142857D01*
X110490476Y-71047619D01*
X110490476Y-71666666D02*
X110538095Y-71619047D01*
X110490476Y-71571428D01*
X110442857Y-71619047D01*
X110490476Y-71666666D01*
X110490476Y-71571428D01*
X111680952Y-72095238D02*
X110823809Y-70809523D01*
X112728571Y-72095238D02*
X111871428Y-70809523D01*
X113490476Y-71714285D02*
X113490476Y-70904761D01*
X113442857Y-70809523D01*
X113395238Y-70761904D01*
X113299999Y-70714285D01*
X113157142Y-70714285D01*
X113061904Y-70761904D01*
X113490476Y-71095238D02*
X113395238Y-71047619D01*
X113204761Y-71047619D01*
X113109523Y-71095238D01*
X113061904Y-71142857D01*
X113014285Y-71238095D01*
X113014285Y-71523809D01*
X113061904Y-71619047D01*
X113109523Y-71666666D01*
X113204761Y-71714285D01*
X113395238Y-71714285D01*
X113490476Y-71666666D01*
X113966666Y-71047619D02*
X113966666Y-71714285D01*
X113966666Y-72047619D02*
X113919047Y-72000000D01*
X113966666Y-71952380D01*
X114014285Y-72000000D01*
X113966666Y-72047619D01*
X113966666Y-71952380D01*
X114299999Y-71714285D02*
X114680952Y-71714285D01*
X114442857Y-72047619D02*
X114442857Y-71190476D01*
X114490476Y-71095238D01*
X114585714Y-71047619D01*
X114680952Y-71047619D01*
X115014285Y-71047619D02*
X115014285Y-72047619D01*
X115442857Y-71047619D02*
X115442857Y-71571428D01*
X115395238Y-71666666D01*
X115299999Y-71714285D01*
X115157142Y-71714285D01*
X115061904Y-71666666D01*
X115014285Y-71619047D01*
X116347619Y-71714285D02*
X116347619Y-71047619D01*
X115919047Y-71714285D02*
X115919047Y-71190476D01*
X115966666Y-71095238D01*
X116061904Y-71047619D01*
X116204761Y-71047619D01*
X116299999Y-71095238D01*
X116347619Y-71142857D01*
X116823809Y-71047619D02*
X116823809Y-72047619D01*
X116823809Y-71666666D02*
X116919047Y-71714285D01*
X117109523Y-71714285D01*
X117204761Y-71666666D01*
X117252380Y-71619047D01*
X117299999Y-71523809D01*
X117299999Y-71238095D01*
X117252380Y-71142857D01*
X117204761Y-71095238D01*
X117109523Y-71047619D01*
X116919047Y-71047619D01*
X116823809Y-71095238D01*
X117728571Y-71142857D02*
X117776190Y-71095238D01*
X117728571Y-71047619D01*
X117680952Y-71095238D01*
X117728571Y-71142857D01*
X117728571Y-71047619D01*
X118633333Y-71095238D02*
X118538095Y-71047619D01*
X118347619Y-71047619D01*
X118252380Y-71095238D01*
X118204761Y-71142857D01*
X118157142Y-71238095D01*
X118157142Y-71523809D01*
X118204761Y-71619047D01*
X118252380Y-71666666D01*
X118347619Y-71714285D01*
X118538095Y-71714285D01*
X118633333Y-71666666D01*
X119204761Y-71047619D02*
X119109523Y-71095238D01*
X119061904Y-71142857D01*
X119014285Y-71238095D01*
X119014285Y-71523809D01*
X119061904Y-71619047D01*
X119109523Y-71666666D01*
X119204761Y-71714285D01*
X119347619Y-71714285D01*
X119442857Y-71666666D01*
X119490476Y-71619047D01*
X119538095Y-71523809D01*
X119538095Y-71238095D01*
X119490476Y-71142857D01*
X119442857Y-71095238D01*
X119347619Y-71047619D01*
X119204761Y-71047619D01*
X119966666Y-71047619D02*
X119966666Y-71714285D01*
X119966666Y-71619047D02*
X120014285Y-71666666D01*
X120109523Y-71714285D01*
X120252380Y-71714285D01*
X120347619Y-71666666D01*
X120395238Y-71571428D01*
X120395238Y-71047619D01*
X120395238Y-71571428D02*
X120442857Y-71666666D01*
X120538095Y-71714285D01*
X120680952Y-71714285D01*
X120776190Y-71666666D01*
X120823809Y-71571428D01*
X120823809Y-71047619D01*
X122014285Y-72095238D02*
X121157142Y-70809523D01*
X104347619Y-70064285D02*
X104347619Y-69397619D01*
X103919047Y-70064285D02*
X103919047Y-69540476D01*
X103966666Y-69445238D01*
X104061904Y-69397619D01*
X104204761Y-69397619D01*
X104300000Y-69445238D01*
X104347619Y-69492857D01*
X104728571Y-70064285D02*
X104919047Y-69397619D01*
X105109523Y-69873809D01*
X105300000Y-69397619D01*
X105490476Y-70064285D01*
X105871428Y-69778571D02*
X106633333Y-69778571D01*
X107109523Y-69397619D02*
X107109523Y-70064285D01*
X107109523Y-69969047D02*
X107157142Y-70016666D01*
X107252380Y-70064285D01*
X107395238Y-70064285D01*
X107490476Y-70016666D01*
X107538095Y-69921428D01*
X107538095Y-69397619D01*
X107538095Y-69921428D02*
X107585714Y-70016666D01*
X107680952Y-70064285D01*
X107823809Y-70064285D01*
X107919047Y-70016666D01*
X107966666Y-69921428D01*
X107966666Y-69397619D01*
X108871428Y-69397619D02*
X108871428Y-69921428D01*
X108823809Y-70016666D01*
X108728571Y-70064285D01*
X108538095Y-70064285D01*
X108442857Y-70016666D01*
X108871428Y-69445238D02*
X108776190Y-69397619D01*
X108538095Y-69397619D01*
X108442857Y-69445238D01*
X108395238Y-69540476D01*
X108395238Y-69635714D01*
X108442857Y-69730952D01*
X108538095Y-69778571D01*
X108776190Y-69778571D01*
X108871428Y-69826190D01*
X109776190Y-69397619D02*
X109776190Y-70397619D01*
X109776190Y-69445238D02*
X109680952Y-69397619D01*
X109490476Y-69397619D01*
X109395238Y-69445238D01*
X109347619Y-69492857D01*
X109300000Y-69588095D01*
X109300000Y-69873809D01*
X109347619Y-69969047D01*
X109395238Y-70016666D01*
X109490476Y-70064285D01*
X109680952Y-70064285D01*
X109776190Y-70016666D01*
X110252380Y-69397619D02*
X110252380Y-70064285D01*
X110252380Y-70397619D02*
X110204761Y-70350000D01*
X110252380Y-70302380D01*
X110300000Y-70350000D01*
X110252380Y-70397619D01*
X110252380Y-70302380D01*
X110680952Y-69445238D02*
X110776190Y-69397619D01*
X110966666Y-69397619D01*
X111061904Y-69445238D01*
X111109523Y-69540476D01*
X111109523Y-69588095D01*
X111061904Y-69683333D01*
X110966666Y-69730952D01*
X110823809Y-69730952D01*
X110728571Y-69778571D01*
X110680952Y-69873809D01*
X110680952Y-69921428D01*
X110728571Y-70016666D01*
X110823809Y-70064285D01*
X110966666Y-70064285D01*
X111061904Y-70016666D01*
X111680952Y-69397619D02*
X111585714Y-69445238D01*
X111538095Y-69492857D01*
X111490476Y-69588095D01*
X111490476Y-69873809D01*
X111538095Y-69969047D01*
X111585714Y-70016666D01*
X111680952Y-70064285D01*
X111823809Y-70064285D01*
X111919047Y-70016666D01*
X111966666Y-69969047D01*
X112014285Y-69873809D01*
X112014285Y-69588095D01*
X111966666Y-69492857D01*
X111919047Y-69445238D01*
X111823809Y-69397619D01*
X111680952Y-69397619D01*
X112442857Y-70064285D02*
X112442857Y-69397619D01*
X112442857Y-69969047D02*
X112490476Y-70016666D01*
X112585714Y-70064285D01*
X112728571Y-70064285D01*
X112823809Y-70016666D01*
X112871428Y-69921428D01*
X112871428Y-69397619D01*
X113347619Y-69778571D02*
X114109523Y-69778571D01*
X115014285Y-69445238D02*
X114919047Y-69397619D01*
X114728571Y-69397619D01*
X114633333Y-69445238D01*
X114585714Y-69492857D01*
X114538095Y-69588095D01*
X114538095Y-69873809D01*
X114585714Y-69969047D01*
X114633333Y-70016666D01*
X114728571Y-70064285D01*
X114919047Y-70064285D01*
X115014285Y-70016666D01*
X115442857Y-69397619D02*
X115442857Y-70397619D01*
X115871428Y-69397619D02*
X115871428Y-69921428D01*
X115823809Y-70016666D01*
X115728571Y-70064285D01*
X115585714Y-70064285D01*
X115490476Y-70016666D01*
X115442857Y-69969047D01*
X116728571Y-69445238D02*
X116633333Y-69397619D01*
X116442857Y-69397619D01*
X116347619Y-69445238D01*
X116300000Y-69540476D01*
X116300000Y-69921428D01*
X116347619Y-70016666D01*
X116442857Y-70064285D01*
X116633333Y-70064285D01*
X116728571Y-70016666D01*
X116776190Y-69921428D01*
X116776190Y-69826190D01*
X116300000Y-69730952D01*
X117204761Y-69397619D02*
X117204761Y-70064285D01*
X117204761Y-69969047D02*
X117252380Y-70016666D01*
X117347619Y-70064285D01*
X117490476Y-70064285D01*
X117585714Y-70016666D01*
X117633333Y-69921428D01*
X117633333Y-69397619D01*
X117633333Y-69921428D02*
X117680952Y-70016666D01*
X117776190Y-70064285D01*
X117919047Y-70064285D01*
X118014285Y-70016666D01*
X118061904Y-69921428D01*
X118061904Y-69397619D01*
X118538095Y-69778571D02*
X119300000Y-69778571D01*
X119728571Y-69445238D02*
X119823809Y-69397619D01*
X120014285Y-69397619D01*
X120109523Y-69445238D01*
X120157142Y-69540476D01*
X120157142Y-69588095D01*
X120109523Y-69683333D01*
X120014285Y-69730952D01*
X119871428Y-69730952D01*
X119776190Y-69778571D01*
X119728571Y-69873809D01*
X119728571Y-69921428D01*
X119776190Y-70016666D01*
X119871428Y-70064285D01*
X120014285Y-70064285D01*
X120109523Y-70016666D01*
X120585714Y-69397619D02*
X120585714Y-70397619D01*
X121014285Y-69397619D02*
X121014285Y-69921428D01*
X120966666Y-70016666D01*
X120871428Y-70064285D01*
X120728571Y-70064285D01*
X120633333Y-70016666D01*
X120585714Y-69969047D01*
X121633333Y-69397619D02*
X121538095Y-69445238D01*
X121490476Y-69492857D01*
X121442857Y-69588095D01*
X121442857Y-69873809D01*
X121490476Y-69969047D01*
X121538095Y-70016666D01*
X121633333Y-70064285D01*
X121776190Y-70064285D01*
X121871428Y-70016666D01*
X121919047Y-69969047D01*
X121966666Y-69873809D01*
X121966666Y-69588095D01*
X121919047Y-69492857D01*
X121871428Y-69445238D01*
X121776190Y-69397619D01*
X121633333Y-69397619D01*
X122395238Y-70064285D02*
X122395238Y-69064285D01*
X122395238Y-70016666D02*
X122490476Y-70064285D01*
X122680952Y-70064285D01*
X122776190Y-70016666D01*
X122823809Y-69969047D01*
X122871428Y-69873809D01*
X122871428Y-69588095D01*
X122823809Y-69492857D01*
X122776190Y-69445238D01*
X122680952Y-69397619D01*
X122490476Y-69397619D01*
X122395238Y-69445238D01*
X123252380Y-69445238D02*
X123347619Y-69397619D01*
X123538095Y-69397619D01*
X123633333Y-69445238D01*
X123680952Y-69540476D01*
X123680952Y-69588095D01*
X123633333Y-69683333D01*
X123538095Y-69730952D01*
X123395238Y-69730952D01*
X123300000Y-69778571D01*
X123252380Y-69873809D01*
X123252380Y-69921428D01*
X123300000Y-70016666D01*
X123395238Y-70064285D01*
X123538095Y-70064285D01*
X123633333Y-70016666D01*
X124823809Y-70445238D02*
X123966666Y-69159523D01*
X109823809Y-67795238D02*
X109728571Y-67747619D01*
X109538095Y-67747619D01*
X109442857Y-67795238D01*
X109395238Y-67890476D01*
X109395238Y-68271428D01*
X109442857Y-68366666D01*
X109538095Y-68414285D01*
X109728571Y-68414285D01*
X109823809Y-68366666D01*
X109871428Y-68271428D01*
X109871428Y-68176190D01*
X109395238Y-68080952D01*
X110442857Y-67747619D02*
X110347619Y-67795238D01*
X110300000Y-67890476D01*
X110300000Y-68747619D01*
X111204761Y-67795238D02*
X111109523Y-67747619D01*
X110919047Y-67747619D01*
X110823809Y-67795238D01*
X110776190Y-67890476D01*
X110776190Y-68271428D01*
X110823809Y-68366666D01*
X110919047Y-68414285D01*
X111109523Y-68414285D01*
X111204761Y-68366666D01*
X111252380Y-68271428D01*
X111252380Y-68176190D01*
X110776190Y-68080952D01*
X112109523Y-67795238D02*
X112014285Y-67747619D01*
X111823809Y-67747619D01*
X111728571Y-67795238D01*
X111680952Y-67842857D01*
X111633333Y-67938095D01*
X111633333Y-68223809D01*
X111680952Y-68319047D01*
X111728571Y-68366666D01*
X111823809Y-68414285D01*
X112014285Y-68414285D01*
X112109523Y-68366666D01*
X112395238Y-68414285D02*
X112776190Y-68414285D01*
X112538095Y-68747619D02*
X112538095Y-67890476D01*
X112585714Y-67795238D01*
X112680952Y-67747619D01*
X112776190Y-67747619D01*
X113109523Y-67747619D02*
X113109523Y-68414285D01*
X113109523Y-68223809D02*
X113157142Y-68319047D01*
X113204761Y-68366666D01*
X113299999Y-68414285D01*
X113395238Y-68414285D01*
X113871428Y-67747619D02*
X113776190Y-67795238D01*
X113728571Y-67842857D01*
X113680952Y-67938095D01*
X113680952Y-68223809D01*
X113728571Y-68319047D01*
X113776190Y-68366666D01*
X113871428Y-68414285D01*
X114014285Y-68414285D01*
X114109523Y-68366666D01*
X114157142Y-68319047D01*
X114204761Y-68223809D01*
X114204761Y-67938095D01*
X114157142Y-67842857D01*
X114109523Y-67795238D01*
X114014285Y-67747619D01*
X113871428Y-67747619D01*
X114585714Y-67795238D02*
X114680952Y-67747619D01*
X114871428Y-67747619D01*
X114966666Y-67795238D01*
X115014285Y-67890476D01*
X115014285Y-67938095D01*
X114966666Y-68033333D01*
X114871428Y-68080952D01*
X114728571Y-68080952D01*
X114633333Y-68128571D01*
X114585714Y-68223809D01*
X114585714Y-68271428D01*
X114633333Y-68366666D01*
X114728571Y-68414285D01*
X114871428Y-68414285D01*
X114966666Y-68366666D01*
X115347619Y-68414285D02*
X115585714Y-67747619D01*
X115823809Y-68414285D02*
X115585714Y-67747619D01*
X115490476Y-67509523D01*
X115442857Y-67461904D01*
X115347619Y-67414285D01*
X116204761Y-68414285D02*
X116204761Y-67747619D01*
X116204761Y-68319047D02*
X116252380Y-68366666D01*
X116347619Y-68414285D01*
X116490476Y-68414285D01*
X116585714Y-68366666D01*
X116633333Y-68271428D01*
X116633333Y-67747619D01*
X116966666Y-68414285D02*
X117347619Y-68414285D01*
X117109523Y-68747619D02*
X117109523Y-67890476D01*
X117157142Y-67795238D01*
X117252380Y-67747619D01*
X117347619Y-67747619D01*
X117680952Y-67747619D02*
X117680952Y-68747619D01*
X118109523Y-67747619D02*
X118109523Y-68271428D01*
X118061904Y-68366666D01*
X117966666Y-68414285D01*
X117823809Y-68414285D01*
X117728571Y-68366666D01*
X117680952Y-68319047D01*
X119300000Y-68795238D02*
X118442857Y-67509523D01*
D11*
X50800000Y-127000000D02*
X177800000Y-127000000D01*
X50800000Y-63500000D02*
X177800000Y-63500000D01*
X50800000Y-127000000D02*
X50800000Y-63500000D01*
X177800000Y-127000000D02*
X177800000Y-63500000D01*
D12*
G36*
X114509014Y-83652002D02*
G01*
X114667006Y-83651137D01*
X114781347Y-83648795D01*
X114859407Y-83644238D01*
X114908554Y-83636730D01*
X114936159Y-83625534D01*
X114949592Y-83609912D01*
X114956221Y-83589127D01*
X114956865Y-83586437D01*
X114966935Y-83537887D01*
X114985575Y-83442095D01*
X115010845Y-83309257D01*
X115040807Y-83149569D01*
X115073522Y-82973226D01*
X115074664Y-82967033D01*
X115107433Y-82794218D01*
X115138093Y-82641531D01*
X115164664Y-82518129D01*
X115185167Y-82433169D01*
X115197626Y-82395810D01*
X115198220Y-82395148D01*
X115234919Y-82376905D01*
X115310586Y-82346503D01*
X115408878Y-82310507D01*
X115409425Y-82310315D01*
X115533233Y-82263778D01*
X115679196Y-82204496D01*
X115816781Y-82144891D01*
X115823293Y-82141944D01*
X116047390Y-82040235D01*
X116543619Y-82379103D01*
X116695846Y-82482408D01*
X116833741Y-82574763D01*
X116949315Y-82650916D01*
X117034579Y-82705615D01*
X117081544Y-82733607D01*
X117086004Y-82735683D01*
X117120134Y-82726440D01*
X117183881Y-82681844D01*
X117279731Y-82599791D01*
X117410169Y-82478179D01*
X117543328Y-82348795D01*
X117671694Y-82221298D01*
X117786581Y-82104954D01*
X117881073Y-82006948D01*
X117948253Y-81934464D01*
X117981206Y-81894687D01*
X117982432Y-81892639D01*
X117986074Y-81865344D01*
X117972350Y-81820766D01*
X117937869Y-81752888D01*
X117879239Y-81655689D01*
X117793070Y-81523149D01*
X117678200Y-81352524D01*
X117576254Y-81202345D01*
X117485123Y-81067650D01*
X117410073Y-80956260D01*
X117356369Y-80875995D01*
X117329280Y-80834675D01*
X117327574Y-80831870D01*
X117330882Y-80792279D01*
X117355953Y-80715331D01*
X117397798Y-80615568D01*
X117412712Y-80583709D01*
X117477786Y-80441774D01*
X117547212Y-80280727D01*
X117603609Y-80141379D01*
X117644247Y-80037956D01*
X117676526Y-79959358D01*
X117695178Y-79918280D01*
X117697497Y-79915115D01*
X117731803Y-79909872D01*
X117812669Y-79895506D01*
X117929343Y-79874063D01*
X118071075Y-79847587D01*
X118227110Y-79818123D01*
X118386698Y-79787717D01*
X118539085Y-79758412D01*
X118673521Y-79732255D01*
X118779252Y-79711290D01*
X118845526Y-79697561D01*
X118861782Y-79693680D01*
X118878573Y-79684100D01*
X118891249Y-79662464D01*
X118900378Y-79621469D01*
X118906531Y-79553811D01*
X118910280Y-79452188D01*
X118912192Y-79309297D01*
X118912840Y-79117835D01*
X118912874Y-79039355D01*
X118912874Y-78401094D01*
X118759598Y-78370840D01*
X118674322Y-78354436D01*
X118547070Y-78330491D01*
X118393315Y-78301893D01*
X118228534Y-78271533D01*
X118182989Y-78263194D01*
X118030932Y-78233630D01*
X117898468Y-78204558D01*
X117796714Y-78178671D01*
X117736788Y-78158663D01*
X117726805Y-78152699D01*
X117702293Y-78110466D01*
X117667148Y-78028630D01*
X117628173Y-77923317D01*
X117620442Y-77900632D01*
X117569360Y-77759982D01*
X117505954Y-77601286D01*
X117443904Y-77458775D01*
X117443598Y-77458114D01*
X117340267Y-77234560D01*
X118019961Y-76234768D01*
X117583621Y-75797700D01*
X117451649Y-75667619D01*
X117331279Y-75552952D01*
X117229273Y-75459819D01*
X117152391Y-75394342D01*
X117107393Y-75362643D01*
X117100938Y-75360632D01*
X117063040Y-75376471D01*
X116985708Y-75420504D01*
X116877389Y-75487510D01*
X116746532Y-75572266D01*
X116605052Y-75667184D01*
X116461461Y-75764002D01*
X116333435Y-75848249D01*
X116229105Y-75914742D01*
X116156600Y-75958298D01*
X116124158Y-75973736D01*
X116084576Y-75960672D01*
X116009519Y-75926250D01*
X115914468Y-75877620D01*
X115904392Y-75872215D01*
X115776391Y-75808020D01*
X115688618Y-75776537D01*
X115634028Y-75776202D01*
X115605575Y-75805452D01*
X115605410Y-75805862D01*
X115591188Y-75840502D01*
X115557269Y-75922731D01*
X115506284Y-76046186D01*
X115440862Y-76204502D01*
X115363634Y-76391314D01*
X115277229Y-76600258D01*
X115193551Y-76802554D01*
X115101588Y-77025800D01*
X115017150Y-77232608D01*
X114942769Y-77416638D01*
X114880974Y-77571549D01*
X114834297Y-77691004D01*
X114805268Y-77768661D01*
X114796322Y-77797644D01*
X114818756Y-77830890D01*
X114877439Y-77883877D01*
X114955689Y-77942296D01*
X115178534Y-78127048D01*
X115352718Y-78338818D01*
X115476154Y-78573144D01*
X115546754Y-78825566D01*
X115562431Y-79091623D01*
X115551036Y-79214425D01*
X115488950Y-79469207D01*
X115382023Y-79694199D01*
X115236889Y-79887183D01*
X115060178Y-80045939D01*
X114858522Y-80168250D01*
X114638554Y-80251895D01*
X114406906Y-80294656D01*
X114170209Y-80294313D01*
X113935095Y-80248648D01*
X113708196Y-80155441D01*
X113496144Y-80012473D01*
X113407636Y-79931617D01*
X113237889Y-79723993D01*
X113119699Y-79497105D01*
X113052278Y-79257567D01*
X113034840Y-79011993D01*
X113066598Y-78766997D01*
X113146765Y-78529192D01*
X113274555Y-78305193D01*
X113449180Y-78101613D01*
X113644312Y-77942296D01*
X113725591Y-77881398D01*
X113783009Y-77828985D01*
X113803678Y-77797594D01*
X113792856Y-77763361D01*
X113762077Y-77681581D01*
X113713874Y-77558593D01*
X113650778Y-77400737D01*
X113575322Y-77214351D01*
X113490038Y-77005774D01*
X113406219Y-76802504D01*
X113313745Y-76579067D01*
X113228089Y-76372016D01*
X113151882Y-76187714D01*
X113087753Y-76032525D01*
X113038332Y-75912812D01*
X113006248Y-75834939D01*
X112994359Y-75805862D01*
X112966274Y-75776323D01*
X112911949Y-75776409D01*
X112824395Y-75807674D01*
X112696619Y-75871671D01*
X112695608Y-75872215D01*
X112599402Y-75921879D01*
X112521631Y-75958055D01*
X112477777Y-75973592D01*
X112475842Y-75973736D01*
X112442829Y-75957976D01*
X112369946Y-75914150D01*
X112265322Y-75847443D01*
X112137090Y-75763036D01*
X111994948Y-75667184D01*
X111850233Y-75570133D01*
X111719804Y-75485730D01*
X111612110Y-75419199D01*
X111535598Y-75375762D01*
X111499062Y-75360632D01*
X111465418Y-75380518D01*
X111397776Y-75436097D01*
X111302893Y-75521246D01*
X111187530Y-75629847D01*
X111058445Y-75755779D01*
X111016229Y-75797851D01*
X110579739Y-76235069D01*
X110911977Y-76722660D01*
X111012946Y-76872395D01*
X111101562Y-77006780D01*
X111172854Y-77118031D01*
X111221850Y-77198361D01*
X111243578Y-77239986D01*
X111244215Y-77242947D01*
X111232760Y-77282182D01*
X111201949Y-77361105D01*
X111157116Y-77466491D01*
X111125647Y-77537046D01*
X111066808Y-77672124D01*
X111011396Y-77808591D01*
X110968436Y-77923897D01*
X110956766Y-77959023D01*
X110923611Y-78052826D01*
X110891201Y-78125306D01*
X110873399Y-78152699D01*
X110834114Y-78169464D01*
X110748374Y-78193230D01*
X110627303Y-78221303D01*
X110482027Y-78250991D01*
X110417012Y-78263194D01*
X110251913Y-78293532D01*
X110093552Y-78322907D01*
X109957404Y-78348431D01*
X109858943Y-78367215D01*
X109840402Y-78370840D01*
X109687127Y-78401094D01*
X109687127Y-79039355D01*
X109687471Y-79249230D01*
X109688884Y-79408020D01*
X109691936Y-79523027D01*
X109697197Y-79601554D01*
X109705237Y-79650904D01*
X109716627Y-79678381D01*
X109731937Y-79691287D01*
X109738218Y-79693680D01*
X109776104Y-79702167D01*
X109859805Y-79719100D01*
X109978567Y-79742434D01*
X110121639Y-79770125D01*
X110278268Y-79800127D01*
X110437703Y-79830396D01*
X110589191Y-79858885D01*
X110721981Y-79883551D01*
X110825319Y-79902349D01*
X110888455Y-79913233D01*
X110902503Y-79915115D01*
X110915230Y-79940296D01*
X110943400Y-80007378D01*
X110981748Y-80103667D01*
X110996391Y-80141379D01*
X111055452Y-80287079D01*
X111125000Y-80448049D01*
X111187288Y-80583709D01*
X111233121Y-80687439D01*
X111263613Y-80772674D01*
X111273792Y-80824874D01*
X111272169Y-80831870D01*
X111250657Y-80864898D01*
X111201535Y-80938357D01*
X111130077Y-81044423D01*
X111041555Y-81175274D01*
X110941241Y-81323088D01*
X110921406Y-81352266D01*
X110805012Y-81525137D01*
X110719452Y-81656774D01*
X110661316Y-81753239D01*
X110627192Y-81820592D01*
X110613669Y-81864894D01*
X110617336Y-81892206D01*
X110617430Y-81892380D01*
X110646293Y-81928254D01*
X110710133Y-81997609D01*
X110802031Y-82093255D01*
X110915067Y-82208001D01*
X111042321Y-82334659D01*
X111056672Y-82348795D01*
X111217043Y-82504097D01*
X111340805Y-82618130D01*
X111430445Y-82692998D01*
X111488448Y-82730804D01*
X111513996Y-82735683D01*
X111551282Y-82714397D01*
X111628657Y-82665227D01*
X111738133Y-82593425D01*
X111871720Y-82504245D01*
X112021430Y-82402937D01*
X112056382Y-82379103D01*
X112552610Y-82040235D01*
X112776707Y-82141944D01*
X112912989Y-82201217D01*
X113059276Y-82260830D01*
X113185035Y-82308360D01*
X113190575Y-82310315D01*
X113288943Y-82346323D01*
X113364771Y-82376771D01*
X113401718Y-82395095D01*
X113401780Y-82395148D01*
X113413504Y-82428271D01*
X113433432Y-82509733D01*
X113459587Y-82630375D01*
X113489990Y-82781041D01*
X113522663Y-82952572D01*
X113525336Y-82967033D01*
X113558110Y-83143765D01*
X113588198Y-83304190D01*
X113613661Y-83438112D01*
X113632559Y-83535337D01*
X113642953Y-83585668D01*
X113643135Y-83586437D01*
X113649461Y-83607847D01*
X113661761Y-83624012D01*
X113687406Y-83635669D01*
X113733765Y-83643555D01*
X113808208Y-83648407D01*
X113918105Y-83650961D01*
X114070825Y-83651955D01*
X114273738Y-83652126D01*
X114300000Y-83652126D01*
X114509014Y-83652002D01*
G37*
X114509014Y-83652002D02*
X114667006Y-83651137D01*
X114781347Y-83648795D01*
X114859407Y-83644238D01*
X114908554Y-83636730D01*
X114936159Y-83625534D01*
X114949592Y-83609912D01*
X114956221Y-83589127D01*
X114956865Y-83586437D01*
X114966935Y-83537887D01*
X114985575Y-83442095D01*
X115010845Y-83309257D01*
X115040807Y-83149569D01*
X115073522Y-82973226D01*
X115074664Y-82967033D01*
X115107433Y-82794218D01*
X115138093Y-82641531D01*
X115164664Y-82518129D01*
X115185167Y-82433169D01*
X115197626Y-82395810D01*
X115198220Y-82395148D01*
X115234919Y-82376905D01*
X115310586Y-82346503D01*
X115408878Y-82310507D01*
X115409425Y-82310315D01*
X115533233Y-82263778D01*
X115679196Y-82204496D01*
X115816781Y-82144891D01*
X115823293Y-82141944D01*
X116047390Y-82040235D01*
X116543619Y-82379103D01*
X116695846Y-82482408D01*
X116833741Y-82574763D01*
X116949315Y-82650916D01*
X117034579Y-82705615D01*
X117081544Y-82733607D01*
X117086004Y-82735683D01*
X117120134Y-82726440D01*
X117183881Y-82681844D01*
X117279731Y-82599791D01*
X117410169Y-82478179D01*
X117543328Y-82348795D01*
X117671694Y-82221298D01*
X117786581Y-82104954D01*
X117881073Y-82006948D01*
X117948253Y-81934464D01*
X117981206Y-81894687D01*
X117982432Y-81892639D01*
X117986074Y-81865344D01*
X117972350Y-81820766D01*
X117937869Y-81752888D01*
X117879239Y-81655689D01*
X117793070Y-81523149D01*
X117678200Y-81352524D01*
X117576254Y-81202345D01*
X117485123Y-81067650D01*
X117410073Y-80956260D01*
X117356369Y-80875995D01*
X117329280Y-80834675D01*
X117327574Y-80831870D01*
X117330882Y-80792279D01*
X117355953Y-80715331D01*
X117397798Y-80615568D01*
X117412712Y-80583709D01*
X117477786Y-80441774D01*
X117547212Y-80280727D01*
X117603609Y-80141379D01*
X117644247Y-80037956D01*
X117676526Y-79959358D01*
X117695178Y-79918280D01*
X117697497Y-79915115D01*
X117731803Y-79909872D01*
X117812669Y-79895506D01*
X117929343Y-79874063D01*
X118071075Y-79847587D01*
X118227110Y-79818123D01*
X118386698Y-79787717D01*
X118539085Y-79758412D01*
X118673521Y-79732255D01*
X118779252Y-79711290D01*
X118845526Y-79697561D01*
X118861782Y-79693680D01*
X118878573Y-79684100D01*
X118891249Y-79662464D01*
X118900378Y-79621469D01*
X118906531Y-79553811D01*
X118910280Y-79452188D01*
X118912192Y-79309297D01*
X118912840Y-79117835D01*
X118912874Y-79039355D01*
X118912874Y-78401094D01*
X118759598Y-78370840D01*
X118674322Y-78354436D01*
X118547070Y-78330491D01*
X118393315Y-78301893D01*
X118228534Y-78271533D01*
X118182989Y-78263194D01*
X118030932Y-78233630D01*
X117898468Y-78204558D01*
X117796714Y-78178671D01*
X117736788Y-78158663D01*
X117726805Y-78152699D01*
X117702293Y-78110466D01*
X117667148Y-78028630D01*
X117628173Y-77923317D01*
X117620442Y-77900632D01*
X117569360Y-77759982D01*
X117505954Y-77601286D01*
X117443904Y-77458775D01*
X117443598Y-77458114D01*
X117340267Y-77234560D01*
X118019961Y-76234768D01*
X117583621Y-75797700D01*
X117451649Y-75667619D01*
X117331279Y-75552952D01*
X117229273Y-75459819D01*
X117152391Y-75394342D01*
X117107393Y-75362643D01*
X117100938Y-75360632D01*
X117063040Y-75376471D01*
X116985708Y-75420504D01*
X116877389Y-75487510D01*
X116746532Y-75572266D01*
X116605052Y-75667184D01*
X116461461Y-75764002D01*
X116333435Y-75848249D01*
X116229105Y-75914742D01*
X116156600Y-75958298D01*
X116124158Y-75973736D01*
X116084576Y-75960672D01*
X116009519Y-75926250D01*
X115914468Y-75877620D01*
X115904392Y-75872215D01*
X115776391Y-75808020D01*
X115688618Y-75776537D01*
X115634028Y-75776202D01*
X115605575Y-75805452D01*
X115605410Y-75805862D01*
X115591188Y-75840502D01*
X115557269Y-75922731D01*
X115506284Y-76046186D01*
X115440862Y-76204502D01*
X115363634Y-76391314D01*
X115277229Y-76600258D01*
X115193551Y-76802554D01*
X115101588Y-77025800D01*
X115017150Y-77232608D01*
X114942769Y-77416638D01*
X114880974Y-77571549D01*
X114834297Y-77691004D01*
X114805268Y-77768661D01*
X114796322Y-77797644D01*
X114818756Y-77830890D01*
X114877439Y-77883877D01*
X114955689Y-77942296D01*
X115178534Y-78127048D01*
X115352718Y-78338818D01*
X115476154Y-78573144D01*
X115546754Y-78825566D01*
X115562431Y-79091623D01*
X115551036Y-79214425D01*
X115488950Y-79469207D01*
X115382023Y-79694199D01*
X115236889Y-79887183D01*
X115060178Y-80045939D01*
X114858522Y-80168250D01*
X114638554Y-80251895D01*
X114406906Y-80294656D01*
X114170209Y-80294313D01*
X113935095Y-80248648D01*
X113708196Y-80155441D01*
X113496144Y-80012473D01*
X113407636Y-79931617D01*
X113237889Y-79723993D01*
X113119699Y-79497105D01*
X113052278Y-79257567D01*
X113034840Y-79011993D01*
X113066598Y-78766997D01*
X113146765Y-78529192D01*
X113274555Y-78305193D01*
X113449180Y-78101613D01*
X113644312Y-77942296D01*
X113725591Y-77881398D01*
X113783009Y-77828985D01*
X113803678Y-77797594D01*
X113792856Y-77763361D01*
X113762077Y-77681581D01*
X113713874Y-77558593D01*
X113650778Y-77400737D01*
X113575322Y-77214351D01*
X113490038Y-77005774D01*
X113406219Y-76802504D01*
X113313745Y-76579067D01*
X113228089Y-76372016D01*
X113151882Y-76187714D01*
X113087753Y-76032525D01*
X113038332Y-75912812D01*
X113006248Y-75834939D01*
X112994359Y-75805862D01*
X112966274Y-75776323D01*
X112911949Y-75776409D01*
X112824395Y-75807674D01*
X112696619Y-75871671D01*
X112695608Y-75872215D01*
X112599402Y-75921879D01*
X112521631Y-75958055D01*
X112477777Y-75973592D01*
X112475842Y-75973736D01*
X112442829Y-75957976D01*
X112369946Y-75914150D01*
X112265322Y-75847443D01*
X112137090Y-75763036D01*
X111994948Y-75667184D01*
X111850233Y-75570133D01*
X111719804Y-75485730D01*
X111612110Y-75419199D01*
X111535598Y-75375762D01*
X111499062Y-75360632D01*
X111465418Y-75380518D01*
X111397776Y-75436097D01*
X111302893Y-75521246D01*
X111187530Y-75629847D01*
X111058445Y-75755779D01*
X111016229Y-75797851D01*
X110579739Y-76235069D01*
X110911977Y-76722660D01*
X111012946Y-76872395D01*
X111101562Y-77006780D01*
X111172854Y-77118031D01*
X111221850Y-77198361D01*
X111243578Y-77239986D01*
X111244215Y-77242947D01*
X111232760Y-77282182D01*
X111201949Y-77361105D01*
X111157116Y-77466491D01*
X111125647Y-77537046D01*
X111066808Y-77672124D01*
X111011396Y-77808591D01*
X110968436Y-77923897D01*
X110956766Y-77959023D01*
X110923611Y-78052826D01*
X110891201Y-78125306D01*
X110873399Y-78152699D01*
X110834114Y-78169464D01*
X110748374Y-78193230D01*
X110627303Y-78221303D01*
X110482027Y-78250991D01*
X110417012Y-78263194D01*
X110251913Y-78293532D01*
X110093552Y-78322907D01*
X109957404Y-78348431D01*
X109858943Y-78367215D01*
X109840402Y-78370840D01*
X109687127Y-78401094D01*
X109687127Y-79039355D01*
X109687471Y-79249230D01*
X109688884Y-79408020D01*
X109691936Y-79523027D01*
X109697197Y-79601554D01*
X109705237Y-79650904D01*
X109716627Y-79678381D01*
X109731937Y-79691287D01*
X109738218Y-79693680D01*
X109776104Y-79702167D01*
X109859805Y-79719100D01*
X109978567Y-79742434D01*
X110121639Y-79770125D01*
X110278268Y-79800127D01*
X110437703Y-79830396D01*
X110589191Y-79858885D01*
X110721981Y-79883551D01*
X110825319Y-79902349D01*
X110888455Y-79913233D01*
X110902503Y-79915115D01*
X110915230Y-79940296D01*
X110943400Y-80007378D01*
X110981748Y-80103667D01*
X110996391Y-80141379D01*
X111055452Y-80287079D01*
X111125000Y-80448049D01*
X111187288Y-80583709D01*
X111233121Y-80687439D01*
X111263613Y-80772674D01*
X111273792Y-80824874D01*
X111272169Y-80831870D01*
X111250657Y-80864898D01*
X111201535Y-80938357D01*
X111130077Y-81044423D01*
X111041555Y-81175274D01*
X110941241Y-81323088D01*
X110921406Y-81352266D01*
X110805012Y-81525137D01*
X110719452Y-81656774D01*
X110661316Y-81753239D01*
X110627192Y-81820592D01*
X110613669Y-81864894D01*
X110617336Y-81892206D01*
X110617430Y-81892380D01*
X110646293Y-81928254D01*
X110710133Y-81997609D01*
X110802031Y-82093255D01*
X110915067Y-82208001D01*
X111042321Y-82334659D01*
X111056672Y-82348795D01*
X111217043Y-82504097D01*
X111340805Y-82618130D01*
X111430445Y-82692998D01*
X111488448Y-82730804D01*
X111513996Y-82735683D01*
X111551282Y-82714397D01*
X111628657Y-82665227D01*
X111738133Y-82593425D01*
X111871720Y-82504245D01*
X112021430Y-82402937D01*
X112056382Y-82379103D01*
X112552610Y-82040235D01*
X112776707Y-82141944D01*
X112912989Y-82201217D01*
X113059276Y-82260830D01*
X113185035Y-82308360D01*
X113190575Y-82310315D01*
X113288943Y-82346323D01*
X113364771Y-82376771D01*
X113401718Y-82395095D01*
X113401780Y-82395148D01*
X113413504Y-82428271D01*
X113433432Y-82509733D01*
X113459587Y-82630375D01*
X113489990Y-82781041D01*
X113522663Y-82952572D01*
X113525336Y-82967033D01*
X113558110Y-83143765D01*
X113588198Y-83304190D01*
X113613661Y-83438112D01*
X113632559Y-83535337D01*
X113642953Y-83585668D01*
X113643135Y-83586437D01*
X113649461Y-83607847D01*
X113661761Y-83624012D01*
X113687406Y-83635669D01*
X113733765Y-83643555D01*
X113808208Y-83648407D01*
X113918105Y-83650961D01*
X114070825Y-83651955D01*
X114273738Y-83652126D01*
X114300000Y-83652126D01*
X114509014Y-83652002D01*
G36*
X120643439Y-74148460D02*
G01*
X120758950Y-74072966D01*
X120814664Y-74005383D01*
X120858804Y-73882745D01*
X120862309Y-73785702D01*
X120854368Y-73655944D01*
X120555115Y-73524961D01*
X120409611Y-73458042D01*
X120314537Y-73404210D01*
X120265101Y-73357584D01*
X120256511Y-73312280D01*
X120283972Y-73262418D01*
X120314253Y-73229368D01*
X120402363Y-73176367D01*
X120498196Y-73172653D01*
X120586212Y-73213959D01*
X120650869Y-73296017D01*
X120662433Y-73324992D01*
X120717825Y-73415491D01*
X120781553Y-73454060D01*
X120868966Y-73487054D01*
X120868966Y-73361966D01*
X120861238Y-73276844D01*
X120830966Y-73205062D01*
X120767518Y-73122644D01*
X120758088Y-73111934D01*
X120687513Y-73038609D01*
X120626847Y-72999258D01*
X120550950Y-72981155D01*
X120488030Y-72975226D01*
X120375487Y-72973749D01*
X120295370Y-72992465D01*
X120245390Y-73020253D01*
X120166838Y-73081359D01*
X120112463Y-73147446D01*
X120078052Y-73230559D01*
X120059388Y-73342746D01*
X120052256Y-73496054D01*
X120051687Y-73573864D01*
X120053622Y-73667147D01*
X120229899Y-73667147D01*
X120231944Y-73617104D01*
X120237039Y-73608908D01*
X120270666Y-73620042D01*
X120343030Y-73649507D01*
X120439747Y-73691399D01*
X120459973Y-73700403D01*
X120582203Y-73762558D01*
X120649547Y-73817185D01*
X120664348Y-73868351D01*
X120628947Y-73920124D01*
X120599711Y-73943000D01*
X120494216Y-73988750D01*
X120395476Y-73981192D01*
X120312812Y-73925349D01*
X120255548Y-73826247D01*
X120237188Y-73747586D01*
X120229899Y-73667147D01*
X120053622Y-73667147D01*
X120055459Y-73755649D01*
X120069359Y-73890147D01*
X120096894Y-73988084D01*
X120141572Y-74060189D01*
X120206901Y-74117187D01*
X120235383Y-74135607D01*
X120364763Y-74183578D01*
X120506412Y-74186597D01*
X120643439Y-74148460D01*
G37*
X120643439Y-74148460D02*
X120758950Y-74072966D01*
X120814664Y-74005383D01*
X120858804Y-73882745D01*
X120862309Y-73785702D01*
X120854368Y-73655944D01*
X120555115Y-73524961D01*
X120409611Y-73458042D01*
X120314537Y-73404210D01*
X120265101Y-73357584D01*
X120256511Y-73312280D01*
X120283972Y-73262418D01*
X120314253Y-73229368D01*
X120402363Y-73176367D01*
X120498196Y-73172653D01*
X120586212Y-73213959D01*
X120650869Y-73296017D01*
X120662433Y-73324992D01*
X120717825Y-73415491D01*
X120781553Y-73454060D01*
X120868966Y-73487054D01*
X120868966Y-73361966D01*
X120861238Y-73276844D01*
X120830966Y-73205062D01*
X120767518Y-73122644D01*
X120758088Y-73111934D01*
X120687513Y-73038609D01*
X120626847Y-72999258D01*
X120550950Y-72981155D01*
X120488030Y-72975226D01*
X120375487Y-72973749D01*
X120295370Y-72992465D01*
X120245390Y-73020253D01*
X120166838Y-73081359D01*
X120112463Y-73147446D01*
X120078052Y-73230559D01*
X120059388Y-73342746D01*
X120052256Y-73496054D01*
X120051687Y-73573864D01*
X120053622Y-73667147D01*
X120229899Y-73667147D01*
X120231944Y-73617104D01*
X120237039Y-73608908D01*
X120270666Y-73620042D01*
X120343030Y-73649507D01*
X120439747Y-73691399D01*
X120459973Y-73700403D01*
X120582203Y-73762558D01*
X120649547Y-73817185D01*
X120664348Y-73868351D01*
X120628947Y-73920124D01*
X120599711Y-73943000D01*
X120494216Y-73988750D01*
X120395476Y-73981192D01*
X120312812Y-73925349D01*
X120255548Y-73826247D01*
X120237188Y-73747586D01*
X120229899Y-73667147D01*
X120053622Y-73667147D01*
X120055459Y-73755649D01*
X120069359Y-73890147D01*
X120096894Y-73988084D01*
X120141572Y-74060189D01*
X120206901Y-74117187D01*
X120235383Y-74135607D01*
X120364763Y-74183578D01*
X120506412Y-74186597D01*
X120643439Y-74148460D01*
G36*
X119635690Y-74164982D02*
G01*
X119670585Y-74149731D01*
X119753877Y-74083765D01*
X119825103Y-73988382D01*
X119869153Y-73886594D01*
X119876322Y-73836413D01*
X119852285Y-73766353D01*
X119799561Y-73729283D01*
X119743031Y-73706836D01*
X119717146Y-73702700D01*
X119704542Y-73732717D01*
X119679654Y-73798039D01*
X119668735Y-73827555D01*
X119607508Y-73929652D01*
X119518861Y-73980577D01*
X119405193Y-73979011D01*
X119396774Y-73977006D01*
X119336088Y-73948233D01*
X119291474Y-73892141D01*
X119261002Y-73801837D01*
X119242744Y-73670429D01*
X119234771Y-73491026D01*
X119234023Y-73395567D01*
X119233652Y-73245087D01*
X119231223Y-73142505D01*
X119224760Y-73077328D01*
X119212288Y-73039062D01*
X119191833Y-73017215D01*
X119161419Y-73001293D01*
X119159661Y-73000491D01*
X119101091Y-72975728D01*
X119072075Y-72966609D01*
X119067616Y-72994178D01*
X119063799Y-73070380D01*
X119060899Y-73185459D01*
X119059191Y-73329659D01*
X119058851Y-73435186D01*
X119060588Y-73639387D01*
X119067382Y-73794303D01*
X119081607Y-73908976D01*
X119105638Y-73992449D01*
X119141848Y-74053764D01*
X119192612Y-74101966D01*
X119242739Y-74135607D01*
X119363275Y-74180381D01*
X119503557Y-74190479D01*
X119635690Y-74164982D01*
G37*
X119635690Y-74164982D02*
X119670585Y-74149731D01*
X119753877Y-74083765D01*
X119825103Y-73988382D01*
X119869153Y-73886594D01*
X119876322Y-73836413D01*
X119852285Y-73766353D01*
X119799561Y-73729283D01*
X119743031Y-73706836D01*
X119717146Y-73702700D01*
X119704542Y-73732717D01*
X119679654Y-73798039D01*
X119668735Y-73827555D01*
X119607508Y-73929652D01*
X119518861Y-73980577D01*
X119405193Y-73979011D01*
X119396774Y-73977006D01*
X119336088Y-73948233D01*
X119291474Y-73892141D01*
X119261002Y-73801837D01*
X119242744Y-73670429D01*
X119234771Y-73491026D01*
X119234023Y-73395567D01*
X119233652Y-73245087D01*
X119231223Y-73142505D01*
X119224760Y-73077328D01*
X119212288Y-73039062D01*
X119191833Y-73017215D01*
X119161419Y-73001293D01*
X119159661Y-73000491D01*
X119101091Y-72975728D01*
X119072075Y-72966609D01*
X119067616Y-72994178D01*
X119063799Y-73070380D01*
X119060899Y-73185459D01*
X119059191Y-73329659D01*
X119058851Y-73435186D01*
X119060588Y-73639387D01*
X119067382Y-73794303D01*
X119081607Y-73908976D01*
X119105638Y-73992449D01*
X119141848Y-74053764D01*
X119192612Y-74101966D01*
X119242739Y-74135607D01*
X119363275Y-74180381D01*
X119503557Y-74190479D01*
X119635690Y-74164982D01*
G36*
X118614406Y-74169844D02*
G01*
X118698469Y-74131607D01*
X118764450Y-74085274D01*
X118812794Y-74033468D01*
X118846172Y-73966637D01*
X118867253Y-73875231D01*
X118878707Y-73749699D01*
X118883203Y-73580492D01*
X118883678Y-73469067D01*
X118883678Y-73034373D01*
X118809316Y-73000491D01*
X118750746Y-72975728D01*
X118721730Y-72966609D01*
X118716179Y-72993743D01*
X118711775Y-73066906D01*
X118709078Y-73173737D01*
X118708506Y-73258563D01*
X118706046Y-73381113D01*
X118699412Y-73478332D01*
X118689726Y-73537866D01*
X118682032Y-73550517D01*
X118630311Y-73537598D01*
X118549117Y-73504461D01*
X118455102Y-73459539D01*
X118364917Y-73411265D01*
X118295215Y-73368072D01*
X118262648Y-73338392D01*
X118262519Y-73338071D01*
X118265320Y-73283143D01*
X118290439Y-73230708D01*
X118334541Y-73188119D01*
X118398909Y-73173874D01*
X118453921Y-73175534D01*
X118531835Y-73176755D01*
X118572732Y-73158502D01*
X118597295Y-73110274D01*
X118600392Y-73101180D01*
X118611040Y-73032402D01*
X118582565Y-72990640D01*
X118508344Y-72970737D01*
X118428168Y-72967056D01*
X118283890Y-72994342D01*
X118209203Y-73033310D01*
X118116963Y-73124852D01*
X118068043Y-73237218D01*
X118063654Y-73355949D01*
X118105001Y-73466589D01*
X118167197Y-73535920D01*
X118229294Y-73574735D01*
X118326895Y-73623875D01*
X118440632Y-73673708D01*
X118459590Y-73681323D01*
X118584521Y-73736455D01*
X118656539Y-73785046D01*
X118679700Y-73833353D01*
X118658064Y-73887630D01*
X118620920Y-73930057D01*
X118533127Y-73982298D01*
X118436530Y-73986216D01*
X118347944Y-73945959D01*
X118284186Y-73865674D01*
X118275817Y-73844960D01*
X118227096Y-73768775D01*
X118155965Y-73712215D01*
X118066207Y-73665799D01*
X118066207Y-73797416D01*
X118071490Y-73877832D01*
X118094142Y-73941214D01*
X118144367Y-74008837D01*
X118192582Y-74060924D01*
X118267554Y-74134678D01*
X118325806Y-74174298D01*
X118388372Y-74190190D01*
X118459193Y-74192816D01*
X118614406Y-74169844D01*
G37*
X118614406Y-74169844D02*
X118698469Y-74131607D01*
X118764450Y-74085274D01*
X118812794Y-74033468D01*
X118846172Y-73966637D01*
X118867253Y-73875231D01*
X118878707Y-73749699D01*
X118883203Y-73580492D01*
X118883678Y-73469067D01*
X118883678Y-73034373D01*
X118809316Y-73000491D01*
X118750746Y-72975728D01*
X118721730Y-72966609D01*
X118716179Y-72993743D01*
X118711775Y-73066906D01*
X118709078Y-73173737D01*
X118708506Y-73258563D01*
X118706046Y-73381113D01*
X118699412Y-73478332D01*
X118689726Y-73537866D01*
X118682032Y-73550517D01*
X118630311Y-73537598D01*
X118549117Y-73504461D01*
X118455102Y-73459539D01*
X118364917Y-73411265D01*
X118295215Y-73368072D01*
X118262648Y-73338392D01*
X118262519Y-73338071D01*
X118265320Y-73283143D01*
X118290439Y-73230708D01*
X118334541Y-73188119D01*
X118398909Y-73173874D01*
X118453921Y-73175534D01*
X118531835Y-73176755D01*
X118572732Y-73158502D01*
X118597295Y-73110274D01*
X118600392Y-73101180D01*
X118611040Y-73032402D01*
X118582565Y-72990640D01*
X118508344Y-72970737D01*
X118428168Y-72967056D01*
X118283890Y-72994342D01*
X118209203Y-73033310D01*
X118116963Y-73124852D01*
X118068043Y-73237218D01*
X118063654Y-73355949D01*
X118105001Y-73466589D01*
X118167197Y-73535920D01*
X118229294Y-73574735D01*
X118326895Y-73623875D01*
X118440632Y-73673708D01*
X118459590Y-73681323D01*
X118584521Y-73736455D01*
X118656539Y-73785046D01*
X118679700Y-73833353D01*
X118658064Y-73887630D01*
X118620920Y-73930057D01*
X118533127Y-73982298D01*
X118436530Y-73986216D01*
X118347944Y-73945959D01*
X118284186Y-73865674D01*
X118275817Y-73844960D01*
X118227096Y-73768775D01*
X118155965Y-73712215D01*
X118066207Y-73665799D01*
X118066207Y-73797416D01*
X118071490Y-73877832D01*
X118094142Y-73941214D01*
X118144367Y-74008837D01*
X118192582Y-74060924D01*
X118267554Y-74134678D01*
X118325806Y-74174298D01*
X118388372Y-74190190D01*
X118459193Y-74192816D01*
X118614406Y-74169844D01*
G36*
X117880124Y-74165160D02*
G01*
X117884579Y-74088347D01*
X117888071Y-73971609D01*
X117890315Y-73824179D01*
X117891035Y-73669545D01*
X117891035Y-73146273D01*
X117798645Y-73053883D01*
X117734978Y-72996953D01*
X117679089Y-72973893D01*
X117602702Y-72975353D01*
X117572380Y-72979066D01*
X117477610Y-72989874D01*
X117399222Y-72996067D01*
X117380115Y-72996639D01*
X117315699Y-72992898D01*
X117223571Y-72983506D01*
X117187850Y-72979066D01*
X117100114Y-72972199D01*
X117041153Y-72987115D01*
X116982690Y-73033165D01*
X116961585Y-73053883D01*
X116869195Y-73146273D01*
X116869195Y-74125053D01*
X116943558Y-74158934D01*
X117007590Y-74184030D01*
X117045052Y-74192816D01*
X117054657Y-74165050D01*
X117063635Y-74087470D01*
X117071386Y-73968652D01*
X117077314Y-73817172D01*
X117080173Y-73689195D01*
X117088161Y-73185575D01*
X117157848Y-73175722D01*
X117221229Y-73182611D01*
X117252286Y-73204917D01*
X117260967Y-73246621D01*
X117268378Y-73335456D01*
X117273931Y-73460166D01*
X117277036Y-73609493D01*
X117277484Y-73686339D01*
X117277931Y-74128713D01*
X117369874Y-74160765D01*
X117434949Y-74182557D01*
X117470347Y-74192719D01*
X117471368Y-74192816D01*
X117474920Y-74165191D01*
X117478823Y-74088589D01*
X117482751Y-73972421D01*
X117486376Y-73826096D01*
X117488908Y-73689195D01*
X117496897Y-73185575D01*
X117672069Y-73185575D01*
X117680107Y-73645035D01*
X117688146Y-74104495D01*
X117773543Y-74148656D01*
X117836593Y-74178981D01*
X117873910Y-74192742D01*
X117874987Y-74192816D01*
X117880124Y-74165160D01*
G37*
X117880124Y-74165160D02*
X117884579Y-74088347D01*
X117888071Y-73971609D01*
X117890315Y-73824179D01*
X117891035Y-73669545D01*
X117891035Y-73146273D01*
X117798645Y-73053883D01*
X117734978Y-72996953D01*
X117679089Y-72973893D01*
X117602702Y-72975353D01*
X117572380Y-72979066D01*
X117477610Y-72989874D01*
X117399222Y-72996067D01*
X117380115Y-72996639D01*
X117315699Y-72992898D01*
X117223571Y-72983506D01*
X117187850Y-72979066D01*
X117100114Y-72972199D01*
X117041153Y-72987115D01*
X116982690Y-73033165D01*
X116961585Y-73053883D01*
X116869195Y-73146273D01*
X116869195Y-74125053D01*
X116943558Y-74158934D01*
X117007590Y-74184030D01*
X117045052Y-74192816D01*
X117054657Y-74165050D01*
X117063635Y-74087470D01*
X117071386Y-73968652D01*
X117077314Y-73817172D01*
X117080173Y-73689195D01*
X117088161Y-73185575D01*
X117157848Y-73175722D01*
X117221229Y-73182611D01*
X117252286Y-73204917D01*
X117260967Y-73246621D01*
X117268378Y-73335456D01*
X117273931Y-73460166D01*
X117277036Y-73609493D01*
X117277484Y-73686339D01*
X117277931Y-74128713D01*
X117369874Y-74160765D01*
X117434949Y-74182557D01*
X117470347Y-74192719D01*
X117471368Y-74192816D01*
X117474920Y-74165191D01*
X117478823Y-74088589D01*
X117482751Y-73972421D01*
X117486376Y-73826096D01*
X117488908Y-73689195D01*
X117496897Y-73185575D01*
X117672069Y-73185575D01*
X117680107Y-73645035D01*
X117688146Y-74104495D01*
X117773543Y-74148656D01*
X117836593Y-74178981D01*
X117873910Y-74192742D01*
X117874987Y-74192816D01*
X117880124Y-74165160D01*
G36*
X116693914Y-73950545D02*
G01*
X116693543Y-73732339D01*
X116692108Y-73564481D01*
X116689002Y-73438930D01*
X116683622Y-73347645D01*
X116675362Y-73282585D01*
X116663616Y-73235709D01*
X116647781Y-73198976D01*
X116635790Y-73178009D01*
X116536490Y-73064306D01*
X116410588Y-72993035D01*
X116271291Y-72967462D01*
X116131805Y-72990850D01*
X116048743Y-73032881D01*
X115961545Y-73105589D01*
X115902117Y-73194388D01*
X115866261Y-73310680D01*
X115849781Y-73465865D01*
X115847447Y-73579713D01*
X115847761Y-73587894D01*
X116051724Y-73587894D01*
X116052970Y-73457343D01*
X116058678Y-73370920D01*
X116071804Y-73314382D01*
X116095306Y-73273486D01*
X116123386Y-73242638D01*
X116217688Y-73183095D01*
X116318940Y-73178008D01*
X116414636Y-73227721D01*
X116422084Y-73234457D01*
X116453874Y-73269498D01*
X116473808Y-73311189D01*
X116484600Y-73373238D01*
X116488965Y-73469356D01*
X116489655Y-73575621D01*
X116488159Y-73709120D01*
X116481964Y-73798178D01*
X116468514Y-73856707D01*
X116445251Y-73898618D01*
X116426175Y-73920877D01*
X116337563Y-73977015D01*
X116235508Y-73983765D01*
X116138095Y-73940886D01*
X116119296Y-73924968D01*
X116087293Y-73889618D01*
X116067318Y-73847498D01*
X116056593Y-73784749D01*
X116052339Y-73687513D01*
X116051724Y-73587894D01*
X115847761Y-73587894D01*
X115854504Y-73763053D01*
X115878472Y-73900805D01*
X115923548Y-74004368D01*
X115993928Y-74085144D01*
X116048743Y-74126545D01*
X116148376Y-74171272D01*
X116263855Y-74192033D01*
X116371199Y-74186475D01*
X116431264Y-74164057D01*
X116454835Y-74157677D01*
X116470477Y-74181465D01*
X116481395Y-74245212D01*
X116489655Y-74342313D01*
X116498699Y-74450459D01*
X116511261Y-74515525D01*
X116534119Y-74552732D01*
X116574051Y-74577301D01*
X116599138Y-74588181D01*
X116694023Y-74627928D01*
X116693914Y-73950545D01*
G37*
X116693914Y-73950545D02*
X116693543Y-73732339D01*
X116692108Y-73564481D01*
X116689002Y-73438930D01*
X116683622Y-73347645D01*
X116675362Y-73282585D01*
X116663616Y-73235709D01*
X116647781Y-73198976D01*
X116635790Y-73178009D01*
X116536490Y-73064306D01*
X116410588Y-72993035D01*
X116271291Y-72967462D01*
X116131805Y-72990850D01*
X116048743Y-73032881D01*
X115961545Y-73105589D01*
X115902117Y-73194388D01*
X115866261Y-73310680D01*
X115849781Y-73465865D01*
X115847447Y-73579713D01*
X115847761Y-73587894D01*
X116051724Y-73587894D01*
X116052970Y-73457343D01*
X116058678Y-73370920D01*
X116071804Y-73314382D01*
X116095306Y-73273486D01*
X116123386Y-73242638D01*
X116217688Y-73183095D01*
X116318940Y-73178008D01*
X116414636Y-73227721D01*
X116422084Y-73234457D01*
X116453874Y-73269498D01*
X116473808Y-73311189D01*
X116484600Y-73373238D01*
X116488965Y-73469356D01*
X116489655Y-73575621D01*
X116488159Y-73709120D01*
X116481964Y-73798178D01*
X116468514Y-73856707D01*
X116445251Y-73898618D01*
X116426175Y-73920877D01*
X116337563Y-73977015D01*
X116235508Y-73983765D01*
X116138095Y-73940886D01*
X116119296Y-73924968D01*
X116087293Y-73889618D01*
X116067318Y-73847498D01*
X116056593Y-73784749D01*
X116052339Y-73687513D01*
X116051724Y-73587894D01*
X115847761Y-73587894D01*
X115854504Y-73763053D01*
X115878472Y-73900805D01*
X115923548Y-74004368D01*
X115993928Y-74085144D01*
X116048743Y-74126545D01*
X116148376Y-74171272D01*
X116263855Y-74192033D01*
X116371199Y-74186475D01*
X116431264Y-74164057D01*
X116454835Y-74157677D01*
X116470477Y-74181465D01*
X116481395Y-74245212D01*
X116489655Y-74342313D01*
X116498699Y-74450459D01*
X116511261Y-74515525D01*
X116534119Y-74552732D01*
X116574051Y-74577301D01*
X116599138Y-74588181D01*
X116694023Y-74627928D01*
X116693914Y-73950545D01*
G36*
X115365943Y-74183080D02*
G01*
X115498565Y-74134141D01*
X115606010Y-74047581D01*
X115648032Y-73986648D01*
X115693843Y-73874839D01*
X115692891Y-73793994D01*
X115644808Y-73739622D01*
X115627017Y-73730376D01*
X115550204Y-73701550D01*
X115510976Y-73708935D01*
X115497689Y-73757342D01*
X115497012Y-73784080D01*
X115472686Y-73882452D01*
X115409281Y-73951266D01*
X115321154Y-73984502D01*
X115222663Y-73976139D01*
X115142602Y-73932704D01*
X115115561Y-73907928D01*
X115096394Y-73877871D01*
X115083446Y-73832435D01*
X115075064Y-73761524D01*
X115069593Y-73655040D01*
X115065378Y-73502888D01*
X115064287Y-73454713D01*
X115060307Y-73289905D01*
X115055781Y-73173912D01*
X115048995Y-73097167D01*
X115038231Y-73050107D01*
X115021773Y-73023165D01*
X114997906Y-73006777D01*
X114982626Y-72999537D01*
X114917733Y-72974780D01*
X114879534Y-72966609D01*
X114866912Y-72993897D01*
X114859208Y-73076397D01*
X114856380Y-73215059D01*
X114858386Y-73410838D01*
X114859011Y-73441035D01*
X114863421Y-73619651D01*
X114868635Y-73750077D01*
X114876055Y-73842508D01*
X114887082Y-73907142D01*
X114903117Y-73954175D01*
X114925561Y-73993804D01*
X114937302Y-74010785D01*
X115004619Y-74085920D01*
X115079910Y-74144362D01*
X115089128Y-74149464D01*
X115224133Y-74189740D01*
X115365943Y-74183080D01*
G37*
X115365943Y-74183080D02*
X115498565Y-74134141D01*
X115606010Y-74047581D01*
X115648032Y-73986648D01*
X115693843Y-73874839D01*
X115692891Y-73793994D01*
X115644808Y-73739622D01*
X115627017Y-73730376D01*
X115550204Y-73701550D01*
X115510976Y-73708935D01*
X115497689Y-73757342D01*
X115497012Y-73784080D01*
X115472686Y-73882452D01*
X115409281Y-73951266D01*
X115321154Y-73984502D01*
X115222663Y-73976139D01*
X115142602Y-73932704D01*
X115115561Y-73907928D01*
X115096394Y-73877871D01*
X115083446Y-73832435D01*
X115075064Y-73761524D01*
X115069593Y-73655040D01*
X115065378Y-73502888D01*
X115064287Y-73454713D01*
X115060307Y-73289905D01*
X115055781Y-73173912D01*
X115048995Y-73097167D01*
X115038231Y-73050107D01*
X115021773Y-73023165D01*
X114997906Y-73006777D01*
X114982626Y-72999537D01*
X114917733Y-72974780D01*
X114879534Y-72966609D01*
X114866912Y-72993897D01*
X114859208Y-73076397D01*
X114856380Y-73215059D01*
X114858386Y-73410838D01*
X114859011Y-73441035D01*
X114863421Y-73619651D01*
X114868635Y-73750077D01*
X114876055Y-73842508D01*
X114887082Y-73907142D01*
X114903117Y-73954175D01*
X114925561Y-73993804D01*
X114937302Y-74010785D01*
X115004619Y-74085920D01*
X115079910Y-74144362D01*
X115089128Y-74149464D01*
X115224133Y-74189740D01*
X115365943Y-74183080D01*
G36*
X114379944Y-74180640D02*
G01*
X114494343Y-74138158D01*
X114495652Y-74137342D01*
X114566403Y-74085270D01*
X114618636Y-74024416D01*
X114655371Y-73945113D01*
X114679634Y-73837691D01*
X114694445Y-73692483D01*
X114702829Y-73499821D01*
X114703564Y-73472372D01*
X114714120Y-73058479D01*
X114625291Y-73012544D01*
X114561018Y-72981502D01*
X114522210Y-72966794D01*
X114520415Y-72966609D01*
X114513700Y-72993750D01*
X114508365Y-73066959D01*
X114505083Y-73173919D01*
X114504368Y-73260531D01*
X114504351Y-73400838D01*
X114497937Y-73488949D01*
X114475580Y-73530975D01*
X114427732Y-73533025D01*
X114344849Y-73501210D01*
X114219713Y-73442728D01*
X114127697Y-73394155D01*
X114080371Y-73352014D01*
X114066458Y-73306084D01*
X114066437Y-73303811D01*
X114089395Y-73224689D01*
X114157370Y-73181945D01*
X114261398Y-73175754D01*
X114336330Y-73176828D01*
X114375839Y-73155247D01*
X114400478Y-73103409D01*
X114414659Y-73037368D01*
X114394223Y-72999896D01*
X114386528Y-72994533D01*
X114314083Y-72972994D01*
X114212633Y-72969945D01*
X114108157Y-72984222D01*
X114034125Y-73010312D01*
X113931772Y-73097215D01*
X113873591Y-73218184D01*
X113862069Y-73312692D01*
X113870862Y-73397938D01*
X113902680Y-73467524D01*
X113965684Y-73529328D01*
X114068031Y-73591228D01*
X114217882Y-73661103D01*
X114227012Y-73665052D01*
X114361997Y-73727412D01*
X114445294Y-73778554D01*
X114480997Y-73824512D01*
X114473203Y-73871317D01*
X114426007Y-73925002D01*
X114411894Y-73937356D01*
X114317359Y-73985259D01*
X114219406Y-73983242D01*
X114134097Y-73936276D01*
X114077496Y-73849331D01*
X114072237Y-73832266D01*
X114021023Y-73749496D01*
X113956037Y-73709628D01*
X113862069Y-73670118D01*
X113862069Y-73772342D01*
X113890653Y-73920928D01*
X113975495Y-74057216D01*
X114019645Y-74102809D01*
X114120005Y-74161326D01*
X114247635Y-74187816D01*
X114379944Y-74180640D01*
G37*
X114379944Y-74180640D02*
X114494343Y-74138158D01*
X114495652Y-74137342D01*
X114566403Y-74085270D01*
X114618636Y-74024416D01*
X114655371Y-73945113D01*
X114679634Y-73837691D01*
X114694445Y-73692483D01*
X114702829Y-73499821D01*
X114703564Y-73472372D01*
X114714120Y-73058479D01*
X114625291Y-73012544D01*
X114561018Y-72981502D01*
X114522210Y-72966794D01*
X114520415Y-72966609D01*
X114513700Y-72993750D01*
X114508365Y-73066959D01*
X114505083Y-73173919D01*
X114504368Y-73260531D01*
X114504351Y-73400838D01*
X114497937Y-73488949D01*
X114475580Y-73530975D01*
X114427732Y-73533025D01*
X114344849Y-73501210D01*
X114219713Y-73442728D01*
X114127697Y-73394155D01*
X114080371Y-73352014D01*
X114066458Y-73306084D01*
X114066437Y-73303811D01*
X114089395Y-73224689D01*
X114157370Y-73181945D01*
X114261398Y-73175754D01*
X114336330Y-73176828D01*
X114375839Y-73155247D01*
X114400478Y-73103409D01*
X114414659Y-73037368D01*
X114394223Y-72999896D01*
X114386528Y-72994533D01*
X114314083Y-72972994D01*
X114212633Y-72969945D01*
X114108157Y-72984222D01*
X114034125Y-73010312D01*
X113931772Y-73097215D01*
X113873591Y-73218184D01*
X113862069Y-73312692D01*
X113870862Y-73397938D01*
X113902680Y-73467524D01*
X113965684Y-73529328D01*
X114068031Y-73591228D01*
X114217882Y-73661103D01*
X114227012Y-73665052D01*
X114361997Y-73727412D01*
X114445294Y-73778554D01*
X114480997Y-73824512D01*
X114473203Y-73871317D01*
X114426007Y-73925002D01*
X114411894Y-73937356D01*
X114317359Y-73985259D01*
X114219406Y-73983242D01*
X114134097Y-73936276D01*
X114077496Y-73849331D01*
X114072237Y-73832266D01*
X114021023Y-73749496D01*
X113956037Y-73709628D01*
X113862069Y-73670118D01*
X113862069Y-73772342D01*
X113890653Y-73920928D01*
X113975495Y-74057216D01*
X114019645Y-74102809D01*
X114120005Y-74161326D01*
X114247635Y-74187816D01*
X114379944Y-74180640D01*
G36*
X113044598Y-74381143D02*
G01*
X113053154Y-74261812D01*
X113062981Y-74191494D01*
X113076599Y-74160821D01*
X113096527Y-74160429D01*
X113102989Y-74164090D01*
X113188940Y-74190602D01*
X113300745Y-74189054D01*
X113414414Y-74161801D01*
X113485510Y-74126545D01*
X113558405Y-74070222D01*
X113611693Y-74006481D01*
X113648275Y-73925490D01*
X113671050Y-73817414D01*
X113682919Y-73672420D01*
X113686782Y-73480674D01*
X113686851Y-73443891D01*
X113686897Y-73030712D01*
X113594954Y-72998661D01*
X113529652Y-72976856D01*
X113493824Y-72966703D01*
X113492770Y-72966609D01*
X113489242Y-72994140D01*
X113486239Y-73070077D01*
X113483990Y-73184435D01*
X113482724Y-73327231D01*
X113482529Y-73414049D01*
X113482123Y-73585227D01*
X113480032Y-73707912D01*
X113474947Y-73792000D01*
X113465560Y-73847386D01*
X113450561Y-73883968D01*
X113428642Y-73911641D01*
X113414957Y-73924968D01*
X113320949Y-73978672D01*
X113218364Y-73982693D01*
X113125290Y-73937275D01*
X113108078Y-73920877D01*
X113082832Y-73890043D01*
X113065320Y-73853469D01*
X113054142Y-73800585D01*
X113047896Y-73720823D01*
X113045182Y-73603615D01*
X113044598Y-73442009D01*
X113044598Y-73030712D01*
X112952655Y-72998661D01*
X112887353Y-72976856D01*
X112851525Y-72966703D01*
X112850471Y-72966609D01*
X112847775Y-72994552D01*
X112845345Y-73073370D01*
X112843278Y-73195547D01*
X112841671Y-73353568D01*
X112840623Y-73539917D01*
X112840231Y-73747080D01*
X112840230Y-73756294D01*
X112840230Y-74545980D01*
X112935115Y-74586003D01*
X113030000Y-74626027D01*
X113044598Y-74381143D01*
G37*
X113044598Y-74381143D02*
X113053154Y-74261812D01*
X113062981Y-74191494D01*
X113076599Y-74160821D01*
X113096527Y-74160429D01*
X113102989Y-74164090D01*
X113188940Y-74190602D01*
X113300745Y-74189054D01*
X113414414Y-74161801D01*
X113485510Y-74126545D01*
X113558405Y-74070222D01*
X113611693Y-74006481D01*
X113648275Y-73925490D01*
X113671050Y-73817414D01*
X113682919Y-73672420D01*
X113686782Y-73480674D01*
X113686851Y-73443891D01*
X113686897Y-73030712D01*
X113594954Y-72998661D01*
X113529652Y-72976856D01*
X113493824Y-72966703D01*
X113492770Y-72966609D01*
X113489242Y-72994140D01*
X113486239Y-73070077D01*
X113483990Y-73184435D01*
X113482724Y-73327231D01*
X113482529Y-73414049D01*
X113482123Y-73585227D01*
X113480032Y-73707912D01*
X113474947Y-73792000D01*
X113465560Y-73847386D01*
X113450561Y-73883968D01*
X113428642Y-73911641D01*
X113414957Y-73924968D01*
X113320949Y-73978672D01*
X113218364Y-73982693D01*
X113125290Y-73937275D01*
X113108078Y-73920877D01*
X113082832Y-73890043D01*
X113065320Y-73853469D01*
X113054142Y-73800585D01*
X113047896Y-73720823D01*
X113045182Y-73603615D01*
X113044598Y-73442009D01*
X113044598Y-73030712D01*
X112952655Y-72998661D01*
X112887353Y-72976856D01*
X112851525Y-72966703D01*
X112850471Y-72966609D01*
X112847775Y-72994552D01*
X112845345Y-73073370D01*
X112843278Y-73195547D01*
X112841671Y-73353568D01*
X112840623Y-73539917D01*
X112840231Y-73747080D01*
X112840230Y-73756294D01*
X112840230Y-74545980D01*
X112935115Y-74586003D01*
X113030000Y-74626027D01*
X113044598Y-74381143D01*
G36*
X110615552Y-74220324D02*
G01*
X110730658Y-74142889D01*
X110819611Y-74031051D01*
X110872749Y-73888735D01*
X110883497Y-73783985D01*
X110882276Y-73740274D01*
X110872056Y-73706806D01*
X110843961Y-73676821D01*
X110789116Y-73643560D01*
X110698645Y-73600262D01*
X110563672Y-73540167D01*
X110562989Y-73539866D01*
X110438751Y-73482963D01*
X110336873Y-73432435D01*
X110267767Y-73393720D01*
X110241846Y-73372260D01*
X110241839Y-73372087D01*
X110264685Y-73325356D01*
X110318109Y-73273846D01*
X110379442Y-73236739D01*
X110410515Y-73229368D01*
X110495289Y-73254862D01*
X110568293Y-73318709D01*
X110603913Y-73388906D01*
X110638180Y-73440657D01*
X110705303Y-73499591D01*
X110784208Y-73550504D01*
X110853821Y-73578191D01*
X110868377Y-73579713D01*
X110884763Y-73554679D01*
X110885750Y-73490689D01*
X110873708Y-73404407D01*
X110851007Y-73312499D01*
X110820014Y-73231631D01*
X110818448Y-73228491D01*
X110725181Y-73098266D01*
X110604304Y-73009689D01*
X110467027Y-72966214D01*
X110324560Y-72971294D01*
X110188112Y-73028384D01*
X110182045Y-73032398D01*
X110074710Y-73129674D01*
X110004132Y-73256591D01*
X109965074Y-73423474D01*
X109959832Y-73470361D01*
X109950548Y-73691671D01*
X109961678Y-73794876D01*
X110241839Y-73794876D01*
X110245479Y-73730497D01*
X110265389Y-73711709D01*
X110315026Y-73725765D01*
X110393267Y-73758991D01*
X110480726Y-73800641D01*
X110482899Y-73801744D01*
X110557030Y-73840735D01*
X110586781Y-73866756D01*
X110579445Y-73894035D01*
X110548553Y-73929879D01*
X110469960Y-73981749D01*
X110385323Y-73985561D01*
X110309403Y-73947811D01*
X110256965Y-73874999D01*
X110241839Y-73794876D01*
X109961678Y-73794876D01*
X109969644Y-73868739D01*
X110018634Y-74009171D01*
X110086836Y-74107553D01*
X110209935Y-74206970D01*
X110345528Y-74256289D01*
X110483955Y-74259432D01*
X110615552Y-74220324D01*
G37*
X110615552Y-74220324D02*
X110730658Y-74142889D01*
X110819611Y-74031051D01*
X110872749Y-73888735D01*
X110883497Y-73783985D01*
X110882276Y-73740274D01*
X110872056Y-73706806D01*
X110843961Y-73676821D01*
X110789116Y-73643560D01*
X110698645Y-73600262D01*
X110563672Y-73540167D01*
X110562989Y-73539866D01*
X110438751Y-73482963D01*
X110336873Y-73432435D01*
X110267767Y-73393720D01*
X110241846Y-73372260D01*
X110241839Y-73372087D01*
X110264685Y-73325356D01*
X110318109Y-73273846D01*
X110379442Y-73236739D01*
X110410515Y-73229368D01*
X110495289Y-73254862D01*
X110568293Y-73318709D01*
X110603913Y-73388906D01*
X110638180Y-73440657D01*
X110705303Y-73499591D01*
X110784208Y-73550504D01*
X110853821Y-73578191D01*
X110868377Y-73579713D01*
X110884763Y-73554679D01*
X110885750Y-73490689D01*
X110873708Y-73404407D01*
X110851007Y-73312499D01*
X110820014Y-73231631D01*
X110818448Y-73228491D01*
X110725181Y-73098266D01*
X110604304Y-73009689D01*
X110467027Y-72966214D01*
X110324560Y-72971294D01*
X110188112Y-73028384D01*
X110182045Y-73032398D01*
X110074710Y-73129674D01*
X110004132Y-73256591D01*
X109965074Y-73423474D01*
X109959832Y-73470361D01*
X109950548Y-73691671D01*
X109961678Y-73794876D01*
X110241839Y-73794876D01*
X110245479Y-73730497D01*
X110265389Y-73711709D01*
X110315026Y-73725765D01*
X110393267Y-73758991D01*
X110480726Y-73800641D01*
X110482899Y-73801744D01*
X110557030Y-73840735D01*
X110586781Y-73866756D01*
X110579445Y-73894035D01*
X110548553Y-73929879D01*
X110469960Y-73981749D01*
X110385323Y-73985561D01*
X110309403Y-73947811D01*
X110256965Y-73874999D01*
X110241839Y-73794876D01*
X109961678Y-73794876D01*
X109969644Y-73868739D01*
X110018634Y-74009171D01*
X110086836Y-74107553D01*
X110209935Y-74206970D01*
X110345528Y-74256289D01*
X110483955Y-74259432D01*
X110615552Y-74220324D01*
G36*
X108348221Y-74238985D02*
G01*
X108485061Y-74167032D01*
X108586051Y-74051234D01*
X108621925Y-73976787D01*
X108649839Y-73865008D01*
X108664129Y-73723773D01*
X108665484Y-73569629D01*
X108654595Y-73419121D01*
X108632153Y-73288795D01*
X108598850Y-73195197D01*
X108588615Y-73179078D01*
X108467382Y-73058751D01*
X108323387Y-72986683D01*
X108167139Y-72965592D01*
X108009148Y-72998198D01*
X107965180Y-73017747D01*
X107879556Y-73077988D01*
X107804408Y-73157865D01*
X107797306Y-73167996D01*
X107768439Y-73216819D01*
X107749357Y-73269010D01*
X107738084Y-73337715D01*
X107732645Y-73436082D01*
X107731062Y-73577256D01*
X107731035Y-73608908D01*
X107731107Y-73618981D01*
X108022989Y-73618981D01*
X108024687Y-73485744D01*
X108031372Y-73397326D01*
X108045425Y-73340215D01*
X108069229Y-73300898D01*
X108081379Y-73287759D01*
X108151236Y-73237828D01*
X108219059Y-73240105D01*
X108287635Y-73283416D01*
X108328535Y-73329654D01*
X108352758Y-73397143D01*
X108366361Y-73503567D01*
X108367294Y-73515980D01*
X108369616Y-73708853D01*
X108345350Y-73852100D01*
X108294824Y-73944840D01*
X108218368Y-73986193D01*
X108191076Y-73988448D01*
X108119411Y-73977107D01*
X108070390Y-73937816D01*
X108040418Y-73862674D01*
X108025899Y-73743778D01*
X108022989Y-73618981D01*
X107731107Y-73618981D01*
X107732122Y-73759341D01*
X107736688Y-73864451D01*
X107746688Y-73937286D01*
X107764079Y-73990892D01*
X107790816Y-74038319D01*
X107796724Y-74047136D01*
X107896032Y-74165993D01*
X108004242Y-74234992D01*
X108135981Y-74262381D01*
X108180717Y-74263719D01*
X108348221Y-74238985D01*
G37*
X108348221Y-74238985D02*
X108485061Y-74167032D01*
X108586051Y-74051234D01*
X108621925Y-73976787D01*
X108649839Y-73865008D01*
X108664129Y-73723773D01*
X108665484Y-73569629D01*
X108654595Y-73419121D01*
X108632153Y-73288795D01*
X108598850Y-73195197D01*
X108588615Y-73179078D01*
X108467382Y-73058751D01*
X108323387Y-72986683D01*
X108167139Y-72965592D01*
X108009148Y-72998198D01*
X107965180Y-73017747D01*
X107879556Y-73077988D01*
X107804408Y-73157865D01*
X107797306Y-73167996D01*
X107768439Y-73216819D01*
X107749357Y-73269010D01*
X107738084Y-73337715D01*
X107732645Y-73436082D01*
X107731062Y-73577256D01*
X107731035Y-73608908D01*
X107731107Y-73618981D01*
X108022989Y-73618981D01*
X108024687Y-73485744D01*
X108031372Y-73397326D01*
X108045425Y-73340215D01*
X108069229Y-73300898D01*
X108081379Y-73287759D01*
X108151236Y-73237828D01*
X108219059Y-73240105D01*
X108287635Y-73283416D01*
X108328535Y-73329654D01*
X108352758Y-73397143D01*
X108366361Y-73503567D01*
X108367294Y-73515980D01*
X108369616Y-73708853D01*
X108345350Y-73852100D01*
X108294824Y-73944840D01*
X108218368Y-73986193D01*
X108191076Y-73988448D01*
X108119411Y-73977107D01*
X108070390Y-73937816D01*
X108040418Y-73862674D01*
X108025899Y-73743778D01*
X108022989Y-73618981D01*
X107731107Y-73618981D01*
X107732122Y-73759341D01*
X107736688Y-73864451D01*
X107746688Y-73937286D01*
X107764079Y-73990892D01*
X107790816Y-74038319D01*
X107796724Y-74047136D01*
X107896032Y-74165993D01*
X108004242Y-74234992D01*
X108135981Y-74262381D01*
X108180717Y-74263719D01*
X108348221Y-74238985D01*
G36*
X111717429Y-74227281D02*
G01*
X111811123Y-74173086D01*
X111876264Y-74119293D01*
X111923907Y-74062934D01*
X111956728Y-73994013D01*
X111977406Y-73902532D01*
X111988620Y-73778494D01*
X111993049Y-73611902D01*
X111993563Y-73492149D01*
X111993563Y-73051341D01*
X111869483Y-72995717D01*
X111745402Y-72940093D01*
X111730805Y-73422905D01*
X111724773Y-73603221D01*
X111718445Y-73734099D01*
X111710606Y-73824489D01*
X111700037Y-73883336D01*
X111685523Y-73919587D01*
X111665848Y-73942190D01*
X111659535Y-73947083D01*
X111563888Y-73985294D01*
X111467207Y-73970173D01*
X111409655Y-73930057D01*
X111386245Y-73901630D01*
X111370039Y-73864328D01*
X111359741Y-73807777D01*
X111354049Y-73721606D01*
X111351664Y-73595442D01*
X111351264Y-73463958D01*
X111351186Y-73299001D01*
X111348361Y-73182239D01*
X111338907Y-73103490D01*
X111318940Y-73052569D01*
X111284576Y-73019294D01*
X111231932Y-72993480D01*
X111161617Y-72966656D01*
X111084820Y-72937458D01*
X111093962Y-73455654D01*
X111097643Y-73642461D01*
X111101950Y-73780510D01*
X111108123Y-73879432D01*
X111117402Y-73948855D01*
X111131027Y-73998410D01*
X111150239Y-74037727D01*
X111173402Y-74072416D01*
X111285152Y-74183230D01*
X111421513Y-74247311D01*
X111569825Y-74262661D01*
X111717429Y-74227281D01*
G37*
X111717429Y-74227281D02*
X111811123Y-74173086D01*
X111876264Y-74119293D01*
X111923907Y-74062934D01*
X111956728Y-73994013D01*
X111977406Y-73902532D01*
X111988620Y-73778494D01*
X111993049Y-73611902D01*
X111993563Y-73492149D01*
X111993563Y-73051341D01*
X111869483Y-72995717D01*
X111745402Y-72940093D01*
X111730805Y-73422905D01*
X111724773Y-73603221D01*
X111718445Y-73734099D01*
X111710606Y-73824489D01*
X111700037Y-73883336D01*
X111685523Y-73919587D01*
X111665848Y-73942190D01*
X111659535Y-73947083D01*
X111563888Y-73985294D01*
X111467207Y-73970173D01*
X111409655Y-73930057D01*
X111386245Y-73901630D01*
X111370039Y-73864328D01*
X111359741Y-73807777D01*
X111354049Y-73721606D01*
X111351664Y-73595442D01*
X111351264Y-73463958D01*
X111351186Y-73299001D01*
X111348361Y-73182239D01*
X111338907Y-73103490D01*
X111318940Y-73052569D01*
X111284576Y-73019294D01*
X111231932Y-72993480D01*
X111161617Y-72966656D01*
X111084820Y-72937458D01*
X111093962Y-73455654D01*
X111097643Y-73642461D01*
X111101950Y-73780510D01*
X111108123Y-73879432D01*
X111117402Y-73948855D01*
X111131027Y-73998410D01*
X111150239Y-74037727D01*
X111173402Y-74072416D01*
X111285152Y-74183230D01*
X111421513Y-74247311D01*
X111569825Y-74262661D01*
X111717429Y-74227281D01*
G36*
X109471900Y-74243097D02*
G01*
X109583450Y-74187478D01*
X109681908Y-74085069D01*
X109709023Y-74047136D01*
X109738562Y-73997500D01*
X109757728Y-73943588D01*
X109768693Y-73871636D01*
X109773629Y-73767878D01*
X109774713Y-73630899D01*
X109769818Y-73443185D01*
X109752804Y-73302242D01*
X109720177Y-73197092D01*
X109668442Y-73116757D01*
X109594104Y-73050259D01*
X109588642Y-73046322D01*
X109515380Y-73006047D01*
X109427160Y-72986120D01*
X109314962Y-72981207D01*
X109132567Y-72981207D01*
X109132491Y-72804143D01*
X109130793Y-72705530D01*
X109120450Y-72647686D01*
X109093422Y-72612994D01*
X109041668Y-72583836D01*
X109029239Y-72577879D01*
X108971077Y-72549961D01*
X108926044Y-72532328D01*
X108892559Y-72530806D01*
X108869038Y-72551219D01*
X108853900Y-72599393D01*
X108845563Y-72681154D01*
X108842444Y-72802328D01*
X108842960Y-72968740D01*
X108845529Y-73186215D01*
X108846332Y-73251264D01*
X108849222Y-73475498D01*
X108851812Y-73622179D01*
X109132414Y-73622179D01*
X109133991Y-73497674D01*
X109141000Y-73416213D01*
X109156858Y-73362485D01*
X109184981Y-73321177D01*
X109204075Y-73301029D01*
X109282135Y-73242079D01*
X109351247Y-73237280D01*
X109422560Y-73285962D01*
X109424368Y-73287759D01*
X109453383Y-73325382D01*
X109471033Y-73376516D01*
X109479936Y-73455262D01*
X109482709Y-73575724D01*
X109482759Y-73602412D01*
X109476058Y-73768417D01*
X109454248Y-73883495D01*
X109414765Y-73953746D01*
X109355044Y-73985271D01*
X109320528Y-73988448D01*
X109238611Y-73973540D01*
X109182421Y-73924452D01*
X109148598Y-73834638D01*
X109133780Y-73697555D01*
X109132414Y-73622179D01*
X108851812Y-73622179D01*
X108852287Y-73649048D01*
X108856247Y-73779618D01*
X108861826Y-73874913D01*
X108869746Y-73942636D01*
X108880731Y-73990493D01*
X108895501Y-74026187D01*
X108914782Y-74057422D01*
X108923049Y-74069176D01*
X109032712Y-74180203D01*
X109171365Y-74243153D01*
X109331754Y-74260703D01*
X109471900Y-74243097D01*
G37*
X109471900Y-74243097D02*
X109583450Y-74187478D01*
X109681908Y-74085069D01*
X109709023Y-74047136D01*
X109738562Y-73997500D01*
X109757728Y-73943588D01*
X109768693Y-73871636D01*
X109773629Y-73767878D01*
X109774713Y-73630899D01*
X109769818Y-73443185D01*
X109752804Y-73302242D01*
X109720177Y-73197092D01*
X109668442Y-73116757D01*
X109594104Y-73050259D01*
X109588642Y-73046322D01*
X109515380Y-73006047D01*
X109427160Y-72986120D01*
X109314962Y-72981207D01*
X109132567Y-72981207D01*
X109132491Y-72804143D01*
X109130793Y-72705530D01*
X109120450Y-72647686D01*
X109093422Y-72612994D01*
X109041668Y-72583836D01*
X109029239Y-72577879D01*
X108971077Y-72549961D01*
X108926044Y-72532328D01*
X108892559Y-72530806D01*
X108869038Y-72551219D01*
X108853900Y-72599393D01*
X108845563Y-72681154D01*
X108842444Y-72802328D01*
X108842960Y-72968740D01*
X108845529Y-73186215D01*
X108846332Y-73251264D01*
X108849222Y-73475498D01*
X108851812Y-73622179D01*
X109132414Y-73622179D01*
X109133991Y-73497674D01*
X109141000Y-73416213D01*
X109156858Y-73362485D01*
X109184981Y-73321177D01*
X109204075Y-73301029D01*
X109282135Y-73242079D01*
X109351247Y-73237280D01*
X109422560Y-73285962D01*
X109424368Y-73287759D01*
X109453383Y-73325382D01*
X109471033Y-73376516D01*
X109479936Y-73455262D01*
X109482709Y-73575724D01*
X109482759Y-73602412D01*
X109476058Y-73768417D01*
X109454248Y-73883495D01*
X109414765Y-73953746D01*
X109355044Y-73985271D01*
X109320528Y-73988448D01*
X109238611Y-73973540D01*
X109182421Y-73924452D01*
X109148598Y-73834638D01*
X109133780Y-73697555D01*
X109132414Y-73622179D01*
X108851812Y-73622179D01*
X108852287Y-73649048D01*
X108856247Y-73779618D01*
X108861826Y-73874913D01*
X108869746Y-73942636D01*
X108880731Y-73990493D01*
X108895501Y-74026187D01*
X108914782Y-74057422D01*
X108923049Y-74069176D01*
X109032712Y-74180203D01*
X109171365Y-74243153D01*
X109331754Y-74260703D01*
X109471900Y-74243097D01*
D13*
X63500000Y-121920000D02*
X63500000Y-123190000D01*
X64770000Y-121920000D02*
X63500000Y-121920000D01*
X164210000Y-124232929D02*
X164210000Y-124630000D01*
X163450000Y-124232929D02*
X163450000Y-124630000D01*
X164210000Y-133290000D02*
X164210000Y-127290000D01*
X163450000Y-133290000D02*
X164210000Y-133290000D01*
X163450000Y-127290000D02*
X163450000Y-133290000D01*
X162560000Y-124630000D02*
X162560000Y-127290000D01*
X161670000Y-124232929D02*
X161670000Y-124630000D01*
X160910000Y-124232929D02*
X160910000Y-124630000D01*
X161670000Y-133290000D02*
X161670000Y-127290000D01*
X160910000Y-133290000D02*
X161670000Y-133290000D01*
X160910000Y-127290000D02*
X160910000Y-133290000D01*
X160020000Y-124630000D02*
X160020000Y-127290000D01*
X159130000Y-124232929D02*
X159130000Y-124630000D01*
X158370000Y-124232929D02*
X158370000Y-124630000D01*
X159130000Y-133290000D02*
X159130000Y-127290000D01*
X158370000Y-133290000D02*
X159130000Y-133290000D01*
X158370000Y-127290000D02*
X158370000Y-133290000D01*
X157480000Y-124630000D02*
X157480000Y-127290000D01*
X156590000Y-124232929D02*
X156590000Y-124630000D01*
X155830000Y-124232929D02*
X155830000Y-124630000D01*
X156590000Y-133290000D02*
X156590000Y-127290000D01*
X155830000Y-133290000D02*
X156590000Y-133290000D01*
X155830000Y-127290000D02*
X155830000Y-133290000D01*
X154940000Y-124630000D02*
X154940000Y-127290000D01*
X154050000Y-124232929D02*
X154050000Y-124630000D01*
X153290000Y-124232929D02*
X153290000Y-124630000D01*
X154050000Y-133290000D02*
X154050000Y-127290000D01*
X153290000Y-133290000D02*
X154050000Y-133290000D01*
X153290000Y-127290000D02*
X153290000Y-133290000D01*
X152400000Y-124630000D02*
X152400000Y-127290000D01*
X151510000Y-124232929D02*
X151510000Y-124630000D01*
X150750000Y-124232929D02*
X150750000Y-124630000D01*
X151510000Y-133290000D02*
X151510000Y-127290000D01*
X150750000Y-133290000D02*
X151510000Y-133290000D01*
X150750000Y-127290000D02*
X150750000Y-133290000D01*
X149860000Y-124630000D02*
X149860000Y-127290000D01*
X148970000Y-124232929D02*
X148970000Y-124630000D01*
X148210000Y-124232929D02*
X148210000Y-124630000D01*
X148970000Y-133290000D02*
X148970000Y-127290000D01*
X148210000Y-133290000D02*
X148970000Y-133290000D01*
X148210000Y-127290000D02*
X148210000Y-133290000D01*
X147320000Y-124630000D02*
X147320000Y-127290000D01*
X146430000Y-124232929D02*
X146430000Y-124630000D01*
X145670000Y-124232929D02*
X145670000Y-124630000D01*
X146430000Y-133290000D02*
X146430000Y-127290000D01*
X145670000Y-133290000D02*
X146430000Y-133290000D01*
X145670000Y-127290000D02*
X145670000Y-133290000D01*
X144780000Y-124630000D02*
X144780000Y-127290000D01*
X143890000Y-124232929D02*
X143890000Y-124630000D01*
X143130000Y-124232929D02*
X143130000Y-124630000D01*
X143890000Y-133290000D02*
X143890000Y-127290000D01*
X143130000Y-133290000D02*
X143890000Y-133290000D01*
X143130000Y-127290000D02*
X143130000Y-133290000D01*
X142240000Y-124630000D02*
X142240000Y-127290000D01*
X141350000Y-124232929D02*
X141350000Y-124630000D01*
X140590000Y-124232929D02*
X140590000Y-124630000D01*
X141350000Y-133290000D02*
X141350000Y-127290000D01*
X140590000Y-133290000D02*
X141350000Y-133290000D01*
X140590000Y-127290000D02*
X140590000Y-133290000D01*
X139700000Y-124630000D02*
X139700000Y-127290000D01*
X138810000Y-124232929D02*
X138810000Y-124630000D01*
X138050000Y-124232929D02*
X138050000Y-124630000D01*
X138810000Y-133290000D02*
X138810000Y-127290000D01*
X138050000Y-133290000D02*
X138810000Y-133290000D01*
X138050000Y-127290000D02*
X138050000Y-133290000D01*
X137160000Y-124630000D02*
X137160000Y-127290000D01*
X136270000Y-124232929D02*
X136270000Y-124630000D01*
X135510000Y-124232929D02*
X135510000Y-124630000D01*
X136270000Y-133290000D02*
X136270000Y-127290000D01*
X135510000Y-133290000D02*
X136270000Y-133290000D01*
X135510000Y-127290000D02*
X135510000Y-133290000D01*
X134620000Y-124630000D02*
X134620000Y-127290000D01*
X133730000Y-124232929D02*
X133730000Y-124630000D01*
X132970000Y-124232929D02*
X132970000Y-124630000D01*
X133730000Y-133290000D02*
X133730000Y-127290000D01*
X132970000Y-133290000D02*
X133730000Y-133290000D01*
X132970000Y-127290000D02*
X132970000Y-133290000D01*
X132080000Y-124630000D02*
X132080000Y-127290000D01*
X131190000Y-124232929D02*
X131190000Y-124630000D01*
X130430000Y-124232929D02*
X130430000Y-124630000D01*
X131190000Y-133290000D02*
X131190000Y-127290000D01*
X130430000Y-133290000D02*
X131190000Y-133290000D01*
X130430000Y-127290000D02*
X130430000Y-133290000D01*
X129540000Y-124630000D02*
X129540000Y-127290000D01*
X128650000Y-124232929D02*
X128650000Y-124630000D01*
X127890000Y-124232929D02*
X127890000Y-124630000D01*
X128650000Y-133290000D02*
X128650000Y-127290000D01*
X127890000Y-133290000D02*
X128650000Y-133290000D01*
X127890000Y-127290000D02*
X127890000Y-133290000D01*
X127000000Y-124630000D02*
X127000000Y-127290000D01*
X126110000Y-124232929D02*
X126110000Y-124630000D01*
X125350000Y-124232929D02*
X125350000Y-124630000D01*
X126110000Y-133290000D02*
X126110000Y-127290000D01*
X125350000Y-133290000D02*
X126110000Y-133290000D01*
X125350000Y-127290000D02*
X125350000Y-133290000D01*
X124460000Y-124630000D02*
X124460000Y-127290000D01*
X123570000Y-124232929D02*
X123570000Y-124630000D01*
X122810000Y-124232929D02*
X122810000Y-124630000D01*
X123570000Y-133290000D02*
X123570000Y-127290000D01*
X122810000Y-133290000D02*
X123570000Y-133290000D01*
X122810000Y-127290000D02*
X122810000Y-133290000D01*
X121920000Y-124630000D02*
X121920000Y-127290000D01*
X121030000Y-124232929D02*
X121030000Y-124630000D01*
X120270000Y-124232929D02*
X120270000Y-124630000D01*
X121030000Y-133290000D02*
X121030000Y-127290000D01*
X120270000Y-133290000D02*
X121030000Y-133290000D01*
X120270000Y-127290000D02*
X120270000Y-133290000D01*
X119380000Y-124630000D02*
X119380000Y-127290000D01*
X118490000Y-124232929D02*
X118490000Y-124630000D01*
X117730000Y-124232929D02*
X117730000Y-124630000D01*
X118490000Y-133290000D02*
X118490000Y-127290000D01*
X117730000Y-133290000D02*
X118490000Y-133290000D01*
X117730000Y-127290000D02*
X117730000Y-133290000D01*
X116840000Y-124630000D02*
X116840000Y-127290000D01*
X115950000Y-124232929D02*
X115950000Y-124630000D01*
X115190000Y-124232929D02*
X115190000Y-124630000D01*
X115950000Y-133290000D02*
X115950000Y-127290000D01*
X115190000Y-133290000D02*
X115950000Y-133290000D01*
X115190000Y-127290000D02*
X115190000Y-133290000D01*
X114300000Y-124630000D02*
X114300000Y-127290000D01*
X113410000Y-124232929D02*
X113410000Y-124630000D01*
X112650000Y-124232929D02*
X112650000Y-124630000D01*
X113410000Y-133290000D02*
X113410000Y-127290000D01*
X112650000Y-133290000D02*
X113410000Y-133290000D01*
X112650000Y-127290000D02*
X112650000Y-133290000D01*
X111760000Y-124630000D02*
X111760000Y-127290000D01*
X110870000Y-124232929D02*
X110870000Y-124630000D01*
X110110000Y-124232929D02*
X110110000Y-124630000D01*
X110870000Y-133290000D02*
X110870000Y-127290000D01*
X110110000Y-133290000D02*
X110870000Y-133290000D01*
X110110000Y-127290000D02*
X110110000Y-133290000D01*
X109220000Y-124630000D02*
X109220000Y-127290000D01*
X108330000Y-124232929D02*
X108330000Y-124630000D01*
X107570000Y-124232929D02*
X107570000Y-124630000D01*
X108330000Y-133290000D02*
X108330000Y-127290000D01*
X107570000Y-133290000D02*
X108330000Y-133290000D01*
X107570000Y-127290000D02*
X107570000Y-133290000D01*
X106680000Y-124630000D02*
X106680000Y-127290000D01*
X105790000Y-124232929D02*
X105790000Y-124630000D01*
X105030000Y-124232929D02*
X105030000Y-124630000D01*
X105790000Y-133290000D02*
X105790000Y-127290000D01*
X105030000Y-133290000D02*
X105790000Y-133290000D01*
X105030000Y-127290000D02*
X105030000Y-133290000D01*
X104140000Y-124630000D02*
X104140000Y-127290000D01*
X103250000Y-124232929D02*
X103250000Y-124630000D01*
X102490000Y-124232929D02*
X102490000Y-124630000D01*
X103250000Y-133290000D02*
X103250000Y-127290000D01*
X102490000Y-133290000D02*
X103250000Y-133290000D01*
X102490000Y-127290000D02*
X102490000Y-133290000D01*
X101600000Y-124630000D02*
X101600000Y-127290000D01*
X100710000Y-124232929D02*
X100710000Y-124630000D01*
X99950000Y-124232929D02*
X99950000Y-124630000D01*
X100710000Y-133290000D02*
X100710000Y-127290000D01*
X99950000Y-133290000D02*
X100710000Y-133290000D01*
X99950000Y-127290000D02*
X99950000Y-133290000D01*
X99060000Y-124630000D02*
X99060000Y-127290000D01*
X98170000Y-124232929D02*
X98170000Y-124630000D01*
X97410000Y-124232929D02*
X97410000Y-124630000D01*
X98170000Y-133290000D02*
X98170000Y-127290000D01*
X97410000Y-133290000D02*
X98170000Y-133290000D01*
X97410000Y-127290000D02*
X97410000Y-133290000D01*
X96520000Y-124630000D02*
X96520000Y-127290000D01*
X95630000Y-124232929D02*
X95630000Y-124630000D01*
X94870000Y-124232929D02*
X94870000Y-124630000D01*
X95630000Y-133290000D02*
X95630000Y-127290000D01*
X94870000Y-133290000D02*
X95630000Y-133290000D01*
X94870000Y-127290000D02*
X94870000Y-133290000D01*
X93980000Y-124630000D02*
X93980000Y-127290000D01*
X93090000Y-124232929D02*
X93090000Y-124630000D01*
X92330000Y-124232929D02*
X92330000Y-124630000D01*
X93090000Y-133290000D02*
X93090000Y-127290000D01*
X92330000Y-133290000D02*
X93090000Y-133290000D01*
X92330000Y-127290000D02*
X92330000Y-133290000D01*
X91440000Y-124630000D02*
X91440000Y-127290000D01*
X90550000Y-124232929D02*
X90550000Y-124630000D01*
X89790000Y-124232929D02*
X89790000Y-124630000D01*
X90550000Y-133290000D02*
X90550000Y-127290000D01*
X89790000Y-133290000D02*
X90550000Y-133290000D01*
X89790000Y-127290000D02*
X89790000Y-133290000D01*
X88900000Y-124630000D02*
X88900000Y-127290000D01*
X88010000Y-124232929D02*
X88010000Y-124630000D01*
X87250000Y-124232929D02*
X87250000Y-124630000D01*
X88010000Y-133290000D02*
X88010000Y-127290000D01*
X87250000Y-133290000D02*
X88010000Y-133290000D01*
X87250000Y-127290000D02*
X87250000Y-133290000D01*
X86360000Y-124630000D02*
X86360000Y-127290000D01*
X85470000Y-124232929D02*
X85470000Y-124630000D01*
X84710000Y-124232929D02*
X84710000Y-124630000D01*
X85470000Y-133290000D02*
X85470000Y-127290000D01*
X84710000Y-133290000D02*
X85470000Y-133290000D01*
X84710000Y-127290000D02*
X84710000Y-133290000D01*
X83820000Y-124630000D02*
X83820000Y-127290000D01*
X82930000Y-124232929D02*
X82930000Y-124630000D01*
X82170000Y-124232929D02*
X82170000Y-124630000D01*
X82930000Y-133290000D02*
X82930000Y-127290000D01*
X82170000Y-133290000D02*
X82930000Y-133290000D01*
X82170000Y-127290000D02*
X82170000Y-133290000D01*
X81280000Y-124630000D02*
X81280000Y-127290000D01*
X80390000Y-124232929D02*
X80390000Y-124630000D01*
X79630000Y-124232929D02*
X79630000Y-124630000D01*
X80390000Y-133290000D02*
X80390000Y-127290000D01*
X79630000Y-133290000D02*
X80390000Y-133290000D01*
X79630000Y-127290000D02*
X79630000Y-133290000D01*
X78740000Y-124630000D02*
X78740000Y-127290000D01*
X77850000Y-124232929D02*
X77850000Y-124630000D01*
X77090000Y-124232929D02*
X77090000Y-124630000D01*
X77850000Y-133290000D02*
X77850000Y-127290000D01*
X77090000Y-133290000D02*
X77850000Y-133290000D01*
X77090000Y-127290000D02*
X77090000Y-133290000D01*
X76200000Y-124630000D02*
X76200000Y-127290000D01*
X75310000Y-124232929D02*
X75310000Y-124630000D01*
X74550000Y-124232929D02*
X74550000Y-124630000D01*
X75310000Y-133290000D02*
X75310000Y-127290000D01*
X74550000Y-133290000D02*
X75310000Y-133290000D01*
X74550000Y-127290000D02*
X74550000Y-133290000D01*
X73660000Y-124630000D02*
X73660000Y-127290000D01*
X72770000Y-124232929D02*
X72770000Y-124630000D01*
X72010000Y-124232929D02*
X72010000Y-124630000D01*
X72770000Y-133290000D02*
X72770000Y-127290000D01*
X72010000Y-133290000D02*
X72770000Y-133290000D01*
X72010000Y-127290000D02*
X72010000Y-133290000D01*
X71120000Y-124630000D02*
X71120000Y-127290000D01*
X70230000Y-124232929D02*
X70230000Y-124630000D01*
X69470000Y-124232929D02*
X69470000Y-124630000D01*
X70230000Y-133290000D02*
X70230000Y-127290000D01*
X69470000Y-133290000D02*
X70230000Y-133290000D01*
X69470000Y-127290000D02*
X69470000Y-133290000D01*
X68580000Y-124630000D02*
X68580000Y-127290000D01*
X67690000Y-124232929D02*
X67690000Y-124630000D01*
X66930000Y-124232929D02*
X66930000Y-124630000D01*
X67690000Y-133290000D02*
X67690000Y-127290000D01*
X66930000Y-133290000D02*
X67690000Y-133290000D01*
X66930000Y-127290000D02*
X66930000Y-133290000D01*
X66040000Y-124630000D02*
X66040000Y-127290000D01*
X65150000Y-124300000D02*
X65150000Y-124630000D01*
X64390000Y-124300000D02*
X64390000Y-124630000D01*
X65050000Y-127290000D02*
X65050000Y-133290000D01*
X64930000Y-127290000D02*
X64930000Y-133290000D01*
X64810000Y-127290000D02*
X64810000Y-133290000D01*
X64690000Y-127290000D02*
X64690000Y-133290000D01*
X64570000Y-127290000D02*
X64570000Y-133290000D01*
X64450000Y-127290000D02*
X64450000Y-133290000D01*
X65150000Y-133290000D02*
X65150000Y-127290000D01*
X64390000Y-133290000D02*
X65150000Y-133290000D01*
X64390000Y-127290000D02*
X64390000Y-133290000D01*
X63440000Y-127290000D02*
X63440000Y-124630000D01*
X165160000Y-127290000D02*
X63440000Y-127290000D01*
X165160000Y-124630000D02*
X165160000Y-127290000D01*
X63440000Y-124630000D02*
X165160000Y-124630000D01*
D10*
X61952380Y-127241666D02*
X62666666Y-127241666D01*
X62809523Y-127194047D01*
X62904761Y-127098809D01*
X62952380Y-126955952D01*
X62952380Y-126860714D01*
X62952380Y-128241666D02*
X62952380Y-127670238D01*
X62952380Y-127955952D02*
X61952380Y-127955952D01*
X62095238Y-127860714D01*
X62190476Y-127765476D01*
X62238095Y-127670238D01*
M02*
