G04 #@! TF.GenerationSoftware,KiCad,Pcbnew,5.1.8+dfsg1-1+b1*
G04 #@! TF.CreationDate,2021-05-07T12:02:56-05:00*
G04 #@! TF.ProjectId,potentiosynth,706f7465-6e74-4696-9f73-796e74682e6b,A*
G04 #@! TF.SameCoordinates,Original*
G04 #@! TF.FileFunction,Soldermask,Top*
G04 #@! TF.FilePolarity,Negative*
%FSLAX46Y46*%
G04 Gerber Fmt 4.6, Leading zero omitted, Abs format (unit mm)*
G04 Created by KiCad (PCBNEW 5.1.8+dfsg1-1+b1) date 2021-05-07 12:02:56*
%MOMM*%
%LPD*%
G01*
G04 APERTURE LIST*
G04 #@! TA.AperFunction,Profile*
%ADD10C,0.150000*%
G04 #@! TD*
%ADD11C,1.440000*%
%ADD12C,3.000000*%
%ADD13R,3.500000X3.500000*%
%ADD14O,2.400000X1.600000*%
%ADD15R,2.400000X1.600000*%
%ADD16R,1.500000X1.050000*%
%ADD17O,1.500000X1.050000*%
%ADD18O,1.905000X2.000000*%
%ADD19R,1.905000X2.000000*%
%ADD20O,2.000000X1.905000*%
%ADD21R,2.000000X1.905000*%
%ADD22C,3.200000*%
%ADD23O,1.700000X1.700000*%
%ADD24R,1.700000X1.700000*%
%ADD25C,1.600000*%
%ADD26R,1.600000X1.600000*%
G04 APERTURE END LIST*
D10*
X50800000Y-127000000D02*
X177800000Y-127000000D01*
X50800000Y-63500000D02*
X177800000Y-63500000D01*
X50800000Y-127000000D02*
X50800000Y-63500000D01*
X177800000Y-127000000D02*
X177800000Y-63500000D01*
D11*
X139700000Y-119380000D03*
X139700000Y-116840000D03*
X139700000Y-114300000D03*
G36*
G01*
X157975000Y-112405000D02*
X157975000Y-113655000D01*
G75*
G02*
X157725000Y-113905000I-250000J0D01*
G01*
X156975000Y-113905000D01*
G75*
G02*
X156725000Y-113655000I0J250000D01*
G01*
X156725000Y-112405000D01*
G75*
G02*
X156975000Y-112155000I250000J0D01*
G01*
X157725000Y-112155000D01*
G75*
G02*
X157975000Y-112405000I0J-250000D01*
G01*
G37*
G36*
G01*
X160775000Y-112405000D02*
X160775000Y-113655000D01*
G75*
G02*
X160525000Y-113905000I-250000J0D01*
G01*
X159775000Y-113905000D01*
G75*
G02*
X159525000Y-113655000I0J250000D01*
G01*
X159525000Y-112405000D01*
G75*
G02*
X159775000Y-112155000I250000J0D01*
G01*
X160525000Y-112155000D01*
G75*
G02*
X160775000Y-112405000I0J-250000D01*
G01*
G37*
G36*
G01*
X145275000Y-112405000D02*
X145275000Y-113655000D01*
G75*
G02*
X145025000Y-113905000I-250000J0D01*
G01*
X144275000Y-113905000D01*
G75*
G02*
X144025000Y-113655000I0J250000D01*
G01*
X144025000Y-112405000D01*
G75*
G02*
X144275000Y-112155000I250000J0D01*
G01*
X145025000Y-112155000D01*
G75*
G02*
X145275000Y-112405000I0J-250000D01*
G01*
G37*
G36*
G01*
X148075000Y-112405000D02*
X148075000Y-113655000D01*
G75*
G02*
X147825000Y-113905000I-250000J0D01*
G01*
X147075000Y-113905000D01*
G75*
G02*
X146825000Y-113655000I0J250000D01*
G01*
X146825000Y-112405000D01*
G75*
G02*
X147075000Y-112155000I250000J0D01*
G01*
X147825000Y-112155000D01*
G75*
G02*
X148075000Y-112405000I0J-250000D01*
G01*
G37*
G36*
G01*
X132575000Y-112405000D02*
X132575000Y-113655000D01*
G75*
G02*
X132325000Y-113905000I-250000J0D01*
G01*
X131575000Y-113905000D01*
G75*
G02*
X131325000Y-113655000I0J250000D01*
G01*
X131325000Y-112405000D01*
G75*
G02*
X131575000Y-112155000I250000J0D01*
G01*
X132325000Y-112155000D01*
G75*
G02*
X132575000Y-112405000I0J-250000D01*
G01*
G37*
G36*
G01*
X135375000Y-112405000D02*
X135375000Y-113655000D01*
G75*
G02*
X135125000Y-113905000I-250000J0D01*
G01*
X134375000Y-113905000D01*
G75*
G02*
X134125000Y-113655000I0J250000D01*
G01*
X134125000Y-112405000D01*
G75*
G02*
X134375000Y-112155000I250000J0D01*
G01*
X135125000Y-112155000D01*
G75*
G02*
X135375000Y-112405000I0J-250000D01*
G01*
G37*
G36*
G01*
X119875000Y-112405000D02*
X119875000Y-113655000D01*
G75*
G02*
X119625000Y-113905000I-250000J0D01*
G01*
X118875000Y-113905000D01*
G75*
G02*
X118625000Y-113655000I0J250000D01*
G01*
X118625000Y-112405000D01*
G75*
G02*
X118875000Y-112155000I250000J0D01*
G01*
X119625000Y-112155000D01*
G75*
G02*
X119875000Y-112405000I0J-250000D01*
G01*
G37*
G36*
G01*
X122675000Y-112405000D02*
X122675000Y-113655000D01*
G75*
G02*
X122425000Y-113905000I-250000J0D01*
G01*
X121675000Y-113905000D01*
G75*
G02*
X121425000Y-113655000I0J250000D01*
G01*
X121425000Y-112405000D01*
G75*
G02*
X121675000Y-112155000I250000J0D01*
G01*
X122425000Y-112155000D01*
G75*
G02*
X122675000Y-112405000I0J-250000D01*
G01*
G37*
G36*
G01*
X107175000Y-112405000D02*
X107175000Y-113655000D01*
G75*
G02*
X106925000Y-113905000I-250000J0D01*
G01*
X106175000Y-113905000D01*
G75*
G02*
X105925000Y-113655000I0J250000D01*
G01*
X105925000Y-112405000D01*
G75*
G02*
X106175000Y-112155000I250000J0D01*
G01*
X106925000Y-112155000D01*
G75*
G02*
X107175000Y-112405000I0J-250000D01*
G01*
G37*
G36*
G01*
X109975000Y-112405000D02*
X109975000Y-113655000D01*
G75*
G02*
X109725000Y-113905000I-250000J0D01*
G01*
X108975000Y-113905000D01*
G75*
G02*
X108725000Y-113655000I0J250000D01*
G01*
X108725000Y-112405000D01*
G75*
G02*
X108975000Y-112155000I250000J0D01*
G01*
X109725000Y-112155000D01*
G75*
G02*
X109975000Y-112405000I0J-250000D01*
G01*
G37*
G36*
G01*
X94475000Y-112405000D02*
X94475000Y-113655000D01*
G75*
G02*
X94225000Y-113905000I-250000J0D01*
G01*
X93475000Y-113905000D01*
G75*
G02*
X93225000Y-113655000I0J250000D01*
G01*
X93225000Y-112405000D01*
G75*
G02*
X93475000Y-112155000I250000J0D01*
G01*
X94225000Y-112155000D01*
G75*
G02*
X94475000Y-112405000I0J-250000D01*
G01*
G37*
G36*
G01*
X97275000Y-112405000D02*
X97275000Y-113655000D01*
G75*
G02*
X97025000Y-113905000I-250000J0D01*
G01*
X96275000Y-113905000D01*
G75*
G02*
X96025000Y-113655000I0J250000D01*
G01*
X96025000Y-112405000D01*
G75*
G02*
X96275000Y-112155000I250000J0D01*
G01*
X97025000Y-112155000D01*
G75*
G02*
X97275000Y-112405000I0J-250000D01*
G01*
G37*
G36*
G01*
X81775000Y-112405000D02*
X81775000Y-113655000D01*
G75*
G02*
X81525000Y-113905000I-250000J0D01*
G01*
X80775000Y-113905000D01*
G75*
G02*
X80525000Y-113655000I0J250000D01*
G01*
X80525000Y-112405000D01*
G75*
G02*
X80775000Y-112155000I250000J0D01*
G01*
X81525000Y-112155000D01*
G75*
G02*
X81775000Y-112405000I0J-250000D01*
G01*
G37*
G36*
G01*
X84575000Y-112405000D02*
X84575000Y-113655000D01*
G75*
G02*
X84325000Y-113905000I-250000J0D01*
G01*
X83575000Y-113905000D01*
G75*
G02*
X83325000Y-113655000I0J250000D01*
G01*
X83325000Y-112405000D01*
G75*
G02*
X83575000Y-112155000I250000J0D01*
G01*
X84325000Y-112155000D01*
G75*
G02*
X84575000Y-112405000I0J-250000D01*
G01*
G37*
G36*
G01*
X69075000Y-112405000D02*
X69075000Y-113655000D01*
G75*
G02*
X68825000Y-113905000I-250000J0D01*
G01*
X68075000Y-113905000D01*
G75*
G02*
X67825000Y-113655000I0J250000D01*
G01*
X67825000Y-112405000D01*
G75*
G02*
X68075000Y-112155000I250000J0D01*
G01*
X68825000Y-112155000D01*
G75*
G02*
X69075000Y-112405000I0J-250000D01*
G01*
G37*
G36*
G01*
X71875000Y-112405000D02*
X71875000Y-113655000D01*
G75*
G02*
X71625000Y-113905000I-250000J0D01*
G01*
X70875000Y-113905000D01*
G75*
G02*
X70625000Y-113655000I0J250000D01*
G01*
X70625000Y-112405000D01*
G75*
G02*
X70875000Y-112155000I250000J0D01*
G01*
X71625000Y-112155000D01*
G75*
G02*
X71875000Y-112405000I0J-250000D01*
G01*
G37*
G36*
G01*
X158105000Y-66535000D02*
X156855000Y-66535000D01*
G75*
G02*
X156605000Y-66285000I0J250000D01*
G01*
X156605000Y-65535000D01*
G75*
G02*
X156855000Y-65285000I250000J0D01*
G01*
X158105000Y-65285000D01*
G75*
G02*
X158355000Y-65535000I0J-250000D01*
G01*
X158355000Y-66285000D01*
G75*
G02*
X158105000Y-66535000I-250000J0D01*
G01*
G37*
G36*
G01*
X158105000Y-69335000D02*
X156855000Y-69335000D01*
G75*
G02*
X156605000Y-69085000I0J250000D01*
G01*
X156605000Y-68335000D01*
G75*
G02*
X156855000Y-68085000I250000J0D01*
G01*
X158105000Y-68085000D01*
G75*
G02*
X158355000Y-68335000I0J-250000D01*
G01*
X158355000Y-69085000D01*
G75*
G02*
X158105000Y-69335000I-250000J0D01*
G01*
G37*
G36*
G01*
X158105000Y-71485000D02*
X156855000Y-71485000D01*
G75*
G02*
X156605000Y-71235000I0J250000D01*
G01*
X156605000Y-70485000D01*
G75*
G02*
X156855000Y-70235000I250000J0D01*
G01*
X158105000Y-70235000D01*
G75*
G02*
X158355000Y-70485000I0J-250000D01*
G01*
X158355000Y-71235000D01*
G75*
G02*
X158105000Y-71485000I-250000J0D01*
G01*
G37*
G36*
G01*
X158105000Y-74285000D02*
X156855000Y-74285000D01*
G75*
G02*
X156605000Y-74035000I0J250000D01*
G01*
X156605000Y-73285000D01*
G75*
G02*
X156855000Y-73035000I250000J0D01*
G01*
X158105000Y-73035000D01*
G75*
G02*
X158355000Y-73285000I0J-250000D01*
G01*
X158355000Y-74035000D01*
G75*
G02*
X158105000Y-74285000I-250000J0D01*
G01*
G37*
D12*
X151130000Y-67945000D03*
G36*
G01*
X159375000Y-80505000D02*
X158125000Y-80505000D01*
G75*
G02*
X157875000Y-80255000I0J250000D01*
G01*
X157875000Y-79505000D01*
G75*
G02*
X158125000Y-79255000I250000J0D01*
G01*
X159375000Y-79255000D01*
G75*
G02*
X159625000Y-79505000I0J-250000D01*
G01*
X159625000Y-80255000D01*
G75*
G02*
X159375000Y-80505000I-250000J0D01*
G01*
G37*
G36*
G01*
X159375000Y-83305000D02*
X158125000Y-83305000D01*
G75*
G02*
X157875000Y-83055000I0J250000D01*
G01*
X157875000Y-82305000D01*
G75*
G02*
X158125000Y-82055000I250000J0D01*
G01*
X159375000Y-82055000D01*
G75*
G02*
X159625000Y-82305000I0J-250000D01*
G01*
X159625000Y-83055000D01*
G75*
G02*
X159375000Y-83305000I-250000J0D01*
G01*
G37*
G36*
G01*
X146675000Y-80505000D02*
X145425000Y-80505000D01*
G75*
G02*
X145175000Y-80255000I0J250000D01*
G01*
X145175000Y-79505000D01*
G75*
G02*
X145425000Y-79255000I250000J0D01*
G01*
X146675000Y-79255000D01*
G75*
G02*
X146925000Y-79505000I0J-250000D01*
G01*
X146925000Y-80255000D01*
G75*
G02*
X146675000Y-80505000I-250000J0D01*
G01*
G37*
G36*
G01*
X146675000Y-83305000D02*
X145425000Y-83305000D01*
G75*
G02*
X145175000Y-83055000I0J250000D01*
G01*
X145175000Y-82305000D01*
G75*
G02*
X145425000Y-82055000I250000J0D01*
G01*
X146675000Y-82055000D01*
G75*
G02*
X146925000Y-82305000I0J-250000D01*
G01*
X146925000Y-83055000D01*
G75*
G02*
X146675000Y-83305000I-250000J0D01*
G01*
G37*
G36*
G01*
X133975000Y-80505000D02*
X132725000Y-80505000D01*
G75*
G02*
X132475000Y-80255000I0J250000D01*
G01*
X132475000Y-79505000D01*
G75*
G02*
X132725000Y-79255000I250000J0D01*
G01*
X133975000Y-79255000D01*
G75*
G02*
X134225000Y-79505000I0J-250000D01*
G01*
X134225000Y-80255000D01*
G75*
G02*
X133975000Y-80505000I-250000J0D01*
G01*
G37*
G36*
G01*
X133975000Y-83305000D02*
X132725000Y-83305000D01*
G75*
G02*
X132475000Y-83055000I0J250000D01*
G01*
X132475000Y-82305000D01*
G75*
G02*
X132725000Y-82055000I250000J0D01*
G01*
X133975000Y-82055000D01*
G75*
G02*
X134225000Y-82305000I0J-250000D01*
G01*
X134225000Y-83055000D01*
G75*
G02*
X133975000Y-83305000I-250000J0D01*
G01*
G37*
G36*
G01*
X121275000Y-80505000D02*
X120025000Y-80505000D01*
G75*
G02*
X119775000Y-80255000I0J250000D01*
G01*
X119775000Y-79505000D01*
G75*
G02*
X120025000Y-79255000I250000J0D01*
G01*
X121275000Y-79255000D01*
G75*
G02*
X121525000Y-79505000I0J-250000D01*
G01*
X121525000Y-80255000D01*
G75*
G02*
X121275000Y-80505000I-250000J0D01*
G01*
G37*
G36*
G01*
X121275000Y-83305000D02*
X120025000Y-83305000D01*
G75*
G02*
X119775000Y-83055000I0J250000D01*
G01*
X119775000Y-82305000D01*
G75*
G02*
X120025000Y-82055000I250000J0D01*
G01*
X121275000Y-82055000D01*
G75*
G02*
X121525000Y-82305000I0J-250000D01*
G01*
X121525000Y-83055000D01*
G75*
G02*
X121275000Y-83305000I-250000J0D01*
G01*
G37*
G36*
G01*
X108575000Y-80505000D02*
X107325000Y-80505000D01*
G75*
G02*
X107075000Y-80255000I0J250000D01*
G01*
X107075000Y-79505000D01*
G75*
G02*
X107325000Y-79255000I250000J0D01*
G01*
X108575000Y-79255000D01*
G75*
G02*
X108825000Y-79505000I0J-250000D01*
G01*
X108825000Y-80255000D01*
G75*
G02*
X108575000Y-80505000I-250000J0D01*
G01*
G37*
G36*
G01*
X108575000Y-83305000D02*
X107325000Y-83305000D01*
G75*
G02*
X107075000Y-83055000I0J250000D01*
G01*
X107075000Y-82305000D01*
G75*
G02*
X107325000Y-82055000I250000J0D01*
G01*
X108575000Y-82055000D01*
G75*
G02*
X108825000Y-82305000I0J-250000D01*
G01*
X108825000Y-83055000D01*
G75*
G02*
X108575000Y-83305000I-250000J0D01*
G01*
G37*
G36*
G01*
X95875000Y-80505000D02*
X94625000Y-80505000D01*
G75*
G02*
X94375000Y-80255000I0J250000D01*
G01*
X94375000Y-79505000D01*
G75*
G02*
X94625000Y-79255000I250000J0D01*
G01*
X95875000Y-79255000D01*
G75*
G02*
X96125000Y-79505000I0J-250000D01*
G01*
X96125000Y-80255000D01*
G75*
G02*
X95875000Y-80505000I-250000J0D01*
G01*
G37*
G36*
G01*
X95875000Y-83305000D02*
X94625000Y-83305000D01*
G75*
G02*
X94375000Y-83055000I0J250000D01*
G01*
X94375000Y-82305000D01*
G75*
G02*
X94625000Y-82055000I250000J0D01*
G01*
X95875000Y-82055000D01*
G75*
G02*
X96125000Y-82305000I0J-250000D01*
G01*
X96125000Y-83055000D01*
G75*
G02*
X95875000Y-83305000I-250000J0D01*
G01*
G37*
G36*
G01*
X83175000Y-80505000D02*
X81925000Y-80505000D01*
G75*
G02*
X81675000Y-80255000I0J250000D01*
G01*
X81675000Y-79505000D01*
G75*
G02*
X81925000Y-79255000I250000J0D01*
G01*
X83175000Y-79255000D01*
G75*
G02*
X83425000Y-79505000I0J-250000D01*
G01*
X83425000Y-80255000D01*
G75*
G02*
X83175000Y-80505000I-250000J0D01*
G01*
G37*
G36*
G01*
X83175000Y-83305000D02*
X81925000Y-83305000D01*
G75*
G02*
X81675000Y-83055000I0J250000D01*
G01*
X81675000Y-82305000D01*
G75*
G02*
X81925000Y-82055000I250000J0D01*
G01*
X83175000Y-82055000D01*
G75*
G02*
X83425000Y-82305000I0J-250000D01*
G01*
X83425000Y-83055000D01*
G75*
G02*
X83175000Y-83305000I-250000J0D01*
G01*
G37*
G36*
G01*
X70475000Y-80505000D02*
X69225000Y-80505000D01*
G75*
G02*
X68975000Y-80255000I0J250000D01*
G01*
X68975000Y-79505000D01*
G75*
G02*
X69225000Y-79255000I250000J0D01*
G01*
X70475000Y-79255000D01*
G75*
G02*
X70725000Y-79505000I0J-250000D01*
G01*
X70725000Y-80255000D01*
G75*
G02*
X70475000Y-80505000I-250000J0D01*
G01*
G37*
G36*
G01*
X70475000Y-83305000D02*
X69225000Y-83305000D01*
G75*
G02*
X68975000Y-83055000I0J250000D01*
G01*
X68975000Y-82305000D01*
G75*
G02*
X69225000Y-82055000I250000J0D01*
G01*
X70475000Y-82055000D01*
G75*
G02*
X70725000Y-82305000I0J-250000D01*
G01*
X70725000Y-83055000D01*
G75*
G02*
X70475000Y-83305000I-250000J0D01*
G01*
G37*
G36*
G01*
X162852500Y-80505000D02*
X161602500Y-80505000D01*
G75*
G02*
X161352500Y-80255000I0J250000D01*
G01*
X161352500Y-79505000D01*
G75*
G02*
X161602500Y-79255000I250000J0D01*
G01*
X162852500Y-79255000D01*
G75*
G02*
X163102500Y-79505000I0J-250000D01*
G01*
X163102500Y-80255000D01*
G75*
G02*
X162852500Y-80505000I-250000J0D01*
G01*
G37*
G36*
G01*
X162852500Y-83305000D02*
X161602500Y-83305000D01*
G75*
G02*
X161352500Y-83055000I0J250000D01*
G01*
X161352500Y-82305000D01*
G75*
G02*
X161602500Y-82055000I250000J0D01*
G01*
X162852500Y-82055000D01*
G75*
G02*
X163102500Y-82305000I0J-250000D01*
G01*
X163102500Y-83055000D01*
G75*
G02*
X162852500Y-83305000I-250000J0D01*
G01*
G37*
G36*
G01*
X150152500Y-80505000D02*
X148902500Y-80505000D01*
G75*
G02*
X148652500Y-80255000I0J250000D01*
G01*
X148652500Y-79505000D01*
G75*
G02*
X148902500Y-79255000I250000J0D01*
G01*
X150152500Y-79255000D01*
G75*
G02*
X150402500Y-79505000I0J-250000D01*
G01*
X150402500Y-80255000D01*
G75*
G02*
X150152500Y-80505000I-250000J0D01*
G01*
G37*
G36*
G01*
X150152500Y-83305000D02*
X148902500Y-83305000D01*
G75*
G02*
X148652500Y-83055000I0J250000D01*
G01*
X148652500Y-82305000D01*
G75*
G02*
X148902500Y-82055000I250000J0D01*
G01*
X150152500Y-82055000D01*
G75*
G02*
X150402500Y-82305000I0J-250000D01*
G01*
X150402500Y-83055000D01*
G75*
G02*
X150152500Y-83305000I-250000J0D01*
G01*
G37*
G36*
G01*
X137452500Y-80505000D02*
X136202500Y-80505000D01*
G75*
G02*
X135952500Y-80255000I0J250000D01*
G01*
X135952500Y-79505000D01*
G75*
G02*
X136202500Y-79255000I250000J0D01*
G01*
X137452500Y-79255000D01*
G75*
G02*
X137702500Y-79505000I0J-250000D01*
G01*
X137702500Y-80255000D01*
G75*
G02*
X137452500Y-80505000I-250000J0D01*
G01*
G37*
G36*
G01*
X137452500Y-83305000D02*
X136202500Y-83305000D01*
G75*
G02*
X135952500Y-83055000I0J250000D01*
G01*
X135952500Y-82305000D01*
G75*
G02*
X136202500Y-82055000I250000J0D01*
G01*
X137452500Y-82055000D01*
G75*
G02*
X137702500Y-82305000I0J-250000D01*
G01*
X137702500Y-83055000D01*
G75*
G02*
X137452500Y-83305000I-250000J0D01*
G01*
G37*
G36*
G01*
X124752500Y-80505000D02*
X123502500Y-80505000D01*
G75*
G02*
X123252500Y-80255000I0J250000D01*
G01*
X123252500Y-79505000D01*
G75*
G02*
X123502500Y-79255000I250000J0D01*
G01*
X124752500Y-79255000D01*
G75*
G02*
X125002500Y-79505000I0J-250000D01*
G01*
X125002500Y-80255000D01*
G75*
G02*
X124752500Y-80505000I-250000J0D01*
G01*
G37*
G36*
G01*
X124752500Y-83305000D02*
X123502500Y-83305000D01*
G75*
G02*
X123252500Y-83055000I0J250000D01*
G01*
X123252500Y-82305000D01*
G75*
G02*
X123502500Y-82055000I250000J0D01*
G01*
X124752500Y-82055000D01*
G75*
G02*
X125002500Y-82305000I0J-250000D01*
G01*
X125002500Y-83055000D01*
G75*
G02*
X124752500Y-83305000I-250000J0D01*
G01*
G37*
G36*
G01*
X112052500Y-80505000D02*
X110802500Y-80505000D01*
G75*
G02*
X110552500Y-80255000I0J250000D01*
G01*
X110552500Y-79505000D01*
G75*
G02*
X110802500Y-79255000I250000J0D01*
G01*
X112052500Y-79255000D01*
G75*
G02*
X112302500Y-79505000I0J-250000D01*
G01*
X112302500Y-80255000D01*
G75*
G02*
X112052500Y-80505000I-250000J0D01*
G01*
G37*
G36*
G01*
X112052500Y-83305000D02*
X110802500Y-83305000D01*
G75*
G02*
X110552500Y-83055000I0J250000D01*
G01*
X110552500Y-82305000D01*
G75*
G02*
X110802500Y-82055000I250000J0D01*
G01*
X112052500Y-82055000D01*
G75*
G02*
X112302500Y-82305000I0J-250000D01*
G01*
X112302500Y-83055000D01*
G75*
G02*
X112052500Y-83305000I-250000J0D01*
G01*
G37*
G36*
G01*
X99352500Y-80505000D02*
X98102500Y-80505000D01*
G75*
G02*
X97852500Y-80255000I0J250000D01*
G01*
X97852500Y-79505000D01*
G75*
G02*
X98102500Y-79255000I250000J0D01*
G01*
X99352500Y-79255000D01*
G75*
G02*
X99602500Y-79505000I0J-250000D01*
G01*
X99602500Y-80255000D01*
G75*
G02*
X99352500Y-80505000I-250000J0D01*
G01*
G37*
G36*
G01*
X99352500Y-83305000D02*
X98102500Y-83305000D01*
G75*
G02*
X97852500Y-83055000I0J250000D01*
G01*
X97852500Y-82305000D01*
G75*
G02*
X98102500Y-82055000I250000J0D01*
G01*
X99352500Y-82055000D01*
G75*
G02*
X99602500Y-82305000I0J-250000D01*
G01*
X99602500Y-83055000D01*
G75*
G02*
X99352500Y-83305000I-250000J0D01*
G01*
G37*
G36*
G01*
X86652500Y-80505000D02*
X85402500Y-80505000D01*
G75*
G02*
X85152500Y-80255000I0J250000D01*
G01*
X85152500Y-79505000D01*
G75*
G02*
X85402500Y-79255000I250000J0D01*
G01*
X86652500Y-79255000D01*
G75*
G02*
X86902500Y-79505000I0J-250000D01*
G01*
X86902500Y-80255000D01*
G75*
G02*
X86652500Y-80505000I-250000J0D01*
G01*
G37*
G36*
G01*
X86652500Y-83305000D02*
X85402500Y-83305000D01*
G75*
G02*
X85152500Y-83055000I0J250000D01*
G01*
X85152500Y-82305000D01*
G75*
G02*
X85402500Y-82055000I250000J0D01*
G01*
X86652500Y-82055000D01*
G75*
G02*
X86902500Y-82305000I0J-250000D01*
G01*
X86902500Y-83055000D01*
G75*
G02*
X86652500Y-83305000I-250000J0D01*
G01*
G37*
G36*
G01*
X73982500Y-80505000D02*
X72732500Y-80505000D01*
G75*
G02*
X72482500Y-80255000I0J250000D01*
G01*
X72482500Y-79505000D01*
G75*
G02*
X72732500Y-79255000I250000J0D01*
G01*
X73982500Y-79255000D01*
G75*
G02*
X74232500Y-79505000I0J-250000D01*
G01*
X74232500Y-80255000D01*
G75*
G02*
X73982500Y-80505000I-250000J0D01*
G01*
G37*
G36*
G01*
X73982500Y-83305000D02*
X72732500Y-83305000D01*
G75*
G02*
X72482500Y-83055000I0J250000D01*
G01*
X72482500Y-82305000D01*
G75*
G02*
X72732500Y-82055000I250000J0D01*
G01*
X73982500Y-82055000D01*
G75*
G02*
X74232500Y-82305000I0J-250000D01*
G01*
X74232500Y-83055000D01*
G75*
G02*
X73982500Y-83305000I-250000J0D01*
G01*
G37*
G36*
G01*
X154670000Y-98435000D02*
X154670000Y-99685000D01*
G75*
G02*
X154420000Y-99935000I-250000J0D01*
G01*
X153670000Y-99935000D01*
G75*
G02*
X153420000Y-99685000I0J250000D01*
G01*
X153420000Y-98435000D01*
G75*
G02*
X153670000Y-98185000I250000J0D01*
G01*
X154420000Y-98185000D01*
G75*
G02*
X154670000Y-98435000I0J-250000D01*
G01*
G37*
G36*
G01*
X157470000Y-98435000D02*
X157470000Y-99685000D01*
G75*
G02*
X157220000Y-99935000I-250000J0D01*
G01*
X156470000Y-99935000D01*
G75*
G02*
X156220000Y-99685000I0J250000D01*
G01*
X156220000Y-98435000D01*
G75*
G02*
X156470000Y-98185000I250000J0D01*
G01*
X157220000Y-98185000D01*
G75*
G02*
X157470000Y-98435000I0J-250000D01*
G01*
G37*
G36*
G01*
X141970000Y-98435000D02*
X141970000Y-99685000D01*
G75*
G02*
X141720000Y-99935000I-250000J0D01*
G01*
X140970000Y-99935000D01*
G75*
G02*
X140720000Y-99685000I0J250000D01*
G01*
X140720000Y-98435000D01*
G75*
G02*
X140970000Y-98185000I250000J0D01*
G01*
X141720000Y-98185000D01*
G75*
G02*
X141970000Y-98435000I0J-250000D01*
G01*
G37*
G36*
G01*
X144770000Y-98435000D02*
X144770000Y-99685000D01*
G75*
G02*
X144520000Y-99935000I-250000J0D01*
G01*
X143770000Y-99935000D01*
G75*
G02*
X143520000Y-99685000I0J250000D01*
G01*
X143520000Y-98435000D01*
G75*
G02*
X143770000Y-98185000I250000J0D01*
G01*
X144520000Y-98185000D01*
G75*
G02*
X144770000Y-98435000I0J-250000D01*
G01*
G37*
G36*
G01*
X129270000Y-98435000D02*
X129270000Y-99685000D01*
G75*
G02*
X129020000Y-99935000I-250000J0D01*
G01*
X128270000Y-99935000D01*
G75*
G02*
X128020000Y-99685000I0J250000D01*
G01*
X128020000Y-98435000D01*
G75*
G02*
X128270000Y-98185000I250000J0D01*
G01*
X129020000Y-98185000D01*
G75*
G02*
X129270000Y-98435000I0J-250000D01*
G01*
G37*
G36*
G01*
X132070000Y-98435000D02*
X132070000Y-99685000D01*
G75*
G02*
X131820000Y-99935000I-250000J0D01*
G01*
X131070000Y-99935000D01*
G75*
G02*
X130820000Y-99685000I0J250000D01*
G01*
X130820000Y-98435000D01*
G75*
G02*
X131070000Y-98185000I250000J0D01*
G01*
X131820000Y-98185000D01*
G75*
G02*
X132070000Y-98435000I0J-250000D01*
G01*
G37*
G36*
G01*
X116570000Y-98435000D02*
X116570000Y-99685000D01*
G75*
G02*
X116320000Y-99935000I-250000J0D01*
G01*
X115570000Y-99935000D01*
G75*
G02*
X115320000Y-99685000I0J250000D01*
G01*
X115320000Y-98435000D01*
G75*
G02*
X115570000Y-98185000I250000J0D01*
G01*
X116320000Y-98185000D01*
G75*
G02*
X116570000Y-98435000I0J-250000D01*
G01*
G37*
G36*
G01*
X119370000Y-98435000D02*
X119370000Y-99685000D01*
G75*
G02*
X119120000Y-99935000I-250000J0D01*
G01*
X118370000Y-99935000D01*
G75*
G02*
X118120000Y-99685000I0J250000D01*
G01*
X118120000Y-98435000D01*
G75*
G02*
X118370000Y-98185000I250000J0D01*
G01*
X119120000Y-98185000D01*
G75*
G02*
X119370000Y-98435000I0J-250000D01*
G01*
G37*
G36*
G01*
X103870000Y-98435000D02*
X103870000Y-99685000D01*
G75*
G02*
X103620000Y-99935000I-250000J0D01*
G01*
X102870000Y-99935000D01*
G75*
G02*
X102620000Y-99685000I0J250000D01*
G01*
X102620000Y-98435000D01*
G75*
G02*
X102870000Y-98185000I250000J0D01*
G01*
X103620000Y-98185000D01*
G75*
G02*
X103870000Y-98435000I0J-250000D01*
G01*
G37*
G36*
G01*
X106670000Y-98435000D02*
X106670000Y-99685000D01*
G75*
G02*
X106420000Y-99935000I-250000J0D01*
G01*
X105670000Y-99935000D01*
G75*
G02*
X105420000Y-99685000I0J250000D01*
G01*
X105420000Y-98435000D01*
G75*
G02*
X105670000Y-98185000I250000J0D01*
G01*
X106420000Y-98185000D01*
G75*
G02*
X106670000Y-98435000I0J-250000D01*
G01*
G37*
G36*
G01*
X91170000Y-98435000D02*
X91170000Y-99685000D01*
G75*
G02*
X90920000Y-99935000I-250000J0D01*
G01*
X90170000Y-99935000D01*
G75*
G02*
X89920000Y-99685000I0J250000D01*
G01*
X89920000Y-98435000D01*
G75*
G02*
X90170000Y-98185000I250000J0D01*
G01*
X90920000Y-98185000D01*
G75*
G02*
X91170000Y-98435000I0J-250000D01*
G01*
G37*
G36*
G01*
X93970000Y-98435000D02*
X93970000Y-99685000D01*
G75*
G02*
X93720000Y-99935000I-250000J0D01*
G01*
X92970000Y-99935000D01*
G75*
G02*
X92720000Y-99685000I0J250000D01*
G01*
X92720000Y-98435000D01*
G75*
G02*
X92970000Y-98185000I250000J0D01*
G01*
X93720000Y-98185000D01*
G75*
G02*
X93970000Y-98435000I0J-250000D01*
G01*
G37*
G36*
G01*
X78470000Y-98435000D02*
X78470000Y-99685000D01*
G75*
G02*
X78220000Y-99935000I-250000J0D01*
G01*
X77470000Y-99935000D01*
G75*
G02*
X77220000Y-99685000I0J250000D01*
G01*
X77220000Y-98435000D01*
G75*
G02*
X77470000Y-98185000I250000J0D01*
G01*
X78220000Y-98185000D01*
G75*
G02*
X78470000Y-98435000I0J-250000D01*
G01*
G37*
G36*
G01*
X81270000Y-98435000D02*
X81270000Y-99685000D01*
G75*
G02*
X81020000Y-99935000I-250000J0D01*
G01*
X80270000Y-99935000D01*
G75*
G02*
X80020000Y-99685000I0J250000D01*
G01*
X80020000Y-98435000D01*
G75*
G02*
X80270000Y-98185000I250000J0D01*
G01*
X81020000Y-98185000D01*
G75*
G02*
X81270000Y-98435000I0J-250000D01*
G01*
G37*
G36*
G01*
X65900000Y-98435000D02*
X65900000Y-99685000D01*
G75*
G02*
X65650000Y-99935000I-250000J0D01*
G01*
X64900000Y-99935000D01*
G75*
G02*
X64650000Y-99685000I0J250000D01*
G01*
X64650000Y-98435000D01*
G75*
G02*
X64900000Y-98185000I250000J0D01*
G01*
X65650000Y-98185000D01*
G75*
G02*
X65900000Y-98435000I0J-250000D01*
G01*
G37*
G36*
G01*
X68700000Y-98435000D02*
X68700000Y-99685000D01*
G75*
G02*
X68450000Y-99935000I-250000J0D01*
G01*
X67700000Y-99935000D01*
G75*
G02*
X67450000Y-99685000I0J250000D01*
G01*
X67450000Y-98435000D01*
G75*
G02*
X67700000Y-98185000I250000J0D01*
G01*
X68450000Y-98185000D01*
G75*
G02*
X68700000Y-98435000I0J-250000D01*
G01*
G37*
G36*
G01*
X154617500Y-82055000D02*
X155867500Y-82055000D01*
G75*
G02*
X156117500Y-82305000I0J-250000D01*
G01*
X156117500Y-83055000D01*
G75*
G02*
X155867500Y-83305000I-250000J0D01*
G01*
X154617500Y-83305000D01*
G75*
G02*
X154367500Y-83055000I0J250000D01*
G01*
X154367500Y-82305000D01*
G75*
G02*
X154617500Y-82055000I250000J0D01*
G01*
G37*
G36*
G01*
X154617500Y-79255000D02*
X155867500Y-79255000D01*
G75*
G02*
X156117500Y-79505000I0J-250000D01*
G01*
X156117500Y-80255000D01*
G75*
G02*
X155867500Y-80505000I-250000J0D01*
G01*
X154617500Y-80505000D01*
G75*
G02*
X154367500Y-80255000I0J250000D01*
G01*
X154367500Y-79505000D01*
G75*
G02*
X154617500Y-79255000I250000J0D01*
G01*
G37*
G36*
G01*
X141917500Y-82055000D02*
X143167500Y-82055000D01*
G75*
G02*
X143417500Y-82305000I0J-250000D01*
G01*
X143417500Y-83055000D01*
G75*
G02*
X143167500Y-83305000I-250000J0D01*
G01*
X141917500Y-83305000D01*
G75*
G02*
X141667500Y-83055000I0J250000D01*
G01*
X141667500Y-82305000D01*
G75*
G02*
X141917500Y-82055000I250000J0D01*
G01*
G37*
G36*
G01*
X141917500Y-79255000D02*
X143167500Y-79255000D01*
G75*
G02*
X143417500Y-79505000I0J-250000D01*
G01*
X143417500Y-80255000D01*
G75*
G02*
X143167500Y-80505000I-250000J0D01*
G01*
X141917500Y-80505000D01*
G75*
G02*
X141667500Y-80255000I0J250000D01*
G01*
X141667500Y-79505000D01*
G75*
G02*
X141917500Y-79255000I250000J0D01*
G01*
G37*
G36*
G01*
X129217500Y-82055000D02*
X130467500Y-82055000D01*
G75*
G02*
X130717500Y-82305000I0J-250000D01*
G01*
X130717500Y-83055000D01*
G75*
G02*
X130467500Y-83305000I-250000J0D01*
G01*
X129217500Y-83305000D01*
G75*
G02*
X128967500Y-83055000I0J250000D01*
G01*
X128967500Y-82305000D01*
G75*
G02*
X129217500Y-82055000I250000J0D01*
G01*
G37*
G36*
G01*
X129217500Y-79255000D02*
X130467500Y-79255000D01*
G75*
G02*
X130717500Y-79505000I0J-250000D01*
G01*
X130717500Y-80255000D01*
G75*
G02*
X130467500Y-80505000I-250000J0D01*
G01*
X129217500Y-80505000D01*
G75*
G02*
X128967500Y-80255000I0J250000D01*
G01*
X128967500Y-79505000D01*
G75*
G02*
X129217500Y-79255000I250000J0D01*
G01*
G37*
G36*
G01*
X116517500Y-82055000D02*
X117767500Y-82055000D01*
G75*
G02*
X118017500Y-82305000I0J-250000D01*
G01*
X118017500Y-83055000D01*
G75*
G02*
X117767500Y-83305000I-250000J0D01*
G01*
X116517500Y-83305000D01*
G75*
G02*
X116267500Y-83055000I0J250000D01*
G01*
X116267500Y-82305000D01*
G75*
G02*
X116517500Y-82055000I250000J0D01*
G01*
G37*
G36*
G01*
X116517500Y-79255000D02*
X117767500Y-79255000D01*
G75*
G02*
X118017500Y-79505000I0J-250000D01*
G01*
X118017500Y-80255000D01*
G75*
G02*
X117767500Y-80505000I-250000J0D01*
G01*
X116517500Y-80505000D01*
G75*
G02*
X116267500Y-80255000I0J250000D01*
G01*
X116267500Y-79505000D01*
G75*
G02*
X116517500Y-79255000I250000J0D01*
G01*
G37*
G36*
G01*
X103817500Y-82055000D02*
X105067500Y-82055000D01*
G75*
G02*
X105317500Y-82305000I0J-250000D01*
G01*
X105317500Y-83055000D01*
G75*
G02*
X105067500Y-83305000I-250000J0D01*
G01*
X103817500Y-83305000D01*
G75*
G02*
X103567500Y-83055000I0J250000D01*
G01*
X103567500Y-82305000D01*
G75*
G02*
X103817500Y-82055000I250000J0D01*
G01*
G37*
G36*
G01*
X103817500Y-79255000D02*
X105067500Y-79255000D01*
G75*
G02*
X105317500Y-79505000I0J-250000D01*
G01*
X105317500Y-80255000D01*
G75*
G02*
X105067500Y-80505000I-250000J0D01*
G01*
X103817500Y-80505000D01*
G75*
G02*
X103567500Y-80255000I0J250000D01*
G01*
X103567500Y-79505000D01*
G75*
G02*
X103817500Y-79255000I250000J0D01*
G01*
G37*
G36*
G01*
X91147500Y-82055000D02*
X92397500Y-82055000D01*
G75*
G02*
X92647500Y-82305000I0J-250000D01*
G01*
X92647500Y-83055000D01*
G75*
G02*
X92397500Y-83305000I-250000J0D01*
G01*
X91147500Y-83305000D01*
G75*
G02*
X90897500Y-83055000I0J250000D01*
G01*
X90897500Y-82305000D01*
G75*
G02*
X91147500Y-82055000I250000J0D01*
G01*
G37*
G36*
G01*
X91147500Y-79255000D02*
X92397500Y-79255000D01*
G75*
G02*
X92647500Y-79505000I0J-250000D01*
G01*
X92647500Y-80255000D01*
G75*
G02*
X92397500Y-80505000I-250000J0D01*
G01*
X91147500Y-80505000D01*
G75*
G02*
X90897500Y-80255000I0J250000D01*
G01*
X90897500Y-79505000D01*
G75*
G02*
X91147500Y-79255000I250000J0D01*
G01*
G37*
G36*
G01*
X78447500Y-82055000D02*
X79697500Y-82055000D01*
G75*
G02*
X79947500Y-82305000I0J-250000D01*
G01*
X79947500Y-83055000D01*
G75*
G02*
X79697500Y-83305000I-250000J0D01*
G01*
X78447500Y-83305000D01*
G75*
G02*
X78197500Y-83055000I0J250000D01*
G01*
X78197500Y-82305000D01*
G75*
G02*
X78447500Y-82055000I250000J0D01*
G01*
G37*
G36*
G01*
X78447500Y-79255000D02*
X79697500Y-79255000D01*
G75*
G02*
X79947500Y-79505000I0J-250000D01*
G01*
X79947500Y-80255000D01*
G75*
G02*
X79697500Y-80505000I-250000J0D01*
G01*
X78447500Y-80505000D01*
G75*
G02*
X78197500Y-80255000I0J250000D01*
G01*
X78197500Y-79505000D01*
G75*
G02*
X78447500Y-79255000I250000J0D01*
G01*
G37*
G36*
G01*
X65747500Y-82055000D02*
X66997500Y-82055000D01*
G75*
G02*
X67247500Y-82305000I0J-250000D01*
G01*
X67247500Y-83055000D01*
G75*
G02*
X66997500Y-83305000I-250000J0D01*
G01*
X65747500Y-83305000D01*
G75*
G02*
X65497500Y-83055000I0J250000D01*
G01*
X65497500Y-82305000D01*
G75*
G02*
X65747500Y-82055000I250000J0D01*
G01*
G37*
G36*
G01*
X65747500Y-79255000D02*
X66997500Y-79255000D01*
G75*
G02*
X67247500Y-79505000I0J-250000D01*
G01*
X67247500Y-80255000D01*
G75*
G02*
X66997500Y-80505000I-250000J0D01*
G01*
X65747500Y-80505000D01*
G75*
G02*
X65497500Y-80255000I0J250000D01*
G01*
X65497500Y-79505000D01*
G75*
G02*
X65747500Y-79255000I250000J0D01*
G01*
G37*
G36*
G01*
X83325000Y-67640000D02*
X85075000Y-67640000D01*
G75*
G02*
X85950000Y-68515000I0J-875000D01*
G01*
X85950000Y-70265000D01*
G75*
G02*
X85075000Y-71140000I-875000J0D01*
G01*
X83325000Y-71140000D01*
G75*
G02*
X82450000Y-70265000I0J875000D01*
G01*
X82450000Y-68515000D01*
G75*
G02*
X83325000Y-67640000I875000J0D01*
G01*
G37*
G36*
G01*
X87900000Y-64890000D02*
X89900000Y-64890000D01*
G75*
G02*
X90650000Y-65640000I0J-750000D01*
G01*
X90650000Y-67140000D01*
G75*
G02*
X89900000Y-67890000I-750000J0D01*
G01*
X87900000Y-67890000D01*
G75*
G02*
X87150000Y-67140000I0J750000D01*
G01*
X87150000Y-65640000D01*
G75*
G02*
X87900000Y-64890000I750000J0D01*
G01*
G37*
D13*
X88900000Y-72390000D03*
G36*
G01*
X70625000Y-67640000D02*
X72375000Y-67640000D01*
G75*
G02*
X73250000Y-68515000I0J-875000D01*
G01*
X73250000Y-70265000D01*
G75*
G02*
X72375000Y-71140000I-875000J0D01*
G01*
X70625000Y-71140000D01*
G75*
G02*
X69750000Y-70265000I0J875000D01*
G01*
X69750000Y-68515000D01*
G75*
G02*
X70625000Y-67640000I875000J0D01*
G01*
G37*
G36*
G01*
X75200000Y-64890000D02*
X77200000Y-64890000D01*
G75*
G02*
X77950000Y-65640000I0J-750000D01*
G01*
X77950000Y-67140000D01*
G75*
G02*
X77200000Y-67890000I-750000J0D01*
G01*
X75200000Y-67890000D01*
G75*
G02*
X74450000Y-67140000I0J750000D01*
G01*
X74450000Y-65640000D01*
G75*
G02*
X75200000Y-64890000I750000J0D01*
G01*
G37*
X76200000Y-72390000D03*
D11*
X76200000Y-119380000D03*
X76200000Y-116840000D03*
X76200000Y-114300000D03*
D14*
X111760000Y-86360000D03*
X104140000Y-93980000D03*
X111760000Y-88900000D03*
X104140000Y-91440000D03*
X111760000Y-91440000D03*
X104140000Y-88900000D03*
X111760000Y-93980000D03*
D15*
X104140000Y-86360000D03*
D14*
X99060000Y-86360000D03*
X91440000Y-93980000D03*
X99060000Y-88900000D03*
X91440000Y-91440000D03*
X99060000Y-91440000D03*
X91440000Y-88900000D03*
X99060000Y-93980000D03*
D15*
X91440000Y-86360000D03*
D14*
X124460000Y-86360000D03*
X116840000Y-93980000D03*
X124460000Y-88900000D03*
X116840000Y-91440000D03*
X124460000Y-91440000D03*
X116840000Y-88900000D03*
X124460000Y-93980000D03*
D15*
X116840000Y-86360000D03*
D14*
X162560000Y-86360000D03*
X154940000Y-93980000D03*
X162560000Y-88900000D03*
X154940000Y-91440000D03*
X162560000Y-91440000D03*
X154940000Y-88900000D03*
X162560000Y-93980000D03*
D15*
X154940000Y-86360000D03*
D14*
X149860000Y-86360000D03*
X142240000Y-93980000D03*
X149860000Y-88900000D03*
X142240000Y-91440000D03*
X149860000Y-91440000D03*
X142240000Y-88900000D03*
X149860000Y-93980000D03*
D15*
X142240000Y-86360000D03*
D14*
X137160000Y-86360000D03*
X129540000Y-93980000D03*
X137160000Y-88900000D03*
X129540000Y-91440000D03*
X137160000Y-91440000D03*
X129540000Y-88900000D03*
X137160000Y-93980000D03*
D15*
X129540000Y-86360000D03*
D14*
X86360000Y-86360000D03*
X78740000Y-93980000D03*
X86360000Y-88900000D03*
X78740000Y-91440000D03*
X86360000Y-91440000D03*
X78740000Y-88900000D03*
X86360000Y-93980000D03*
D15*
X78740000Y-86360000D03*
D14*
X73660000Y-86360000D03*
X66040000Y-93980000D03*
X73660000Y-88900000D03*
X66040000Y-91440000D03*
X73660000Y-91440000D03*
X66040000Y-88900000D03*
X73660000Y-93980000D03*
D15*
X66040000Y-86360000D03*
D11*
X101600000Y-119380000D03*
X101600000Y-116840000D03*
X101600000Y-114300000D03*
X88900000Y-119380000D03*
X88900000Y-116840000D03*
X88900000Y-114300000D03*
X114300000Y-119380000D03*
X114300000Y-116840000D03*
X114300000Y-114300000D03*
X152400000Y-119380000D03*
X152400000Y-116840000D03*
X152400000Y-114300000D03*
X127000000Y-119380000D03*
X127000000Y-116840000D03*
X127000000Y-114300000D03*
X63500000Y-119380000D03*
X63500000Y-116840000D03*
X63500000Y-114300000D03*
D16*
X111760000Y-99060000D03*
D17*
X111760000Y-101600000D03*
X111760000Y-100330000D03*
D16*
X99060000Y-99060000D03*
D17*
X99060000Y-101600000D03*
X99060000Y-100330000D03*
D16*
X124460000Y-99060000D03*
D17*
X124460000Y-101600000D03*
X124460000Y-100330000D03*
D16*
X162560000Y-99060000D03*
D17*
X162560000Y-101600000D03*
X162560000Y-100330000D03*
D16*
X149860000Y-99060000D03*
D17*
X149860000Y-101600000D03*
X149860000Y-100330000D03*
D16*
X137160000Y-99060000D03*
D17*
X137160000Y-101600000D03*
X137160000Y-100330000D03*
D16*
X86360000Y-99060000D03*
D17*
X86360000Y-101600000D03*
X86360000Y-100330000D03*
D16*
X73660000Y-99060000D03*
D17*
X73660000Y-101600000D03*
X73660000Y-100330000D03*
D18*
X110490000Y-107950000D03*
X107950000Y-107950000D03*
D19*
X105410000Y-107950000D03*
D18*
X97790000Y-107950000D03*
X95250000Y-107950000D03*
D19*
X92710000Y-107950000D03*
D18*
X123190000Y-107950000D03*
X120650000Y-107950000D03*
D19*
X118110000Y-107950000D03*
D18*
X161290000Y-107950000D03*
X158750000Y-107950000D03*
D19*
X156210000Y-107950000D03*
D18*
X148590000Y-107950000D03*
X146050000Y-107950000D03*
D19*
X143510000Y-107950000D03*
D18*
X135890000Y-107950000D03*
X133350000Y-107950000D03*
D19*
X130810000Y-107950000D03*
D18*
X85090000Y-107950000D03*
X82550000Y-107950000D03*
D19*
X80010000Y-107950000D03*
D18*
X72390000Y-107950000D03*
X69850000Y-107950000D03*
D19*
X67310000Y-107950000D03*
D20*
X119380000Y-72390000D03*
X119380000Y-69850000D03*
D21*
X119380000Y-67310000D03*
D11*
X162560000Y-68580000D03*
X162560000Y-71120000D03*
X162560000Y-73660000D03*
D22*
X55880000Y-116840000D03*
X55880000Y-73660000D03*
X172720000Y-73660000D03*
X172720000Y-116840000D03*
D23*
X163830000Y-123190000D03*
X161290000Y-123190000D03*
X158750000Y-123190000D03*
X156210000Y-123190000D03*
X153670000Y-123190000D03*
X151130000Y-123190000D03*
X148590000Y-123190000D03*
X146050000Y-123190000D03*
X143510000Y-123190000D03*
X140970000Y-123190000D03*
X138430000Y-123190000D03*
X135890000Y-123190000D03*
X133350000Y-123190000D03*
X130810000Y-123190000D03*
X128270000Y-123190000D03*
X125730000Y-123190000D03*
X123190000Y-123190000D03*
X120650000Y-123190000D03*
X118110000Y-123190000D03*
X115570000Y-123190000D03*
X113030000Y-123190000D03*
X110490000Y-123190000D03*
X107950000Y-123190000D03*
X105410000Y-123190000D03*
X102870000Y-123190000D03*
X100330000Y-123190000D03*
X97790000Y-123190000D03*
X95250000Y-123190000D03*
X92710000Y-123190000D03*
X90170000Y-123190000D03*
X87630000Y-123190000D03*
X85090000Y-123190000D03*
X82550000Y-123190000D03*
X80010000Y-123190000D03*
X77470000Y-123190000D03*
X74930000Y-123190000D03*
X72390000Y-123190000D03*
X69850000Y-123190000D03*
X67310000Y-123190000D03*
D24*
X64770000Y-123190000D03*
D12*
X144780000Y-67945000D03*
X138430000Y-67945000D03*
D25*
X129540000Y-68620000D03*
D26*
X129540000Y-71120000D03*
D25*
X110490000Y-68620000D03*
D26*
X110490000Y-71120000D03*
D25*
X100330000Y-68620000D03*
D26*
X100330000Y-71120000D03*
M02*
