G04 #@! TF.GenerationSoftware,KiCad,Pcbnew,5.1.8+dfsg1-1+b1*
G04 #@! TF.CreationDate,2021-05-07T15:05:44-05:00*
G04 #@! TF.ProjectId,potentiosynth,706f7465-6e74-4696-9f73-796e74682e6b,A*
G04 #@! TF.SameCoordinates,Original*
G04 #@! TF.FileFunction,Paste,Top*
G04 #@! TF.FilePolarity,Positive*
%FSLAX46Y46*%
G04 Gerber Fmt 4.6, Leading zero omitted, Abs format (unit mm)*
G04 Created by KiCad (PCBNEW 5.1.8+dfsg1-1+b1) date 2021-05-07 15:05:44*
%MOMM*%
%LPD*%
G01*
G04 APERTURE LIST*
G04 #@! TA.AperFunction,Profile*
%ADD10C,0.150000*%
G04 #@! TD*
%ADD11R,2.500000X2.500000*%
%ADD12R,0.800000X1.900000*%
G04 APERTURE END LIST*
D10*
X50800000Y-127000000D02*
X177800000Y-127000000D01*
X50800000Y-63500000D02*
X177800000Y-63500000D01*
X50800000Y-127000000D02*
X50800000Y-63500000D01*
X177800000Y-127000000D02*
X177800000Y-63500000D01*
D11*
X121500000Y-78390000D03*
X132500000Y-78390000D03*
X132500000Y-66390000D03*
X121500000Y-66390000D03*
G36*
G01*
X160250000Y-97305000D02*
X160250000Y-97005000D01*
G75*
G02*
X160400000Y-96855000I150000J0D01*
G01*
X162050000Y-96855000D01*
G75*
G02*
X162200000Y-97005000I0J-150000D01*
G01*
X162200000Y-97305000D01*
G75*
G02*
X162050000Y-97455000I-150000J0D01*
G01*
X160400000Y-97455000D01*
G75*
G02*
X160250000Y-97305000I0J150000D01*
G01*
G37*
G36*
G01*
X160250000Y-98575000D02*
X160250000Y-98275000D01*
G75*
G02*
X160400000Y-98125000I150000J0D01*
G01*
X162050000Y-98125000D01*
G75*
G02*
X162200000Y-98275000I0J-150000D01*
G01*
X162200000Y-98575000D01*
G75*
G02*
X162050000Y-98725000I-150000J0D01*
G01*
X160400000Y-98725000D01*
G75*
G02*
X160250000Y-98575000I0J150000D01*
G01*
G37*
G36*
G01*
X160250000Y-99845000D02*
X160250000Y-99545000D01*
G75*
G02*
X160400000Y-99395000I150000J0D01*
G01*
X162050000Y-99395000D01*
G75*
G02*
X162200000Y-99545000I0J-150000D01*
G01*
X162200000Y-99845000D01*
G75*
G02*
X162050000Y-99995000I-150000J0D01*
G01*
X160400000Y-99995000D01*
G75*
G02*
X160250000Y-99845000I0J150000D01*
G01*
G37*
G36*
G01*
X160250000Y-101115000D02*
X160250000Y-100815000D01*
G75*
G02*
X160400000Y-100665000I150000J0D01*
G01*
X162050000Y-100665000D01*
G75*
G02*
X162200000Y-100815000I0J-150000D01*
G01*
X162200000Y-101115000D01*
G75*
G02*
X162050000Y-101265000I-150000J0D01*
G01*
X160400000Y-101265000D01*
G75*
G02*
X160250000Y-101115000I0J150000D01*
G01*
G37*
G36*
G01*
X155300000Y-101115000D02*
X155300000Y-100815000D01*
G75*
G02*
X155450000Y-100665000I150000J0D01*
G01*
X157100000Y-100665000D01*
G75*
G02*
X157250000Y-100815000I0J-150000D01*
G01*
X157250000Y-101115000D01*
G75*
G02*
X157100000Y-101265000I-150000J0D01*
G01*
X155450000Y-101265000D01*
G75*
G02*
X155300000Y-101115000I0J150000D01*
G01*
G37*
G36*
G01*
X155300000Y-99845000D02*
X155300000Y-99545000D01*
G75*
G02*
X155450000Y-99395000I150000J0D01*
G01*
X157100000Y-99395000D01*
G75*
G02*
X157250000Y-99545000I0J-150000D01*
G01*
X157250000Y-99845000D01*
G75*
G02*
X157100000Y-99995000I-150000J0D01*
G01*
X155450000Y-99995000D01*
G75*
G02*
X155300000Y-99845000I0J150000D01*
G01*
G37*
G36*
G01*
X155300000Y-98575000D02*
X155300000Y-98275000D01*
G75*
G02*
X155450000Y-98125000I150000J0D01*
G01*
X157100000Y-98125000D01*
G75*
G02*
X157250000Y-98275000I0J-150000D01*
G01*
X157250000Y-98575000D01*
G75*
G02*
X157100000Y-98725000I-150000J0D01*
G01*
X155450000Y-98725000D01*
G75*
G02*
X155300000Y-98575000I0J150000D01*
G01*
G37*
G36*
G01*
X155300000Y-97305000D02*
X155300000Y-97005000D01*
G75*
G02*
X155450000Y-96855000I150000J0D01*
G01*
X157100000Y-96855000D01*
G75*
G02*
X157250000Y-97005000I0J-150000D01*
G01*
X157250000Y-97305000D01*
G75*
G02*
X157100000Y-97455000I-150000J0D01*
G01*
X155450000Y-97455000D01*
G75*
G02*
X155300000Y-97305000I0J150000D01*
G01*
G37*
G36*
G01*
X147550000Y-97305000D02*
X147550000Y-97005000D01*
G75*
G02*
X147700000Y-96855000I150000J0D01*
G01*
X149350000Y-96855000D01*
G75*
G02*
X149500000Y-97005000I0J-150000D01*
G01*
X149500000Y-97305000D01*
G75*
G02*
X149350000Y-97455000I-150000J0D01*
G01*
X147700000Y-97455000D01*
G75*
G02*
X147550000Y-97305000I0J150000D01*
G01*
G37*
G36*
G01*
X147550000Y-98575000D02*
X147550000Y-98275000D01*
G75*
G02*
X147700000Y-98125000I150000J0D01*
G01*
X149350000Y-98125000D01*
G75*
G02*
X149500000Y-98275000I0J-150000D01*
G01*
X149500000Y-98575000D01*
G75*
G02*
X149350000Y-98725000I-150000J0D01*
G01*
X147700000Y-98725000D01*
G75*
G02*
X147550000Y-98575000I0J150000D01*
G01*
G37*
G36*
G01*
X147550000Y-99845000D02*
X147550000Y-99545000D01*
G75*
G02*
X147700000Y-99395000I150000J0D01*
G01*
X149350000Y-99395000D01*
G75*
G02*
X149500000Y-99545000I0J-150000D01*
G01*
X149500000Y-99845000D01*
G75*
G02*
X149350000Y-99995000I-150000J0D01*
G01*
X147700000Y-99995000D01*
G75*
G02*
X147550000Y-99845000I0J150000D01*
G01*
G37*
G36*
G01*
X147550000Y-101115000D02*
X147550000Y-100815000D01*
G75*
G02*
X147700000Y-100665000I150000J0D01*
G01*
X149350000Y-100665000D01*
G75*
G02*
X149500000Y-100815000I0J-150000D01*
G01*
X149500000Y-101115000D01*
G75*
G02*
X149350000Y-101265000I-150000J0D01*
G01*
X147700000Y-101265000D01*
G75*
G02*
X147550000Y-101115000I0J150000D01*
G01*
G37*
G36*
G01*
X142600000Y-101115000D02*
X142600000Y-100815000D01*
G75*
G02*
X142750000Y-100665000I150000J0D01*
G01*
X144400000Y-100665000D01*
G75*
G02*
X144550000Y-100815000I0J-150000D01*
G01*
X144550000Y-101115000D01*
G75*
G02*
X144400000Y-101265000I-150000J0D01*
G01*
X142750000Y-101265000D01*
G75*
G02*
X142600000Y-101115000I0J150000D01*
G01*
G37*
G36*
G01*
X142600000Y-99845000D02*
X142600000Y-99545000D01*
G75*
G02*
X142750000Y-99395000I150000J0D01*
G01*
X144400000Y-99395000D01*
G75*
G02*
X144550000Y-99545000I0J-150000D01*
G01*
X144550000Y-99845000D01*
G75*
G02*
X144400000Y-99995000I-150000J0D01*
G01*
X142750000Y-99995000D01*
G75*
G02*
X142600000Y-99845000I0J150000D01*
G01*
G37*
G36*
G01*
X142600000Y-98575000D02*
X142600000Y-98275000D01*
G75*
G02*
X142750000Y-98125000I150000J0D01*
G01*
X144400000Y-98125000D01*
G75*
G02*
X144550000Y-98275000I0J-150000D01*
G01*
X144550000Y-98575000D01*
G75*
G02*
X144400000Y-98725000I-150000J0D01*
G01*
X142750000Y-98725000D01*
G75*
G02*
X142600000Y-98575000I0J150000D01*
G01*
G37*
G36*
G01*
X142600000Y-97305000D02*
X142600000Y-97005000D01*
G75*
G02*
X142750000Y-96855000I150000J0D01*
G01*
X144400000Y-96855000D01*
G75*
G02*
X144550000Y-97005000I0J-150000D01*
G01*
X144550000Y-97305000D01*
G75*
G02*
X144400000Y-97455000I-150000J0D01*
G01*
X142750000Y-97455000D01*
G75*
G02*
X142600000Y-97305000I0J150000D01*
G01*
G37*
G36*
G01*
X134850000Y-97305000D02*
X134850000Y-97005000D01*
G75*
G02*
X135000000Y-96855000I150000J0D01*
G01*
X136650000Y-96855000D01*
G75*
G02*
X136800000Y-97005000I0J-150000D01*
G01*
X136800000Y-97305000D01*
G75*
G02*
X136650000Y-97455000I-150000J0D01*
G01*
X135000000Y-97455000D01*
G75*
G02*
X134850000Y-97305000I0J150000D01*
G01*
G37*
G36*
G01*
X134850000Y-98575000D02*
X134850000Y-98275000D01*
G75*
G02*
X135000000Y-98125000I150000J0D01*
G01*
X136650000Y-98125000D01*
G75*
G02*
X136800000Y-98275000I0J-150000D01*
G01*
X136800000Y-98575000D01*
G75*
G02*
X136650000Y-98725000I-150000J0D01*
G01*
X135000000Y-98725000D01*
G75*
G02*
X134850000Y-98575000I0J150000D01*
G01*
G37*
G36*
G01*
X134850000Y-99845000D02*
X134850000Y-99545000D01*
G75*
G02*
X135000000Y-99395000I150000J0D01*
G01*
X136650000Y-99395000D01*
G75*
G02*
X136800000Y-99545000I0J-150000D01*
G01*
X136800000Y-99845000D01*
G75*
G02*
X136650000Y-99995000I-150000J0D01*
G01*
X135000000Y-99995000D01*
G75*
G02*
X134850000Y-99845000I0J150000D01*
G01*
G37*
G36*
G01*
X134850000Y-101115000D02*
X134850000Y-100815000D01*
G75*
G02*
X135000000Y-100665000I150000J0D01*
G01*
X136650000Y-100665000D01*
G75*
G02*
X136800000Y-100815000I0J-150000D01*
G01*
X136800000Y-101115000D01*
G75*
G02*
X136650000Y-101265000I-150000J0D01*
G01*
X135000000Y-101265000D01*
G75*
G02*
X134850000Y-101115000I0J150000D01*
G01*
G37*
G36*
G01*
X129900000Y-101115000D02*
X129900000Y-100815000D01*
G75*
G02*
X130050000Y-100665000I150000J0D01*
G01*
X131700000Y-100665000D01*
G75*
G02*
X131850000Y-100815000I0J-150000D01*
G01*
X131850000Y-101115000D01*
G75*
G02*
X131700000Y-101265000I-150000J0D01*
G01*
X130050000Y-101265000D01*
G75*
G02*
X129900000Y-101115000I0J150000D01*
G01*
G37*
G36*
G01*
X129900000Y-99845000D02*
X129900000Y-99545000D01*
G75*
G02*
X130050000Y-99395000I150000J0D01*
G01*
X131700000Y-99395000D01*
G75*
G02*
X131850000Y-99545000I0J-150000D01*
G01*
X131850000Y-99845000D01*
G75*
G02*
X131700000Y-99995000I-150000J0D01*
G01*
X130050000Y-99995000D01*
G75*
G02*
X129900000Y-99845000I0J150000D01*
G01*
G37*
G36*
G01*
X129900000Y-98575000D02*
X129900000Y-98275000D01*
G75*
G02*
X130050000Y-98125000I150000J0D01*
G01*
X131700000Y-98125000D01*
G75*
G02*
X131850000Y-98275000I0J-150000D01*
G01*
X131850000Y-98575000D01*
G75*
G02*
X131700000Y-98725000I-150000J0D01*
G01*
X130050000Y-98725000D01*
G75*
G02*
X129900000Y-98575000I0J150000D01*
G01*
G37*
G36*
G01*
X129900000Y-97305000D02*
X129900000Y-97005000D01*
G75*
G02*
X130050000Y-96855000I150000J0D01*
G01*
X131700000Y-96855000D01*
G75*
G02*
X131850000Y-97005000I0J-150000D01*
G01*
X131850000Y-97305000D01*
G75*
G02*
X131700000Y-97455000I-150000J0D01*
G01*
X130050000Y-97455000D01*
G75*
G02*
X129900000Y-97305000I0J150000D01*
G01*
G37*
G36*
G01*
X122150000Y-97305000D02*
X122150000Y-97005000D01*
G75*
G02*
X122300000Y-96855000I150000J0D01*
G01*
X123950000Y-96855000D01*
G75*
G02*
X124100000Y-97005000I0J-150000D01*
G01*
X124100000Y-97305000D01*
G75*
G02*
X123950000Y-97455000I-150000J0D01*
G01*
X122300000Y-97455000D01*
G75*
G02*
X122150000Y-97305000I0J150000D01*
G01*
G37*
G36*
G01*
X122150000Y-98575000D02*
X122150000Y-98275000D01*
G75*
G02*
X122300000Y-98125000I150000J0D01*
G01*
X123950000Y-98125000D01*
G75*
G02*
X124100000Y-98275000I0J-150000D01*
G01*
X124100000Y-98575000D01*
G75*
G02*
X123950000Y-98725000I-150000J0D01*
G01*
X122300000Y-98725000D01*
G75*
G02*
X122150000Y-98575000I0J150000D01*
G01*
G37*
G36*
G01*
X122150000Y-99845000D02*
X122150000Y-99545000D01*
G75*
G02*
X122300000Y-99395000I150000J0D01*
G01*
X123950000Y-99395000D01*
G75*
G02*
X124100000Y-99545000I0J-150000D01*
G01*
X124100000Y-99845000D01*
G75*
G02*
X123950000Y-99995000I-150000J0D01*
G01*
X122300000Y-99995000D01*
G75*
G02*
X122150000Y-99845000I0J150000D01*
G01*
G37*
G36*
G01*
X122150000Y-101115000D02*
X122150000Y-100815000D01*
G75*
G02*
X122300000Y-100665000I150000J0D01*
G01*
X123950000Y-100665000D01*
G75*
G02*
X124100000Y-100815000I0J-150000D01*
G01*
X124100000Y-101115000D01*
G75*
G02*
X123950000Y-101265000I-150000J0D01*
G01*
X122300000Y-101265000D01*
G75*
G02*
X122150000Y-101115000I0J150000D01*
G01*
G37*
G36*
G01*
X117200000Y-101115000D02*
X117200000Y-100815000D01*
G75*
G02*
X117350000Y-100665000I150000J0D01*
G01*
X119000000Y-100665000D01*
G75*
G02*
X119150000Y-100815000I0J-150000D01*
G01*
X119150000Y-101115000D01*
G75*
G02*
X119000000Y-101265000I-150000J0D01*
G01*
X117350000Y-101265000D01*
G75*
G02*
X117200000Y-101115000I0J150000D01*
G01*
G37*
G36*
G01*
X117200000Y-99845000D02*
X117200000Y-99545000D01*
G75*
G02*
X117350000Y-99395000I150000J0D01*
G01*
X119000000Y-99395000D01*
G75*
G02*
X119150000Y-99545000I0J-150000D01*
G01*
X119150000Y-99845000D01*
G75*
G02*
X119000000Y-99995000I-150000J0D01*
G01*
X117350000Y-99995000D01*
G75*
G02*
X117200000Y-99845000I0J150000D01*
G01*
G37*
G36*
G01*
X117200000Y-98575000D02*
X117200000Y-98275000D01*
G75*
G02*
X117350000Y-98125000I150000J0D01*
G01*
X119000000Y-98125000D01*
G75*
G02*
X119150000Y-98275000I0J-150000D01*
G01*
X119150000Y-98575000D01*
G75*
G02*
X119000000Y-98725000I-150000J0D01*
G01*
X117350000Y-98725000D01*
G75*
G02*
X117200000Y-98575000I0J150000D01*
G01*
G37*
G36*
G01*
X117200000Y-97305000D02*
X117200000Y-97005000D01*
G75*
G02*
X117350000Y-96855000I150000J0D01*
G01*
X119000000Y-96855000D01*
G75*
G02*
X119150000Y-97005000I0J-150000D01*
G01*
X119150000Y-97305000D01*
G75*
G02*
X119000000Y-97455000I-150000J0D01*
G01*
X117350000Y-97455000D01*
G75*
G02*
X117200000Y-97305000I0J150000D01*
G01*
G37*
G36*
G01*
X109450000Y-97305000D02*
X109450000Y-97005000D01*
G75*
G02*
X109600000Y-96855000I150000J0D01*
G01*
X111250000Y-96855000D01*
G75*
G02*
X111400000Y-97005000I0J-150000D01*
G01*
X111400000Y-97305000D01*
G75*
G02*
X111250000Y-97455000I-150000J0D01*
G01*
X109600000Y-97455000D01*
G75*
G02*
X109450000Y-97305000I0J150000D01*
G01*
G37*
G36*
G01*
X109450000Y-98575000D02*
X109450000Y-98275000D01*
G75*
G02*
X109600000Y-98125000I150000J0D01*
G01*
X111250000Y-98125000D01*
G75*
G02*
X111400000Y-98275000I0J-150000D01*
G01*
X111400000Y-98575000D01*
G75*
G02*
X111250000Y-98725000I-150000J0D01*
G01*
X109600000Y-98725000D01*
G75*
G02*
X109450000Y-98575000I0J150000D01*
G01*
G37*
G36*
G01*
X109450000Y-99845000D02*
X109450000Y-99545000D01*
G75*
G02*
X109600000Y-99395000I150000J0D01*
G01*
X111250000Y-99395000D01*
G75*
G02*
X111400000Y-99545000I0J-150000D01*
G01*
X111400000Y-99845000D01*
G75*
G02*
X111250000Y-99995000I-150000J0D01*
G01*
X109600000Y-99995000D01*
G75*
G02*
X109450000Y-99845000I0J150000D01*
G01*
G37*
G36*
G01*
X109450000Y-101115000D02*
X109450000Y-100815000D01*
G75*
G02*
X109600000Y-100665000I150000J0D01*
G01*
X111250000Y-100665000D01*
G75*
G02*
X111400000Y-100815000I0J-150000D01*
G01*
X111400000Y-101115000D01*
G75*
G02*
X111250000Y-101265000I-150000J0D01*
G01*
X109600000Y-101265000D01*
G75*
G02*
X109450000Y-101115000I0J150000D01*
G01*
G37*
G36*
G01*
X104500000Y-101115000D02*
X104500000Y-100815000D01*
G75*
G02*
X104650000Y-100665000I150000J0D01*
G01*
X106300000Y-100665000D01*
G75*
G02*
X106450000Y-100815000I0J-150000D01*
G01*
X106450000Y-101115000D01*
G75*
G02*
X106300000Y-101265000I-150000J0D01*
G01*
X104650000Y-101265000D01*
G75*
G02*
X104500000Y-101115000I0J150000D01*
G01*
G37*
G36*
G01*
X104500000Y-99845000D02*
X104500000Y-99545000D01*
G75*
G02*
X104650000Y-99395000I150000J0D01*
G01*
X106300000Y-99395000D01*
G75*
G02*
X106450000Y-99545000I0J-150000D01*
G01*
X106450000Y-99845000D01*
G75*
G02*
X106300000Y-99995000I-150000J0D01*
G01*
X104650000Y-99995000D01*
G75*
G02*
X104500000Y-99845000I0J150000D01*
G01*
G37*
G36*
G01*
X104500000Y-98575000D02*
X104500000Y-98275000D01*
G75*
G02*
X104650000Y-98125000I150000J0D01*
G01*
X106300000Y-98125000D01*
G75*
G02*
X106450000Y-98275000I0J-150000D01*
G01*
X106450000Y-98575000D01*
G75*
G02*
X106300000Y-98725000I-150000J0D01*
G01*
X104650000Y-98725000D01*
G75*
G02*
X104500000Y-98575000I0J150000D01*
G01*
G37*
G36*
G01*
X104500000Y-97305000D02*
X104500000Y-97005000D01*
G75*
G02*
X104650000Y-96855000I150000J0D01*
G01*
X106300000Y-96855000D01*
G75*
G02*
X106450000Y-97005000I0J-150000D01*
G01*
X106450000Y-97305000D01*
G75*
G02*
X106300000Y-97455000I-150000J0D01*
G01*
X104650000Y-97455000D01*
G75*
G02*
X104500000Y-97305000I0J150000D01*
G01*
G37*
G36*
G01*
X96750000Y-97305000D02*
X96750000Y-97005000D01*
G75*
G02*
X96900000Y-96855000I150000J0D01*
G01*
X98550000Y-96855000D01*
G75*
G02*
X98700000Y-97005000I0J-150000D01*
G01*
X98700000Y-97305000D01*
G75*
G02*
X98550000Y-97455000I-150000J0D01*
G01*
X96900000Y-97455000D01*
G75*
G02*
X96750000Y-97305000I0J150000D01*
G01*
G37*
G36*
G01*
X96750000Y-98575000D02*
X96750000Y-98275000D01*
G75*
G02*
X96900000Y-98125000I150000J0D01*
G01*
X98550000Y-98125000D01*
G75*
G02*
X98700000Y-98275000I0J-150000D01*
G01*
X98700000Y-98575000D01*
G75*
G02*
X98550000Y-98725000I-150000J0D01*
G01*
X96900000Y-98725000D01*
G75*
G02*
X96750000Y-98575000I0J150000D01*
G01*
G37*
G36*
G01*
X96750000Y-99845000D02*
X96750000Y-99545000D01*
G75*
G02*
X96900000Y-99395000I150000J0D01*
G01*
X98550000Y-99395000D01*
G75*
G02*
X98700000Y-99545000I0J-150000D01*
G01*
X98700000Y-99845000D01*
G75*
G02*
X98550000Y-99995000I-150000J0D01*
G01*
X96900000Y-99995000D01*
G75*
G02*
X96750000Y-99845000I0J150000D01*
G01*
G37*
G36*
G01*
X96750000Y-101115000D02*
X96750000Y-100815000D01*
G75*
G02*
X96900000Y-100665000I150000J0D01*
G01*
X98550000Y-100665000D01*
G75*
G02*
X98700000Y-100815000I0J-150000D01*
G01*
X98700000Y-101115000D01*
G75*
G02*
X98550000Y-101265000I-150000J0D01*
G01*
X96900000Y-101265000D01*
G75*
G02*
X96750000Y-101115000I0J150000D01*
G01*
G37*
G36*
G01*
X91800000Y-101115000D02*
X91800000Y-100815000D01*
G75*
G02*
X91950000Y-100665000I150000J0D01*
G01*
X93600000Y-100665000D01*
G75*
G02*
X93750000Y-100815000I0J-150000D01*
G01*
X93750000Y-101115000D01*
G75*
G02*
X93600000Y-101265000I-150000J0D01*
G01*
X91950000Y-101265000D01*
G75*
G02*
X91800000Y-101115000I0J150000D01*
G01*
G37*
G36*
G01*
X91800000Y-99845000D02*
X91800000Y-99545000D01*
G75*
G02*
X91950000Y-99395000I150000J0D01*
G01*
X93600000Y-99395000D01*
G75*
G02*
X93750000Y-99545000I0J-150000D01*
G01*
X93750000Y-99845000D01*
G75*
G02*
X93600000Y-99995000I-150000J0D01*
G01*
X91950000Y-99995000D01*
G75*
G02*
X91800000Y-99845000I0J150000D01*
G01*
G37*
G36*
G01*
X91800000Y-98575000D02*
X91800000Y-98275000D01*
G75*
G02*
X91950000Y-98125000I150000J0D01*
G01*
X93600000Y-98125000D01*
G75*
G02*
X93750000Y-98275000I0J-150000D01*
G01*
X93750000Y-98575000D01*
G75*
G02*
X93600000Y-98725000I-150000J0D01*
G01*
X91950000Y-98725000D01*
G75*
G02*
X91800000Y-98575000I0J150000D01*
G01*
G37*
G36*
G01*
X91800000Y-97305000D02*
X91800000Y-97005000D01*
G75*
G02*
X91950000Y-96855000I150000J0D01*
G01*
X93600000Y-96855000D01*
G75*
G02*
X93750000Y-97005000I0J-150000D01*
G01*
X93750000Y-97305000D01*
G75*
G02*
X93600000Y-97455000I-150000J0D01*
G01*
X91950000Y-97455000D01*
G75*
G02*
X91800000Y-97305000I0J150000D01*
G01*
G37*
G36*
G01*
X84050000Y-97305000D02*
X84050000Y-97005000D01*
G75*
G02*
X84200000Y-96855000I150000J0D01*
G01*
X85850000Y-96855000D01*
G75*
G02*
X86000000Y-97005000I0J-150000D01*
G01*
X86000000Y-97305000D01*
G75*
G02*
X85850000Y-97455000I-150000J0D01*
G01*
X84200000Y-97455000D01*
G75*
G02*
X84050000Y-97305000I0J150000D01*
G01*
G37*
G36*
G01*
X84050000Y-98575000D02*
X84050000Y-98275000D01*
G75*
G02*
X84200000Y-98125000I150000J0D01*
G01*
X85850000Y-98125000D01*
G75*
G02*
X86000000Y-98275000I0J-150000D01*
G01*
X86000000Y-98575000D01*
G75*
G02*
X85850000Y-98725000I-150000J0D01*
G01*
X84200000Y-98725000D01*
G75*
G02*
X84050000Y-98575000I0J150000D01*
G01*
G37*
G36*
G01*
X84050000Y-99845000D02*
X84050000Y-99545000D01*
G75*
G02*
X84200000Y-99395000I150000J0D01*
G01*
X85850000Y-99395000D01*
G75*
G02*
X86000000Y-99545000I0J-150000D01*
G01*
X86000000Y-99845000D01*
G75*
G02*
X85850000Y-99995000I-150000J0D01*
G01*
X84200000Y-99995000D01*
G75*
G02*
X84050000Y-99845000I0J150000D01*
G01*
G37*
G36*
G01*
X84050000Y-101115000D02*
X84050000Y-100815000D01*
G75*
G02*
X84200000Y-100665000I150000J0D01*
G01*
X85850000Y-100665000D01*
G75*
G02*
X86000000Y-100815000I0J-150000D01*
G01*
X86000000Y-101115000D01*
G75*
G02*
X85850000Y-101265000I-150000J0D01*
G01*
X84200000Y-101265000D01*
G75*
G02*
X84050000Y-101115000I0J150000D01*
G01*
G37*
G36*
G01*
X79100000Y-101115000D02*
X79100000Y-100815000D01*
G75*
G02*
X79250000Y-100665000I150000J0D01*
G01*
X80900000Y-100665000D01*
G75*
G02*
X81050000Y-100815000I0J-150000D01*
G01*
X81050000Y-101115000D01*
G75*
G02*
X80900000Y-101265000I-150000J0D01*
G01*
X79250000Y-101265000D01*
G75*
G02*
X79100000Y-101115000I0J150000D01*
G01*
G37*
G36*
G01*
X79100000Y-99845000D02*
X79100000Y-99545000D01*
G75*
G02*
X79250000Y-99395000I150000J0D01*
G01*
X80900000Y-99395000D01*
G75*
G02*
X81050000Y-99545000I0J-150000D01*
G01*
X81050000Y-99845000D01*
G75*
G02*
X80900000Y-99995000I-150000J0D01*
G01*
X79250000Y-99995000D01*
G75*
G02*
X79100000Y-99845000I0J150000D01*
G01*
G37*
G36*
G01*
X79100000Y-98575000D02*
X79100000Y-98275000D01*
G75*
G02*
X79250000Y-98125000I150000J0D01*
G01*
X80900000Y-98125000D01*
G75*
G02*
X81050000Y-98275000I0J-150000D01*
G01*
X81050000Y-98575000D01*
G75*
G02*
X80900000Y-98725000I-150000J0D01*
G01*
X79250000Y-98725000D01*
G75*
G02*
X79100000Y-98575000I0J150000D01*
G01*
G37*
G36*
G01*
X79100000Y-97305000D02*
X79100000Y-97005000D01*
G75*
G02*
X79250000Y-96855000I150000J0D01*
G01*
X80900000Y-96855000D01*
G75*
G02*
X81050000Y-97005000I0J-150000D01*
G01*
X81050000Y-97305000D01*
G75*
G02*
X80900000Y-97455000I-150000J0D01*
G01*
X79250000Y-97455000D01*
G75*
G02*
X79100000Y-97305000I0J150000D01*
G01*
G37*
G36*
G01*
X71350000Y-97305000D02*
X71350000Y-97005000D01*
G75*
G02*
X71500000Y-96855000I150000J0D01*
G01*
X73150000Y-96855000D01*
G75*
G02*
X73300000Y-97005000I0J-150000D01*
G01*
X73300000Y-97305000D01*
G75*
G02*
X73150000Y-97455000I-150000J0D01*
G01*
X71500000Y-97455000D01*
G75*
G02*
X71350000Y-97305000I0J150000D01*
G01*
G37*
G36*
G01*
X71350000Y-98575000D02*
X71350000Y-98275000D01*
G75*
G02*
X71500000Y-98125000I150000J0D01*
G01*
X73150000Y-98125000D01*
G75*
G02*
X73300000Y-98275000I0J-150000D01*
G01*
X73300000Y-98575000D01*
G75*
G02*
X73150000Y-98725000I-150000J0D01*
G01*
X71500000Y-98725000D01*
G75*
G02*
X71350000Y-98575000I0J150000D01*
G01*
G37*
G36*
G01*
X71350000Y-99845000D02*
X71350000Y-99545000D01*
G75*
G02*
X71500000Y-99395000I150000J0D01*
G01*
X73150000Y-99395000D01*
G75*
G02*
X73300000Y-99545000I0J-150000D01*
G01*
X73300000Y-99845000D01*
G75*
G02*
X73150000Y-99995000I-150000J0D01*
G01*
X71500000Y-99995000D01*
G75*
G02*
X71350000Y-99845000I0J150000D01*
G01*
G37*
G36*
G01*
X71350000Y-101115000D02*
X71350000Y-100815000D01*
G75*
G02*
X71500000Y-100665000I150000J0D01*
G01*
X73150000Y-100665000D01*
G75*
G02*
X73300000Y-100815000I0J-150000D01*
G01*
X73300000Y-101115000D01*
G75*
G02*
X73150000Y-101265000I-150000J0D01*
G01*
X71500000Y-101265000D01*
G75*
G02*
X71350000Y-101115000I0J150000D01*
G01*
G37*
G36*
G01*
X66400000Y-101115000D02*
X66400000Y-100815000D01*
G75*
G02*
X66550000Y-100665000I150000J0D01*
G01*
X68200000Y-100665000D01*
G75*
G02*
X68350000Y-100815000I0J-150000D01*
G01*
X68350000Y-101115000D01*
G75*
G02*
X68200000Y-101265000I-150000J0D01*
G01*
X66550000Y-101265000D01*
G75*
G02*
X66400000Y-101115000I0J150000D01*
G01*
G37*
G36*
G01*
X66400000Y-99845000D02*
X66400000Y-99545000D01*
G75*
G02*
X66550000Y-99395000I150000J0D01*
G01*
X68200000Y-99395000D01*
G75*
G02*
X68350000Y-99545000I0J-150000D01*
G01*
X68350000Y-99845000D01*
G75*
G02*
X68200000Y-99995000I-150000J0D01*
G01*
X66550000Y-99995000D01*
G75*
G02*
X66400000Y-99845000I0J150000D01*
G01*
G37*
G36*
G01*
X66400000Y-98575000D02*
X66400000Y-98275000D01*
G75*
G02*
X66550000Y-98125000I150000J0D01*
G01*
X68200000Y-98125000D01*
G75*
G02*
X68350000Y-98275000I0J-150000D01*
G01*
X68350000Y-98575000D01*
G75*
G02*
X68200000Y-98725000I-150000J0D01*
G01*
X66550000Y-98725000D01*
G75*
G02*
X66400000Y-98575000I0J150000D01*
G01*
G37*
G36*
G01*
X66400000Y-97305000D02*
X66400000Y-97005000D01*
G75*
G02*
X66550000Y-96855000I150000J0D01*
G01*
X68200000Y-96855000D01*
G75*
G02*
X68350000Y-97005000I0J-150000D01*
G01*
X68350000Y-97305000D01*
G75*
G02*
X68200000Y-97455000I-150000J0D01*
G01*
X66550000Y-97455000D01*
G75*
G02*
X66400000Y-97305000I0J150000D01*
G01*
G37*
D12*
X158750000Y-108180000D03*
X157800000Y-105180000D03*
X159700000Y-105180000D03*
X146050000Y-108180000D03*
X145100000Y-105180000D03*
X147000000Y-105180000D03*
X133350000Y-108180000D03*
X132400000Y-105180000D03*
X134300000Y-105180000D03*
X120650000Y-108180000D03*
X119700000Y-105180000D03*
X121600000Y-105180000D03*
X107950000Y-108180000D03*
X107000000Y-105180000D03*
X108900000Y-105180000D03*
X95250000Y-108180000D03*
X94300000Y-105180000D03*
X96200000Y-105180000D03*
X82550000Y-108180000D03*
X81600000Y-105180000D03*
X83500000Y-105180000D03*
X69850000Y-108180000D03*
X68900000Y-105180000D03*
X70800000Y-105180000D03*
G36*
G01*
X161112500Y-93335001D02*
X161112500Y-92084999D01*
G75*
G02*
X161362499Y-91835000I249999J0D01*
G01*
X161987501Y-91835000D01*
G75*
G02*
X162237500Y-92084999I0J-249999D01*
G01*
X162237500Y-93335001D01*
G75*
G02*
X161987501Y-93585000I-249999J0D01*
G01*
X161362499Y-93585000D01*
G75*
G02*
X161112500Y-93335001I0J249999D01*
G01*
G37*
G36*
G01*
X158187500Y-93335001D02*
X158187500Y-92084999D01*
G75*
G02*
X158437499Y-91835000I249999J0D01*
G01*
X159062501Y-91835000D01*
G75*
G02*
X159312500Y-92084999I0J-249999D01*
G01*
X159312500Y-93335001D01*
G75*
G02*
X159062501Y-93585000I-249999J0D01*
G01*
X158437499Y-93585000D01*
G75*
G02*
X158187500Y-93335001I0J249999D01*
G01*
G37*
G36*
G01*
X148412500Y-93335001D02*
X148412500Y-92084999D01*
G75*
G02*
X148662499Y-91835000I249999J0D01*
G01*
X149287501Y-91835000D01*
G75*
G02*
X149537500Y-92084999I0J-249999D01*
G01*
X149537500Y-93335001D01*
G75*
G02*
X149287501Y-93585000I-249999J0D01*
G01*
X148662499Y-93585000D01*
G75*
G02*
X148412500Y-93335001I0J249999D01*
G01*
G37*
G36*
G01*
X145487500Y-93335001D02*
X145487500Y-92084999D01*
G75*
G02*
X145737499Y-91835000I249999J0D01*
G01*
X146362501Y-91835000D01*
G75*
G02*
X146612500Y-92084999I0J-249999D01*
G01*
X146612500Y-93335001D01*
G75*
G02*
X146362501Y-93585000I-249999J0D01*
G01*
X145737499Y-93585000D01*
G75*
G02*
X145487500Y-93335001I0J249999D01*
G01*
G37*
G36*
G01*
X135712500Y-93335001D02*
X135712500Y-92084999D01*
G75*
G02*
X135962499Y-91835000I249999J0D01*
G01*
X136587501Y-91835000D01*
G75*
G02*
X136837500Y-92084999I0J-249999D01*
G01*
X136837500Y-93335001D01*
G75*
G02*
X136587501Y-93585000I-249999J0D01*
G01*
X135962499Y-93585000D01*
G75*
G02*
X135712500Y-93335001I0J249999D01*
G01*
G37*
G36*
G01*
X132787500Y-93335001D02*
X132787500Y-92084999D01*
G75*
G02*
X133037499Y-91835000I249999J0D01*
G01*
X133662501Y-91835000D01*
G75*
G02*
X133912500Y-92084999I0J-249999D01*
G01*
X133912500Y-93335001D01*
G75*
G02*
X133662501Y-93585000I-249999J0D01*
G01*
X133037499Y-93585000D01*
G75*
G02*
X132787500Y-93335001I0J249999D01*
G01*
G37*
G36*
G01*
X123012500Y-93335001D02*
X123012500Y-92084999D01*
G75*
G02*
X123262499Y-91835000I249999J0D01*
G01*
X123887501Y-91835000D01*
G75*
G02*
X124137500Y-92084999I0J-249999D01*
G01*
X124137500Y-93335001D01*
G75*
G02*
X123887501Y-93585000I-249999J0D01*
G01*
X123262499Y-93585000D01*
G75*
G02*
X123012500Y-93335001I0J249999D01*
G01*
G37*
G36*
G01*
X120087500Y-93335001D02*
X120087500Y-92084999D01*
G75*
G02*
X120337499Y-91835000I249999J0D01*
G01*
X120962501Y-91835000D01*
G75*
G02*
X121212500Y-92084999I0J-249999D01*
G01*
X121212500Y-93335001D01*
G75*
G02*
X120962501Y-93585000I-249999J0D01*
G01*
X120337499Y-93585000D01*
G75*
G02*
X120087500Y-93335001I0J249999D01*
G01*
G37*
G36*
G01*
X110312500Y-93335001D02*
X110312500Y-92084999D01*
G75*
G02*
X110562499Y-91835000I249999J0D01*
G01*
X111187501Y-91835000D01*
G75*
G02*
X111437500Y-92084999I0J-249999D01*
G01*
X111437500Y-93335001D01*
G75*
G02*
X111187501Y-93585000I-249999J0D01*
G01*
X110562499Y-93585000D01*
G75*
G02*
X110312500Y-93335001I0J249999D01*
G01*
G37*
G36*
G01*
X107387500Y-93335001D02*
X107387500Y-92084999D01*
G75*
G02*
X107637499Y-91835000I249999J0D01*
G01*
X108262501Y-91835000D01*
G75*
G02*
X108512500Y-92084999I0J-249999D01*
G01*
X108512500Y-93335001D01*
G75*
G02*
X108262501Y-93585000I-249999J0D01*
G01*
X107637499Y-93585000D01*
G75*
G02*
X107387500Y-93335001I0J249999D01*
G01*
G37*
G36*
G01*
X97612500Y-93335001D02*
X97612500Y-92084999D01*
G75*
G02*
X97862499Y-91835000I249999J0D01*
G01*
X98487501Y-91835000D01*
G75*
G02*
X98737500Y-92084999I0J-249999D01*
G01*
X98737500Y-93335001D01*
G75*
G02*
X98487501Y-93585000I-249999J0D01*
G01*
X97862499Y-93585000D01*
G75*
G02*
X97612500Y-93335001I0J249999D01*
G01*
G37*
G36*
G01*
X94687500Y-93335001D02*
X94687500Y-92084999D01*
G75*
G02*
X94937499Y-91835000I249999J0D01*
G01*
X95562501Y-91835000D01*
G75*
G02*
X95812500Y-92084999I0J-249999D01*
G01*
X95812500Y-93335001D01*
G75*
G02*
X95562501Y-93585000I-249999J0D01*
G01*
X94937499Y-93585000D01*
G75*
G02*
X94687500Y-93335001I0J249999D01*
G01*
G37*
G36*
G01*
X84912500Y-93335001D02*
X84912500Y-92084999D01*
G75*
G02*
X85162499Y-91835000I249999J0D01*
G01*
X85787501Y-91835000D01*
G75*
G02*
X86037500Y-92084999I0J-249999D01*
G01*
X86037500Y-93335001D01*
G75*
G02*
X85787501Y-93585000I-249999J0D01*
G01*
X85162499Y-93585000D01*
G75*
G02*
X84912500Y-93335001I0J249999D01*
G01*
G37*
G36*
G01*
X81987500Y-93335001D02*
X81987500Y-92084999D01*
G75*
G02*
X82237499Y-91835000I249999J0D01*
G01*
X82862501Y-91835000D01*
G75*
G02*
X83112500Y-92084999I0J-249999D01*
G01*
X83112500Y-93335001D01*
G75*
G02*
X82862501Y-93585000I-249999J0D01*
G01*
X82237499Y-93585000D01*
G75*
G02*
X81987500Y-93335001I0J249999D01*
G01*
G37*
G36*
G01*
X72212500Y-93335001D02*
X72212500Y-92084999D01*
G75*
G02*
X72462499Y-91835000I249999J0D01*
G01*
X73087501Y-91835000D01*
G75*
G02*
X73337500Y-92084999I0J-249999D01*
G01*
X73337500Y-93335001D01*
G75*
G02*
X73087501Y-93585000I-249999J0D01*
G01*
X72462499Y-93585000D01*
G75*
G02*
X72212500Y-93335001I0J249999D01*
G01*
G37*
G36*
G01*
X69287500Y-93335001D02*
X69287500Y-92084999D01*
G75*
G02*
X69537499Y-91835000I249999J0D01*
G01*
X70162501Y-91835000D01*
G75*
G02*
X70412500Y-92084999I0J-249999D01*
G01*
X70412500Y-93335001D01*
G75*
G02*
X70162501Y-93585000I-249999J0D01*
G01*
X69537499Y-93585000D01*
G75*
G02*
X69287500Y-93335001I0J249999D01*
G01*
G37*
G36*
G01*
X156575000Y-84465000D02*
X156575000Y-85715000D01*
G75*
G02*
X156325000Y-85965000I-250000J0D01*
G01*
X155575000Y-85965000D01*
G75*
G02*
X155325000Y-85715000I0J250000D01*
G01*
X155325000Y-84465000D01*
G75*
G02*
X155575000Y-84215000I250000J0D01*
G01*
X156325000Y-84215000D01*
G75*
G02*
X156575000Y-84465000I0J-250000D01*
G01*
G37*
G36*
G01*
X159375000Y-84465000D02*
X159375000Y-85715000D01*
G75*
G02*
X159125000Y-85965000I-250000J0D01*
G01*
X158375000Y-85965000D01*
G75*
G02*
X158125000Y-85715000I0J250000D01*
G01*
X158125000Y-84465000D01*
G75*
G02*
X158375000Y-84215000I250000J0D01*
G01*
X159125000Y-84215000D01*
G75*
G02*
X159375000Y-84465000I0J-250000D01*
G01*
G37*
G36*
G01*
X143875000Y-84465000D02*
X143875000Y-85715000D01*
G75*
G02*
X143625000Y-85965000I-250000J0D01*
G01*
X142875000Y-85965000D01*
G75*
G02*
X142625000Y-85715000I0J250000D01*
G01*
X142625000Y-84465000D01*
G75*
G02*
X142875000Y-84215000I250000J0D01*
G01*
X143625000Y-84215000D01*
G75*
G02*
X143875000Y-84465000I0J-250000D01*
G01*
G37*
G36*
G01*
X146675000Y-84465000D02*
X146675000Y-85715000D01*
G75*
G02*
X146425000Y-85965000I-250000J0D01*
G01*
X145675000Y-85965000D01*
G75*
G02*
X145425000Y-85715000I0J250000D01*
G01*
X145425000Y-84465000D01*
G75*
G02*
X145675000Y-84215000I250000J0D01*
G01*
X146425000Y-84215000D01*
G75*
G02*
X146675000Y-84465000I0J-250000D01*
G01*
G37*
G36*
G01*
X131175000Y-84465000D02*
X131175000Y-85715000D01*
G75*
G02*
X130925000Y-85965000I-250000J0D01*
G01*
X130175000Y-85965000D01*
G75*
G02*
X129925000Y-85715000I0J250000D01*
G01*
X129925000Y-84465000D01*
G75*
G02*
X130175000Y-84215000I250000J0D01*
G01*
X130925000Y-84215000D01*
G75*
G02*
X131175000Y-84465000I0J-250000D01*
G01*
G37*
G36*
G01*
X133975000Y-84465000D02*
X133975000Y-85715000D01*
G75*
G02*
X133725000Y-85965000I-250000J0D01*
G01*
X132975000Y-85965000D01*
G75*
G02*
X132725000Y-85715000I0J250000D01*
G01*
X132725000Y-84465000D01*
G75*
G02*
X132975000Y-84215000I250000J0D01*
G01*
X133725000Y-84215000D01*
G75*
G02*
X133975000Y-84465000I0J-250000D01*
G01*
G37*
G36*
G01*
X118475000Y-84465000D02*
X118475000Y-85715000D01*
G75*
G02*
X118225000Y-85965000I-250000J0D01*
G01*
X117475000Y-85965000D01*
G75*
G02*
X117225000Y-85715000I0J250000D01*
G01*
X117225000Y-84465000D01*
G75*
G02*
X117475000Y-84215000I250000J0D01*
G01*
X118225000Y-84215000D01*
G75*
G02*
X118475000Y-84465000I0J-250000D01*
G01*
G37*
G36*
G01*
X121275000Y-84465000D02*
X121275000Y-85715000D01*
G75*
G02*
X121025000Y-85965000I-250000J0D01*
G01*
X120275000Y-85965000D01*
G75*
G02*
X120025000Y-85715000I0J250000D01*
G01*
X120025000Y-84465000D01*
G75*
G02*
X120275000Y-84215000I250000J0D01*
G01*
X121025000Y-84215000D01*
G75*
G02*
X121275000Y-84465000I0J-250000D01*
G01*
G37*
G36*
G01*
X105775000Y-84465000D02*
X105775000Y-85715000D01*
G75*
G02*
X105525000Y-85965000I-250000J0D01*
G01*
X104775000Y-85965000D01*
G75*
G02*
X104525000Y-85715000I0J250000D01*
G01*
X104525000Y-84465000D01*
G75*
G02*
X104775000Y-84215000I250000J0D01*
G01*
X105525000Y-84215000D01*
G75*
G02*
X105775000Y-84465000I0J-250000D01*
G01*
G37*
G36*
G01*
X108575000Y-84465000D02*
X108575000Y-85715000D01*
G75*
G02*
X108325000Y-85965000I-250000J0D01*
G01*
X107575000Y-85965000D01*
G75*
G02*
X107325000Y-85715000I0J250000D01*
G01*
X107325000Y-84465000D01*
G75*
G02*
X107575000Y-84215000I250000J0D01*
G01*
X108325000Y-84215000D01*
G75*
G02*
X108575000Y-84465000I0J-250000D01*
G01*
G37*
G36*
G01*
X93075000Y-84465000D02*
X93075000Y-85715000D01*
G75*
G02*
X92825000Y-85965000I-250000J0D01*
G01*
X92075000Y-85965000D01*
G75*
G02*
X91825000Y-85715000I0J250000D01*
G01*
X91825000Y-84465000D01*
G75*
G02*
X92075000Y-84215000I250000J0D01*
G01*
X92825000Y-84215000D01*
G75*
G02*
X93075000Y-84465000I0J-250000D01*
G01*
G37*
G36*
G01*
X95875000Y-84465000D02*
X95875000Y-85715000D01*
G75*
G02*
X95625000Y-85965000I-250000J0D01*
G01*
X94875000Y-85965000D01*
G75*
G02*
X94625000Y-85715000I0J250000D01*
G01*
X94625000Y-84465000D01*
G75*
G02*
X94875000Y-84215000I250000J0D01*
G01*
X95625000Y-84215000D01*
G75*
G02*
X95875000Y-84465000I0J-250000D01*
G01*
G37*
G36*
G01*
X80375000Y-84465000D02*
X80375000Y-85715000D01*
G75*
G02*
X80125000Y-85965000I-250000J0D01*
G01*
X79375000Y-85965000D01*
G75*
G02*
X79125000Y-85715000I0J250000D01*
G01*
X79125000Y-84465000D01*
G75*
G02*
X79375000Y-84215000I250000J0D01*
G01*
X80125000Y-84215000D01*
G75*
G02*
X80375000Y-84465000I0J-250000D01*
G01*
G37*
G36*
G01*
X83175000Y-84465000D02*
X83175000Y-85715000D01*
G75*
G02*
X82925000Y-85965000I-250000J0D01*
G01*
X82175000Y-85965000D01*
G75*
G02*
X81925000Y-85715000I0J250000D01*
G01*
X81925000Y-84465000D01*
G75*
G02*
X82175000Y-84215000I250000J0D01*
G01*
X82925000Y-84215000D01*
G75*
G02*
X83175000Y-84465000I0J-250000D01*
G01*
G37*
G36*
G01*
X67675000Y-84465000D02*
X67675000Y-85715000D01*
G75*
G02*
X67425000Y-85965000I-250000J0D01*
G01*
X66675000Y-85965000D01*
G75*
G02*
X66425000Y-85715000I0J250000D01*
G01*
X66425000Y-84465000D01*
G75*
G02*
X66675000Y-84215000I250000J0D01*
G01*
X67425000Y-84215000D01*
G75*
G02*
X67675000Y-84465000I0J-250000D01*
G01*
G37*
G36*
G01*
X70475000Y-84465000D02*
X70475000Y-85715000D01*
G75*
G02*
X70225000Y-85965000I-250000J0D01*
G01*
X69475000Y-85965000D01*
G75*
G02*
X69225000Y-85715000I0J250000D01*
G01*
X69225000Y-84465000D01*
G75*
G02*
X69475000Y-84215000I250000J0D01*
G01*
X70225000Y-84215000D01*
G75*
G02*
X70475000Y-84465000I0J-250000D01*
G01*
G37*
G36*
G01*
X156575000Y-89545000D02*
X156575000Y-90795000D01*
G75*
G02*
X156325000Y-91045000I-250000J0D01*
G01*
X155575000Y-91045000D01*
G75*
G02*
X155325000Y-90795000I0J250000D01*
G01*
X155325000Y-89545000D01*
G75*
G02*
X155575000Y-89295000I250000J0D01*
G01*
X156325000Y-89295000D01*
G75*
G02*
X156575000Y-89545000I0J-250000D01*
G01*
G37*
G36*
G01*
X159375000Y-89545000D02*
X159375000Y-90795000D01*
G75*
G02*
X159125000Y-91045000I-250000J0D01*
G01*
X158375000Y-91045000D01*
G75*
G02*
X158125000Y-90795000I0J250000D01*
G01*
X158125000Y-89545000D01*
G75*
G02*
X158375000Y-89295000I250000J0D01*
G01*
X159125000Y-89295000D01*
G75*
G02*
X159375000Y-89545000I0J-250000D01*
G01*
G37*
G36*
G01*
X143875000Y-89545000D02*
X143875000Y-90795000D01*
G75*
G02*
X143625000Y-91045000I-250000J0D01*
G01*
X142875000Y-91045000D01*
G75*
G02*
X142625000Y-90795000I0J250000D01*
G01*
X142625000Y-89545000D01*
G75*
G02*
X142875000Y-89295000I250000J0D01*
G01*
X143625000Y-89295000D01*
G75*
G02*
X143875000Y-89545000I0J-250000D01*
G01*
G37*
G36*
G01*
X146675000Y-89545000D02*
X146675000Y-90795000D01*
G75*
G02*
X146425000Y-91045000I-250000J0D01*
G01*
X145675000Y-91045000D01*
G75*
G02*
X145425000Y-90795000I0J250000D01*
G01*
X145425000Y-89545000D01*
G75*
G02*
X145675000Y-89295000I250000J0D01*
G01*
X146425000Y-89295000D01*
G75*
G02*
X146675000Y-89545000I0J-250000D01*
G01*
G37*
G36*
G01*
X131175000Y-89545000D02*
X131175000Y-90795000D01*
G75*
G02*
X130925000Y-91045000I-250000J0D01*
G01*
X130175000Y-91045000D01*
G75*
G02*
X129925000Y-90795000I0J250000D01*
G01*
X129925000Y-89545000D01*
G75*
G02*
X130175000Y-89295000I250000J0D01*
G01*
X130925000Y-89295000D01*
G75*
G02*
X131175000Y-89545000I0J-250000D01*
G01*
G37*
G36*
G01*
X133975000Y-89545000D02*
X133975000Y-90795000D01*
G75*
G02*
X133725000Y-91045000I-250000J0D01*
G01*
X132975000Y-91045000D01*
G75*
G02*
X132725000Y-90795000I0J250000D01*
G01*
X132725000Y-89545000D01*
G75*
G02*
X132975000Y-89295000I250000J0D01*
G01*
X133725000Y-89295000D01*
G75*
G02*
X133975000Y-89545000I0J-250000D01*
G01*
G37*
G36*
G01*
X118475000Y-89545000D02*
X118475000Y-90795000D01*
G75*
G02*
X118225000Y-91045000I-250000J0D01*
G01*
X117475000Y-91045000D01*
G75*
G02*
X117225000Y-90795000I0J250000D01*
G01*
X117225000Y-89545000D01*
G75*
G02*
X117475000Y-89295000I250000J0D01*
G01*
X118225000Y-89295000D01*
G75*
G02*
X118475000Y-89545000I0J-250000D01*
G01*
G37*
G36*
G01*
X121275000Y-89545000D02*
X121275000Y-90795000D01*
G75*
G02*
X121025000Y-91045000I-250000J0D01*
G01*
X120275000Y-91045000D01*
G75*
G02*
X120025000Y-90795000I0J250000D01*
G01*
X120025000Y-89545000D01*
G75*
G02*
X120275000Y-89295000I250000J0D01*
G01*
X121025000Y-89295000D01*
G75*
G02*
X121275000Y-89545000I0J-250000D01*
G01*
G37*
G36*
G01*
X105775000Y-89545000D02*
X105775000Y-90795000D01*
G75*
G02*
X105525000Y-91045000I-250000J0D01*
G01*
X104775000Y-91045000D01*
G75*
G02*
X104525000Y-90795000I0J250000D01*
G01*
X104525000Y-89545000D01*
G75*
G02*
X104775000Y-89295000I250000J0D01*
G01*
X105525000Y-89295000D01*
G75*
G02*
X105775000Y-89545000I0J-250000D01*
G01*
G37*
G36*
G01*
X108575000Y-89545000D02*
X108575000Y-90795000D01*
G75*
G02*
X108325000Y-91045000I-250000J0D01*
G01*
X107575000Y-91045000D01*
G75*
G02*
X107325000Y-90795000I0J250000D01*
G01*
X107325000Y-89545000D01*
G75*
G02*
X107575000Y-89295000I250000J0D01*
G01*
X108325000Y-89295000D01*
G75*
G02*
X108575000Y-89545000I0J-250000D01*
G01*
G37*
G36*
G01*
X93075000Y-89545000D02*
X93075000Y-90795000D01*
G75*
G02*
X92825000Y-91045000I-250000J0D01*
G01*
X92075000Y-91045000D01*
G75*
G02*
X91825000Y-90795000I0J250000D01*
G01*
X91825000Y-89545000D01*
G75*
G02*
X92075000Y-89295000I250000J0D01*
G01*
X92825000Y-89295000D01*
G75*
G02*
X93075000Y-89545000I0J-250000D01*
G01*
G37*
G36*
G01*
X95875000Y-89545000D02*
X95875000Y-90795000D01*
G75*
G02*
X95625000Y-91045000I-250000J0D01*
G01*
X94875000Y-91045000D01*
G75*
G02*
X94625000Y-90795000I0J250000D01*
G01*
X94625000Y-89545000D01*
G75*
G02*
X94875000Y-89295000I250000J0D01*
G01*
X95625000Y-89295000D01*
G75*
G02*
X95875000Y-89545000I0J-250000D01*
G01*
G37*
G36*
G01*
X80375000Y-89545000D02*
X80375000Y-90795000D01*
G75*
G02*
X80125000Y-91045000I-250000J0D01*
G01*
X79375000Y-91045000D01*
G75*
G02*
X79125000Y-90795000I0J250000D01*
G01*
X79125000Y-89545000D01*
G75*
G02*
X79375000Y-89295000I250000J0D01*
G01*
X80125000Y-89295000D01*
G75*
G02*
X80375000Y-89545000I0J-250000D01*
G01*
G37*
G36*
G01*
X83175000Y-89545000D02*
X83175000Y-90795000D01*
G75*
G02*
X82925000Y-91045000I-250000J0D01*
G01*
X82175000Y-91045000D01*
G75*
G02*
X81925000Y-90795000I0J250000D01*
G01*
X81925000Y-89545000D01*
G75*
G02*
X82175000Y-89295000I250000J0D01*
G01*
X82925000Y-89295000D01*
G75*
G02*
X83175000Y-89545000I0J-250000D01*
G01*
G37*
G36*
G01*
X67675000Y-89545000D02*
X67675000Y-90795000D01*
G75*
G02*
X67425000Y-91045000I-250000J0D01*
G01*
X66675000Y-91045000D01*
G75*
G02*
X66425000Y-90795000I0J250000D01*
G01*
X66425000Y-89545000D01*
G75*
G02*
X66675000Y-89295000I250000J0D01*
G01*
X67425000Y-89295000D01*
G75*
G02*
X67675000Y-89545000I0J-250000D01*
G01*
G37*
G36*
G01*
X70475000Y-89545000D02*
X70475000Y-90795000D01*
G75*
G02*
X70225000Y-91045000I-250000J0D01*
G01*
X69475000Y-91045000D01*
G75*
G02*
X69225000Y-90795000I0J250000D01*
G01*
X69225000Y-89545000D01*
G75*
G02*
X69475000Y-89295000I250000J0D01*
G01*
X70225000Y-89295000D01*
G75*
G02*
X70475000Y-89545000I0J-250000D01*
G01*
G37*
G36*
G01*
X159375000Y-87005000D02*
X159375000Y-88255000D01*
G75*
G02*
X159125000Y-88505000I-250000J0D01*
G01*
X158375000Y-88505000D01*
G75*
G02*
X158125000Y-88255000I0J250000D01*
G01*
X158125000Y-87005000D01*
G75*
G02*
X158375000Y-86755000I250000J0D01*
G01*
X159125000Y-86755000D01*
G75*
G02*
X159375000Y-87005000I0J-250000D01*
G01*
G37*
G36*
G01*
X162175000Y-87005000D02*
X162175000Y-88255000D01*
G75*
G02*
X161925000Y-88505000I-250000J0D01*
G01*
X161175000Y-88505000D01*
G75*
G02*
X160925000Y-88255000I0J250000D01*
G01*
X160925000Y-87005000D01*
G75*
G02*
X161175000Y-86755000I250000J0D01*
G01*
X161925000Y-86755000D01*
G75*
G02*
X162175000Y-87005000I0J-250000D01*
G01*
G37*
G36*
G01*
X146675000Y-87005000D02*
X146675000Y-88255000D01*
G75*
G02*
X146425000Y-88505000I-250000J0D01*
G01*
X145675000Y-88505000D01*
G75*
G02*
X145425000Y-88255000I0J250000D01*
G01*
X145425000Y-87005000D01*
G75*
G02*
X145675000Y-86755000I250000J0D01*
G01*
X146425000Y-86755000D01*
G75*
G02*
X146675000Y-87005000I0J-250000D01*
G01*
G37*
G36*
G01*
X149475000Y-87005000D02*
X149475000Y-88255000D01*
G75*
G02*
X149225000Y-88505000I-250000J0D01*
G01*
X148475000Y-88505000D01*
G75*
G02*
X148225000Y-88255000I0J250000D01*
G01*
X148225000Y-87005000D01*
G75*
G02*
X148475000Y-86755000I250000J0D01*
G01*
X149225000Y-86755000D01*
G75*
G02*
X149475000Y-87005000I0J-250000D01*
G01*
G37*
G36*
G01*
X133975000Y-87005000D02*
X133975000Y-88255000D01*
G75*
G02*
X133725000Y-88505000I-250000J0D01*
G01*
X132975000Y-88505000D01*
G75*
G02*
X132725000Y-88255000I0J250000D01*
G01*
X132725000Y-87005000D01*
G75*
G02*
X132975000Y-86755000I250000J0D01*
G01*
X133725000Y-86755000D01*
G75*
G02*
X133975000Y-87005000I0J-250000D01*
G01*
G37*
G36*
G01*
X136775000Y-87005000D02*
X136775000Y-88255000D01*
G75*
G02*
X136525000Y-88505000I-250000J0D01*
G01*
X135775000Y-88505000D01*
G75*
G02*
X135525000Y-88255000I0J250000D01*
G01*
X135525000Y-87005000D01*
G75*
G02*
X135775000Y-86755000I250000J0D01*
G01*
X136525000Y-86755000D01*
G75*
G02*
X136775000Y-87005000I0J-250000D01*
G01*
G37*
G36*
G01*
X121275000Y-87005000D02*
X121275000Y-88255000D01*
G75*
G02*
X121025000Y-88505000I-250000J0D01*
G01*
X120275000Y-88505000D01*
G75*
G02*
X120025000Y-88255000I0J250000D01*
G01*
X120025000Y-87005000D01*
G75*
G02*
X120275000Y-86755000I250000J0D01*
G01*
X121025000Y-86755000D01*
G75*
G02*
X121275000Y-87005000I0J-250000D01*
G01*
G37*
G36*
G01*
X124075000Y-87005000D02*
X124075000Y-88255000D01*
G75*
G02*
X123825000Y-88505000I-250000J0D01*
G01*
X123075000Y-88505000D01*
G75*
G02*
X122825000Y-88255000I0J250000D01*
G01*
X122825000Y-87005000D01*
G75*
G02*
X123075000Y-86755000I250000J0D01*
G01*
X123825000Y-86755000D01*
G75*
G02*
X124075000Y-87005000I0J-250000D01*
G01*
G37*
G36*
G01*
X108575000Y-87005000D02*
X108575000Y-88255000D01*
G75*
G02*
X108325000Y-88505000I-250000J0D01*
G01*
X107575000Y-88505000D01*
G75*
G02*
X107325000Y-88255000I0J250000D01*
G01*
X107325000Y-87005000D01*
G75*
G02*
X107575000Y-86755000I250000J0D01*
G01*
X108325000Y-86755000D01*
G75*
G02*
X108575000Y-87005000I0J-250000D01*
G01*
G37*
G36*
G01*
X111375000Y-87005000D02*
X111375000Y-88255000D01*
G75*
G02*
X111125000Y-88505000I-250000J0D01*
G01*
X110375000Y-88505000D01*
G75*
G02*
X110125000Y-88255000I0J250000D01*
G01*
X110125000Y-87005000D01*
G75*
G02*
X110375000Y-86755000I250000J0D01*
G01*
X111125000Y-86755000D01*
G75*
G02*
X111375000Y-87005000I0J-250000D01*
G01*
G37*
G36*
G01*
X95875000Y-87005000D02*
X95875000Y-88255000D01*
G75*
G02*
X95625000Y-88505000I-250000J0D01*
G01*
X94875000Y-88505000D01*
G75*
G02*
X94625000Y-88255000I0J250000D01*
G01*
X94625000Y-87005000D01*
G75*
G02*
X94875000Y-86755000I250000J0D01*
G01*
X95625000Y-86755000D01*
G75*
G02*
X95875000Y-87005000I0J-250000D01*
G01*
G37*
G36*
G01*
X98675000Y-87005000D02*
X98675000Y-88255000D01*
G75*
G02*
X98425000Y-88505000I-250000J0D01*
G01*
X97675000Y-88505000D01*
G75*
G02*
X97425000Y-88255000I0J250000D01*
G01*
X97425000Y-87005000D01*
G75*
G02*
X97675000Y-86755000I250000J0D01*
G01*
X98425000Y-86755000D01*
G75*
G02*
X98675000Y-87005000I0J-250000D01*
G01*
G37*
G36*
G01*
X83175000Y-87005000D02*
X83175000Y-88255000D01*
G75*
G02*
X82925000Y-88505000I-250000J0D01*
G01*
X82175000Y-88505000D01*
G75*
G02*
X81925000Y-88255000I0J250000D01*
G01*
X81925000Y-87005000D01*
G75*
G02*
X82175000Y-86755000I250000J0D01*
G01*
X82925000Y-86755000D01*
G75*
G02*
X83175000Y-87005000I0J-250000D01*
G01*
G37*
G36*
G01*
X85975000Y-87005000D02*
X85975000Y-88255000D01*
G75*
G02*
X85725000Y-88505000I-250000J0D01*
G01*
X84975000Y-88505000D01*
G75*
G02*
X84725000Y-88255000I0J250000D01*
G01*
X84725000Y-87005000D01*
G75*
G02*
X84975000Y-86755000I250000J0D01*
G01*
X85725000Y-86755000D01*
G75*
G02*
X85975000Y-87005000I0J-250000D01*
G01*
G37*
G36*
G01*
X70475000Y-87005000D02*
X70475000Y-88255000D01*
G75*
G02*
X70225000Y-88505000I-250000J0D01*
G01*
X69475000Y-88505000D01*
G75*
G02*
X69225000Y-88255000I0J250000D01*
G01*
X69225000Y-87005000D01*
G75*
G02*
X69475000Y-86755000I250000J0D01*
G01*
X70225000Y-86755000D01*
G75*
G02*
X70475000Y-87005000I0J-250000D01*
G01*
G37*
G36*
G01*
X73275000Y-87005000D02*
X73275000Y-88255000D01*
G75*
G02*
X73025000Y-88505000I-250000J0D01*
G01*
X72275000Y-88505000D01*
G75*
G02*
X72025000Y-88255000I0J250000D01*
G01*
X72025000Y-87005000D01*
G75*
G02*
X72275000Y-86755000I250000J0D01*
G01*
X73025000Y-86755000D01*
G75*
G02*
X73275000Y-87005000I0J-250000D01*
G01*
G37*
M02*
