G04 #@! TF.GenerationSoftware,KiCad,Pcbnew,5.1.8+dfsg1-1+b1*
G04 #@! TF.CreationDate,2021-05-07T15:05:44-05:00*
G04 #@! TF.ProjectId,potentiosynth,706f7465-6e74-4696-9f73-796e74682e6b,A*
G04 #@! TF.SameCoordinates,Original*
G04 #@! TF.FileFunction,Soldermask,Bot*
G04 #@! TF.FilePolarity,Negative*
%FSLAX46Y46*%
G04 Gerber Fmt 4.6, Leading zero omitted, Abs format (unit mm)*
G04 Created by KiCad (PCBNEW 5.1.8+dfsg1-1+b1) date 2021-05-07 15:05:44*
%MOMM*%
%LPD*%
G01*
G04 APERTURE LIST*
G04 #@! TA.AperFunction,Profile*
%ADD10C,0.150000*%
G04 #@! TD*
%ADD11C,1.440000*%
%ADD12R,3.500000X3.500000*%
%ADD13C,3.200000*%
%ADD14O,1.700000X1.700000*%
%ADD15R,1.700000X1.700000*%
%ADD16C,3.000000*%
%ADD17C,1.600000*%
%ADD18R,1.600000X1.600000*%
G04 APERTURE END LIST*
D10*
X50800000Y-127000000D02*
X177800000Y-127000000D01*
X50800000Y-63500000D02*
X177800000Y-63500000D01*
X50800000Y-127000000D02*
X50800000Y-63500000D01*
X177800000Y-127000000D02*
X177800000Y-63500000D01*
D11*
X114300000Y-119380000D03*
X114300000Y-116840000D03*
X114300000Y-114300000D03*
X63500000Y-119380000D03*
X63500000Y-116840000D03*
X63500000Y-114300000D03*
X127000000Y-119380000D03*
X127000000Y-116840000D03*
X127000000Y-114300000D03*
X88900000Y-119380000D03*
X88900000Y-116840000D03*
X88900000Y-114300000D03*
X76200000Y-119380000D03*
X76200000Y-116840000D03*
X76200000Y-114300000D03*
X101600000Y-119380000D03*
X101600000Y-116840000D03*
X101600000Y-114300000D03*
X152400000Y-119380000D03*
X152400000Y-116840000D03*
X152400000Y-114300000D03*
X139700000Y-119380000D03*
X139700000Y-116840000D03*
X139700000Y-114300000D03*
G36*
G01*
X83325000Y-67640000D02*
X85075000Y-67640000D01*
G75*
G02*
X85950000Y-68515000I0J-875000D01*
G01*
X85950000Y-70265000D01*
G75*
G02*
X85075000Y-71140000I-875000J0D01*
G01*
X83325000Y-71140000D01*
G75*
G02*
X82450000Y-70265000I0J875000D01*
G01*
X82450000Y-68515000D01*
G75*
G02*
X83325000Y-67640000I875000J0D01*
G01*
G37*
G36*
G01*
X87900000Y-64890000D02*
X89900000Y-64890000D01*
G75*
G02*
X90650000Y-65640000I0J-750000D01*
G01*
X90650000Y-67140000D01*
G75*
G02*
X89900000Y-67890000I-750000J0D01*
G01*
X87900000Y-67890000D01*
G75*
G02*
X87150000Y-67140000I0J750000D01*
G01*
X87150000Y-65640000D01*
G75*
G02*
X87900000Y-64890000I750000J0D01*
G01*
G37*
D12*
X88900000Y-72390000D03*
G36*
G01*
X70625000Y-67640000D02*
X72375000Y-67640000D01*
G75*
G02*
X73250000Y-68515000I0J-875000D01*
G01*
X73250000Y-70265000D01*
G75*
G02*
X72375000Y-71140000I-875000J0D01*
G01*
X70625000Y-71140000D01*
G75*
G02*
X69750000Y-70265000I0J875000D01*
G01*
X69750000Y-68515000D01*
G75*
G02*
X70625000Y-67640000I875000J0D01*
G01*
G37*
G36*
G01*
X75200000Y-64890000D02*
X77200000Y-64890000D01*
G75*
G02*
X77950000Y-65640000I0J-750000D01*
G01*
X77950000Y-67140000D01*
G75*
G02*
X77200000Y-67890000I-750000J0D01*
G01*
X75200000Y-67890000D01*
G75*
G02*
X74450000Y-67140000I0J750000D01*
G01*
X74450000Y-65640000D01*
G75*
G02*
X75200000Y-64890000I750000J0D01*
G01*
G37*
X76200000Y-72390000D03*
D13*
X55880000Y-116840000D03*
X55880000Y-73660000D03*
X172720000Y-73660000D03*
X172720000Y-116840000D03*
D14*
X163830000Y-123190000D03*
X161290000Y-123190000D03*
X158750000Y-123190000D03*
X156210000Y-123190000D03*
X153670000Y-123190000D03*
X151130000Y-123190000D03*
X148590000Y-123190000D03*
X146050000Y-123190000D03*
X143510000Y-123190000D03*
X140970000Y-123190000D03*
X138430000Y-123190000D03*
X135890000Y-123190000D03*
X133350000Y-123190000D03*
X130810000Y-123190000D03*
X128270000Y-123190000D03*
X125730000Y-123190000D03*
X123190000Y-123190000D03*
X120650000Y-123190000D03*
X118110000Y-123190000D03*
X115570000Y-123190000D03*
X113030000Y-123190000D03*
X110490000Y-123190000D03*
X107950000Y-123190000D03*
X105410000Y-123190000D03*
X102870000Y-123190000D03*
X100330000Y-123190000D03*
X97790000Y-123190000D03*
X95250000Y-123190000D03*
X92710000Y-123190000D03*
X90170000Y-123190000D03*
X87630000Y-123190000D03*
X85090000Y-123190000D03*
X82550000Y-123190000D03*
X80010000Y-123190000D03*
X77470000Y-123190000D03*
X74930000Y-123190000D03*
X72390000Y-123190000D03*
X69850000Y-123190000D03*
X67310000Y-123190000D03*
D15*
X64770000Y-123190000D03*
D16*
X165100000Y-67945000D03*
X158750000Y-67945000D03*
D17*
X142240000Y-68580000D03*
D18*
X142240000Y-71080000D03*
D17*
X110490000Y-68620000D03*
D18*
X110490000Y-71120000D03*
D17*
X100330000Y-68620000D03*
D18*
X100330000Y-71120000D03*
M02*
