M48
; DRILL file {KiCad 5.99.0+really5.1.10+dfsg1-1+b1} date Tue Oct 12 16:58:36 2021
; FORMAT={-:-/ absolute / inch / decimal}
; #@! TF.CreationDate,2021-10-12T16:58:36-05:00
; #@! TF.GenerationSoftware,Kicad,Pcbnew,5.99.0+really5.1.10+dfsg1-1+b1
; #@! TF.FileFunction,Plated,1,2,PTH
FMAT,2
INCH
T1C0.0157
T2C0.0315
T3C0.0394
T4C0.0591
%
G90
G05
T1
X2.65Y-3.725
X2.65Y-4.175
X2.7491Y-3.5409
X2.75Y-4.1218
X2.7968Y-3.775
X2.8Y-3.725
X2.825Y-3.975
X2.85Y-3.725
X2.875Y-4.15
X2.9Y-3.95
X3.15Y-3.725
X3.15Y-4.175
X3.25Y-3.54
X3.25Y-4.1218
X3.2968Y-3.775
X3.3Y-3.725
X3.325Y-3.975
X3.35Y-3.725
X3.375Y-4.15
X3.4Y-3.95
X3.65Y-3.725
X3.65Y-4.175
X3.7491Y-3.5409
X3.75Y-4.1218
X3.8Y-3.725
X3.8Y-3.775
X3.8282Y-3.975
X3.85Y-3.725
X3.875Y-4.15
X3.9Y-3.95
X4.15Y-3.725
X4.15Y-4.175
X4.25Y-4.1218
X4.2509Y-3.5409
X4.3Y-3.725
X4.3Y-3.775
X4.3282Y-3.975
X4.35Y-3.725
X4.375Y-4.15
X4.4Y-3.95
X4.65Y-3.725
X4.65Y-4.175
X4.75Y-4.1218
X4.7509Y-3.5409
X4.8Y-3.725
X4.8Y-3.775
X4.8282Y-3.975
X4.85Y-3.725
X4.875Y-4.15
X4.9Y-3.95
X5.15Y-3.725
X5.15Y-4.175
X5.25Y-4.1218
X5.2509Y-3.5409
X5.3Y-3.725
X5.3Y-3.775
X5.3282Y-3.975
X5.35Y-3.725
X5.375Y-4.15
X5.4Y-3.95
X5.65Y-3.725
X5.65Y-4.175
X5.75Y-4.1218
X5.7509Y-3.5409
X5.8Y-3.725
X5.8Y-3.775
X5.8282Y-3.975
X5.85Y-3.725
X5.875Y-4.15
X5.9Y-3.95
X6.15Y-3.725
X6.15Y-4.175
X6.25Y-4.1218
X6.2509Y-3.5409
X6.3Y-3.725
X6.3Y-3.775
X6.3282Y-3.975
X6.35Y-3.725
X6.375Y-4.15
X6.4Y-3.95
T2
X2.5Y-4.5
X2.5Y-4.6
X2.5Y-4.7
X3.0Y-4.5
X3.0Y-4.6
X3.0Y-4.7
X3.5Y-4.5
X3.5Y-4.6
X3.5Y-4.7
X4.0Y-3.0
X4.0Y-3.0984
X4.0Y-4.5
X4.0Y-4.6
X4.0Y-4.7
X4.5Y-4.5
X4.5Y-4.6
X4.5Y-4.7
X5.0Y-4.5
X5.0Y-4.6
X5.0Y-4.7
X5.5Y-4.5
X5.5Y-4.6
X5.5Y-4.7
X6.0Y-4.5
X6.0Y-4.6
X6.0Y-4.7
T3
X2.55Y-4.85
X2.65Y-4.85
X2.75Y-4.85
X2.85Y-4.85
X2.95Y-4.85
X3.05Y-4.85
X3.15Y-4.85
X3.25Y-4.85
X3.35Y-4.85
X3.45Y-4.85
X3.55Y-4.85
X3.65Y-4.85
X3.75Y-4.85
X3.85Y-4.85
X3.95Y-4.85
X4.05Y-4.85
X4.15Y-4.85
X4.25Y-4.85
X4.35Y-4.85
X4.45Y-4.85
X4.55Y-4.85
X4.65Y-4.85
X4.75Y-4.85
X4.85Y-4.85
X4.95Y-4.85
X5.05Y-4.85
X5.15Y-4.85
X5.25Y-4.85
X5.35Y-4.85
X5.45Y-4.85
X5.55Y-4.85
X5.65Y-4.85
X5.75Y-4.85
X5.85Y-4.85
X5.95Y-4.85
X6.05Y-4.85
X6.15Y-4.85
X6.25Y-4.85
X6.35Y-4.85
X6.45Y-4.85
T4
X6.25Y-2.675
X6.5Y-2.675
T3
G00X2.815Y-2.6925
M15
G01X2.815Y-2.7713
M16
G05
G00X3.0394Y-2.6138
M15
G01X2.9606Y-2.6138
M16
G05
G00X3.0394Y-2.85
M15
G01X2.9606Y-2.85
M16
G05
G00X3.315Y-2.6925
M15
G01X3.315Y-2.7713
M16
G05
G00X3.5394Y-2.6138
M15
G01X3.4606Y-2.6138
M16
G05
G00X3.5394Y-2.85
M15
G01X3.4606Y-2.85
M16
G05
T0
M30
