G04 #@! TF.GenerationSoftware,KiCad,Pcbnew,5.1.8+dfsg1-1+b1*
G04 #@! TF.CreationDate,2021-05-07T12:02:56-05:00*
G04 #@! TF.ProjectId,potentiosynth,706f7465-6e74-4696-9f73-796e74682e6b,A*
G04 #@! TF.SameCoordinates,Original*
G04 #@! TF.FileFunction,Paste,Top*
G04 #@! TF.FilePolarity,Positive*
%FSLAX46Y46*%
G04 Gerber Fmt 4.6, Leading zero omitted, Abs format (unit mm)*
G04 Created by KiCad (PCBNEW 5.1.8+dfsg1-1+b1) date 2021-05-07 12:02:56*
%MOMM*%
%LPD*%
G01*
G04 APERTURE LIST*
G04 #@! TA.AperFunction,Profile*
%ADD10C,0.150000*%
G04 #@! TD*
G04 APERTURE END LIST*
D10*
X50800000Y-127000000D02*
X177800000Y-127000000D01*
X50800000Y-63500000D02*
X177800000Y-63500000D01*
X50800000Y-127000000D02*
X50800000Y-63500000D01*
X177800000Y-127000000D02*
X177800000Y-63500000D01*
G36*
G01*
X157975000Y-112405000D02*
X157975000Y-113655000D01*
G75*
G02*
X157725000Y-113905000I-250000J0D01*
G01*
X156975000Y-113905000D01*
G75*
G02*
X156725000Y-113655000I0J250000D01*
G01*
X156725000Y-112405000D01*
G75*
G02*
X156975000Y-112155000I250000J0D01*
G01*
X157725000Y-112155000D01*
G75*
G02*
X157975000Y-112405000I0J-250000D01*
G01*
G37*
G36*
G01*
X160775000Y-112405000D02*
X160775000Y-113655000D01*
G75*
G02*
X160525000Y-113905000I-250000J0D01*
G01*
X159775000Y-113905000D01*
G75*
G02*
X159525000Y-113655000I0J250000D01*
G01*
X159525000Y-112405000D01*
G75*
G02*
X159775000Y-112155000I250000J0D01*
G01*
X160525000Y-112155000D01*
G75*
G02*
X160775000Y-112405000I0J-250000D01*
G01*
G37*
G36*
G01*
X145275000Y-112405000D02*
X145275000Y-113655000D01*
G75*
G02*
X145025000Y-113905000I-250000J0D01*
G01*
X144275000Y-113905000D01*
G75*
G02*
X144025000Y-113655000I0J250000D01*
G01*
X144025000Y-112405000D01*
G75*
G02*
X144275000Y-112155000I250000J0D01*
G01*
X145025000Y-112155000D01*
G75*
G02*
X145275000Y-112405000I0J-250000D01*
G01*
G37*
G36*
G01*
X148075000Y-112405000D02*
X148075000Y-113655000D01*
G75*
G02*
X147825000Y-113905000I-250000J0D01*
G01*
X147075000Y-113905000D01*
G75*
G02*
X146825000Y-113655000I0J250000D01*
G01*
X146825000Y-112405000D01*
G75*
G02*
X147075000Y-112155000I250000J0D01*
G01*
X147825000Y-112155000D01*
G75*
G02*
X148075000Y-112405000I0J-250000D01*
G01*
G37*
G36*
G01*
X132575000Y-112405000D02*
X132575000Y-113655000D01*
G75*
G02*
X132325000Y-113905000I-250000J0D01*
G01*
X131575000Y-113905000D01*
G75*
G02*
X131325000Y-113655000I0J250000D01*
G01*
X131325000Y-112405000D01*
G75*
G02*
X131575000Y-112155000I250000J0D01*
G01*
X132325000Y-112155000D01*
G75*
G02*
X132575000Y-112405000I0J-250000D01*
G01*
G37*
G36*
G01*
X135375000Y-112405000D02*
X135375000Y-113655000D01*
G75*
G02*
X135125000Y-113905000I-250000J0D01*
G01*
X134375000Y-113905000D01*
G75*
G02*
X134125000Y-113655000I0J250000D01*
G01*
X134125000Y-112405000D01*
G75*
G02*
X134375000Y-112155000I250000J0D01*
G01*
X135125000Y-112155000D01*
G75*
G02*
X135375000Y-112405000I0J-250000D01*
G01*
G37*
G36*
G01*
X119875000Y-112405000D02*
X119875000Y-113655000D01*
G75*
G02*
X119625000Y-113905000I-250000J0D01*
G01*
X118875000Y-113905000D01*
G75*
G02*
X118625000Y-113655000I0J250000D01*
G01*
X118625000Y-112405000D01*
G75*
G02*
X118875000Y-112155000I250000J0D01*
G01*
X119625000Y-112155000D01*
G75*
G02*
X119875000Y-112405000I0J-250000D01*
G01*
G37*
G36*
G01*
X122675000Y-112405000D02*
X122675000Y-113655000D01*
G75*
G02*
X122425000Y-113905000I-250000J0D01*
G01*
X121675000Y-113905000D01*
G75*
G02*
X121425000Y-113655000I0J250000D01*
G01*
X121425000Y-112405000D01*
G75*
G02*
X121675000Y-112155000I250000J0D01*
G01*
X122425000Y-112155000D01*
G75*
G02*
X122675000Y-112405000I0J-250000D01*
G01*
G37*
G36*
G01*
X107175000Y-112405000D02*
X107175000Y-113655000D01*
G75*
G02*
X106925000Y-113905000I-250000J0D01*
G01*
X106175000Y-113905000D01*
G75*
G02*
X105925000Y-113655000I0J250000D01*
G01*
X105925000Y-112405000D01*
G75*
G02*
X106175000Y-112155000I250000J0D01*
G01*
X106925000Y-112155000D01*
G75*
G02*
X107175000Y-112405000I0J-250000D01*
G01*
G37*
G36*
G01*
X109975000Y-112405000D02*
X109975000Y-113655000D01*
G75*
G02*
X109725000Y-113905000I-250000J0D01*
G01*
X108975000Y-113905000D01*
G75*
G02*
X108725000Y-113655000I0J250000D01*
G01*
X108725000Y-112405000D01*
G75*
G02*
X108975000Y-112155000I250000J0D01*
G01*
X109725000Y-112155000D01*
G75*
G02*
X109975000Y-112405000I0J-250000D01*
G01*
G37*
G36*
G01*
X94475000Y-112405000D02*
X94475000Y-113655000D01*
G75*
G02*
X94225000Y-113905000I-250000J0D01*
G01*
X93475000Y-113905000D01*
G75*
G02*
X93225000Y-113655000I0J250000D01*
G01*
X93225000Y-112405000D01*
G75*
G02*
X93475000Y-112155000I250000J0D01*
G01*
X94225000Y-112155000D01*
G75*
G02*
X94475000Y-112405000I0J-250000D01*
G01*
G37*
G36*
G01*
X97275000Y-112405000D02*
X97275000Y-113655000D01*
G75*
G02*
X97025000Y-113905000I-250000J0D01*
G01*
X96275000Y-113905000D01*
G75*
G02*
X96025000Y-113655000I0J250000D01*
G01*
X96025000Y-112405000D01*
G75*
G02*
X96275000Y-112155000I250000J0D01*
G01*
X97025000Y-112155000D01*
G75*
G02*
X97275000Y-112405000I0J-250000D01*
G01*
G37*
G36*
G01*
X81775000Y-112405000D02*
X81775000Y-113655000D01*
G75*
G02*
X81525000Y-113905000I-250000J0D01*
G01*
X80775000Y-113905000D01*
G75*
G02*
X80525000Y-113655000I0J250000D01*
G01*
X80525000Y-112405000D01*
G75*
G02*
X80775000Y-112155000I250000J0D01*
G01*
X81525000Y-112155000D01*
G75*
G02*
X81775000Y-112405000I0J-250000D01*
G01*
G37*
G36*
G01*
X84575000Y-112405000D02*
X84575000Y-113655000D01*
G75*
G02*
X84325000Y-113905000I-250000J0D01*
G01*
X83575000Y-113905000D01*
G75*
G02*
X83325000Y-113655000I0J250000D01*
G01*
X83325000Y-112405000D01*
G75*
G02*
X83575000Y-112155000I250000J0D01*
G01*
X84325000Y-112155000D01*
G75*
G02*
X84575000Y-112405000I0J-250000D01*
G01*
G37*
G36*
G01*
X69075000Y-112405000D02*
X69075000Y-113655000D01*
G75*
G02*
X68825000Y-113905000I-250000J0D01*
G01*
X68075000Y-113905000D01*
G75*
G02*
X67825000Y-113655000I0J250000D01*
G01*
X67825000Y-112405000D01*
G75*
G02*
X68075000Y-112155000I250000J0D01*
G01*
X68825000Y-112155000D01*
G75*
G02*
X69075000Y-112405000I0J-250000D01*
G01*
G37*
G36*
G01*
X71875000Y-112405000D02*
X71875000Y-113655000D01*
G75*
G02*
X71625000Y-113905000I-250000J0D01*
G01*
X70875000Y-113905000D01*
G75*
G02*
X70625000Y-113655000I0J250000D01*
G01*
X70625000Y-112405000D01*
G75*
G02*
X70875000Y-112155000I250000J0D01*
G01*
X71625000Y-112155000D01*
G75*
G02*
X71875000Y-112405000I0J-250000D01*
G01*
G37*
G36*
G01*
X158105000Y-66535000D02*
X156855000Y-66535000D01*
G75*
G02*
X156605000Y-66285000I0J250000D01*
G01*
X156605000Y-65535000D01*
G75*
G02*
X156855000Y-65285000I250000J0D01*
G01*
X158105000Y-65285000D01*
G75*
G02*
X158355000Y-65535000I0J-250000D01*
G01*
X158355000Y-66285000D01*
G75*
G02*
X158105000Y-66535000I-250000J0D01*
G01*
G37*
G36*
G01*
X158105000Y-69335000D02*
X156855000Y-69335000D01*
G75*
G02*
X156605000Y-69085000I0J250000D01*
G01*
X156605000Y-68335000D01*
G75*
G02*
X156855000Y-68085000I250000J0D01*
G01*
X158105000Y-68085000D01*
G75*
G02*
X158355000Y-68335000I0J-250000D01*
G01*
X158355000Y-69085000D01*
G75*
G02*
X158105000Y-69335000I-250000J0D01*
G01*
G37*
G36*
G01*
X158105000Y-71485000D02*
X156855000Y-71485000D01*
G75*
G02*
X156605000Y-71235000I0J250000D01*
G01*
X156605000Y-70485000D01*
G75*
G02*
X156855000Y-70235000I250000J0D01*
G01*
X158105000Y-70235000D01*
G75*
G02*
X158355000Y-70485000I0J-250000D01*
G01*
X158355000Y-71235000D01*
G75*
G02*
X158105000Y-71485000I-250000J0D01*
G01*
G37*
G36*
G01*
X158105000Y-74285000D02*
X156855000Y-74285000D01*
G75*
G02*
X156605000Y-74035000I0J250000D01*
G01*
X156605000Y-73285000D01*
G75*
G02*
X156855000Y-73035000I250000J0D01*
G01*
X158105000Y-73035000D01*
G75*
G02*
X158355000Y-73285000I0J-250000D01*
G01*
X158355000Y-74035000D01*
G75*
G02*
X158105000Y-74285000I-250000J0D01*
G01*
G37*
G36*
G01*
X159375000Y-80505000D02*
X158125000Y-80505000D01*
G75*
G02*
X157875000Y-80255000I0J250000D01*
G01*
X157875000Y-79505000D01*
G75*
G02*
X158125000Y-79255000I250000J0D01*
G01*
X159375000Y-79255000D01*
G75*
G02*
X159625000Y-79505000I0J-250000D01*
G01*
X159625000Y-80255000D01*
G75*
G02*
X159375000Y-80505000I-250000J0D01*
G01*
G37*
G36*
G01*
X159375000Y-83305000D02*
X158125000Y-83305000D01*
G75*
G02*
X157875000Y-83055000I0J250000D01*
G01*
X157875000Y-82305000D01*
G75*
G02*
X158125000Y-82055000I250000J0D01*
G01*
X159375000Y-82055000D01*
G75*
G02*
X159625000Y-82305000I0J-250000D01*
G01*
X159625000Y-83055000D01*
G75*
G02*
X159375000Y-83305000I-250000J0D01*
G01*
G37*
G36*
G01*
X146675000Y-80505000D02*
X145425000Y-80505000D01*
G75*
G02*
X145175000Y-80255000I0J250000D01*
G01*
X145175000Y-79505000D01*
G75*
G02*
X145425000Y-79255000I250000J0D01*
G01*
X146675000Y-79255000D01*
G75*
G02*
X146925000Y-79505000I0J-250000D01*
G01*
X146925000Y-80255000D01*
G75*
G02*
X146675000Y-80505000I-250000J0D01*
G01*
G37*
G36*
G01*
X146675000Y-83305000D02*
X145425000Y-83305000D01*
G75*
G02*
X145175000Y-83055000I0J250000D01*
G01*
X145175000Y-82305000D01*
G75*
G02*
X145425000Y-82055000I250000J0D01*
G01*
X146675000Y-82055000D01*
G75*
G02*
X146925000Y-82305000I0J-250000D01*
G01*
X146925000Y-83055000D01*
G75*
G02*
X146675000Y-83305000I-250000J0D01*
G01*
G37*
G36*
G01*
X133975000Y-80505000D02*
X132725000Y-80505000D01*
G75*
G02*
X132475000Y-80255000I0J250000D01*
G01*
X132475000Y-79505000D01*
G75*
G02*
X132725000Y-79255000I250000J0D01*
G01*
X133975000Y-79255000D01*
G75*
G02*
X134225000Y-79505000I0J-250000D01*
G01*
X134225000Y-80255000D01*
G75*
G02*
X133975000Y-80505000I-250000J0D01*
G01*
G37*
G36*
G01*
X133975000Y-83305000D02*
X132725000Y-83305000D01*
G75*
G02*
X132475000Y-83055000I0J250000D01*
G01*
X132475000Y-82305000D01*
G75*
G02*
X132725000Y-82055000I250000J0D01*
G01*
X133975000Y-82055000D01*
G75*
G02*
X134225000Y-82305000I0J-250000D01*
G01*
X134225000Y-83055000D01*
G75*
G02*
X133975000Y-83305000I-250000J0D01*
G01*
G37*
G36*
G01*
X121275000Y-80505000D02*
X120025000Y-80505000D01*
G75*
G02*
X119775000Y-80255000I0J250000D01*
G01*
X119775000Y-79505000D01*
G75*
G02*
X120025000Y-79255000I250000J0D01*
G01*
X121275000Y-79255000D01*
G75*
G02*
X121525000Y-79505000I0J-250000D01*
G01*
X121525000Y-80255000D01*
G75*
G02*
X121275000Y-80505000I-250000J0D01*
G01*
G37*
G36*
G01*
X121275000Y-83305000D02*
X120025000Y-83305000D01*
G75*
G02*
X119775000Y-83055000I0J250000D01*
G01*
X119775000Y-82305000D01*
G75*
G02*
X120025000Y-82055000I250000J0D01*
G01*
X121275000Y-82055000D01*
G75*
G02*
X121525000Y-82305000I0J-250000D01*
G01*
X121525000Y-83055000D01*
G75*
G02*
X121275000Y-83305000I-250000J0D01*
G01*
G37*
G36*
G01*
X108575000Y-80505000D02*
X107325000Y-80505000D01*
G75*
G02*
X107075000Y-80255000I0J250000D01*
G01*
X107075000Y-79505000D01*
G75*
G02*
X107325000Y-79255000I250000J0D01*
G01*
X108575000Y-79255000D01*
G75*
G02*
X108825000Y-79505000I0J-250000D01*
G01*
X108825000Y-80255000D01*
G75*
G02*
X108575000Y-80505000I-250000J0D01*
G01*
G37*
G36*
G01*
X108575000Y-83305000D02*
X107325000Y-83305000D01*
G75*
G02*
X107075000Y-83055000I0J250000D01*
G01*
X107075000Y-82305000D01*
G75*
G02*
X107325000Y-82055000I250000J0D01*
G01*
X108575000Y-82055000D01*
G75*
G02*
X108825000Y-82305000I0J-250000D01*
G01*
X108825000Y-83055000D01*
G75*
G02*
X108575000Y-83305000I-250000J0D01*
G01*
G37*
G36*
G01*
X95875000Y-80505000D02*
X94625000Y-80505000D01*
G75*
G02*
X94375000Y-80255000I0J250000D01*
G01*
X94375000Y-79505000D01*
G75*
G02*
X94625000Y-79255000I250000J0D01*
G01*
X95875000Y-79255000D01*
G75*
G02*
X96125000Y-79505000I0J-250000D01*
G01*
X96125000Y-80255000D01*
G75*
G02*
X95875000Y-80505000I-250000J0D01*
G01*
G37*
G36*
G01*
X95875000Y-83305000D02*
X94625000Y-83305000D01*
G75*
G02*
X94375000Y-83055000I0J250000D01*
G01*
X94375000Y-82305000D01*
G75*
G02*
X94625000Y-82055000I250000J0D01*
G01*
X95875000Y-82055000D01*
G75*
G02*
X96125000Y-82305000I0J-250000D01*
G01*
X96125000Y-83055000D01*
G75*
G02*
X95875000Y-83305000I-250000J0D01*
G01*
G37*
G36*
G01*
X83175000Y-80505000D02*
X81925000Y-80505000D01*
G75*
G02*
X81675000Y-80255000I0J250000D01*
G01*
X81675000Y-79505000D01*
G75*
G02*
X81925000Y-79255000I250000J0D01*
G01*
X83175000Y-79255000D01*
G75*
G02*
X83425000Y-79505000I0J-250000D01*
G01*
X83425000Y-80255000D01*
G75*
G02*
X83175000Y-80505000I-250000J0D01*
G01*
G37*
G36*
G01*
X83175000Y-83305000D02*
X81925000Y-83305000D01*
G75*
G02*
X81675000Y-83055000I0J250000D01*
G01*
X81675000Y-82305000D01*
G75*
G02*
X81925000Y-82055000I250000J0D01*
G01*
X83175000Y-82055000D01*
G75*
G02*
X83425000Y-82305000I0J-250000D01*
G01*
X83425000Y-83055000D01*
G75*
G02*
X83175000Y-83305000I-250000J0D01*
G01*
G37*
G36*
G01*
X70475000Y-80505000D02*
X69225000Y-80505000D01*
G75*
G02*
X68975000Y-80255000I0J250000D01*
G01*
X68975000Y-79505000D01*
G75*
G02*
X69225000Y-79255000I250000J0D01*
G01*
X70475000Y-79255000D01*
G75*
G02*
X70725000Y-79505000I0J-250000D01*
G01*
X70725000Y-80255000D01*
G75*
G02*
X70475000Y-80505000I-250000J0D01*
G01*
G37*
G36*
G01*
X70475000Y-83305000D02*
X69225000Y-83305000D01*
G75*
G02*
X68975000Y-83055000I0J250000D01*
G01*
X68975000Y-82305000D01*
G75*
G02*
X69225000Y-82055000I250000J0D01*
G01*
X70475000Y-82055000D01*
G75*
G02*
X70725000Y-82305000I0J-250000D01*
G01*
X70725000Y-83055000D01*
G75*
G02*
X70475000Y-83305000I-250000J0D01*
G01*
G37*
G36*
G01*
X162852500Y-80505000D02*
X161602500Y-80505000D01*
G75*
G02*
X161352500Y-80255000I0J250000D01*
G01*
X161352500Y-79505000D01*
G75*
G02*
X161602500Y-79255000I250000J0D01*
G01*
X162852500Y-79255000D01*
G75*
G02*
X163102500Y-79505000I0J-250000D01*
G01*
X163102500Y-80255000D01*
G75*
G02*
X162852500Y-80505000I-250000J0D01*
G01*
G37*
G36*
G01*
X162852500Y-83305000D02*
X161602500Y-83305000D01*
G75*
G02*
X161352500Y-83055000I0J250000D01*
G01*
X161352500Y-82305000D01*
G75*
G02*
X161602500Y-82055000I250000J0D01*
G01*
X162852500Y-82055000D01*
G75*
G02*
X163102500Y-82305000I0J-250000D01*
G01*
X163102500Y-83055000D01*
G75*
G02*
X162852500Y-83305000I-250000J0D01*
G01*
G37*
G36*
G01*
X150152500Y-80505000D02*
X148902500Y-80505000D01*
G75*
G02*
X148652500Y-80255000I0J250000D01*
G01*
X148652500Y-79505000D01*
G75*
G02*
X148902500Y-79255000I250000J0D01*
G01*
X150152500Y-79255000D01*
G75*
G02*
X150402500Y-79505000I0J-250000D01*
G01*
X150402500Y-80255000D01*
G75*
G02*
X150152500Y-80505000I-250000J0D01*
G01*
G37*
G36*
G01*
X150152500Y-83305000D02*
X148902500Y-83305000D01*
G75*
G02*
X148652500Y-83055000I0J250000D01*
G01*
X148652500Y-82305000D01*
G75*
G02*
X148902500Y-82055000I250000J0D01*
G01*
X150152500Y-82055000D01*
G75*
G02*
X150402500Y-82305000I0J-250000D01*
G01*
X150402500Y-83055000D01*
G75*
G02*
X150152500Y-83305000I-250000J0D01*
G01*
G37*
G36*
G01*
X137452500Y-80505000D02*
X136202500Y-80505000D01*
G75*
G02*
X135952500Y-80255000I0J250000D01*
G01*
X135952500Y-79505000D01*
G75*
G02*
X136202500Y-79255000I250000J0D01*
G01*
X137452500Y-79255000D01*
G75*
G02*
X137702500Y-79505000I0J-250000D01*
G01*
X137702500Y-80255000D01*
G75*
G02*
X137452500Y-80505000I-250000J0D01*
G01*
G37*
G36*
G01*
X137452500Y-83305000D02*
X136202500Y-83305000D01*
G75*
G02*
X135952500Y-83055000I0J250000D01*
G01*
X135952500Y-82305000D01*
G75*
G02*
X136202500Y-82055000I250000J0D01*
G01*
X137452500Y-82055000D01*
G75*
G02*
X137702500Y-82305000I0J-250000D01*
G01*
X137702500Y-83055000D01*
G75*
G02*
X137452500Y-83305000I-250000J0D01*
G01*
G37*
G36*
G01*
X124752500Y-80505000D02*
X123502500Y-80505000D01*
G75*
G02*
X123252500Y-80255000I0J250000D01*
G01*
X123252500Y-79505000D01*
G75*
G02*
X123502500Y-79255000I250000J0D01*
G01*
X124752500Y-79255000D01*
G75*
G02*
X125002500Y-79505000I0J-250000D01*
G01*
X125002500Y-80255000D01*
G75*
G02*
X124752500Y-80505000I-250000J0D01*
G01*
G37*
G36*
G01*
X124752500Y-83305000D02*
X123502500Y-83305000D01*
G75*
G02*
X123252500Y-83055000I0J250000D01*
G01*
X123252500Y-82305000D01*
G75*
G02*
X123502500Y-82055000I250000J0D01*
G01*
X124752500Y-82055000D01*
G75*
G02*
X125002500Y-82305000I0J-250000D01*
G01*
X125002500Y-83055000D01*
G75*
G02*
X124752500Y-83305000I-250000J0D01*
G01*
G37*
G36*
G01*
X112052500Y-80505000D02*
X110802500Y-80505000D01*
G75*
G02*
X110552500Y-80255000I0J250000D01*
G01*
X110552500Y-79505000D01*
G75*
G02*
X110802500Y-79255000I250000J0D01*
G01*
X112052500Y-79255000D01*
G75*
G02*
X112302500Y-79505000I0J-250000D01*
G01*
X112302500Y-80255000D01*
G75*
G02*
X112052500Y-80505000I-250000J0D01*
G01*
G37*
G36*
G01*
X112052500Y-83305000D02*
X110802500Y-83305000D01*
G75*
G02*
X110552500Y-83055000I0J250000D01*
G01*
X110552500Y-82305000D01*
G75*
G02*
X110802500Y-82055000I250000J0D01*
G01*
X112052500Y-82055000D01*
G75*
G02*
X112302500Y-82305000I0J-250000D01*
G01*
X112302500Y-83055000D01*
G75*
G02*
X112052500Y-83305000I-250000J0D01*
G01*
G37*
G36*
G01*
X99352500Y-80505000D02*
X98102500Y-80505000D01*
G75*
G02*
X97852500Y-80255000I0J250000D01*
G01*
X97852500Y-79505000D01*
G75*
G02*
X98102500Y-79255000I250000J0D01*
G01*
X99352500Y-79255000D01*
G75*
G02*
X99602500Y-79505000I0J-250000D01*
G01*
X99602500Y-80255000D01*
G75*
G02*
X99352500Y-80505000I-250000J0D01*
G01*
G37*
G36*
G01*
X99352500Y-83305000D02*
X98102500Y-83305000D01*
G75*
G02*
X97852500Y-83055000I0J250000D01*
G01*
X97852500Y-82305000D01*
G75*
G02*
X98102500Y-82055000I250000J0D01*
G01*
X99352500Y-82055000D01*
G75*
G02*
X99602500Y-82305000I0J-250000D01*
G01*
X99602500Y-83055000D01*
G75*
G02*
X99352500Y-83305000I-250000J0D01*
G01*
G37*
G36*
G01*
X86652500Y-80505000D02*
X85402500Y-80505000D01*
G75*
G02*
X85152500Y-80255000I0J250000D01*
G01*
X85152500Y-79505000D01*
G75*
G02*
X85402500Y-79255000I250000J0D01*
G01*
X86652500Y-79255000D01*
G75*
G02*
X86902500Y-79505000I0J-250000D01*
G01*
X86902500Y-80255000D01*
G75*
G02*
X86652500Y-80505000I-250000J0D01*
G01*
G37*
G36*
G01*
X86652500Y-83305000D02*
X85402500Y-83305000D01*
G75*
G02*
X85152500Y-83055000I0J250000D01*
G01*
X85152500Y-82305000D01*
G75*
G02*
X85402500Y-82055000I250000J0D01*
G01*
X86652500Y-82055000D01*
G75*
G02*
X86902500Y-82305000I0J-250000D01*
G01*
X86902500Y-83055000D01*
G75*
G02*
X86652500Y-83305000I-250000J0D01*
G01*
G37*
G36*
G01*
X73982500Y-80505000D02*
X72732500Y-80505000D01*
G75*
G02*
X72482500Y-80255000I0J250000D01*
G01*
X72482500Y-79505000D01*
G75*
G02*
X72732500Y-79255000I250000J0D01*
G01*
X73982500Y-79255000D01*
G75*
G02*
X74232500Y-79505000I0J-250000D01*
G01*
X74232500Y-80255000D01*
G75*
G02*
X73982500Y-80505000I-250000J0D01*
G01*
G37*
G36*
G01*
X73982500Y-83305000D02*
X72732500Y-83305000D01*
G75*
G02*
X72482500Y-83055000I0J250000D01*
G01*
X72482500Y-82305000D01*
G75*
G02*
X72732500Y-82055000I250000J0D01*
G01*
X73982500Y-82055000D01*
G75*
G02*
X74232500Y-82305000I0J-250000D01*
G01*
X74232500Y-83055000D01*
G75*
G02*
X73982500Y-83305000I-250000J0D01*
G01*
G37*
G36*
G01*
X154670000Y-98435000D02*
X154670000Y-99685000D01*
G75*
G02*
X154420000Y-99935000I-250000J0D01*
G01*
X153670000Y-99935000D01*
G75*
G02*
X153420000Y-99685000I0J250000D01*
G01*
X153420000Y-98435000D01*
G75*
G02*
X153670000Y-98185000I250000J0D01*
G01*
X154420000Y-98185000D01*
G75*
G02*
X154670000Y-98435000I0J-250000D01*
G01*
G37*
G36*
G01*
X157470000Y-98435000D02*
X157470000Y-99685000D01*
G75*
G02*
X157220000Y-99935000I-250000J0D01*
G01*
X156470000Y-99935000D01*
G75*
G02*
X156220000Y-99685000I0J250000D01*
G01*
X156220000Y-98435000D01*
G75*
G02*
X156470000Y-98185000I250000J0D01*
G01*
X157220000Y-98185000D01*
G75*
G02*
X157470000Y-98435000I0J-250000D01*
G01*
G37*
G36*
G01*
X141970000Y-98435000D02*
X141970000Y-99685000D01*
G75*
G02*
X141720000Y-99935000I-250000J0D01*
G01*
X140970000Y-99935000D01*
G75*
G02*
X140720000Y-99685000I0J250000D01*
G01*
X140720000Y-98435000D01*
G75*
G02*
X140970000Y-98185000I250000J0D01*
G01*
X141720000Y-98185000D01*
G75*
G02*
X141970000Y-98435000I0J-250000D01*
G01*
G37*
G36*
G01*
X144770000Y-98435000D02*
X144770000Y-99685000D01*
G75*
G02*
X144520000Y-99935000I-250000J0D01*
G01*
X143770000Y-99935000D01*
G75*
G02*
X143520000Y-99685000I0J250000D01*
G01*
X143520000Y-98435000D01*
G75*
G02*
X143770000Y-98185000I250000J0D01*
G01*
X144520000Y-98185000D01*
G75*
G02*
X144770000Y-98435000I0J-250000D01*
G01*
G37*
G36*
G01*
X129270000Y-98435000D02*
X129270000Y-99685000D01*
G75*
G02*
X129020000Y-99935000I-250000J0D01*
G01*
X128270000Y-99935000D01*
G75*
G02*
X128020000Y-99685000I0J250000D01*
G01*
X128020000Y-98435000D01*
G75*
G02*
X128270000Y-98185000I250000J0D01*
G01*
X129020000Y-98185000D01*
G75*
G02*
X129270000Y-98435000I0J-250000D01*
G01*
G37*
G36*
G01*
X132070000Y-98435000D02*
X132070000Y-99685000D01*
G75*
G02*
X131820000Y-99935000I-250000J0D01*
G01*
X131070000Y-99935000D01*
G75*
G02*
X130820000Y-99685000I0J250000D01*
G01*
X130820000Y-98435000D01*
G75*
G02*
X131070000Y-98185000I250000J0D01*
G01*
X131820000Y-98185000D01*
G75*
G02*
X132070000Y-98435000I0J-250000D01*
G01*
G37*
G36*
G01*
X116570000Y-98435000D02*
X116570000Y-99685000D01*
G75*
G02*
X116320000Y-99935000I-250000J0D01*
G01*
X115570000Y-99935000D01*
G75*
G02*
X115320000Y-99685000I0J250000D01*
G01*
X115320000Y-98435000D01*
G75*
G02*
X115570000Y-98185000I250000J0D01*
G01*
X116320000Y-98185000D01*
G75*
G02*
X116570000Y-98435000I0J-250000D01*
G01*
G37*
G36*
G01*
X119370000Y-98435000D02*
X119370000Y-99685000D01*
G75*
G02*
X119120000Y-99935000I-250000J0D01*
G01*
X118370000Y-99935000D01*
G75*
G02*
X118120000Y-99685000I0J250000D01*
G01*
X118120000Y-98435000D01*
G75*
G02*
X118370000Y-98185000I250000J0D01*
G01*
X119120000Y-98185000D01*
G75*
G02*
X119370000Y-98435000I0J-250000D01*
G01*
G37*
G36*
G01*
X103870000Y-98435000D02*
X103870000Y-99685000D01*
G75*
G02*
X103620000Y-99935000I-250000J0D01*
G01*
X102870000Y-99935000D01*
G75*
G02*
X102620000Y-99685000I0J250000D01*
G01*
X102620000Y-98435000D01*
G75*
G02*
X102870000Y-98185000I250000J0D01*
G01*
X103620000Y-98185000D01*
G75*
G02*
X103870000Y-98435000I0J-250000D01*
G01*
G37*
G36*
G01*
X106670000Y-98435000D02*
X106670000Y-99685000D01*
G75*
G02*
X106420000Y-99935000I-250000J0D01*
G01*
X105670000Y-99935000D01*
G75*
G02*
X105420000Y-99685000I0J250000D01*
G01*
X105420000Y-98435000D01*
G75*
G02*
X105670000Y-98185000I250000J0D01*
G01*
X106420000Y-98185000D01*
G75*
G02*
X106670000Y-98435000I0J-250000D01*
G01*
G37*
G36*
G01*
X91170000Y-98435000D02*
X91170000Y-99685000D01*
G75*
G02*
X90920000Y-99935000I-250000J0D01*
G01*
X90170000Y-99935000D01*
G75*
G02*
X89920000Y-99685000I0J250000D01*
G01*
X89920000Y-98435000D01*
G75*
G02*
X90170000Y-98185000I250000J0D01*
G01*
X90920000Y-98185000D01*
G75*
G02*
X91170000Y-98435000I0J-250000D01*
G01*
G37*
G36*
G01*
X93970000Y-98435000D02*
X93970000Y-99685000D01*
G75*
G02*
X93720000Y-99935000I-250000J0D01*
G01*
X92970000Y-99935000D01*
G75*
G02*
X92720000Y-99685000I0J250000D01*
G01*
X92720000Y-98435000D01*
G75*
G02*
X92970000Y-98185000I250000J0D01*
G01*
X93720000Y-98185000D01*
G75*
G02*
X93970000Y-98435000I0J-250000D01*
G01*
G37*
G36*
G01*
X78470000Y-98435000D02*
X78470000Y-99685000D01*
G75*
G02*
X78220000Y-99935000I-250000J0D01*
G01*
X77470000Y-99935000D01*
G75*
G02*
X77220000Y-99685000I0J250000D01*
G01*
X77220000Y-98435000D01*
G75*
G02*
X77470000Y-98185000I250000J0D01*
G01*
X78220000Y-98185000D01*
G75*
G02*
X78470000Y-98435000I0J-250000D01*
G01*
G37*
G36*
G01*
X81270000Y-98435000D02*
X81270000Y-99685000D01*
G75*
G02*
X81020000Y-99935000I-250000J0D01*
G01*
X80270000Y-99935000D01*
G75*
G02*
X80020000Y-99685000I0J250000D01*
G01*
X80020000Y-98435000D01*
G75*
G02*
X80270000Y-98185000I250000J0D01*
G01*
X81020000Y-98185000D01*
G75*
G02*
X81270000Y-98435000I0J-250000D01*
G01*
G37*
G36*
G01*
X65900000Y-98435000D02*
X65900000Y-99685000D01*
G75*
G02*
X65650000Y-99935000I-250000J0D01*
G01*
X64900000Y-99935000D01*
G75*
G02*
X64650000Y-99685000I0J250000D01*
G01*
X64650000Y-98435000D01*
G75*
G02*
X64900000Y-98185000I250000J0D01*
G01*
X65650000Y-98185000D01*
G75*
G02*
X65900000Y-98435000I0J-250000D01*
G01*
G37*
G36*
G01*
X68700000Y-98435000D02*
X68700000Y-99685000D01*
G75*
G02*
X68450000Y-99935000I-250000J0D01*
G01*
X67700000Y-99935000D01*
G75*
G02*
X67450000Y-99685000I0J250000D01*
G01*
X67450000Y-98435000D01*
G75*
G02*
X67700000Y-98185000I250000J0D01*
G01*
X68450000Y-98185000D01*
G75*
G02*
X68700000Y-98435000I0J-250000D01*
G01*
G37*
G36*
G01*
X154617500Y-82055000D02*
X155867500Y-82055000D01*
G75*
G02*
X156117500Y-82305000I0J-250000D01*
G01*
X156117500Y-83055000D01*
G75*
G02*
X155867500Y-83305000I-250000J0D01*
G01*
X154617500Y-83305000D01*
G75*
G02*
X154367500Y-83055000I0J250000D01*
G01*
X154367500Y-82305000D01*
G75*
G02*
X154617500Y-82055000I250000J0D01*
G01*
G37*
G36*
G01*
X154617500Y-79255000D02*
X155867500Y-79255000D01*
G75*
G02*
X156117500Y-79505000I0J-250000D01*
G01*
X156117500Y-80255000D01*
G75*
G02*
X155867500Y-80505000I-250000J0D01*
G01*
X154617500Y-80505000D01*
G75*
G02*
X154367500Y-80255000I0J250000D01*
G01*
X154367500Y-79505000D01*
G75*
G02*
X154617500Y-79255000I250000J0D01*
G01*
G37*
G36*
G01*
X141917500Y-82055000D02*
X143167500Y-82055000D01*
G75*
G02*
X143417500Y-82305000I0J-250000D01*
G01*
X143417500Y-83055000D01*
G75*
G02*
X143167500Y-83305000I-250000J0D01*
G01*
X141917500Y-83305000D01*
G75*
G02*
X141667500Y-83055000I0J250000D01*
G01*
X141667500Y-82305000D01*
G75*
G02*
X141917500Y-82055000I250000J0D01*
G01*
G37*
G36*
G01*
X141917500Y-79255000D02*
X143167500Y-79255000D01*
G75*
G02*
X143417500Y-79505000I0J-250000D01*
G01*
X143417500Y-80255000D01*
G75*
G02*
X143167500Y-80505000I-250000J0D01*
G01*
X141917500Y-80505000D01*
G75*
G02*
X141667500Y-80255000I0J250000D01*
G01*
X141667500Y-79505000D01*
G75*
G02*
X141917500Y-79255000I250000J0D01*
G01*
G37*
G36*
G01*
X129217500Y-82055000D02*
X130467500Y-82055000D01*
G75*
G02*
X130717500Y-82305000I0J-250000D01*
G01*
X130717500Y-83055000D01*
G75*
G02*
X130467500Y-83305000I-250000J0D01*
G01*
X129217500Y-83305000D01*
G75*
G02*
X128967500Y-83055000I0J250000D01*
G01*
X128967500Y-82305000D01*
G75*
G02*
X129217500Y-82055000I250000J0D01*
G01*
G37*
G36*
G01*
X129217500Y-79255000D02*
X130467500Y-79255000D01*
G75*
G02*
X130717500Y-79505000I0J-250000D01*
G01*
X130717500Y-80255000D01*
G75*
G02*
X130467500Y-80505000I-250000J0D01*
G01*
X129217500Y-80505000D01*
G75*
G02*
X128967500Y-80255000I0J250000D01*
G01*
X128967500Y-79505000D01*
G75*
G02*
X129217500Y-79255000I250000J0D01*
G01*
G37*
G36*
G01*
X116517500Y-82055000D02*
X117767500Y-82055000D01*
G75*
G02*
X118017500Y-82305000I0J-250000D01*
G01*
X118017500Y-83055000D01*
G75*
G02*
X117767500Y-83305000I-250000J0D01*
G01*
X116517500Y-83305000D01*
G75*
G02*
X116267500Y-83055000I0J250000D01*
G01*
X116267500Y-82305000D01*
G75*
G02*
X116517500Y-82055000I250000J0D01*
G01*
G37*
G36*
G01*
X116517500Y-79255000D02*
X117767500Y-79255000D01*
G75*
G02*
X118017500Y-79505000I0J-250000D01*
G01*
X118017500Y-80255000D01*
G75*
G02*
X117767500Y-80505000I-250000J0D01*
G01*
X116517500Y-80505000D01*
G75*
G02*
X116267500Y-80255000I0J250000D01*
G01*
X116267500Y-79505000D01*
G75*
G02*
X116517500Y-79255000I250000J0D01*
G01*
G37*
G36*
G01*
X103817500Y-82055000D02*
X105067500Y-82055000D01*
G75*
G02*
X105317500Y-82305000I0J-250000D01*
G01*
X105317500Y-83055000D01*
G75*
G02*
X105067500Y-83305000I-250000J0D01*
G01*
X103817500Y-83305000D01*
G75*
G02*
X103567500Y-83055000I0J250000D01*
G01*
X103567500Y-82305000D01*
G75*
G02*
X103817500Y-82055000I250000J0D01*
G01*
G37*
G36*
G01*
X103817500Y-79255000D02*
X105067500Y-79255000D01*
G75*
G02*
X105317500Y-79505000I0J-250000D01*
G01*
X105317500Y-80255000D01*
G75*
G02*
X105067500Y-80505000I-250000J0D01*
G01*
X103817500Y-80505000D01*
G75*
G02*
X103567500Y-80255000I0J250000D01*
G01*
X103567500Y-79505000D01*
G75*
G02*
X103817500Y-79255000I250000J0D01*
G01*
G37*
G36*
G01*
X91147500Y-82055000D02*
X92397500Y-82055000D01*
G75*
G02*
X92647500Y-82305000I0J-250000D01*
G01*
X92647500Y-83055000D01*
G75*
G02*
X92397500Y-83305000I-250000J0D01*
G01*
X91147500Y-83305000D01*
G75*
G02*
X90897500Y-83055000I0J250000D01*
G01*
X90897500Y-82305000D01*
G75*
G02*
X91147500Y-82055000I250000J0D01*
G01*
G37*
G36*
G01*
X91147500Y-79255000D02*
X92397500Y-79255000D01*
G75*
G02*
X92647500Y-79505000I0J-250000D01*
G01*
X92647500Y-80255000D01*
G75*
G02*
X92397500Y-80505000I-250000J0D01*
G01*
X91147500Y-80505000D01*
G75*
G02*
X90897500Y-80255000I0J250000D01*
G01*
X90897500Y-79505000D01*
G75*
G02*
X91147500Y-79255000I250000J0D01*
G01*
G37*
G36*
G01*
X78447500Y-82055000D02*
X79697500Y-82055000D01*
G75*
G02*
X79947500Y-82305000I0J-250000D01*
G01*
X79947500Y-83055000D01*
G75*
G02*
X79697500Y-83305000I-250000J0D01*
G01*
X78447500Y-83305000D01*
G75*
G02*
X78197500Y-83055000I0J250000D01*
G01*
X78197500Y-82305000D01*
G75*
G02*
X78447500Y-82055000I250000J0D01*
G01*
G37*
G36*
G01*
X78447500Y-79255000D02*
X79697500Y-79255000D01*
G75*
G02*
X79947500Y-79505000I0J-250000D01*
G01*
X79947500Y-80255000D01*
G75*
G02*
X79697500Y-80505000I-250000J0D01*
G01*
X78447500Y-80505000D01*
G75*
G02*
X78197500Y-80255000I0J250000D01*
G01*
X78197500Y-79505000D01*
G75*
G02*
X78447500Y-79255000I250000J0D01*
G01*
G37*
G36*
G01*
X65747500Y-82055000D02*
X66997500Y-82055000D01*
G75*
G02*
X67247500Y-82305000I0J-250000D01*
G01*
X67247500Y-83055000D01*
G75*
G02*
X66997500Y-83305000I-250000J0D01*
G01*
X65747500Y-83305000D01*
G75*
G02*
X65497500Y-83055000I0J250000D01*
G01*
X65497500Y-82305000D01*
G75*
G02*
X65747500Y-82055000I250000J0D01*
G01*
G37*
G36*
G01*
X65747500Y-79255000D02*
X66997500Y-79255000D01*
G75*
G02*
X67247500Y-79505000I0J-250000D01*
G01*
X67247500Y-80255000D01*
G75*
G02*
X66997500Y-80505000I-250000J0D01*
G01*
X65747500Y-80505000D01*
G75*
G02*
X65497500Y-80255000I0J250000D01*
G01*
X65497500Y-79505000D01*
G75*
G02*
X65747500Y-79255000I250000J0D01*
G01*
G37*
M02*
