G04 #@! TF.GenerationSoftware,KiCad,Pcbnew,5.1.8+dfsg1-1+b1*
G04 #@! TF.CreationDate,2021-05-07T12:02:56-05:00*
G04 #@! TF.ProjectId,potentiosynth,706f7465-6e74-4696-9f73-796e74682e6b,A*
G04 #@! TF.SameCoordinates,Original*
G04 #@! TF.FileFunction,Copper,L2,Bot*
G04 #@! TF.FilePolarity,Positive*
%FSLAX46Y46*%
G04 Gerber Fmt 4.6, Leading zero omitted, Abs format (unit mm)*
G04 Created by KiCad (PCBNEW 5.1.8+dfsg1-1+b1) date 2021-05-07 12:02:56*
%MOMM*%
%LPD*%
G01*
G04 APERTURE LIST*
G04 #@! TA.AperFunction,Profile*
%ADD10C,0.150000*%
G04 #@! TD*
G04 #@! TA.AperFunction,ComponentPad*
%ADD11C,1.440000*%
G04 #@! TD*
G04 #@! TA.AperFunction,ComponentPad*
%ADD12C,3.000000*%
G04 #@! TD*
G04 #@! TA.AperFunction,ComponentPad*
%ADD13R,3.500000X3.500000*%
G04 #@! TD*
G04 #@! TA.AperFunction,ComponentPad*
%ADD14O,2.400000X1.600000*%
G04 #@! TD*
G04 #@! TA.AperFunction,ComponentPad*
%ADD15R,2.400000X1.600000*%
G04 #@! TD*
G04 #@! TA.AperFunction,ComponentPad*
%ADD16R,1.500000X1.050000*%
G04 #@! TD*
G04 #@! TA.AperFunction,ComponentPad*
%ADD17O,1.500000X1.050000*%
G04 #@! TD*
G04 #@! TA.AperFunction,ComponentPad*
%ADD18O,1.905000X2.000000*%
G04 #@! TD*
G04 #@! TA.AperFunction,ComponentPad*
%ADD19R,1.905000X2.000000*%
G04 #@! TD*
G04 #@! TA.AperFunction,ComponentPad*
%ADD20O,2.000000X1.905000*%
G04 #@! TD*
G04 #@! TA.AperFunction,ComponentPad*
%ADD21R,2.000000X1.905000*%
G04 #@! TD*
G04 #@! TA.AperFunction,ComponentPad*
%ADD22O,1.700000X1.700000*%
G04 #@! TD*
G04 #@! TA.AperFunction,ComponentPad*
%ADD23R,1.700000X1.700000*%
G04 #@! TD*
G04 #@! TA.AperFunction,ComponentPad*
%ADD24C,1.600000*%
G04 #@! TD*
G04 #@! TA.AperFunction,ComponentPad*
%ADD25R,1.600000X1.600000*%
G04 #@! TD*
G04 #@! TA.AperFunction,ViaPad*
%ADD26C,0.800000*%
G04 #@! TD*
G04 #@! TA.AperFunction,Conductor*
%ADD27C,0.762000*%
G04 #@! TD*
G04 APERTURE END LIST*
D10*
X50800000Y-127000000D02*
X177800000Y-127000000D01*
X50800000Y-63500000D02*
X177800000Y-63500000D01*
X50800000Y-127000000D02*
X50800000Y-63500000D01*
X177800000Y-127000000D02*
X177800000Y-63500000D01*
D11*
X139700000Y-119380000D03*
X139700000Y-116840000D03*
X139700000Y-114300000D03*
D12*
X151130000Y-67945000D03*
G04 #@! TA.AperFunction,ComponentPad*
G36*
G01*
X83325000Y-67640000D02*
X85075000Y-67640000D01*
G75*
G02*
X85950000Y-68515000I0J-875000D01*
G01*
X85950000Y-70265000D01*
G75*
G02*
X85075000Y-71140000I-875000J0D01*
G01*
X83325000Y-71140000D01*
G75*
G02*
X82450000Y-70265000I0J875000D01*
G01*
X82450000Y-68515000D01*
G75*
G02*
X83325000Y-67640000I875000J0D01*
G01*
G37*
G04 #@! TD.AperFunction*
G04 #@! TA.AperFunction,ComponentPad*
G36*
G01*
X87900000Y-64890000D02*
X89900000Y-64890000D01*
G75*
G02*
X90650000Y-65640000I0J-750000D01*
G01*
X90650000Y-67140000D01*
G75*
G02*
X89900000Y-67890000I-750000J0D01*
G01*
X87900000Y-67890000D01*
G75*
G02*
X87150000Y-67140000I0J750000D01*
G01*
X87150000Y-65640000D01*
G75*
G02*
X87900000Y-64890000I750000J0D01*
G01*
G37*
G04 #@! TD.AperFunction*
D13*
X88900000Y-72390000D03*
G04 #@! TA.AperFunction,ComponentPad*
G36*
G01*
X70625000Y-67640000D02*
X72375000Y-67640000D01*
G75*
G02*
X73250000Y-68515000I0J-875000D01*
G01*
X73250000Y-70265000D01*
G75*
G02*
X72375000Y-71140000I-875000J0D01*
G01*
X70625000Y-71140000D01*
G75*
G02*
X69750000Y-70265000I0J875000D01*
G01*
X69750000Y-68515000D01*
G75*
G02*
X70625000Y-67640000I875000J0D01*
G01*
G37*
G04 #@! TD.AperFunction*
G04 #@! TA.AperFunction,ComponentPad*
G36*
G01*
X75200000Y-64890000D02*
X77200000Y-64890000D01*
G75*
G02*
X77950000Y-65640000I0J-750000D01*
G01*
X77950000Y-67140000D01*
G75*
G02*
X77200000Y-67890000I-750000J0D01*
G01*
X75200000Y-67890000D01*
G75*
G02*
X74450000Y-67140000I0J750000D01*
G01*
X74450000Y-65640000D01*
G75*
G02*
X75200000Y-64890000I750000J0D01*
G01*
G37*
G04 #@! TD.AperFunction*
X76200000Y-72390000D03*
D11*
X76200000Y-119380000D03*
X76200000Y-116840000D03*
X76200000Y-114300000D03*
D14*
X111760000Y-86360000D03*
X104140000Y-93980000D03*
X111760000Y-88900000D03*
X104140000Y-91440000D03*
X111760000Y-91440000D03*
X104140000Y-88900000D03*
X111760000Y-93980000D03*
D15*
X104140000Y-86360000D03*
D14*
X99060000Y-86360000D03*
X91440000Y-93980000D03*
X99060000Y-88900000D03*
X91440000Y-91440000D03*
X99060000Y-91440000D03*
X91440000Y-88900000D03*
X99060000Y-93980000D03*
D15*
X91440000Y-86360000D03*
D14*
X124460000Y-86360000D03*
X116840000Y-93980000D03*
X124460000Y-88900000D03*
X116840000Y-91440000D03*
X124460000Y-91440000D03*
X116840000Y-88900000D03*
X124460000Y-93980000D03*
D15*
X116840000Y-86360000D03*
D14*
X162560000Y-86360000D03*
X154940000Y-93980000D03*
X162560000Y-88900000D03*
X154940000Y-91440000D03*
X162560000Y-91440000D03*
X154940000Y-88900000D03*
X162560000Y-93980000D03*
D15*
X154940000Y-86360000D03*
D14*
X149860000Y-86360000D03*
X142240000Y-93980000D03*
X149860000Y-88900000D03*
X142240000Y-91440000D03*
X149860000Y-91440000D03*
X142240000Y-88900000D03*
X149860000Y-93980000D03*
D15*
X142240000Y-86360000D03*
D14*
X137160000Y-86360000D03*
X129540000Y-93980000D03*
X137160000Y-88900000D03*
X129540000Y-91440000D03*
X137160000Y-91440000D03*
X129540000Y-88900000D03*
X137160000Y-93980000D03*
D15*
X129540000Y-86360000D03*
D14*
X86360000Y-86360000D03*
X78740000Y-93980000D03*
X86360000Y-88900000D03*
X78740000Y-91440000D03*
X86360000Y-91440000D03*
X78740000Y-88900000D03*
X86360000Y-93980000D03*
D15*
X78740000Y-86360000D03*
D14*
X73660000Y-86360000D03*
X66040000Y-93980000D03*
X73660000Y-88900000D03*
X66040000Y-91440000D03*
X73660000Y-91440000D03*
X66040000Y-88900000D03*
X73660000Y-93980000D03*
D15*
X66040000Y-86360000D03*
D11*
X101600000Y-119380000D03*
X101600000Y-116840000D03*
X101600000Y-114300000D03*
X88900000Y-119380000D03*
X88900000Y-116840000D03*
X88900000Y-114300000D03*
X114300000Y-119380000D03*
X114300000Y-116840000D03*
X114300000Y-114300000D03*
X152400000Y-119380000D03*
X152400000Y-116840000D03*
X152400000Y-114300000D03*
X127000000Y-119380000D03*
X127000000Y-116840000D03*
X127000000Y-114300000D03*
X63500000Y-119380000D03*
X63500000Y-116840000D03*
X63500000Y-114300000D03*
D16*
X111760000Y-99060000D03*
D17*
X111760000Y-101600000D03*
X111760000Y-100330000D03*
D16*
X99060000Y-99060000D03*
D17*
X99060000Y-101600000D03*
X99060000Y-100330000D03*
D16*
X124460000Y-99060000D03*
D17*
X124460000Y-101600000D03*
X124460000Y-100330000D03*
D16*
X162560000Y-99060000D03*
D17*
X162560000Y-101600000D03*
X162560000Y-100330000D03*
D16*
X149860000Y-99060000D03*
D17*
X149860000Y-101600000D03*
X149860000Y-100330000D03*
D16*
X137160000Y-99060000D03*
D17*
X137160000Y-101600000D03*
X137160000Y-100330000D03*
D16*
X86360000Y-99060000D03*
D17*
X86360000Y-101600000D03*
X86360000Y-100330000D03*
D16*
X73660000Y-99060000D03*
D17*
X73660000Y-101600000D03*
X73660000Y-100330000D03*
D18*
X110490000Y-107950000D03*
X107950000Y-107950000D03*
D19*
X105410000Y-107950000D03*
D18*
X97790000Y-107950000D03*
X95250000Y-107950000D03*
D19*
X92710000Y-107950000D03*
D18*
X123190000Y-107950000D03*
X120650000Y-107950000D03*
D19*
X118110000Y-107950000D03*
D18*
X161290000Y-107950000D03*
X158750000Y-107950000D03*
D19*
X156210000Y-107950000D03*
D18*
X148590000Y-107950000D03*
X146050000Y-107950000D03*
D19*
X143510000Y-107950000D03*
D18*
X135890000Y-107950000D03*
X133350000Y-107950000D03*
D19*
X130810000Y-107950000D03*
D18*
X85090000Y-107950000D03*
X82550000Y-107950000D03*
D19*
X80010000Y-107950000D03*
D18*
X72390000Y-107950000D03*
X69850000Y-107950000D03*
D19*
X67310000Y-107950000D03*
D20*
X119380000Y-72390000D03*
X119380000Y-69850000D03*
D21*
X119380000Y-67310000D03*
D11*
X162560000Y-68580000D03*
X162560000Y-71120000D03*
X162560000Y-73660000D03*
D22*
X163830000Y-123190000D03*
X161290000Y-123190000D03*
X158750000Y-123190000D03*
X156210000Y-123190000D03*
X153670000Y-123190000D03*
X151130000Y-123190000D03*
X148590000Y-123190000D03*
X146050000Y-123190000D03*
X143510000Y-123190000D03*
X140970000Y-123190000D03*
X138430000Y-123190000D03*
X135890000Y-123190000D03*
X133350000Y-123190000D03*
X130810000Y-123190000D03*
X128270000Y-123190000D03*
X125730000Y-123190000D03*
X123190000Y-123190000D03*
X120650000Y-123190000D03*
X118110000Y-123190000D03*
X115570000Y-123190000D03*
X113030000Y-123190000D03*
X110490000Y-123190000D03*
X107950000Y-123190000D03*
X105410000Y-123190000D03*
X102870000Y-123190000D03*
X100330000Y-123190000D03*
X97790000Y-123190000D03*
X95250000Y-123190000D03*
X92710000Y-123190000D03*
X90170000Y-123190000D03*
X87630000Y-123190000D03*
X85090000Y-123190000D03*
X82550000Y-123190000D03*
X80010000Y-123190000D03*
X77470000Y-123190000D03*
X74930000Y-123190000D03*
X72390000Y-123190000D03*
X69850000Y-123190000D03*
X67310000Y-123190000D03*
D23*
X64770000Y-123190000D03*
D12*
X144780000Y-67945000D03*
X138430000Y-67945000D03*
D24*
X129540000Y-68620000D03*
D25*
X129540000Y-71120000D03*
D24*
X110490000Y-68620000D03*
D25*
X110490000Y-71120000D03*
D24*
X100330000Y-68620000D03*
D25*
X100330000Y-71120000D03*
D26*
X157480000Y-76200000D03*
X69850000Y-96520000D03*
X71755000Y-81280000D03*
X82550000Y-96520000D03*
X84455000Y-81280000D03*
X161290000Y-118110000D03*
X154940000Y-111760000D03*
X148590000Y-118110000D03*
X142240000Y-111760000D03*
X135890000Y-118110000D03*
X129540000Y-111760000D03*
X123190000Y-118110000D03*
X116840000Y-111760000D03*
X110490000Y-118110000D03*
X104140000Y-111760000D03*
X97790000Y-118110000D03*
X91440000Y-111760000D03*
X85090000Y-118110000D03*
X78740000Y-111760000D03*
X72390000Y-118110000D03*
X66040000Y-111760000D03*
X95250000Y-96520000D03*
X97155000Y-81280000D03*
X107950000Y-96520000D03*
X109855000Y-81280000D03*
X120650000Y-96520000D03*
X122555000Y-81280000D03*
X133350000Y-96520000D03*
X135255000Y-81280000D03*
X146050000Y-96520000D03*
X147955000Y-81280000D03*
X158750000Y-96520000D03*
X160655000Y-81280000D03*
X77470000Y-78105000D03*
X87630000Y-78105000D03*
X90170000Y-78105000D03*
X100330000Y-78105000D03*
X102870000Y-78105000D03*
X113030000Y-78105000D03*
X115570000Y-78105000D03*
X125730000Y-78105000D03*
X128270000Y-78105000D03*
X138430000Y-78105000D03*
X140970000Y-78105000D03*
X151130000Y-78105000D03*
X153670000Y-78105000D03*
X74930000Y-78105000D03*
X65405000Y-78105000D03*
X163195000Y-78105000D03*
X69893500Y-85090000D03*
X68580000Y-96520000D03*
X81280000Y-96520000D03*
X82550000Y-85090000D03*
X93980000Y-96520000D03*
X95250000Y-85090000D03*
X106680000Y-96520000D03*
X107950000Y-85090000D03*
X119380000Y-96520000D03*
X120693500Y-85090000D03*
X132080000Y-96520000D03*
X133350000Y-85090000D03*
X144780000Y-96520000D03*
X146050000Y-85090000D03*
X157480000Y-96520000D03*
X158750000Y-85090000D03*
D27*
X75622000Y-86360000D02*
X76200000Y-85782000D01*
X73660000Y-86360000D02*
X75622000Y-86360000D01*
X76200000Y-85782000D02*
X76200000Y-76200000D01*
X88322000Y-86360000D02*
X86360000Y-86360000D01*
X88900000Y-85782000D02*
X88322000Y-86360000D01*
X76200000Y-76200000D02*
X88900000Y-76200000D01*
X88900000Y-76200000D02*
X88900000Y-85090000D01*
X101022000Y-86360000D02*
X99060000Y-86360000D01*
X101600000Y-76200000D02*
X101600000Y-85782000D01*
X101600000Y-85782000D02*
X101022000Y-86360000D01*
X88900000Y-76200000D02*
X101600000Y-76200000D01*
X69850000Y-107950000D02*
X69850000Y-106045000D01*
X69850000Y-106045000D02*
X71120000Y-104775000D01*
X71120000Y-104775000D02*
X73660000Y-104775000D01*
X73660000Y-104775000D02*
X76200000Y-102235000D01*
X76200000Y-102235000D02*
X76200000Y-98425000D01*
X76200000Y-98425000D02*
X76200000Y-97790000D01*
X76200000Y-85782000D02*
X76200000Y-97790000D01*
X76200000Y-97790000D02*
X76200000Y-98032000D01*
X95250000Y-107950000D02*
X95250000Y-106045000D01*
X95250000Y-106045000D02*
X96520000Y-104775000D01*
X96520000Y-104775000D02*
X99060000Y-104775000D01*
X99060000Y-104775000D02*
X101600000Y-102235000D01*
X101600000Y-102235000D02*
X101600000Y-85782000D01*
X112395000Y-104775000D02*
X114300000Y-102870000D01*
X101600000Y-76200000D02*
X114300000Y-76200000D01*
X107950000Y-107950000D02*
X107950000Y-106045000D01*
X107950000Y-106045000D02*
X109220000Y-104775000D01*
X109220000Y-104775000D02*
X112395000Y-104775000D01*
X120650000Y-107950000D02*
X120650000Y-106045000D01*
X120650000Y-106045000D02*
X121920000Y-104775000D01*
X121920000Y-104775000D02*
X124460000Y-104775000D01*
X124460000Y-104775000D02*
X127000000Y-102235000D01*
X127000000Y-76200000D02*
X129540000Y-76200000D01*
X127000000Y-85782000D02*
X127000000Y-85090000D01*
X126422000Y-86360000D02*
X127000000Y-85782000D01*
X124460000Y-86360000D02*
X126422000Y-86360000D01*
X127000000Y-102235000D02*
X127000000Y-85090000D01*
X127000000Y-85090000D02*
X127000000Y-76200000D01*
X165100000Y-78105000D02*
X165100000Y-85782000D01*
X164522000Y-86360000D02*
X162560000Y-86360000D01*
X165100000Y-85782000D02*
X164522000Y-86360000D01*
X163195000Y-76200000D02*
X165100000Y-78105000D01*
X165100000Y-85782000D02*
X165100000Y-102235000D01*
X158750000Y-107950000D02*
X158750000Y-106045000D01*
X158750000Y-106045000D02*
X160020000Y-104775000D01*
X160020000Y-104775000D02*
X162560000Y-104775000D01*
X162560000Y-104775000D02*
X165100000Y-102235000D01*
X146050000Y-107950000D02*
X146050000Y-106045000D01*
X146050000Y-106045000D02*
X147320000Y-104775000D01*
X147320000Y-104775000D02*
X149860000Y-104775000D01*
X149860000Y-104775000D02*
X152400000Y-102235000D01*
X133350000Y-107950000D02*
X133350000Y-106045000D01*
X133350000Y-106045000D02*
X134620000Y-104775000D01*
X134620000Y-104775000D02*
X137160000Y-104775000D01*
X137160000Y-104775000D02*
X139700000Y-102235000D01*
X139700000Y-77923118D02*
X139700000Y-76200000D01*
X129540000Y-76200000D02*
X139700000Y-76200000D01*
X114300000Y-85782000D02*
X113722000Y-86360000D01*
X113722000Y-86360000D02*
X111760000Y-86360000D01*
X114300000Y-85090000D02*
X114300000Y-85782000D01*
X114300000Y-85090000D02*
X114300000Y-76200000D01*
X114300000Y-102870000D02*
X114300000Y-85090000D01*
X139700000Y-85782000D02*
X139122000Y-86360000D01*
X139700000Y-85090000D02*
X139700000Y-85782000D01*
X139122000Y-86360000D02*
X137160000Y-86360000D01*
X139700000Y-85090000D02*
X139700000Y-77923118D01*
X139700000Y-102235000D02*
X139700000Y-85090000D01*
X152400000Y-85782000D02*
X151822000Y-86360000D01*
X152400000Y-85090000D02*
X152400000Y-85782000D01*
X151822000Y-86360000D02*
X149860000Y-86360000D01*
X152400000Y-85090000D02*
X152400000Y-76200000D01*
X152400000Y-102235000D02*
X152400000Y-85090000D01*
X88900000Y-102235000D02*
X88900000Y-85725000D01*
X86360000Y-104775000D02*
X88900000Y-102235000D01*
X83820000Y-104775000D02*
X86360000Y-104775000D01*
X82550000Y-106045000D02*
X83820000Y-104775000D01*
X88900000Y-85725000D02*
X88900000Y-85782000D01*
X88900000Y-85090000D02*
X88900000Y-85725000D01*
X82550000Y-107950000D02*
X82550000Y-106045000D01*
X128270000Y-72390000D02*
X129540000Y-71120000D01*
X119380000Y-72390000D02*
X128270000Y-72390000D01*
X119380000Y-72390000D02*
X119380000Y-76200000D01*
X114300000Y-76200000D02*
X119380000Y-76200000D01*
X119380000Y-76200000D02*
X127000000Y-76200000D01*
X144780000Y-67310000D02*
X144780000Y-69431320D01*
X144780000Y-69431320D02*
X144780000Y-76200000D01*
X139700000Y-76200000D02*
X146050000Y-76200000D01*
X146050000Y-76200000D02*
X152400000Y-76200000D01*
X67310000Y-120650000D02*
X69850000Y-118110000D01*
X69850000Y-118110000D02*
X69850000Y-107950000D01*
X82550000Y-118110000D02*
X82550000Y-107950000D01*
X80010000Y-120650000D02*
X82550000Y-118110000D01*
X118110000Y-120650000D02*
X120650000Y-118110000D01*
X120650000Y-118110000D02*
X120650000Y-107950000D01*
X146050000Y-118110000D02*
X146050000Y-107950000D01*
X143510000Y-120650000D02*
X146050000Y-118110000D01*
X130810000Y-120650000D02*
X133350000Y-118110000D01*
X133350000Y-118110000D02*
X133350000Y-107950000D01*
X156210000Y-120650000D02*
X158750000Y-118110000D01*
X158750000Y-118110000D02*
X158750000Y-107950000D01*
X92710000Y-120650000D02*
X95250000Y-118110000D01*
X95250000Y-118110000D02*
X95250000Y-107950000D01*
X152400000Y-76200000D02*
X157480000Y-76200000D01*
X157480000Y-76200000D02*
X163195000Y-76200000D01*
X143510000Y-120650000D02*
X143510000Y-123190000D01*
X156210000Y-120650000D02*
X156210000Y-123190000D01*
X130810000Y-120650000D02*
X130810000Y-123190000D01*
X118110000Y-120650000D02*
X118110000Y-123190000D01*
X107950000Y-118110000D02*
X107950000Y-107950000D01*
X105410000Y-120650000D02*
X107950000Y-118110000D01*
X105410000Y-121920000D02*
X105410000Y-123190000D01*
X105410000Y-120650000D02*
X105410000Y-121920000D01*
X92710000Y-120650000D02*
X92710000Y-123190000D01*
X80010000Y-120650000D02*
X80010000Y-123190000D01*
X67310000Y-120650000D02*
X67310000Y-123190000D01*
X99060000Y-72390000D02*
X100330000Y-71120000D01*
X76200000Y-72390000D02*
X99060000Y-72390000D01*
X100330000Y-71120000D02*
X110490000Y-71120000D01*
X117618000Y-67310000D02*
X113808000Y-71120000D01*
X119380000Y-67310000D02*
X117618000Y-67310000D01*
X113808000Y-71120000D02*
X110490000Y-71120000D01*
X71698000Y-88900000D02*
X73660000Y-88900000D01*
X71120000Y-89478000D02*
X71698000Y-88900000D01*
X71120000Y-97790000D02*
X71120000Y-89478000D01*
X67310000Y-101600000D02*
X71120000Y-97790000D01*
X67310000Y-107950000D02*
X67310000Y-101600000D01*
X66040000Y-86360000D02*
X66040000Y-84455000D01*
X66040000Y-84455000D02*
X66675000Y-83820000D01*
X66675000Y-83820000D02*
X71120000Y-83820000D01*
X71120000Y-83820000D02*
X71120000Y-87630000D01*
X71120000Y-87630000D02*
X69850000Y-88900000D01*
X69850000Y-88900000D02*
X69850000Y-96520000D01*
X71120000Y-83820000D02*
X71120000Y-81915000D01*
X71120000Y-81915000D02*
X71755000Y-81280000D01*
X84398000Y-88900000D02*
X86360000Y-88900000D01*
X83820000Y-89478000D02*
X84398000Y-88900000D01*
X83820000Y-97790000D02*
X83820000Y-89478000D01*
X80010000Y-101600000D02*
X83820000Y-97790000D01*
X80010000Y-107950000D02*
X80010000Y-101600000D01*
X78740000Y-84798000D02*
X79718000Y-83820000D01*
X78740000Y-86360000D02*
X78740000Y-84798000D01*
X83820000Y-83820000D02*
X83820000Y-87630000D01*
X79718000Y-83820000D02*
X83820000Y-83820000D01*
X83820000Y-87630000D02*
X82550000Y-88900000D01*
X82550000Y-88900000D02*
X82550000Y-96520000D01*
X83820000Y-83820000D02*
X83820000Y-81915000D01*
X83820000Y-81915000D02*
X84455000Y-81280000D01*
X162560000Y-121285000D02*
X163830000Y-122555000D01*
X162560000Y-110982000D02*
X162560000Y-121285000D01*
X161290000Y-107950000D02*
X161290000Y-109712000D01*
X161290000Y-109712000D02*
X162560000Y-110982000D01*
X161290000Y-123190000D02*
X161290000Y-118110000D01*
X152400000Y-116840000D02*
X152400000Y-119380000D01*
X153670000Y-120650000D02*
X152400000Y-119380000D01*
X153670000Y-120650000D02*
X153670000Y-123190000D01*
X154940000Y-114300000D02*
X152400000Y-116840000D01*
X154940000Y-111760000D02*
X154940000Y-114300000D01*
X149860000Y-121285000D02*
X151130000Y-122555000D01*
X149860000Y-110982000D02*
X149860000Y-121285000D01*
X148590000Y-107950000D02*
X148590000Y-109712000D01*
X148590000Y-109712000D02*
X149860000Y-110982000D01*
X148590000Y-123190000D02*
X148590000Y-118110000D01*
X139700000Y-119380000D02*
X139700000Y-116840000D01*
X142240000Y-111760000D02*
X142240000Y-115570000D01*
X142240000Y-115570000D02*
X140970000Y-116840000D01*
X140970000Y-116840000D02*
X139700000Y-116840000D01*
X139700000Y-119380000D02*
X140970000Y-120650000D01*
X140970000Y-120650000D02*
X140970000Y-123190000D01*
X137160000Y-121285000D02*
X138430000Y-122555000D01*
X135890000Y-107950000D02*
X135890000Y-109712000D01*
X137160000Y-110982000D02*
X137160000Y-121285000D01*
X135890000Y-109712000D02*
X137160000Y-110982000D01*
X135890000Y-123190000D02*
X135890000Y-118110000D01*
X128270000Y-120650000D02*
X127000000Y-119380000D01*
X127000000Y-116840000D02*
X127000000Y-119380000D01*
X129540000Y-111760000D02*
X129540000Y-115570000D01*
X128270000Y-116840000D02*
X127000000Y-116840000D01*
X129540000Y-115570000D02*
X128270000Y-116840000D01*
X128270000Y-120650000D02*
X128270000Y-123190000D01*
X124460000Y-110982000D02*
X124460000Y-121285000D01*
X123190000Y-107950000D02*
X123190000Y-109712000D01*
X124460000Y-121285000D02*
X125730000Y-122555000D01*
X123190000Y-109712000D02*
X124460000Y-110982000D01*
X123190000Y-123190000D02*
X123190000Y-118110000D01*
X115570000Y-120650000D02*
X114300000Y-119380000D01*
X114300000Y-116840000D02*
X114300000Y-119380000D01*
X116840000Y-111760000D02*
X116840000Y-115570000D01*
X116840000Y-115570000D02*
X115570000Y-116840000D01*
X115570000Y-116840000D02*
X114300000Y-116840000D01*
X115570000Y-120650000D02*
X115570000Y-123190000D01*
X111760000Y-121285000D02*
X113030000Y-122555000D01*
X111760000Y-110982000D02*
X111760000Y-121285000D01*
X110490000Y-107950000D02*
X110490000Y-109712000D01*
X110490000Y-109712000D02*
X111760000Y-110982000D01*
X110490000Y-123190000D02*
X110490000Y-118110000D01*
X102870000Y-120650000D02*
X101600000Y-119380000D01*
X101600000Y-116840000D02*
X101600000Y-119380000D01*
X104140000Y-114300000D02*
X101600000Y-116840000D01*
X104140000Y-111760000D02*
X104140000Y-114300000D01*
X102870000Y-120650000D02*
X102870000Y-123190000D01*
X99060000Y-110982000D02*
X99060000Y-121285000D01*
X99060000Y-121285000D02*
X100330000Y-122555000D01*
X97790000Y-107950000D02*
X97790000Y-109712000D01*
X97790000Y-109712000D02*
X99060000Y-110982000D01*
X97790000Y-123190000D02*
X97790000Y-118110000D01*
X90170000Y-120650000D02*
X88900000Y-119380000D01*
X88900000Y-119380000D02*
X88900000Y-116840000D01*
X91440000Y-114300000D02*
X88900000Y-116840000D01*
X91440000Y-111760000D02*
X91440000Y-114300000D01*
X90170000Y-121920000D02*
X90170000Y-123190000D01*
X90170000Y-120650000D02*
X90170000Y-121920000D01*
X85090000Y-107950000D02*
X85090000Y-110490000D01*
X85090000Y-110490000D02*
X86360000Y-111760000D01*
X86360000Y-111760000D02*
X86360000Y-121285000D01*
X86360000Y-121285000D02*
X87630000Y-122555000D01*
X85090000Y-123190000D02*
X85090000Y-118110000D01*
X76200000Y-116840000D02*
X76200000Y-119380000D01*
X77470000Y-120650000D02*
X76200000Y-119380000D01*
X78740000Y-114300000D02*
X76200000Y-116840000D01*
X78740000Y-111760000D02*
X78740000Y-114300000D01*
X77470000Y-120650000D02*
X77470000Y-123190000D01*
X73660000Y-110982000D02*
X73660000Y-121285000D01*
X73660000Y-121285000D02*
X74930000Y-122555000D01*
X72390000Y-107950000D02*
X72390000Y-109712000D01*
X72390000Y-109712000D02*
X73660000Y-110982000D01*
X72390000Y-123190000D02*
X72390000Y-118110000D01*
X64770000Y-120650000D02*
X63500000Y-119380000D01*
X63500000Y-119380000D02*
X63500000Y-116840000D01*
X66040000Y-114300000D02*
X63500000Y-116840000D01*
X66040000Y-111760000D02*
X66040000Y-114300000D01*
X64770000Y-120650000D02*
X64770000Y-123190000D01*
X96520000Y-97790000D02*
X96520000Y-89478000D01*
X97098000Y-88900000D02*
X99060000Y-88900000D01*
X96520000Y-89478000D02*
X97098000Y-88900000D01*
X92710000Y-101600000D02*
X96520000Y-97790000D01*
X92710000Y-107950000D02*
X92710000Y-101600000D01*
X109220000Y-89478000D02*
X109798000Y-88900000D01*
X109798000Y-88900000D02*
X111760000Y-88900000D01*
X109220000Y-97790000D02*
X109220000Y-89478000D01*
X105410000Y-101600000D02*
X109220000Y-97790000D01*
X105410000Y-107950000D02*
X105410000Y-101600000D01*
X122498000Y-88900000D02*
X124460000Y-88900000D01*
X121920000Y-97790000D02*
X121920000Y-89478000D01*
X121920000Y-89478000D02*
X122498000Y-88900000D01*
X118110000Y-101600000D02*
X121920000Y-97790000D01*
X118110000Y-107950000D02*
X118110000Y-101600000D01*
X135198000Y-88900000D02*
X137160000Y-88900000D01*
X134620000Y-89478000D02*
X135198000Y-88900000D01*
X134620000Y-97790000D02*
X134620000Y-89478000D01*
X130810000Y-101600000D02*
X134620000Y-97790000D01*
X130810000Y-107950000D02*
X130810000Y-101600000D01*
X147898000Y-88900000D02*
X149860000Y-88900000D01*
X143510000Y-101600000D02*
X147320000Y-97790000D01*
X147320000Y-89478000D02*
X147898000Y-88900000D01*
X147320000Y-97790000D02*
X147320000Y-89478000D01*
X143510000Y-107950000D02*
X143510000Y-101600000D01*
X160598000Y-88900000D02*
X162560000Y-88900000D01*
X160020000Y-89478000D02*
X160598000Y-88900000D01*
X160020000Y-97790000D02*
X160020000Y-89478000D01*
X156210000Y-101600000D02*
X160020000Y-97790000D01*
X156210000Y-107950000D02*
X156210000Y-101600000D01*
X91440000Y-86360000D02*
X91440000Y-85090000D01*
X91440000Y-85090000D02*
X91440000Y-84455000D01*
X91440000Y-84455000D02*
X92075000Y-83820000D01*
X96520000Y-83820000D02*
X96520000Y-86360000D01*
X92075000Y-83820000D02*
X96520000Y-83820000D01*
X96520000Y-86360000D02*
X96520000Y-87630000D01*
X96520000Y-87630000D02*
X95250000Y-88900000D01*
X95250000Y-88900000D02*
X95250000Y-96520000D01*
X96520000Y-83820000D02*
X96520000Y-81915000D01*
X96520000Y-81915000D02*
X97155000Y-81280000D01*
X104140000Y-86360000D02*
X104140000Y-85090000D01*
X104140000Y-85090000D02*
X104140000Y-84455000D01*
X104140000Y-84455000D02*
X104775000Y-83820000D01*
X109220000Y-83820000D02*
X109220000Y-87630000D01*
X104775000Y-83820000D02*
X109220000Y-83820000D01*
X109220000Y-87630000D02*
X107950000Y-88900000D01*
X107950000Y-88900000D02*
X107950000Y-96520000D01*
X109220000Y-83820000D02*
X109220000Y-81915000D01*
X109220000Y-81915000D02*
X109855000Y-81280000D01*
X116840000Y-86360000D02*
X116840000Y-85090000D01*
X116840000Y-85090000D02*
X116840000Y-84455000D01*
X116840000Y-84455000D02*
X117475000Y-83820000D01*
X121920000Y-83820000D02*
X121920000Y-87630000D01*
X117475000Y-83820000D02*
X121920000Y-83820000D01*
X121920000Y-87630000D02*
X120650000Y-88900000D01*
X120650000Y-88900000D02*
X120650000Y-96520000D01*
X121920000Y-83820000D02*
X121920000Y-81915000D01*
X121920000Y-81915000D02*
X122555000Y-81280000D01*
X129540000Y-86360000D02*
X129540000Y-84798000D01*
X129540000Y-84798000D02*
X129540000Y-84455000D01*
X129540000Y-84455000D02*
X130175000Y-83820000D01*
X134620000Y-83820000D02*
X134620000Y-86360000D01*
X130175000Y-83820000D02*
X134620000Y-83820000D01*
X134620000Y-86360000D02*
X133350000Y-87630000D01*
X133350000Y-87630000D02*
X133350000Y-96520000D01*
X134620000Y-83820000D02*
X134620000Y-81915000D01*
X134620000Y-81915000D02*
X135255000Y-81280000D01*
X142240000Y-86360000D02*
X142240000Y-84798000D01*
X142240000Y-84798000D02*
X142240000Y-84455000D01*
X142240000Y-84455000D02*
X142875000Y-83820000D01*
X147320000Y-83820000D02*
X147320000Y-87630000D01*
X142875000Y-83820000D02*
X147320000Y-83820000D01*
X147320000Y-87630000D02*
X146050000Y-88900000D01*
X146050000Y-88900000D02*
X146050000Y-96520000D01*
X147320000Y-83820000D02*
X147320000Y-81915000D01*
X147320000Y-81915000D02*
X147955000Y-81280000D01*
X154940000Y-86360000D02*
X154940000Y-84455000D01*
X154940000Y-84455000D02*
X155575000Y-83820000D01*
X160020000Y-83820000D02*
X160020000Y-87630000D01*
X155575000Y-83820000D02*
X160020000Y-83820000D01*
X160020000Y-87630000D02*
X158750000Y-88900000D01*
X158750000Y-88900000D02*
X158750000Y-96520000D01*
X160020000Y-83820000D02*
X160020000Y-81915000D01*
X160020000Y-81915000D02*
X160655000Y-81280000D01*
X77470000Y-78105000D02*
X87630000Y-78105000D01*
X90170000Y-78105000D02*
X100330000Y-78105000D01*
X102870000Y-78105000D02*
X113030000Y-78105000D01*
X115570000Y-78105000D02*
X125730000Y-78105000D01*
X128270000Y-78105000D02*
X138430000Y-78105000D01*
X140970000Y-78105000D02*
X151130000Y-78105000D01*
X74930000Y-78105000D02*
X65405000Y-78105000D01*
X153670000Y-78105000D02*
X163195000Y-78105000D01*
X66040000Y-88900000D02*
X68580000Y-88900000D01*
X68580000Y-87630000D02*
X68580000Y-88900000D01*
X68580000Y-87630000D02*
X68580000Y-86403500D01*
X68580000Y-86403500D02*
X69893500Y-85090000D01*
X68580000Y-96520000D02*
X68580000Y-88900000D01*
X81280000Y-86360000D02*
X82550000Y-85090000D01*
X81280000Y-96520000D02*
X81280000Y-88900000D01*
X78740000Y-88900000D02*
X81280000Y-88900000D01*
X81280000Y-88900000D02*
X81280000Y-86360000D01*
X93980000Y-96520000D02*
X93980000Y-88900000D01*
X91440000Y-88900000D02*
X93980000Y-88900000D01*
X93980000Y-88900000D02*
X93980000Y-86360000D01*
X93980000Y-86360000D02*
X95250000Y-85090000D01*
X106680000Y-86360000D02*
X107950000Y-85090000D01*
X104140000Y-88900000D02*
X106680000Y-88900000D01*
X106680000Y-96520000D02*
X106680000Y-88900000D01*
X106680000Y-88900000D02*
X106680000Y-86360000D01*
X119380000Y-96520000D02*
X119380000Y-88900000D01*
X116840000Y-88900000D02*
X119380000Y-88900000D01*
X119380000Y-88900000D02*
X119380000Y-86403500D01*
X119380000Y-86403500D02*
X120693500Y-85090000D01*
X132080000Y-87630000D02*
X132080000Y-86360000D01*
X132080000Y-86360000D02*
X133350000Y-85090000D01*
X129540000Y-88900000D02*
X132080000Y-88900000D01*
X132080000Y-96520000D02*
X132080000Y-88900000D01*
X132080000Y-88900000D02*
X132080000Y-87630000D01*
X144780000Y-96520000D02*
X144780000Y-88900000D01*
X142240000Y-88900000D02*
X144780000Y-88900000D01*
X144780000Y-88900000D02*
X144780000Y-86360000D01*
X144780000Y-86360000D02*
X146050000Y-85090000D01*
X157480000Y-87630000D02*
X157480000Y-86360000D01*
X157480000Y-86360000D02*
X158750000Y-85090000D01*
X154940000Y-88900000D02*
X157480000Y-88900000D01*
X157480000Y-96520000D02*
X157480000Y-88900000D01*
X157480000Y-88900000D02*
X157480000Y-87630000D01*
M02*
