G04 #@! TF.GenerationSoftware,KiCad,Pcbnew,5.1.8+dfsg1-1+b1*
G04 #@! TF.CreationDate,2021-05-07T15:05:44-05:00*
G04 #@! TF.ProjectId,potentiosynth,706f7465-6e74-4696-9f73-796e74682e6b,A*
G04 #@! TF.SameCoordinates,Original*
G04 #@! TF.FileFunction,Legend,Top*
G04 #@! TF.FilePolarity,Positive*
%FSLAX46Y46*%
G04 Gerber Fmt 4.6, Leading zero omitted, Abs format (unit mm)*
G04 Created by KiCad (PCBNEW 5.1.8+dfsg1-1+b1) date 2021-05-07 15:05:44*
%MOMM*%
%LPD*%
G01*
G04 APERTURE LIST*
%ADD10C,0.635000*%
%ADD11C,0.150000*%
G04 #@! TA.AperFunction,Profile*
%ADD12C,0.150000*%
G04 #@! TD*
%ADD13C,0.127000*%
%ADD14C,0.200000*%
%ADD15C,0.120000*%
%ADD16C,0.015000*%
G04 APERTURE END LIST*
D10*
X108433809Y-116295714D02*
X108433809Y-117989047D01*
X107829047Y-115328095D02*
X107224285Y-117142380D01*
X108796666Y-117142380D01*
X133833809Y-115449047D02*
X133350000Y-115449047D01*
X133108095Y-115570000D01*
X132987142Y-115690952D01*
X132745238Y-116053809D01*
X132624285Y-116537619D01*
X132624285Y-117505238D01*
X132745238Y-117747142D01*
X132866190Y-117868095D01*
X133108095Y-117989047D01*
X133591904Y-117989047D01*
X133833809Y-117868095D01*
X133954761Y-117747142D01*
X134075714Y-117505238D01*
X134075714Y-116900476D01*
X133954761Y-116658571D01*
X133833809Y-116537619D01*
X133591904Y-116416666D01*
X133108095Y-116416666D01*
X132866190Y-116537619D01*
X132745238Y-116658571D01*
X132624285Y-116900476D01*
D11*
X66952380Y-64952619D02*
X67523809Y-64952619D01*
X67238095Y-64952619D02*
X67238095Y-65952619D01*
X67333333Y-65809761D01*
X67428571Y-65714523D01*
X67523809Y-65666904D01*
X66380952Y-65524047D02*
X66476190Y-65571666D01*
X66523809Y-65619285D01*
X66571428Y-65714523D01*
X66571428Y-65762142D01*
X66523809Y-65857380D01*
X66476190Y-65905000D01*
X66380952Y-65952619D01*
X66190476Y-65952619D01*
X66095238Y-65905000D01*
X66047619Y-65857380D01*
X66000000Y-65762142D01*
X66000000Y-65714523D01*
X66047619Y-65619285D01*
X66095238Y-65571666D01*
X66190476Y-65524047D01*
X66380952Y-65524047D01*
X66476190Y-65476428D01*
X66523809Y-65428809D01*
X66571428Y-65333571D01*
X66571428Y-65143095D01*
X66523809Y-65047857D01*
X66476190Y-65000238D01*
X66380952Y-64952619D01*
X66190476Y-64952619D01*
X66095238Y-65000238D01*
X66047619Y-65047857D01*
X66000000Y-65143095D01*
X66000000Y-65333571D01*
X66047619Y-65428809D01*
X66095238Y-65476428D01*
X66190476Y-65524047D01*
X64952380Y-65619285D02*
X64571428Y-65619285D01*
X64809523Y-65952619D02*
X64809523Y-65095476D01*
X64761904Y-65000238D01*
X64666666Y-64952619D01*
X64571428Y-64952619D01*
X64095238Y-64952619D02*
X64190476Y-65000238D01*
X64238095Y-65047857D01*
X64285714Y-65143095D01*
X64285714Y-65428809D01*
X64238095Y-65524047D01*
X64190476Y-65571666D01*
X64095238Y-65619285D01*
X63952380Y-65619285D01*
X63857142Y-65571666D01*
X63809523Y-65524047D01*
X63761904Y-65428809D01*
X63761904Y-65143095D01*
X63809523Y-65047857D01*
X63857142Y-65000238D01*
X63952380Y-64952619D01*
X64095238Y-64952619D01*
X62666666Y-65952619D02*
X62047619Y-65952619D01*
X62380952Y-65571666D01*
X62238095Y-65571666D01*
X62142857Y-65524047D01*
X62095238Y-65476428D01*
X62047619Y-65381190D01*
X62047619Y-65143095D01*
X62095238Y-65047857D01*
X62142857Y-65000238D01*
X62238095Y-64952619D01*
X62523809Y-64952619D01*
X62619047Y-65000238D01*
X62666666Y-65047857D01*
X61428571Y-65952619D02*
X61333333Y-65952619D01*
X61238095Y-65905000D01*
X61190476Y-65857380D01*
X61142857Y-65762142D01*
X61095238Y-65571666D01*
X61095238Y-65333571D01*
X61142857Y-65143095D01*
X61190476Y-65047857D01*
X61238095Y-65000238D01*
X61333333Y-64952619D01*
X61428571Y-64952619D01*
X61523809Y-65000238D01*
X61571428Y-65047857D01*
X61619047Y-65143095D01*
X61666666Y-65333571D01*
X61666666Y-65571666D01*
X61619047Y-65762142D01*
X61571428Y-65857380D01*
X61523809Y-65905000D01*
X61428571Y-65952619D01*
X60047619Y-65952619D02*
X59714285Y-64952619D01*
X59380952Y-65952619D01*
X168903571Y-102853333D02*
X168951190Y-102710476D01*
X168998809Y-102662857D01*
X169094047Y-102615238D01*
X169236904Y-102615238D01*
X169332142Y-102662857D01*
X169379761Y-102710476D01*
X169427380Y-102805714D01*
X169427380Y-103186666D01*
X168427380Y-103186666D01*
X168427380Y-102853333D01*
X168475000Y-102758095D01*
X168522619Y-102710476D01*
X168617857Y-102662857D01*
X168713095Y-102662857D01*
X168808333Y-102710476D01*
X168855952Y-102758095D01*
X168903571Y-102853333D01*
X168903571Y-103186666D01*
X169427380Y-101710476D02*
X169427380Y-102186666D01*
X168427380Y-102186666D01*
X169141666Y-101424761D02*
X169141666Y-100948571D01*
X169427380Y-101520000D02*
X168427380Y-101186666D01*
X169427380Y-100853333D01*
X169427380Y-100520000D02*
X168427380Y-100520000D01*
X169379761Y-100091428D02*
X169427380Y-99948571D01*
X169427380Y-99710476D01*
X169379761Y-99615238D01*
X169332142Y-99567619D01*
X169236904Y-99520000D01*
X169141666Y-99520000D01*
X169046428Y-99567619D01*
X168998809Y-99615238D01*
X168951190Y-99710476D01*
X168903571Y-99900952D01*
X168855952Y-99996190D01*
X168808333Y-100043809D01*
X168713095Y-100091428D01*
X168617857Y-100091428D01*
X168522619Y-100043809D01*
X168475000Y-99996190D01*
X168427380Y-99900952D01*
X168427380Y-99662857D01*
X168475000Y-99520000D01*
X168903571Y-99091428D02*
X168903571Y-98758095D01*
X169427380Y-98615238D02*
X169427380Y-99091428D01*
X168427380Y-99091428D01*
X168427380Y-98615238D01*
X168427380Y-97567619D02*
X168427380Y-96996190D01*
X169427380Y-97281904D02*
X168427380Y-97281904D01*
X169427380Y-96662857D02*
X168427380Y-96662857D01*
X168903571Y-96662857D02*
X168903571Y-96091428D01*
X169427380Y-96091428D02*
X168427380Y-96091428D01*
X168427380Y-95424761D02*
X168427380Y-95234285D01*
X168475000Y-95139047D01*
X168570238Y-95043809D01*
X168760714Y-94996190D01*
X169094047Y-94996190D01*
X169284523Y-95043809D01*
X169379761Y-95139047D01*
X169427380Y-95234285D01*
X169427380Y-95424761D01*
X169379761Y-95520000D01*
X169284523Y-95615238D01*
X169094047Y-95662857D01*
X168760714Y-95662857D01*
X168570238Y-95615238D01*
X168475000Y-95520000D01*
X168427380Y-95424761D01*
X169427380Y-94567619D02*
X168427380Y-94567619D01*
X169141666Y-94234285D01*
X168427380Y-93900952D01*
X169427380Y-93900952D01*
X169427380Y-93424761D02*
X168427380Y-93424761D01*
X168427380Y-93043809D01*
X168475000Y-92948571D01*
X168522619Y-92900952D01*
X168617857Y-92853333D01*
X168760714Y-92853333D01*
X168855952Y-92900952D01*
X168903571Y-92948571D01*
X168951190Y-93043809D01*
X168951190Y-93424761D01*
X169379761Y-92472380D02*
X169427380Y-92329523D01*
X169427380Y-92091428D01*
X169379761Y-91996190D01*
X169332142Y-91948571D01*
X169236904Y-91900952D01*
X169141666Y-91900952D01*
X169046428Y-91948571D01*
X168998809Y-91996190D01*
X168951190Y-92091428D01*
X168903571Y-92281904D01*
X168855952Y-92377142D01*
X168808333Y-92424761D01*
X168713095Y-92472380D01*
X168617857Y-92472380D01*
X168522619Y-92424761D01*
X168475000Y-92377142D01*
X168427380Y-92281904D01*
X168427380Y-92043809D01*
X168475000Y-91900952D01*
X168427380Y-91281904D02*
X168427380Y-91091428D01*
X168475000Y-90996190D01*
X168570238Y-90900952D01*
X168760714Y-90853333D01*
X169094047Y-90853333D01*
X169284523Y-90900952D01*
X169379761Y-90996190D01*
X169427380Y-91091428D01*
X169427380Y-91281904D01*
X169379761Y-91377142D01*
X169284523Y-91472380D01*
X169094047Y-91520000D01*
X168760714Y-91520000D01*
X168570238Y-91472380D01*
X168475000Y-91377142D01*
X168427380Y-91281904D01*
X169427380Y-90424761D02*
X168427380Y-90424761D01*
X169427380Y-89853333D01*
X168427380Y-89853333D01*
X170077380Y-101258095D02*
X170886904Y-101258095D01*
X170982142Y-101210476D01*
X171029761Y-101162857D01*
X171077380Y-101067619D01*
X171077380Y-100877142D01*
X171029761Y-100781904D01*
X170982142Y-100734285D01*
X170886904Y-100686666D01*
X170077380Y-100686666D01*
X170077380Y-100305714D02*
X171077380Y-100067619D01*
X170363095Y-99877142D01*
X171077380Y-99686666D01*
X170077380Y-99448571D01*
X170696428Y-99067619D02*
X170696428Y-98305714D01*
X171077380Y-97829523D02*
X170077380Y-97829523D01*
X170791666Y-97496190D01*
X170077380Y-97162857D01*
X171077380Y-97162857D01*
X170791666Y-96734285D02*
X170791666Y-96258095D01*
X171077380Y-96829523D02*
X170077380Y-96496190D01*
X171077380Y-96162857D01*
X171077380Y-95829523D02*
X170077380Y-95829523D01*
X170077380Y-95591428D01*
X170125000Y-95448571D01*
X170220238Y-95353333D01*
X170315476Y-95305714D01*
X170505952Y-95258095D01*
X170648809Y-95258095D01*
X170839285Y-95305714D01*
X170934523Y-95353333D01*
X171029761Y-95448571D01*
X171077380Y-95591428D01*
X171077380Y-95829523D01*
X171077380Y-94829523D02*
X170077380Y-94829523D01*
X171029761Y-94400952D02*
X171077380Y-94258095D01*
X171077380Y-94020000D01*
X171029761Y-93924761D01*
X170982142Y-93877142D01*
X170886904Y-93829523D01*
X170791666Y-93829523D01*
X170696428Y-93877142D01*
X170648809Y-93924761D01*
X170601190Y-94020000D01*
X170553571Y-94210476D01*
X170505952Y-94305714D01*
X170458333Y-94353333D01*
X170363095Y-94400952D01*
X170267857Y-94400952D01*
X170172619Y-94353333D01*
X170125000Y-94305714D01*
X170077380Y-94210476D01*
X170077380Y-93972380D01*
X170125000Y-93829523D01*
X170077380Y-93210476D02*
X170077380Y-93020000D01*
X170125000Y-92924761D01*
X170220238Y-92829523D01*
X170410714Y-92781904D01*
X170744047Y-92781904D01*
X170934523Y-92829523D01*
X171029761Y-92924761D01*
X171077380Y-93020000D01*
X171077380Y-93210476D01*
X171029761Y-93305714D01*
X170934523Y-93400952D01*
X170744047Y-93448571D01*
X170410714Y-93448571D01*
X170220238Y-93400952D01*
X170125000Y-93305714D01*
X170077380Y-93210476D01*
X171077380Y-92353333D02*
X170077380Y-92353333D01*
X171077380Y-91781904D01*
X170077380Y-91781904D01*
X172727380Y-106758095D02*
X171727380Y-106758095D01*
X171727380Y-106520000D01*
X171775000Y-106377142D01*
X171870238Y-106281904D01*
X171965476Y-106234285D01*
X172155952Y-106186666D01*
X172298809Y-106186666D01*
X172489285Y-106234285D01*
X172584523Y-106281904D01*
X172679761Y-106377142D01*
X172727380Y-106520000D01*
X172727380Y-106758095D01*
X172203571Y-105758095D02*
X172203571Y-105424761D01*
X172727380Y-105281904D02*
X172727380Y-105758095D01*
X171727380Y-105758095D01*
X171727380Y-105281904D01*
X172727380Y-104853333D02*
X171727380Y-104853333D01*
X171727380Y-104472380D01*
X171775000Y-104377142D01*
X171822619Y-104329523D01*
X171917857Y-104281904D01*
X172060714Y-104281904D01*
X172155952Y-104329523D01*
X172203571Y-104377142D01*
X172251190Y-104472380D01*
X172251190Y-104853333D01*
X172441666Y-103900952D02*
X172441666Y-103424761D01*
X172727380Y-103996190D02*
X171727380Y-103662857D01*
X172727380Y-103329523D01*
X172727380Y-102424761D02*
X172251190Y-102758095D01*
X172727380Y-102996190D02*
X171727380Y-102996190D01*
X171727380Y-102615238D01*
X171775000Y-102520000D01*
X171822619Y-102472380D01*
X171917857Y-102424761D01*
X172060714Y-102424761D01*
X172155952Y-102472380D01*
X172203571Y-102520000D01*
X172251190Y-102615238D01*
X172251190Y-102996190D01*
X171727380Y-102139047D02*
X171727380Y-101567619D01*
X172727380Y-101853333D02*
X171727380Y-101853333D01*
X172727380Y-101234285D02*
X171727380Y-101234285D01*
X172441666Y-100900952D01*
X171727380Y-100567619D01*
X172727380Y-100567619D01*
X172203571Y-100091428D02*
X172203571Y-99758095D01*
X172727380Y-99615238D02*
X172727380Y-100091428D01*
X171727380Y-100091428D01*
X171727380Y-99615238D01*
X172727380Y-99186666D02*
X171727380Y-99186666D01*
X172727380Y-98615238D01*
X171727380Y-98615238D01*
X171727380Y-98281904D02*
X171727380Y-97710476D01*
X172727380Y-97996190D02*
X171727380Y-97996190D01*
X171727380Y-96424761D02*
X171727380Y-96234285D01*
X171775000Y-96139047D01*
X171870238Y-96043809D01*
X172060714Y-95996190D01*
X172394047Y-95996190D01*
X172584523Y-96043809D01*
X172679761Y-96139047D01*
X172727380Y-96234285D01*
X172727380Y-96424761D01*
X172679761Y-96520000D01*
X172584523Y-96615238D01*
X172394047Y-96662857D01*
X172060714Y-96662857D01*
X171870238Y-96615238D01*
X171775000Y-96520000D01*
X171727380Y-96424761D01*
X172203571Y-95234285D02*
X172203571Y-95567619D01*
X172727380Y-95567619D02*
X171727380Y-95567619D01*
X171727380Y-95091428D01*
X172632142Y-93377142D02*
X172679761Y-93424761D01*
X172727380Y-93567619D01*
X172727380Y-93662857D01*
X172679761Y-93805714D01*
X172584523Y-93900952D01*
X172489285Y-93948571D01*
X172298809Y-93996190D01*
X172155952Y-93996190D01*
X171965476Y-93948571D01*
X171870238Y-93900952D01*
X171775000Y-93805714D01*
X171727380Y-93662857D01*
X171727380Y-93567619D01*
X171775000Y-93424761D01*
X171822619Y-93377142D01*
X172727380Y-92948571D02*
X171727380Y-92948571D01*
X172203571Y-92948571D02*
X172203571Y-92377142D01*
X172727380Y-92377142D02*
X171727380Y-92377142D01*
X172203571Y-91900952D02*
X172203571Y-91567619D01*
X172727380Y-91424761D02*
X172727380Y-91900952D01*
X171727380Y-91900952D01*
X171727380Y-91424761D01*
X172727380Y-90996190D02*
X171727380Y-90996190D01*
X172441666Y-90662857D01*
X171727380Y-90329523D01*
X172727380Y-90329523D01*
X172727380Y-89853333D02*
X171727380Y-89853333D01*
X172679761Y-89424761D02*
X172727380Y-89281904D01*
X172727380Y-89043809D01*
X172679761Y-88948571D01*
X172632142Y-88900952D01*
X172536904Y-88853333D01*
X172441666Y-88853333D01*
X172346428Y-88900952D01*
X172298809Y-88948571D01*
X172251190Y-89043809D01*
X172203571Y-89234285D01*
X172155952Y-89329523D01*
X172108333Y-89377142D01*
X172013095Y-89424761D01*
X171917857Y-89424761D01*
X171822619Y-89377142D01*
X171775000Y-89329523D01*
X171727380Y-89234285D01*
X171727380Y-88996190D01*
X171775000Y-88853333D01*
X171727380Y-88567619D02*
X171727380Y-87996190D01*
X172727380Y-88281904D02*
X171727380Y-88281904D01*
X172727380Y-87091428D02*
X172251190Y-87424761D01*
X172727380Y-87662857D02*
X171727380Y-87662857D01*
X171727380Y-87281904D01*
X171775000Y-87186666D01*
X171822619Y-87139047D01*
X171917857Y-87091428D01*
X172060714Y-87091428D01*
X172155952Y-87139047D01*
X172203571Y-87186666D01*
X172251190Y-87281904D01*
X172251190Y-87662857D01*
X172251190Y-86472380D02*
X172727380Y-86472380D01*
X171727380Y-86805714D02*
X172251190Y-86472380D01*
X171727380Y-86139047D01*
X173377380Y-102567619D02*
X174377380Y-102329523D01*
X173663095Y-102139047D01*
X174377380Y-101948571D01*
X173377380Y-101710476D01*
X174377380Y-101329523D02*
X173377380Y-101329523D01*
X174282142Y-100281904D02*
X174329761Y-100329523D01*
X174377380Y-100472380D01*
X174377380Y-100567619D01*
X174329761Y-100710476D01*
X174234523Y-100805714D01*
X174139285Y-100853333D01*
X173948809Y-100900952D01*
X173805952Y-100900952D01*
X173615476Y-100853333D01*
X173520238Y-100805714D01*
X173425000Y-100710476D01*
X173377380Y-100567619D01*
X173377380Y-100472380D01*
X173425000Y-100329523D01*
X173472619Y-100281904D01*
X174377380Y-99853333D02*
X173377380Y-99853333D01*
X174377380Y-99281904D02*
X173805952Y-99710476D01*
X173377380Y-99281904D02*
X173948809Y-99853333D01*
X173853571Y-98853333D02*
X173853571Y-98520000D01*
X174377380Y-98377142D02*
X174377380Y-98853333D01*
X173377380Y-98853333D01*
X173377380Y-98377142D01*
X174377380Y-97948571D02*
X173377380Y-97948571D01*
X174377380Y-97377142D01*
X173377380Y-97377142D01*
X174329761Y-96948571D02*
X174377380Y-96805714D01*
X174377380Y-96567619D01*
X174329761Y-96472380D01*
X174282142Y-96424761D01*
X174186904Y-96377142D01*
X174091666Y-96377142D01*
X173996428Y-96424761D01*
X173948809Y-96472380D01*
X173901190Y-96567619D01*
X173853571Y-96758095D01*
X173805952Y-96853333D01*
X173758333Y-96900952D01*
X173663095Y-96948571D01*
X173567857Y-96948571D01*
X173472619Y-96900952D01*
X173425000Y-96853333D01*
X173377380Y-96758095D01*
X173377380Y-96520000D01*
X173425000Y-96377142D01*
X173425000Y-94662857D02*
X173377380Y-94758095D01*
X173377380Y-94900952D01*
X173425000Y-95043809D01*
X173520238Y-95139047D01*
X173615476Y-95186666D01*
X173805952Y-95234285D01*
X173948809Y-95234285D01*
X174139285Y-95186666D01*
X174234523Y-95139047D01*
X174329761Y-95043809D01*
X174377380Y-94900952D01*
X174377380Y-94805714D01*
X174329761Y-94662857D01*
X174282142Y-94615238D01*
X173948809Y-94615238D01*
X173948809Y-94805714D01*
X174377380Y-93615238D02*
X173901190Y-93948571D01*
X174377380Y-94186666D02*
X173377380Y-94186666D01*
X173377380Y-93805714D01*
X173425000Y-93710476D01*
X173472619Y-93662857D01*
X173567857Y-93615238D01*
X173710714Y-93615238D01*
X173805952Y-93662857D01*
X173853571Y-93710476D01*
X173901190Y-93805714D01*
X173901190Y-94186666D01*
X173377380Y-92996190D02*
X173377380Y-92805714D01*
X173425000Y-92710476D01*
X173520238Y-92615238D01*
X173710714Y-92567619D01*
X174044047Y-92567619D01*
X174234523Y-92615238D01*
X174329761Y-92710476D01*
X174377380Y-92805714D01*
X174377380Y-92996190D01*
X174329761Y-93091428D01*
X174234523Y-93186666D01*
X174044047Y-93234285D01*
X173710714Y-93234285D01*
X173520238Y-93186666D01*
X173425000Y-93091428D01*
X173377380Y-92996190D01*
X173377380Y-92139047D02*
X174186904Y-92139047D01*
X174282142Y-92091428D01*
X174329761Y-92043809D01*
X174377380Y-91948571D01*
X174377380Y-91758095D01*
X174329761Y-91662857D01*
X174282142Y-91615238D01*
X174186904Y-91567619D01*
X173377380Y-91567619D01*
X174377380Y-91091428D02*
X173377380Y-91091428D01*
X173377380Y-90710476D01*
X173425000Y-90615238D01*
X173472619Y-90567619D01*
X173567857Y-90520000D01*
X173710714Y-90520000D01*
X173805952Y-90567619D01*
X173853571Y-90615238D01*
X173901190Y-90710476D01*
X173901190Y-91091428D01*
X58347619Y-89630952D02*
X59347619Y-89630952D01*
X59347619Y-90011904D01*
X59300000Y-90107142D01*
X59252380Y-90154761D01*
X59157142Y-90202380D01*
X59014285Y-90202380D01*
X58919047Y-90154761D01*
X58871428Y-90107142D01*
X58823809Y-90011904D01*
X58823809Y-89630952D01*
X59347619Y-90821428D02*
X59347619Y-91011904D01*
X59300000Y-91107142D01*
X59204761Y-91202380D01*
X59014285Y-91250000D01*
X58680952Y-91250000D01*
X58490476Y-91202380D01*
X58395238Y-91107142D01*
X58347619Y-91011904D01*
X58347619Y-90821428D01*
X58395238Y-90726190D01*
X58490476Y-90630952D01*
X58680952Y-90583333D01*
X59014285Y-90583333D01*
X59204761Y-90630952D01*
X59300000Y-90726190D01*
X59347619Y-90821428D01*
X59347619Y-91535714D02*
X59347619Y-92107142D01*
X58347619Y-91821428D02*
X59347619Y-91821428D01*
X58871428Y-92440476D02*
X58871428Y-92773809D01*
X58347619Y-92916666D02*
X58347619Y-92440476D01*
X59347619Y-92440476D01*
X59347619Y-92916666D01*
X58347619Y-93345238D02*
X59347619Y-93345238D01*
X58347619Y-93916666D01*
X59347619Y-93916666D01*
X59347619Y-94250000D02*
X59347619Y-94821428D01*
X58347619Y-94535714D02*
X59347619Y-94535714D01*
X58347619Y-95154761D02*
X59347619Y-95154761D01*
X59347619Y-95821428D02*
X59347619Y-96011904D01*
X59300000Y-96107142D01*
X59204761Y-96202380D01*
X59014285Y-96250000D01*
X58680952Y-96250000D01*
X58490476Y-96202380D01*
X58395238Y-96107142D01*
X58347619Y-96011904D01*
X58347619Y-95821428D01*
X58395238Y-95726190D01*
X58490476Y-95630952D01*
X58680952Y-95583333D01*
X59014285Y-95583333D01*
X59204761Y-95630952D01*
X59300000Y-95726190D01*
X59347619Y-95821428D01*
X58395238Y-96630952D02*
X58347619Y-96773809D01*
X58347619Y-97011904D01*
X58395238Y-97107142D01*
X58442857Y-97154761D01*
X58538095Y-97202380D01*
X58633333Y-97202380D01*
X58728571Y-97154761D01*
X58776190Y-97107142D01*
X58823809Y-97011904D01*
X58871428Y-96821428D01*
X58919047Y-96726190D01*
X58966666Y-96678571D01*
X59061904Y-96630952D01*
X59157142Y-96630952D01*
X59252380Y-96678571D01*
X59300000Y-96726190D01*
X59347619Y-96821428D01*
X59347619Y-97059523D01*
X59300000Y-97202380D01*
X58823809Y-97821428D02*
X58347619Y-97821428D01*
X59347619Y-97488095D02*
X58823809Y-97821428D01*
X59347619Y-98154761D01*
X58347619Y-98488095D02*
X59347619Y-98488095D01*
X58347619Y-99059523D01*
X59347619Y-99059523D01*
X59347619Y-99392857D02*
X59347619Y-99964285D01*
X58347619Y-99678571D02*
X59347619Y-99678571D01*
X58347619Y-100297619D02*
X59347619Y-100297619D01*
X58871428Y-100297619D02*
X58871428Y-100869047D01*
X58347619Y-100869047D02*
X59347619Y-100869047D01*
X56697619Y-91869047D02*
X57173809Y-91535714D01*
X56697619Y-91297619D02*
X57697619Y-91297619D01*
X57697619Y-91678571D01*
X57650000Y-91773809D01*
X57602380Y-91821428D01*
X57507142Y-91869047D01*
X57364285Y-91869047D01*
X57269047Y-91821428D01*
X57221428Y-91773809D01*
X57173809Y-91678571D01*
X57173809Y-91297619D01*
X57221428Y-92297619D02*
X57221428Y-92630952D01*
X56697619Y-92773809D02*
X56697619Y-92297619D01*
X57697619Y-92297619D01*
X57697619Y-92773809D01*
X57697619Y-93059523D02*
X56697619Y-93392857D01*
X57697619Y-93726190D01*
X56697619Y-94059523D02*
X57697619Y-94059523D01*
X56745238Y-94488095D02*
X56697619Y-94630952D01*
X56697619Y-94869047D01*
X56745238Y-94964285D01*
X56792857Y-95011904D01*
X56888095Y-95059523D01*
X56983333Y-95059523D01*
X57078571Y-95011904D01*
X57126190Y-94964285D01*
X57173809Y-94869047D01*
X57221428Y-94678571D01*
X57269047Y-94583333D01*
X57316666Y-94535714D01*
X57411904Y-94488095D01*
X57507142Y-94488095D01*
X57602380Y-94535714D01*
X57650000Y-94583333D01*
X57697619Y-94678571D01*
X57697619Y-94916666D01*
X57650000Y-95059523D01*
X56697619Y-95488095D02*
X57697619Y-95488095D01*
X57697619Y-96154761D02*
X57697619Y-96345238D01*
X57650000Y-96440476D01*
X57554761Y-96535714D01*
X57364285Y-96583333D01*
X57030952Y-96583333D01*
X56840476Y-96535714D01*
X56745238Y-96440476D01*
X56697619Y-96345238D01*
X56697619Y-96154761D01*
X56745238Y-96059523D01*
X56840476Y-95964285D01*
X57030952Y-95916666D01*
X57364285Y-95916666D01*
X57554761Y-95964285D01*
X57650000Y-96059523D01*
X57697619Y-96154761D01*
X56697619Y-97011904D02*
X57697619Y-97011904D01*
X56697619Y-97583333D01*
X57697619Y-97583333D01*
X56983333Y-98773809D02*
X56983333Y-99250000D01*
X56697619Y-98678571D02*
X57697619Y-99011904D01*
X56697619Y-99345238D01*
X55047619Y-91773809D02*
X56047619Y-91773809D01*
X55333333Y-92107142D01*
X56047619Y-92440476D01*
X55047619Y-92440476D01*
X55333333Y-92869047D02*
X55333333Y-93345238D01*
X55047619Y-92773809D02*
X56047619Y-93107142D01*
X55047619Y-93440476D01*
X55523809Y-93964285D02*
X55047619Y-93964285D01*
X56047619Y-93630952D02*
X55523809Y-93964285D01*
X56047619Y-94297619D01*
X55952380Y-95345238D02*
X56000000Y-95392857D01*
X56047619Y-95488095D01*
X56047619Y-95726190D01*
X56000000Y-95821428D01*
X55952380Y-95869047D01*
X55857142Y-95916666D01*
X55761904Y-95916666D01*
X55619047Y-95869047D01*
X55047619Y-95297619D01*
X55047619Y-95916666D01*
X56047619Y-96535714D02*
X56047619Y-96630952D01*
X56000000Y-96726190D01*
X55952380Y-96773809D01*
X55857142Y-96821428D01*
X55666666Y-96869047D01*
X55428571Y-96869047D01*
X55238095Y-96821428D01*
X55142857Y-96773809D01*
X55095238Y-96726190D01*
X55047619Y-96630952D01*
X55047619Y-96535714D01*
X55095238Y-96440476D01*
X55142857Y-96392857D01*
X55238095Y-96345238D01*
X55428571Y-96297619D01*
X55666666Y-96297619D01*
X55857142Y-96345238D01*
X55952380Y-96392857D01*
X56000000Y-96440476D01*
X56047619Y-96535714D01*
X55952380Y-97250000D02*
X56000000Y-97297619D01*
X56047619Y-97392857D01*
X56047619Y-97630952D01*
X56000000Y-97726190D01*
X55952380Y-97773809D01*
X55857142Y-97821428D01*
X55761904Y-97821428D01*
X55619047Y-97773809D01*
X55047619Y-97202380D01*
X55047619Y-97821428D01*
X55047619Y-98773809D02*
X55047619Y-98202380D01*
X55047619Y-98488095D02*
X56047619Y-98488095D01*
X55904761Y-98392857D01*
X55809523Y-98297619D01*
X55761904Y-98202380D01*
D10*
X158508095Y-116537619D02*
X158266190Y-116416666D01*
X158145238Y-116295714D01*
X158024285Y-116053809D01*
X158024285Y-115932857D01*
X158145238Y-115690952D01*
X158266190Y-115570000D01*
X158508095Y-115449047D01*
X158991904Y-115449047D01*
X159233809Y-115570000D01*
X159354761Y-115690952D01*
X159475714Y-115932857D01*
X159475714Y-116053809D01*
X159354761Y-116295714D01*
X159233809Y-116416666D01*
X158991904Y-116537619D01*
X158508095Y-116537619D01*
X158266190Y-116658571D01*
X158145238Y-116779523D01*
X158024285Y-117021428D01*
X158024285Y-117505238D01*
X158145238Y-117747142D01*
X158266190Y-117868095D01*
X158508095Y-117989047D01*
X158991904Y-117989047D01*
X159233809Y-117868095D01*
X159354761Y-117747142D01*
X159475714Y-117505238D01*
X159475714Y-117021428D01*
X159354761Y-116779523D01*
X159233809Y-116658571D01*
X158991904Y-116537619D01*
X145203333Y-115449047D02*
X146896666Y-115449047D01*
X145808095Y-117989047D01*
X121254761Y-115449047D02*
X120045238Y-115449047D01*
X119924285Y-116658571D01*
X120045238Y-116537619D01*
X120287142Y-116416666D01*
X120891904Y-116416666D01*
X121133809Y-116537619D01*
X121254761Y-116658571D01*
X121375714Y-116900476D01*
X121375714Y-117505238D01*
X121254761Y-117747142D01*
X121133809Y-117868095D01*
X120891904Y-117989047D01*
X120287142Y-117989047D01*
X120045238Y-117868095D01*
X119924285Y-117747142D01*
X81824285Y-115690952D02*
X81945238Y-115570000D01*
X82187142Y-115449047D01*
X82791904Y-115449047D01*
X83033809Y-115570000D01*
X83154761Y-115690952D01*
X83275714Y-115932857D01*
X83275714Y-116174761D01*
X83154761Y-116537619D01*
X81703333Y-117989047D01*
X83275714Y-117989047D01*
X94403333Y-115449047D02*
X95975714Y-115449047D01*
X95129047Y-116416666D01*
X95491904Y-116416666D01*
X95733809Y-116537619D01*
X95854761Y-116658571D01*
X95975714Y-116900476D01*
X95975714Y-117505238D01*
X95854761Y-117747142D01*
X95733809Y-117868095D01*
X95491904Y-117989047D01*
X94766190Y-117989047D01*
X94524285Y-117868095D01*
X94403333Y-117747142D01*
X70575714Y-117989047D02*
X69124285Y-117989047D01*
X69850000Y-117989047D02*
X69850000Y-115449047D01*
X69608095Y-115811904D01*
X69366190Y-116053809D01*
X69124285Y-116174761D01*
D12*
X50800000Y-127000000D02*
X177800000Y-127000000D01*
X50800000Y-63500000D02*
X177800000Y-63500000D01*
X50800000Y-127000000D02*
X50800000Y-63500000D01*
X177800000Y-127000000D02*
X177800000Y-63500000D01*
D13*
X123070000Y-65640000D02*
X130930000Y-65640000D01*
D14*
X121600000Y-64390000D02*
G75*
G03*
X121600000Y-64390000I-100000J0D01*
G01*
D13*
X130930000Y-79140000D02*
X123070000Y-79140000D01*
X133250000Y-67960000D02*
X133250000Y-76820000D01*
X120750000Y-76820000D02*
X120750000Y-67960000D01*
D15*
X158750000Y-101620000D02*
X160700000Y-101620000D01*
X158750000Y-101620000D02*
X156800000Y-101620000D01*
X158750000Y-96500000D02*
X160700000Y-96500000D01*
X158750000Y-96500000D02*
X155300000Y-96500000D01*
X146050000Y-101620000D02*
X148000000Y-101620000D01*
X146050000Y-101620000D02*
X144100000Y-101620000D01*
X146050000Y-96500000D02*
X148000000Y-96500000D01*
X146050000Y-96500000D02*
X142600000Y-96500000D01*
X133350000Y-101620000D02*
X135300000Y-101620000D01*
X133350000Y-101620000D02*
X131400000Y-101620000D01*
X133350000Y-96500000D02*
X135300000Y-96500000D01*
X133350000Y-96500000D02*
X129900000Y-96500000D01*
X120650000Y-101620000D02*
X122600000Y-101620000D01*
X120650000Y-101620000D02*
X118700000Y-101620000D01*
X120650000Y-96500000D02*
X122600000Y-96500000D01*
X120650000Y-96500000D02*
X117200000Y-96500000D01*
X107950000Y-101620000D02*
X109900000Y-101620000D01*
X107950000Y-101620000D02*
X106000000Y-101620000D01*
X107950000Y-96500000D02*
X109900000Y-96500000D01*
X107950000Y-96500000D02*
X104500000Y-96500000D01*
X95250000Y-101620000D02*
X97200000Y-101620000D01*
X95250000Y-101620000D02*
X93300000Y-101620000D01*
X95250000Y-96500000D02*
X97200000Y-96500000D01*
X95250000Y-96500000D02*
X91800000Y-96500000D01*
X82550000Y-101620000D02*
X84500000Y-101620000D01*
X82550000Y-101620000D02*
X80600000Y-101620000D01*
X82550000Y-96500000D02*
X84500000Y-96500000D01*
X82550000Y-96500000D02*
X79100000Y-96500000D01*
X69850000Y-101620000D02*
X71800000Y-101620000D01*
X69850000Y-101620000D02*
X67900000Y-101620000D01*
X69850000Y-96500000D02*
X71800000Y-96500000D01*
X69850000Y-96500000D02*
X66400000Y-96500000D01*
X111770000Y-121725000D02*
X111770000Y-111955000D01*
X116840000Y-121725000D02*
X116840000Y-111955000D01*
X111770000Y-121725000D02*
X116840000Y-121725000D01*
X111770000Y-111955000D02*
X116840000Y-111955000D01*
X114235000Y-123245000D02*
X114235000Y-121726000D01*
X116665000Y-123245000D02*
X116665000Y-121726000D01*
X114235000Y-123245000D02*
X116665000Y-123245000D01*
X114235000Y-121726000D02*
X116665000Y-121726000D01*
X115450000Y-123245000D02*
X115450000Y-122486000D01*
X60970000Y-121725000D02*
X60970000Y-111955000D01*
X66040000Y-121725000D02*
X66040000Y-111955000D01*
X60970000Y-121725000D02*
X66040000Y-121725000D01*
X60970000Y-111955000D02*
X66040000Y-111955000D01*
X63435000Y-123245000D02*
X63435000Y-121726000D01*
X65865000Y-123245000D02*
X65865000Y-121726000D01*
X63435000Y-123245000D02*
X65865000Y-123245000D01*
X63435000Y-121726000D02*
X65865000Y-121726000D01*
X64650000Y-123245000D02*
X64650000Y-122486000D01*
X157170000Y-107440000D02*
X158100000Y-107440000D01*
X160330000Y-107440000D02*
X159400000Y-107440000D01*
X160330000Y-107440000D02*
X160330000Y-104280000D01*
X157170000Y-107440000D02*
X157170000Y-105980000D01*
X144470000Y-107440000D02*
X145400000Y-107440000D01*
X147630000Y-107440000D02*
X146700000Y-107440000D01*
X147630000Y-107440000D02*
X147630000Y-104280000D01*
X144470000Y-107440000D02*
X144470000Y-105980000D01*
X131770000Y-107440000D02*
X132700000Y-107440000D01*
X134930000Y-107440000D02*
X134000000Y-107440000D01*
X134930000Y-107440000D02*
X134930000Y-104280000D01*
X131770000Y-107440000D02*
X131770000Y-105980000D01*
X119070000Y-107440000D02*
X120000000Y-107440000D01*
X122230000Y-107440000D02*
X121300000Y-107440000D01*
X122230000Y-107440000D02*
X122230000Y-104280000D01*
X119070000Y-107440000D02*
X119070000Y-105980000D01*
X106370000Y-107440000D02*
X107300000Y-107440000D01*
X109530000Y-107440000D02*
X108600000Y-107440000D01*
X109530000Y-107440000D02*
X109530000Y-104280000D01*
X106370000Y-107440000D02*
X106370000Y-105980000D01*
X93670000Y-107440000D02*
X94600000Y-107440000D01*
X96830000Y-107440000D02*
X95900000Y-107440000D01*
X96830000Y-107440000D02*
X96830000Y-104280000D01*
X93670000Y-107440000D02*
X93670000Y-105980000D01*
X80970000Y-107440000D02*
X81900000Y-107440000D01*
X84130000Y-107440000D02*
X83200000Y-107440000D01*
X84130000Y-107440000D02*
X84130000Y-104280000D01*
X80970000Y-107440000D02*
X80970000Y-105980000D01*
X68270000Y-107440000D02*
X69200000Y-107440000D01*
X71430000Y-107440000D02*
X70500000Y-107440000D01*
X71430000Y-107440000D02*
X71430000Y-104280000D01*
X68270000Y-107440000D02*
X68270000Y-105980000D01*
X159485436Y-91800000D02*
X160939564Y-91800000D01*
X159485436Y-93620000D02*
X160939564Y-93620000D01*
X146785436Y-91800000D02*
X148239564Y-91800000D01*
X146785436Y-93620000D02*
X148239564Y-93620000D01*
X134085436Y-91800000D02*
X135539564Y-91800000D01*
X134085436Y-93620000D02*
X135539564Y-93620000D01*
X121385436Y-91800000D02*
X122839564Y-91800000D01*
X121385436Y-93620000D02*
X122839564Y-93620000D01*
X108685436Y-91800000D02*
X110139564Y-91800000D01*
X108685436Y-93620000D02*
X110139564Y-93620000D01*
X95985436Y-91800000D02*
X97439564Y-91800000D01*
X95985436Y-93620000D02*
X97439564Y-93620000D01*
X83285436Y-91800000D02*
X84739564Y-91800000D01*
X83285436Y-93620000D02*
X84739564Y-93620000D01*
X70585436Y-91800000D02*
X72039564Y-91800000D01*
X70585436Y-93620000D02*
X72039564Y-93620000D01*
X124470000Y-121725000D02*
X124470000Y-111955000D01*
X129540000Y-121725000D02*
X129540000Y-111955000D01*
X124470000Y-121725000D02*
X129540000Y-121725000D01*
X124470000Y-111955000D02*
X129540000Y-111955000D01*
X126935000Y-123245000D02*
X126935000Y-121726000D01*
X129365000Y-123245000D02*
X129365000Y-121726000D01*
X126935000Y-123245000D02*
X129365000Y-123245000D01*
X126935000Y-121726000D02*
X129365000Y-121726000D01*
X128150000Y-123245000D02*
X128150000Y-122486000D01*
X86370000Y-121725000D02*
X86370000Y-111955000D01*
X91440000Y-121725000D02*
X91440000Y-111955000D01*
X86370000Y-121725000D02*
X91440000Y-121725000D01*
X86370000Y-111955000D02*
X91440000Y-111955000D01*
X88835000Y-123245000D02*
X88835000Y-121726000D01*
X91265000Y-123245000D02*
X91265000Y-121726000D01*
X88835000Y-123245000D02*
X91265000Y-123245000D01*
X88835000Y-121726000D02*
X91265000Y-121726000D01*
X90050000Y-123245000D02*
X90050000Y-122486000D01*
X73670000Y-121725000D02*
X73670000Y-111955000D01*
X78740000Y-121725000D02*
X78740000Y-111955000D01*
X73670000Y-121725000D02*
X78740000Y-121725000D01*
X73670000Y-111955000D02*
X78740000Y-111955000D01*
X76135000Y-123245000D02*
X76135000Y-121726000D01*
X78565000Y-123245000D02*
X78565000Y-121726000D01*
X76135000Y-123245000D02*
X78565000Y-123245000D01*
X76135000Y-121726000D02*
X78565000Y-121726000D01*
X77350000Y-123245000D02*
X77350000Y-122486000D01*
X99070000Y-121725000D02*
X99070000Y-111955000D01*
X104140000Y-121725000D02*
X104140000Y-111955000D01*
X99070000Y-121725000D02*
X104140000Y-121725000D01*
X99070000Y-111955000D02*
X104140000Y-111955000D01*
X101535000Y-123245000D02*
X101535000Y-121726000D01*
X103965000Y-123245000D02*
X103965000Y-121726000D01*
X101535000Y-123245000D02*
X103965000Y-123245000D01*
X101535000Y-121726000D02*
X103965000Y-121726000D01*
X102750000Y-123245000D02*
X102750000Y-122486000D01*
X149870000Y-121725000D02*
X149870000Y-111955000D01*
X154940000Y-121725000D02*
X154940000Y-111955000D01*
X149870000Y-121725000D02*
X154940000Y-121725000D01*
X149870000Y-111955000D02*
X154940000Y-111955000D01*
X152335000Y-123245000D02*
X152335000Y-121726000D01*
X154765000Y-123245000D02*
X154765000Y-121726000D01*
X152335000Y-123245000D02*
X154765000Y-123245000D01*
X152335000Y-121726000D02*
X154765000Y-121726000D01*
X153550000Y-123245000D02*
X153550000Y-122486000D01*
X137170000Y-121725000D02*
X137170000Y-111955000D01*
X142240000Y-121725000D02*
X142240000Y-111955000D01*
X137170000Y-121725000D02*
X142240000Y-121725000D01*
X137170000Y-111955000D02*
X142240000Y-111955000D01*
X139635000Y-123245000D02*
X139635000Y-121726000D01*
X142065000Y-123245000D02*
X142065000Y-121726000D01*
X139635000Y-123245000D02*
X142065000Y-123245000D01*
X139635000Y-121726000D02*
X142065000Y-121726000D01*
X140850000Y-123245000D02*
X140850000Y-122486000D01*
X157952064Y-86000000D02*
X156747936Y-86000000D01*
X157952064Y-84180000D02*
X156747936Y-84180000D01*
X145252064Y-86000000D02*
X144047936Y-86000000D01*
X145252064Y-84180000D02*
X144047936Y-84180000D01*
X132552064Y-86000000D02*
X131347936Y-86000000D01*
X132552064Y-84180000D02*
X131347936Y-84180000D01*
X119852064Y-86000000D02*
X118647936Y-86000000D01*
X119852064Y-84180000D02*
X118647936Y-84180000D01*
X107152064Y-86000000D02*
X105947936Y-86000000D01*
X107152064Y-84180000D02*
X105947936Y-84180000D01*
X94452064Y-86000000D02*
X93247936Y-86000000D01*
X94452064Y-84180000D02*
X93247936Y-84180000D01*
X81752064Y-86000000D02*
X80547936Y-86000000D01*
X81752064Y-84180000D02*
X80547936Y-84180000D01*
X69052064Y-86000000D02*
X67847936Y-86000000D01*
X69052064Y-84180000D02*
X67847936Y-84180000D01*
X157952064Y-91080000D02*
X156747936Y-91080000D01*
X157952064Y-89260000D02*
X156747936Y-89260000D01*
X145252064Y-91080000D02*
X144047936Y-91080000D01*
X145252064Y-89260000D02*
X144047936Y-89260000D01*
X132552064Y-91080000D02*
X131347936Y-91080000D01*
X132552064Y-89260000D02*
X131347936Y-89260000D01*
X119852064Y-91080000D02*
X118647936Y-91080000D01*
X119852064Y-89260000D02*
X118647936Y-89260000D01*
X107152064Y-91080000D02*
X105947936Y-91080000D01*
X107152064Y-89260000D02*
X105947936Y-89260000D01*
X94452064Y-91080000D02*
X93247936Y-91080000D01*
X94452064Y-89260000D02*
X93247936Y-89260000D01*
X81752064Y-91080000D02*
X80547936Y-91080000D01*
X81752064Y-89260000D02*
X80547936Y-89260000D01*
X69052064Y-91080000D02*
X67847936Y-91080000D01*
X69052064Y-89260000D02*
X67847936Y-89260000D01*
X160752064Y-88540000D02*
X159547936Y-88540000D01*
X160752064Y-86720000D02*
X159547936Y-86720000D01*
X148052064Y-88540000D02*
X146847936Y-88540000D01*
X148052064Y-86720000D02*
X146847936Y-86720000D01*
X135352064Y-88540000D02*
X134147936Y-88540000D01*
X135352064Y-86720000D02*
X134147936Y-86720000D01*
X122652064Y-88540000D02*
X121447936Y-88540000D01*
X122652064Y-86720000D02*
X121447936Y-86720000D01*
X109952064Y-88540000D02*
X108747936Y-88540000D01*
X109952064Y-86720000D02*
X108747936Y-86720000D01*
X97252064Y-88540000D02*
X96047936Y-88540000D01*
X97252064Y-86720000D02*
X96047936Y-86720000D01*
X84552064Y-88540000D02*
X83347936Y-88540000D01*
X84552064Y-86720000D02*
X83347936Y-86720000D01*
X71852064Y-88540000D02*
X70647936Y-88540000D01*
X71852064Y-86720000D02*
X70647936Y-86720000D01*
X92650000Y-73490000D02*
X93700000Y-73490000D01*
X93700000Y-72440000D02*
X93700000Y-73490000D01*
X84300000Y-67390000D02*
X84300000Y-58590000D01*
X84300000Y-58590000D02*
X93500000Y-58590000D01*
X87000000Y-73290000D02*
X84300000Y-73290000D01*
X84300000Y-73290000D02*
X84300000Y-71390000D01*
X93500000Y-58590000D02*
X93500000Y-73290000D01*
X93500000Y-73290000D02*
X90900000Y-73290000D01*
X79950000Y-73490000D02*
X81000000Y-73490000D01*
X81000000Y-72440000D02*
X81000000Y-73490000D01*
X71600000Y-67390000D02*
X71600000Y-58590000D01*
X71600000Y-58590000D02*
X80800000Y-58590000D01*
X74300000Y-73290000D02*
X71600000Y-73290000D01*
X71600000Y-73290000D02*
X71600000Y-71390000D01*
X80800000Y-58590000D02*
X80800000Y-73290000D01*
X80800000Y-73290000D02*
X78200000Y-73290000D01*
X166850000Y-67945000D02*
G75*
G03*
X166850000Y-67945000I-1750000J0D01*
G01*
X160500000Y-67945000D02*
G75*
G03*
X160500000Y-67945000I-1750000J0D01*
G01*
X145860000Y-69830000D02*
G75*
G03*
X145860000Y-69830000I-3620000J0D01*
G01*
X140205000Y-73704723D02*
X140205000Y-73004723D01*
X139855000Y-73354723D02*
X140555000Y-73354723D01*
X114110000Y-69870000D02*
G75*
G03*
X114110000Y-69870000I-3620000J0D01*
G01*
X108455000Y-73744723D02*
X108455000Y-73044723D01*
X108105000Y-73394723D02*
X108805000Y-73394723D01*
X103950000Y-69870000D02*
G75*
G03*
X103950000Y-69870000I-3620000J0D01*
G01*
X98295000Y-73744723D02*
X98295000Y-73044723D01*
X97945000Y-73394723D02*
X98645000Y-73394723D01*
D16*
X122913095Y-62707380D02*
X122913095Y-63516904D01*
X122960714Y-63612142D01*
X123008333Y-63659761D01*
X123103571Y-63707380D01*
X123294047Y-63707380D01*
X123389285Y-63659761D01*
X123436904Y-63612142D01*
X123484523Y-63516904D01*
X123484523Y-62707380D01*
X124151190Y-62707380D02*
X124246428Y-62707380D01*
X124341666Y-62755000D01*
X124389285Y-62802619D01*
X124436904Y-62897857D01*
X124484523Y-63088333D01*
X124484523Y-63326428D01*
X124436904Y-63516904D01*
X124389285Y-63612142D01*
X124341666Y-63659761D01*
X124246428Y-63707380D01*
X124151190Y-63707380D01*
X124055952Y-63659761D01*
X124008333Y-63612142D01*
X123960714Y-63516904D01*
X123913095Y-63326428D01*
X123913095Y-63088333D01*
X123960714Y-62897857D01*
X124008333Y-62802619D01*
X124055952Y-62755000D01*
X124151190Y-62707380D01*
D11*
X157988095Y-95112380D02*
X157988095Y-95921904D01*
X158035714Y-96017142D01*
X158083333Y-96064761D01*
X158178571Y-96112380D01*
X158369047Y-96112380D01*
X158464285Y-96064761D01*
X158511904Y-96017142D01*
X158559523Y-95921904D01*
X158559523Y-95112380D01*
X159178571Y-95540952D02*
X159083333Y-95493333D01*
X159035714Y-95445714D01*
X158988095Y-95350476D01*
X158988095Y-95302857D01*
X159035714Y-95207619D01*
X159083333Y-95160000D01*
X159178571Y-95112380D01*
X159369047Y-95112380D01*
X159464285Y-95160000D01*
X159511904Y-95207619D01*
X159559523Y-95302857D01*
X159559523Y-95350476D01*
X159511904Y-95445714D01*
X159464285Y-95493333D01*
X159369047Y-95540952D01*
X159178571Y-95540952D01*
X159083333Y-95588571D01*
X159035714Y-95636190D01*
X158988095Y-95731428D01*
X158988095Y-95921904D01*
X159035714Y-96017142D01*
X159083333Y-96064761D01*
X159178571Y-96112380D01*
X159369047Y-96112380D01*
X159464285Y-96064761D01*
X159511904Y-96017142D01*
X159559523Y-95921904D01*
X159559523Y-95731428D01*
X159511904Y-95636190D01*
X159464285Y-95588571D01*
X159369047Y-95540952D01*
X145288095Y-95112380D02*
X145288095Y-95921904D01*
X145335714Y-96017142D01*
X145383333Y-96064761D01*
X145478571Y-96112380D01*
X145669047Y-96112380D01*
X145764285Y-96064761D01*
X145811904Y-96017142D01*
X145859523Y-95921904D01*
X145859523Y-95112380D01*
X146240476Y-95112380D02*
X146907142Y-95112380D01*
X146478571Y-96112380D01*
X132588095Y-95112380D02*
X132588095Y-95921904D01*
X132635714Y-96017142D01*
X132683333Y-96064761D01*
X132778571Y-96112380D01*
X132969047Y-96112380D01*
X133064285Y-96064761D01*
X133111904Y-96017142D01*
X133159523Y-95921904D01*
X133159523Y-95112380D01*
X134064285Y-95112380D02*
X133873809Y-95112380D01*
X133778571Y-95160000D01*
X133730952Y-95207619D01*
X133635714Y-95350476D01*
X133588095Y-95540952D01*
X133588095Y-95921904D01*
X133635714Y-96017142D01*
X133683333Y-96064761D01*
X133778571Y-96112380D01*
X133969047Y-96112380D01*
X134064285Y-96064761D01*
X134111904Y-96017142D01*
X134159523Y-95921904D01*
X134159523Y-95683809D01*
X134111904Y-95588571D01*
X134064285Y-95540952D01*
X133969047Y-95493333D01*
X133778571Y-95493333D01*
X133683333Y-95540952D01*
X133635714Y-95588571D01*
X133588095Y-95683809D01*
X119888095Y-95112380D02*
X119888095Y-95921904D01*
X119935714Y-96017142D01*
X119983333Y-96064761D01*
X120078571Y-96112380D01*
X120269047Y-96112380D01*
X120364285Y-96064761D01*
X120411904Y-96017142D01*
X120459523Y-95921904D01*
X120459523Y-95112380D01*
X121411904Y-95112380D02*
X120935714Y-95112380D01*
X120888095Y-95588571D01*
X120935714Y-95540952D01*
X121030952Y-95493333D01*
X121269047Y-95493333D01*
X121364285Y-95540952D01*
X121411904Y-95588571D01*
X121459523Y-95683809D01*
X121459523Y-95921904D01*
X121411904Y-96017142D01*
X121364285Y-96064761D01*
X121269047Y-96112380D01*
X121030952Y-96112380D01*
X120935714Y-96064761D01*
X120888095Y-96017142D01*
X107188095Y-95112380D02*
X107188095Y-95921904D01*
X107235714Y-96017142D01*
X107283333Y-96064761D01*
X107378571Y-96112380D01*
X107569047Y-96112380D01*
X107664285Y-96064761D01*
X107711904Y-96017142D01*
X107759523Y-95921904D01*
X107759523Y-95112380D01*
X108664285Y-95445714D02*
X108664285Y-96112380D01*
X108426190Y-95064761D02*
X108188095Y-95779047D01*
X108807142Y-95779047D01*
X94488095Y-95112380D02*
X94488095Y-95921904D01*
X94535714Y-96017142D01*
X94583333Y-96064761D01*
X94678571Y-96112380D01*
X94869047Y-96112380D01*
X94964285Y-96064761D01*
X95011904Y-96017142D01*
X95059523Y-95921904D01*
X95059523Y-95112380D01*
X95440476Y-95112380D02*
X96059523Y-95112380D01*
X95726190Y-95493333D01*
X95869047Y-95493333D01*
X95964285Y-95540952D01*
X96011904Y-95588571D01*
X96059523Y-95683809D01*
X96059523Y-95921904D01*
X96011904Y-96017142D01*
X95964285Y-96064761D01*
X95869047Y-96112380D01*
X95583333Y-96112380D01*
X95488095Y-96064761D01*
X95440476Y-96017142D01*
X81788095Y-95112380D02*
X81788095Y-95921904D01*
X81835714Y-96017142D01*
X81883333Y-96064761D01*
X81978571Y-96112380D01*
X82169047Y-96112380D01*
X82264285Y-96064761D01*
X82311904Y-96017142D01*
X82359523Y-95921904D01*
X82359523Y-95112380D01*
X82788095Y-95207619D02*
X82835714Y-95160000D01*
X82930952Y-95112380D01*
X83169047Y-95112380D01*
X83264285Y-95160000D01*
X83311904Y-95207619D01*
X83359523Y-95302857D01*
X83359523Y-95398095D01*
X83311904Y-95540952D01*
X82740476Y-96112380D01*
X83359523Y-96112380D01*
X69088095Y-95112380D02*
X69088095Y-95921904D01*
X69135714Y-96017142D01*
X69183333Y-96064761D01*
X69278571Y-96112380D01*
X69469047Y-96112380D01*
X69564285Y-96064761D01*
X69611904Y-96017142D01*
X69659523Y-95921904D01*
X69659523Y-95112380D01*
X70659523Y-96112380D02*
X70088095Y-96112380D01*
X70373809Y-96112380D02*
X70373809Y-95112380D01*
X70278571Y-95255238D01*
X70183333Y-95350476D01*
X70088095Y-95398095D01*
X116244761Y-111577380D02*
X115911428Y-111101190D01*
X115673333Y-111577380D02*
X115673333Y-110577380D01*
X116054285Y-110577380D01*
X116149523Y-110625000D01*
X116197142Y-110672619D01*
X116244761Y-110767857D01*
X116244761Y-110910714D01*
X116197142Y-111005952D01*
X116149523Y-111053571D01*
X116054285Y-111101190D01*
X115673333Y-111101190D01*
X116530476Y-110577380D02*
X116863809Y-111577380D01*
X117197142Y-110577380D01*
X118006666Y-110577380D02*
X117530476Y-110577380D01*
X117482857Y-111053571D01*
X117530476Y-111005952D01*
X117625714Y-110958333D01*
X117863809Y-110958333D01*
X117959047Y-111005952D01*
X118006666Y-111053571D01*
X118054285Y-111148809D01*
X118054285Y-111386904D01*
X118006666Y-111482142D01*
X117959047Y-111529761D01*
X117863809Y-111577380D01*
X117625714Y-111577380D01*
X117530476Y-111529761D01*
X117482857Y-111482142D01*
X65444761Y-111577380D02*
X65111428Y-111101190D01*
X64873333Y-111577380D02*
X64873333Y-110577380D01*
X65254285Y-110577380D01*
X65349523Y-110625000D01*
X65397142Y-110672619D01*
X65444761Y-110767857D01*
X65444761Y-110910714D01*
X65397142Y-111005952D01*
X65349523Y-111053571D01*
X65254285Y-111101190D01*
X64873333Y-111101190D01*
X65730476Y-110577380D02*
X66063809Y-111577380D01*
X66397142Y-110577380D01*
X67254285Y-111577380D02*
X66682857Y-111577380D01*
X66968571Y-111577380D02*
X66968571Y-110577380D01*
X66873333Y-110720238D01*
X66778095Y-110815476D01*
X66682857Y-110863095D01*
X161797619Y-107227619D02*
X161750000Y-107322857D01*
X161654761Y-107418095D01*
X161511904Y-107560952D01*
X161464285Y-107656190D01*
X161464285Y-107751428D01*
X161702380Y-107703809D02*
X161654761Y-107799047D01*
X161559523Y-107894285D01*
X161369047Y-107941904D01*
X161035714Y-107941904D01*
X160845238Y-107894285D01*
X160750000Y-107799047D01*
X160702380Y-107703809D01*
X160702380Y-107513333D01*
X160750000Y-107418095D01*
X160845238Y-107322857D01*
X161035714Y-107275238D01*
X161369047Y-107275238D01*
X161559523Y-107322857D01*
X161654761Y-107418095D01*
X161702380Y-107513333D01*
X161702380Y-107703809D01*
X161178571Y-106846666D02*
X161178571Y-106513333D01*
X161702380Y-106370476D02*
X161702380Y-106846666D01*
X160702380Y-106846666D01*
X160702380Y-106370476D01*
X161130952Y-105799047D02*
X161083333Y-105894285D01*
X161035714Y-105941904D01*
X160940476Y-105989523D01*
X160892857Y-105989523D01*
X160797619Y-105941904D01*
X160750000Y-105894285D01*
X160702380Y-105799047D01*
X160702380Y-105608571D01*
X160750000Y-105513333D01*
X160797619Y-105465714D01*
X160892857Y-105418095D01*
X160940476Y-105418095D01*
X161035714Y-105465714D01*
X161083333Y-105513333D01*
X161130952Y-105608571D01*
X161130952Y-105799047D01*
X161178571Y-105894285D01*
X161226190Y-105941904D01*
X161321428Y-105989523D01*
X161511904Y-105989523D01*
X161607142Y-105941904D01*
X161654761Y-105894285D01*
X161702380Y-105799047D01*
X161702380Y-105608571D01*
X161654761Y-105513333D01*
X161607142Y-105465714D01*
X161511904Y-105418095D01*
X161321428Y-105418095D01*
X161226190Y-105465714D01*
X161178571Y-105513333D01*
X161130952Y-105608571D01*
X149097619Y-107227619D02*
X149050000Y-107322857D01*
X148954761Y-107418095D01*
X148811904Y-107560952D01*
X148764285Y-107656190D01*
X148764285Y-107751428D01*
X149002380Y-107703809D02*
X148954761Y-107799047D01*
X148859523Y-107894285D01*
X148669047Y-107941904D01*
X148335714Y-107941904D01*
X148145238Y-107894285D01*
X148050000Y-107799047D01*
X148002380Y-107703809D01*
X148002380Y-107513333D01*
X148050000Y-107418095D01*
X148145238Y-107322857D01*
X148335714Y-107275238D01*
X148669047Y-107275238D01*
X148859523Y-107322857D01*
X148954761Y-107418095D01*
X149002380Y-107513333D01*
X149002380Y-107703809D01*
X148478571Y-106846666D02*
X148478571Y-106513333D01*
X149002380Y-106370476D02*
X149002380Y-106846666D01*
X148002380Y-106846666D01*
X148002380Y-106370476D01*
X148002380Y-106037142D02*
X148002380Y-105370476D01*
X149002380Y-105799047D01*
X136397619Y-107227619D02*
X136350000Y-107322857D01*
X136254761Y-107418095D01*
X136111904Y-107560952D01*
X136064285Y-107656190D01*
X136064285Y-107751428D01*
X136302380Y-107703809D02*
X136254761Y-107799047D01*
X136159523Y-107894285D01*
X135969047Y-107941904D01*
X135635714Y-107941904D01*
X135445238Y-107894285D01*
X135350000Y-107799047D01*
X135302380Y-107703809D01*
X135302380Y-107513333D01*
X135350000Y-107418095D01*
X135445238Y-107322857D01*
X135635714Y-107275238D01*
X135969047Y-107275238D01*
X136159523Y-107322857D01*
X136254761Y-107418095D01*
X136302380Y-107513333D01*
X136302380Y-107703809D01*
X135778571Y-106846666D02*
X135778571Y-106513333D01*
X136302380Y-106370476D02*
X136302380Y-106846666D01*
X135302380Y-106846666D01*
X135302380Y-106370476D01*
X135302380Y-105513333D02*
X135302380Y-105703809D01*
X135350000Y-105799047D01*
X135397619Y-105846666D01*
X135540476Y-105941904D01*
X135730952Y-105989523D01*
X136111904Y-105989523D01*
X136207142Y-105941904D01*
X136254761Y-105894285D01*
X136302380Y-105799047D01*
X136302380Y-105608571D01*
X136254761Y-105513333D01*
X136207142Y-105465714D01*
X136111904Y-105418095D01*
X135873809Y-105418095D01*
X135778571Y-105465714D01*
X135730952Y-105513333D01*
X135683333Y-105608571D01*
X135683333Y-105799047D01*
X135730952Y-105894285D01*
X135778571Y-105941904D01*
X135873809Y-105989523D01*
X123697619Y-107227619D02*
X123650000Y-107322857D01*
X123554761Y-107418095D01*
X123411904Y-107560952D01*
X123364285Y-107656190D01*
X123364285Y-107751428D01*
X123602380Y-107703809D02*
X123554761Y-107799047D01*
X123459523Y-107894285D01*
X123269047Y-107941904D01*
X122935714Y-107941904D01*
X122745238Y-107894285D01*
X122650000Y-107799047D01*
X122602380Y-107703809D01*
X122602380Y-107513333D01*
X122650000Y-107418095D01*
X122745238Y-107322857D01*
X122935714Y-107275238D01*
X123269047Y-107275238D01*
X123459523Y-107322857D01*
X123554761Y-107418095D01*
X123602380Y-107513333D01*
X123602380Y-107703809D01*
X123078571Y-106846666D02*
X123078571Y-106513333D01*
X123602380Y-106370476D02*
X123602380Y-106846666D01*
X122602380Y-106846666D01*
X122602380Y-106370476D01*
X122602380Y-105465714D02*
X122602380Y-105941904D01*
X123078571Y-105989523D01*
X123030952Y-105941904D01*
X122983333Y-105846666D01*
X122983333Y-105608571D01*
X123030952Y-105513333D01*
X123078571Y-105465714D01*
X123173809Y-105418095D01*
X123411904Y-105418095D01*
X123507142Y-105465714D01*
X123554761Y-105513333D01*
X123602380Y-105608571D01*
X123602380Y-105846666D01*
X123554761Y-105941904D01*
X123507142Y-105989523D01*
X110997619Y-107227619D02*
X110950000Y-107322857D01*
X110854761Y-107418095D01*
X110711904Y-107560952D01*
X110664285Y-107656190D01*
X110664285Y-107751428D01*
X110902380Y-107703809D02*
X110854761Y-107799047D01*
X110759523Y-107894285D01*
X110569047Y-107941904D01*
X110235714Y-107941904D01*
X110045238Y-107894285D01*
X109950000Y-107799047D01*
X109902380Y-107703809D01*
X109902380Y-107513333D01*
X109950000Y-107418095D01*
X110045238Y-107322857D01*
X110235714Y-107275238D01*
X110569047Y-107275238D01*
X110759523Y-107322857D01*
X110854761Y-107418095D01*
X110902380Y-107513333D01*
X110902380Y-107703809D01*
X110378571Y-106846666D02*
X110378571Y-106513333D01*
X110902380Y-106370476D02*
X110902380Y-106846666D01*
X109902380Y-106846666D01*
X109902380Y-106370476D01*
X110235714Y-105513333D02*
X110902380Y-105513333D01*
X109854761Y-105751428D02*
X110569047Y-105989523D01*
X110569047Y-105370476D01*
X98297619Y-107227619D02*
X98250000Y-107322857D01*
X98154761Y-107418095D01*
X98011904Y-107560952D01*
X97964285Y-107656190D01*
X97964285Y-107751428D01*
X98202380Y-107703809D02*
X98154761Y-107799047D01*
X98059523Y-107894285D01*
X97869047Y-107941904D01*
X97535714Y-107941904D01*
X97345238Y-107894285D01*
X97250000Y-107799047D01*
X97202380Y-107703809D01*
X97202380Y-107513333D01*
X97250000Y-107418095D01*
X97345238Y-107322857D01*
X97535714Y-107275238D01*
X97869047Y-107275238D01*
X98059523Y-107322857D01*
X98154761Y-107418095D01*
X98202380Y-107513333D01*
X98202380Y-107703809D01*
X97678571Y-106846666D02*
X97678571Y-106513333D01*
X98202380Y-106370476D02*
X98202380Y-106846666D01*
X97202380Y-106846666D01*
X97202380Y-106370476D01*
X97202380Y-106037142D02*
X97202380Y-105418095D01*
X97583333Y-105751428D01*
X97583333Y-105608571D01*
X97630952Y-105513333D01*
X97678571Y-105465714D01*
X97773809Y-105418095D01*
X98011904Y-105418095D01*
X98107142Y-105465714D01*
X98154761Y-105513333D01*
X98202380Y-105608571D01*
X98202380Y-105894285D01*
X98154761Y-105989523D01*
X98107142Y-106037142D01*
X85597619Y-107227619D02*
X85550000Y-107322857D01*
X85454761Y-107418095D01*
X85311904Y-107560952D01*
X85264285Y-107656190D01*
X85264285Y-107751428D01*
X85502380Y-107703809D02*
X85454761Y-107799047D01*
X85359523Y-107894285D01*
X85169047Y-107941904D01*
X84835714Y-107941904D01*
X84645238Y-107894285D01*
X84550000Y-107799047D01*
X84502380Y-107703809D01*
X84502380Y-107513333D01*
X84550000Y-107418095D01*
X84645238Y-107322857D01*
X84835714Y-107275238D01*
X85169047Y-107275238D01*
X85359523Y-107322857D01*
X85454761Y-107418095D01*
X85502380Y-107513333D01*
X85502380Y-107703809D01*
X84978571Y-106846666D02*
X84978571Y-106513333D01*
X85502380Y-106370476D02*
X85502380Y-106846666D01*
X84502380Y-106846666D01*
X84502380Y-106370476D01*
X84597619Y-105989523D02*
X84550000Y-105941904D01*
X84502380Y-105846666D01*
X84502380Y-105608571D01*
X84550000Y-105513333D01*
X84597619Y-105465714D01*
X84692857Y-105418095D01*
X84788095Y-105418095D01*
X84930952Y-105465714D01*
X85502380Y-106037142D01*
X85502380Y-105418095D01*
X72897619Y-107227619D02*
X72850000Y-107322857D01*
X72754761Y-107418095D01*
X72611904Y-107560952D01*
X72564285Y-107656190D01*
X72564285Y-107751428D01*
X72802380Y-107703809D02*
X72754761Y-107799047D01*
X72659523Y-107894285D01*
X72469047Y-107941904D01*
X72135714Y-107941904D01*
X71945238Y-107894285D01*
X71850000Y-107799047D01*
X71802380Y-107703809D01*
X71802380Y-107513333D01*
X71850000Y-107418095D01*
X71945238Y-107322857D01*
X72135714Y-107275238D01*
X72469047Y-107275238D01*
X72659523Y-107322857D01*
X72754761Y-107418095D01*
X72802380Y-107513333D01*
X72802380Y-107703809D01*
X72278571Y-106846666D02*
X72278571Y-106513333D01*
X72802380Y-106370476D02*
X72802380Y-106846666D01*
X71802380Y-106846666D01*
X71802380Y-106370476D01*
X72802380Y-105418095D02*
X72802380Y-105989523D01*
X72802380Y-105703809D02*
X71802380Y-105703809D01*
X71945238Y-105799047D01*
X72040476Y-105894285D01*
X72088095Y-105989523D01*
X155424285Y-93162380D02*
X155090952Y-92686190D01*
X154852857Y-93162380D02*
X154852857Y-92162380D01*
X155233809Y-92162380D01*
X155329047Y-92210000D01*
X155376666Y-92257619D01*
X155424285Y-92352857D01*
X155424285Y-92495714D01*
X155376666Y-92590952D01*
X155329047Y-92638571D01*
X155233809Y-92686190D01*
X154852857Y-92686190D01*
X155852857Y-92781428D02*
X156614761Y-92781428D01*
X157233809Y-92590952D02*
X157138571Y-92543333D01*
X157090952Y-92495714D01*
X157043333Y-92400476D01*
X157043333Y-92352857D01*
X157090952Y-92257619D01*
X157138571Y-92210000D01*
X157233809Y-92162380D01*
X157424285Y-92162380D01*
X157519523Y-92210000D01*
X157567142Y-92257619D01*
X157614761Y-92352857D01*
X157614761Y-92400476D01*
X157567142Y-92495714D01*
X157519523Y-92543333D01*
X157424285Y-92590952D01*
X157233809Y-92590952D01*
X157138571Y-92638571D01*
X157090952Y-92686190D01*
X157043333Y-92781428D01*
X157043333Y-92971904D01*
X157090952Y-93067142D01*
X157138571Y-93114761D01*
X157233809Y-93162380D01*
X157424285Y-93162380D01*
X157519523Y-93114761D01*
X157567142Y-93067142D01*
X157614761Y-92971904D01*
X157614761Y-92781428D01*
X157567142Y-92686190D01*
X157519523Y-92638571D01*
X157424285Y-92590952D01*
X142724285Y-93162380D02*
X142390952Y-92686190D01*
X142152857Y-93162380D02*
X142152857Y-92162380D01*
X142533809Y-92162380D01*
X142629047Y-92210000D01*
X142676666Y-92257619D01*
X142724285Y-92352857D01*
X142724285Y-92495714D01*
X142676666Y-92590952D01*
X142629047Y-92638571D01*
X142533809Y-92686190D01*
X142152857Y-92686190D01*
X143152857Y-92781428D02*
X143914761Y-92781428D01*
X144295714Y-92162380D02*
X144962380Y-92162380D01*
X144533809Y-93162380D01*
X130024285Y-93162380D02*
X129690952Y-92686190D01*
X129452857Y-93162380D02*
X129452857Y-92162380D01*
X129833809Y-92162380D01*
X129929047Y-92210000D01*
X129976666Y-92257619D01*
X130024285Y-92352857D01*
X130024285Y-92495714D01*
X129976666Y-92590952D01*
X129929047Y-92638571D01*
X129833809Y-92686190D01*
X129452857Y-92686190D01*
X130452857Y-92781428D02*
X131214761Y-92781428D01*
X132119523Y-92162380D02*
X131929047Y-92162380D01*
X131833809Y-92210000D01*
X131786190Y-92257619D01*
X131690952Y-92400476D01*
X131643333Y-92590952D01*
X131643333Y-92971904D01*
X131690952Y-93067142D01*
X131738571Y-93114761D01*
X131833809Y-93162380D01*
X132024285Y-93162380D01*
X132119523Y-93114761D01*
X132167142Y-93067142D01*
X132214761Y-92971904D01*
X132214761Y-92733809D01*
X132167142Y-92638571D01*
X132119523Y-92590952D01*
X132024285Y-92543333D01*
X131833809Y-92543333D01*
X131738571Y-92590952D01*
X131690952Y-92638571D01*
X131643333Y-92733809D01*
X117324285Y-93162380D02*
X116990952Y-92686190D01*
X116752857Y-93162380D02*
X116752857Y-92162380D01*
X117133809Y-92162380D01*
X117229047Y-92210000D01*
X117276666Y-92257619D01*
X117324285Y-92352857D01*
X117324285Y-92495714D01*
X117276666Y-92590952D01*
X117229047Y-92638571D01*
X117133809Y-92686190D01*
X116752857Y-92686190D01*
X117752857Y-92781428D02*
X118514761Y-92781428D01*
X119467142Y-92162380D02*
X118990952Y-92162380D01*
X118943333Y-92638571D01*
X118990952Y-92590952D01*
X119086190Y-92543333D01*
X119324285Y-92543333D01*
X119419523Y-92590952D01*
X119467142Y-92638571D01*
X119514761Y-92733809D01*
X119514761Y-92971904D01*
X119467142Y-93067142D01*
X119419523Y-93114761D01*
X119324285Y-93162380D01*
X119086190Y-93162380D01*
X118990952Y-93114761D01*
X118943333Y-93067142D01*
X104624285Y-93162380D02*
X104290952Y-92686190D01*
X104052857Y-93162380D02*
X104052857Y-92162380D01*
X104433809Y-92162380D01*
X104529047Y-92210000D01*
X104576666Y-92257619D01*
X104624285Y-92352857D01*
X104624285Y-92495714D01*
X104576666Y-92590952D01*
X104529047Y-92638571D01*
X104433809Y-92686190D01*
X104052857Y-92686190D01*
X105052857Y-92781428D02*
X105814761Y-92781428D01*
X106719523Y-92495714D02*
X106719523Y-93162380D01*
X106481428Y-92114761D02*
X106243333Y-92829047D01*
X106862380Y-92829047D01*
X91924285Y-93162380D02*
X91590952Y-92686190D01*
X91352857Y-93162380D02*
X91352857Y-92162380D01*
X91733809Y-92162380D01*
X91829047Y-92210000D01*
X91876666Y-92257619D01*
X91924285Y-92352857D01*
X91924285Y-92495714D01*
X91876666Y-92590952D01*
X91829047Y-92638571D01*
X91733809Y-92686190D01*
X91352857Y-92686190D01*
X92352857Y-92781428D02*
X93114761Y-92781428D01*
X93495714Y-92162380D02*
X94114761Y-92162380D01*
X93781428Y-92543333D01*
X93924285Y-92543333D01*
X94019523Y-92590952D01*
X94067142Y-92638571D01*
X94114761Y-92733809D01*
X94114761Y-92971904D01*
X94067142Y-93067142D01*
X94019523Y-93114761D01*
X93924285Y-93162380D01*
X93638571Y-93162380D01*
X93543333Y-93114761D01*
X93495714Y-93067142D01*
X79224285Y-93162380D02*
X78890952Y-92686190D01*
X78652857Y-93162380D02*
X78652857Y-92162380D01*
X79033809Y-92162380D01*
X79129047Y-92210000D01*
X79176666Y-92257619D01*
X79224285Y-92352857D01*
X79224285Y-92495714D01*
X79176666Y-92590952D01*
X79129047Y-92638571D01*
X79033809Y-92686190D01*
X78652857Y-92686190D01*
X79652857Y-92781428D02*
X80414761Y-92781428D01*
X80843333Y-92257619D02*
X80890952Y-92210000D01*
X80986190Y-92162380D01*
X81224285Y-92162380D01*
X81319523Y-92210000D01*
X81367142Y-92257619D01*
X81414761Y-92352857D01*
X81414761Y-92448095D01*
X81367142Y-92590952D01*
X80795714Y-93162380D01*
X81414761Y-93162380D01*
X66524285Y-93162380D02*
X66190952Y-92686190D01*
X65952857Y-93162380D02*
X65952857Y-92162380D01*
X66333809Y-92162380D01*
X66429047Y-92210000D01*
X66476666Y-92257619D01*
X66524285Y-92352857D01*
X66524285Y-92495714D01*
X66476666Y-92590952D01*
X66429047Y-92638571D01*
X66333809Y-92686190D01*
X65952857Y-92686190D01*
X66952857Y-92781428D02*
X67714761Y-92781428D01*
X68714761Y-93162380D02*
X68143333Y-93162380D01*
X68429047Y-93162380D02*
X68429047Y-92162380D01*
X68333809Y-92305238D01*
X68238571Y-92400476D01*
X68143333Y-92448095D01*
X128944761Y-111577380D02*
X128611428Y-111101190D01*
X128373333Y-111577380D02*
X128373333Y-110577380D01*
X128754285Y-110577380D01*
X128849523Y-110625000D01*
X128897142Y-110672619D01*
X128944761Y-110767857D01*
X128944761Y-110910714D01*
X128897142Y-111005952D01*
X128849523Y-111053571D01*
X128754285Y-111101190D01*
X128373333Y-111101190D01*
X129230476Y-110577380D02*
X129563809Y-111577380D01*
X129897142Y-110577380D01*
X130659047Y-110577380D02*
X130468571Y-110577380D01*
X130373333Y-110625000D01*
X130325714Y-110672619D01*
X130230476Y-110815476D01*
X130182857Y-111005952D01*
X130182857Y-111386904D01*
X130230476Y-111482142D01*
X130278095Y-111529761D01*
X130373333Y-111577380D01*
X130563809Y-111577380D01*
X130659047Y-111529761D01*
X130706666Y-111482142D01*
X130754285Y-111386904D01*
X130754285Y-111148809D01*
X130706666Y-111053571D01*
X130659047Y-111005952D01*
X130563809Y-110958333D01*
X130373333Y-110958333D01*
X130278095Y-111005952D01*
X130230476Y-111053571D01*
X130182857Y-111148809D01*
X90844761Y-111467380D02*
X90511428Y-110991190D01*
X90273333Y-111467380D02*
X90273333Y-110467380D01*
X90654285Y-110467380D01*
X90749523Y-110515000D01*
X90797142Y-110562619D01*
X90844761Y-110657857D01*
X90844761Y-110800714D01*
X90797142Y-110895952D01*
X90749523Y-110943571D01*
X90654285Y-110991190D01*
X90273333Y-110991190D01*
X91130476Y-110467380D02*
X91463809Y-111467380D01*
X91797142Y-110467380D01*
X92035238Y-110467380D02*
X92654285Y-110467380D01*
X92320952Y-110848333D01*
X92463809Y-110848333D01*
X92559047Y-110895952D01*
X92606666Y-110943571D01*
X92654285Y-111038809D01*
X92654285Y-111276904D01*
X92606666Y-111372142D01*
X92559047Y-111419761D01*
X92463809Y-111467380D01*
X92178095Y-111467380D01*
X92082857Y-111419761D01*
X92035238Y-111372142D01*
X78144761Y-111577380D02*
X77811428Y-111101190D01*
X77573333Y-111577380D02*
X77573333Y-110577380D01*
X77954285Y-110577380D01*
X78049523Y-110625000D01*
X78097142Y-110672619D01*
X78144761Y-110767857D01*
X78144761Y-110910714D01*
X78097142Y-111005952D01*
X78049523Y-111053571D01*
X77954285Y-111101190D01*
X77573333Y-111101190D01*
X78430476Y-110577380D02*
X78763809Y-111577380D01*
X79097142Y-110577380D01*
X79382857Y-110672619D02*
X79430476Y-110625000D01*
X79525714Y-110577380D01*
X79763809Y-110577380D01*
X79859047Y-110625000D01*
X79906666Y-110672619D01*
X79954285Y-110767857D01*
X79954285Y-110863095D01*
X79906666Y-111005952D01*
X79335238Y-111577380D01*
X79954285Y-111577380D01*
X103544761Y-111577380D02*
X103211428Y-111101190D01*
X102973333Y-111577380D02*
X102973333Y-110577380D01*
X103354285Y-110577380D01*
X103449523Y-110625000D01*
X103497142Y-110672619D01*
X103544761Y-110767857D01*
X103544761Y-110910714D01*
X103497142Y-111005952D01*
X103449523Y-111053571D01*
X103354285Y-111101190D01*
X102973333Y-111101190D01*
X103830476Y-110577380D02*
X104163809Y-111577380D01*
X104497142Y-110577380D01*
X105259047Y-110910714D02*
X105259047Y-111577380D01*
X105020952Y-110529761D02*
X104782857Y-111244047D01*
X105401904Y-111244047D01*
X154344761Y-111577380D02*
X154011428Y-111101190D01*
X153773333Y-111577380D02*
X153773333Y-110577380D01*
X154154285Y-110577380D01*
X154249523Y-110625000D01*
X154297142Y-110672619D01*
X154344761Y-110767857D01*
X154344761Y-110910714D01*
X154297142Y-111005952D01*
X154249523Y-111053571D01*
X154154285Y-111101190D01*
X153773333Y-111101190D01*
X154630476Y-110577380D02*
X154963809Y-111577380D01*
X155297142Y-110577380D01*
X155773333Y-111005952D02*
X155678095Y-110958333D01*
X155630476Y-110910714D01*
X155582857Y-110815476D01*
X155582857Y-110767857D01*
X155630476Y-110672619D01*
X155678095Y-110625000D01*
X155773333Y-110577380D01*
X155963809Y-110577380D01*
X156059047Y-110625000D01*
X156106666Y-110672619D01*
X156154285Y-110767857D01*
X156154285Y-110815476D01*
X156106666Y-110910714D01*
X156059047Y-110958333D01*
X155963809Y-111005952D01*
X155773333Y-111005952D01*
X155678095Y-111053571D01*
X155630476Y-111101190D01*
X155582857Y-111196428D01*
X155582857Y-111386904D01*
X155630476Y-111482142D01*
X155678095Y-111529761D01*
X155773333Y-111577380D01*
X155963809Y-111577380D01*
X156059047Y-111529761D01*
X156106666Y-111482142D01*
X156154285Y-111386904D01*
X156154285Y-111196428D01*
X156106666Y-111101190D01*
X156059047Y-111053571D01*
X155963809Y-111005952D01*
X141644761Y-111577380D02*
X141311428Y-111101190D01*
X141073333Y-111577380D02*
X141073333Y-110577380D01*
X141454285Y-110577380D01*
X141549523Y-110625000D01*
X141597142Y-110672619D01*
X141644761Y-110767857D01*
X141644761Y-110910714D01*
X141597142Y-111005952D01*
X141549523Y-111053571D01*
X141454285Y-111101190D01*
X141073333Y-111101190D01*
X141930476Y-110577380D02*
X142263809Y-111577380D01*
X142597142Y-110577380D01*
X142835238Y-110577380D02*
X143501904Y-110577380D01*
X143073333Y-111577380D01*
X160623333Y-85542380D02*
X160290000Y-85066190D01*
X160051904Y-85542380D02*
X160051904Y-84542380D01*
X160432857Y-84542380D01*
X160528095Y-84590000D01*
X160575714Y-84637619D01*
X160623333Y-84732857D01*
X160623333Y-84875714D01*
X160575714Y-84970952D01*
X160528095Y-85018571D01*
X160432857Y-85066190D01*
X160051904Y-85066190D01*
X161575714Y-84590000D02*
X161480476Y-84542380D01*
X161337619Y-84542380D01*
X161194761Y-84590000D01*
X161099523Y-84685238D01*
X161051904Y-84780476D01*
X161004285Y-84970952D01*
X161004285Y-85113809D01*
X161051904Y-85304285D01*
X161099523Y-85399523D01*
X161194761Y-85494761D01*
X161337619Y-85542380D01*
X161432857Y-85542380D01*
X161575714Y-85494761D01*
X161623333Y-85447142D01*
X161623333Y-85113809D01*
X161432857Y-85113809D01*
X162194761Y-84970952D02*
X162099523Y-84923333D01*
X162051904Y-84875714D01*
X162004285Y-84780476D01*
X162004285Y-84732857D01*
X162051904Y-84637619D01*
X162099523Y-84590000D01*
X162194761Y-84542380D01*
X162385238Y-84542380D01*
X162480476Y-84590000D01*
X162528095Y-84637619D01*
X162575714Y-84732857D01*
X162575714Y-84780476D01*
X162528095Y-84875714D01*
X162480476Y-84923333D01*
X162385238Y-84970952D01*
X162194761Y-84970952D01*
X162099523Y-85018571D01*
X162051904Y-85066190D01*
X162004285Y-85161428D01*
X162004285Y-85351904D01*
X162051904Y-85447142D01*
X162099523Y-85494761D01*
X162194761Y-85542380D01*
X162385238Y-85542380D01*
X162480476Y-85494761D01*
X162528095Y-85447142D01*
X162575714Y-85351904D01*
X162575714Y-85161428D01*
X162528095Y-85066190D01*
X162480476Y-85018571D01*
X162385238Y-84970952D01*
X147923333Y-85542380D02*
X147590000Y-85066190D01*
X147351904Y-85542380D02*
X147351904Y-84542380D01*
X147732857Y-84542380D01*
X147828095Y-84590000D01*
X147875714Y-84637619D01*
X147923333Y-84732857D01*
X147923333Y-84875714D01*
X147875714Y-84970952D01*
X147828095Y-85018571D01*
X147732857Y-85066190D01*
X147351904Y-85066190D01*
X148875714Y-84590000D02*
X148780476Y-84542380D01*
X148637619Y-84542380D01*
X148494761Y-84590000D01*
X148399523Y-84685238D01*
X148351904Y-84780476D01*
X148304285Y-84970952D01*
X148304285Y-85113809D01*
X148351904Y-85304285D01*
X148399523Y-85399523D01*
X148494761Y-85494761D01*
X148637619Y-85542380D01*
X148732857Y-85542380D01*
X148875714Y-85494761D01*
X148923333Y-85447142D01*
X148923333Y-85113809D01*
X148732857Y-85113809D01*
X149256666Y-84542380D02*
X149923333Y-84542380D01*
X149494761Y-85542380D01*
X135223333Y-85542380D02*
X134890000Y-85066190D01*
X134651904Y-85542380D02*
X134651904Y-84542380D01*
X135032857Y-84542380D01*
X135128095Y-84590000D01*
X135175714Y-84637619D01*
X135223333Y-84732857D01*
X135223333Y-84875714D01*
X135175714Y-84970952D01*
X135128095Y-85018571D01*
X135032857Y-85066190D01*
X134651904Y-85066190D01*
X136175714Y-84590000D02*
X136080476Y-84542380D01*
X135937619Y-84542380D01*
X135794761Y-84590000D01*
X135699523Y-84685238D01*
X135651904Y-84780476D01*
X135604285Y-84970952D01*
X135604285Y-85113809D01*
X135651904Y-85304285D01*
X135699523Y-85399523D01*
X135794761Y-85494761D01*
X135937619Y-85542380D01*
X136032857Y-85542380D01*
X136175714Y-85494761D01*
X136223333Y-85447142D01*
X136223333Y-85113809D01*
X136032857Y-85113809D01*
X137080476Y-84542380D02*
X136890000Y-84542380D01*
X136794761Y-84590000D01*
X136747142Y-84637619D01*
X136651904Y-84780476D01*
X136604285Y-84970952D01*
X136604285Y-85351904D01*
X136651904Y-85447142D01*
X136699523Y-85494761D01*
X136794761Y-85542380D01*
X136985238Y-85542380D01*
X137080476Y-85494761D01*
X137128095Y-85447142D01*
X137175714Y-85351904D01*
X137175714Y-85113809D01*
X137128095Y-85018571D01*
X137080476Y-84970952D01*
X136985238Y-84923333D01*
X136794761Y-84923333D01*
X136699523Y-84970952D01*
X136651904Y-85018571D01*
X136604285Y-85113809D01*
X122523333Y-85542380D02*
X122190000Y-85066190D01*
X121951904Y-85542380D02*
X121951904Y-84542380D01*
X122332857Y-84542380D01*
X122428095Y-84590000D01*
X122475714Y-84637619D01*
X122523333Y-84732857D01*
X122523333Y-84875714D01*
X122475714Y-84970952D01*
X122428095Y-85018571D01*
X122332857Y-85066190D01*
X121951904Y-85066190D01*
X123475714Y-84590000D02*
X123380476Y-84542380D01*
X123237619Y-84542380D01*
X123094761Y-84590000D01*
X122999523Y-84685238D01*
X122951904Y-84780476D01*
X122904285Y-84970952D01*
X122904285Y-85113809D01*
X122951904Y-85304285D01*
X122999523Y-85399523D01*
X123094761Y-85494761D01*
X123237619Y-85542380D01*
X123332857Y-85542380D01*
X123475714Y-85494761D01*
X123523333Y-85447142D01*
X123523333Y-85113809D01*
X123332857Y-85113809D01*
X124428095Y-84542380D02*
X123951904Y-84542380D01*
X123904285Y-85018571D01*
X123951904Y-84970952D01*
X124047142Y-84923333D01*
X124285238Y-84923333D01*
X124380476Y-84970952D01*
X124428095Y-85018571D01*
X124475714Y-85113809D01*
X124475714Y-85351904D01*
X124428095Y-85447142D01*
X124380476Y-85494761D01*
X124285238Y-85542380D01*
X124047142Y-85542380D01*
X123951904Y-85494761D01*
X123904285Y-85447142D01*
X109823333Y-85542380D02*
X109490000Y-85066190D01*
X109251904Y-85542380D02*
X109251904Y-84542380D01*
X109632857Y-84542380D01*
X109728095Y-84590000D01*
X109775714Y-84637619D01*
X109823333Y-84732857D01*
X109823333Y-84875714D01*
X109775714Y-84970952D01*
X109728095Y-85018571D01*
X109632857Y-85066190D01*
X109251904Y-85066190D01*
X110775714Y-84590000D02*
X110680476Y-84542380D01*
X110537619Y-84542380D01*
X110394761Y-84590000D01*
X110299523Y-84685238D01*
X110251904Y-84780476D01*
X110204285Y-84970952D01*
X110204285Y-85113809D01*
X110251904Y-85304285D01*
X110299523Y-85399523D01*
X110394761Y-85494761D01*
X110537619Y-85542380D01*
X110632857Y-85542380D01*
X110775714Y-85494761D01*
X110823333Y-85447142D01*
X110823333Y-85113809D01*
X110632857Y-85113809D01*
X111680476Y-84875714D02*
X111680476Y-85542380D01*
X111442380Y-84494761D02*
X111204285Y-85209047D01*
X111823333Y-85209047D01*
X97123333Y-85542380D02*
X96790000Y-85066190D01*
X96551904Y-85542380D02*
X96551904Y-84542380D01*
X96932857Y-84542380D01*
X97028095Y-84590000D01*
X97075714Y-84637619D01*
X97123333Y-84732857D01*
X97123333Y-84875714D01*
X97075714Y-84970952D01*
X97028095Y-85018571D01*
X96932857Y-85066190D01*
X96551904Y-85066190D01*
X98075714Y-84590000D02*
X97980476Y-84542380D01*
X97837619Y-84542380D01*
X97694761Y-84590000D01*
X97599523Y-84685238D01*
X97551904Y-84780476D01*
X97504285Y-84970952D01*
X97504285Y-85113809D01*
X97551904Y-85304285D01*
X97599523Y-85399523D01*
X97694761Y-85494761D01*
X97837619Y-85542380D01*
X97932857Y-85542380D01*
X98075714Y-85494761D01*
X98123333Y-85447142D01*
X98123333Y-85113809D01*
X97932857Y-85113809D01*
X98456666Y-84542380D02*
X99075714Y-84542380D01*
X98742380Y-84923333D01*
X98885238Y-84923333D01*
X98980476Y-84970952D01*
X99028095Y-85018571D01*
X99075714Y-85113809D01*
X99075714Y-85351904D01*
X99028095Y-85447142D01*
X98980476Y-85494761D01*
X98885238Y-85542380D01*
X98599523Y-85542380D01*
X98504285Y-85494761D01*
X98456666Y-85447142D01*
X84423333Y-85542380D02*
X84090000Y-85066190D01*
X83851904Y-85542380D02*
X83851904Y-84542380D01*
X84232857Y-84542380D01*
X84328095Y-84590000D01*
X84375714Y-84637619D01*
X84423333Y-84732857D01*
X84423333Y-84875714D01*
X84375714Y-84970952D01*
X84328095Y-85018571D01*
X84232857Y-85066190D01*
X83851904Y-85066190D01*
X85375714Y-84590000D02*
X85280476Y-84542380D01*
X85137619Y-84542380D01*
X84994761Y-84590000D01*
X84899523Y-84685238D01*
X84851904Y-84780476D01*
X84804285Y-84970952D01*
X84804285Y-85113809D01*
X84851904Y-85304285D01*
X84899523Y-85399523D01*
X84994761Y-85494761D01*
X85137619Y-85542380D01*
X85232857Y-85542380D01*
X85375714Y-85494761D01*
X85423333Y-85447142D01*
X85423333Y-85113809D01*
X85232857Y-85113809D01*
X85804285Y-84637619D02*
X85851904Y-84590000D01*
X85947142Y-84542380D01*
X86185238Y-84542380D01*
X86280476Y-84590000D01*
X86328095Y-84637619D01*
X86375714Y-84732857D01*
X86375714Y-84828095D01*
X86328095Y-84970952D01*
X85756666Y-85542380D01*
X86375714Y-85542380D01*
X71723333Y-85542380D02*
X71390000Y-85066190D01*
X71151904Y-85542380D02*
X71151904Y-84542380D01*
X71532857Y-84542380D01*
X71628095Y-84590000D01*
X71675714Y-84637619D01*
X71723333Y-84732857D01*
X71723333Y-84875714D01*
X71675714Y-84970952D01*
X71628095Y-85018571D01*
X71532857Y-85066190D01*
X71151904Y-85066190D01*
X72675714Y-84590000D02*
X72580476Y-84542380D01*
X72437619Y-84542380D01*
X72294761Y-84590000D01*
X72199523Y-84685238D01*
X72151904Y-84780476D01*
X72104285Y-84970952D01*
X72104285Y-85113809D01*
X72151904Y-85304285D01*
X72199523Y-85399523D01*
X72294761Y-85494761D01*
X72437619Y-85542380D01*
X72532857Y-85542380D01*
X72675714Y-85494761D01*
X72723333Y-85447142D01*
X72723333Y-85113809D01*
X72532857Y-85113809D01*
X73675714Y-85542380D02*
X73104285Y-85542380D01*
X73390000Y-85542380D02*
X73390000Y-84542380D01*
X73294761Y-84685238D01*
X73199523Y-84780476D01*
X73104285Y-84828095D01*
X160694761Y-90622380D02*
X160361428Y-90146190D01*
X160123333Y-90622380D02*
X160123333Y-89622380D01*
X160504285Y-89622380D01*
X160599523Y-89670000D01*
X160647142Y-89717619D01*
X160694761Y-89812857D01*
X160694761Y-89955714D01*
X160647142Y-90050952D01*
X160599523Y-90098571D01*
X160504285Y-90146190D01*
X160123333Y-90146190D01*
X161456666Y-90098571D02*
X161123333Y-90098571D01*
X161123333Y-90622380D02*
X161123333Y-89622380D01*
X161599523Y-89622380D01*
X162123333Y-90050952D02*
X162028095Y-90003333D01*
X161980476Y-89955714D01*
X161932857Y-89860476D01*
X161932857Y-89812857D01*
X161980476Y-89717619D01*
X162028095Y-89670000D01*
X162123333Y-89622380D01*
X162313809Y-89622380D01*
X162409047Y-89670000D01*
X162456666Y-89717619D01*
X162504285Y-89812857D01*
X162504285Y-89860476D01*
X162456666Y-89955714D01*
X162409047Y-90003333D01*
X162313809Y-90050952D01*
X162123333Y-90050952D01*
X162028095Y-90098571D01*
X161980476Y-90146190D01*
X161932857Y-90241428D01*
X161932857Y-90431904D01*
X161980476Y-90527142D01*
X162028095Y-90574761D01*
X162123333Y-90622380D01*
X162313809Y-90622380D01*
X162409047Y-90574761D01*
X162456666Y-90527142D01*
X162504285Y-90431904D01*
X162504285Y-90241428D01*
X162456666Y-90146190D01*
X162409047Y-90098571D01*
X162313809Y-90050952D01*
X147994761Y-90622380D02*
X147661428Y-90146190D01*
X147423333Y-90622380D02*
X147423333Y-89622380D01*
X147804285Y-89622380D01*
X147899523Y-89670000D01*
X147947142Y-89717619D01*
X147994761Y-89812857D01*
X147994761Y-89955714D01*
X147947142Y-90050952D01*
X147899523Y-90098571D01*
X147804285Y-90146190D01*
X147423333Y-90146190D01*
X148756666Y-90098571D02*
X148423333Y-90098571D01*
X148423333Y-90622380D02*
X148423333Y-89622380D01*
X148899523Y-89622380D01*
X149185238Y-89622380D02*
X149851904Y-89622380D01*
X149423333Y-90622380D01*
X135294761Y-90622380D02*
X134961428Y-90146190D01*
X134723333Y-90622380D02*
X134723333Y-89622380D01*
X135104285Y-89622380D01*
X135199523Y-89670000D01*
X135247142Y-89717619D01*
X135294761Y-89812857D01*
X135294761Y-89955714D01*
X135247142Y-90050952D01*
X135199523Y-90098571D01*
X135104285Y-90146190D01*
X134723333Y-90146190D01*
X136056666Y-90098571D02*
X135723333Y-90098571D01*
X135723333Y-90622380D02*
X135723333Y-89622380D01*
X136199523Y-89622380D01*
X137009047Y-89622380D02*
X136818571Y-89622380D01*
X136723333Y-89670000D01*
X136675714Y-89717619D01*
X136580476Y-89860476D01*
X136532857Y-90050952D01*
X136532857Y-90431904D01*
X136580476Y-90527142D01*
X136628095Y-90574761D01*
X136723333Y-90622380D01*
X136913809Y-90622380D01*
X137009047Y-90574761D01*
X137056666Y-90527142D01*
X137104285Y-90431904D01*
X137104285Y-90193809D01*
X137056666Y-90098571D01*
X137009047Y-90050952D01*
X136913809Y-90003333D01*
X136723333Y-90003333D01*
X136628095Y-90050952D01*
X136580476Y-90098571D01*
X136532857Y-90193809D01*
X122594761Y-90622380D02*
X122261428Y-90146190D01*
X122023333Y-90622380D02*
X122023333Y-89622380D01*
X122404285Y-89622380D01*
X122499523Y-89670000D01*
X122547142Y-89717619D01*
X122594761Y-89812857D01*
X122594761Y-89955714D01*
X122547142Y-90050952D01*
X122499523Y-90098571D01*
X122404285Y-90146190D01*
X122023333Y-90146190D01*
X123356666Y-90098571D02*
X123023333Y-90098571D01*
X123023333Y-90622380D02*
X123023333Y-89622380D01*
X123499523Y-89622380D01*
X124356666Y-89622380D02*
X123880476Y-89622380D01*
X123832857Y-90098571D01*
X123880476Y-90050952D01*
X123975714Y-90003333D01*
X124213809Y-90003333D01*
X124309047Y-90050952D01*
X124356666Y-90098571D01*
X124404285Y-90193809D01*
X124404285Y-90431904D01*
X124356666Y-90527142D01*
X124309047Y-90574761D01*
X124213809Y-90622380D01*
X123975714Y-90622380D01*
X123880476Y-90574761D01*
X123832857Y-90527142D01*
X109894761Y-90622380D02*
X109561428Y-90146190D01*
X109323333Y-90622380D02*
X109323333Y-89622380D01*
X109704285Y-89622380D01*
X109799523Y-89670000D01*
X109847142Y-89717619D01*
X109894761Y-89812857D01*
X109894761Y-89955714D01*
X109847142Y-90050952D01*
X109799523Y-90098571D01*
X109704285Y-90146190D01*
X109323333Y-90146190D01*
X110656666Y-90098571D02*
X110323333Y-90098571D01*
X110323333Y-90622380D02*
X110323333Y-89622380D01*
X110799523Y-89622380D01*
X111609047Y-89955714D02*
X111609047Y-90622380D01*
X111370952Y-89574761D02*
X111132857Y-90289047D01*
X111751904Y-90289047D01*
X97194761Y-90622380D02*
X96861428Y-90146190D01*
X96623333Y-90622380D02*
X96623333Y-89622380D01*
X97004285Y-89622380D01*
X97099523Y-89670000D01*
X97147142Y-89717619D01*
X97194761Y-89812857D01*
X97194761Y-89955714D01*
X97147142Y-90050952D01*
X97099523Y-90098571D01*
X97004285Y-90146190D01*
X96623333Y-90146190D01*
X97956666Y-90098571D02*
X97623333Y-90098571D01*
X97623333Y-90622380D02*
X97623333Y-89622380D01*
X98099523Y-89622380D01*
X98385238Y-89622380D02*
X99004285Y-89622380D01*
X98670952Y-90003333D01*
X98813809Y-90003333D01*
X98909047Y-90050952D01*
X98956666Y-90098571D01*
X99004285Y-90193809D01*
X99004285Y-90431904D01*
X98956666Y-90527142D01*
X98909047Y-90574761D01*
X98813809Y-90622380D01*
X98528095Y-90622380D01*
X98432857Y-90574761D01*
X98385238Y-90527142D01*
X84494761Y-90622380D02*
X84161428Y-90146190D01*
X83923333Y-90622380D02*
X83923333Y-89622380D01*
X84304285Y-89622380D01*
X84399523Y-89670000D01*
X84447142Y-89717619D01*
X84494761Y-89812857D01*
X84494761Y-89955714D01*
X84447142Y-90050952D01*
X84399523Y-90098571D01*
X84304285Y-90146190D01*
X83923333Y-90146190D01*
X85256666Y-90098571D02*
X84923333Y-90098571D01*
X84923333Y-90622380D02*
X84923333Y-89622380D01*
X85399523Y-89622380D01*
X85732857Y-89717619D02*
X85780476Y-89670000D01*
X85875714Y-89622380D01*
X86113809Y-89622380D01*
X86209047Y-89670000D01*
X86256666Y-89717619D01*
X86304285Y-89812857D01*
X86304285Y-89908095D01*
X86256666Y-90050952D01*
X85685238Y-90622380D01*
X86304285Y-90622380D01*
X71794761Y-90622380D02*
X71461428Y-90146190D01*
X71223333Y-90622380D02*
X71223333Y-89622380D01*
X71604285Y-89622380D01*
X71699523Y-89670000D01*
X71747142Y-89717619D01*
X71794761Y-89812857D01*
X71794761Y-89955714D01*
X71747142Y-90050952D01*
X71699523Y-90098571D01*
X71604285Y-90146190D01*
X71223333Y-90146190D01*
X72556666Y-90098571D02*
X72223333Y-90098571D01*
X72223333Y-90622380D02*
X72223333Y-89622380D01*
X72699523Y-89622380D01*
X73604285Y-90622380D02*
X73032857Y-90622380D01*
X73318571Y-90622380D02*
X73318571Y-89622380D01*
X73223333Y-89765238D01*
X73128095Y-89860476D01*
X73032857Y-89908095D01*
X155424285Y-88082380D02*
X155090952Y-87606190D01*
X154852857Y-88082380D02*
X154852857Y-87082380D01*
X155233809Y-87082380D01*
X155329047Y-87130000D01*
X155376666Y-87177619D01*
X155424285Y-87272857D01*
X155424285Y-87415714D01*
X155376666Y-87510952D01*
X155329047Y-87558571D01*
X155233809Y-87606190D01*
X154852857Y-87606190D01*
X155852857Y-87701428D02*
X156614761Y-87701428D01*
X156233809Y-88082380D02*
X156233809Y-87320476D01*
X157233809Y-87510952D02*
X157138571Y-87463333D01*
X157090952Y-87415714D01*
X157043333Y-87320476D01*
X157043333Y-87272857D01*
X157090952Y-87177619D01*
X157138571Y-87130000D01*
X157233809Y-87082380D01*
X157424285Y-87082380D01*
X157519523Y-87130000D01*
X157567142Y-87177619D01*
X157614761Y-87272857D01*
X157614761Y-87320476D01*
X157567142Y-87415714D01*
X157519523Y-87463333D01*
X157424285Y-87510952D01*
X157233809Y-87510952D01*
X157138571Y-87558571D01*
X157090952Y-87606190D01*
X157043333Y-87701428D01*
X157043333Y-87891904D01*
X157090952Y-87987142D01*
X157138571Y-88034761D01*
X157233809Y-88082380D01*
X157424285Y-88082380D01*
X157519523Y-88034761D01*
X157567142Y-87987142D01*
X157614761Y-87891904D01*
X157614761Y-87701428D01*
X157567142Y-87606190D01*
X157519523Y-87558571D01*
X157424285Y-87510952D01*
X142724285Y-88082380D02*
X142390952Y-87606190D01*
X142152857Y-88082380D02*
X142152857Y-87082380D01*
X142533809Y-87082380D01*
X142629047Y-87130000D01*
X142676666Y-87177619D01*
X142724285Y-87272857D01*
X142724285Y-87415714D01*
X142676666Y-87510952D01*
X142629047Y-87558571D01*
X142533809Y-87606190D01*
X142152857Y-87606190D01*
X143152857Y-87701428D02*
X143914761Y-87701428D01*
X143533809Y-88082380D02*
X143533809Y-87320476D01*
X144295714Y-87082380D02*
X144962380Y-87082380D01*
X144533809Y-88082380D01*
X130024285Y-88082380D02*
X129690952Y-87606190D01*
X129452857Y-88082380D02*
X129452857Y-87082380D01*
X129833809Y-87082380D01*
X129929047Y-87130000D01*
X129976666Y-87177619D01*
X130024285Y-87272857D01*
X130024285Y-87415714D01*
X129976666Y-87510952D01*
X129929047Y-87558571D01*
X129833809Y-87606190D01*
X129452857Y-87606190D01*
X130452857Y-87701428D02*
X131214761Y-87701428D01*
X130833809Y-88082380D02*
X130833809Y-87320476D01*
X132119523Y-87082380D02*
X131929047Y-87082380D01*
X131833809Y-87130000D01*
X131786190Y-87177619D01*
X131690952Y-87320476D01*
X131643333Y-87510952D01*
X131643333Y-87891904D01*
X131690952Y-87987142D01*
X131738571Y-88034761D01*
X131833809Y-88082380D01*
X132024285Y-88082380D01*
X132119523Y-88034761D01*
X132167142Y-87987142D01*
X132214761Y-87891904D01*
X132214761Y-87653809D01*
X132167142Y-87558571D01*
X132119523Y-87510952D01*
X132024285Y-87463333D01*
X131833809Y-87463333D01*
X131738571Y-87510952D01*
X131690952Y-87558571D01*
X131643333Y-87653809D01*
X117324285Y-88082380D02*
X116990952Y-87606190D01*
X116752857Y-88082380D02*
X116752857Y-87082380D01*
X117133809Y-87082380D01*
X117229047Y-87130000D01*
X117276666Y-87177619D01*
X117324285Y-87272857D01*
X117324285Y-87415714D01*
X117276666Y-87510952D01*
X117229047Y-87558571D01*
X117133809Y-87606190D01*
X116752857Y-87606190D01*
X117752857Y-87701428D02*
X118514761Y-87701428D01*
X118133809Y-88082380D02*
X118133809Y-87320476D01*
X119467142Y-87082380D02*
X118990952Y-87082380D01*
X118943333Y-87558571D01*
X118990952Y-87510952D01*
X119086190Y-87463333D01*
X119324285Y-87463333D01*
X119419523Y-87510952D01*
X119467142Y-87558571D01*
X119514761Y-87653809D01*
X119514761Y-87891904D01*
X119467142Y-87987142D01*
X119419523Y-88034761D01*
X119324285Y-88082380D01*
X119086190Y-88082380D01*
X118990952Y-88034761D01*
X118943333Y-87987142D01*
X104624285Y-88082380D02*
X104290952Y-87606190D01*
X104052857Y-88082380D02*
X104052857Y-87082380D01*
X104433809Y-87082380D01*
X104529047Y-87130000D01*
X104576666Y-87177619D01*
X104624285Y-87272857D01*
X104624285Y-87415714D01*
X104576666Y-87510952D01*
X104529047Y-87558571D01*
X104433809Y-87606190D01*
X104052857Y-87606190D01*
X105052857Y-87701428D02*
X105814761Y-87701428D01*
X105433809Y-88082380D02*
X105433809Y-87320476D01*
X106719523Y-87415714D02*
X106719523Y-88082380D01*
X106481428Y-87034761D02*
X106243333Y-87749047D01*
X106862380Y-87749047D01*
X91924285Y-87952380D02*
X91590952Y-87476190D01*
X91352857Y-87952380D02*
X91352857Y-86952380D01*
X91733809Y-86952380D01*
X91829047Y-87000000D01*
X91876666Y-87047619D01*
X91924285Y-87142857D01*
X91924285Y-87285714D01*
X91876666Y-87380952D01*
X91829047Y-87428571D01*
X91733809Y-87476190D01*
X91352857Y-87476190D01*
X92352857Y-87571428D02*
X93114761Y-87571428D01*
X92733809Y-87952380D02*
X92733809Y-87190476D01*
X93495714Y-86952380D02*
X94114761Y-86952380D01*
X93781428Y-87333333D01*
X93924285Y-87333333D01*
X94019523Y-87380952D01*
X94067142Y-87428571D01*
X94114761Y-87523809D01*
X94114761Y-87761904D01*
X94067142Y-87857142D01*
X94019523Y-87904761D01*
X93924285Y-87952380D01*
X93638571Y-87952380D01*
X93543333Y-87904761D01*
X93495714Y-87857142D01*
X79224285Y-88082380D02*
X78890952Y-87606190D01*
X78652857Y-88082380D02*
X78652857Y-87082380D01*
X79033809Y-87082380D01*
X79129047Y-87130000D01*
X79176666Y-87177619D01*
X79224285Y-87272857D01*
X79224285Y-87415714D01*
X79176666Y-87510952D01*
X79129047Y-87558571D01*
X79033809Y-87606190D01*
X78652857Y-87606190D01*
X79652857Y-87701428D02*
X80414761Y-87701428D01*
X80033809Y-88082380D02*
X80033809Y-87320476D01*
X80843333Y-87177619D02*
X80890952Y-87130000D01*
X80986190Y-87082380D01*
X81224285Y-87082380D01*
X81319523Y-87130000D01*
X81367142Y-87177619D01*
X81414761Y-87272857D01*
X81414761Y-87368095D01*
X81367142Y-87510952D01*
X80795714Y-88082380D01*
X81414761Y-88082380D01*
X66524285Y-88082380D02*
X66190952Y-87606190D01*
X65952857Y-88082380D02*
X65952857Y-87082380D01*
X66333809Y-87082380D01*
X66429047Y-87130000D01*
X66476666Y-87177619D01*
X66524285Y-87272857D01*
X66524285Y-87415714D01*
X66476666Y-87510952D01*
X66429047Y-87558571D01*
X66333809Y-87606190D01*
X65952857Y-87606190D01*
X66952857Y-87701428D02*
X67714761Y-87701428D01*
X67333809Y-88082380D02*
X67333809Y-87320476D01*
X68714761Y-88082380D02*
X68143333Y-88082380D01*
X68429047Y-88082380D02*
X68429047Y-87082380D01*
X68333809Y-87225238D01*
X68238571Y-87320476D01*
X68143333Y-87368095D01*
X82602380Y-66238333D02*
X83316666Y-66238333D01*
X83459523Y-66285952D01*
X83554761Y-66381190D01*
X83602380Y-66524047D01*
X83602380Y-66619285D01*
X83602380Y-65762142D02*
X82602380Y-65762142D01*
X82602380Y-65381190D01*
X82650000Y-65285952D01*
X82697619Y-65238333D01*
X82792857Y-65190714D01*
X82935714Y-65190714D01*
X83030952Y-65238333D01*
X83078571Y-65285952D01*
X83126190Y-65381190D01*
X83126190Y-65762142D01*
X83602380Y-64238333D02*
X83602380Y-64809761D01*
X83602380Y-64524047D02*
X82602380Y-64524047D01*
X82745238Y-64619285D01*
X82840476Y-64714523D01*
X82888095Y-64809761D01*
X69902380Y-66238333D02*
X70616666Y-66238333D01*
X70759523Y-66285952D01*
X70854761Y-66381190D01*
X70902380Y-66524047D01*
X70902380Y-66619285D01*
X70902380Y-65762142D02*
X69902380Y-65762142D01*
X69902380Y-65381190D01*
X69950000Y-65285952D01*
X69997619Y-65238333D01*
X70092857Y-65190714D01*
X70235714Y-65190714D01*
X70330952Y-65238333D01*
X70378571Y-65285952D01*
X70426190Y-65381190D01*
X70426190Y-65762142D01*
X69902380Y-64571666D02*
X69902380Y-64476428D01*
X69950000Y-64381190D01*
X69997619Y-64333571D01*
X70092857Y-64285952D01*
X70283333Y-64238333D01*
X70521428Y-64238333D01*
X70711904Y-64285952D01*
X70807142Y-64333571D01*
X70854761Y-64381190D01*
X70902380Y-64476428D01*
X70902380Y-64571666D01*
X70854761Y-64666904D01*
X70807142Y-64714523D01*
X70711904Y-64762142D01*
X70521428Y-64809761D01*
X70283333Y-64809761D01*
X70092857Y-64762142D01*
X69997619Y-64714523D01*
X69950000Y-64666904D01*
X69902380Y-64571666D01*
X166361904Y-65317619D02*
X165790476Y-65317619D01*
X166076190Y-64317619D02*
X166076190Y-65317619D01*
X165457142Y-64317619D02*
X165457142Y-65317619D01*
X165076190Y-65317619D01*
X164980952Y-65270000D01*
X164933333Y-65222380D01*
X164885714Y-65127142D01*
X164885714Y-64984285D01*
X164933333Y-64889047D01*
X164980952Y-64841428D01*
X165076190Y-64793809D01*
X165457142Y-64793809D01*
X164504761Y-65222380D02*
X164457142Y-65270000D01*
X164361904Y-65317619D01*
X164123809Y-65317619D01*
X164028571Y-65270000D01*
X163980952Y-65222380D01*
X163933333Y-65127142D01*
X163933333Y-65031904D01*
X163980952Y-64889047D01*
X164552380Y-64317619D01*
X163933333Y-64317619D01*
X160011904Y-65317619D02*
X159440476Y-65317619D01*
X159726190Y-64317619D02*
X159726190Y-65317619D01*
X159107142Y-64317619D02*
X159107142Y-65317619D01*
X158726190Y-65317619D01*
X158630952Y-65270000D01*
X158583333Y-65222380D01*
X158535714Y-65127142D01*
X158535714Y-64984285D01*
X158583333Y-64889047D01*
X158630952Y-64841428D01*
X158726190Y-64793809D01*
X159107142Y-64793809D01*
X157583333Y-64317619D02*
X158154761Y-64317619D01*
X157869047Y-64317619D02*
X157869047Y-65317619D01*
X157964285Y-65174761D01*
X158059523Y-65079523D01*
X158154761Y-65031904D01*
X145248333Y-73977142D02*
X145200714Y-74024761D01*
X145057857Y-74072380D01*
X144962619Y-74072380D01*
X144819761Y-74024761D01*
X144724523Y-73929523D01*
X144676904Y-73834285D01*
X144629285Y-73643809D01*
X144629285Y-73500952D01*
X144676904Y-73310476D01*
X144724523Y-73215238D01*
X144819761Y-73120000D01*
X144962619Y-73072380D01*
X145057857Y-73072380D01*
X145200714Y-73120000D01*
X145248333Y-73167619D01*
X145581666Y-73072380D02*
X146200714Y-73072380D01*
X145867380Y-73453333D01*
X146010238Y-73453333D01*
X146105476Y-73500952D01*
X146153095Y-73548571D01*
X146200714Y-73643809D01*
X146200714Y-73881904D01*
X146153095Y-73977142D01*
X146105476Y-74024761D01*
X146010238Y-74072380D01*
X145724523Y-74072380D01*
X145629285Y-74024761D01*
X145581666Y-73977142D01*
X113498333Y-74017142D02*
X113450714Y-74064761D01*
X113307857Y-74112380D01*
X113212619Y-74112380D01*
X113069761Y-74064761D01*
X112974523Y-73969523D01*
X112926904Y-73874285D01*
X112879285Y-73683809D01*
X112879285Y-73540952D01*
X112926904Y-73350476D01*
X112974523Y-73255238D01*
X113069761Y-73160000D01*
X113212619Y-73112380D01*
X113307857Y-73112380D01*
X113450714Y-73160000D01*
X113498333Y-73207619D01*
X113879285Y-73207619D02*
X113926904Y-73160000D01*
X114022142Y-73112380D01*
X114260238Y-73112380D01*
X114355476Y-73160000D01*
X114403095Y-73207619D01*
X114450714Y-73302857D01*
X114450714Y-73398095D01*
X114403095Y-73540952D01*
X113831666Y-74112380D01*
X114450714Y-74112380D01*
X103338333Y-74017142D02*
X103290714Y-74064761D01*
X103147857Y-74112380D01*
X103052619Y-74112380D01*
X102909761Y-74064761D01*
X102814523Y-73969523D01*
X102766904Y-73874285D01*
X102719285Y-73683809D01*
X102719285Y-73540952D01*
X102766904Y-73350476D01*
X102814523Y-73255238D01*
X102909761Y-73160000D01*
X103052619Y-73112380D01*
X103147857Y-73112380D01*
X103290714Y-73160000D01*
X103338333Y-73207619D01*
X104290714Y-74112380D02*
X103719285Y-74112380D01*
X104005000Y-74112380D02*
X104005000Y-73112380D01*
X103909761Y-73255238D01*
X103814523Y-73350476D01*
X103719285Y-73398095D01*
M02*
