G04 #@! TF.GenerationSoftware,KiCad,Pcbnew,5.99.0+really5.1.10+dfsg1-1+b1*
G04 #@! TF.CreationDate,2021-10-12T16:58:35-05:00*
G04 #@! TF.ProjectId,potentiosynth,706f7465-6e74-4696-9f73-796e74682e6b,C*
G04 #@! TF.SameCoordinates,Original*
G04 #@! TF.FileFunction,Legend,Top*
G04 #@! TF.FilePolarity,Positive*
%FSLAX46Y46*%
G04 Gerber Fmt 4.6, Leading zero omitted, Abs format (unit mm)*
G04 Created by KiCad (PCBNEW 5.99.0+really5.1.10+dfsg1-1+b1) date 2021-10-12 16:58:35*
%MOMM*%
%LPD*%
G01*
G04 APERTURE LIST*
%ADD10C,0.635000*%
%ADD11C,0.150000*%
G04 #@! TA.AperFunction,Profile*
%ADD12C,0.150000*%
G04 #@! TD*
%ADD13C,0.120000*%
%ADD14C,0.127000*%
%ADD15C,0.200000*%
G04 APERTURE END LIST*
D10*
X108433809Y-116295714D02*
X108433809Y-117989047D01*
X107829047Y-115328095D02*
X107224285Y-117142380D01*
X108796666Y-117142380D01*
X133833809Y-115449047D02*
X133350000Y-115449047D01*
X133108095Y-115570000D01*
X132987142Y-115690952D01*
X132745238Y-116053809D01*
X132624285Y-116537619D01*
X132624285Y-117505238D01*
X132745238Y-117747142D01*
X132866190Y-117868095D01*
X133108095Y-117989047D01*
X133591904Y-117989047D01*
X133833809Y-117868095D01*
X133954761Y-117747142D01*
X134075714Y-117505238D01*
X134075714Y-116900476D01*
X133954761Y-116658571D01*
X133833809Y-116537619D01*
X133591904Y-116416666D01*
X133108095Y-116416666D01*
X132866190Y-116537619D01*
X132745238Y-116658571D01*
X132624285Y-116900476D01*
D11*
X65158333Y-67047619D02*
X65729761Y-67047619D01*
X65444047Y-67047619D02*
X65444047Y-68047619D01*
X65539285Y-67904761D01*
X65634523Y-67809523D01*
X65729761Y-67761904D01*
X64586904Y-67619047D02*
X64682142Y-67666666D01*
X64729761Y-67714285D01*
X64777380Y-67809523D01*
X64777380Y-67857142D01*
X64729761Y-67952380D01*
X64682142Y-68000000D01*
X64586904Y-68047619D01*
X64396428Y-68047619D01*
X64301190Y-68000000D01*
X64253571Y-67952380D01*
X64205952Y-67857142D01*
X64205952Y-67809523D01*
X64253571Y-67714285D01*
X64301190Y-67666666D01*
X64396428Y-67619047D01*
X64586904Y-67619047D01*
X64682142Y-67571428D01*
X64729761Y-67523809D01*
X64777380Y-67428571D01*
X64777380Y-67238095D01*
X64729761Y-67142857D01*
X64682142Y-67095238D01*
X64586904Y-67047619D01*
X64396428Y-67047619D01*
X64301190Y-67095238D01*
X64253571Y-67142857D01*
X64205952Y-67238095D01*
X64205952Y-67428571D01*
X64253571Y-67523809D01*
X64301190Y-67571428D01*
X64396428Y-67619047D01*
X63158333Y-67714285D02*
X62777380Y-67714285D01*
X63015476Y-68047619D02*
X63015476Y-67190476D01*
X62967857Y-67095238D01*
X62872619Y-67047619D01*
X62777380Y-67047619D01*
X62301190Y-67047619D02*
X62396428Y-67095238D01*
X62444047Y-67142857D01*
X62491666Y-67238095D01*
X62491666Y-67523809D01*
X62444047Y-67619047D01*
X62396428Y-67666666D01*
X62301190Y-67714285D01*
X62158333Y-67714285D01*
X62063095Y-67666666D01*
X62015476Y-67619047D01*
X61967857Y-67523809D01*
X61967857Y-67238095D01*
X62015476Y-67142857D01*
X62063095Y-67095238D01*
X62158333Y-67047619D01*
X62301190Y-67047619D01*
X60872619Y-68047619D02*
X60253571Y-68047619D01*
X60586904Y-67666666D01*
X60444047Y-67666666D01*
X60348809Y-67619047D01*
X60301190Y-67571428D01*
X60253571Y-67476190D01*
X60253571Y-67238095D01*
X60301190Y-67142857D01*
X60348809Y-67095238D01*
X60444047Y-67047619D01*
X60729761Y-67047619D01*
X60825000Y-67095238D01*
X60872619Y-67142857D01*
X59634523Y-68047619D02*
X59539285Y-68047619D01*
X59444047Y-68000000D01*
X59396428Y-67952380D01*
X59348809Y-67857142D01*
X59301190Y-67666666D01*
X59301190Y-67428571D01*
X59348809Y-67238095D01*
X59396428Y-67142857D01*
X59444047Y-67095238D01*
X59539285Y-67047619D01*
X59634523Y-67047619D01*
X59729761Y-67095238D01*
X59777380Y-67142857D01*
X59825000Y-67238095D01*
X59872619Y-67428571D01*
X59872619Y-67666666D01*
X59825000Y-67857142D01*
X59777380Y-67952380D01*
X59729761Y-68000000D01*
X59634523Y-68047619D01*
X58253571Y-68047619D02*
X57920238Y-67047619D01*
X57586904Y-68047619D01*
X56491666Y-67047619D02*
X56491666Y-68047619D01*
X56253571Y-68047619D01*
X56110714Y-68000000D01*
X56015476Y-67904761D01*
X55967857Y-67809523D01*
X55920238Y-67619047D01*
X55920238Y-67476190D01*
X55967857Y-67285714D01*
X56015476Y-67190476D01*
X56110714Y-67095238D01*
X56253571Y-67047619D01*
X56491666Y-67047619D01*
X54920238Y-67142857D02*
X54967857Y-67095238D01*
X55110714Y-67047619D01*
X55205952Y-67047619D01*
X55348809Y-67095238D01*
X55444047Y-67190476D01*
X55491666Y-67285714D01*
X55539285Y-67476190D01*
X55539285Y-67619047D01*
X55491666Y-67809523D01*
X55444047Y-67904761D01*
X55348809Y-68000000D01*
X55205952Y-68047619D01*
X55110714Y-68047619D01*
X54967857Y-68000000D01*
X54920238Y-67952380D01*
X65944047Y-65492857D02*
X65991666Y-65445238D01*
X66134523Y-65397619D01*
X66229761Y-65397619D01*
X66372619Y-65445238D01*
X66467857Y-65540476D01*
X66515476Y-65635714D01*
X66563095Y-65826190D01*
X66563095Y-65969047D01*
X66515476Y-66159523D01*
X66467857Y-66254761D01*
X66372619Y-66350000D01*
X66229761Y-66397619D01*
X66134523Y-66397619D01*
X65991666Y-66350000D01*
X65944047Y-66302380D01*
X65515476Y-65921428D02*
X65182142Y-65921428D01*
X65039285Y-65397619D02*
X65515476Y-65397619D01*
X65515476Y-66397619D01*
X65039285Y-66397619D01*
X64610714Y-65397619D02*
X64610714Y-66397619D01*
X64039285Y-65397619D01*
X64039285Y-66397619D01*
X63705952Y-66397619D02*
X63134523Y-66397619D01*
X63420238Y-65397619D02*
X63420238Y-66397619D01*
X62801190Y-65921428D02*
X62467857Y-65921428D01*
X62325000Y-65397619D02*
X62801190Y-65397619D01*
X62801190Y-66397619D01*
X62325000Y-66397619D01*
X61325000Y-65397619D02*
X61658333Y-65873809D01*
X61896428Y-65397619D02*
X61896428Y-66397619D01*
X61515476Y-66397619D01*
X61420238Y-66350000D01*
X61372619Y-66302380D01*
X61325000Y-66207142D01*
X61325000Y-66064285D01*
X61372619Y-65969047D01*
X61420238Y-65921428D01*
X61515476Y-65873809D01*
X61896428Y-65873809D01*
X60134523Y-65397619D02*
X60134523Y-66397619D01*
X59753571Y-66397619D01*
X59658333Y-66350000D01*
X59610714Y-66302380D01*
X59563095Y-66207142D01*
X59563095Y-66064285D01*
X59610714Y-65969047D01*
X59658333Y-65921428D01*
X59753571Y-65873809D01*
X60134523Y-65873809D01*
X58944047Y-66397619D02*
X58753571Y-66397619D01*
X58658333Y-66350000D01*
X58563095Y-66254761D01*
X58515476Y-66064285D01*
X58515476Y-65730952D01*
X58563095Y-65540476D01*
X58658333Y-65445238D01*
X58753571Y-65397619D01*
X58944047Y-65397619D01*
X59039285Y-65445238D01*
X59134523Y-65540476D01*
X59182142Y-65730952D01*
X59182142Y-66064285D01*
X59134523Y-66254761D01*
X59039285Y-66350000D01*
X58944047Y-66397619D01*
X58134523Y-65445238D02*
X57991666Y-65397619D01*
X57753571Y-65397619D01*
X57658333Y-65445238D01*
X57610714Y-65492857D01*
X57563095Y-65588095D01*
X57563095Y-65683333D01*
X57610714Y-65778571D01*
X57658333Y-65826190D01*
X57753571Y-65873809D01*
X57944047Y-65921428D01*
X58039285Y-65969047D01*
X58086904Y-66016666D01*
X58134523Y-66111904D01*
X58134523Y-66207142D01*
X58086904Y-66302380D01*
X58039285Y-66350000D01*
X57944047Y-66397619D01*
X57705952Y-66397619D01*
X57563095Y-66350000D01*
X57134523Y-65397619D02*
X57134523Y-66397619D01*
X56801190Y-66397619D02*
X56229761Y-66397619D01*
X56515476Y-65397619D02*
X56515476Y-66397619D01*
X55896428Y-65397619D02*
X55896428Y-66397619D01*
X55563095Y-66397619D02*
X55229761Y-65397619D01*
X54896428Y-66397619D01*
X54563095Y-65921428D02*
X54229761Y-65921428D01*
X54086904Y-65397619D02*
X54563095Y-65397619D01*
X54563095Y-66397619D01*
X54086904Y-66397619D01*
X168903571Y-102853333D02*
X168951190Y-102710476D01*
X168998809Y-102662857D01*
X169094047Y-102615238D01*
X169236904Y-102615238D01*
X169332142Y-102662857D01*
X169379761Y-102710476D01*
X169427380Y-102805714D01*
X169427380Y-103186666D01*
X168427380Y-103186666D01*
X168427380Y-102853333D01*
X168475000Y-102758095D01*
X168522619Y-102710476D01*
X168617857Y-102662857D01*
X168713095Y-102662857D01*
X168808333Y-102710476D01*
X168855952Y-102758095D01*
X168903571Y-102853333D01*
X168903571Y-103186666D01*
X169427380Y-101710476D02*
X169427380Y-102186666D01*
X168427380Y-102186666D01*
X169141666Y-101424761D02*
X169141666Y-100948571D01*
X169427380Y-101520000D02*
X168427380Y-101186666D01*
X169427380Y-100853333D01*
X169427380Y-100520000D02*
X168427380Y-100520000D01*
X169379761Y-100091428D02*
X169427380Y-99948571D01*
X169427380Y-99710476D01*
X169379761Y-99615238D01*
X169332142Y-99567619D01*
X169236904Y-99520000D01*
X169141666Y-99520000D01*
X169046428Y-99567619D01*
X168998809Y-99615238D01*
X168951190Y-99710476D01*
X168903571Y-99900952D01*
X168855952Y-99996190D01*
X168808333Y-100043809D01*
X168713095Y-100091428D01*
X168617857Y-100091428D01*
X168522619Y-100043809D01*
X168475000Y-99996190D01*
X168427380Y-99900952D01*
X168427380Y-99662857D01*
X168475000Y-99520000D01*
X168903571Y-99091428D02*
X168903571Y-98758095D01*
X169427380Y-98615238D02*
X169427380Y-99091428D01*
X168427380Y-99091428D01*
X168427380Y-98615238D01*
X168427380Y-97567619D02*
X168427380Y-96996190D01*
X169427380Y-97281904D02*
X168427380Y-97281904D01*
X169427380Y-96662857D02*
X168427380Y-96662857D01*
X168903571Y-96662857D02*
X168903571Y-96091428D01*
X169427380Y-96091428D02*
X168427380Y-96091428D01*
X168427380Y-95424761D02*
X168427380Y-95234285D01*
X168475000Y-95139047D01*
X168570238Y-95043809D01*
X168760714Y-94996190D01*
X169094047Y-94996190D01*
X169284523Y-95043809D01*
X169379761Y-95139047D01*
X169427380Y-95234285D01*
X169427380Y-95424761D01*
X169379761Y-95520000D01*
X169284523Y-95615238D01*
X169094047Y-95662857D01*
X168760714Y-95662857D01*
X168570238Y-95615238D01*
X168475000Y-95520000D01*
X168427380Y-95424761D01*
X169427380Y-94567619D02*
X168427380Y-94567619D01*
X169141666Y-94234285D01*
X168427380Y-93900952D01*
X169427380Y-93900952D01*
X169427380Y-93424761D02*
X168427380Y-93424761D01*
X168427380Y-93043809D01*
X168475000Y-92948571D01*
X168522619Y-92900952D01*
X168617857Y-92853333D01*
X168760714Y-92853333D01*
X168855952Y-92900952D01*
X168903571Y-92948571D01*
X168951190Y-93043809D01*
X168951190Y-93424761D01*
X169379761Y-92472380D02*
X169427380Y-92329523D01*
X169427380Y-92091428D01*
X169379761Y-91996190D01*
X169332142Y-91948571D01*
X169236904Y-91900952D01*
X169141666Y-91900952D01*
X169046428Y-91948571D01*
X168998809Y-91996190D01*
X168951190Y-92091428D01*
X168903571Y-92281904D01*
X168855952Y-92377142D01*
X168808333Y-92424761D01*
X168713095Y-92472380D01*
X168617857Y-92472380D01*
X168522619Y-92424761D01*
X168475000Y-92377142D01*
X168427380Y-92281904D01*
X168427380Y-92043809D01*
X168475000Y-91900952D01*
X168427380Y-91281904D02*
X168427380Y-91091428D01*
X168475000Y-90996190D01*
X168570238Y-90900952D01*
X168760714Y-90853333D01*
X169094047Y-90853333D01*
X169284523Y-90900952D01*
X169379761Y-90996190D01*
X169427380Y-91091428D01*
X169427380Y-91281904D01*
X169379761Y-91377142D01*
X169284523Y-91472380D01*
X169094047Y-91520000D01*
X168760714Y-91520000D01*
X168570238Y-91472380D01*
X168475000Y-91377142D01*
X168427380Y-91281904D01*
X169427380Y-90424761D02*
X168427380Y-90424761D01*
X169427380Y-89853333D01*
X168427380Y-89853333D01*
X170077380Y-101258095D02*
X170886904Y-101258095D01*
X170982142Y-101210476D01*
X171029761Y-101162857D01*
X171077380Y-101067619D01*
X171077380Y-100877142D01*
X171029761Y-100781904D01*
X170982142Y-100734285D01*
X170886904Y-100686666D01*
X170077380Y-100686666D01*
X170077380Y-100305714D02*
X171077380Y-100067619D01*
X170363095Y-99877142D01*
X171077380Y-99686666D01*
X170077380Y-99448571D01*
X170696428Y-99067619D02*
X170696428Y-98305714D01*
X171077380Y-97829523D02*
X170077380Y-97829523D01*
X170791666Y-97496190D01*
X170077380Y-97162857D01*
X171077380Y-97162857D01*
X170791666Y-96734285D02*
X170791666Y-96258095D01*
X171077380Y-96829523D02*
X170077380Y-96496190D01*
X171077380Y-96162857D01*
X171077380Y-95829523D02*
X170077380Y-95829523D01*
X170077380Y-95591428D01*
X170125000Y-95448571D01*
X170220238Y-95353333D01*
X170315476Y-95305714D01*
X170505952Y-95258095D01*
X170648809Y-95258095D01*
X170839285Y-95305714D01*
X170934523Y-95353333D01*
X171029761Y-95448571D01*
X171077380Y-95591428D01*
X171077380Y-95829523D01*
X171077380Y-94829523D02*
X170077380Y-94829523D01*
X171029761Y-94400952D02*
X171077380Y-94258095D01*
X171077380Y-94020000D01*
X171029761Y-93924761D01*
X170982142Y-93877142D01*
X170886904Y-93829523D01*
X170791666Y-93829523D01*
X170696428Y-93877142D01*
X170648809Y-93924761D01*
X170601190Y-94020000D01*
X170553571Y-94210476D01*
X170505952Y-94305714D01*
X170458333Y-94353333D01*
X170363095Y-94400952D01*
X170267857Y-94400952D01*
X170172619Y-94353333D01*
X170125000Y-94305714D01*
X170077380Y-94210476D01*
X170077380Y-93972380D01*
X170125000Y-93829523D01*
X170077380Y-93210476D02*
X170077380Y-93020000D01*
X170125000Y-92924761D01*
X170220238Y-92829523D01*
X170410714Y-92781904D01*
X170744047Y-92781904D01*
X170934523Y-92829523D01*
X171029761Y-92924761D01*
X171077380Y-93020000D01*
X171077380Y-93210476D01*
X171029761Y-93305714D01*
X170934523Y-93400952D01*
X170744047Y-93448571D01*
X170410714Y-93448571D01*
X170220238Y-93400952D01*
X170125000Y-93305714D01*
X170077380Y-93210476D01*
X171077380Y-92353333D02*
X170077380Y-92353333D01*
X171077380Y-91781904D01*
X170077380Y-91781904D01*
X172727380Y-106758095D02*
X171727380Y-106758095D01*
X171727380Y-106520000D01*
X171775000Y-106377142D01*
X171870238Y-106281904D01*
X171965476Y-106234285D01*
X172155952Y-106186666D01*
X172298809Y-106186666D01*
X172489285Y-106234285D01*
X172584523Y-106281904D01*
X172679761Y-106377142D01*
X172727380Y-106520000D01*
X172727380Y-106758095D01*
X172203571Y-105758095D02*
X172203571Y-105424761D01*
X172727380Y-105281904D02*
X172727380Y-105758095D01*
X171727380Y-105758095D01*
X171727380Y-105281904D01*
X172727380Y-104853333D02*
X171727380Y-104853333D01*
X171727380Y-104472380D01*
X171775000Y-104377142D01*
X171822619Y-104329523D01*
X171917857Y-104281904D01*
X172060714Y-104281904D01*
X172155952Y-104329523D01*
X172203571Y-104377142D01*
X172251190Y-104472380D01*
X172251190Y-104853333D01*
X172441666Y-103900952D02*
X172441666Y-103424761D01*
X172727380Y-103996190D02*
X171727380Y-103662857D01*
X172727380Y-103329523D01*
X172727380Y-102424761D02*
X172251190Y-102758095D01*
X172727380Y-102996190D02*
X171727380Y-102996190D01*
X171727380Y-102615238D01*
X171775000Y-102520000D01*
X171822619Y-102472380D01*
X171917857Y-102424761D01*
X172060714Y-102424761D01*
X172155952Y-102472380D01*
X172203571Y-102520000D01*
X172251190Y-102615238D01*
X172251190Y-102996190D01*
X171727380Y-102139047D02*
X171727380Y-101567619D01*
X172727380Y-101853333D02*
X171727380Y-101853333D01*
X172727380Y-101234285D02*
X171727380Y-101234285D01*
X172441666Y-100900952D01*
X171727380Y-100567619D01*
X172727380Y-100567619D01*
X172203571Y-100091428D02*
X172203571Y-99758095D01*
X172727380Y-99615238D02*
X172727380Y-100091428D01*
X171727380Y-100091428D01*
X171727380Y-99615238D01*
X172727380Y-99186666D02*
X171727380Y-99186666D01*
X172727380Y-98615238D01*
X171727380Y-98615238D01*
X171727380Y-98281904D02*
X171727380Y-97710476D01*
X172727380Y-97996190D02*
X171727380Y-97996190D01*
X171727380Y-96424761D02*
X171727380Y-96234285D01*
X171775000Y-96139047D01*
X171870238Y-96043809D01*
X172060714Y-95996190D01*
X172394047Y-95996190D01*
X172584523Y-96043809D01*
X172679761Y-96139047D01*
X172727380Y-96234285D01*
X172727380Y-96424761D01*
X172679761Y-96520000D01*
X172584523Y-96615238D01*
X172394047Y-96662857D01*
X172060714Y-96662857D01*
X171870238Y-96615238D01*
X171775000Y-96520000D01*
X171727380Y-96424761D01*
X172203571Y-95234285D02*
X172203571Y-95567619D01*
X172727380Y-95567619D02*
X171727380Y-95567619D01*
X171727380Y-95091428D01*
X172632142Y-93377142D02*
X172679761Y-93424761D01*
X172727380Y-93567619D01*
X172727380Y-93662857D01*
X172679761Y-93805714D01*
X172584523Y-93900952D01*
X172489285Y-93948571D01*
X172298809Y-93996190D01*
X172155952Y-93996190D01*
X171965476Y-93948571D01*
X171870238Y-93900952D01*
X171775000Y-93805714D01*
X171727380Y-93662857D01*
X171727380Y-93567619D01*
X171775000Y-93424761D01*
X171822619Y-93377142D01*
X172727380Y-92948571D02*
X171727380Y-92948571D01*
X172203571Y-92948571D02*
X172203571Y-92377142D01*
X172727380Y-92377142D02*
X171727380Y-92377142D01*
X172203571Y-91900952D02*
X172203571Y-91567619D01*
X172727380Y-91424761D02*
X172727380Y-91900952D01*
X171727380Y-91900952D01*
X171727380Y-91424761D01*
X172727380Y-90996190D02*
X171727380Y-90996190D01*
X172441666Y-90662857D01*
X171727380Y-90329523D01*
X172727380Y-90329523D01*
X172727380Y-89853333D02*
X171727380Y-89853333D01*
X172679761Y-89424761D02*
X172727380Y-89281904D01*
X172727380Y-89043809D01*
X172679761Y-88948571D01*
X172632142Y-88900952D01*
X172536904Y-88853333D01*
X172441666Y-88853333D01*
X172346428Y-88900952D01*
X172298809Y-88948571D01*
X172251190Y-89043809D01*
X172203571Y-89234285D01*
X172155952Y-89329523D01*
X172108333Y-89377142D01*
X172013095Y-89424761D01*
X171917857Y-89424761D01*
X171822619Y-89377142D01*
X171775000Y-89329523D01*
X171727380Y-89234285D01*
X171727380Y-88996190D01*
X171775000Y-88853333D01*
X171727380Y-88567619D02*
X171727380Y-87996190D01*
X172727380Y-88281904D02*
X171727380Y-88281904D01*
X172727380Y-87091428D02*
X172251190Y-87424761D01*
X172727380Y-87662857D02*
X171727380Y-87662857D01*
X171727380Y-87281904D01*
X171775000Y-87186666D01*
X171822619Y-87139047D01*
X171917857Y-87091428D01*
X172060714Y-87091428D01*
X172155952Y-87139047D01*
X172203571Y-87186666D01*
X172251190Y-87281904D01*
X172251190Y-87662857D01*
X172251190Y-86472380D02*
X172727380Y-86472380D01*
X171727380Y-86805714D02*
X172251190Y-86472380D01*
X171727380Y-86139047D01*
X173377380Y-102567619D02*
X174377380Y-102329523D01*
X173663095Y-102139047D01*
X174377380Y-101948571D01*
X173377380Y-101710476D01*
X174377380Y-101329523D02*
X173377380Y-101329523D01*
X174282142Y-100281904D02*
X174329761Y-100329523D01*
X174377380Y-100472380D01*
X174377380Y-100567619D01*
X174329761Y-100710476D01*
X174234523Y-100805714D01*
X174139285Y-100853333D01*
X173948809Y-100900952D01*
X173805952Y-100900952D01*
X173615476Y-100853333D01*
X173520238Y-100805714D01*
X173425000Y-100710476D01*
X173377380Y-100567619D01*
X173377380Y-100472380D01*
X173425000Y-100329523D01*
X173472619Y-100281904D01*
X174377380Y-99853333D02*
X173377380Y-99853333D01*
X174377380Y-99281904D02*
X173805952Y-99710476D01*
X173377380Y-99281904D02*
X173948809Y-99853333D01*
X173853571Y-98853333D02*
X173853571Y-98520000D01*
X174377380Y-98377142D02*
X174377380Y-98853333D01*
X173377380Y-98853333D01*
X173377380Y-98377142D01*
X174377380Y-97948571D02*
X173377380Y-97948571D01*
X174377380Y-97377142D01*
X173377380Y-97377142D01*
X174329761Y-96948571D02*
X174377380Y-96805714D01*
X174377380Y-96567619D01*
X174329761Y-96472380D01*
X174282142Y-96424761D01*
X174186904Y-96377142D01*
X174091666Y-96377142D01*
X173996428Y-96424761D01*
X173948809Y-96472380D01*
X173901190Y-96567619D01*
X173853571Y-96758095D01*
X173805952Y-96853333D01*
X173758333Y-96900952D01*
X173663095Y-96948571D01*
X173567857Y-96948571D01*
X173472619Y-96900952D01*
X173425000Y-96853333D01*
X173377380Y-96758095D01*
X173377380Y-96520000D01*
X173425000Y-96377142D01*
X173425000Y-94662857D02*
X173377380Y-94758095D01*
X173377380Y-94900952D01*
X173425000Y-95043809D01*
X173520238Y-95139047D01*
X173615476Y-95186666D01*
X173805952Y-95234285D01*
X173948809Y-95234285D01*
X174139285Y-95186666D01*
X174234523Y-95139047D01*
X174329761Y-95043809D01*
X174377380Y-94900952D01*
X174377380Y-94805714D01*
X174329761Y-94662857D01*
X174282142Y-94615238D01*
X173948809Y-94615238D01*
X173948809Y-94805714D01*
X174377380Y-93615238D02*
X173901190Y-93948571D01*
X174377380Y-94186666D02*
X173377380Y-94186666D01*
X173377380Y-93805714D01*
X173425000Y-93710476D01*
X173472619Y-93662857D01*
X173567857Y-93615238D01*
X173710714Y-93615238D01*
X173805952Y-93662857D01*
X173853571Y-93710476D01*
X173901190Y-93805714D01*
X173901190Y-94186666D01*
X173377380Y-92996190D02*
X173377380Y-92805714D01*
X173425000Y-92710476D01*
X173520238Y-92615238D01*
X173710714Y-92567619D01*
X174044047Y-92567619D01*
X174234523Y-92615238D01*
X174329761Y-92710476D01*
X174377380Y-92805714D01*
X174377380Y-92996190D01*
X174329761Y-93091428D01*
X174234523Y-93186666D01*
X174044047Y-93234285D01*
X173710714Y-93234285D01*
X173520238Y-93186666D01*
X173425000Y-93091428D01*
X173377380Y-92996190D01*
X173377380Y-92139047D02*
X174186904Y-92139047D01*
X174282142Y-92091428D01*
X174329761Y-92043809D01*
X174377380Y-91948571D01*
X174377380Y-91758095D01*
X174329761Y-91662857D01*
X174282142Y-91615238D01*
X174186904Y-91567619D01*
X173377380Y-91567619D01*
X174377380Y-91091428D02*
X173377380Y-91091428D01*
X173377380Y-90710476D01*
X173425000Y-90615238D01*
X173472619Y-90567619D01*
X173567857Y-90520000D01*
X173710714Y-90520000D01*
X173805952Y-90567619D01*
X173853571Y-90615238D01*
X173901190Y-90710476D01*
X173901190Y-91091428D01*
X58347619Y-89630952D02*
X59347619Y-89630952D01*
X59347619Y-90011904D01*
X59300000Y-90107142D01*
X59252380Y-90154761D01*
X59157142Y-90202380D01*
X59014285Y-90202380D01*
X58919047Y-90154761D01*
X58871428Y-90107142D01*
X58823809Y-90011904D01*
X58823809Y-89630952D01*
X59347619Y-90821428D02*
X59347619Y-91011904D01*
X59300000Y-91107142D01*
X59204761Y-91202380D01*
X59014285Y-91250000D01*
X58680952Y-91250000D01*
X58490476Y-91202380D01*
X58395238Y-91107142D01*
X58347619Y-91011904D01*
X58347619Y-90821428D01*
X58395238Y-90726190D01*
X58490476Y-90630952D01*
X58680952Y-90583333D01*
X59014285Y-90583333D01*
X59204761Y-90630952D01*
X59300000Y-90726190D01*
X59347619Y-90821428D01*
X59347619Y-91535714D02*
X59347619Y-92107142D01*
X58347619Y-91821428D02*
X59347619Y-91821428D01*
X58871428Y-92440476D02*
X58871428Y-92773809D01*
X58347619Y-92916666D02*
X58347619Y-92440476D01*
X59347619Y-92440476D01*
X59347619Y-92916666D01*
X58347619Y-93345238D02*
X59347619Y-93345238D01*
X58347619Y-93916666D01*
X59347619Y-93916666D01*
X59347619Y-94250000D02*
X59347619Y-94821428D01*
X58347619Y-94535714D02*
X59347619Y-94535714D01*
X58347619Y-95154761D02*
X59347619Y-95154761D01*
X59347619Y-95821428D02*
X59347619Y-96011904D01*
X59300000Y-96107142D01*
X59204761Y-96202380D01*
X59014285Y-96250000D01*
X58680952Y-96250000D01*
X58490476Y-96202380D01*
X58395238Y-96107142D01*
X58347619Y-96011904D01*
X58347619Y-95821428D01*
X58395238Y-95726190D01*
X58490476Y-95630952D01*
X58680952Y-95583333D01*
X59014285Y-95583333D01*
X59204761Y-95630952D01*
X59300000Y-95726190D01*
X59347619Y-95821428D01*
X58395238Y-96630952D02*
X58347619Y-96773809D01*
X58347619Y-97011904D01*
X58395238Y-97107142D01*
X58442857Y-97154761D01*
X58538095Y-97202380D01*
X58633333Y-97202380D01*
X58728571Y-97154761D01*
X58776190Y-97107142D01*
X58823809Y-97011904D01*
X58871428Y-96821428D01*
X58919047Y-96726190D01*
X58966666Y-96678571D01*
X59061904Y-96630952D01*
X59157142Y-96630952D01*
X59252380Y-96678571D01*
X59300000Y-96726190D01*
X59347619Y-96821428D01*
X59347619Y-97059523D01*
X59300000Y-97202380D01*
X58823809Y-97821428D02*
X58347619Y-97821428D01*
X59347619Y-97488095D02*
X58823809Y-97821428D01*
X59347619Y-98154761D01*
X58347619Y-98488095D02*
X59347619Y-98488095D01*
X58347619Y-99059523D01*
X59347619Y-99059523D01*
X59347619Y-99392857D02*
X59347619Y-99964285D01*
X58347619Y-99678571D02*
X59347619Y-99678571D01*
X58347619Y-100297619D02*
X59347619Y-100297619D01*
X58871428Y-100297619D02*
X58871428Y-100869047D01*
X58347619Y-100869047D02*
X59347619Y-100869047D01*
X56697619Y-91797619D02*
X57173809Y-91464285D01*
X56697619Y-91226190D02*
X57697619Y-91226190D01*
X57697619Y-91607142D01*
X57650000Y-91702380D01*
X57602380Y-91750000D01*
X57507142Y-91797619D01*
X57364285Y-91797619D01*
X57269047Y-91750000D01*
X57221428Y-91702380D01*
X57173809Y-91607142D01*
X57173809Y-91226190D01*
X57221428Y-92226190D02*
X57221428Y-92559523D01*
X56697619Y-92702380D02*
X56697619Y-92226190D01*
X57697619Y-92226190D01*
X57697619Y-92702380D01*
X57697619Y-92988095D02*
X56697619Y-93321428D01*
X57697619Y-93654761D01*
X56697619Y-93988095D02*
X57697619Y-93988095D01*
X56745238Y-94416666D02*
X56697619Y-94559523D01*
X56697619Y-94797619D01*
X56745238Y-94892857D01*
X56792857Y-94940476D01*
X56888095Y-94988095D01*
X56983333Y-94988095D01*
X57078571Y-94940476D01*
X57126190Y-94892857D01*
X57173809Y-94797619D01*
X57221428Y-94607142D01*
X57269047Y-94511904D01*
X57316666Y-94464285D01*
X57411904Y-94416666D01*
X57507142Y-94416666D01*
X57602380Y-94464285D01*
X57650000Y-94511904D01*
X57697619Y-94607142D01*
X57697619Y-94845238D01*
X57650000Y-94988095D01*
X56697619Y-95416666D02*
X57697619Y-95416666D01*
X57697619Y-96083333D02*
X57697619Y-96273809D01*
X57650000Y-96369047D01*
X57554761Y-96464285D01*
X57364285Y-96511904D01*
X57030952Y-96511904D01*
X56840476Y-96464285D01*
X56745238Y-96369047D01*
X56697619Y-96273809D01*
X56697619Y-96083333D01*
X56745238Y-95988095D01*
X56840476Y-95892857D01*
X57030952Y-95845238D01*
X57364285Y-95845238D01*
X57554761Y-95892857D01*
X57650000Y-95988095D01*
X57697619Y-96083333D01*
X56697619Y-96940476D02*
X57697619Y-96940476D01*
X56697619Y-97511904D01*
X57697619Y-97511904D01*
X56792857Y-99321428D02*
X56745238Y-99273809D01*
X56697619Y-99130952D01*
X56697619Y-99035714D01*
X56745238Y-98892857D01*
X56840476Y-98797619D01*
X56935714Y-98750000D01*
X57126190Y-98702380D01*
X57269047Y-98702380D01*
X57459523Y-98750000D01*
X57554761Y-98797619D01*
X57650000Y-98892857D01*
X57697619Y-99035714D01*
X57697619Y-99130952D01*
X57650000Y-99273809D01*
X57602380Y-99321428D01*
X56047619Y-90011904D02*
X56047619Y-90202380D01*
X56000000Y-90297619D01*
X55904761Y-90392857D01*
X55714285Y-90440476D01*
X55380952Y-90440476D01*
X55190476Y-90392857D01*
X55095238Y-90297619D01*
X55047619Y-90202380D01*
X55047619Y-90011904D01*
X55095238Y-89916666D01*
X55190476Y-89821428D01*
X55380952Y-89773809D01*
X55714285Y-89773809D01*
X55904761Y-89821428D01*
X56000000Y-89916666D01*
X56047619Y-90011904D01*
X55142857Y-91440476D02*
X55095238Y-91392857D01*
X55047619Y-91250000D01*
X55047619Y-91154761D01*
X55095238Y-91011904D01*
X55190476Y-90916666D01*
X55285714Y-90869047D01*
X55476190Y-90821428D01*
X55619047Y-90821428D01*
X55809523Y-90869047D01*
X55904761Y-90916666D01*
X56000000Y-91011904D01*
X56047619Y-91154761D01*
X56047619Y-91250000D01*
X56000000Y-91392857D01*
X55952380Y-91440476D01*
X56047619Y-91726190D02*
X56047619Y-92297619D01*
X55047619Y-92011904D02*
X56047619Y-92011904D01*
X56047619Y-92821428D02*
X56047619Y-93011904D01*
X56000000Y-93107142D01*
X55904761Y-93202380D01*
X55714285Y-93250000D01*
X55380952Y-93250000D01*
X55190476Y-93202380D01*
X55095238Y-93107142D01*
X55047619Y-93011904D01*
X55047619Y-92821428D01*
X55095238Y-92726190D01*
X55190476Y-92630952D01*
X55380952Y-92583333D01*
X55714285Y-92583333D01*
X55904761Y-92630952D01*
X56000000Y-92726190D01*
X56047619Y-92821428D01*
X55571428Y-94011904D02*
X55523809Y-94154761D01*
X55476190Y-94202380D01*
X55380952Y-94250000D01*
X55238095Y-94250000D01*
X55142857Y-94202380D01*
X55095238Y-94154761D01*
X55047619Y-94059523D01*
X55047619Y-93678571D01*
X56047619Y-93678571D01*
X56047619Y-94011904D01*
X56000000Y-94107142D01*
X55952380Y-94154761D01*
X55857142Y-94202380D01*
X55761904Y-94202380D01*
X55666666Y-94154761D01*
X55619047Y-94107142D01*
X55571428Y-94011904D01*
X55571428Y-93678571D01*
X55571428Y-94678571D02*
X55571428Y-95011904D01*
X55047619Y-95154761D02*
X55047619Y-94678571D01*
X56047619Y-94678571D01*
X56047619Y-95154761D01*
X55047619Y-96154761D02*
X55523809Y-95821428D01*
X55047619Y-95583333D02*
X56047619Y-95583333D01*
X56047619Y-95964285D01*
X56000000Y-96059523D01*
X55952380Y-96107142D01*
X55857142Y-96154761D01*
X55714285Y-96154761D01*
X55619047Y-96107142D01*
X55571428Y-96059523D01*
X55523809Y-95964285D01*
X55523809Y-95583333D01*
X55952380Y-97297619D02*
X56000000Y-97345238D01*
X56047619Y-97440476D01*
X56047619Y-97678571D01*
X56000000Y-97773809D01*
X55952380Y-97821428D01*
X55857142Y-97869047D01*
X55761904Y-97869047D01*
X55619047Y-97821428D01*
X55047619Y-97250000D01*
X55047619Y-97869047D01*
X56047619Y-98488095D02*
X56047619Y-98583333D01*
X56000000Y-98678571D01*
X55952380Y-98726190D01*
X55857142Y-98773809D01*
X55666666Y-98821428D01*
X55428571Y-98821428D01*
X55238095Y-98773809D01*
X55142857Y-98726190D01*
X55095238Y-98678571D01*
X55047619Y-98583333D01*
X55047619Y-98488095D01*
X55095238Y-98392857D01*
X55142857Y-98345238D01*
X55238095Y-98297619D01*
X55428571Y-98250000D01*
X55666666Y-98250000D01*
X55857142Y-98297619D01*
X55952380Y-98345238D01*
X56000000Y-98392857D01*
X56047619Y-98488095D01*
X55952380Y-99202380D02*
X56000000Y-99250000D01*
X56047619Y-99345238D01*
X56047619Y-99583333D01*
X56000000Y-99678571D01*
X55952380Y-99726190D01*
X55857142Y-99773809D01*
X55761904Y-99773809D01*
X55619047Y-99726190D01*
X55047619Y-99154761D01*
X55047619Y-99773809D01*
X55047619Y-100726190D02*
X55047619Y-100154761D01*
X55047619Y-100440476D02*
X56047619Y-100440476D01*
X55904761Y-100345238D01*
X55809523Y-100250000D01*
X55761904Y-100154761D01*
D10*
X158508095Y-116537619D02*
X158266190Y-116416666D01*
X158145238Y-116295714D01*
X158024285Y-116053809D01*
X158024285Y-115932857D01*
X158145238Y-115690952D01*
X158266190Y-115570000D01*
X158508095Y-115449047D01*
X158991904Y-115449047D01*
X159233809Y-115570000D01*
X159354761Y-115690952D01*
X159475714Y-115932857D01*
X159475714Y-116053809D01*
X159354761Y-116295714D01*
X159233809Y-116416666D01*
X158991904Y-116537619D01*
X158508095Y-116537619D01*
X158266190Y-116658571D01*
X158145238Y-116779523D01*
X158024285Y-117021428D01*
X158024285Y-117505238D01*
X158145238Y-117747142D01*
X158266190Y-117868095D01*
X158508095Y-117989047D01*
X158991904Y-117989047D01*
X159233809Y-117868095D01*
X159354761Y-117747142D01*
X159475714Y-117505238D01*
X159475714Y-117021428D01*
X159354761Y-116779523D01*
X159233809Y-116658571D01*
X158991904Y-116537619D01*
X145203333Y-115449047D02*
X146896666Y-115449047D01*
X145808095Y-117989047D01*
X121254761Y-115449047D02*
X120045238Y-115449047D01*
X119924285Y-116658571D01*
X120045238Y-116537619D01*
X120287142Y-116416666D01*
X120891904Y-116416666D01*
X121133809Y-116537619D01*
X121254761Y-116658571D01*
X121375714Y-116900476D01*
X121375714Y-117505238D01*
X121254761Y-117747142D01*
X121133809Y-117868095D01*
X120891904Y-117989047D01*
X120287142Y-117989047D01*
X120045238Y-117868095D01*
X119924285Y-117747142D01*
X81824285Y-115690952D02*
X81945238Y-115570000D01*
X82187142Y-115449047D01*
X82791904Y-115449047D01*
X83033809Y-115570000D01*
X83154761Y-115690952D01*
X83275714Y-115932857D01*
X83275714Y-116174761D01*
X83154761Y-116537619D01*
X81703333Y-117989047D01*
X83275714Y-117989047D01*
X94403333Y-115449047D02*
X95975714Y-115449047D01*
X95129047Y-116416666D01*
X95491904Y-116416666D01*
X95733809Y-116537619D01*
X95854761Y-116658571D01*
X95975714Y-116900476D01*
X95975714Y-117505238D01*
X95854761Y-117747142D01*
X95733809Y-117868095D01*
X95491904Y-117989047D01*
X94766190Y-117989047D01*
X94524285Y-117868095D01*
X94403333Y-117747142D01*
X70575714Y-117989047D02*
X69124285Y-117989047D01*
X69850000Y-117989047D02*
X69850000Y-115449047D01*
X69608095Y-115811904D01*
X69366190Y-116053809D01*
X69124285Y-116174761D01*
D12*
X50800000Y-127000000D02*
X177800000Y-127000000D01*
X50800000Y-63500000D02*
X177800000Y-63500000D01*
X50800000Y-127000000D02*
X50800000Y-63500000D01*
X177800000Y-127000000D02*
X177800000Y-63500000D01*
D13*
X117551252Y-65130000D02*
X116128748Y-65130000D01*
X117551252Y-66950000D02*
X116128748Y-66950000D01*
X136448748Y-79650000D02*
X137871252Y-79650000D01*
X136448748Y-77830000D02*
X137871252Y-77830000D01*
X65415000Y-105410000D02*
X65415000Y-107360000D01*
X65415000Y-105410000D02*
X65415000Y-103460000D01*
X74285000Y-105410000D02*
X74285000Y-107360000D01*
X74285000Y-105410000D02*
X74285000Y-101960000D01*
X90815000Y-105410000D02*
X90815000Y-107360000D01*
X90815000Y-105410000D02*
X90815000Y-103460000D01*
X99685000Y-105410000D02*
X99685000Y-107360000D01*
X99685000Y-105410000D02*
X99685000Y-101960000D01*
X77350000Y-123245000D02*
X77350000Y-122486000D01*
X76135000Y-121726000D02*
X78565000Y-121726000D01*
X76135000Y-123245000D02*
X78565000Y-123245000D01*
X78565000Y-123245000D02*
X78565000Y-121726000D01*
X76135000Y-123245000D02*
X76135000Y-121726000D01*
X73670000Y-111955000D02*
X78740000Y-111955000D01*
X73670000Y-121725000D02*
X78740000Y-121725000D01*
X78740000Y-121725000D02*
X78740000Y-111955000D01*
X73670000Y-121725000D02*
X73670000Y-111955000D01*
X147738752Y-110850000D02*
X146316248Y-110850000D01*
X147738752Y-112670000D02*
X146316248Y-112670000D01*
X135038752Y-110850000D02*
X133616248Y-110850000D01*
X135038752Y-112670000D02*
X133616248Y-112670000D01*
X122338752Y-110850000D02*
X120916248Y-110850000D01*
X122338752Y-112670000D02*
X120916248Y-112670000D01*
X96938752Y-110850000D02*
X95516248Y-110850000D01*
X96938752Y-112670000D02*
X95516248Y-112670000D01*
X71538752Y-110850000D02*
X70116248Y-110850000D01*
X71538752Y-112670000D02*
X70116248Y-112670000D01*
X84238752Y-110850000D02*
X82816248Y-110850000D01*
X84238752Y-112670000D02*
X82816248Y-112670000D01*
X109638752Y-110850000D02*
X108216248Y-110850000D01*
X109638752Y-112670000D02*
X108216248Y-112670000D01*
X160438752Y-110850000D02*
X159016248Y-110850000D01*
X160438752Y-112670000D02*
X159016248Y-112670000D01*
X86670000Y-90680000D02*
X85740000Y-90680000D01*
X83510000Y-90680000D02*
X84440000Y-90680000D01*
X83510000Y-90680000D02*
X83510000Y-93840000D01*
X86670000Y-90680000D02*
X86670000Y-92140000D01*
X162870000Y-90680000D02*
X161940000Y-90680000D01*
X159710000Y-90680000D02*
X160640000Y-90680000D01*
X159710000Y-90680000D02*
X159710000Y-93840000D01*
X162870000Y-90680000D02*
X162870000Y-92140000D01*
X150170000Y-90680000D02*
X149240000Y-90680000D01*
X147010000Y-90680000D02*
X147940000Y-90680000D01*
X147010000Y-90680000D02*
X147010000Y-93840000D01*
X150170000Y-90680000D02*
X150170000Y-92140000D01*
X137470000Y-90680000D02*
X136540000Y-90680000D01*
X134310000Y-90680000D02*
X135240000Y-90680000D01*
X134310000Y-90680000D02*
X134310000Y-93840000D01*
X137470000Y-90680000D02*
X137470000Y-92140000D01*
X124770000Y-90680000D02*
X123840000Y-90680000D01*
X121610000Y-90680000D02*
X122540000Y-90680000D01*
X121610000Y-90680000D02*
X121610000Y-93840000D01*
X124770000Y-90680000D02*
X124770000Y-92140000D01*
X112070000Y-90680000D02*
X111140000Y-90680000D01*
X108910000Y-90680000D02*
X109840000Y-90680000D01*
X108910000Y-90680000D02*
X108910000Y-93840000D01*
X112070000Y-90680000D02*
X112070000Y-92140000D01*
X99370000Y-90680000D02*
X98440000Y-90680000D01*
X96210000Y-90680000D02*
X97140000Y-90680000D01*
X96210000Y-90680000D02*
X96210000Y-93840000D01*
X99370000Y-90680000D02*
X99370000Y-92140000D01*
X73970000Y-90680000D02*
X73040000Y-90680000D01*
X70810000Y-90680000D02*
X71740000Y-90680000D01*
X70810000Y-90680000D02*
X70810000Y-93840000D01*
X73970000Y-90680000D02*
X73970000Y-92140000D01*
D11*
X110109000Y-71501000D02*
X110109000Y-66929000D01*
X99441000Y-71501000D02*
X110109000Y-71501000D01*
X99441000Y-66929000D02*
X99441000Y-71501000D01*
X110109000Y-66929000D02*
X99441000Y-66929000D01*
D13*
X154315000Y-105410000D02*
X154315000Y-107360000D01*
X154315000Y-105410000D02*
X154315000Y-103460000D01*
X163185000Y-105410000D02*
X163185000Y-107360000D01*
X163185000Y-105410000D02*
X163185000Y-101960000D01*
X141615000Y-105410000D02*
X141615000Y-107360000D01*
X141615000Y-105410000D02*
X141615000Y-103460000D01*
X150485000Y-105410000D02*
X150485000Y-107360000D01*
X150485000Y-105410000D02*
X150485000Y-101960000D01*
X128915000Y-105410000D02*
X128915000Y-107360000D01*
X128915000Y-105410000D02*
X128915000Y-103460000D01*
X137785000Y-105410000D02*
X137785000Y-107360000D01*
X137785000Y-105410000D02*
X137785000Y-101960000D01*
X116215000Y-105410000D02*
X116215000Y-107360000D01*
X116215000Y-105410000D02*
X116215000Y-103460000D01*
X125085000Y-105410000D02*
X125085000Y-107360000D01*
X125085000Y-105410000D02*
X125085000Y-101960000D01*
X103515000Y-105410000D02*
X103515000Y-107360000D01*
X103515000Y-105410000D02*
X103515000Y-103460000D01*
X112385000Y-105410000D02*
X112385000Y-107360000D01*
X112385000Y-105410000D02*
X112385000Y-101960000D01*
X78115000Y-105410000D02*
X78115000Y-107360000D01*
X78115000Y-105410000D02*
X78115000Y-103460000D01*
X86985000Y-105410000D02*
X86985000Y-107360000D01*
X86985000Y-105410000D02*
X86985000Y-101960000D01*
D14*
X120750000Y-76820000D02*
X120750000Y-67960000D01*
X133250000Y-67960000D02*
X133250000Y-76820000D01*
X130930000Y-79140000D02*
X123070000Y-79140000D01*
D15*
X121600000Y-64390000D02*
G75*
G03*
X121600000Y-64390000I-100000J0D01*
G01*
D14*
X123070000Y-65640000D02*
X130930000Y-65640000D01*
D13*
X115450000Y-123245000D02*
X115450000Y-122486000D01*
X114235000Y-121726000D02*
X116665000Y-121726000D01*
X114235000Y-123245000D02*
X116665000Y-123245000D01*
X116665000Y-123245000D02*
X116665000Y-121726000D01*
X114235000Y-123245000D02*
X114235000Y-121726000D01*
X111770000Y-111955000D02*
X116840000Y-111955000D01*
X111770000Y-121725000D02*
X116840000Y-121725000D01*
X116840000Y-121725000D02*
X116840000Y-111955000D01*
X111770000Y-121725000D02*
X111770000Y-111955000D01*
X64650000Y-123245000D02*
X64650000Y-122486000D01*
X63435000Y-121726000D02*
X65865000Y-121726000D01*
X63435000Y-123245000D02*
X65865000Y-123245000D01*
X65865000Y-123245000D02*
X65865000Y-121726000D01*
X63435000Y-123245000D02*
X63435000Y-121726000D01*
X60970000Y-111955000D02*
X66040000Y-111955000D01*
X60970000Y-121725000D02*
X66040000Y-121725000D01*
X66040000Y-121725000D02*
X66040000Y-111955000D01*
X60970000Y-121725000D02*
X60970000Y-111955000D01*
X157790000Y-90680000D02*
X157790000Y-92140000D01*
X154630000Y-90680000D02*
X154630000Y-93840000D01*
X154630000Y-90680000D02*
X155560000Y-90680000D01*
X157790000Y-90680000D02*
X156860000Y-90680000D01*
X145090000Y-90680000D02*
X145090000Y-92140000D01*
X141930000Y-90680000D02*
X141930000Y-93840000D01*
X141930000Y-90680000D02*
X142860000Y-90680000D01*
X145090000Y-90680000D02*
X144160000Y-90680000D01*
X132390000Y-90680000D02*
X132390000Y-92140000D01*
X129230000Y-90680000D02*
X129230000Y-93840000D01*
X129230000Y-90680000D02*
X130160000Y-90680000D01*
X132390000Y-90680000D02*
X131460000Y-90680000D01*
X119690000Y-90680000D02*
X119690000Y-92140000D01*
X116530000Y-90680000D02*
X116530000Y-93840000D01*
X116530000Y-90680000D02*
X117460000Y-90680000D01*
X119690000Y-90680000D02*
X118760000Y-90680000D01*
X106990000Y-90680000D02*
X106990000Y-92140000D01*
X103830000Y-90680000D02*
X103830000Y-93840000D01*
X103830000Y-90680000D02*
X104760000Y-90680000D01*
X106990000Y-90680000D02*
X106060000Y-90680000D01*
X94290000Y-90680000D02*
X94290000Y-92140000D01*
X91130000Y-90680000D02*
X91130000Y-93840000D01*
X91130000Y-90680000D02*
X92060000Y-90680000D01*
X94290000Y-90680000D02*
X93360000Y-90680000D01*
X81590000Y-90680000D02*
X80660000Y-90680000D01*
X78430000Y-90680000D02*
X79360000Y-90680000D01*
X78430000Y-90680000D02*
X78430000Y-93840000D01*
X81590000Y-90680000D02*
X81590000Y-92140000D01*
X68890000Y-90680000D02*
X68890000Y-92140000D01*
X65730000Y-90680000D02*
X65730000Y-93840000D01*
X65730000Y-90680000D02*
X66660000Y-90680000D01*
X68890000Y-90680000D02*
X67960000Y-90680000D01*
X128150000Y-123245000D02*
X128150000Y-122486000D01*
X126935000Y-121726000D02*
X129365000Y-121726000D01*
X126935000Y-123245000D02*
X129365000Y-123245000D01*
X129365000Y-123245000D02*
X129365000Y-121726000D01*
X126935000Y-123245000D02*
X126935000Y-121726000D01*
X124470000Y-111955000D02*
X129540000Y-111955000D01*
X124470000Y-121725000D02*
X129540000Y-121725000D01*
X129540000Y-121725000D02*
X129540000Y-111955000D01*
X124470000Y-121725000D02*
X124470000Y-111955000D01*
X90050000Y-123245000D02*
X90050000Y-122486000D01*
X88835000Y-121726000D02*
X91265000Y-121726000D01*
X88835000Y-123245000D02*
X91265000Y-123245000D01*
X91265000Y-123245000D02*
X91265000Y-121726000D01*
X88835000Y-123245000D02*
X88835000Y-121726000D01*
X86370000Y-111955000D02*
X91440000Y-111955000D01*
X86370000Y-121725000D02*
X91440000Y-121725000D01*
X91440000Y-121725000D02*
X91440000Y-111955000D01*
X86370000Y-121725000D02*
X86370000Y-111955000D01*
X102750000Y-123245000D02*
X102750000Y-122486000D01*
X101535000Y-121726000D02*
X103965000Y-121726000D01*
X101535000Y-123245000D02*
X103965000Y-123245000D01*
X103965000Y-123245000D02*
X103965000Y-121726000D01*
X101535000Y-123245000D02*
X101535000Y-121726000D01*
X99070000Y-111955000D02*
X104140000Y-111955000D01*
X99070000Y-121725000D02*
X104140000Y-121725000D01*
X104140000Y-121725000D02*
X104140000Y-111955000D01*
X99070000Y-121725000D02*
X99070000Y-111955000D01*
X153550000Y-123245000D02*
X153550000Y-122486000D01*
X152335000Y-121726000D02*
X154765000Y-121726000D01*
X152335000Y-123245000D02*
X154765000Y-123245000D01*
X154765000Y-123245000D02*
X154765000Y-121726000D01*
X152335000Y-123245000D02*
X152335000Y-121726000D01*
X149870000Y-111955000D02*
X154940000Y-111955000D01*
X149870000Y-121725000D02*
X154940000Y-121725000D01*
X154940000Y-121725000D02*
X154940000Y-111955000D01*
X149870000Y-121725000D02*
X149870000Y-111955000D01*
X140850000Y-123245000D02*
X140850000Y-122486000D01*
X139635000Y-121726000D02*
X142065000Y-121726000D01*
X139635000Y-123245000D02*
X142065000Y-123245000D01*
X142065000Y-123245000D02*
X142065000Y-121726000D01*
X139635000Y-123245000D02*
X139635000Y-121726000D01*
X137170000Y-111955000D02*
X142240000Y-111955000D01*
X137170000Y-121725000D02*
X142240000Y-121725000D01*
X142240000Y-121725000D02*
X142240000Y-111955000D01*
X137170000Y-121725000D02*
X137170000Y-111955000D01*
X93500000Y-73290000D02*
X90900000Y-73290000D01*
X93500000Y-58590000D02*
X93500000Y-73290000D01*
X84300000Y-73290000D02*
X84300000Y-71390000D01*
X87000000Y-73290000D02*
X84300000Y-73290000D01*
X84300000Y-58590000D02*
X93500000Y-58590000D01*
X84300000Y-67390000D02*
X84300000Y-58590000D01*
X93700000Y-72440000D02*
X93700000Y-73490000D01*
X92650000Y-73490000D02*
X93700000Y-73490000D01*
X80800000Y-73290000D02*
X78200000Y-73290000D01*
X80800000Y-58590000D02*
X80800000Y-73290000D01*
X71600000Y-73290000D02*
X71600000Y-71390000D01*
X74300000Y-73290000D02*
X71600000Y-73290000D01*
X71600000Y-58590000D02*
X80800000Y-58590000D01*
X71600000Y-67390000D02*
X71600000Y-58590000D01*
X81000000Y-72440000D02*
X81000000Y-73490000D01*
X79950000Y-73490000D02*
X81000000Y-73490000D01*
X166850000Y-67945000D02*
G75*
G03*
X166850000Y-67945000I-1750000J0D01*
G01*
X160500000Y-67945000D02*
G75*
G03*
X160500000Y-67945000I-1750000J0D01*
G01*
X103985000Y-73925277D02*
X103285000Y-73925277D01*
X103635000Y-73575277D02*
X103635000Y-74275277D01*
X105220000Y-77450000D02*
G75*
G03*
X105220000Y-77450000I-3620000J0D01*
G01*
D11*
X115720952Y-68247142D02*
X115673333Y-68294761D01*
X115530476Y-68342380D01*
X115435238Y-68342380D01*
X115292380Y-68294761D01*
X115197142Y-68199523D01*
X115149523Y-68104285D01*
X115101904Y-67913809D01*
X115101904Y-67770952D01*
X115149523Y-67580476D01*
X115197142Y-67485238D01*
X115292380Y-67390000D01*
X115435238Y-67342380D01*
X115530476Y-67342380D01*
X115673333Y-67390000D01*
X115720952Y-67437619D01*
X116673333Y-68342380D02*
X116101904Y-68342380D01*
X116387619Y-68342380D02*
X116387619Y-67342380D01*
X116292380Y-67485238D01*
X116197142Y-67580476D01*
X116101904Y-67628095D01*
X117292380Y-67342380D02*
X117387619Y-67342380D01*
X117482857Y-67390000D01*
X117530476Y-67437619D01*
X117578095Y-67532857D01*
X117625714Y-67723333D01*
X117625714Y-67961428D01*
X117578095Y-68151904D01*
X117530476Y-68247142D01*
X117482857Y-68294761D01*
X117387619Y-68342380D01*
X117292380Y-68342380D01*
X117197142Y-68294761D01*
X117149523Y-68247142D01*
X117101904Y-68151904D01*
X117054285Y-67961428D01*
X117054285Y-67723333D01*
X117101904Y-67532857D01*
X117149523Y-67437619D01*
X117197142Y-67390000D01*
X117292380Y-67342380D01*
X118006666Y-67437619D02*
X118054285Y-67390000D01*
X118149523Y-67342380D01*
X118387619Y-67342380D01*
X118482857Y-67390000D01*
X118530476Y-67437619D01*
X118578095Y-67532857D01*
X118578095Y-67628095D01*
X118530476Y-67770952D01*
X117959047Y-68342380D01*
X118578095Y-68342380D01*
X136040952Y-77247142D02*
X135993333Y-77294761D01*
X135850476Y-77342380D01*
X135755238Y-77342380D01*
X135612380Y-77294761D01*
X135517142Y-77199523D01*
X135469523Y-77104285D01*
X135421904Y-76913809D01*
X135421904Y-76770952D01*
X135469523Y-76580476D01*
X135517142Y-76485238D01*
X135612380Y-76390000D01*
X135755238Y-76342380D01*
X135850476Y-76342380D01*
X135993333Y-76390000D01*
X136040952Y-76437619D01*
X136993333Y-77342380D02*
X136421904Y-77342380D01*
X136707619Y-77342380D02*
X136707619Y-76342380D01*
X136612380Y-76485238D01*
X136517142Y-76580476D01*
X136421904Y-76628095D01*
X137612380Y-76342380D02*
X137707619Y-76342380D01*
X137802857Y-76390000D01*
X137850476Y-76437619D01*
X137898095Y-76532857D01*
X137945714Y-76723333D01*
X137945714Y-76961428D01*
X137898095Y-77151904D01*
X137850476Y-77247142D01*
X137802857Y-77294761D01*
X137707619Y-77342380D01*
X137612380Y-77342380D01*
X137517142Y-77294761D01*
X137469523Y-77247142D01*
X137421904Y-77151904D01*
X137374285Y-76961428D01*
X137374285Y-76723333D01*
X137421904Y-76532857D01*
X137469523Y-76437619D01*
X137517142Y-76390000D01*
X137612380Y-76342380D01*
X138279047Y-76342380D02*
X138898095Y-76342380D01*
X138564761Y-76723333D01*
X138707619Y-76723333D01*
X138802857Y-76770952D01*
X138850476Y-76818571D01*
X138898095Y-76913809D01*
X138898095Y-77151904D01*
X138850476Y-77247142D01*
X138802857Y-77294761D01*
X138707619Y-77342380D01*
X138421904Y-77342380D01*
X138326666Y-77294761D01*
X138279047Y-77247142D01*
X74582380Y-106171904D02*
X75391904Y-106171904D01*
X75487142Y-106124285D01*
X75534761Y-106076666D01*
X75582380Y-105981428D01*
X75582380Y-105790952D01*
X75534761Y-105695714D01*
X75487142Y-105648095D01*
X75391904Y-105600476D01*
X74582380Y-105600476D01*
X75582380Y-104600476D02*
X75582380Y-105171904D01*
X75582380Y-104886190D02*
X74582380Y-104886190D01*
X74725238Y-104981428D01*
X74820476Y-105076666D01*
X74868095Y-105171904D01*
X99982380Y-106171904D02*
X100791904Y-106171904D01*
X100887142Y-106124285D01*
X100934761Y-106076666D01*
X100982380Y-105981428D01*
X100982380Y-105790952D01*
X100934761Y-105695714D01*
X100887142Y-105648095D01*
X100791904Y-105600476D01*
X99982380Y-105600476D01*
X99982380Y-105219523D02*
X99982380Y-104600476D01*
X100363333Y-104933809D01*
X100363333Y-104790952D01*
X100410952Y-104695714D01*
X100458571Y-104648095D01*
X100553809Y-104600476D01*
X100791904Y-104600476D01*
X100887142Y-104648095D01*
X100934761Y-104695714D01*
X100982380Y-104790952D01*
X100982380Y-105076666D01*
X100934761Y-105171904D01*
X100887142Y-105219523D01*
X78144761Y-111577380D02*
X77811428Y-111101190D01*
X77573333Y-111577380D02*
X77573333Y-110577380D01*
X77954285Y-110577380D01*
X78049523Y-110625000D01*
X78097142Y-110672619D01*
X78144761Y-110767857D01*
X78144761Y-110910714D01*
X78097142Y-111005952D01*
X78049523Y-111053571D01*
X77954285Y-111101190D01*
X77573333Y-111101190D01*
X78430476Y-110577380D02*
X78763809Y-111577380D01*
X79097142Y-110577380D01*
X79382857Y-110672619D02*
X79430476Y-110625000D01*
X79525714Y-110577380D01*
X79763809Y-110577380D01*
X79859047Y-110625000D01*
X79906666Y-110672619D01*
X79954285Y-110767857D01*
X79954285Y-110863095D01*
X79906666Y-111005952D01*
X79335238Y-111577380D01*
X79954285Y-111577380D01*
X146860833Y-113967142D02*
X146813214Y-114014761D01*
X146670357Y-114062380D01*
X146575119Y-114062380D01*
X146432261Y-114014761D01*
X146337023Y-113919523D01*
X146289404Y-113824285D01*
X146241785Y-113633809D01*
X146241785Y-113490952D01*
X146289404Y-113300476D01*
X146337023Y-113205238D01*
X146432261Y-113110000D01*
X146575119Y-113062380D01*
X146670357Y-113062380D01*
X146813214Y-113110000D01*
X146860833Y-113157619D01*
X147194166Y-113062380D02*
X147860833Y-113062380D01*
X147432261Y-114062380D01*
X134160833Y-113967142D02*
X134113214Y-114014761D01*
X133970357Y-114062380D01*
X133875119Y-114062380D01*
X133732261Y-114014761D01*
X133637023Y-113919523D01*
X133589404Y-113824285D01*
X133541785Y-113633809D01*
X133541785Y-113490952D01*
X133589404Y-113300476D01*
X133637023Y-113205238D01*
X133732261Y-113110000D01*
X133875119Y-113062380D01*
X133970357Y-113062380D01*
X134113214Y-113110000D01*
X134160833Y-113157619D01*
X135017976Y-113062380D02*
X134827500Y-113062380D01*
X134732261Y-113110000D01*
X134684642Y-113157619D01*
X134589404Y-113300476D01*
X134541785Y-113490952D01*
X134541785Y-113871904D01*
X134589404Y-113967142D01*
X134637023Y-114014761D01*
X134732261Y-114062380D01*
X134922738Y-114062380D01*
X135017976Y-114014761D01*
X135065595Y-113967142D01*
X135113214Y-113871904D01*
X135113214Y-113633809D01*
X135065595Y-113538571D01*
X135017976Y-113490952D01*
X134922738Y-113443333D01*
X134732261Y-113443333D01*
X134637023Y-113490952D01*
X134589404Y-113538571D01*
X134541785Y-113633809D01*
X121460833Y-113967142D02*
X121413214Y-114014761D01*
X121270357Y-114062380D01*
X121175119Y-114062380D01*
X121032261Y-114014761D01*
X120937023Y-113919523D01*
X120889404Y-113824285D01*
X120841785Y-113633809D01*
X120841785Y-113490952D01*
X120889404Y-113300476D01*
X120937023Y-113205238D01*
X121032261Y-113110000D01*
X121175119Y-113062380D01*
X121270357Y-113062380D01*
X121413214Y-113110000D01*
X121460833Y-113157619D01*
X122365595Y-113062380D02*
X121889404Y-113062380D01*
X121841785Y-113538571D01*
X121889404Y-113490952D01*
X121984642Y-113443333D01*
X122222738Y-113443333D01*
X122317976Y-113490952D01*
X122365595Y-113538571D01*
X122413214Y-113633809D01*
X122413214Y-113871904D01*
X122365595Y-113967142D01*
X122317976Y-114014761D01*
X122222738Y-114062380D01*
X121984642Y-114062380D01*
X121889404Y-114014761D01*
X121841785Y-113967142D01*
X96060833Y-113967142D02*
X96013214Y-114014761D01*
X95870357Y-114062380D01*
X95775119Y-114062380D01*
X95632261Y-114014761D01*
X95537023Y-113919523D01*
X95489404Y-113824285D01*
X95441785Y-113633809D01*
X95441785Y-113490952D01*
X95489404Y-113300476D01*
X95537023Y-113205238D01*
X95632261Y-113110000D01*
X95775119Y-113062380D01*
X95870357Y-113062380D01*
X96013214Y-113110000D01*
X96060833Y-113157619D01*
X96394166Y-113062380D02*
X97013214Y-113062380D01*
X96679880Y-113443333D01*
X96822738Y-113443333D01*
X96917976Y-113490952D01*
X96965595Y-113538571D01*
X97013214Y-113633809D01*
X97013214Y-113871904D01*
X96965595Y-113967142D01*
X96917976Y-114014761D01*
X96822738Y-114062380D01*
X96537023Y-114062380D01*
X96441785Y-114014761D01*
X96394166Y-113967142D01*
X70660833Y-113967142D02*
X70613214Y-114014761D01*
X70470357Y-114062380D01*
X70375119Y-114062380D01*
X70232261Y-114014761D01*
X70137023Y-113919523D01*
X70089404Y-113824285D01*
X70041785Y-113633809D01*
X70041785Y-113490952D01*
X70089404Y-113300476D01*
X70137023Y-113205238D01*
X70232261Y-113110000D01*
X70375119Y-113062380D01*
X70470357Y-113062380D01*
X70613214Y-113110000D01*
X70660833Y-113157619D01*
X71613214Y-114062380D02*
X71041785Y-114062380D01*
X71327500Y-114062380D02*
X71327500Y-113062380D01*
X71232261Y-113205238D01*
X71137023Y-113300476D01*
X71041785Y-113348095D01*
X83360833Y-113967142D02*
X83313214Y-114014761D01*
X83170357Y-114062380D01*
X83075119Y-114062380D01*
X82932261Y-114014761D01*
X82837023Y-113919523D01*
X82789404Y-113824285D01*
X82741785Y-113633809D01*
X82741785Y-113490952D01*
X82789404Y-113300476D01*
X82837023Y-113205238D01*
X82932261Y-113110000D01*
X83075119Y-113062380D01*
X83170357Y-113062380D01*
X83313214Y-113110000D01*
X83360833Y-113157619D01*
X83741785Y-113157619D02*
X83789404Y-113110000D01*
X83884642Y-113062380D01*
X84122738Y-113062380D01*
X84217976Y-113110000D01*
X84265595Y-113157619D01*
X84313214Y-113252857D01*
X84313214Y-113348095D01*
X84265595Y-113490952D01*
X83694166Y-114062380D01*
X84313214Y-114062380D01*
X108760833Y-113967142D02*
X108713214Y-114014761D01*
X108570357Y-114062380D01*
X108475119Y-114062380D01*
X108332261Y-114014761D01*
X108237023Y-113919523D01*
X108189404Y-113824285D01*
X108141785Y-113633809D01*
X108141785Y-113490952D01*
X108189404Y-113300476D01*
X108237023Y-113205238D01*
X108332261Y-113110000D01*
X108475119Y-113062380D01*
X108570357Y-113062380D01*
X108713214Y-113110000D01*
X108760833Y-113157619D01*
X109617976Y-113395714D02*
X109617976Y-114062380D01*
X109379880Y-113014761D02*
X109141785Y-113729047D01*
X109760833Y-113729047D01*
X159560833Y-113967142D02*
X159513214Y-114014761D01*
X159370357Y-114062380D01*
X159275119Y-114062380D01*
X159132261Y-114014761D01*
X159037023Y-113919523D01*
X158989404Y-113824285D01*
X158941785Y-113633809D01*
X158941785Y-113490952D01*
X158989404Y-113300476D01*
X159037023Y-113205238D01*
X159132261Y-113110000D01*
X159275119Y-113062380D01*
X159370357Y-113062380D01*
X159513214Y-113110000D01*
X159560833Y-113157619D01*
X160132261Y-113490952D02*
X160037023Y-113443333D01*
X159989404Y-113395714D01*
X159941785Y-113300476D01*
X159941785Y-113252857D01*
X159989404Y-113157619D01*
X160037023Y-113110000D01*
X160132261Y-113062380D01*
X160322738Y-113062380D01*
X160417976Y-113110000D01*
X160465595Y-113157619D01*
X160513214Y-113252857D01*
X160513214Y-113300476D01*
X160465595Y-113395714D01*
X160417976Y-113443333D01*
X160322738Y-113490952D01*
X160132261Y-113490952D01*
X160037023Y-113538571D01*
X159989404Y-113586190D01*
X159941785Y-113681428D01*
X159941785Y-113871904D01*
X159989404Y-113967142D01*
X160037023Y-114014761D01*
X160132261Y-114062380D01*
X160322738Y-114062380D01*
X160417976Y-114014761D01*
X160465595Y-113967142D01*
X160513214Y-113871904D01*
X160513214Y-113681428D01*
X160465595Y-113586190D01*
X160417976Y-113538571D01*
X160322738Y-113490952D01*
X88177619Y-92511428D02*
X88130000Y-92606666D01*
X88034761Y-92701904D01*
X87891904Y-92844761D01*
X87844285Y-92940000D01*
X87844285Y-93035238D01*
X88082380Y-92987619D02*
X88034761Y-93082857D01*
X87939523Y-93178095D01*
X87749047Y-93225714D01*
X87415714Y-93225714D01*
X87225238Y-93178095D01*
X87130000Y-93082857D01*
X87082380Y-92987619D01*
X87082380Y-92797142D01*
X87130000Y-92701904D01*
X87225238Y-92606666D01*
X87415714Y-92559047D01*
X87749047Y-92559047D01*
X87939523Y-92606666D01*
X88034761Y-92701904D01*
X88082380Y-92797142D01*
X88082380Y-92987619D01*
X87558571Y-92130476D02*
X87558571Y-91797142D01*
X88082380Y-91654285D02*
X88082380Y-92130476D01*
X87082380Y-92130476D01*
X87082380Y-91654285D01*
X88082380Y-91225714D02*
X87082380Y-91225714D01*
X88082380Y-90654285D01*
X87082380Y-90654285D01*
X87177619Y-90225714D02*
X87130000Y-90178095D01*
X87082380Y-90082857D01*
X87082380Y-89844761D01*
X87130000Y-89749523D01*
X87177619Y-89701904D01*
X87272857Y-89654285D01*
X87368095Y-89654285D01*
X87510952Y-89701904D01*
X88082380Y-90273333D01*
X88082380Y-89654285D01*
X84510714Y-95702380D02*
X84177380Y-95226190D01*
X83939285Y-95702380D02*
X83939285Y-94702380D01*
X84320238Y-94702380D01*
X84415476Y-94750000D01*
X84463095Y-94797619D01*
X84510714Y-94892857D01*
X84510714Y-95035714D01*
X84463095Y-95130952D01*
X84415476Y-95178571D01*
X84320238Y-95226190D01*
X83939285Y-95226190D01*
X84939285Y-95702380D02*
X84939285Y-94702380D01*
X85510714Y-95702380D01*
X85510714Y-94702380D01*
X85986904Y-95702380D02*
X85986904Y-94702380D01*
X85986904Y-95178571D02*
X86558333Y-95178571D01*
X86558333Y-95702380D02*
X86558333Y-94702380D01*
X86986904Y-94797619D02*
X87034523Y-94750000D01*
X87129761Y-94702380D01*
X87367857Y-94702380D01*
X87463095Y-94750000D01*
X87510714Y-94797619D01*
X87558333Y-94892857D01*
X87558333Y-94988095D01*
X87510714Y-95130952D01*
X86939285Y-95702380D01*
X87558333Y-95702380D01*
X82764380Y-99072700D02*
X83002476Y-99072700D01*
X82907238Y-99310795D02*
X83002476Y-99072700D01*
X82907238Y-98834604D01*
X83192952Y-99215557D02*
X83002476Y-99072700D01*
X83192952Y-98929842D01*
X82764380Y-99072700D02*
X83002476Y-99072700D01*
X82907238Y-99310795D02*
X83002476Y-99072700D01*
X82907238Y-98834604D01*
X83192952Y-99215557D02*
X83002476Y-99072700D01*
X83192952Y-98929842D01*
X78279761Y-95702380D02*
X77946428Y-95226190D01*
X77708333Y-95702380D02*
X77708333Y-94702380D01*
X78089285Y-94702380D01*
X78184523Y-94750000D01*
X78232142Y-94797619D01*
X78279761Y-94892857D01*
X78279761Y-95035714D01*
X78232142Y-95130952D01*
X78184523Y-95178571D01*
X78089285Y-95226190D01*
X77708333Y-95226190D01*
X78708333Y-95702380D02*
X78708333Y-94702380D01*
X79279761Y-95702380D01*
X79279761Y-94702380D01*
X80232142Y-95702380D02*
X79755952Y-95702380D01*
X79755952Y-94702380D01*
X80517857Y-94797619D02*
X80565476Y-94750000D01*
X80660714Y-94702380D01*
X80898809Y-94702380D01*
X80994047Y-94750000D01*
X81041666Y-94797619D01*
X81089285Y-94892857D01*
X81089285Y-94988095D01*
X81041666Y-95130952D01*
X80470238Y-95702380D01*
X81089285Y-95702380D01*
X76414380Y-99072700D02*
X76652476Y-99072700D01*
X76557238Y-99310795D02*
X76652476Y-99072700D01*
X76557238Y-98834604D01*
X76842952Y-99215557D02*
X76652476Y-99072700D01*
X76842952Y-98929842D01*
X76414380Y-99072700D02*
X76652476Y-99072700D01*
X76557238Y-99310795D02*
X76652476Y-99072700D01*
X76557238Y-98834604D01*
X76842952Y-99215557D02*
X76652476Y-99072700D01*
X76842952Y-98929842D01*
X154479761Y-95702380D02*
X154146428Y-95226190D01*
X153908333Y-95702380D02*
X153908333Y-94702380D01*
X154289285Y-94702380D01*
X154384523Y-94750000D01*
X154432142Y-94797619D01*
X154479761Y-94892857D01*
X154479761Y-95035714D01*
X154432142Y-95130952D01*
X154384523Y-95178571D01*
X154289285Y-95226190D01*
X153908333Y-95226190D01*
X154908333Y-95702380D02*
X154908333Y-94702380D01*
X155479761Y-95702380D01*
X155479761Y-94702380D01*
X156432142Y-95702380D02*
X155955952Y-95702380D01*
X155955952Y-94702380D01*
X156908333Y-95130952D02*
X156813095Y-95083333D01*
X156765476Y-95035714D01*
X156717857Y-94940476D01*
X156717857Y-94892857D01*
X156765476Y-94797619D01*
X156813095Y-94750000D01*
X156908333Y-94702380D01*
X157098809Y-94702380D01*
X157194047Y-94750000D01*
X157241666Y-94797619D01*
X157289285Y-94892857D01*
X157289285Y-94940476D01*
X157241666Y-95035714D01*
X157194047Y-95083333D01*
X157098809Y-95130952D01*
X156908333Y-95130952D01*
X156813095Y-95178571D01*
X156765476Y-95226190D01*
X156717857Y-95321428D01*
X156717857Y-95511904D01*
X156765476Y-95607142D01*
X156813095Y-95654761D01*
X156908333Y-95702380D01*
X157098809Y-95702380D01*
X157194047Y-95654761D01*
X157241666Y-95607142D01*
X157289285Y-95511904D01*
X157289285Y-95321428D01*
X157241666Y-95226190D01*
X157194047Y-95178571D01*
X157098809Y-95130952D01*
X152614380Y-99072700D02*
X152852476Y-99072700D01*
X152757238Y-99310795D02*
X152852476Y-99072700D01*
X152757238Y-98834604D01*
X153042952Y-99215557D02*
X152852476Y-99072700D01*
X153042952Y-98929842D01*
X152614380Y-99072700D02*
X152852476Y-99072700D01*
X152757238Y-99310795D02*
X152852476Y-99072700D01*
X152757238Y-98834604D01*
X153042952Y-99215557D02*
X152852476Y-99072700D01*
X153042952Y-98929842D01*
X141779761Y-95702380D02*
X141446428Y-95226190D01*
X141208333Y-95702380D02*
X141208333Y-94702380D01*
X141589285Y-94702380D01*
X141684523Y-94750000D01*
X141732142Y-94797619D01*
X141779761Y-94892857D01*
X141779761Y-95035714D01*
X141732142Y-95130952D01*
X141684523Y-95178571D01*
X141589285Y-95226190D01*
X141208333Y-95226190D01*
X142208333Y-95702380D02*
X142208333Y-94702380D01*
X142779761Y-95702380D01*
X142779761Y-94702380D01*
X143732142Y-95702380D02*
X143255952Y-95702380D01*
X143255952Y-94702380D01*
X143970238Y-94702380D02*
X144636904Y-94702380D01*
X144208333Y-95702380D01*
X139914380Y-99072700D02*
X140152476Y-99072700D01*
X140057238Y-99310795D02*
X140152476Y-99072700D01*
X140057238Y-98834604D01*
X140342952Y-99215557D02*
X140152476Y-99072700D01*
X140342952Y-98929842D01*
X139914380Y-99072700D02*
X140152476Y-99072700D01*
X140057238Y-99310795D02*
X140152476Y-99072700D01*
X140057238Y-98834604D01*
X140342952Y-99215557D02*
X140152476Y-99072700D01*
X140342952Y-98929842D01*
X129079761Y-95702380D02*
X128746428Y-95226190D01*
X128508333Y-95702380D02*
X128508333Y-94702380D01*
X128889285Y-94702380D01*
X128984523Y-94750000D01*
X129032142Y-94797619D01*
X129079761Y-94892857D01*
X129079761Y-95035714D01*
X129032142Y-95130952D01*
X128984523Y-95178571D01*
X128889285Y-95226190D01*
X128508333Y-95226190D01*
X129508333Y-95702380D02*
X129508333Y-94702380D01*
X130079761Y-95702380D01*
X130079761Y-94702380D01*
X131032142Y-95702380D02*
X130555952Y-95702380D01*
X130555952Y-94702380D01*
X131794047Y-94702380D02*
X131603571Y-94702380D01*
X131508333Y-94750000D01*
X131460714Y-94797619D01*
X131365476Y-94940476D01*
X131317857Y-95130952D01*
X131317857Y-95511904D01*
X131365476Y-95607142D01*
X131413095Y-95654761D01*
X131508333Y-95702380D01*
X131698809Y-95702380D01*
X131794047Y-95654761D01*
X131841666Y-95607142D01*
X131889285Y-95511904D01*
X131889285Y-95273809D01*
X131841666Y-95178571D01*
X131794047Y-95130952D01*
X131698809Y-95083333D01*
X131508333Y-95083333D01*
X131413095Y-95130952D01*
X131365476Y-95178571D01*
X131317857Y-95273809D01*
X127214380Y-99072700D02*
X127452476Y-99072700D01*
X127357238Y-99310795D02*
X127452476Y-99072700D01*
X127357238Y-98834604D01*
X127642952Y-99215557D02*
X127452476Y-99072700D01*
X127642952Y-98929842D01*
X127214380Y-99072700D02*
X127452476Y-99072700D01*
X127357238Y-99310795D02*
X127452476Y-99072700D01*
X127357238Y-98834604D01*
X127642952Y-99215557D02*
X127452476Y-99072700D01*
X127642952Y-98929842D01*
X116379761Y-95702380D02*
X116046428Y-95226190D01*
X115808333Y-95702380D02*
X115808333Y-94702380D01*
X116189285Y-94702380D01*
X116284523Y-94750000D01*
X116332142Y-94797619D01*
X116379761Y-94892857D01*
X116379761Y-95035714D01*
X116332142Y-95130952D01*
X116284523Y-95178571D01*
X116189285Y-95226190D01*
X115808333Y-95226190D01*
X116808333Y-95702380D02*
X116808333Y-94702380D01*
X117379761Y-95702380D01*
X117379761Y-94702380D01*
X118332142Y-95702380D02*
X117855952Y-95702380D01*
X117855952Y-94702380D01*
X119141666Y-94702380D02*
X118665476Y-94702380D01*
X118617857Y-95178571D01*
X118665476Y-95130952D01*
X118760714Y-95083333D01*
X118998809Y-95083333D01*
X119094047Y-95130952D01*
X119141666Y-95178571D01*
X119189285Y-95273809D01*
X119189285Y-95511904D01*
X119141666Y-95607142D01*
X119094047Y-95654761D01*
X118998809Y-95702380D01*
X118760714Y-95702380D01*
X118665476Y-95654761D01*
X118617857Y-95607142D01*
X114514380Y-99072700D02*
X114752476Y-99072700D01*
X114657238Y-99310795D02*
X114752476Y-99072700D01*
X114657238Y-98834604D01*
X114942952Y-99215557D02*
X114752476Y-99072700D01*
X114942952Y-98929842D01*
X114514380Y-99072700D02*
X114752476Y-99072700D01*
X114657238Y-99310795D02*
X114752476Y-99072700D01*
X114657238Y-98834604D01*
X114942952Y-99215557D02*
X114752476Y-99072700D01*
X114942952Y-98929842D01*
X103679761Y-95702380D02*
X103346428Y-95226190D01*
X103108333Y-95702380D02*
X103108333Y-94702380D01*
X103489285Y-94702380D01*
X103584523Y-94750000D01*
X103632142Y-94797619D01*
X103679761Y-94892857D01*
X103679761Y-95035714D01*
X103632142Y-95130952D01*
X103584523Y-95178571D01*
X103489285Y-95226190D01*
X103108333Y-95226190D01*
X104108333Y-95702380D02*
X104108333Y-94702380D01*
X104679761Y-95702380D01*
X104679761Y-94702380D01*
X105632142Y-95702380D02*
X105155952Y-95702380D01*
X105155952Y-94702380D01*
X106394047Y-95035714D02*
X106394047Y-95702380D01*
X106155952Y-94654761D02*
X105917857Y-95369047D01*
X106536904Y-95369047D01*
X101814380Y-99072700D02*
X102052476Y-99072700D01*
X101957238Y-99310795D02*
X102052476Y-99072700D01*
X101957238Y-98834604D01*
X102242952Y-99215557D02*
X102052476Y-99072700D01*
X102242952Y-98929842D01*
X101814380Y-99072700D02*
X102052476Y-99072700D01*
X101957238Y-99310795D02*
X102052476Y-99072700D01*
X101957238Y-98834604D01*
X102242952Y-99215557D02*
X102052476Y-99072700D01*
X102242952Y-98929842D01*
X90979761Y-95702380D02*
X90646428Y-95226190D01*
X90408333Y-95702380D02*
X90408333Y-94702380D01*
X90789285Y-94702380D01*
X90884523Y-94750000D01*
X90932142Y-94797619D01*
X90979761Y-94892857D01*
X90979761Y-95035714D01*
X90932142Y-95130952D01*
X90884523Y-95178571D01*
X90789285Y-95226190D01*
X90408333Y-95226190D01*
X91408333Y-95702380D02*
X91408333Y-94702380D01*
X91979761Y-95702380D01*
X91979761Y-94702380D01*
X92932142Y-95702380D02*
X92455952Y-95702380D01*
X92455952Y-94702380D01*
X93170238Y-94702380D02*
X93789285Y-94702380D01*
X93455952Y-95083333D01*
X93598809Y-95083333D01*
X93694047Y-95130952D01*
X93741666Y-95178571D01*
X93789285Y-95273809D01*
X93789285Y-95511904D01*
X93741666Y-95607142D01*
X93694047Y-95654761D01*
X93598809Y-95702380D01*
X93313095Y-95702380D01*
X93217857Y-95654761D01*
X93170238Y-95607142D01*
X89114380Y-99072700D02*
X89352476Y-99072700D01*
X89257238Y-99310795D02*
X89352476Y-99072700D01*
X89257238Y-98834604D01*
X89542952Y-99215557D02*
X89352476Y-99072700D01*
X89542952Y-98929842D01*
X89114380Y-99072700D02*
X89352476Y-99072700D01*
X89257238Y-99310795D02*
X89352476Y-99072700D01*
X89257238Y-98834604D01*
X89542952Y-99215557D02*
X89352476Y-99072700D01*
X89542952Y-98929842D01*
X65579761Y-95702380D02*
X65246428Y-95226190D01*
X65008333Y-95702380D02*
X65008333Y-94702380D01*
X65389285Y-94702380D01*
X65484523Y-94750000D01*
X65532142Y-94797619D01*
X65579761Y-94892857D01*
X65579761Y-95035714D01*
X65532142Y-95130952D01*
X65484523Y-95178571D01*
X65389285Y-95226190D01*
X65008333Y-95226190D01*
X66008333Y-95702380D02*
X66008333Y-94702380D01*
X66579761Y-95702380D01*
X66579761Y-94702380D01*
X67532142Y-95702380D02*
X67055952Y-95702380D01*
X67055952Y-94702380D01*
X68389285Y-95702380D02*
X67817857Y-95702380D01*
X68103571Y-95702380D02*
X68103571Y-94702380D01*
X68008333Y-94845238D01*
X67913095Y-94940476D01*
X67817857Y-94988095D01*
X63714380Y-99072700D02*
X63952476Y-99072700D01*
X63857238Y-99310795D02*
X63952476Y-99072700D01*
X63857238Y-98834604D01*
X64142952Y-99215557D02*
X63952476Y-99072700D01*
X64142952Y-98929842D01*
X63714380Y-99072700D02*
X63952476Y-99072700D01*
X63857238Y-99310795D02*
X63952476Y-99072700D01*
X63857238Y-98834604D01*
X64142952Y-99215557D02*
X63952476Y-99072700D01*
X64142952Y-98929842D01*
X160710714Y-95702380D02*
X160377380Y-95226190D01*
X160139285Y-95702380D02*
X160139285Y-94702380D01*
X160520238Y-94702380D01*
X160615476Y-94750000D01*
X160663095Y-94797619D01*
X160710714Y-94892857D01*
X160710714Y-95035714D01*
X160663095Y-95130952D01*
X160615476Y-95178571D01*
X160520238Y-95226190D01*
X160139285Y-95226190D01*
X161139285Y-95702380D02*
X161139285Y-94702380D01*
X161710714Y-95702380D01*
X161710714Y-94702380D01*
X162186904Y-95702380D02*
X162186904Y-94702380D01*
X162186904Y-95178571D02*
X162758333Y-95178571D01*
X162758333Y-95702380D02*
X162758333Y-94702380D01*
X163377380Y-95130952D02*
X163282142Y-95083333D01*
X163234523Y-95035714D01*
X163186904Y-94940476D01*
X163186904Y-94892857D01*
X163234523Y-94797619D01*
X163282142Y-94750000D01*
X163377380Y-94702380D01*
X163567857Y-94702380D01*
X163663095Y-94750000D01*
X163710714Y-94797619D01*
X163758333Y-94892857D01*
X163758333Y-94940476D01*
X163710714Y-95035714D01*
X163663095Y-95083333D01*
X163567857Y-95130952D01*
X163377380Y-95130952D01*
X163282142Y-95178571D01*
X163234523Y-95226190D01*
X163186904Y-95321428D01*
X163186904Y-95511904D01*
X163234523Y-95607142D01*
X163282142Y-95654761D01*
X163377380Y-95702380D01*
X163567857Y-95702380D01*
X163663095Y-95654761D01*
X163710714Y-95607142D01*
X163758333Y-95511904D01*
X163758333Y-95321428D01*
X163710714Y-95226190D01*
X163663095Y-95178571D01*
X163567857Y-95130952D01*
X158964380Y-99072700D02*
X159202476Y-99072700D01*
X159107238Y-99310795D02*
X159202476Y-99072700D01*
X159107238Y-98834604D01*
X159392952Y-99215557D02*
X159202476Y-99072700D01*
X159392952Y-98929842D01*
X158964380Y-99072700D02*
X159202476Y-99072700D01*
X159107238Y-99310795D02*
X159202476Y-99072700D01*
X159107238Y-98834604D01*
X159392952Y-99215557D02*
X159202476Y-99072700D01*
X159392952Y-98929842D01*
X148010714Y-95702380D02*
X147677380Y-95226190D01*
X147439285Y-95702380D02*
X147439285Y-94702380D01*
X147820238Y-94702380D01*
X147915476Y-94750000D01*
X147963095Y-94797619D01*
X148010714Y-94892857D01*
X148010714Y-95035714D01*
X147963095Y-95130952D01*
X147915476Y-95178571D01*
X147820238Y-95226190D01*
X147439285Y-95226190D01*
X148439285Y-95702380D02*
X148439285Y-94702380D01*
X149010714Y-95702380D01*
X149010714Y-94702380D01*
X149486904Y-95702380D02*
X149486904Y-94702380D01*
X149486904Y-95178571D02*
X150058333Y-95178571D01*
X150058333Y-95702380D02*
X150058333Y-94702380D01*
X150439285Y-94702380D02*
X151105952Y-94702380D01*
X150677380Y-95702380D01*
X146264380Y-99072700D02*
X146502476Y-99072700D01*
X146407238Y-99310795D02*
X146502476Y-99072700D01*
X146407238Y-98834604D01*
X146692952Y-99215557D02*
X146502476Y-99072700D01*
X146692952Y-98929842D01*
X146264380Y-99072700D02*
X146502476Y-99072700D01*
X146407238Y-99310795D02*
X146502476Y-99072700D01*
X146407238Y-98834604D01*
X146692952Y-99215557D02*
X146502476Y-99072700D01*
X146692952Y-98929842D01*
X135310714Y-95702380D02*
X134977380Y-95226190D01*
X134739285Y-95702380D02*
X134739285Y-94702380D01*
X135120238Y-94702380D01*
X135215476Y-94750000D01*
X135263095Y-94797619D01*
X135310714Y-94892857D01*
X135310714Y-95035714D01*
X135263095Y-95130952D01*
X135215476Y-95178571D01*
X135120238Y-95226190D01*
X134739285Y-95226190D01*
X135739285Y-95702380D02*
X135739285Y-94702380D01*
X136310714Y-95702380D01*
X136310714Y-94702380D01*
X136786904Y-95702380D02*
X136786904Y-94702380D01*
X136786904Y-95178571D02*
X137358333Y-95178571D01*
X137358333Y-95702380D02*
X137358333Y-94702380D01*
X138263095Y-94702380D02*
X138072619Y-94702380D01*
X137977380Y-94750000D01*
X137929761Y-94797619D01*
X137834523Y-94940476D01*
X137786904Y-95130952D01*
X137786904Y-95511904D01*
X137834523Y-95607142D01*
X137882142Y-95654761D01*
X137977380Y-95702380D01*
X138167857Y-95702380D01*
X138263095Y-95654761D01*
X138310714Y-95607142D01*
X138358333Y-95511904D01*
X138358333Y-95273809D01*
X138310714Y-95178571D01*
X138263095Y-95130952D01*
X138167857Y-95083333D01*
X137977380Y-95083333D01*
X137882142Y-95130952D01*
X137834523Y-95178571D01*
X137786904Y-95273809D01*
X133564380Y-99072700D02*
X133802476Y-99072700D01*
X133707238Y-99310795D02*
X133802476Y-99072700D01*
X133707238Y-98834604D01*
X133992952Y-99215557D02*
X133802476Y-99072700D01*
X133992952Y-98929842D01*
X133564380Y-99072700D02*
X133802476Y-99072700D01*
X133707238Y-99310795D02*
X133802476Y-99072700D01*
X133707238Y-98834604D01*
X133992952Y-99215557D02*
X133802476Y-99072700D01*
X133992952Y-98929842D01*
X122610714Y-95702380D02*
X122277380Y-95226190D01*
X122039285Y-95702380D02*
X122039285Y-94702380D01*
X122420238Y-94702380D01*
X122515476Y-94750000D01*
X122563095Y-94797619D01*
X122610714Y-94892857D01*
X122610714Y-95035714D01*
X122563095Y-95130952D01*
X122515476Y-95178571D01*
X122420238Y-95226190D01*
X122039285Y-95226190D01*
X123039285Y-95702380D02*
X123039285Y-94702380D01*
X123610714Y-95702380D01*
X123610714Y-94702380D01*
X124086904Y-95702380D02*
X124086904Y-94702380D01*
X124086904Y-95178571D02*
X124658333Y-95178571D01*
X124658333Y-95702380D02*
X124658333Y-94702380D01*
X125610714Y-94702380D02*
X125134523Y-94702380D01*
X125086904Y-95178571D01*
X125134523Y-95130952D01*
X125229761Y-95083333D01*
X125467857Y-95083333D01*
X125563095Y-95130952D01*
X125610714Y-95178571D01*
X125658333Y-95273809D01*
X125658333Y-95511904D01*
X125610714Y-95607142D01*
X125563095Y-95654761D01*
X125467857Y-95702380D01*
X125229761Y-95702380D01*
X125134523Y-95654761D01*
X125086904Y-95607142D01*
X120864380Y-99072700D02*
X121102476Y-99072700D01*
X121007238Y-99310795D02*
X121102476Y-99072700D01*
X121007238Y-98834604D01*
X121292952Y-99215557D02*
X121102476Y-99072700D01*
X121292952Y-98929842D01*
X120864380Y-99072700D02*
X121102476Y-99072700D01*
X121007238Y-99310795D02*
X121102476Y-99072700D01*
X121007238Y-98834604D01*
X121292952Y-99215557D02*
X121102476Y-99072700D01*
X121292952Y-98929842D01*
X109910714Y-95702380D02*
X109577380Y-95226190D01*
X109339285Y-95702380D02*
X109339285Y-94702380D01*
X109720238Y-94702380D01*
X109815476Y-94750000D01*
X109863095Y-94797619D01*
X109910714Y-94892857D01*
X109910714Y-95035714D01*
X109863095Y-95130952D01*
X109815476Y-95178571D01*
X109720238Y-95226190D01*
X109339285Y-95226190D01*
X110339285Y-95702380D02*
X110339285Y-94702380D01*
X110910714Y-95702380D01*
X110910714Y-94702380D01*
X111386904Y-95702380D02*
X111386904Y-94702380D01*
X111386904Y-95178571D02*
X111958333Y-95178571D01*
X111958333Y-95702380D02*
X111958333Y-94702380D01*
X112863095Y-95035714D02*
X112863095Y-95702380D01*
X112625000Y-94654761D02*
X112386904Y-95369047D01*
X113005952Y-95369047D01*
X108164380Y-99072700D02*
X108402476Y-99072700D01*
X108307238Y-99310795D02*
X108402476Y-99072700D01*
X108307238Y-98834604D01*
X108592952Y-99215557D02*
X108402476Y-99072700D01*
X108592952Y-98929842D01*
X108164380Y-99072700D02*
X108402476Y-99072700D01*
X108307238Y-99310795D02*
X108402476Y-99072700D01*
X108307238Y-98834604D01*
X108592952Y-99215557D02*
X108402476Y-99072700D01*
X108592952Y-98929842D01*
X97210714Y-95702380D02*
X96877380Y-95226190D01*
X96639285Y-95702380D02*
X96639285Y-94702380D01*
X97020238Y-94702380D01*
X97115476Y-94750000D01*
X97163095Y-94797619D01*
X97210714Y-94892857D01*
X97210714Y-95035714D01*
X97163095Y-95130952D01*
X97115476Y-95178571D01*
X97020238Y-95226190D01*
X96639285Y-95226190D01*
X97639285Y-95702380D02*
X97639285Y-94702380D01*
X98210714Y-95702380D01*
X98210714Y-94702380D01*
X98686904Y-95702380D02*
X98686904Y-94702380D01*
X98686904Y-95178571D02*
X99258333Y-95178571D01*
X99258333Y-95702380D02*
X99258333Y-94702380D01*
X99639285Y-94702380D02*
X100258333Y-94702380D01*
X99925000Y-95083333D01*
X100067857Y-95083333D01*
X100163095Y-95130952D01*
X100210714Y-95178571D01*
X100258333Y-95273809D01*
X100258333Y-95511904D01*
X100210714Y-95607142D01*
X100163095Y-95654761D01*
X100067857Y-95702380D01*
X99782142Y-95702380D01*
X99686904Y-95654761D01*
X99639285Y-95607142D01*
X95464380Y-99072700D02*
X95702476Y-99072700D01*
X95607238Y-99310795D02*
X95702476Y-99072700D01*
X95607238Y-98834604D01*
X95892952Y-99215557D02*
X95702476Y-99072700D01*
X95892952Y-98929842D01*
X95464380Y-99072700D02*
X95702476Y-99072700D01*
X95607238Y-99310795D02*
X95702476Y-99072700D01*
X95607238Y-98834604D01*
X95892952Y-99215557D02*
X95702476Y-99072700D01*
X95892952Y-98929842D01*
X71810714Y-95702380D02*
X71477380Y-95226190D01*
X71239285Y-95702380D02*
X71239285Y-94702380D01*
X71620238Y-94702380D01*
X71715476Y-94750000D01*
X71763095Y-94797619D01*
X71810714Y-94892857D01*
X71810714Y-95035714D01*
X71763095Y-95130952D01*
X71715476Y-95178571D01*
X71620238Y-95226190D01*
X71239285Y-95226190D01*
X72239285Y-95702380D02*
X72239285Y-94702380D01*
X72810714Y-95702380D01*
X72810714Y-94702380D01*
X73286904Y-95702380D02*
X73286904Y-94702380D01*
X73286904Y-95178571D02*
X73858333Y-95178571D01*
X73858333Y-95702380D02*
X73858333Y-94702380D01*
X74858333Y-95702380D02*
X74286904Y-95702380D01*
X74572619Y-95702380D02*
X74572619Y-94702380D01*
X74477380Y-94845238D01*
X74382142Y-94940476D01*
X74286904Y-94988095D01*
X70064380Y-99072700D02*
X70302476Y-99072700D01*
X70207238Y-99310795D02*
X70302476Y-99072700D01*
X70207238Y-98834604D01*
X70492952Y-99215557D02*
X70302476Y-99072700D01*
X70492952Y-98929842D01*
X70064380Y-99072700D02*
X70302476Y-99072700D01*
X70207238Y-99310795D02*
X70302476Y-99072700D01*
X70207238Y-98834604D01*
X70492952Y-99215557D02*
X70302476Y-99072700D01*
X70492952Y-98929842D01*
X164377619Y-92511428D02*
X164330000Y-92606666D01*
X164234761Y-92701904D01*
X164091904Y-92844761D01*
X164044285Y-92940000D01*
X164044285Y-93035238D01*
X164282380Y-92987619D02*
X164234761Y-93082857D01*
X164139523Y-93178095D01*
X163949047Y-93225714D01*
X163615714Y-93225714D01*
X163425238Y-93178095D01*
X163330000Y-93082857D01*
X163282380Y-92987619D01*
X163282380Y-92797142D01*
X163330000Y-92701904D01*
X163425238Y-92606666D01*
X163615714Y-92559047D01*
X163949047Y-92559047D01*
X164139523Y-92606666D01*
X164234761Y-92701904D01*
X164282380Y-92797142D01*
X164282380Y-92987619D01*
X163758571Y-92130476D02*
X163758571Y-91797142D01*
X164282380Y-91654285D02*
X164282380Y-92130476D01*
X163282380Y-92130476D01*
X163282380Y-91654285D01*
X164282380Y-91225714D02*
X163282380Y-91225714D01*
X164282380Y-90654285D01*
X163282380Y-90654285D01*
X163710952Y-90035238D02*
X163663333Y-90130476D01*
X163615714Y-90178095D01*
X163520476Y-90225714D01*
X163472857Y-90225714D01*
X163377619Y-90178095D01*
X163330000Y-90130476D01*
X163282380Y-90035238D01*
X163282380Y-89844761D01*
X163330000Y-89749523D01*
X163377619Y-89701904D01*
X163472857Y-89654285D01*
X163520476Y-89654285D01*
X163615714Y-89701904D01*
X163663333Y-89749523D01*
X163710952Y-89844761D01*
X163710952Y-90035238D01*
X163758571Y-90130476D01*
X163806190Y-90178095D01*
X163901428Y-90225714D01*
X164091904Y-90225714D01*
X164187142Y-90178095D01*
X164234761Y-90130476D01*
X164282380Y-90035238D01*
X164282380Y-89844761D01*
X164234761Y-89749523D01*
X164187142Y-89701904D01*
X164091904Y-89654285D01*
X163901428Y-89654285D01*
X163806190Y-89701904D01*
X163758571Y-89749523D01*
X163710952Y-89844761D01*
X151677619Y-92511428D02*
X151630000Y-92606666D01*
X151534761Y-92701904D01*
X151391904Y-92844761D01*
X151344285Y-92940000D01*
X151344285Y-93035238D01*
X151582380Y-92987619D02*
X151534761Y-93082857D01*
X151439523Y-93178095D01*
X151249047Y-93225714D01*
X150915714Y-93225714D01*
X150725238Y-93178095D01*
X150630000Y-93082857D01*
X150582380Y-92987619D01*
X150582380Y-92797142D01*
X150630000Y-92701904D01*
X150725238Y-92606666D01*
X150915714Y-92559047D01*
X151249047Y-92559047D01*
X151439523Y-92606666D01*
X151534761Y-92701904D01*
X151582380Y-92797142D01*
X151582380Y-92987619D01*
X151058571Y-92130476D02*
X151058571Y-91797142D01*
X151582380Y-91654285D02*
X151582380Y-92130476D01*
X150582380Y-92130476D01*
X150582380Y-91654285D01*
X151582380Y-91225714D02*
X150582380Y-91225714D01*
X151582380Y-90654285D01*
X150582380Y-90654285D01*
X150582380Y-90273333D02*
X150582380Y-89606666D01*
X151582380Y-90035238D01*
X138977619Y-92511428D02*
X138930000Y-92606666D01*
X138834761Y-92701904D01*
X138691904Y-92844761D01*
X138644285Y-92940000D01*
X138644285Y-93035238D01*
X138882380Y-92987619D02*
X138834761Y-93082857D01*
X138739523Y-93178095D01*
X138549047Y-93225714D01*
X138215714Y-93225714D01*
X138025238Y-93178095D01*
X137930000Y-93082857D01*
X137882380Y-92987619D01*
X137882380Y-92797142D01*
X137930000Y-92701904D01*
X138025238Y-92606666D01*
X138215714Y-92559047D01*
X138549047Y-92559047D01*
X138739523Y-92606666D01*
X138834761Y-92701904D01*
X138882380Y-92797142D01*
X138882380Y-92987619D01*
X138358571Y-92130476D02*
X138358571Y-91797142D01*
X138882380Y-91654285D02*
X138882380Y-92130476D01*
X137882380Y-92130476D01*
X137882380Y-91654285D01*
X138882380Y-91225714D02*
X137882380Y-91225714D01*
X138882380Y-90654285D01*
X137882380Y-90654285D01*
X137882380Y-89749523D02*
X137882380Y-89940000D01*
X137930000Y-90035238D01*
X137977619Y-90082857D01*
X138120476Y-90178095D01*
X138310952Y-90225714D01*
X138691904Y-90225714D01*
X138787142Y-90178095D01*
X138834761Y-90130476D01*
X138882380Y-90035238D01*
X138882380Y-89844761D01*
X138834761Y-89749523D01*
X138787142Y-89701904D01*
X138691904Y-89654285D01*
X138453809Y-89654285D01*
X138358571Y-89701904D01*
X138310952Y-89749523D01*
X138263333Y-89844761D01*
X138263333Y-90035238D01*
X138310952Y-90130476D01*
X138358571Y-90178095D01*
X138453809Y-90225714D01*
X126277619Y-92511428D02*
X126230000Y-92606666D01*
X126134761Y-92701904D01*
X125991904Y-92844761D01*
X125944285Y-92940000D01*
X125944285Y-93035238D01*
X126182380Y-92987619D02*
X126134761Y-93082857D01*
X126039523Y-93178095D01*
X125849047Y-93225714D01*
X125515714Y-93225714D01*
X125325238Y-93178095D01*
X125230000Y-93082857D01*
X125182380Y-92987619D01*
X125182380Y-92797142D01*
X125230000Y-92701904D01*
X125325238Y-92606666D01*
X125515714Y-92559047D01*
X125849047Y-92559047D01*
X126039523Y-92606666D01*
X126134761Y-92701904D01*
X126182380Y-92797142D01*
X126182380Y-92987619D01*
X125658571Y-92130476D02*
X125658571Y-91797142D01*
X126182380Y-91654285D02*
X126182380Y-92130476D01*
X125182380Y-92130476D01*
X125182380Y-91654285D01*
X126182380Y-91225714D02*
X125182380Y-91225714D01*
X126182380Y-90654285D01*
X125182380Y-90654285D01*
X125182380Y-89701904D02*
X125182380Y-90178095D01*
X125658571Y-90225714D01*
X125610952Y-90178095D01*
X125563333Y-90082857D01*
X125563333Y-89844761D01*
X125610952Y-89749523D01*
X125658571Y-89701904D01*
X125753809Y-89654285D01*
X125991904Y-89654285D01*
X126087142Y-89701904D01*
X126134761Y-89749523D01*
X126182380Y-89844761D01*
X126182380Y-90082857D01*
X126134761Y-90178095D01*
X126087142Y-90225714D01*
X113577619Y-92511428D02*
X113530000Y-92606666D01*
X113434761Y-92701904D01*
X113291904Y-92844761D01*
X113244285Y-92940000D01*
X113244285Y-93035238D01*
X113482380Y-92987619D02*
X113434761Y-93082857D01*
X113339523Y-93178095D01*
X113149047Y-93225714D01*
X112815714Y-93225714D01*
X112625238Y-93178095D01*
X112530000Y-93082857D01*
X112482380Y-92987619D01*
X112482380Y-92797142D01*
X112530000Y-92701904D01*
X112625238Y-92606666D01*
X112815714Y-92559047D01*
X113149047Y-92559047D01*
X113339523Y-92606666D01*
X113434761Y-92701904D01*
X113482380Y-92797142D01*
X113482380Y-92987619D01*
X112958571Y-92130476D02*
X112958571Y-91797142D01*
X113482380Y-91654285D02*
X113482380Y-92130476D01*
X112482380Y-92130476D01*
X112482380Y-91654285D01*
X113482380Y-91225714D02*
X112482380Y-91225714D01*
X113482380Y-90654285D01*
X112482380Y-90654285D01*
X112815714Y-89749523D02*
X113482380Y-89749523D01*
X112434761Y-89987619D02*
X113149047Y-90225714D01*
X113149047Y-89606666D01*
X100877619Y-92511428D02*
X100830000Y-92606666D01*
X100734761Y-92701904D01*
X100591904Y-92844761D01*
X100544285Y-92940000D01*
X100544285Y-93035238D01*
X100782380Y-92987619D02*
X100734761Y-93082857D01*
X100639523Y-93178095D01*
X100449047Y-93225714D01*
X100115714Y-93225714D01*
X99925238Y-93178095D01*
X99830000Y-93082857D01*
X99782380Y-92987619D01*
X99782380Y-92797142D01*
X99830000Y-92701904D01*
X99925238Y-92606666D01*
X100115714Y-92559047D01*
X100449047Y-92559047D01*
X100639523Y-92606666D01*
X100734761Y-92701904D01*
X100782380Y-92797142D01*
X100782380Y-92987619D01*
X100258571Y-92130476D02*
X100258571Y-91797142D01*
X100782380Y-91654285D02*
X100782380Y-92130476D01*
X99782380Y-92130476D01*
X99782380Y-91654285D01*
X100782380Y-91225714D02*
X99782380Y-91225714D01*
X100782380Y-90654285D01*
X99782380Y-90654285D01*
X99782380Y-90273333D02*
X99782380Y-89654285D01*
X100163333Y-89987619D01*
X100163333Y-89844761D01*
X100210952Y-89749523D01*
X100258571Y-89701904D01*
X100353809Y-89654285D01*
X100591904Y-89654285D01*
X100687142Y-89701904D01*
X100734761Y-89749523D01*
X100782380Y-89844761D01*
X100782380Y-90130476D01*
X100734761Y-90225714D01*
X100687142Y-90273333D01*
X75477619Y-92511428D02*
X75430000Y-92606666D01*
X75334761Y-92701904D01*
X75191904Y-92844761D01*
X75144285Y-92940000D01*
X75144285Y-93035238D01*
X75382380Y-92987619D02*
X75334761Y-93082857D01*
X75239523Y-93178095D01*
X75049047Y-93225714D01*
X74715714Y-93225714D01*
X74525238Y-93178095D01*
X74430000Y-93082857D01*
X74382380Y-92987619D01*
X74382380Y-92797142D01*
X74430000Y-92701904D01*
X74525238Y-92606666D01*
X74715714Y-92559047D01*
X75049047Y-92559047D01*
X75239523Y-92606666D01*
X75334761Y-92701904D01*
X75382380Y-92797142D01*
X75382380Y-92987619D01*
X74858571Y-92130476D02*
X74858571Y-91797142D01*
X75382380Y-91654285D02*
X75382380Y-92130476D01*
X74382380Y-92130476D01*
X74382380Y-91654285D01*
X75382380Y-91225714D02*
X74382380Y-91225714D01*
X75382380Y-90654285D01*
X74382380Y-90654285D01*
X75382380Y-89654285D02*
X75382380Y-90225714D01*
X75382380Y-89940000D02*
X74382380Y-89940000D01*
X74525238Y-90035238D01*
X74620476Y-90130476D01*
X74668095Y-90225714D01*
X104441666Y-65968571D02*
X104108333Y-65968571D01*
X104108333Y-66492380D02*
X104108333Y-65492380D01*
X104584523Y-65492380D01*
X105489285Y-66492380D02*
X104917857Y-66492380D01*
X105203571Y-66492380D02*
X105203571Y-65492380D01*
X105108333Y-65635238D01*
X105013095Y-65730476D01*
X104917857Y-65778095D01*
X163482380Y-106171904D02*
X164291904Y-106171904D01*
X164387142Y-106124285D01*
X164434761Y-106076666D01*
X164482380Y-105981428D01*
X164482380Y-105790952D01*
X164434761Y-105695714D01*
X164387142Y-105648095D01*
X164291904Y-105600476D01*
X163482380Y-105600476D01*
X163910952Y-104981428D02*
X163863333Y-105076666D01*
X163815714Y-105124285D01*
X163720476Y-105171904D01*
X163672857Y-105171904D01*
X163577619Y-105124285D01*
X163530000Y-105076666D01*
X163482380Y-104981428D01*
X163482380Y-104790952D01*
X163530000Y-104695714D01*
X163577619Y-104648095D01*
X163672857Y-104600476D01*
X163720476Y-104600476D01*
X163815714Y-104648095D01*
X163863333Y-104695714D01*
X163910952Y-104790952D01*
X163910952Y-104981428D01*
X163958571Y-105076666D01*
X164006190Y-105124285D01*
X164101428Y-105171904D01*
X164291904Y-105171904D01*
X164387142Y-105124285D01*
X164434761Y-105076666D01*
X164482380Y-104981428D01*
X164482380Y-104790952D01*
X164434761Y-104695714D01*
X164387142Y-104648095D01*
X164291904Y-104600476D01*
X164101428Y-104600476D01*
X164006190Y-104648095D01*
X163958571Y-104695714D01*
X163910952Y-104790952D01*
X150782380Y-106171904D02*
X151591904Y-106171904D01*
X151687142Y-106124285D01*
X151734761Y-106076666D01*
X151782380Y-105981428D01*
X151782380Y-105790952D01*
X151734761Y-105695714D01*
X151687142Y-105648095D01*
X151591904Y-105600476D01*
X150782380Y-105600476D01*
X150782380Y-105219523D02*
X150782380Y-104552857D01*
X151782380Y-104981428D01*
X138082380Y-106171904D02*
X138891904Y-106171904D01*
X138987142Y-106124285D01*
X139034761Y-106076666D01*
X139082380Y-105981428D01*
X139082380Y-105790952D01*
X139034761Y-105695714D01*
X138987142Y-105648095D01*
X138891904Y-105600476D01*
X138082380Y-105600476D01*
X138082380Y-104695714D02*
X138082380Y-104886190D01*
X138130000Y-104981428D01*
X138177619Y-105029047D01*
X138320476Y-105124285D01*
X138510952Y-105171904D01*
X138891904Y-105171904D01*
X138987142Y-105124285D01*
X139034761Y-105076666D01*
X139082380Y-104981428D01*
X139082380Y-104790952D01*
X139034761Y-104695714D01*
X138987142Y-104648095D01*
X138891904Y-104600476D01*
X138653809Y-104600476D01*
X138558571Y-104648095D01*
X138510952Y-104695714D01*
X138463333Y-104790952D01*
X138463333Y-104981428D01*
X138510952Y-105076666D01*
X138558571Y-105124285D01*
X138653809Y-105171904D01*
X125382380Y-106171904D02*
X126191904Y-106171904D01*
X126287142Y-106124285D01*
X126334761Y-106076666D01*
X126382380Y-105981428D01*
X126382380Y-105790952D01*
X126334761Y-105695714D01*
X126287142Y-105648095D01*
X126191904Y-105600476D01*
X125382380Y-105600476D01*
X125382380Y-104648095D02*
X125382380Y-105124285D01*
X125858571Y-105171904D01*
X125810952Y-105124285D01*
X125763333Y-105029047D01*
X125763333Y-104790952D01*
X125810952Y-104695714D01*
X125858571Y-104648095D01*
X125953809Y-104600476D01*
X126191904Y-104600476D01*
X126287142Y-104648095D01*
X126334761Y-104695714D01*
X126382380Y-104790952D01*
X126382380Y-105029047D01*
X126334761Y-105124285D01*
X126287142Y-105171904D01*
X112682380Y-106171904D02*
X113491904Y-106171904D01*
X113587142Y-106124285D01*
X113634761Y-106076666D01*
X113682380Y-105981428D01*
X113682380Y-105790952D01*
X113634761Y-105695714D01*
X113587142Y-105648095D01*
X113491904Y-105600476D01*
X112682380Y-105600476D01*
X113015714Y-104695714D02*
X113682380Y-104695714D01*
X112634761Y-104933809D02*
X113349047Y-105171904D01*
X113349047Y-104552857D01*
X87282380Y-106171904D02*
X88091904Y-106171904D01*
X88187142Y-106124285D01*
X88234761Y-106076666D01*
X88282380Y-105981428D01*
X88282380Y-105790952D01*
X88234761Y-105695714D01*
X88187142Y-105648095D01*
X88091904Y-105600476D01*
X87282380Y-105600476D01*
X87377619Y-105171904D02*
X87330000Y-105124285D01*
X87282380Y-105029047D01*
X87282380Y-104790952D01*
X87330000Y-104695714D01*
X87377619Y-104648095D01*
X87472857Y-104600476D01*
X87568095Y-104600476D01*
X87710952Y-104648095D01*
X88282380Y-105219523D01*
X88282380Y-104600476D01*
X116244761Y-111577380D02*
X115911428Y-111101190D01*
X115673333Y-111577380D02*
X115673333Y-110577380D01*
X116054285Y-110577380D01*
X116149523Y-110625000D01*
X116197142Y-110672619D01*
X116244761Y-110767857D01*
X116244761Y-110910714D01*
X116197142Y-111005952D01*
X116149523Y-111053571D01*
X116054285Y-111101190D01*
X115673333Y-111101190D01*
X116530476Y-110577380D02*
X116863809Y-111577380D01*
X117197142Y-110577380D01*
X118006666Y-110577380D02*
X117530476Y-110577380D01*
X117482857Y-111053571D01*
X117530476Y-111005952D01*
X117625714Y-110958333D01*
X117863809Y-110958333D01*
X117959047Y-111005952D01*
X118006666Y-111053571D01*
X118054285Y-111148809D01*
X118054285Y-111386904D01*
X118006666Y-111482142D01*
X117959047Y-111529761D01*
X117863809Y-111577380D01*
X117625714Y-111577380D01*
X117530476Y-111529761D01*
X117482857Y-111482142D01*
X65444761Y-111577380D02*
X65111428Y-111101190D01*
X64873333Y-111577380D02*
X64873333Y-110577380D01*
X65254285Y-110577380D01*
X65349523Y-110625000D01*
X65397142Y-110672619D01*
X65444761Y-110767857D01*
X65444761Y-110910714D01*
X65397142Y-111005952D01*
X65349523Y-111053571D01*
X65254285Y-111101190D01*
X64873333Y-111101190D01*
X65730476Y-110577380D02*
X66063809Y-111577380D01*
X66397142Y-110577380D01*
X67254285Y-111577380D02*
X66682857Y-111577380D01*
X66968571Y-111577380D02*
X66968571Y-110577380D01*
X66873333Y-110720238D01*
X66778095Y-110815476D01*
X66682857Y-110863095D01*
X159297619Y-92487619D02*
X159250000Y-92582857D01*
X159154761Y-92678095D01*
X159011904Y-92820952D01*
X158964285Y-92916190D01*
X158964285Y-93011428D01*
X159202380Y-92963809D02*
X159154761Y-93059047D01*
X159059523Y-93154285D01*
X158869047Y-93201904D01*
X158535714Y-93201904D01*
X158345238Y-93154285D01*
X158250000Y-93059047D01*
X158202380Y-92963809D01*
X158202380Y-92773333D01*
X158250000Y-92678095D01*
X158345238Y-92582857D01*
X158535714Y-92535238D01*
X158869047Y-92535238D01*
X159059523Y-92582857D01*
X159154761Y-92678095D01*
X159202380Y-92773333D01*
X159202380Y-92963809D01*
X158678571Y-92106666D02*
X158678571Y-91773333D01*
X159202380Y-91630476D02*
X159202380Y-92106666D01*
X158202380Y-92106666D01*
X158202380Y-91630476D01*
X159202380Y-91201904D02*
X158202380Y-91201904D01*
X158202380Y-90820952D01*
X158250000Y-90725714D01*
X158297619Y-90678095D01*
X158392857Y-90630476D01*
X158535714Y-90630476D01*
X158630952Y-90678095D01*
X158678571Y-90725714D01*
X158726190Y-90820952D01*
X158726190Y-91201904D01*
X158630952Y-90059047D02*
X158583333Y-90154285D01*
X158535714Y-90201904D01*
X158440476Y-90249523D01*
X158392857Y-90249523D01*
X158297619Y-90201904D01*
X158250000Y-90154285D01*
X158202380Y-90059047D01*
X158202380Y-89868571D01*
X158250000Y-89773333D01*
X158297619Y-89725714D01*
X158392857Y-89678095D01*
X158440476Y-89678095D01*
X158535714Y-89725714D01*
X158583333Y-89773333D01*
X158630952Y-89868571D01*
X158630952Y-90059047D01*
X158678571Y-90154285D01*
X158726190Y-90201904D01*
X158821428Y-90249523D01*
X159011904Y-90249523D01*
X159107142Y-90201904D01*
X159154761Y-90154285D01*
X159202380Y-90059047D01*
X159202380Y-89868571D01*
X159154761Y-89773333D01*
X159107142Y-89725714D01*
X159011904Y-89678095D01*
X158821428Y-89678095D01*
X158726190Y-89725714D01*
X158678571Y-89773333D01*
X158630952Y-89868571D01*
X146597619Y-92487619D02*
X146550000Y-92582857D01*
X146454761Y-92678095D01*
X146311904Y-92820952D01*
X146264285Y-92916190D01*
X146264285Y-93011428D01*
X146502380Y-92963809D02*
X146454761Y-93059047D01*
X146359523Y-93154285D01*
X146169047Y-93201904D01*
X145835714Y-93201904D01*
X145645238Y-93154285D01*
X145550000Y-93059047D01*
X145502380Y-92963809D01*
X145502380Y-92773333D01*
X145550000Y-92678095D01*
X145645238Y-92582857D01*
X145835714Y-92535238D01*
X146169047Y-92535238D01*
X146359523Y-92582857D01*
X146454761Y-92678095D01*
X146502380Y-92773333D01*
X146502380Y-92963809D01*
X145978571Y-92106666D02*
X145978571Y-91773333D01*
X146502380Y-91630476D02*
X146502380Y-92106666D01*
X145502380Y-92106666D01*
X145502380Y-91630476D01*
X146502380Y-91201904D02*
X145502380Y-91201904D01*
X145502380Y-90820952D01*
X145550000Y-90725714D01*
X145597619Y-90678095D01*
X145692857Y-90630476D01*
X145835714Y-90630476D01*
X145930952Y-90678095D01*
X145978571Y-90725714D01*
X146026190Y-90820952D01*
X146026190Y-91201904D01*
X145502380Y-90297142D02*
X145502380Y-89630476D01*
X146502380Y-90059047D01*
X133897619Y-92487619D02*
X133850000Y-92582857D01*
X133754761Y-92678095D01*
X133611904Y-92820952D01*
X133564285Y-92916190D01*
X133564285Y-93011428D01*
X133802380Y-92963809D02*
X133754761Y-93059047D01*
X133659523Y-93154285D01*
X133469047Y-93201904D01*
X133135714Y-93201904D01*
X132945238Y-93154285D01*
X132850000Y-93059047D01*
X132802380Y-92963809D01*
X132802380Y-92773333D01*
X132850000Y-92678095D01*
X132945238Y-92582857D01*
X133135714Y-92535238D01*
X133469047Y-92535238D01*
X133659523Y-92582857D01*
X133754761Y-92678095D01*
X133802380Y-92773333D01*
X133802380Y-92963809D01*
X133278571Y-92106666D02*
X133278571Y-91773333D01*
X133802380Y-91630476D02*
X133802380Y-92106666D01*
X132802380Y-92106666D01*
X132802380Y-91630476D01*
X133802380Y-91201904D02*
X132802380Y-91201904D01*
X132802380Y-90820952D01*
X132850000Y-90725714D01*
X132897619Y-90678095D01*
X132992857Y-90630476D01*
X133135714Y-90630476D01*
X133230952Y-90678095D01*
X133278571Y-90725714D01*
X133326190Y-90820952D01*
X133326190Y-91201904D01*
X132802380Y-89773333D02*
X132802380Y-89963809D01*
X132850000Y-90059047D01*
X132897619Y-90106666D01*
X133040476Y-90201904D01*
X133230952Y-90249523D01*
X133611904Y-90249523D01*
X133707142Y-90201904D01*
X133754761Y-90154285D01*
X133802380Y-90059047D01*
X133802380Y-89868571D01*
X133754761Y-89773333D01*
X133707142Y-89725714D01*
X133611904Y-89678095D01*
X133373809Y-89678095D01*
X133278571Y-89725714D01*
X133230952Y-89773333D01*
X133183333Y-89868571D01*
X133183333Y-90059047D01*
X133230952Y-90154285D01*
X133278571Y-90201904D01*
X133373809Y-90249523D01*
X121197619Y-92487619D02*
X121150000Y-92582857D01*
X121054761Y-92678095D01*
X120911904Y-92820952D01*
X120864285Y-92916190D01*
X120864285Y-93011428D01*
X121102380Y-92963809D02*
X121054761Y-93059047D01*
X120959523Y-93154285D01*
X120769047Y-93201904D01*
X120435714Y-93201904D01*
X120245238Y-93154285D01*
X120150000Y-93059047D01*
X120102380Y-92963809D01*
X120102380Y-92773333D01*
X120150000Y-92678095D01*
X120245238Y-92582857D01*
X120435714Y-92535238D01*
X120769047Y-92535238D01*
X120959523Y-92582857D01*
X121054761Y-92678095D01*
X121102380Y-92773333D01*
X121102380Y-92963809D01*
X120578571Y-92106666D02*
X120578571Y-91773333D01*
X121102380Y-91630476D02*
X121102380Y-92106666D01*
X120102380Y-92106666D01*
X120102380Y-91630476D01*
X121102380Y-91201904D02*
X120102380Y-91201904D01*
X120102380Y-90820952D01*
X120150000Y-90725714D01*
X120197619Y-90678095D01*
X120292857Y-90630476D01*
X120435714Y-90630476D01*
X120530952Y-90678095D01*
X120578571Y-90725714D01*
X120626190Y-90820952D01*
X120626190Y-91201904D01*
X120102380Y-89725714D02*
X120102380Y-90201904D01*
X120578571Y-90249523D01*
X120530952Y-90201904D01*
X120483333Y-90106666D01*
X120483333Y-89868571D01*
X120530952Y-89773333D01*
X120578571Y-89725714D01*
X120673809Y-89678095D01*
X120911904Y-89678095D01*
X121007142Y-89725714D01*
X121054761Y-89773333D01*
X121102380Y-89868571D01*
X121102380Y-90106666D01*
X121054761Y-90201904D01*
X121007142Y-90249523D01*
X108497619Y-92487619D02*
X108450000Y-92582857D01*
X108354761Y-92678095D01*
X108211904Y-92820952D01*
X108164285Y-92916190D01*
X108164285Y-93011428D01*
X108402380Y-92963809D02*
X108354761Y-93059047D01*
X108259523Y-93154285D01*
X108069047Y-93201904D01*
X107735714Y-93201904D01*
X107545238Y-93154285D01*
X107450000Y-93059047D01*
X107402380Y-92963809D01*
X107402380Y-92773333D01*
X107450000Y-92678095D01*
X107545238Y-92582857D01*
X107735714Y-92535238D01*
X108069047Y-92535238D01*
X108259523Y-92582857D01*
X108354761Y-92678095D01*
X108402380Y-92773333D01*
X108402380Y-92963809D01*
X107878571Y-92106666D02*
X107878571Y-91773333D01*
X108402380Y-91630476D02*
X108402380Y-92106666D01*
X107402380Y-92106666D01*
X107402380Y-91630476D01*
X108402380Y-91201904D02*
X107402380Y-91201904D01*
X107402380Y-90820952D01*
X107450000Y-90725714D01*
X107497619Y-90678095D01*
X107592857Y-90630476D01*
X107735714Y-90630476D01*
X107830952Y-90678095D01*
X107878571Y-90725714D01*
X107926190Y-90820952D01*
X107926190Y-91201904D01*
X107735714Y-89773333D02*
X108402380Y-89773333D01*
X107354761Y-90011428D02*
X108069047Y-90249523D01*
X108069047Y-89630476D01*
X95797619Y-92487619D02*
X95750000Y-92582857D01*
X95654761Y-92678095D01*
X95511904Y-92820952D01*
X95464285Y-92916190D01*
X95464285Y-93011428D01*
X95702380Y-92963809D02*
X95654761Y-93059047D01*
X95559523Y-93154285D01*
X95369047Y-93201904D01*
X95035714Y-93201904D01*
X94845238Y-93154285D01*
X94750000Y-93059047D01*
X94702380Y-92963809D01*
X94702380Y-92773333D01*
X94750000Y-92678095D01*
X94845238Y-92582857D01*
X95035714Y-92535238D01*
X95369047Y-92535238D01*
X95559523Y-92582857D01*
X95654761Y-92678095D01*
X95702380Y-92773333D01*
X95702380Y-92963809D01*
X95178571Y-92106666D02*
X95178571Y-91773333D01*
X95702380Y-91630476D02*
X95702380Y-92106666D01*
X94702380Y-92106666D01*
X94702380Y-91630476D01*
X95702380Y-91201904D02*
X94702380Y-91201904D01*
X94702380Y-90820952D01*
X94750000Y-90725714D01*
X94797619Y-90678095D01*
X94892857Y-90630476D01*
X95035714Y-90630476D01*
X95130952Y-90678095D01*
X95178571Y-90725714D01*
X95226190Y-90820952D01*
X95226190Y-91201904D01*
X94702380Y-90297142D02*
X94702380Y-89678095D01*
X95083333Y-90011428D01*
X95083333Y-89868571D01*
X95130952Y-89773333D01*
X95178571Y-89725714D01*
X95273809Y-89678095D01*
X95511904Y-89678095D01*
X95607142Y-89725714D01*
X95654761Y-89773333D01*
X95702380Y-89868571D01*
X95702380Y-90154285D01*
X95654761Y-90249523D01*
X95607142Y-90297142D01*
X83097619Y-92487619D02*
X83050000Y-92582857D01*
X82954761Y-92678095D01*
X82811904Y-92820952D01*
X82764285Y-92916190D01*
X82764285Y-93011428D01*
X83002380Y-92963809D02*
X82954761Y-93059047D01*
X82859523Y-93154285D01*
X82669047Y-93201904D01*
X82335714Y-93201904D01*
X82145238Y-93154285D01*
X82050000Y-93059047D01*
X82002380Y-92963809D01*
X82002380Y-92773333D01*
X82050000Y-92678095D01*
X82145238Y-92582857D01*
X82335714Y-92535238D01*
X82669047Y-92535238D01*
X82859523Y-92582857D01*
X82954761Y-92678095D01*
X83002380Y-92773333D01*
X83002380Y-92963809D01*
X82478571Y-92106666D02*
X82478571Y-91773333D01*
X83002380Y-91630476D02*
X83002380Y-92106666D01*
X82002380Y-92106666D01*
X82002380Y-91630476D01*
X83002380Y-91201904D02*
X82002380Y-91201904D01*
X82002380Y-90820952D01*
X82050000Y-90725714D01*
X82097619Y-90678095D01*
X82192857Y-90630476D01*
X82335714Y-90630476D01*
X82430952Y-90678095D01*
X82478571Y-90725714D01*
X82526190Y-90820952D01*
X82526190Y-91201904D01*
X82097619Y-90249523D02*
X82050000Y-90201904D01*
X82002380Y-90106666D01*
X82002380Y-89868571D01*
X82050000Y-89773333D01*
X82097619Y-89725714D01*
X82192857Y-89678095D01*
X82288095Y-89678095D01*
X82430952Y-89725714D01*
X83002380Y-90297142D01*
X83002380Y-89678095D01*
X70397619Y-92487619D02*
X70350000Y-92582857D01*
X70254761Y-92678095D01*
X70111904Y-92820952D01*
X70064285Y-92916190D01*
X70064285Y-93011428D01*
X70302380Y-92963809D02*
X70254761Y-93059047D01*
X70159523Y-93154285D01*
X69969047Y-93201904D01*
X69635714Y-93201904D01*
X69445238Y-93154285D01*
X69350000Y-93059047D01*
X69302380Y-92963809D01*
X69302380Y-92773333D01*
X69350000Y-92678095D01*
X69445238Y-92582857D01*
X69635714Y-92535238D01*
X69969047Y-92535238D01*
X70159523Y-92582857D01*
X70254761Y-92678095D01*
X70302380Y-92773333D01*
X70302380Y-92963809D01*
X69778571Y-92106666D02*
X69778571Y-91773333D01*
X70302380Y-91630476D02*
X70302380Y-92106666D01*
X69302380Y-92106666D01*
X69302380Y-91630476D01*
X70302380Y-91201904D02*
X69302380Y-91201904D01*
X69302380Y-90820952D01*
X69350000Y-90725714D01*
X69397619Y-90678095D01*
X69492857Y-90630476D01*
X69635714Y-90630476D01*
X69730952Y-90678095D01*
X69778571Y-90725714D01*
X69826190Y-90820952D01*
X69826190Y-91201904D01*
X70302380Y-89678095D02*
X70302380Y-90249523D01*
X70302380Y-89963809D02*
X69302380Y-89963809D01*
X69445238Y-90059047D01*
X69540476Y-90154285D01*
X69588095Y-90249523D01*
X128944761Y-111577380D02*
X128611428Y-111101190D01*
X128373333Y-111577380D02*
X128373333Y-110577380D01*
X128754285Y-110577380D01*
X128849523Y-110625000D01*
X128897142Y-110672619D01*
X128944761Y-110767857D01*
X128944761Y-110910714D01*
X128897142Y-111005952D01*
X128849523Y-111053571D01*
X128754285Y-111101190D01*
X128373333Y-111101190D01*
X129230476Y-110577380D02*
X129563809Y-111577380D01*
X129897142Y-110577380D01*
X130659047Y-110577380D02*
X130468571Y-110577380D01*
X130373333Y-110625000D01*
X130325714Y-110672619D01*
X130230476Y-110815476D01*
X130182857Y-111005952D01*
X130182857Y-111386904D01*
X130230476Y-111482142D01*
X130278095Y-111529761D01*
X130373333Y-111577380D01*
X130563809Y-111577380D01*
X130659047Y-111529761D01*
X130706666Y-111482142D01*
X130754285Y-111386904D01*
X130754285Y-111148809D01*
X130706666Y-111053571D01*
X130659047Y-111005952D01*
X130563809Y-110958333D01*
X130373333Y-110958333D01*
X130278095Y-111005952D01*
X130230476Y-111053571D01*
X130182857Y-111148809D01*
X90844761Y-111467380D02*
X90511428Y-110991190D01*
X90273333Y-111467380D02*
X90273333Y-110467380D01*
X90654285Y-110467380D01*
X90749523Y-110515000D01*
X90797142Y-110562619D01*
X90844761Y-110657857D01*
X90844761Y-110800714D01*
X90797142Y-110895952D01*
X90749523Y-110943571D01*
X90654285Y-110991190D01*
X90273333Y-110991190D01*
X91130476Y-110467380D02*
X91463809Y-111467380D01*
X91797142Y-110467380D01*
X92035238Y-110467380D02*
X92654285Y-110467380D01*
X92320952Y-110848333D01*
X92463809Y-110848333D01*
X92559047Y-110895952D01*
X92606666Y-110943571D01*
X92654285Y-111038809D01*
X92654285Y-111276904D01*
X92606666Y-111372142D01*
X92559047Y-111419761D01*
X92463809Y-111467380D01*
X92178095Y-111467380D01*
X92082857Y-111419761D01*
X92035238Y-111372142D01*
X103544761Y-111577380D02*
X103211428Y-111101190D01*
X102973333Y-111577380D02*
X102973333Y-110577380D01*
X103354285Y-110577380D01*
X103449523Y-110625000D01*
X103497142Y-110672619D01*
X103544761Y-110767857D01*
X103544761Y-110910714D01*
X103497142Y-111005952D01*
X103449523Y-111053571D01*
X103354285Y-111101190D01*
X102973333Y-111101190D01*
X103830476Y-110577380D02*
X104163809Y-111577380D01*
X104497142Y-110577380D01*
X105259047Y-110910714D02*
X105259047Y-111577380D01*
X105020952Y-110529761D02*
X104782857Y-111244047D01*
X105401904Y-111244047D01*
X154344761Y-111577380D02*
X154011428Y-111101190D01*
X153773333Y-111577380D02*
X153773333Y-110577380D01*
X154154285Y-110577380D01*
X154249523Y-110625000D01*
X154297142Y-110672619D01*
X154344761Y-110767857D01*
X154344761Y-110910714D01*
X154297142Y-111005952D01*
X154249523Y-111053571D01*
X154154285Y-111101190D01*
X153773333Y-111101190D01*
X154630476Y-110577380D02*
X154963809Y-111577380D01*
X155297142Y-110577380D01*
X155773333Y-111005952D02*
X155678095Y-110958333D01*
X155630476Y-110910714D01*
X155582857Y-110815476D01*
X155582857Y-110767857D01*
X155630476Y-110672619D01*
X155678095Y-110625000D01*
X155773333Y-110577380D01*
X155963809Y-110577380D01*
X156059047Y-110625000D01*
X156106666Y-110672619D01*
X156154285Y-110767857D01*
X156154285Y-110815476D01*
X156106666Y-110910714D01*
X156059047Y-110958333D01*
X155963809Y-111005952D01*
X155773333Y-111005952D01*
X155678095Y-111053571D01*
X155630476Y-111101190D01*
X155582857Y-111196428D01*
X155582857Y-111386904D01*
X155630476Y-111482142D01*
X155678095Y-111529761D01*
X155773333Y-111577380D01*
X155963809Y-111577380D01*
X156059047Y-111529761D01*
X156106666Y-111482142D01*
X156154285Y-111386904D01*
X156154285Y-111196428D01*
X156106666Y-111101190D01*
X156059047Y-111053571D01*
X155963809Y-111005952D01*
X141644761Y-111577380D02*
X141311428Y-111101190D01*
X141073333Y-111577380D02*
X141073333Y-110577380D01*
X141454285Y-110577380D01*
X141549523Y-110625000D01*
X141597142Y-110672619D01*
X141644761Y-110767857D01*
X141644761Y-110910714D01*
X141597142Y-111005952D01*
X141549523Y-111053571D01*
X141454285Y-111101190D01*
X141073333Y-111101190D01*
X141930476Y-110577380D02*
X142263809Y-111577380D01*
X142597142Y-110577380D01*
X142835238Y-110577380D02*
X143501904Y-110577380D01*
X143073333Y-111577380D01*
X82602380Y-66238333D02*
X83316666Y-66238333D01*
X83459523Y-66285952D01*
X83554761Y-66381190D01*
X83602380Y-66524047D01*
X83602380Y-66619285D01*
X83602380Y-65762142D02*
X82602380Y-65762142D01*
X82602380Y-65381190D01*
X82650000Y-65285952D01*
X82697619Y-65238333D01*
X82792857Y-65190714D01*
X82935714Y-65190714D01*
X83030952Y-65238333D01*
X83078571Y-65285952D01*
X83126190Y-65381190D01*
X83126190Y-65762142D01*
X83602380Y-64238333D02*
X83602380Y-64809761D01*
X83602380Y-64524047D02*
X82602380Y-64524047D01*
X82745238Y-64619285D01*
X82840476Y-64714523D01*
X82888095Y-64809761D01*
X69902380Y-66238333D02*
X70616666Y-66238333D01*
X70759523Y-66285952D01*
X70854761Y-66381190D01*
X70902380Y-66524047D01*
X70902380Y-66619285D01*
X70902380Y-65762142D02*
X69902380Y-65762142D01*
X69902380Y-65381190D01*
X69950000Y-65285952D01*
X69997619Y-65238333D01*
X70092857Y-65190714D01*
X70235714Y-65190714D01*
X70330952Y-65238333D01*
X70378571Y-65285952D01*
X70426190Y-65381190D01*
X70426190Y-65762142D01*
X69902380Y-64571666D02*
X69902380Y-64476428D01*
X69950000Y-64381190D01*
X69997619Y-64333571D01*
X70092857Y-64285952D01*
X70283333Y-64238333D01*
X70521428Y-64238333D01*
X70711904Y-64285952D01*
X70807142Y-64333571D01*
X70854761Y-64381190D01*
X70902380Y-64476428D01*
X70902380Y-64571666D01*
X70854761Y-64666904D01*
X70807142Y-64714523D01*
X70711904Y-64762142D01*
X70521428Y-64809761D01*
X70283333Y-64809761D01*
X70092857Y-64762142D01*
X69997619Y-64714523D01*
X69950000Y-64666904D01*
X69902380Y-64571666D01*
X166361904Y-65317619D02*
X165790476Y-65317619D01*
X166076190Y-64317619D02*
X166076190Y-65317619D01*
X165457142Y-64317619D02*
X165457142Y-65317619D01*
X165076190Y-65317619D01*
X164980952Y-65270000D01*
X164933333Y-65222380D01*
X164885714Y-65127142D01*
X164885714Y-64984285D01*
X164933333Y-64889047D01*
X164980952Y-64841428D01*
X165076190Y-64793809D01*
X165457142Y-64793809D01*
X164504761Y-65222380D02*
X164457142Y-65270000D01*
X164361904Y-65317619D01*
X164123809Y-65317619D01*
X164028571Y-65270000D01*
X163980952Y-65222380D01*
X163933333Y-65127142D01*
X163933333Y-65031904D01*
X163980952Y-64889047D01*
X164552380Y-64317619D01*
X163933333Y-64317619D01*
X160011904Y-65317619D02*
X159440476Y-65317619D01*
X159726190Y-64317619D02*
X159726190Y-65317619D01*
X159107142Y-64317619D02*
X159107142Y-65317619D01*
X158726190Y-65317619D01*
X158630952Y-65270000D01*
X158583333Y-65222380D01*
X158535714Y-65127142D01*
X158535714Y-64984285D01*
X158583333Y-64889047D01*
X158630952Y-64841428D01*
X158726190Y-64793809D01*
X159107142Y-64793809D01*
X157583333Y-64317619D02*
X158154761Y-64317619D01*
X157869047Y-64317619D02*
X157869047Y-65317619D01*
X157964285Y-65174761D01*
X158059523Y-65079523D01*
X158154761Y-65031904D01*
X100480952Y-82907142D02*
X100433333Y-82954761D01*
X100290476Y-83002380D01*
X100195238Y-83002380D01*
X100052380Y-82954761D01*
X99957142Y-82859523D01*
X99909523Y-82764285D01*
X99861904Y-82573809D01*
X99861904Y-82430952D01*
X99909523Y-82240476D01*
X99957142Y-82145238D01*
X100052380Y-82050000D01*
X100195238Y-82002380D01*
X100290476Y-82002380D01*
X100433333Y-82050000D01*
X100480952Y-82097619D01*
X101433333Y-83002380D02*
X100861904Y-83002380D01*
X101147619Y-83002380D02*
X101147619Y-82002380D01*
X101052380Y-82145238D01*
X100957142Y-82240476D01*
X100861904Y-82288095D01*
X102052380Y-82002380D02*
X102147619Y-82002380D01*
X102242857Y-82050000D01*
X102290476Y-82097619D01*
X102338095Y-82192857D01*
X102385714Y-82383333D01*
X102385714Y-82621428D01*
X102338095Y-82811904D01*
X102290476Y-82907142D01*
X102242857Y-82954761D01*
X102147619Y-83002380D01*
X102052380Y-83002380D01*
X101957142Y-82954761D01*
X101909523Y-82907142D01*
X101861904Y-82811904D01*
X101814285Y-82621428D01*
X101814285Y-82383333D01*
X101861904Y-82192857D01*
X101909523Y-82097619D01*
X101957142Y-82050000D01*
X102052380Y-82002380D01*
X103338095Y-83002380D02*
X102766666Y-83002380D01*
X103052380Y-83002380D02*
X103052380Y-82002380D01*
X102957142Y-82145238D01*
X102861904Y-82240476D01*
X102766666Y-82288095D01*
M02*
