<svg version="1.1" xmlns="http://www.w3.org/2000/svg" xmlns:xlink="http://www.w3.org/1999/xlink" stroke-linecap="round" stroke-linejoin="round" stroke-width="0" fill-rule="evenodd" clip-rule="evenodd" id="D8hlHOF9SUkZ_bottom" viewBox="50800 -111125 127000 50800" width="127mm" height="50.8mm"><defs><style>.D8hlHOF9SUkZ_fr4 {color: #666666;}
.D8hlHOF9SUkZ_cu {color: #cccccc;}
.D8hlHOF9SUkZ_cf {color: #cc9933;}
.D8hlHOF9SUkZ_sm {color: #ff0000; opacity: 0.75;}
.D8hlHOF9SUkZ_ss {color: #ffffff;}
.D8hlHOF9SUkZ_sp {color: #999999;}
.D8hlHOF9SUkZ_out {color: #000000;}</style><circle cx="0" cy="0" r="5080" id="PYIVrzUpKnJH_pad-10"/><rect x="-850" y="-850" width="1700" height="1700" rx="850" ry="850" id="PYIVrzUpKnJH_pad-11"/><rect x="-850" y="-850" width="1700" height="1700" id="PYIVrzUpKnJH_pad-12"/><circle cx="0" cy="0" r="1600" id="XLtqoTbHOI1m_pad-10"/><circle cx="0" cy="0" r="5080" id="XLtqoTbHOI1m_pad-11"/><rect x="-850" y="-850" width="1700" height="1700" rx="850" ry="850" id="XLtqoTbHOI1m_pad-12"/><rect x="-850" y="-850" width="1700" height="1700" id="XLtqoTbHOI1m_pad-13"/><circle cx="0" cy="0" r="63" id="ply1Hu4jNk4v_pad-1"/><circle cx="0" cy="0" r="19.7" id="r3F5akbZ3GXM_pad-1"/><circle cx="0" cy="0" r="120.1" id="r3F5akbZ3GXM_pad-2"/><g id="D8hlHOF9SUkZ_bottom_copper"><use xlink:href="#PYIVrzUpKnJH_pad-10" x="133350" y="-104775"/><use xlink:href="#PYIVrzUpKnJH_pad-10" x="158750" y="-85725"/><use xlink:href="#PYIVrzUpKnJH_pad-10" x="133350" y="-85725"/><use xlink:href="#PYIVrzUpKnJH_pad-10" x="107950" y="-85725"/><use xlink:href="#PYIVrzUpKnJH_pad-10" x="82550" y="-85725"/><use xlink:href="#PYIVrzUpKnJH_pad-10" x="146050" y="-85725"/><use xlink:href="#PYIVrzUpKnJH_pad-10" x="120650" y="-85725"/><use xlink:href="#PYIVrzUpKnJH_pad-10" x="95250" y="-85725"/><use xlink:href="#PYIVrzUpKnJH_pad-10" x="69850" y="-85725"/><use xlink:href="#PYIVrzUpKnJH_pad-10" x="158750" y="-104775"/><use xlink:href="#PYIVrzUpKnJH_pad-10" x="107950" y="-104775"/><use xlink:href="#PYIVrzUpKnJH_pad-10" x="82550" y="-104775"/><use xlink:href="#PYIVrzUpKnJH_pad-10" x="146050" y="-104775"/><use xlink:href="#PYIVrzUpKnJH_pad-10" x="120650" y="-104775"/><use xlink:href="#PYIVrzUpKnJH_pad-10" x="95250" y="-104775"/><use xlink:href="#PYIVrzUpKnJH_pad-10" x="69850" y="-104775"/><use xlink:href="#PYIVrzUpKnJH_pad-11" x="163830" y="-76200"/><use xlink:href="#PYIVrzUpKnJH_pad-11" x="161290" y="-76200"/><use xlink:href="#PYIVrzUpKnJH_pad-11" x="158750" y="-76200"/><use xlink:href="#PYIVrzUpKnJH_pad-11" x="156210" y="-76200"/><use xlink:href="#PYIVrzUpKnJH_pad-11" x="153670" y="-76200"/><use xlink:href="#PYIVrzUpKnJH_pad-11" x="151130" y="-76200"/><use xlink:href="#PYIVrzUpKnJH_pad-11" x="148590" y="-76200"/><use xlink:href="#PYIVrzUpKnJH_pad-11" x="146050" y="-76200"/><use xlink:href="#PYIVrzUpKnJH_pad-11" x="143510" y="-76200"/><use xlink:href="#PYIVrzUpKnJH_pad-11" x="140970" y="-76200"/><use xlink:href="#PYIVrzUpKnJH_pad-11" x="138430" y="-76200"/><use xlink:href="#PYIVrzUpKnJH_pad-11" x="135890" y="-76200"/><use xlink:href="#PYIVrzUpKnJH_pad-11" x="133350" y="-76200"/><use xlink:href="#PYIVrzUpKnJH_pad-11" x="130810" y="-76200"/><use xlink:href="#PYIVrzUpKnJH_pad-11" x="128270" y="-76200"/><use xlink:href="#PYIVrzUpKnJH_pad-11" x="125730" y="-76200"/><use xlink:href="#PYIVrzUpKnJH_pad-11" x="123190" y="-76200"/><use xlink:href="#PYIVrzUpKnJH_pad-11" x="120650" y="-76200"/><use xlink:href="#PYIVrzUpKnJH_pad-11" x="118110" y="-76200"/><use xlink:href="#PYIVrzUpKnJH_pad-11" x="115570" y="-76200"/><use xlink:href="#PYIVrzUpKnJH_pad-11" x="113030" y="-76200"/><use xlink:href="#PYIVrzUpKnJH_pad-11" x="110490" y="-76200"/><use xlink:href="#PYIVrzUpKnJH_pad-11" x="107950" y="-76200"/><use xlink:href="#PYIVrzUpKnJH_pad-11" x="105410" y="-76200"/><use xlink:href="#PYIVrzUpKnJH_pad-11" x="102870" y="-76200"/><use xlink:href="#PYIVrzUpKnJH_pad-11" x="100330" y="-76200"/><use xlink:href="#PYIVrzUpKnJH_pad-11" x="97790" y="-76200"/><use xlink:href="#PYIVrzUpKnJH_pad-11" x="95250" y="-76200"/><use xlink:href="#PYIVrzUpKnJH_pad-11" x="92710" y="-76200"/><use xlink:href="#PYIVrzUpKnJH_pad-11" x="90170" y="-76200"/><use xlink:href="#PYIVrzUpKnJH_pad-11" x="87630" y="-76200"/><use xlink:href="#PYIVrzUpKnJH_pad-11" x="85090" y="-76200"/><use xlink:href="#PYIVrzUpKnJH_pad-11" x="82550" y="-76200"/><use xlink:href="#PYIVrzUpKnJH_pad-11" x="80010" y="-76200"/><use xlink:href="#PYIVrzUpKnJH_pad-11" x="77470" y="-76200"/><use xlink:href="#PYIVrzUpKnJH_pad-11" x="74930" y="-76200"/><use xlink:href="#PYIVrzUpKnJH_pad-11" x="72390" y="-76200"/><use xlink:href="#PYIVrzUpKnJH_pad-11" x="69850" y="-76200"/><use xlink:href="#PYIVrzUpKnJH_pad-11" x="67310" y="-76200"/><use xlink:href="#PYIVrzUpKnJH_pad-12" x="64770" y="-76200"/><path d="M 163830 -76200 163830 -81280 165100 -82550 M 165100 -98425 158750 -104775 M 165100 -98425 165100 -82550 M 153670.001 -80645.001 158750 -85725 M 153670 -76200 153670.001 -80645.001 M 152400 -98425 146050 -104775 M 151130 -76200 151130 -81280 152400 -82550 152400 -98425 M 140970.001 -80645.001 146050 -85725 M 140970 -76200 140970.001 -80645.001 M 128270.001 -80645.001 133350 -85725 M 128270 -76200 128270.001 -80645.001 M 127000 -98425 120650 -104775 M 125730 -76200 125730 -81280 127000 -82550 127000 -98425 M 115570.001 -80645.001 120650 -85725 M 115570.001 -76199.999 115570.001 -80645.001 M 115570 -76200 115570.001 -76199.999 M 114300 -98425 107950 -104775 M 113030 -76200 113030 -81280 114300 -82550 114300 -98425 M 102870.001 -80645.001 107950 -85725 M 102870 -76200 102870.001 -80645.001 M 101600 -98425 95250 -104775 M 100330 -76200 100330 -81280 101600 -82550 101600 -98425 M 90170.001 -80645.001 95250 -85725 M 90170 -76200 90170.001 -80645.001 M 88900 -98425 82550 -104775 M 87630 -76200 87630 -81280 88900 -82550 88900 -98425 M 77470.001 -80645.001 82550 -85725 M 77470 -76200 77470.001 -80645.001 M 76200 -98425 69850 -104775 M 74930 -76200 74930 -81280 76200 -82550 76200 -98425 M 64770.001 -80645.001 69850 -85725 M 64770 -76200 64770.001 -80645.001 M 133350 -104775 139700 -98425 M 138430 -76200 138430 -81280 139700 -82550 139700 -98425" fill="none" stroke-width="762"/></g><g id="D8hlHOF9SUkZ_bottom_soldermask"><use xlink:href="#XLtqoTbHOI1m_pad-10" x="172720" y="-106045"/><use xlink:href="#XLtqoTbHOI1m_pad-10" x="55880" y="-106045"/><use xlink:href="#XLtqoTbHOI1m_pad-11" x="133350" y="-104775"/><use xlink:href="#XLtqoTbHOI1m_pad-11" x="158750" y="-85725"/><use xlink:href="#XLtqoTbHOI1m_pad-11" x="133350" y="-85725"/><use xlink:href="#XLtqoTbHOI1m_pad-11" x="107950" y="-85725"/><use xlink:href="#XLtqoTbHOI1m_pad-11" x="82550" y="-85725"/><use xlink:href="#XLtqoTbHOI1m_pad-11" x="146050" y="-85725"/><use xlink:href="#XLtqoTbHOI1m_pad-11" x="120650" y="-85725"/><use xlink:href="#XLtqoTbHOI1m_pad-11" x="95250" y="-85725"/><use xlink:href="#XLtqoTbHOI1m_pad-11" x="69850" y="-85725"/><use xlink:href="#XLtqoTbHOI1m_pad-11" x="158750" y="-104775"/><use xlink:href="#XLtqoTbHOI1m_pad-11" x="107950" y="-104775"/><use xlink:href="#XLtqoTbHOI1m_pad-11" x="82550" y="-104775"/><use xlink:href="#XLtqoTbHOI1m_pad-11" x="146050" y="-104775"/><use xlink:href="#XLtqoTbHOI1m_pad-11" x="120650" y="-104775"/><use xlink:href="#XLtqoTbHOI1m_pad-11" x="95250" y="-104775"/><use xlink:href="#XLtqoTbHOI1m_pad-11" x="69850" y="-104775"/><use xlink:href="#XLtqoTbHOI1m_pad-12" x="163830" y="-76200"/><use xlink:href="#XLtqoTbHOI1m_pad-12" x="161290" y="-76200"/><use xlink:href="#XLtqoTbHOI1m_pad-12" x="158750" y="-76200"/><use xlink:href="#XLtqoTbHOI1m_pad-12" x="156210" y="-76200"/><use xlink:href="#XLtqoTbHOI1m_pad-12" x="153670" y="-76200"/><use xlink:href="#XLtqoTbHOI1m_pad-12" x="151130" y="-76200"/><use xlink:href="#XLtqoTbHOI1m_pad-12" x="148590" y="-76200"/><use xlink:href="#XLtqoTbHOI1m_pad-12" x="146050" y="-76200"/><use xlink:href="#XLtqoTbHOI1m_pad-12" x="143510" y="-76200"/><use xlink:href="#XLtqoTbHOI1m_pad-12" x="140970" y="-76200"/><use xlink:href="#XLtqoTbHOI1m_pad-12" x="138430" y="-76200"/><use xlink:href="#XLtqoTbHOI1m_pad-12" x="135890" y="-76200"/><use xlink:href="#XLtqoTbHOI1m_pad-12" x="133350" y="-76200"/><use xlink:href="#XLtqoTbHOI1m_pad-12" x="130810" y="-76200"/><use xlink:href="#XLtqoTbHOI1m_pad-12" x="128270" y="-76200"/><use xlink:href="#XLtqoTbHOI1m_pad-12" x="125730" y="-76200"/><use xlink:href="#XLtqoTbHOI1m_pad-12" x="123190" y="-76200"/><use xlink:href="#XLtqoTbHOI1m_pad-12" x="120650" y="-76200"/><use xlink:href="#XLtqoTbHOI1m_pad-12" x="118110" y="-76200"/><use xlink:href="#XLtqoTbHOI1m_pad-12" x="115570" y="-76200"/><use xlink:href="#XLtqoTbHOI1m_pad-12" x="113030" y="-76200"/><use xlink:href="#XLtqoTbHOI1m_pad-12" x="110490" y="-76200"/><use xlink:href="#XLtqoTbHOI1m_pad-12" x="107950" y="-76200"/><use xlink:href="#XLtqoTbHOI1m_pad-12" x="105410" y="-76200"/><use xlink:href="#XLtqoTbHOI1m_pad-12" x="102870" y="-76200"/><use xlink:href="#XLtqoTbHOI1m_pad-12" x="100330" y="-76200"/><use xlink:href="#XLtqoTbHOI1m_pad-12" x="97790" y="-76200"/><use xlink:href="#XLtqoTbHOI1m_pad-12" x="95250" y="-76200"/><use xlink:href="#XLtqoTbHOI1m_pad-12" x="92710" y="-76200"/><use xlink:href="#XLtqoTbHOI1m_pad-12" x="90170" y="-76200"/><use xlink:href="#XLtqoTbHOI1m_pad-12" x="87630" y="-76200"/><use xlink:href="#XLtqoTbHOI1m_pad-12" x="85090" y="-76200"/><use xlink:href="#XLtqoTbHOI1m_pad-12" x="82550" y="-76200"/><use xlink:href="#XLtqoTbHOI1m_pad-12" x="80010" y="-76200"/><use xlink:href="#XLtqoTbHOI1m_pad-12" x="77470" y="-76200"/><use xlink:href="#XLtqoTbHOI1m_pad-12" x="74930" y="-76200"/><use xlink:href="#XLtqoTbHOI1m_pad-12" x="72390" y="-76200"/><use xlink:href="#XLtqoTbHOI1m_pad-12" x="69850" y="-76200"/><use xlink:href="#XLtqoTbHOI1m_pad-12" x="67310" y="-76200"/><use xlink:href="#XLtqoTbHOI1m_pad-13" x="64770" y="-76200"/></g><g id="D8hlHOF9SUkZ_bottom_drill1" transform="scale(25.4,25.4)"><use xlink:href="#ply1Hu4jNk4v_pad-1" x="6800" y="-4175"/><use xlink:href="#ply1Hu4jNk4v_pad-1" x="2200" y="-4175"/></g><g id="D8hlHOF9SUkZ_bottom_drill2" transform="scale(25.4,25.4)"><use xlink:href="#r3F5akbZ3GXM_pad-1" x="2550" y="-3000"/><use xlink:href="#r3F5akbZ3GXM_pad-1" x="2650" y="-3000"/><use xlink:href="#r3F5akbZ3GXM_pad-1" x="2750" y="-3000"/><use xlink:href="#r3F5akbZ3GXM_pad-1" x="2850" y="-3000"/><use xlink:href="#r3F5akbZ3GXM_pad-1" x="2950" y="-3000"/><use xlink:href="#r3F5akbZ3GXM_pad-1" x="3050" y="-3000"/><use xlink:href="#r3F5akbZ3GXM_pad-1" x="3150" y="-3000"/><use xlink:href="#r3F5akbZ3GXM_pad-1" x="3250" y="-3000"/><use xlink:href="#r3F5akbZ3GXM_pad-1" x="3350" y="-3000"/><use xlink:href="#r3F5akbZ3GXM_pad-1" x="3450" y="-3000"/><use xlink:href="#r3F5akbZ3GXM_pad-1" x="3550" y="-3000"/><use xlink:href="#r3F5akbZ3GXM_pad-1" x="3650" y="-3000"/><use xlink:href="#r3F5akbZ3GXM_pad-1" x="3750" y="-3000"/><use xlink:href="#r3F5akbZ3GXM_pad-1" x="3850" y="-3000"/><use xlink:href="#r3F5akbZ3GXM_pad-1" x="3950" y="-3000"/><use xlink:href="#r3F5akbZ3GXM_pad-1" x="4050" y="-3000"/><use xlink:href="#r3F5akbZ3GXM_pad-1" x="4150" y="-3000"/><use xlink:href="#r3F5akbZ3GXM_pad-1" x="4250" y="-3000"/><use xlink:href="#r3F5akbZ3GXM_pad-1" x="4350" y="-3000"/><use xlink:href="#r3F5akbZ3GXM_pad-1" x="4450" y="-3000"/><use xlink:href="#r3F5akbZ3GXM_pad-1" x="4550" y="-3000"/><use xlink:href="#r3F5akbZ3GXM_pad-1" x="4650" y="-3000"/><use xlink:href="#r3F5akbZ3GXM_pad-1" x="4750" y="-3000"/><use xlink:href="#r3F5akbZ3GXM_pad-1" x="4850" y="-3000"/><use xlink:href="#r3F5akbZ3GXM_pad-1" x="4950" y="-3000"/><use xlink:href="#r3F5akbZ3GXM_pad-1" x="5050" y="-3000"/><use xlink:href="#r3F5akbZ3GXM_pad-1" x="5150" y="-3000"/><use xlink:href="#r3F5akbZ3GXM_pad-1" x="5250" y="-3000"/><use xlink:href="#r3F5akbZ3GXM_pad-1" x="5350" y="-3000"/><use xlink:href="#r3F5akbZ3GXM_pad-1" x="5450" y="-3000"/><use xlink:href="#r3F5akbZ3GXM_pad-1" x="5550" y="-3000"/><use xlink:href="#r3F5akbZ3GXM_pad-1" x="5650" y="-3000"/><use xlink:href="#r3F5akbZ3GXM_pad-1" x="5750" y="-3000"/><use xlink:href="#r3F5akbZ3GXM_pad-1" x="5850" y="-3000"/><use xlink:href="#r3F5akbZ3GXM_pad-1" x="5950" y="-3000"/><use xlink:href="#r3F5akbZ3GXM_pad-1" x="6050" y="-3000"/><use xlink:href="#r3F5akbZ3GXM_pad-1" x="6150" y="-3000"/><use xlink:href="#r3F5akbZ3GXM_pad-1" x="6250" y="-3000"/><use xlink:href="#r3F5akbZ3GXM_pad-1" x="6350" y="-3000"/><use xlink:href="#r3F5akbZ3GXM_pad-1" x="6450" y="-3000"/><use xlink:href="#r3F5akbZ3GXM_pad-2" x="5750" y="-3375"/><use xlink:href="#r3F5akbZ3GXM_pad-2" x="2750" y="-4125"/><use xlink:href="#r3F5akbZ3GXM_pad-2" x="4250" y="-4125"/><use xlink:href="#r3F5akbZ3GXM_pad-2" x="4250" y="-3375"/><use xlink:href="#r3F5akbZ3GXM_pad-2" x="3250" y="-4125"/><use xlink:href="#r3F5akbZ3GXM_pad-2" x="5750" y="-4125"/><use xlink:href="#r3F5akbZ3GXM_pad-2" x="6250" y="-4125"/><use xlink:href="#r3F5akbZ3GXM_pad-2" x="4750" y="-4125"/><use xlink:href="#r3F5akbZ3GXM_pad-2" x="5250" y="-3375"/><use xlink:href="#r3F5akbZ3GXM_pad-2" x="6250" y="-3375"/><use xlink:href="#r3F5akbZ3GXM_pad-2" x="5250" y="-4125"/><use xlink:href="#r3F5akbZ3GXM_pad-2" x="3750" y="-4125"/><use xlink:href="#r3F5akbZ3GXM_pad-2" x="4750" y="-3375"/><use xlink:href="#r3F5akbZ3GXM_pad-2" x="2750" y="-3375"/><use xlink:href="#r3F5akbZ3GXM_pad-2" x="3750" y="-3375"/><use xlink:href="#r3F5akbZ3GXM_pad-2" x="3250" y="-3375"/></g><clipPath id="D8hlHOF9SUkZ_bottom_outline"><path d="M 92710 -64770 A 2540 2540 0 0 1 87630 -64770 2540 2540 0 0 1 92710 -64770 M 156210 -64770 A 2540 2540 0 0 1 151130 -64770 2540 2540 0 0 1 156210 -64770 M 143510 -64770 A 2540 2540 0 0 1 138430 -64770 2540 2540 0 0 1 143510 -64770 M 130810 -64960.5 A 2540 2540 0 0 1 125730 -64960.5 2540 2540 0 0 1 130810 -64960.5 M 118110 -64770 A 2540 2540 0 0 1 113030 -64770 2540 2540 0 0 1 118110 -64770 M 105410 -64770 A 2540 2540 0 0 1 100330 -64770 2540 2540 0 0 1 105410 -64770 M 80010 -64770 A 2540 2540 0 0 1 74930 -64770 2540 2540 0 0 1 80010 -64770 M 67310 -64770 A 2540 2540 0 0 1 62230 -64770 2540 2540 0 0 1 67310 -64770 M 177800 -60325 50800 -60325 50800 -111125 177800 -111125 177800 -60325" fill="none" stroke-width="50"/></clipPath><mask id="D8hlHOF9SUkZ_bottom_mech-mask"><g fill="#000" stroke="#000"><rect x="50800" y="-111125" width="127000" height="50800" fill="#fff"/><use xlink:href="#D8hlHOF9SUkZ_bottom_drill1"/><use xlink:href="#D8hlHOF9SUkZ_bottom_drill2"/></g></mask><mask id="D8hlHOF9SUkZ_bottom_cf-mask"><g fill="#fff" stroke="#fff"><use xlink:href="#D8hlHOF9SUkZ_bottom_soldermask"/></g></mask><mask id="D8hlHOF9SUkZ_bottom_sm-mask"><g fill="#000" stroke="#000"><rect x="50800" y="-111125" width="127000" height="50800" fill="#fff"/><use xlink:href="#D8hlHOF9SUkZ_bottom_soldermask"/></g></mask></defs><g transform="translate(0,-171450) scale(1,-1)"><g mask="url(#D8hlHOF9SUkZ_bottom_mech-mask)" clip-path="url(#D8hlHOF9SUkZ_bottom_outline)" transform="translate(228600,0) scale(-1,1)"><rect x="50800" y="-111125" width="127000" height="50800" fill="currentColor" class="D8hlHOF9SUkZ_fr4"/><use xlink:href="#D8hlHOF9SUkZ_bottom_copper" fill="currentColor" stroke="currentColor" class="D8hlHOF9SUkZ_cu"/><use xlink:href="#D8hlHOF9SUkZ_bottom_copper" fill="currentColor" stroke="currentColor" class="D8hlHOF9SUkZ_cf" mask="url(#D8hlHOF9SUkZ_bottom_cf-mask)"/><g mask="url(#D8hlHOF9SUkZ_bottom_sm-mask)"><rect x="50800" y="-111125" width="127000" height="50800" fill="currentColor" class="D8hlHOF9SUkZ_sm"/></g></g></g></svg>