<svg version="1.1" xmlns="http://www.w3.org/2000/svg" xmlns:xlink="http://www.w3.org/1999/xlink" stroke-linecap="round" stroke-linejoin="round" stroke-width="0" fill-rule="evenodd" clip-rule="evenodd" id="J7SjPPuOHELI_bottom" viewBox="50800 -130810 127000 70485" width="127mm" height="70.485mm"><defs><style>.J7SjPPuOHELI_fr4 {color: #666666;}
.J7SjPPuOHELI_cu {color: #cccccc;}
.J7SjPPuOHELI_cf {color: #cc9933;}
.J7SjPPuOHELI_sm {color: #ff0000; opacity: 0.75;}
.J7SjPPuOHELI_ss {color: #ffffff;}
.J7SjPPuOHELI_sp {color: #999999;}
.J7SjPPuOHELI_out {color: #000000;}</style><rect x="-850" y="-850" width="1700" height="1700" rx="850" ry="850" id="w-dhmh4gUI3x_pad-11"/><rect x="-850" y="-850" width="1700" height="1700" id="w-dhmh4gUI3x_pad-12"/><circle cx="0" cy="0" r="5080" id="w-dhmh4gUI3x_pad-13"/><circle cx="0" cy="0" r="400" id="w-dhmh4gUI3x_pad-14"/><rect x="-850" y="-850" width="1700" height="1700" rx="850" ry="850" id="DcSJm86icpjU_pad-11"/><rect x="-850" y="-850" width="1700" height="1700" id="DcSJm86icpjU_pad-12"/><circle cx="0" cy="0" r="5080" id="DcSJm86icpjU_pad-13"/><circle cx="0" cy="0" r="1600" id="DcSJm86icpjU_pad-14"/><circle cx="0" cy="0" r="63" id="XVe1pqVNTL2U_pad-1"/><circle cx="0" cy="0" r="7.85" id="HOc-LJYLYlzt_pad-1"/><circle cx="0" cy="0" r="19.7" id="HOc-LJYLYlzt_pad-2"/><circle cx="0" cy="0" r="120.1" id="HOc-LJYLYlzt_pad-3"/><circle cx="0" cy="0" r="120.1" id="HOc-LJYLYlzt_pad-4"/><g id="J7SjPPuOHELI_bottom_copper"><path d="M 177800 -60325 177800 -130810 M 50800 -60325 50800 -130810 177800 -130810 M 92710 -64770 A 2540 2540 0 0 1 87630 -64770 2540 2540 0 0 1 92710 -64770 M 156210 -64770 A 2540 2540 0 0 1 151130 -64770 2540 2540 0 0 1 156210 -64770 M 143510 -64770 A 2540 2540 0 0 1 138430 -64770 2540 2540 0 0 1 143510 -64770 M 130810 -64960.5 A 2540 2540 0 0 1 125730 -64960.5 2540 2540 0 0 1 130810 -64960.5 M 118110 -64770 A 2540 2540 0 0 1 113030 -64770 2540 2540 0 0 1 118110 -64770 M 105410 -64770 A 2540 2540 0 0 1 100330 -64770 2540 2540 0 0 1 105410 -64770 M 80010 -64770 A 2540 2540 0 0 1 74930 -64770 2540 2540 0 0 1 80010 -64770 M 67310 -64770 A 2540 2540 0 0 1 62230 -64770 2540 2540 0 0 1 67310 -64770 M 177800 -60325 50800 -60325" fill="none" stroke-width="50"/><use xlink:href="#w-dhmh4gUI3x_pad-11" x="60960" y="-118110"/><use xlink:href="#w-dhmh4gUI3x_pad-11" x="60960" y="-120650"/><use xlink:href="#w-dhmh4gUI3x_pad-12" x="60960" y="-123190"/><path d="M 54980 -127644.997 54980 -128895.003 A 249.997 249.997 0 0 0 54730.003 -129145 L 54104.997 -129145 A 249.997 249.997 0 0 0 53855 -128895.003 L 53855 -127644.997 A 249.997 249.997 0 0 0 54104.997 -127395 L 54730.003 -127395 A 249.997 249.997 0 0 0 54980 -127644.997"/><path d="M 57905 -127644.997 57905 -128895.003 A 249.997 249.997 0 0 0 57655.003 -129145 L 57029.997 -129145 A 249.997 249.997 0 0 0 56780 -128895.003 L 56780 -127644.997 A 249.997 249.997 0 0 0 57029.997 -127395 L 57655.003 -127395 A 249.997 249.997 0 0 0 57905 -127644.997"/><path d="M 54980 -112404.997 54980 -113655.003 A 249.997 249.997 0 0 0 54730.003 -113905 L 54104.997 -113905 A 249.997 249.997 0 0 0 53855 -113655.003 L 53855 -112404.997 A 249.997 249.997 0 0 0 54104.997 -112155 L 54730.003 -112155 A 249.997 249.997 0 0 0 54980 -112404.997"/><path d="M 57905 -112404.997 57905 -113655.003 A 249.997 249.997 0 0 0 57655.003 -113905 L 57029.997 -113905 A 249.997 249.997 0 0 0 56780 -113655.003 L 56780 -112404.997 A 249.997 249.997 0 0 0 57029.997 -112155 L 57655.003 -112155 A 249.997 249.997 0 0 0 57905 -112404.997"/><use xlink:href="#w-dhmh4gUI3x_pad-13" x="158750" y="-123825"/><use xlink:href="#w-dhmh4gUI3x_pad-13" x="146050" y="-123825"/><use xlink:href="#w-dhmh4gUI3x_pad-13" x="133350" y="-123825"/><use xlink:href="#w-dhmh4gUI3x_pad-13" x="120650" y="-123825"/><use xlink:href="#w-dhmh4gUI3x_pad-13" x="107950" y="-123825"/><use xlink:href="#w-dhmh4gUI3x_pad-13" x="95250" y="-123825"/><use xlink:href="#w-dhmh4gUI3x_pad-13" x="82550" y="-123825"/><use xlink:href="#w-dhmh4gUI3x_pad-13" x="69850" y="-123825"/><use xlink:href="#w-dhmh4gUI3x_pad-13" x="133350" y="-104775"/><use xlink:href="#w-dhmh4gUI3x_pad-13" x="158750" y="-85725"/><use xlink:href="#w-dhmh4gUI3x_pad-13" x="133350" y="-85725"/><use xlink:href="#w-dhmh4gUI3x_pad-13" x="107950" y="-85725"/><use xlink:href="#w-dhmh4gUI3x_pad-13" x="82550" y="-85725"/><use xlink:href="#w-dhmh4gUI3x_pad-13" x="146050" y="-85725"/><use xlink:href="#w-dhmh4gUI3x_pad-13" x="120650" y="-85725"/><use xlink:href="#w-dhmh4gUI3x_pad-13" x="95250" y="-85725"/><use xlink:href="#w-dhmh4gUI3x_pad-13" x="69850" y="-85725"/><use xlink:href="#w-dhmh4gUI3x_pad-13" x="158750" y="-104775"/><use xlink:href="#w-dhmh4gUI3x_pad-13" x="107950" y="-104775"/><use xlink:href="#w-dhmh4gUI3x_pad-13" x="82550" y="-104775"/><use xlink:href="#w-dhmh4gUI3x_pad-13" x="146050" y="-104775"/><use xlink:href="#w-dhmh4gUI3x_pad-13" x="120650" y="-104775"/><use xlink:href="#w-dhmh4gUI3x_pad-13" x="95250" y="-104775"/><use xlink:href="#w-dhmh4gUI3x_pad-13" x="69850" y="-104775"/><use xlink:href="#w-dhmh4gUI3x_pad-11" x="163830" y="-76200"/><use xlink:href="#w-dhmh4gUI3x_pad-11" x="161290" y="-76200"/><use xlink:href="#w-dhmh4gUI3x_pad-11" x="158750" y="-76200"/><use xlink:href="#w-dhmh4gUI3x_pad-11" x="156210" y="-76200"/><use xlink:href="#w-dhmh4gUI3x_pad-11" x="153670" y="-76200"/><use xlink:href="#w-dhmh4gUI3x_pad-11" x="151130" y="-76200"/><use xlink:href="#w-dhmh4gUI3x_pad-11" x="148590" y="-76200"/><use xlink:href="#w-dhmh4gUI3x_pad-11" x="146050" y="-76200"/><use xlink:href="#w-dhmh4gUI3x_pad-11" x="143510" y="-76200"/><use xlink:href="#w-dhmh4gUI3x_pad-11" x="140970" y="-76200"/><use xlink:href="#w-dhmh4gUI3x_pad-11" x="138430" y="-76200"/><use xlink:href="#w-dhmh4gUI3x_pad-11" x="135890" y="-76200"/><use xlink:href="#w-dhmh4gUI3x_pad-11" x="133350" y="-76200"/><use xlink:href="#w-dhmh4gUI3x_pad-11" x="130810" y="-76200"/><use xlink:href="#w-dhmh4gUI3x_pad-11" x="128270" y="-76200"/><use xlink:href="#w-dhmh4gUI3x_pad-11" x="125730" y="-76200"/><use xlink:href="#w-dhmh4gUI3x_pad-11" x="123190" y="-76200"/><use xlink:href="#w-dhmh4gUI3x_pad-11" x="120650" y="-76200"/><use xlink:href="#w-dhmh4gUI3x_pad-11" x="118110" y="-76200"/><use xlink:href="#w-dhmh4gUI3x_pad-11" x="115570" y="-76200"/><use xlink:href="#w-dhmh4gUI3x_pad-11" x="113030" y="-76200"/><use xlink:href="#w-dhmh4gUI3x_pad-11" x="110490" y="-76200"/><use xlink:href="#w-dhmh4gUI3x_pad-11" x="107950" y="-76200"/><use xlink:href="#w-dhmh4gUI3x_pad-11" x="105410" y="-76200"/><use xlink:href="#w-dhmh4gUI3x_pad-11" x="102870" y="-76200"/><use xlink:href="#w-dhmh4gUI3x_pad-11" x="100330" y="-76200"/><use xlink:href="#w-dhmh4gUI3x_pad-11" x="97790" y="-76200"/><use xlink:href="#w-dhmh4gUI3x_pad-11" x="95250" y="-76200"/><use xlink:href="#w-dhmh4gUI3x_pad-11" x="92710" y="-76200"/><use xlink:href="#w-dhmh4gUI3x_pad-11" x="90170" y="-76200"/><use xlink:href="#w-dhmh4gUI3x_pad-11" x="87630" y="-76200"/><use xlink:href="#w-dhmh4gUI3x_pad-11" x="85090" y="-76200"/><use xlink:href="#w-dhmh4gUI3x_pad-11" x="82550" y="-76200"/><use xlink:href="#w-dhmh4gUI3x_pad-11" x="80010" y="-76200"/><use xlink:href="#w-dhmh4gUI3x_pad-11" x="77470" y="-76200"/><use xlink:href="#w-dhmh4gUI3x_pad-11" x="74930" y="-76200"/><use xlink:href="#w-dhmh4gUI3x_pad-11" x="72390" y="-76200"/><use xlink:href="#w-dhmh4gUI3x_pad-11" x="69850" y="-76200"/><use xlink:href="#w-dhmh4gUI3x_pad-11" x="67310" y="-76200"/><use xlink:href="#w-dhmh4gUI3x_pad-12" x="64770" y="-76200"/><use xlink:href="#w-dhmh4gUI3x_pad-14" x="52070" y="-113030"/><use xlink:href="#w-dhmh4gUI3x_pad-14" x="52070" y="-128270"/><path d="M 163830 -76200 163830 -81280 165100 -82550 M 165100 -98425 158750 -104775 M 165100 -98425 165100 -82550 M 57342.5 -114492.5 60960 -118110 M 57342.5 -113030 57342.5 -114492.5 M 57342.5 -113030 61595 -108777.5 M 61595 -76303.398 63603.398 -74295 M 61595 -108777.5 61595 -76303.398 M 67310 -74997.919 67310 -76200 M 66607.081 -74295 67310 -74997.919 M 63603.398 -74295 66607.081 -74295 M 153670.001 -80645.001 158750 -85725 M 153670 -76200 153670.001 -80645.001 M 152400 -98425 146050 -104775 M 151130 -76200 151130 -81280 152400 -82550 152400 -98425 M 140970.001 -80645.001 146050 -85725 M 140970 -76200 140970.001 -80645.001 M 128270.001 -80645.001 133350 -85725 M 128270 -76200 128270.001 -80645.001 M 127000 -98425 120650 -104775 M 125730 -76200 125730 -81280 127000 -82550 127000 -98425 M 115570.001 -80645.001 120650 -85725 M 115570.001 -76199.999 115570.001 -80645.001 M 115570 -76200 115570.001 -76199.999 M 114300 -98425 107950 -104775 M 113030 -76200 113030 -81280 114300 -82550 114300 -98425 M 102870.001 -80645.001 107950 -85725 M 102870 -76200 102870.001 -80645.001 M 101600 -98425 95250 -104775 M 100330 -76200 100330 -81280 101600 -82550 101600 -98425 M 90170.001 -80645.001 95250 -85725 M 90170 -76200 90170.001 -80645.001 M 88900 -98425 82550 -104775 M 87630 -76200 87630 -81280 88900 -82550 88900 -98425 M 77470.001 -80645.001 82550 -85725 M 77470 -76200 77470.001 -80645.001 M 76200 -98425 69850 -104775 M 74930 -76200 74930 -81280 76200 -82550 76200 -98425 M 64770.001 -80645.001 69850 -85725 M 64770 -76200 64770.001 -80645.001 M 133350 -104775 139700 -98425 M 138430 -76200 138430 -81280 139700 -82550 139700 -98425 M 54417.5 -113030 52070 -113030 M 52070 -128270 54417.5 -128270" fill="none" stroke-width="762"/></g><g id="J7SjPPuOHELI_bottom_soldermask"><path d="M 177800 -60325 177800 -130810 M 50800 -60325 50800 -130810 177800 -130810 M 92710 -64770 A 2540 2540 0 0 1 87630 -64770 2540 2540 0 0 1 92710 -64770 M 156210 -64770 A 2540 2540 0 0 1 151130 -64770 2540 2540 0 0 1 156210 -64770 M 143510 -64770 A 2540 2540 0 0 1 138430 -64770 2540 2540 0 0 1 143510 -64770 M 130810 -64960.5 A 2540 2540 0 0 1 125730 -64960.5 2540 2540 0 0 1 130810 -64960.5 M 118110 -64770 A 2540 2540 0 0 1 113030 -64770 2540 2540 0 0 1 118110 -64770 M 105410 -64770 A 2540 2540 0 0 1 100330 -64770 2540 2540 0 0 1 105410 -64770 M 80010 -64770 A 2540 2540 0 0 1 74930 -64770 2540 2540 0 0 1 80010 -64770 M 67310 -64770 A 2540 2540 0 0 1 62230 -64770 2540 2540 0 0 1 67310 -64770 M 177800 -60325 50800 -60325" fill="none" stroke-width="50"/><use xlink:href="#DcSJm86icpjU_pad-11" x="60960" y="-118110"/><use xlink:href="#DcSJm86icpjU_pad-11" x="60960" y="-120650"/><use xlink:href="#DcSJm86icpjU_pad-12" x="60960" y="-123190"/><path d="M 54980 -127644.997 54980 -128895.003 A 249.997 249.997 0 0 0 54730.003 -129145 L 54104.997 -129145 A 249.997 249.997 0 0 0 53855 -128895.003 L 53855 -127644.997 A 249.997 249.997 0 0 0 54104.997 -127395 L 54730.003 -127395 A 249.997 249.997 0 0 0 54980 -127644.997"/><path d="M 57905 -127644.997 57905 -128895.003 A 249.997 249.997 0 0 0 57655.003 -129145 L 57029.997 -129145 A 249.997 249.997 0 0 0 56780 -128895.003 L 56780 -127644.997 A 249.997 249.997 0 0 0 57029.997 -127395 L 57655.003 -127395 A 249.997 249.997 0 0 0 57905 -127644.997"/><path d="M 54980 -112404.997 54980 -113655.003 A 249.997 249.997 0 0 0 54730.003 -113905 L 54104.997 -113905 A 249.997 249.997 0 0 0 53855 -113655.003 L 53855 -112404.997 A 249.997 249.997 0 0 0 54104.997 -112155 L 54730.003 -112155 A 249.997 249.997 0 0 0 54980 -112404.997"/><path d="M 57905 -112404.997 57905 -113655.003 A 249.997 249.997 0 0 0 57655.003 -113905 L 57029.997 -113905 A 249.997 249.997 0 0 0 56780 -113655.003 L 56780 -112404.997 A 249.997 249.997 0 0 0 57029.997 -112155 L 57655.003 -112155 A 249.997 249.997 0 0 0 57905 -112404.997"/><use xlink:href="#DcSJm86icpjU_pad-13" x="158750" y="-123825"/><use xlink:href="#DcSJm86icpjU_pad-13" x="146050" y="-123825"/><use xlink:href="#DcSJm86icpjU_pad-13" x="133350" y="-123825"/><use xlink:href="#DcSJm86icpjU_pad-13" x="120650" y="-123825"/><use xlink:href="#DcSJm86icpjU_pad-13" x="107950" y="-123825"/><use xlink:href="#DcSJm86icpjU_pad-13" x="95250" y="-123825"/><use xlink:href="#DcSJm86icpjU_pad-13" x="82550" y="-123825"/><use xlink:href="#DcSJm86icpjU_pad-13" x="69850" y="-123825"/><use xlink:href="#DcSJm86icpjU_pad-14" x="172720" y="-106045"/><use xlink:href="#DcSJm86icpjU_pad-14" x="55880" y="-106045"/><use xlink:href="#DcSJm86icpjU_pad-13" x="133350" y="-104775"/><use xlink:href="#DcSJm86icpjU_pad-13" x="158750" y="-85725"/><use xlink:href="#DcSJm86icpjU_pad-13" x="133350" y="-85725"/><use xlink:href="#DcSJm86icpjU_pad-13" x="107950" y="-85725"/><use xlink:href="#DcSJm86icpjU_pad-13" x="82550" y="-85725"/><use xlink:href="#DcSJm86icpjU_pad-13" x="146050" y="-85725"/><use xlink:href="#DcSJm86icpjU_pad-13" x="120650" y="-85725"/><use xlink:href="#DcSJm86icpjU_pad-13" x="95250" y="-85725"/><use xlink:href="#DcSJm86icpjU_pad-13" x="69850" y="-85725"/><use xlink:href="#DcSJm86icpjU_pad-13" x="158750" y="-104775"/><use xlink:href="#DcSJm86icpjU_pad-13" x="107950" y="-104775"/><use xlink:href="#DcSJm86icpjU_pad-13" x="82550" y="-104775"/><use xlink:href="#DcSJm86icpjU_pad-13" x="146050" y="-104775"/><use xlink:href="#DcSJm86icpjU_pad-13" x="120650" y="-104775"/><use xlink:href="#DcSJm86icpjU_pad-13" x="95250" y="-104775"/><use xlink:href="#DcSJm86icpjU_pad-13" x="69850" y="-104775"/><use xlink:href="#DcSJm86icpjU_pad-11" x="163830" y="-76200"/><use xlink:href="#DcSJm86icpjU_pad-11" x="161290" y="-76200"/><use xlink:href="#DcSJm86icpjU_pad-11" x="158750" y="-76200"/><use xlink:href="#DcSJm86icpjU_pad-11" x="156210" y="-76200"/><use xlink:href="#DcSJm86icpjU_pad-11" x="153670" y="-76200"/><use xlink:href="#DcSJm86icpjU_pad-11" x="151130" y="-76200"/><use xlink:href="#DcSJm86icpjU_pad-11" x="148590" y="-76200"/><use xlink:href="#DcSJm86icpjU_pad-11" x="146050" y="-76200"/><use xlink:href="#DcSJm86icpjU_pad-11" x="143510" y="-76200"/><use xlink:href="#DcSJm86icpjU_pad-11" x="140970" y="-76200"/><use xlink:href="#DcSJm86icpjU_pad-11" x="138430" y="-76200"/><use xlink:href="#DcSJm86icpjU_pad-11" x="135890" y="-76200"/><use xlink:href="#DcSJm86icpjU_pad-11" x="133350" y="-76200"/><use xlink:href="#DcSJm86icpjU_pad-11" x="130810" y="-76200"/><use xlink:href="#DcSJm86icpjU_pad-11" x="128270" y="-76200"/><use xlink:href="#DcSJm86icpjU_pad-11" x="125730" y="-76200"/><use xlink:href="#DcSJm86icpjU_pad-11" x="123190" y="-76200"/><use xlink:href="#DcSJm86icpjU_pad-11" x="120650" y="-76200"/><use xlink:href="#DcSJm86icpjU_pad-11" x="118110" y="-76200"/><use xlink:href="#DcSJm86icpjU_pad-11" x="115570" y="-76200"/><use xlink:href="#DcSJm86icpjU_pad-11" x="113030" y="-76200"/><use xlink:href="#DcSJm86icpjU_pad-11" x="110490" y="-76200"/><use xlink:href="#DcSJm86icpjU_pad-11" x="107950" y="-76200"/><use xlink:href="#DcSJm86icpjU_pad-11" x="105410" y="-76200"/><use xlink:href="#DcSJm86icpjU_pad-11" x="102870" y="-76200"/><use xlink:href="#DcSJm86icpjU_pad-11" x="100330" y="-76200"/><use xlink:href="#DcSJm86icpjU_pad-11" x="97790" y="-76200"/><use xlink:href="#DcSJm86icpjU_pad-11" x="95250" y="-76200"/><use xlink:href="#DcSJm86icpjU_pad-11" x="92710" y="-76200"/><use xlink:href="#DcSJm86icpjU_pad-11" x="90170" y="-76200"/><use xlink:href="#DcSJm86icpjU_pad-11" x="87630" y="-76200"/><use xlink:href="#DcSJm86icpjU_pad-11" x="85090" y="-76200"/><use xlink:href="#DcSJm86icpjU_pad-11" x="82550" y="-76200"/><use xlink:href="#DcSJm86icpjU_pad-11" x="80010" y="-76200"/><use xlink:href="#DcSJm86icpjU_pad-11" x="77470" y="-76200"/><use xlink:href="#DcSJm86icpjU_pad-11" x="74930" y="-76200"/><use xlink:href="#DcSJm86icpjU_pad-11" x="72390" y="-76200"/><use xlink:href="#DcSJm86icpjU_pad-11" x="69850" y="-76200"/><use xlink:href="#DcSJm86icpjU_pad-11" x="67310" y="-76200"/><use xlink:href="#DcSJm86icpjU_pad-12" x="64770" y="-76200"/></g><g id="J7SjPPuOHELI_bottom_solderpaste"><path d="M 177800 -60325 177800 -130810 M 50800 -60325 50800 -130810 177800 -130810 M 92710 -64770 A 2540 2540 0 0 1 87630 -64770 2540 2540 0 0 1 92710 -64770 M 156210 -64770 A 2540 2540 0 0 1 151130 -64770 2540 2540 0 0 1 156210 -64770 M 143510 -64770 A 2540 2540 0 0 1 138430 -64770 2540 2540 0 0 1 143510 -64770 M 130810 -64960.5 A 2540 2540 0 0 1 125730 -64960.5 2540 2540 0 0 1 130810 -64960.5 M 118110 -64770 A 2540 2540 0 0 1 113030 -64770 2540 2540 0 0 1 118110 -64770 M 105410 -64770 A 2540 2540 0 0 1 100330 -64770 2540 2540 0 0 1 105410 -64770 M 80010 -64770 A 2540 2540 0 0 1 74930 -64770 2540 2540 0 0 1 80010 -64770 M 67310 -64770 A 2540 2540 0 0 1 62230 -64770 2540 2540 0 0 1 67310 -64770 M 177800 -60325 50800 -60325" fill="none" stroke-width="50"/><path d="M 54980 -127644.997 54980 -128895.003 A 249.997 249.997 0 0 0 54730.003 -129145 L 54104.997 -129145 A 249.997 249.997 0 0 0 53855 -128895.003 L 53855 -127644.997 A 249.997 249.997 0 0 0 54104.997 -127395 L 54730.003 -127395 A 249.997 249.997 0 0 0 54980 -127644.997"/><path d="M 57905 -127644.997 57905 -128895.003 A 249.997 249.997 0 0 0 57655.003 -129145 L 57029.997 -129145 A 249.997 249.997 0 0 0 56780 -128895.003 L 56780 -127644.997 A 249.997 249.997 0 0 0 57029.997 -127395 L 57655.003 -127395 A 249.997 249.997 0 0 0 57905 -127644.997"/><path d="M 54980 -112404.997 54980 -113655.003 A 249.997 249.997 0 0 0 54730.003 -113905 L 54104.997 -113905 A 249.997 249.997 0 0 0 53855 -113655.003 L 53855 -112404.997 A 249.997 249.997 0 0 0 54104.997 -112155 L 54730.003 -112155 A 249.997 249.997 0 0 0 54980 -112404.997"/><path d="M 57905 -112404.997 57905 -113655.003 A 249.997 249.997 0 0 0 57655.003 -113905 L 57029.997 -113905 A 249.997 249.997 0 0 0 56780 -113655.003 L 56780 -112404.997 A 249.997 249.997 0 0 0 57029.997 -112155 L 57655.003 -112155 A 249.997 249.997 0 0 0 57905 -112404.997"/></g><g id="J7SjPPuOHELI_bottom_silkscreen"><path d="M 177800 -60325 177800 -130810 M 50800 -60325 50800 -130810 177800 -130810 M 92710 -64770 A 2540 2540 0 0 1 87630 -64770 2540 2540 0 0 1 92710 -64770 M 156210 -64770 A 2540 2540 0 0 1 151130 -64770 2540 2540 0 0 1 156210 -64770 M 143510 -64770 A 2540 2540 0 0 1 138430 -64770 2540 2540 0 0 1 143510 -64770 M 130810 -64960.5 A 2540 2540 0 0 1 125730 -64960.5 2540 2540 0 0 1 130810 -64960.5 M 118110 -64770 A 2540 2540 0 0 1 113030 -64770 2540 2540 0 0 1 118110 -64770 M 105410 -64770 A 2540 2540 0 0 1 100330 -64770 2540 2540 0 0 1 105410 -64770 M 80010 -64770 A 2540 2540 0 0 1 74930 -64770 2540 2540 0 0 1 80010 -64770 M 67310 -64770 A 2540 2540 0 0 1 62230 -64770 2540 2540 0 0 1 67310 -64770 M 177800 -60325 50800 -60325" fill="none" stroke-width="50"/><path d="M 56607.064 -127360 55152.936 -127360 M 56607.064 -129180 55152.936 -129180 M 56607.064 -112120 55152.936 -112120 M 56607.064 -113940 55152.936 -113940 M 165160 -74870 165160 -77530 M 66040 -74870 165160 -74870 M 66040 -77530 165160 -77530 M 66040 -74870 66040 -77530 M 64770 -74870 63440 -74870 63440 -76200" fill="none" stroke-width="120"/><path d="M 60332.857 -128722.38 60666.19 -128246.19 M 60904.285 -128722.38 60904.285 -127722.38 60523.333 -127722.38 60428.095 -127770 60380.476 -127817.619 60332.857 -127912.857 60332.857 -128055.714 60380.476 -128150.952 60428.095 -128198.571 60523.333 -128246.19 60904.285 -128246.19 M 59380.476 -128722.38 59951.904 -128722.38 M 59666.19 -128722.38 59666.19 -127722.38 59761.428 -127865.238 59856.666 -127960.476 59951.904 -128008.095 M 58761.428 -127722.38 58666.19 -127722.38 58570.952 -127770 58523.333 -127817.619 58475.714 -127912.857 58428.095 -128103.333 58428.095 -128341.428 58475.714 -128531.904 58523.333 -128627.142 58570.952 -128674.761 58666.19 -128722.38 58761.428 -128722.38 58856.666 -128674.761 58904.285 -128627.142 58951.904 -128531.904 58999.523 -128341.428 58999.523 -128103.333 58951.904 -127912.857 58904.285 -127817.619 58856.666 -127770 58761.428 -127722.38 M 59856.666 -113482.38 60190 -113006.19 M 60428.095 -113482.38 60428.095 -112482.38 60047.142 -112482.38 59951.904 -112530 59904.285 -112577.619 59856.666 -112672.857 59856.666 -112815.714 59904.285 -112910.952 59951.904 -112958.571 60047.142 -113006.19 60428.095 -113006.19 M 59380.476 -113482.38 59190 -113482.38 59094.761 -113434.761 59047.142 -113387.142 58951.904 -113244.285 58904.285 -113053.809 58904.285 -112672.857 58951.904 -112577.619 58999.523 -112530 59094.761 -112482.38 59285.238 -112482.38 59380.476 -112530 59428.095 -112577.619 59475.714 -112672.857 59475.714 -112910.952 59428.095 -113006.19 59380.476 -113053.809 59285.238 -113101.428 59094.761 -113101.428 58999.523 -113053.809 58951.904 -113006.19 58904.285 -112910.952 M 61892.38 -75866.666 62606.666 -75866.666 62749.523 -75819.047 62844.761 -75723.809 62892.38 -75580.952 62892.38 -75485.714 M 62892.38 -76866.666 62892.38 -76295.238 M 62892.38 -76580.952 61892.38 -76580.952 62035.238 -76485.714 62130.476 -76390.476 62178.095 -76295.238" fill="none" stroke-width="150"/></g><g id="J7SjPPuOHELI_bottom_drill1" transform="scale(25.4,25.4)"><use xlink:href="#XVe1pqVNTL2U_pad-1" x="2200" y="-4175"/><use xlink:href="#XVe1pqVNTL2U_pad-1" x="6800" y="-4175"/></g><g id="J7SjPPuOHELI_bottom_drill2" transform="scale(25.4,25.4)"><use xlink:href="#HOc-LJYLYlzt_pad-1" x="2050" y="-4450"/><use xlink:href="#HOc-LJYLYlzt_pad-1" x="2050" y="-5050"/><use xlink:href="#HOc-LJYLYlzt_pad-2" x="2550" y="-3000"/><use xlink:href="#HOc-LJYLYlzt_pad-2" x="2650" y="-3000"/><use xlink:href="#HOc-LJYLYlzt_pad-2" x="2750" y="-3000"/><use xlink:href="#HOc-LJYLYlzt_pad-2" x="2850" y="-3000"/><use xlink:href="#HOc-LJYLYlzt_pad-2" x="2950" y="-3000"/><use xlink:href="#HOc-LJYLYlzt_pad-2" x="3050" y="-3000"/><use xlink:href="#HOc-LJYLYlzt_pad-2" x="3150" y="-3000"/><use xlink:href="#HOc-LJYLYlzt_pad-2" x="3250" y="-3000"/><use xlink:href="#HOc-LJYLYlzt_pad-2" x="3350" y="-3000"/><use xlink:href="#HOc-LJYLYlzt_pad-2" x="3450" y="-3000"/><use xlink:href="#HOc-LJYLYlzt_pad-2" x="3550" y="-3000"/><use xlink:href="#HOc-LJYLYlzt_pad-2" x="3650" y="-3000"/><use xlink:href="#HOc-LJYLYlzt_pad-2" x="3750" y="-3000"/><use xlink:href="#HOc-LJYLYlzt_pad-2" x="3850" y="-3000"/><use xlink:href="#HOc-LJYLYlzt_pad-2" x="3950" y="-3000"/><use xlink:href="#HOc-LJYLYlzt_pad-2" x="4050" y="-3000"/><use xlink:href="#HOc-LJYLYlzt_pad-2" x="4150" y="-3000"/><use xlink:href="#HOc-LJYLYlzt_pad-2" x="4250" y="-3000"/><use xlink:href="#HOc-LJYLYlzt_pad-2" x="4350" y="-3000"/><use xlink:href="#HOc-LJYLYlzt_pad-2" x="4450" y="-3000"/><use xlink:href="#HOc-LJYLYlzt_pad-2" x="4550" y="-3000"/><use xlink:href="#HOc-LJYLYlzt_pad-2" x="4650" y="-3000"/><use xlink:href="#HOc-LJYLYlzt_pad-2" x="4750" y="-3000"/><use xlink:href="#HOc-LJYLYlzt_pad-2" x="4850" y="-3000"/><use xlink:href="#HOc-LJYLYlzt_pad-2" x="4950" y="-3000"/><use xlink:href="#HOc-LJYLYlzt_pad-2" x="5050" y="-3000"/><use xlink:href="#HOc-LJYLYlzt_pad-2" x="5150" y="-3000"/><use xlink:href="#HOc-LJYLYlzt_pad-2" x="5250" y="-3000"/><use xlink:href="#HOc-LJYLYlzt_pad-2" x="5350" y="-3000"/><use xlink:href="#HOc-LJYLYlzt_pad-2" x="5450" y="-3000"/><use xlink:href="#HOc-LJYLYlzt_pad-2" x="5550" y="-3000"/><use xlink:href="#HOc-LJYLYlzt_pad-2" x="5650" y="-3000"/><use xlink:href="#HOc-LJYLYlzt_pad-2" x="5750" y="-3000"/><use xlink:href="#HOc-LJYLYlzt_pad-2" x="5850" y="-3000"/><use xlink:href="#HOc-LJYLYlzt_pad-2" x="5950" y="-3000"/><use xlink:href="#HOc-LJYLYlzt_pad-2" x="6050" y="-3000"/><use xlink:href="#HOc-LJYLYlzt_pad-2" x="6150" y="-3000"/><use xlink:href="#HOc-LJYLYlzt_pad-2" x="6250" y="-3000"/><use xlink:href="#HOc-LJYLYlzt_pad-2" x="6350" y="-3000"/><use xlink:href="#HOc-LJYLYlzt_pad-2" x="6450" y="-3000"/><use xlink:href="#HOc-LJYLYlzt_pad-2" x="2400" y="-4650"/><use xlink:href="#HOc-LJYLYlzt_pad-2" x="2400" y="-4750"/><use xlink:href="#HOc-LJYLYlzt_pad-2" x="2400" y="-4850"/><use xlink:href="#HOc-LJYLYlzt_pad-3" x="5750" y="-4875"/><use xlink:href="#HOc-LJYLYlzt_pad-3" x="3250" y="-4875"/><use xlink:href="#HOc-LJYLYlzt_pad-3" x="3250" y="-3375"/><use xlink:href="#HOc-LJYLYlzt_pad-3" x="6250" y="-4875"/><use xlink:href="#HOc-LJYLYlzt_pad-3" x="4250" y="-3375"/><use xlink:href="#HOc-LJYLYlzt_pad-3" x="4750" y="-4125"/><use xlink:href="#HOc-LJYLYlzt_pad-3" x="4750" y="-4875"/><use xlink:href="#HOc-LJYLYlzt_pad-3" x="3250" y="-4125"/><use xlink:href="#HOc-LJYLYlzt_pad-3" x="5750" y="-4125"/><use xlink:href="#HOc-LJYLYlzt_pad-3" x="3750" y="-3375"/><use xlink:href="#HOc-LJYLYlzt_pad-3" x="5750" y="-3375"/><use xlink:href="#HOc-LJYLYlzt_pad-3" x="4250" y="-4125"/><use xlink:href="#HOc-LJYLYlzt_pad-3" x="3750" y="-4125"/><use xlink:href="#HOc-LJYLYlzt_pad-3" x="2750" y="-3375"/><use xlink:href="#HOc-LJYLYlzt_pad-3" x="5250" y="-4875"/><use xlink:href="#HOc-LJYLYlzt_pad-3" x="6250" y="-3375"/><use xlink:href="#HOc-LJYLYlzt_pad-3" x="2750" y="-4875"/><use xlink:href="#HOc-LJYLYlzt_pad-3" x="5250" y="-4125"/><use xlink:href="#HOc-LJYLYlzt_pad-3" x="6250" y="-4125"/><use xlink:href="#HOc-LJYLYlzt_pad-3" x="4250" y="-4875"/><use xlink:href="#HOc-LJYLYlzt_pad-3" x="5250" y="-3375"/><use xlink:href="#HOc-LJYLYlzt_pad-3" x="3750" y="-4875"/><use xlink:href="#HOc-LJYLYlzt_pad-3" x="4750" y="-3375"/><use xlink:href="#HOc-LJYLYlzt_pad-4" x="2750" y="-4125"/></g><clipPath id="J7SjPPuOHELI_bottom_outline"><path d="M 177800 -60325 177800 -130810 50800 -130810 50800 -60325 177800 -60325 M 92710 -64770 A 2540 2540 0 0 1 87630 -64770 2540 2540 0 0 1 92710 -64770 M 156210 -64770 A 2540 2540 0 0 1 151130 -64770 2540 2540 0 0 1 156210 -64770 M 143510 -64770 A 2540 2540 0 0 1 138430 -64770 2540 2540 0 0 1 143510 -64770 M 130810 -64960.5 A 2540 2540 0 0 1 125730 -64960.5 2540 2540 0 0 1 130810 -64960.5 M 118110 -64770 A 2540 2540 0 0 1 113030 -64770 2540 2540 0 0 1 118110 -64770 M 105410 -64770 A 2540 2540 0 0 1 100330 -64770 2540 2540 0 0 1 105410 -64770 M 80010 -64770 A 2540 2540 0 0 1 74930 -64770 2540 2540 0 0 1 80010 -64770 M 67310 -64770 A 2540 2540 0 0 1 62230 -64770 2540 2540 0 0 1 67310 -64770" fill="none" stroke-width="50"/></clipPath><mask id="J7SjPPuOHELI_bottom_mech-mask"><g fill="#000" stroke="#000"><rect x="50800" y="-130810" width="127000" height="70485" fill="#fff"/><use xlink:href="#J7SjPPuOHELI_bottom_drill1"/><use xlink:href="#J7SjPPuOHELI_bottom_drill2"/></g></mask><mask id="J7SjPPuOHELI_bottom_cf-mask"><g fill="#fff" stroke="#fff"><use xlink:href="#J7SjPPuOHELI_bottom_soldermask"/></g></mask><mask id="J7SjPPuOHELI_bottom_sm-mask"><g fill="#000" stroke="#000"><rect x="50800" y="-130810" width="127000" height="70485" fill="#fff"/><use xlink:href="#J7SjPPuOHELI_bottom_soldermask"/></g></mask></defs><g transform="translate(0,-191135) scale(1,-1)"><g mask="url(#J7SjPPuOHELI_bottom_mech-mask)" clip-path="url(#J7SjPPuOHELI_bottom_outline)" transform="translate(228600,0) scale(-1,1)"><rect x="50800" y="-130810" width="127000" height="70485" fill="currentColor" class="J7SjPPuOHELI_fr4"/><use xlink:href="#J7SjPPuOHELI_bottom_copper" fill="currentColor" stroke="currentColor" class="J7SjPPuOHELI_cu"/><use xlink:href="#J7SjPPuOHELI_bottom_copper" fill="currentColor" stroke="currentColor" class="J7SjPPuOHELI_cf" mask="url(#J7SjPPuOHELI_bottom_cf-mask)"/><g mask="url(#J7SjPPuOHELI_bottom_sm-mask)"><rect x="50800" y="-130810" width="127000" height="70485" fill="currentColor" class="J7SjPPuOHELI_sm"/><use xlink:href="#J7SjPPuOHELI_bottom_silkscreen" fill="currentColor" stroke="currentColor" class="J7SjPPuOHELI_ss"/></g><use xlink:href="#J7SjPPuOHELI_bottom_solderpaste" fill="currentColor" stroke="currentColor" class="J7SjPPuOHELI_sp"/></g></g></svg>